G04 EAGLE Gerber RS-274X export*
G75*
%MOMM*%
%FSLAX34Y34*%
%LPD*%
%INBottom Copper*%
%IPPOS*%
%AMOC8*
5,1,8,0,0,1.08239X$1,22.5*%
G01*
%ADD10C,1.930400*%
%ADD11C,1.778000*%
%ADD12C,0.381000*%
%ADD13C,0.889000*%
%ADD14C,0.756400*%
%ADD15C,0.250000*%
%ADD16C,0.406400*%

G36*
X953098Y430164D02*
X953098Y430164D01*
X953117Y430162D01*
X953219Y430184D01*
X953321Y430200D01*
X953338Y430210D01*
X953358Y430214D01*
X953447Y430267D01*
X953538Y430316D01*
X953552Y430330D01*
X953569Y430340D01*
X953636Y430419D01*
X953708Y430494D01*
X953716Y430512D01*
X953729Y430527D01*
X953768Y430623D01*
X953811Y430717D01*
X953813Y430737D01*
X953821Y430755D01*
X953839Y430922D01*
X953839Y792078D01*
X953836Y792098D01*
X953838Y792117D01*
X953816Y792219D01*
X953800Y792321D01*
X953790Y792338D01*
X953786Y792358D01*
X953733Y792447D01*
X953684Y792538D01*
X953670Y792552D01*
X953660Y792569D01*
X953581Y792636D01*
X953506Y792708D01*
X953488Y792716D01*
X953473Y792729D01*
X953377Y792768D01*
X953283Y792811D01*
X953263Y792813D01*
X953245Y792821D01*
X953078Y792839D01*
X699922Y792839D01*
X699902Y792836D01*
X699883Y792838D01*
X699781Y792816D01*
X699679Y792800D01*
X699662Y792790D01*
X699642Y792786D01*
X699553Y792733D01*
X699462Y792684D01*
X699448Y792670D01*
X699431Y792660D01*
X699364Y792581D01*
X699292Y792506D01*
X699284Y792488D01*
X699271Y792473D01*
X699232Y792377D01*
X699189Y792283D01*
X699187Y792263D01*
X699179Y792245D01*
X699161Y792078D01*
X699161Y430922D01*
X699164Y430902D01*
X699162Y430883D01*
X699184Y430781D01*
X699200Y430679D01*
X699210Y430662D01*
X699214Y430642D01*
X699267Y430553D01*
X699316Y430462D01*
X699330Y430448D01*
X699340Y430431D01*
X699419Y430364D01*
X699494Y430292D01*
X699512Y430284D01*
X699527Y430271D01*
X699623Y430232D01*
X699717Y430189D01*
X699737Y430187D01*
X699755Y430179D01*
X699922Y430161D01*
X953078Y430161D01*
X953098Y430164D01*
G37*
%LPC*%
G36*
X772851Y481225D02*
X772851Y481225D01*
X724225Y529851D01*
X724225Y607179D01*
X724206Y607294D01*
X724189Y607410D01*
X724187Y607416D01*
X724186Y607422D01*
X724131Y607524D01*
X724078Y607629D01*
X724073Y607634D01*
X724070Y607639D01*
X723986Y607719D01*
X723902Y607802D01*
X723896Y607805D01*
X723892Y607809D01*
X723875Y607816D01*
X723755Y607882D01*
X723618Y607939D01*
X721939Y609618D01*
X721030Y611813D01*
X721030Y614187D01*
X721939Y616382D01*
X723618Y618061D01*
X725395Y618797D01*
X725456Y618834D01*
X725521Y618864D01*
X725560Y618899D01*
X725604Y618926D01*
X725650Y618982D01*
X725702Y619030D01*
X725727Y619076D01*
X725761Y619116D01*
X725786Y619183D01*
X725821Y619246D01*
X725830Y619297D01*
X725849Y619345D01*
X725852Y619417D01*
X725865Y619488D01*
X725857Y619539D01*
X725859Y619591D01*
X725839Y619660D01*
X725829Y619731D01*
X725805Y619777D01*
X725791Y619827D01*
X725750Y619886D01*
X725717Y619950D01*
X725680Y619987D01*
X725651Y620029D01*
X725593Y620072D01*
X725542Y620122D01*
X725479Y620157D01*
X725453Y620176D01*
X725431Y620183D01*
X725395Y620203D01*
X723618Y620939D01*
X721939Y622618D01*
X721030Y624813D01*
X721030Y627187D01*
X721939Y629382D01*
X723618Y631061D01*
X725813Y631970D01*
X728187Y631970D01*
X730382Y631061D01*
X731663Y629780D01*
X731737Y629727D01*
X731806Y629667D01*
X731836Y629655D01*
X731863Y629636D01*
X731949Y629609D01*
X732034Y629575D01*
X732075Y629571D01*
X732098Y629564D01*
X732130Y629565D01*
X732201Y629557D01*
X738682Y629557D01*
X738702Y629560D01*
X738721Y629558D01*
X738823Y629580D01*
X738925Y629596D01*
X738942Y629606D01*
X738962Y629610D01*
X739051Y629663D01*
X739142Y629712D01*
X739156Y629726D01*
X739173Y629736D01*
X739240Y629815D01*
X739312Y629890D01*
X739320Y629908D01*
X739333Y629923D01*
X739372Y630019D01*
X739415Y630113D01*
X739417Y630133D01*
X739425Y630151D01*
X739443Y630318D01*
X739443Y671473D01*
X790527Y722557D01*
X882473Y722557D01*
X908557Y696473D01*
X908557Y683201D01*
X908571Y683111D01*
X908579Y683020D01*
X908591Y682990D01*
X908596Y682958D01*
X908639Y682878D01*
X908675Y682794D01*
X908701Y682762D01*
X908712Y682741D01*
X908735Y682719D01*
X908780Y682663D01*
X910061Y681382D01*
X910970Y679187D01*
X910970Y676813D01*
X910061Y674618D01*
X908382Y672939D01*
X906187Y672030D01*
X903813Y672030D01*
X901618Y672939D01*
X899939Y674618D01*
X899030Y676813D01*
X899030Y679187D01*
X899939Y681382D01*
X901220Y682663D01*
X901273Y682737D01*
X901333Y682806D01*
X901345Y682836D01*
X901364Y682862D01*
X901391Y682950D01*
X901425Y683034D01*
X901429Y683075D01*
X901436Y683098D01*
X901435Y683130D01*
X901443Y683201D01*
X901443Y693211D01*
X901429Y693302D01*
X901421Y693392D01*
X901409Y693422D01*
X901404Y693454D01*
X901361Y693535D01*
X901325Y693619D01*
X901299Y693651D01*
X901288Y693672D01*
X901265Y693694D01*
X901220Y693750D01*
X879750Y715220D01*
X879676Y715273D01*
X879606Y715333D01*
X879576Y715345D01*
X879550Y715364D01*
X879463Y715391D01*
X879378Y715425D01*
X879337Y715429D01*
X879315Y715436D01*
X879283Y715435D01*
X879211Y715443D01*
X793789Y715443D01*
X793698Y715429D01*
X793608Y715421D01*
X793578Y715409D01*
X793546Y715404D01*
X793465Y715361D01*
X793381Y715325D01*
X793349Y715299D01*
X793328Y715288D01*
X793306Y715265D01*
X793250Y715220D01*
X746780Y668750D01*
X746727Y668676D01*
X746667Y668606D01*
X746655Y668576D01*
X746636Y668550D01*
X746609Y668463D01*
X746575Y668378D01*
X746571Y668337D01*
X746564Y668315D01*
X746565Y668283D01*
X746557Y668211D01*
X746557Y627789D01*
X746571Y627698D01*
X746579Y627608D01*
X746591Y627578D01*
X746596Y627546D01*
X746639Y627465D01*
X746675Y627381D01*
X746701Y627349D01*
X746712Y627328D01*
X746735Y627306D01*
X746780Y627250D01*
X783250Y590780D01*
X785557Y588473D01*
X785557Y561789D01*
X785571Y561698D01*
X785579Y561608D01*
X785591Y561578D01*
X785596Y561546D01*
X785639Y561465D01*
X785675Y561381D01*
X785701Y561349D01*
X785712Y561328D01*
X785735Y561306D01*
X785780Y561250D01*
X802162Y544868D01*
X802179Y544856D01*
X802191Y544840D01*
X802278Y544784D01*
X802362Y544724D01*
X802381Y544718D01*
X802398Y544707D01*
X802498Y544682D01*
X802597Y544652D01*
X802617Y544652D01*
X802636Y544647D01*
X802739Y544655D01*
X802843Y544658D01*
X802862Y544665D01*
X802882Y544666D01*
X802977Y544707D01*
X803074Y544743D01*
X803090Y544755D01*
X803108Y544763D01*
X803239Y544868D01*
X804100Y545729D01*
X807928Y547315D01*
X812072Y547315D01*
X815900Y545729D01*
X818829Y542800D01*
X820415Y538972D01*
X820415Y534828D01*
X818829Y531000D01*
X815900Y528071D01*
X812072Y526485D01*
X807928Y526485D01*
X804100Y528071D01*
X801171Y531000D01*
X799585Y534828D01*
X799585Y537069D01*
X799571Y537160D01*
X799563Y537250D01*
X799551Y537280D01*
X799546Y537312D01*
X799503Y537393D01*
X799467Y537477D01*
X799441Y537509D01*
X799430Y537530D01*
X799407Y537552D01*
X799362Y537608D01*
X778443Y558527D01*
X778443Y585211D01*
X778429Y585302D01*
X778421Y585392D01*
X778409Y585422D01*
X778404Y585454D01*
X778361Y585535D01*
X778325Y585619D01*
X778299Y585651D01*
X778288Y585672D01*
X778265Y585694D01*
X778220Y585750D01*
X741750Y622220D01*
X741676Y622273D01*
X741606Y622333D01*
X741576Y622345D01*
X741550Y622364D01*
X741463Y622391D01*
X741378Y622425D01*
X741337Y622429D01*
X741315Y622436D01*
X741283Y622435D01*
X741211Y622443D01*
X732201Y622443D01*
X732111Y622429D01*
X732020Y622421D01*
X731990Y622409D01*
X731958Y622404D01*
X731878Y622361D01*
X731794Y622325D01*
X731762Y622299D01*
X731741Y622288D01*
X731719Y622265D01*
X731663Y622220D01*
X730382Y620939D01*
X728605Y620203D01*
X728544Y620166D01*
X728479Y620136D01*
X728440Y620101D01*
X728396Y620074D01*
X728350Y620018D01*
X728298Y619970D01*
X728273Y619924D01*
X728239Y619884D01*
X728214Y619817D01*
X728179Y619754D01*
X728170Y619703D01*
X728151Y619655D01*
X728148Y619583D01*
X728135Y619512D01*
X728143Y619461D01*
X728141Y619409D01*
X728161Y619340D01*
X728171Y619269D01*
X728195Y619223D01*
X728209Y619173D01*
X728250Y619114D01*
X728283Y619050D01*
X728320Y619013D01*
X728349Y618971D01*
X728407Y618928D01*
X728458Y618878D01*
X728521Y618843D01*
X728547Y618824D01*
X728569Y618817D01*
X728605Y618797D01*
X730382Y618061D01*
X732061Y616382D01*
X732970Y614187D01*
X732970Y611813D01*
X732061Y609618D01*
X730382Y607939D01*
X730245Y607882D01*
X730145Y607820D01*
X730045Y607761D01*
X730041Y607756D01*
X730036Y607753D01*
X729961Y607662D01*
X729885Y607574D01*
X729883Y607568D01*
X729879Y607563D01*
X729837Y607455D01*
X729793Y607346D01*
X729792Y607338D01*
X729791Y607334D01*
X729790Y607315D01*
X729775Y607179D01*
X729775Y532465D01*
X729789Y532375D01*
X729797Y532284D01*
X729809Y532254D01*
X729814Y532222D01*
X729857Y532141D01*
X729893Y532057D01*
X729919Y532025D01*
X729930Y532005D01*
X729953Y531982D01*
X729998Y531926D01*
X774926Y486998D01*
X775000Y486945D01*
X775070Y486885D01*
X775100Y486873D01*
X775126Y486854D01*
X775213Y486827D01*
X775298Y486793D01*
X775339Y486789D01*
X775361Y486782D01*
X775393Y486783D01*
X775465Y486775D01*
X857235Y486775D01*
X857325Y486789D01*
X857416Y486797D01*
X857446Y486809D01*
X857478Y486814D01*
X857559Y486857D01*
X857643Y486893D01*
X857675Y486919D01*
X857695Y486930D01*
X857718Y486953D01*
X857774Y486998D01*
X891938Y521162D01*
X891979Y521220D01*
X892029Y521272D01*
X892051Y521319D01*
X892081Y521361D01*
X892102Y521430D01*
X892133Y521495D01*
X892138Y521547D01*
X892154Y521597D01*
X892152Y521668D01*
X892160Y521739D01*
X892149Y521790D01*
X892147Y521842D01*
X892123Y521910D01*
X892107Y521980D01*
X892081Y522025D01*
X892063Y522073D01*
X892018Y522129D01*
X891981Y522191D01*
X891942Y522225D01*
X891909Y522265D01*
X891849Y522304D01*
X891794Y522351D01*
X891746Y522370D01*
X891702Y522398D01*
X891633Y522416D01*
X891566Y522443D01*
X891495Y522451D01*
X891464Y522459D01*
X891440Y522457D01*
X891399Y522461D01*
X880219Y522461D01*
X873610Y529071D01*
X871710Y530971D01*
X871645Y531017D01*
X871586Y531071D01*
X871546Y531089D01*
X871510Y531114D01*
X871434Y531138D01*
X871361Y531170D01*
X871317Y531174D01*
X871275Y531187D01*
X871195Y531185D01*
X871116Y531192D01*
X871073Y531182D01*
X871029Y531180D01*
X870954Y531153D01*
X870877Y531135D01*
X870839Y531111D01*
X870798Y531096D01*
X870736Y531046D01*
X870668Y531004D01*
X870629Y530961D01*
X870606Y530942D01*
X870591Y530919D01*
X870555Y530880D01*
X869519Y529453D01*
X868247Y528181D01*
X866791Y527124D01*
X865188Y526307D01*
X863477Y525751D01*
X862323Y525568D01*
X862323Y536138D01*
X862320Y536158D01*
X862322Y536177D01*
X862300Y536279D01*
X862283Y536381D01*
X862274Y536398D01*
X862270Y536418D01*
X862217Y536507D01*
X862168Y536598D01*
X862154Y536612D01*
X862144Y536629D01*
X862065Y536696D01*
X861990Y536767D01*
X861972Y536776D01*
X861957Y536789D01*
X861861Y536827D01*
X861767Y536871D01*
X861747Y536873D01*
X861729Y536881D01*
X861562Y536899D01*
X860799Y536899D01*
X860799Y536901D01*
X861562Y536901D01*
X861582Y536904D01*
X861601Y536902D01*
X861703Y536924D01*
X861805Y536941D01*
X861822Y536950D01*
X861842Y536954D01*
X861931Y537007D01*
X862022Y537056D01*
X862036Y537070D01*
X862053Y537080D01*
X862120Y537159D01*
X862191Y537234D01*
X862200Y537252D01*
X862213Y537267D01*
X862252Y537363D01*
X862295Y537457D01*
X862297Y537477D01*
X862305Y537495D01*
X862323Y537662D01*
X862323Y548232D01*
X863477Y548049D01*
X865188Y547493D01*
X866791Y546676D01*
X868247Y545619D01*
X869519Y544347D01*
X870384Y543156D01*
X870390Y543150D01*
X870394Y543143D01*
X870477Y543064D01*
X870559Y542983D01*
X870566Y542979D01*
X870572Y542974D01*
X870676Y542925D01*
X870780Y542874D01*
X870788Y542873D01*
X870795Y542870D01*
X870909Y542857D01*
X871024Y542842D01*
X871032Y542844D01*
X871039Y542843D01*
X871152Y542867D01*
X871265Y542889D01*
X871272Y542893D01*
X871280Y542895D01*
X871378Y542954D01*
X871479Y543011D01*
X871484Y543017D01*
X871491Y543021D01*
X871566Y543109D01*
X871643Y543195D01*
X871646Y543202D01*
X871651Y543208D01*
X871694Y543316D01*
X871739Y543421D01*
X871740Y543429D01*
X871743Y543436D01*
X871761Y543603D01*
X871761Y543999D01*
X871747Y544089D01*
X871739Y544180D01*
X871727Y544210D01*
X871722Y544242D01*
X871679Y544323D01*
X871643Y544407D01*
X871617Y544439D01*
X871606Y544459D01*
X871583Y544482D01*
X871538Y544538D01*
X863074Y553002D01*
X863000Y553055D01*
X862930Y553115D01*
X862900Y553127D01*
X862874Y553146D01*
X862787Y553173D01*
X862702Y553207D01*
X862661Y553211D01*
X862639Y553218D01*
X862607Y553217D01*
X862535Y553225D01*
X830851Y553225D01*
X821225Y562851D01*
X821225Y598535D01*
X821211Y598625D01*
X821203Y598716D01*
X821191Y598746D01*
X821186Y598778D01*
X821143Y598859D01*
X821107Y598943D01*
X821081Y598975D01*
X821070Y598995D01*
X821047Y599018D01*
X821002Y599074D01*
X818276Y601800D01*
X818238Y601827D01*
X818207Y601861D01*
X818139Y601899D01*
X818076Y601944D01*
X818032Y601957D01*
X817992Y601980D01*
X817915Y601993D01*
X817841Y602016D01*
X817795Y602015D01*
X817749Y602023D01*
X817673Y602012D01*
X817595Y602010D01*
X817552Y601994D01*
X817506Y601987D01*
X817437Y601952D01*
X817364Y601925D01*
X817328Y601897D01*
X817287Y601876D01*
X817233Y601820D01*
X817172Y601772D01*
X817147Y601733D01*
X817115Y601700D01*
X817080Y601638D01*
X815382Y599939D01*
X813187Y599030D01*
X810813Y599030D01*
X808618Y599939D01*
X808174Y600383D01*
X808116Y600425D01*
X808064Y600474D01*
X808017Y600496D01*
X807975Y600527D01*
X807906Y600548D01*
X807841Y600578D01*
X807789Y600584D01*
X807739Y600599D01*
X807668Y600597D01*
X807597Y600605D01*
X807546Y600594D01*
X807494Y600593D01*
X807426Y600568D01*
X807356Y600553D01*
X807311Y600526D01*
X807263Y600508D01*
X807207Y600464D01*
X807145Y600427D01*
X807111Y600387D01*
X807071Y600355D01*
X807032Y600295D01*
X806985Y600240D01*
X806966Y600191D01*
X806938Y600148D01*
X806920Y600078D01*
X806893Y600012D01*
X806885Y599940D01*
X806877Y599909D01*
X806879Y599886D01*
X806875Y599845D01*
X806875Y599365D01*
X806889Y599275D01*
X806897Y599184D01*
X806909Y599154D01*
X806914Y599122D01*
X806957Y599041D01*
X806993Y598957D01*
X807019Y598925D01*
X807030Y598905D01*
X807053Y598882D01*
X807098Y598826D01*
X809846Y596078D01*
X809940Y596010D01*
X810035Y595940D01*
X810041Y595938D01*
X810046Y595935D01*
X810157Y595900D01*
X810269Y595864D01*
X810275Y595864D01*
X810281Y595862D01*
X810398Y595865D01*
X810515Y595866D01*
X810522Y595868D01*
X810527Y595869D01*
X810544Y595875D01*
X810676Y595913D01*
X810813Y595970D01*
X813187Y595970D01*
X815382Y595061D01*
X817061Y593382D01*
X817970Y591187D01*
X817970Y588813D01*
X817061Y586618D01*
X815382Y584939D01*
X813187Y584030D01*
X810813Y584030D01*
X808618Y584939D01*
X806939Y586618D01*
X806030Y588813D01*
X806030Y591187D01*
X806087Y591324D01*
X806113Y591437D01*
X806142Y591551D01*
X806142Y591558D01*
X806143Y591564D01*
X806132Y591680D01*
X806123Y591797D01*
X806121Y591802D01*
X806120Y591809D01*
X806072Y591917D01*
X806027Y592023D01*
X806022Y592029D01*
X806020Y592033D01*
X806007Y592047D01*
X805922Y592154D01*
X801325Y596751D01*
X801325Y673443D01*
X801306Y673558D01*
X801289Y673674D01*
X801287Y673680D01*
X801286Y673686D01*
X801231Y673788D01*
X801178Y673893D01*
X801173Y673898D01*
X801170Y673903D01*
X801086Y673983D01*
X801002Y674066D01*
X800996Y674069D01*
X800992Y674073D01*
X800975Y674080D01*
X800855Y674146D01*
X797769Y675425D01*
X794625Y678569D01*
X792923Y682677D01*
X792923Y687123D01*
X794625Y691231D01*
X797769Y694375D01*
X801877Y696077D01*
X806323Y696077D01*
X810431Y694375D01*
X813575Y691231D01*
X815277Y687123D01*
X815277Y682677D01*
X813575Y678569D01*
X810431Y675425D01*
X807345Y674146D01*
X807245Y674085D01*
X807145Y674025D01*
X807141Y674020D01*
X807136Y674017D01*
X807061Y673927D01*
X806985Y673838D01*
X806983Y673832D01*
X806979Y673827D01*
X806937Y673719D01*
X806893Y673610D01*
X806892Y673602D01*
X806891Y673598D01*
X806890Y673579D01*
X806875Y673443D01*
X806875Y610155D01*
X806886Y610084D01*
X806888Y610013D01*
X806906Y609964D01*
X806914Y609912D01*
X806948Y609849D01*
X806973Y609782D01*
X807005Y609741D01*
X807030Y609695D01*
X807082Y609645D01*
X807126Y609590D01*
X807170Y609561D01*
X807208Y609526D01*
X807273Y609495D01*
X807333Y609457D01*
X807384Y609444D01*
X807431Y609422D01*
X807502Y609414D01*
X807572Y609396D01*
X807624Y609401D01*
X807675Y609395D01*
X807746Y609410D01*
X807817Y609416D01*
X807865Y609436D01*
X807916Y609447D01*
X807977Y609484D01*
X808043Y609512D01*
X808099Y609557D01*
X808127Y609573D01*
X808142Y609591D01*
X808174Y609617D01*
X808618Y610061D01*
X810813Y610970D01*
X813187Y610970D01*
X815382Y610061D01*
X817061Y608382D01*
X817118Y608245D01*
X817180Y608145D01*
X817239Y608045D01*
X817244Y608041D01*
X817247Y608036D01*
X817338Y607961D01*
X817426Y607885D01*
X817432Y607883D01*
X817437Y607879D01*
X817545Y607837D01*
X817654Y607793D01*
X817662Y607792D01*
X817666Y607791D01*
X817685Y607790D01*
X817821Y607775D01*
X820149Y607775D01*
X826775Y601149D01*
X826775Y565465D01*
X826789Y565375D01*
X826797Y565284D01*
X826809Y565254D01*
X826814Y565222D01*
X826857Y565141D01*
X826893Y565057D01*
X826919Y565025D01*
X826930Y565005D01*
X826953Y564982D01*
X826998Y564926D01*
X832926Y558998D01*
X833000Y558945D01*
X833070Y558885D01*
X833100Y558873D01*
X833126Y558854D01*
X833213Y558827D01*
X833298Y558793D01*
X833339Y558789D01*
X833361Y558782D01*
X833393Y558783D01*
X833465Y558775D01*
X859883Y558775D01*
X859953Y558786D01*
X860025Y558788D01*
X860074Y558806D01*
X860125Y558814D01*
X860189Y558848D01*
X860256Y558873D01*
X860297Y558905D01*
X860343Y558930D01*
X860392Y558982D01*
X860448Y559026D01*
X860476Y559070D01*
X860512Y559108D01*
X860542Y559173D01*
X860581Y559233D01*
X860594Y559284D01*
X860616Y559331D01*
X860624Y559402D01*
X860641Y559472D01*
X860637Y559524D01*
X860643Y559575D01*
X860628Y559646D01*
X860622Y559717D01*
X860602Y559765D01*
X860591Y559816D01*
X860554Y559877D01*
X860526Y559943D01*
X860481Y559999D01*
X860464Y560027D01*
X860447Y560042D01*
X860421Y560074D01*
X858693Y561802D01*
X858693Y566198D01*
X860002Y567507D01*
X860055Y567581D01*
X860115Y567651D01*
X860127Y567681D01*
X860146Y567707D01*
X860173Y567794D01*
X860207Y567879D01*
X860211Y567920D01*
X860218Y567942D01*
X860217Y567974D01*
X860225Y568045D01*
X860225Y590149D01*
X906851Y636775D01*
X918955Y636775D01*
X919045Y636789D01*
X919136Y636797D01*
X919165Y636809D01*
X919197Y636814D01*
X919278Y636857D01*
X919362Y636893D01*
X919394Y636919D01*
X919415Y636930D01*
X919437Y636953D01*
X919493Y636998D01*
X921802Y639307D01*
X926198Y639307D01*
X929307Y636198D01*
X929307Y631802D01*
X926543Y629038D01*
X926532Y629022D01*
X926516Y629010D01*
X926460Y628922D01*
X926400Y628839D01*
X926394Y628820D01*
X926383Y628803D01*
X926358Y628702D01*
X926327Y628603D01*
X926328Y628584D01*
X926323Y628564D01*
X926331Y628461D01*
X926334Y628358D01*
X926340Y628339D01*
X926342Y628319D01*
X926382Y628224D01*
X926418Y628127D01*
X926431Y628111D01*
X926438Y628093D01*
X926543Y627962D01*
X928307Y626198D01*
X928307Y621802D01*
X925198Y618693D01*
X920933Y618693D01*
X920843Y618679D01*
X920752Y618671D01*
X920722Y618659D01*
X920690Y618654D01*
X920609Y618611D01*
X920525Y618575D01*
X920493Y618549D01*
X920473Y618538D01*
X920450Y618515D01*
X920394Y618470D01*
X894998Y593074D01*
X894945Y593000D01*
X894885Y592930D01*
X894873Y592900D01*
X894854Y592874D01*
X894827Y592787D01*
X894793Y592702D01*
X894789Y592661D01*
X894782Y592639D01*
X894783Y592607D01*
X894775Y592535D01*
X894775Y590045D01*
X894789Y589955D01*
X894797Y589864D01*
X894809Y589835D01*
X894814Y589803D01*
X894857Y589722D01*
X894893Y589638D01*
X894919Y589606D01*
X894930Y589585D01*
X894953Y589563D01*
X894973Y589538D01*
X894976Y589532D01*
X894980Y589529D01*
X894998Y589507D01*
X895252Y589253D01*
X895268Y589241D01*
X895281Y589226D01*
X895368Y589169D01*
X895452Y589109D01*
X895471Y589103D01*
X895488Y589093D01*
X895588Y589067D01*
X895687Y589037D01*
X895707Y589037D01*
X895726Y589032D01*
X895829Y589041D01*
X895933Y589043D01*
X895952Y589050D01*
X895971Y589052D01*
X896066Y589092D01*
X896164Y589128D01*
X896179Y589140D01*
X896198Y589148D01*
X896329Y589253D01*
X904851Y597775D01*
X921149Y597775D01*
X922998Y595926D01*
X934926Y583998D01*
X934984Y583956D01*
X935036Y583907D01*
X935083Y583885D01*
X935125Y583855D01*
X935194Y583834D01*
X935259Y583803D01*
X935311Y583798D01*
X935361Y583782D01*
X935432Y583784D01*
X935503Y583776D01*
X935554Y583787D01*
X935606Y583789D01*
X935674Y583813D01*
X935744Y583829D01*
X935789Y583855D01*
X935837Y583873D01*
X935893Y583918D01*
X935955Y583955D01*
X935989Y583994D01*
X936029Y584027D01*
X936068Y584087D01*
X936115Y584142D01*
X936134Y584190D01*
X936162Y584234D01*
X936180Y584303D01*
X936207Y584370D01*
X936215Y584441D01*
X936223Y584472D01*
X936221Y584496D01*
X936225Y584537D01*
X936225Y633535D01*
X936211Y633625D01*
X936203Y633716D01*
X936191Y633746D01*
X936186Y633778D01*
X936143Y633859D01*
X936107Y633943D01*
X936081Y633975D01*
X936070Y633995D01*
X936047Y634018D01*
X936002Y634074D01*
X922293Y647783D01*
X922219Y647836D01*
X922149Y647896D01*
X922119Y647908D01*
X922093Y647927D01*
X922006Y647954D01*
X921921Y647988D01*
X921880Y647992D01*
X921858Y647999D01*
X921826Y647998D01*
X921754Y648006D01*
X878931Y648006D01*
X878912Y648003D01*
X878892Y648005D01*
X878791Y647983D01*
X878689Y647967D01*
X878671Y647957D01*
X878652Y647953D01*
X878563Y647900D01*
X878471Y647851D01*
X878458Y647837D01*
X878440Y647827D01*
X878373Y647748D01*
X878302Y647673D01*
X878293Y647655D01*
X878281Y647640D01*
X878242Y647544D01*
X878198Y647450D01*
X878196Y647430D01*
X878189Y647412D01*
X878170Y647245D01*
X878170Y627786D01*
X866318Y615934D01*
X866265Y615860D01*
X866205Y615790D01*
X866193Y615760D01*
X866174Y615734D01*
X866147Y615647D01*
X866113Y615562D01*
X866109Y615521D01*
X866102Y615499D01*
X866103Y615467D01*
X866095Y615395D01*
X866095Y607005D01*
X866089Y606992D01*
X866085Y606951D01*
X866078Y606928D01*
X866079Y606896D01*
X866071Y606825D01*
X866071Y606382D01*
X864582Y604893D01*
X849861Y604893D01*
X849856Y604892D01*
X849847Y604893D01*
X848797Y604873D01*
X848055Y605615D01*
X848051Y605619D01*
X848045Y605626D01*
X847373Y606273D01*
X847363Y606280D01*
X847355Y606290D01*
X847262Y606350D01*
X847171Y606412D01*
X847158Y606416D01*
X847148Y606423D01*
X847041Y606450D01*
X846934Y606480D01*
X846922Y606480D01*
X846909Y606483D01*
X846799Y606474D01*
X846689Y606469D01*
X846677Y606465D01*
X846664Y606464D01*
X846562Y606420D01*
X846459Y606381D01*
X846450Y606372D01*
X846438Y606367D01*
X846307Y606263D01*
X845726Y605682D01*
X845719Y605672D01*
X845706Y605661D01*
X844994Y604893D01*
X843976Y604893D01*
X843956Y604890D01*
X843937Y604892D01*
X843835Y604870D01*
X843733Y604854D01*
X843716Y604844D01*
X843696Y604840D01*
X843607Y604787D01*
X843516Y604738D01*
X843502Y604724D01*
X843485Y604714D01*
X843418Y604635D01*
X843346Y604560D01*
X843338Y604542D01*
X843325Y604527D01*
X843286Y604431D01*
X843243Y604337D01*
X843241Y604317D01*
X843233Y604299D01*
X843215Y604132D01*
X843215Y595291D01*
X836998Y589074D01*
X836945Y589000D01*
X836885Y588930D01*
X836873Y588900D01*
X836854Y588874D01*
X836827Y588787D01*
X836793Y588702D01*
X836789Y588661D01*
X836782Y588639D01*
X836783Y588607D01*
X836775Y588535D01*
X836775Y581045D01*
X836789Y580955D01*
X836797Y580864D01*
X836809Y580835D01*
X836814Y580803D01*
X836857Y580722D01*
X836893Y580638D01*
X836919Y580606D01*
X836930Y580585D01*
X836953Y580563D01*
X836998Y580507D01*
X839307Y578198D01*
X839307Y573802D01*
X836198Y570693D01*
X831802Y570693D01*
X828693Y573802D01*
X828693Y578198D01*
X831002Y580507D01*
X831055Y580581D01*
X831115Y580651D01*
X831127Y580681D01*
X831146Y580707D01*
X831173Y580794D01*
X831207Y580879D01*
X831211Y580920D01*
X831218Y580942D01*
X831217Y580974D01*
X831225Y581045D01*
X831225Y591149D01*
X837442Y597366D01*
X837495Y597440D01*
X837555Y597510D01*
X837567Y597540D01*
X837586Y597566D01*
X837613Y597653D01*
X837647Y597738D01*
X837651Y597779D01*
X837658Y597801D01*
X837657Y597833D01*
X837665Y597905D01*
X837665Y604132D01*
X837662Y604152D01*
X837664Y604171D01*
X837642Y604273D01*
X837626Y604375D01*
X837616Y604392D01*
X837612Y604412D01*
X837559Y604501D01*
X837510Y604592D01*
X837496Y604606D01*
X837486Y604623D01*
X837407Y604690D01*
X837332Y604762D01*
X837314Y604770D01*
X837299Y604783D01*
X837203Y604822D01*
X837109Y604865D01*
X837089Y604867D01*
X837071Y604875D01*
X836904Y604893D01*
X836618Y604893D01*
X835129Y606382D01*
X835129Y606825D01*
X835115Y606915D01*
X835107Y607006D01*
X835105Y607011D01*
X835105Y615395D01*
X835091Y615485D01*
X835083Y615576D01*
X835071Y615606D01*
X835066Y615638D01*
X835023Y615719D01*
X834987Y615803D01*
X834961Y615835D01*
X834950Y615855D01*
X834927Y615878D01*
X834882Y615934D01*
X826725Y624091D01*
X826725Y673443D01*
X826706Y673558D01*
X826689Y673674D01*
X826687Y673680D01*
X826686Y673686D01*
X826631Y673788D01*
X826578Y673893D01*
X826573Y673898D01*
X826570Y673903D01*
X826486Y673983D01*
X826402Y674066D01*
X826396Y674069D01*
X826392Y674073D01*
X826375Y674080D01*
X826255Y674146D01*
X823169Y675425D01*
X820025Y678569D01*
X818323Y682677D01*
X818323Y687123D01*
X820025Y691231D01*
X823169Y694375D01*
X827277Y696077D01*
X831723Y696077D01*
X835831Y694375D01*
X838975Y691231D01*
X840677Y687123D01*
X840677Y682677D01*
X838975Y678569D01*
X835831Y675425D01*
X832745Y674146D01*
X832645Y674085D01*
X832545Y674025D01*
X832541Y674020D01*
X832536Y674017D01*
X832461Y673927D01*
X832385Y673838D01*
X832383Y673832D01*
X832379Y673827D01*
X832337Y673719D01*
X832293Y673610D01*
X832292Y673602D01*
X832291Y673598D01*
X832290Y673579D01*
X832275Y673443D01*
X832275Y626705D01*
X832289Y626615D01*
X832297Y626524D01*
X832309Y626494D01*
X832314Y626462D01*
X832357Y626381D01*
X832393Y626297D01*
X832419Y626265D01*
X832430Y626245D01*
X832453Y626222D01*
X832498Y626166D01*
X835249Y623415D01*
X835265Y623403D01*
X835278Y623388D01*
X835365Y623332D01*
X835449Y623271D01*
X835468Y623266D01*
X835485Y623255D01*
X835585Y623229D01*
X835684Y623199D01*
X835704Y623200D01*
X835723Y623195D01*
X835826Y623203D01*
X835930Y623205D01*
X835949Y623212D01*
X835969Y623214D01*
X836063Y623254D01*
X836161Y623290D01*
X836177Y623302D01*
X836195Y623310D01*
X836326Y623415D01*
X836618Y623707D01*
X844437Y623707D01*
X846052Y622092D01*
X846062Y622085D01*
X846070Y622075D01*
X846162Y622013D01*
X846252Y621949D01*
X846264Y621945D01*
X846274Y621938D01*
X846381Y621909D01*
X846487Y621876D01*
X846500Y621877D01*
X846512Y621873D01*
X846622Y621880D01*
X846733Y621883D01*
X846745Y621887D01*
X846757Y621888D01*
X846860Y621929D01*
X846964Y621967D01*
X846974Y621975D01*
X846985Y621980D01*
X847118Y622082D01*
X848045Y622975D01*
X848049Y622979D01*
X848055Y622985D01*
X848797Y623727D01*
X849847Y623707D01*
X849853Y623708D01*
X849862Y623707D01*
X864582Y623707D01*
X864874Y623415D01*
X864890Y623403D01*
X864903Y623388D01*
X864990Y623332D01*
X865074Y623271D01*
X865093Y623266D01*
X865110Y623255D01*
X865210Y623229D01*
X865309Y623199D01*
X865329Y623200D01*
X865348Y623195D01*
X865451Y623203D01*
X865555Y623205D01*
X865574Y623212D01*
X865594Y623214D01*
X865688Y623254D01*
X865786Y623290D01*
X865802Y623302D01*
X865820Y623310D01*
X865951Y623415D01*
X872398Y629862D01*
X872444Y629927D01*
X872458Y629941D01*
X872461Y629948D01*
X872510Y630005D01*
X872522Y630035D01*
X872541Y630062D01*
X872568Y630148D01*
X872602Y630233D01*
X872607Y630274D01*
X872614Y630297D01*
X872613Y630329D01*
X872621Y630400D01*
X872621Y650931D01*
X872618Y650947D01*
X872620Y650963D01*
X872605Y651029D01*
X872599Y651112D01*
X872586Y651141D01*
X872581Y651173D01*
X872569Y651196D01*
X872567Y651203D01*
X872549Y651234D01*
X872538Y651254D01*
X872502Y651338D01*
X872477Y651370D01*
X872466Y651391D01*
X872442Y651413D01*
X872398Y651469D01*
X865713Y658154D01*
X865618Y658222D01*
X865524Y658292D01*
X865518Y658293D01*
X865513Y658297D01*
X865402Y658331D01*
X865291Y658368D01*
X865284Y658368D01*
X865278Y658369D01*
X865162Y658366D01*
X865045Y658365D01*
X865037Y658363D01*
X865032Y658363D01*
X865015Y658357D01*
X864883Y658319D01*
X864187Y658030D01*
X861813Y658030D01*
X859618Y658939D01*
X857939Y660618D01*
X857030Y662813D01*
X857030Y665187D01*
X857939Y667382D01*
X859618Y669061D01*
X861813Y669970D01*
X864187Y669970D01*
X866382Y669061D01*
X868061Y667382D01*
X868970Y665187D01*
X868970Y663060D01*
X868984Y662970D01*
X868992Y662879D01*
X869004Y662850D01*
X869009Y662818D01*
X869052Y662737D01*
X869088Y662653D01*
X869114Y662621D01*
X869125Y662600D01*
X869148Y662578D01*
X869193Y662522D01*
X877936Y653779D01*
X878010Y653726D01*
X878080Y653666D01*
X878110Y653654D01*
X878136Y653635D01*
X878223Y653608D01*
X878308Y653574D01*
X878349Y653570D01*
X878371Y653563D01*
X878403Y653564D01*
X878474Y653556D01*
X924368Y653556D01*
X941775Y636149D01*
X941775Y581045D01*
X941789Y580955D01*
X941797Y580864D01*
X941809Y580835D01*
X941814Y580803D01*
X941857Y580722D01*
X941893Y580638D01*
X941919Y580606D01*
X941930Y580585D01*
X941953Y580563D01*
X941998Y580507D01*
X944307Y578198D01*
X944307Y573802D01*
X941198Y570693D01*
X936802Y570693D01*
X933693Y573802D01*
X933693Y577067D01*
X933679Y577157D01*
X933671Y577248D01*
X933659Y577278D01*
X933654Y577310D01*
X933611Y577391D01*
X933575Y577475D01*
X933549Y577507D01*
X933538Y577527D01*
X933515Y577550D01*
X933507Y577560D01*
X933499Y577573D01*
X933491Y577580D01*
X933470Y577606D01*
X919074Y592002D01*
X919000Y592055D01*
X918930Y592115D01*
X918900Y592127D01*
X918874Y592146D01*
X918787Y592173D01*
X918702Y592207D01*
X918661Y592211D01*
X918639Y592218D01*
X918607Y592217D01*
X918535Y592225D01*
X912117Y592225D01*
X912047Y592214D01*
X911975Y592212D01*
X911926Y592194D01*
X911875Y592186D01*
X911811Y592152D01*
X911744Y592127D01*
X911703Y592095D01*
X911657Y592070D01*
X911608Y592018D01*
X911552Y591974D01*
X911524Y591930D01*
X911488Y591892D01*
X911458Y591827D01*
X911419Y591767D01*
X911406Y591716D01*
X911384Y591669D01*
X911376Y591598D01*
X911359Y591528D01*
X911363Y591476D01*
X911357Y591425D01*
X911372Y591354D01*
X911378Y591283D01*
X911398Y591235D01*
X911409Y591184D01*
X911446Y591123D01*
X911474Y591057D01*
X911519Y591001D01*
X911536Y590973D01*
X911553Y590958D01*
X911579Y590926D01*
X913307Y589198D01*
X913307Y584802D01*
X910998Y582493D01*
X910945Y582419D01*
X910885Y582349D01*
X910873Y582319D01*
X910854Y582293D01*
X910827Y582206D01*
X910793Y582121D01*
X910789Y582080D01*
X910782Y582058D01*
X910783Y582026D01*
X910775Y581955D01*
X910775Y560851D01*
X900862Y550938D01*
X900814Y550871D01*
X900809Y550866D01*
X900808Y550863D01*
X900749Y550794D01*
X900737Y550764D01*
X900718Y550738D01*
X900691Y550651D01*
X900657Y550566D01*
X900653Y550525D01*
X900646Y550503D01*
X900647Y550471D01*
X900639Y550399D01*
X900639Y541479D01*
X900654Y541383D01*
X900664Y541286D01*
X900674Y541262D01*
X900678Y541236D01*
X900724Y541150D01*
X900764Y541061D01*
X900781Y541042D01*
X900794Y541019D01*
X900864Y540952D01*
X900930Y540880D01*
X900953Y540868D01*
X900972Y540850D01*
X901060Y540809D01*
X901146Y540762D01*
X901171Y540757D01*
X901195Y540746D01*
X901292Y540735D01*
X901388Y540718D01*
X901414Y540722D01*
X901439Y540719D01*
X901535Y540740D01*
X901631Y540754D01*
X901654Y540766D01*
X901680Y540771D01*
X901763Y540821D01*
X901850Y540865D01*
X901869Y540884D01*
X901891Y540897D01*
X901954Y540971D01*
X902022Y541041D01*
X902038Y541070D01*
X902051Y541084D01*
X902063Y541115D01*
X902103Y541188D01*
X902771Y542800D01*
X905700Y545729D01*
X909528Y547315D01*
X913672Y547315D01*
X917500Y545729D01*
X920429Y542800D01*
X922015Y538972D01*
X922015Y534828D01*
X920429Y531000D01*
X917500Y528071D01*
X913672Y526485D01*
X909528Y526485D01*
X906874Y527585D01*
X906760Y527612D01*
X906646Y527640D01*
X906640Y527640D01*
X906634Y527641D01*
X906518Y527630D01*
X906401Y527621D01*
X906396Y527619D01*
X906389Y527618D01*
X906282Y527570D01*
X906175Y527525D01*
X906169Y527520D01*
X906165Y527518D01*
X906151Y527505D01*
X906044Y527420D01*
X859849Y481225D01*
X772851Y481225D01*
G37*
%LPD*%
%LPC*%
G36*
X833328Y526485D02*
X833328Y526485D01*
X829500Y528071D01*
X826571Y531000D01*
X824985Y534828D01*
X824985Y538972D01*
X826085Y541626D01*
X826112Y541740D01*
X826140Y541854D01*
X826140Y541860D01*
X826141Y541866D01*
X826130Y541982D01*
X826121Y542099D01*
X826119Y542104D01*
X826118Y542111D01*
X826070Y542218D01*
X826025Y542325D01*
X826020Y542331D01*
X826018Y542335D01*
X826005Y542349D01*
X825920Y542456D01*
X792074Y576302D01*
X790225Y578151D01*
X790225Y599179D01*
X790223Y599190D01*
X790224Y599198D01*
X790216Y599235D01*
X790206Y599294D01*
X790189Y599410D01*
X790187Y599416D01*
X790186Y599422D01*
X790131Y599524D01*
X790078Y599629D01*
X790073Y599634D01*
X790070Y599639D01*
X789986Y599719D01*
X789902Y599802D01*
X789896Y599805D01*
X789892Y599809D01*
X789875Y599816D01*
X789755Y599882D01*
X789618Y599939D01*
X787939Y601618D01*
X787030Y603813D01*
X787030Y606187D01*
X787939Y608382D01*
X789220Y609663D01*
X789273Y609737D01*
X789333Y609806D01*
X789345Y609836D01*
X789364Y609863D01*
X789391Y609949D01*
X789425Y610034D01*
X789429Y610075D01*
X789436Y610098D01*
X789435Y610130D01*
X789443Y610201D01*
X789443Y644675D01*
X789424Y644789D01*
X789407Y644906D01*
X789405Y644911D01*
X789404Y644917D01*
X789349Y645020D01*
X789296Y645125D01*
X789291Y645129D01*
X789288Y645135D01*
X789204Y645215D01*
X789120Y645297D01*
X789114Y645301D01*
X789110Y645304D01*
X789093Y645312D01*
X788973Y645378D01*
X787618Y645939D01*
X785939Y647618D01*
X785030Y649813D01*
X785030Y652187D01*
X785939Y654382D01*
X787618Y656061D01*
X789813Y656970D01*
X792187Y656970D01*
X794382Y656061D01*
X796061Y654382D01*
X796970Y652187D01*
X796970Y649813D01*
X796615Y648955D01*
X796600Y648892D01*
X796575Y648831D01*
X796566Y648748D01*
X796559Y648716D01*
X796560Y648697D01*
X796557Y648664D01*
X796557Y610201D01*
X796571Y610111D01*
X796579Y610020D01*
X796591Y609990D01*
X796596Y609958D01*
X796639Y609878D01*
X796675Y609794D01*
X796701Y609762D01*
X796712Y609741D01*
X796735Y609719D01*
X796780Y609663D01*
X798061Y608382D01*
X798970Y606187D01*
X798970Y603813D01*
X798061Y601618D01*
X796382Y599939D01*
X796245Y599882D01*
X796145Y599820D01*
X796045Y599761D01*
X796041Y599756D01*
X796036Y599753D01*
X795961Y599662D01*
X795885Y599574D01*
X795883Y599568D01*
X795879Y599563D01*
X795837Y599455D01*
X795793Y599346D01*
X795792Y599338D01*
X795791Y599334D01*
X795790Y599315D01*
X795775Y599179D01*
X795775Y580765D01*
X795789Y580675D01*
X795797Y580584D01*
X795809Y580554D01*
X795814Y580522D01*
X795857Y580441D01*
X795893Y580357D01*
X795919Y580325D01*
X795930Y580305D01*
X795953Y580282D01*
X795998Y580226D01*
X829844Y546380D01*
X829938Y546312D01*
X830033Y546242D01*
X830039Y546240D01*
X830044Y546237D01*
X830155Y546202D01*
X830267Y546166D01*
X830273Y546166D01*
X830279Y546164D01*
X830396Y546167D01*
X830512Y546168D01*
X830520Y546170D01*
X830525Y546171D01*
X830542Y546177D01*
X830674Y546215D01*
X833328Y547315D01*
X837472Y547315D01*
X841300Y545729D01*
X844229Y542800D01*
X845815Y538972D01*
X845815Y534828D01*
X844229Y531000D01*
X841300Y528071D01*
X837472Y526485D01*
X833328Y526485D01*
G37*
%LPD*%
%LPC*%
G36*
X852677Y673723D02*
X852677Y673723D01*
X848569Y675425D01*
X845425Y678569D01*
X843723Y682677D01*
X843723Y687123D01*
X845425Y691231D01*
X848569Y694375D01*
X852677Y696077D01*
X857123Y696077D01*
X861231Y694375D01*
X864375Y691231D01*
X866077Y687123D01*
X866077Y682677D01*
X864375Y678569D01*
X861231Y675425D01*
X857123Y673723D01*
X852677Y673723D01*
G37*
%LPD*%
%LPC*%
G36*
X878077Y673723D02*
X878077Y673723D01*
X873969Y675425D01*
X870825Y678569D01*
X869123Y682677D01*
X869123Y687123D01*
X870825Y691231D01*
X873969Y694375D01*
X878077Y696077D01*
X882523Y696077D01*
X886631Y694375D01*
X889775Y691231D01*
X891477Y687123D01*
X891477Y682677D01*
X889775Y678569D01*
X886631Y675425D01*
X882523Y673723D01*
X878077Y673723D01*
G37*
%LPD*%
%LPC*%
G36*
X934928Y526485D02*
X934928Y526485D01*
X931100Y528071D01*
X928171Y531000D01*
X926585Y534828D01*
X926585Y538972D01*
X928171Y542800D01*
X931100Y545729D01*
X934928Y547315D01*
X939072Y547315D01*
X942900Y545729D01*
X945829Y542800D01*
X947415Y538972D01*
X947415Y534828D01*
X945829Y531000D01*
X942900Y528071D01*
X939072Y526485D01*
X934928Y526485D01*
G37*
%LPD*%
G36*
X863588Y606427D02*
X863588Y606427D01*
X863646Y606425D01*
X863728Y606447D01*
X863812Y606459D01*
X863865Y606483D01*
X863921Y606497D01*
X863994Y606540D01*
X864071Y606575D01*
X864116Y606613D01*
X864166Y606643D01*
X864224Y606704D01*
X864288Y606759D01*
X864320Y606807D01*
X864360Y606850D01*
X864399Y606925D01*
X864446Y606995D01*
X864463Y607051D01*
X864490Y607103D01*
X864501Y607171D01*
X864531Y607266D01*
X864534Y607366D01*
X864545Y607434D01*
X864545Y621166D01*
X864537Y621224D01*
X864539Y621282D01*
X864517Y621364D01*
X864505Y621448D01*
X864482Y621501D01*
X864467Y621557D01*
X864424Y621630D01*
X864389Y621707D01*
X864351Y621752D01*
X864322Y621802D01*
X864260Y621860D01*
X864206Y621924D01*
X864157Y621956D01*
X864114Y621996D01*
X864039Y622035D01*
X863969Y622082D01*
X863913Y622099D01*
X863861Y622126D01*
X863793Y622137D01*
X863698Y622167D01*
X863598Y622170D01*
X863530Y622181D01*
X849830Y622181D01*
X849811Y622179D01*
X849791Y622181D01*
X849670Y622159D01*
X849549Y622141D01*
X849531Y622133D01*
X849511Y622130D01*
X849401Y622075D01*
X849289Y622025D01*
X849274Y622012D01*
X849256Y622004D01*
X849166Y621921D01*
X849072Y621842D01*
X849061Y621825D01*
X849047Y621812D01*
X848982Y621707D01*
X848915Y621605D01*
X848909Y621586D01*
X848898Y621569D01*
X848866Y621451D01*
X848829Y621334D01*
X848828Y621314D01*
X848823Y621295D01*
X848825Y621173D01*
X848821Y621050D01*
X848826Y621031D01*
X848827Y621011D01*
X848862Y620893D01*
X848893Y620775D01*
X848903Y620758D01*
X848909Y620739D01*
X848951Y620678D01*
X849039Y620530D01*
X849076Y620495D01*
X849099Y620462D01*
X855033Y614300D01*
X849099Y608138D01*
X849087Y608122D01*
X849072Y608110D01*
X849004Y608007D01*
X848932Y607908D01*
X848925Y607889D01*
X848915Y607873D01*
X848877Y607756D01*
X848836Y607640D01*
X848835Y607621D01*
X848829Y607602D01*
X848826Y607479D01*
X848818Y607357D01*
X848822Y607337D01*
X848821Y607318D01*
X848852Y607199D01*
X848879Y607079D01*
X848888Y607062D01*
X848893Y607043D01*
X848956Y606937D01*
X849015Y606829D01*
X849028Y606815D01*
X849039Y606798D01*
X849128Y606714D01*
X849214Y606627D01*
X849231Y606617D01*
X849246Y606604D01*
X849355Y606548D01*
X849462Y606488D01*
X849481Y606483D01*
X849499Y606474D01*
X849572Y606462D01*
X849739Y606423D01*
X849790Y606425D01*
X849830Y606419D01*
X863530Y606419D01*
X863588Y606427D01*
G37*
G36*
X843990Y606434D02*
X843990Y606434D01*
X844097Y606441D01*
X844131Y606454D01*
X844167Y606459D01*
X844264Y606502D01*
X844364Y606539D01*
X844389Y606558D01*
X844426Y606575D01*
X844584Y606708D01*
X844630Y606744D01*
X850996Y613610D01*
X851018Y613642D01*
X851046Y613669D01*
X851099Y613758D01*
X851158Y613843D01*
X851170Y613880D01*
X851190Y613914D01*
X851216Y614014D01*
X851249Y614113D01*
X851251Y614152D01*
X851260Y614190D01*
X851257Y614293D01*
X851262Y614397D01*
X851252Y614435D01*
X851251Y614474D01*
X851219Y614572D01*
X851195Y614673D01*
X851176Y614707D01*
X851164Y614745D01*
X851119Y614808D01*
X851055Y614920D01*
X851001Y614972D01*
X850969Y615018D01*
X844103Y621884D01*
X844033Y621936D01*
X843969Y621996D01*
X843920Y622022D01*
X843876Y622055D01*
X843794Y622086D01*
X843716Y622126D01*
X843669Y622134D01*
X843610Y622156D01*
X843462Y622168D01*
X843385Y622181D01*
X837670Y622181D01*
X837612Y622173D01*
X837554Y622175D01*
X837472Y622153D01*
X837389Y622141D01*
X837335Y622118D01*
X837279Y622103D01*
X837206Y622060D01*
X837129Y622025D01*
X837084Y621987D01*
X837034Y621958D01*
X836976Y621896D01*
X836912Y621842D01*
X836880Y621793D01*
X836840Y621750D01*
X836801Y621675D01*
X836755Y621605D01*
X836737Y621549D01*
X836710Y621497D01*
X836699Y621429D01*
X836669Y621334D01*
X836666Y621234D01*
X836655Y621166D01*
X836655Y607434D01*
X836663Y607376D01*
X836661Y607318D01*
X836683Y607236D01*
X836695Y607153D01*
X836719Y607099D01*
X836733Y607043D01*
X836776Y606970D01*
X836811Y606893D01*
X836849Y606848D01*
X836879Y606798D01*
X836940Y606740D01*
X836995Y606676D01*
X837043Y606644D01*
X837086Y606604D01*
X837161Y606565D01*
X837231Y606519D01*
X837287Y606501D01*
X837339Y606474D01*
X837407Y606463D01*
X837502Y606433D01*
X837602Y606430D01*
X837670Y606419D01*
X843885Y606419D01*
X843990Y606434D01*
G37*
%LPC*%
G36*
X849468Y538423D02*
X849468Y538423D01*
X849651Y539577D01*
X850207Y541288D01*
X851024Y542891D01*
X852081Y544347D01*
X853353Y545619D01*
X854809Y546676D01*
X856412Y547493D01*
X858123Y548049D01*
X859277Y548232D01*
X859277Y538423D01*
X849468Y538423D01*
G37*
%LPD*%
%LPC*%
G36*
X858123Y525751D02*
X858123Y525751D01*
X856412Y526307D01*
X854809Y527124D01*
X853353Y528181D01*
X852081Y529453D01*
X851024Y530909D01*
X850207Y532512D01*
X849651Y534223D01*
X849468Y535377D01*
X859277Y535377D01*
X859277Y525568D01*
X858123Y525751D01*
G37*
%LPD*%
D10*
X804100Y684900D03*
X829500Y684900D03*
X854900Y684900D03*
X880300Y684900D03*
D11*
X810000Y536900D03*
X835400Y536900D03*
X860800Y536900D03*
X886200Y536900D03*
X911600Y536900D03*
X937000Y536900D03*
D12*
X842345Y608585D02*
X838535Y608585D01*
X838535Y620015D01*
X842345Y620015D01*
X842345Y608585D01*
X842345Y612204D02*
X838535Y612204D01*
X838535Y615823D02*
X842345Y615823D01*
X842345Y619442D02*
X838535Y619442D01*
X858855Y608585D02*
X862665Y608585D01*
X858855Y608585D02*
X858855Y620015D01*
X862665Y620015D01*
X862665Y608585D01*
X862665Y612204D02*
X858855Y612204D01*
X858855Y615823D02*
X862665Y615823D01*
X862665Y619442D02*
X858855Y619442D01*
D13*
X880000Y658000D03*
X750000Y584000D03*
D14*
X924000Y634000D03*
X864000Y564000D03*
D15*
X886200Y541800D02*
X886200Y536900D01*
X886200Y541800D02*
X864000Y564000D01*
X863000Y565000D01*
X863000Y589000D01*
X908000Y634000D01*
X924000Y634000D01*
D14*
X923000Y624000D03*
X892000Y585000D03*
D13*
X727000Y613000D03*
D15*
X892000Y594000D02*
X892000Y585000D01*
X922000Y624000D02*
X923000Y624000D01*
X922000Y624000D02*
X892000Y594000D01*
X727000Y613000D02*
X727000Y531000D01*
X774000Y484000D01*
X858700Y484000D01*
X911600Y536900D01*
D13*
X905000Y678000D03*
X727000Y626000D03*
D16*
X743000Y626000D01*
X782000Y587000D01*
X782000Y560000D01*
X805100Y536900D01*
X810000Y536900D01*
X905000Y678000D02*
X905000Y695000D01*
X881000Y719000D01*
X792000Y719000D01*
X743000Y670000D02*
X743000Y626000D01*
X743000Y670000D02*
X792000Y719000D01*
D14*
X939000Y576000D03*
X873000Y580000D03*
D13*
X863000Y664000D03*
X793000Y605000D03*
D15*
X793000Y579300D02*
X835400Y536900D01*
X793000Y579300D02*
X793000Y605000D01*
X860760Y614300D02*
X875395Y628935D01*
X875395Y652395D01*
X863791Y664000D01*
X863000Y664000D01*
X920000Y595000D02*
X939000Y576000D01*
X920000Y595000D02*
X906000Y595000D01*
X899000Y588000D01*
X899000Y580000D01*
X895000Y576000D01*
X877000Y576000D02*
X873000Y580000D01*
X877000Y576000D02*
X895000Y576000D01*
X939000Y576000D02*
X939000Y635000D01*
X923219Y650781D01*
X877010Y650781D02*
X875395Y652395D01*
X877010Y650781D02*
X923219Y650781D01*
D13*
X791000Y651000D03*
D16*
X793000Y649000D02*
X793000Y605000D01*
X793000Y649000D02*
X791000Y651000D01*
D14*
X908000Y587000D03*
D13*
X812000Y605000D03*
D15*
X819000Y605000D01*
X824000Y600000D01*
X824000Y564000D01*
X832000Y556000D01*
X864000Y556000D01*
X874536Y532069D02*
X881369Y525236D01*
X891031Y525236D01*
X897864Y532069D01*
X874536Y532069D02*
X874536Y545464D01*
X897864Y551864D02*
X897864Y532069D01*
X908000Y562000D02*
X908000Y587000D01*
X874536Y545464D02*
X864000Y556000D01*
X897864Y551864D02*
X908000Y562000D01*
D13*
X812000Y590000D03*
D15*
X804100Y597900D02*
X804100Y684900D01*
X804100Y597900D02*
X812000Y590000D01*
D14*
X834000Y576000D03*
D15*
X829500Y625240D02*
X829500Y684900D01*
X829500Y625240D02*
X840440Y614300D01*
X840440Y596440D01*
X834000Y590000D01*
X834000Y576000D01*
M02*
