M48
;GenerationSoftware,Autodesk,EAGLE,9.6.2*%
;CreationDate,2026-05-26T03:59:32Z*%
FMAT,2
ICI,OFF
METRIC,TZ,000.000
T3C0.350
T2C0.483
T1C1.000
%
G90
M71
T1
X80410Y68490
X82950Y68490
X85490Y68490
X88030Y68490
X81000Y53690
X83540Y53690
X86080Y53690
X88620Y53690
X91160Y53690
X93700Y53690
T2
X88000Y65800
X75000Y58400
X72700Y61300
X90500Y67800
X72700Y62600
X86300Y66400
X79300Y60500
X79100Y65100
X81200Y60500
X81200Y59000
T3
X92400Y63400
X86400Y56400
X92300Y62400
X89200Y58500
X93900Y57600
X87300Y58000
X90800Y58700
X83400Y57600
M30