G04 EAGLE Gerber RS-274X export*
G75*
%MOMM*%
%FSLAX34Y34*%
%LPD*%
%INSilkscreen Top*%
%IPPOS*%
%AMOC8*
5,1,8,0,0,1.08239X$1,22.5*%
G01*
%ADD10C,0.025400*%
%ADD11C,0.050800*%
%ADD12C,0.304800*%
%ADD13C,0.101600*%
%ADD14C,0.127000*%
%ADD15C,0.177800*%
%ADD16C,0.203200*%
%ADD17R,0.200000X1.000000*%
%ADD18R,0.127000X0.762000*%
%ADD19C,0.152400*%
%ADD20C,0.350000*%

G36*
X916745Y558893D02*
X916745Y558893D01*
X916816Y558891D01*
X916886Y558910D01*
X916957Y558918D01*
X917012Y558943D01*
X917091Y558963D01*
X917194Y559024D01*
X917263Y559055D01*
X920263Y561055D01*
X920350Y561132D01*
X920440Y561205D01*
X920455Y561227D01*
X920475Y561245D01*
X920537Y561342D01*
X920604Y561437D01*
X920612Y561463D01*
X920627Y561485D01*
X920659Y561596D01*
X920697Y561706D01*
X920698Y561733D01*
X920705Y561758D01*
X920705Y561874D01*
X920711Y561990D01*
X920705Y562016D01*
X920705Y562043D01*
X920673Y562154D01*
X920647Y562267D01*
X920634Y562290D01*
X920626Y562316D01*
X920564Y562414D01*
X920508Y562515D01*
X920490Y562531D01*
X920475Y562556D01*
X920267Y562741D01*
X920263Y562745D01*
X917263Y564745D01*
X917199Y564776D01*
X917139Y564816D01*
X917071Y564837D01*
X917007Y564868D01*
X916936Y564880D01*
X916868Y564901D01*
X916797Y564903D01*
X916727Y564915D01*
X916655Y564907D01*
X916584Y564909D01*
X916515Y564891D01*
X916444Y564882D01*
X916378Y564855D01*
X916309Y564837D01*
X916248Y564800D01*
X916182Y564773D01*
X916126Y564728D01*
X916064Y564692D01*
X916015Y564640D01*
X915960Y564595D01*
X915919Y564537D01*
X915870Y564484D01*
X915837Y564421D01*
X915796Y564363D01*
X915773Y564295D01*
X915740Y564231D01*
X915730Y564172D01*
X915703Y564094D01*
X915697Y563975D01*
X915685Y563900D01*
X915685Y559900D01*
X915695Y559829D01*
X915695Y559757D01*
X915715Y559689D01*
X915725Y559619D01*
X915754Y559553D01*
X915774Y559484D01*
X915812Y559424D01*
X915841Y559359D01*
X915887Y559304D01*
X915925Y559244D01*
X915979Y559196D01*
X916025Y559142D01*
X916084Y559102D01*
X916138Y559055D01*
X916202Y559024D01*
X916261Y558985D01*
X916330Y558963D01*
X916394Y558932D01*
X916464Y558920D01*
X916532Y558899D01*
X916604Y558897D01*
X916675Y558885D01*
X916745Y558893D01*
G37*
G36*
X782088Y660303D02*
X782088Y660303D01*
X782117Y660300D01*
X782209Y660320D01*
X782302Y660333D01*
X782329Y660346D01*
X782358Y660352D01*
X782438Y660400D01*
X782522Y660442D01*
X782543Y660463D01*
X782569Y660478D01*
X782630Y660550D01*
X782696Y660616D01*
X782709Y660642D01*
X782729Y660665D01*
X782764Y660752D01*
X782806Y660836D01*
X782810Y660866D01*
X782821Y660893D01*
X782839Y661060D01*
X782839Y666140D01*
X782834Y666169D01*
X782837Y666199D01*
X782815Y666290D01*
X782800Y666383D01*
X782786Y666409D01*
X782779Y666438D01*
X782728Y666517D01*
X782684Y666600D01*
X782663Y666621D01*
X782647Y666646D01*
X782574Y666705D01*
X782506Y666770D01*
X782479Y666782D01*
X782456Y666801D01*
X782368Y666834D01*
X782283Y666873D01*
X782253Y666876D01*
X782226Y666887D01*
X782132Y666890D01*
X782039Y666900D01*
X782009Y666894D01*
X781980Y666895D01*
X781890Y666868D01*
X781798Y666848D01*
X781773Y666833D01*
X781744Y666824D01*
X781602Y666734D01*
X778427Y664194D01*
X778358Y664117D01*
X778285Y664044D01*
X778276Y664027D01*
X778263Y664012D01*
X778221Y663916D01*
X778175Y663824D01*
X778173Y663804D01*
X778165Y663786D01*
X778156Y663683D01*
X778142Y663580D01*
X778146Y663561D01*
X778144Y663541D01*
X778169Y663440D01*
X778188Y663338D01*
X778198Y663321D01*
X778202Y663302D01*
X778258Y663215D01*
X778309Y663124D01*
X778326Y663107D01*
X778334Y663094D01*
X778359Y663074D01*
X778427Y663006D01*
X781602Y660466D01*
X781628Y660451D01*
X781650Y660431D01*
X781735Y660391D01*
X781817Y660345D01*
X781846Y660339D01*
X781873Y660327D01*
X781966Y660317D01*
X782058Y660299D01*
X782088Y660303D01*
G37*
D10*
X807127Y551373D02*
X807876Y549127D01*
X808624Y551373D01*
X809993Y549127D02*
X810493Y549127D01*
X809993Y549127D02*
X809950Y549129D01*
X809906Y549135D01*
X809864Y549144D01*
X809822Y549157D01*
X809782Y549174D01*
X809744Y549194D01*
X809707Y549217D01*
X809672Y549244D01*
X809640Y549273D01*
X809611Y549305D01*
X809584Y549340D01*
X809561Y549377D01*
X809541Y549415D01*
X809524Y549455D01*
X809511Y549497D01*
X809502Y549539D01*
X809496Y549583D01*
X809494Y549626D01*
X809494Y550874D01*
X809496Y550917D01*
X809502Y550961D01*
X809511Y551003D01*
X809524Y551045D01*
X809541Y551085D01*
X809561Y551123D01*
X809584Y551160D01*
X809611Y551195D01*
X809640Y551227D01*
X809672Y551256D01*
X809707Y551283D01*
X809743Y551306D01*
X809782Y551326D01*
X809822Y551343D01*
X809864Y551356D01*
X809906Y551365D01*
X809949Y551371D01*
X809993Y551373D01*
X810493Y551373D01*
X811868Y549127D02*
X812368Y549127D01*
X811868Y549127D02*
X811825Y549129D01*
X811781Y549135D01*
X811739Y549144D01*
X811697Y549157D01*
X811657Y549174D01*
X811619Y549194D01*
X811582Y549217D01*
X811547Y549244D01*
X811515Y549273D01*
X811486Y549305D01*
X811459Y549340D01*
X811436Y549377D01*
X811416Y549415D01*
X811399Y549455D01*
X811386Y549497D01*
X811377Y549539D01*
X811371Y549583D01*
X811369Y549626D01*
X811369Y550874D01*
X811371Y550917D01*
X811377Y550961D01*
X811386Y551003D01*
X811399Y551045D01*
X811416Y551085D01*
X811436Y551123D01*
X811459Y551160D01*
X811486Y551195D01*
X811515Y551227D01*
X811547Y551256D01*
X811582Y551283D01*
X811618Y551306D01*
X811657Y551326D01*
X811697Y551343D01*
X811739Y551356D01*
X811781Y551365D01*
X811824Y551371D01*
X811868Y551373D01*
X812368Y551373D01*
X833127Y548127D02*
X833751Y548127D01*
X833800Y548129D01*
X833849Y548135D01*
X833897Y548144D01*
X833944Y548158D01*
X833990Y548174D01*
X834034Y548195D01*
X834077Y548219D01*
X834118Y548246D01*
X834156Y548277D01*
X834192Y548310D01*
X834225Y548346D01*
X834256Y548384D01*
X834283Y548425D01*
X834307Y548468D01*
X834328Y548512D01*
X834344Y548558D01*
X834358Y548605D01*
X834367Y548653D01*
X834373Y548702D01*
X834375Y548751D01*
X834373Y548800D01*
X834367Y548849D01*
X834358Y548897D01*
X834344Y548944D01*
X834328Y548990D01*
X834307Y549034D01*
X834283Y549077D01*
X834256Y549118D01*
X834225Y549156D01*
X834192Y549192D01*
X834156Y549225D01*
X834118Y549256D01*
X834077Y549283D01*
X834034Y549307D01*
X833990Y549328D01*
X833944Y549344D01*
X833897Y549358D01*
X833849Y549367D01*
X833800Y549373D01*
X833751Y549375D01*
X833876Y550373D02*
X833127Y550373D01*
X833876Y550373D02*
X833919Y550371D01*
X833963Y550365D01*
X834005Y550356D01*
X834047Y550343D01*
X834087Y550326D01*
X834126Y550306D01*
X834162Y550283D01*
X834197Y550256D01*
X834229Y550227D01*
X834258Y550195D01*
X834285Y550160D01*
X834308Y550124D01*
X834328Y550085D01*
X834345Y550045D01*
X834358Y550003D01*
X834367Y549961D01*
X834373Y549917D01*
X834375Y549874D01*
X834373Y549831D01*
X834367Y549787D01*
X834358Y549745D01*
X834345Y549703D01*
X834328Y549663D01*
X834308Y549625D01*
X834285Y549588D01*
X834258Y549553D01*
X834229Y549521D01*
X834197Y549492D01*
X834162Y549465D01*
X834126Y549442D01*
X834087Y549422D01*
X834047Y549405D01*
X834005Y549392D01*
X833963Y549383D01*
X833919Y549377D01*
X833876Y549375D01*
X833377Y549375D01*
X835264Y548252D02*
X835264Y548127D01*
X835264Y548252D02*
X835388Y548252D01*
X835388Y548127D01*
X835264Y548127D01*
X836277Y548127D02*
X836901Y548127D01*
X836950Y548129D01*
X836999Y548135D01*
X837047Y548144D01*
X837094Y548158D01*
X837140Y548174D01*
X837184Y548195D01*
X837227Y548219D01*
X837268Y548246D01*
X837306Y548277D01*
X837342Y548310D01*
X837375Y548346D01*
X837406Y548384D01*
X837433Y548425D01*
X837457Y548468D01*
X837478Y548512D01*
X837494Y548558D01*
X837508Y548605D01*
X837517Y548653D01*
X837523Y548702D01*
X837525Y548751D01*
X837523Y548800D01*
X837517Y548849D01*
X837508Y548897D01*
X837494Y548944D01*
X837478Y548990D01*
X837457Y549034D01*
X837433Y549077D01*
X837406Y549118D01*
X837375Y549156D01*
X837342Y549192D01*
X837306Y549225D01*
X837268Y549256D01*
X837227Y549283D01*
X837184Y549307D01*
X837140Y549328D01*
X837094Y549344D01*
X837047Y549358D01*
X836999Y549367D01*
X836950Y549373D01*
X836901Y549375D01*
X837026Y550373D02*
X836277Y550373D01*
X837026Y550373D02*
X837069Y550371D01*
X837113Y550365D01*
X837155Y550356D01*
X837197Y550343D01*
X837237Y550326D01*
X837276Y550306D01*
X837312Y550283D01*
X837347Y550256D01*
X837379Y550227D01*
X837408Y550195D01*
X837435Y550160D01*
X837458Y550124D01*
X837478Y550085D01*
X837495Y550045D01*
X837508Y550003D01*
X837517Y549961D01*
X837523Y549917D01*
X837525Y549874D01*
X837523Y549831D01*
X837517Y549787D01*
X837508Y549745D01*
X837495Y549703D01*
X837478Y549663D01*
X837458Y549625D01*
X837435Y549588D01*
X837408Y549553D01*
X837379Y549521D01*
X837347Y549492D01*
X837312Y549465D01*
X837276Y549442D01*
X837237Y549422D01*
X837197Y549405D01*
X837155Y549392D01*
X837113Y549383D01*
X837069Y549377D01*
X837026Y549375D01*
X836527Y549375D01*
X838402Y550373D02*
X839151Y548127D01*
X839900Y550373D01*
X859000Y549375D02*
X859375Y549375D01*
X859375Y548127D01*
X858626Y548127D01*
X858583Y548129D01*
X858539Y548135D01*
X858497Y548144D01*
X858455Y548157D01*
X858415Y548174D01*
X858377Y548194D01*
X858340Y548217D01*
X858305Y548244D01*
X858273Y548273D01*
X858244Y548305D01*
X858217Y548340D01*
X858194Y548377D01*
X858174Y548415D01*
X858157Y548455D01*
X858144Y548497D01*
X858135Y548539D01*
X858129Y548583D01*
X858127Y548626D01*
X858127Y549874D01*
X858129Y549917D01*
X858135Y549961D01*
X858144Y550003D01*
X858157Y550045D01*
X858174Y550085D01*
X858194Y550123D01*
X858217Y550160D01*
X858244Y550195D01*
X858273Y550227D01*
X858305Y550256D01*
X858340Y550283D01*
X858376Y550306D01*
X858415Y550326D01*
X858455Y550343D01*
X858497Y550356D01*
X858539Y550365D01*
X858582Y550371D01*
X858626Y550373D01*
X859375Y550373D01*
X860527Y550373D02*
X860527Y548127D01*
X861775Y548127D02*
X860527Y550373D01*
X861775Y550373D02*
X861775Y548127D01*
X862927Y548127D02*
X862927Y550373D01*
X863551Y550373D01*
X863600Y550371D01*
X863649Y550365D01*
X863697Y550356D01*
X863744Y550342D01*
X863790Y550326D01*
X863834Y550305D01*
X863877Y550281D01*
X863918Y550254D01*
X863956Y550223D01*
X863992Y550190D01*
X864025Y550154D01*
X864056Y550116D01*
X864083Y550075D01*
X864107Y550032D01*
X864128Y549988D01*
X864144Y549942D01*
X864158Y549895D01*
X864167Y549847D01*
X864173Y549798D01*
X864175Y549749D01*
X864175Y548751D01*
X864173Y548702D01*
X864167Y548653D01*
X864158Y548605D01*
X864144Y548558D01*
X864128Y548512D01*
X864107Y548468D01*
X864083Y548425D01*
X864056Y548384D01*
X864025Y548346D01*
X863992Y548310D01*
X863956Y548277D01*
X863918Y548246D01*
X863877Y548219D01*
X863834Y548195D01*
X863790Y548174D01*
X863744Y548158D01*
X863697Y548144D01*
X863649Y548135D01*
X863600Y548129D01*
X863551Y548127D01*
X862927Y548127D01*
X884876Y548127D02*
X884920Y548129D01*
X884963Y548135D01*
X885005Y548144D01*
X885047Y548157D01*
X885087Y548174D01*
X885126Y548194D01*
X885162Y548217D01*
X885197Y548244D01*
X885229Y548273D01*
X885258Y548305D01*
X885285Y548340D01*
X885308Y548377D01*
X885328Y548415D01*
X885345Y548455D01*
X885358Y548497D01*
X885367Y548539D01*
X885373Y548583D01*
X885375Y548626D01*
X884876Y548127D02*
X884812Y548129D01*
X884748Y548135D01*
X884685Y548144D01*
X884622Y548158D01*
X884561Y548175D01*
X884500Y548196D01*
X884441Y548221D01*
X884384Y548249D01*
X884328Y548281D01*
X884274Y548316D01*
X884223Y548354D01*
X884174Y548395D01*
X884128Y548439D01*
X884190Y549874D02*
X884192Y549917D01*
X884198Y549961D01*
X884207Y550003D01*
X884220Y550045D01*
X884237Y550085D01*
X884257Y550124D01*
X884280Y550160D01*
X884307Y550195D01*
X884336Y550227D01*
X884368Y550256D01*
X884403Y550283D01*
X884440Y550306D01*
X884478Y550326D01*
X884518Y550343D01*
X884560Y550356D01*
X884602Y550365D01*
X884646Y550371D01*
X884689Y550373D01*
X884749Y550371D01*
X884809Y550365D01*
X884869Y550356D01*
X884927Y550342D01*
X884985Y550325D01*
X885042Y550304D01*
X885097Y550280D01*
X885150Y550252D01*
X885201Y550220D01*
X885251Y550186D01*
X884439Y549437D02*
X884402Y549461D01*
X884367Y549488D01*
X884335Y549518D01*
X884306Y549550D01*
X884279Y549585D01*
X884256Y549622D01*
X884236Y549661D01*
X884219Y549702D01*
X884206Y549744D01*
X884197Y549787D01*
X884191Y549830D01*
X884189Y549874D01*
X885125Y549063D02*
X885162Y549039D01*
X885197Y549012D01*
X885229Y548982D01*
X885258Y548950D01*
X885285Y548915D01*
X885308Y548878D01*
X885328Y548839D01*
X885345Y548798D01*
X885358Y548756D01*
X885367Y548713D01*
X885373Y548670D01*
X885375Y548626D01*
X885125Y549063D02*
X884439Y549437D01*
X886794Y548127D02*
X887293Y548127D01*
X886794Y548127D02*
X886751Y548129D01*
X886707Y548135D01*
X886665Y548144D01*
X886623Y548157D01*
X886583Y548174D01*
X886545Y548194D01*
X886508Y548217D01*
X886473Y548244D01*
X886441Y548273D01*
X886412Y548305D01*
X886385Y548340D01*
X886362Y548377D01*
X886342Y548415D01*
X886325Y548455D01*
X886312Y548497D01*
X886303Y548539D01*
X886297Y548583D01*
X886295Y548626D01*
X886295Y549874D01*
X886297Y549917D01*
X886303Y549961D01*
X886312Y550003D01*
X886325Y550045D01*
X886342Y550085D01*
X886362Y550123D01*
X886385Y550160D01*
X886412Y550195D01*
X886441Y550227D01*
X886473Y550256D01*
X886508Y550283D01*
X886544Y550306D01*
X886583Y550326D01*
X886623Y550343D01*
X886665Y550356D01*
X886707Y550365D01*
X886750Y550371D01*
X886794Y550373D01*
X887293Y550373D01*
X888257Y550373D02*
X888257Y548127D01*
X889255Y548127D01*
X909876Y548127D02*
X909920Y548129D01*
X909963Y548135D01*
X910005Y548144D01*
X910047Y548157D01*
X910087Y548174D01*
X910126Y548194D01*
X910162Y548217D01*
X910197Y548244D01*
X910229Y548273D01*
X910258Y548305D01*
X910285Y548340D01*
X910308Y548377D01*
X910328Y548415D01*
X910345Y548455D01*
X910358Y548497D01*
X910367Y548539D01*
X910373Y548583D01*
X910375Y548626D01*
X909876Y548127D02*
X909812Y548129D01*
X909748Y548135D01*
X909685Y548144D01*
X909622Y548158D01*
X909561Y548175D01*
X909500Y548196D01*
X909441Y548221D01*
X909384Y548249D01*
X909328Y548281D01*
X909274Y548316D01*
X909223Y548354D01*
X909174Y548395D01*
X909128Y548439D01*
X909190Y549874D02*
X909192Y549917D01*
X909198Y549961D01*
X909207Y550003D01*
X909220Y550045D01*
X909237Y550085D01*
X909257Y550124D01*
X909280Y550160D01*
X909307Y550195D01*
X909336Y550227D01*
X909368Y550256D01*
X909403Y550283D01*
X909440Y550306D01*
X909478Y550326D01*
X909518Y550343D01*
X909560Y550356D01*
X909602Y550365D01*
X909646Y550371D01*
X909689Y550373D01*
X909749Y550371D01*
X909809Y550365D01*
X909869Y550356D01*
X909927Y550342D01*
X909985Y550325D01*
X910042Y550304D01*
X910097Y550280D01*
X910150Y550252D01*
X910201Y550220D01*
X910251Y550186D01*
X909439Y549437D02*
X909402Y549461D01*
X909367Y549488D01*
X909335Y549518D01*
X909306Y549550D01*
X909279Y549585D01*
X909256Y549622D01*
X909236Y549661D01*
X909219Y549702D01*
X909206Y549744D01*
X909197Y549787D01*
X909191Y549830D01*
X909189Y549874D01*
X910125Y549063D02*
X910162Y549039D01*
X910197Y549012D01*
X910229Y548982D01*
X910258Y548950D01*
X910285Y548915D01*
X910308Y548878D01*
X910328Y548839D01*
X910345Y548798D01*
X910358Y548756D01*
X910367Y548713D01*
X910373Y548670D01*
X910375Y548626D01*
X910125Y549063D02*
X909439Y549437D01*
X911377Y550373D02*
X911377Y548127D01*
X911377Y550373D02*
X912001Y550373D01*
X912050Y550371D01*
X912099Y550365D01*
X912147Y550356D01*
X912194Y550342D01*
X912240Y550326D01*
X912284Y550305D01*
X912327Y550281D01*
X912368Y550254D01*
X912406Y550223D01*
X912442Y550190D01*
X912475Y550154D01*
X912506Y550116D01*
X912533Y550075D01*
X912557Y550032D01*
X912578Y549988D01*
X912594Y549942D01*
X912608Y549895D01*
X912617Y549847D01*
X912623Y549798D01*
X912625Y549749D01*
X912625Y548751D01*
X912623Y548702D01*
X912617Y548653D01*
X912608Y548605D01*
X912594Y548558D01*
X912578Y548512D01*
X912557Y548468D01*
X912533Y548425D01*
X912506Y548384D01*
X912475Y548346D01*
X912442Y548310D01*
X912406Y548277D01*
X912368Y548246D01*
X912327Y548219D01*
X912284Y548195D01*
X912240Y548174D01*
X912194Y548158D01*
X912147Y548144D01*
X912099Y548135D01*
X912050Y548129D01*
X912001Y548127D01*
X911377Y548127D01*
X913577Y548127D02*
X914326Y550373D01*
X915075Y548127D01*
X914887Y548689D02*
X913764Y548689D01*
X933127Y548127D02*
X933127Y550373D01*
X933751Y550373D01*
X933800Y550371D01*
X933849Y550365D01*
X933897Y550356D01*
X933944Y550342D01*
X933990Y550326D01*
X934034Y550305D01*
X934077Y550281D01*
X934118Y550254D01*
X934156Y550223D01*
X934192Y550190D01*
X934225Y550154D01*
X934256Y550116D01*
X934283Y550075D01*
X934307Y550032D01*
X934328Y549988D01*
X934344Y549942D01*
X934358Y549895D01*
X934367Y549847D01*
X934373Y549798D01*
X934375Y549749D01*
X934373Y549700D01*
X934367Y549651D01*
X934358Y549603D01*
X934344Y549556D01*
X934328Y549510D01*
X934307Y549466D01*
X934283Y549423D01*
X934256Y549382D01*
X934225Y549344D01*
X934192Y549308D01*
X934156Y549275D01*
X934118Y549244D01*
X934077Y549217D01*
X934034Y549193D01*
X933990Y549172D01*
X933944Y549156D01*
X933897Y549142D01*
X933849Y549133D01*
X933800Y549127D01*
X933751Y549125D01*
X933127Y549125D01*
X933876Y549125D02*
X934375Y548127D01*
X935441Y548127D02*
X936439Y548127D01*
X935441Y548127D02*
X935441Y550373D01*
X936439Y550373D01*
X936189Y549375D02*
X935441Y549375D01*
X937984Y548127D02*
X938028Y548129D01*
X938071Y548135D01*
X938113Y548144D01*
X938155Y548157D01*
X938195Y548174D01*
X938234Y548194D01*
X938270Y548217D01*
X938305Y548244D01*
X938337Y548273D01*
X938366Y548305D01*
X938393Y548340D01*
X938416Y548377D01*
X938436Y548415D01*
X938453Y548455D01*
X938466Y548497D01*
X938475Y548539D01*
X938481Y548583D01*
X938483Y548626D01*
X937984Y548127D02*
X937920Y548129D01*
X937856Y548135D01*
X937793Y548144D01*
X937730Y548158D01*
X937669Y548175D01*
X937608Y548196D01*
X937549Y548221D01*
X937492Y548249D01*
X937436Y548281D01*
X937382Y548316D01*
X937331Y548354D01*
X937282Y548395D01*
X937236Y548439D01*
X937298Y549874D02*
X937300Y549917D01*
X937306Y549961D01*
X937315Y550003D01*
X937328Y550045D01*
X937345Y550085D01*
X937365Y550124D01*
X937388Y550160D01*
X937415Y550195D01*
X937444Y550227D01*
X937476Y550256D01*
X937511Y550283D01*
X937548Y550306D01*
X937586Y550326D01*
X937626Y550343D01*
X937668Y550356D01*
X937710Y550365D01*
X937754Y550371D01*
X937797Y550373D01*
X937857Y550371D01*
X937917Y550365D01*
X937977Y550356D01*
X938035Y550342D01*
X938093Y550325D01*
X938150Y550304D01*
X938205Y550280D01*
X938258Y550252D01*
X938309Y550220D01*
X938359Y550186D01*
X937548Y549437D02*
X937511Y549461D01*
X937476Y549488D01*
X937444Y549518D01*
X937415Y549550D01*
X937388Y549585D01*
X937365Y549622D01*
X937345Y549661D01*
X937328Y549702D01*
X937315Y549744D01*
X937306Y549787D01*
X937300Y549830D01*
X937298Y549874D01*
X938233Y549063D02*
X938270Y549039D01*
X938305Y549012D01*
X938337Y548982D01*
X938366Y548950D01*
X938393Y548915D01*
X938416Y548878D01*
X938436Y548839D01*
X938453Y548798D01*
X938466Y548756D01*
X938475Y548713D01*
X938481Y548670D01*
X938483Y548626D01*
X938234Y549063D02*
X937547Y549437D01*
X939491Y548127D02*
X940489Y548127D01*
X939491Y548127D02*
X939491Y550373D01*
X940489Y550373D01*
X940239Y549375D02*
X939491Y549375D01*
X941834Y550373D02*
X941834Y548127D01*
X941210Y550373D02*
X942458Y550373D01*
X801377Y671127D02*
X801377Y673373D01*
X801127Y671127D02*
X801626Y671127D01*
X801626Y673373D02*
X801127Y673373D01*
X802628Y673373D02*
X802628Y671127D01*
X803875Y671127D02*
X802628Y673373D01*
X803875Y673373D02*
X803875Y671127D01*
X805427Y671127D02*
X805427Y673373D01*
X806050Y673373D02*
X804803Y673373D01*
X822377Y673373D02*
X822377Y671127D01*
X822626Y671127D02*
X822127Y671127D01*
X822127Y673373D02*
X822626Y673373D01*
X824239Y673374D02*
X824285Y673372D01*
X824332Y673366D01*
X824377Y673357D01*
X824421Y673344D01*
X824465Y673327D01*
X824506Y673306D01*
X824546Y673282D01*
X824584Y673255D01*
X824620Y673225D01*
X824652Y673193D01*
X824682Y673157D01*
X824709Y673119D01*
X824733Y673079D01*
X824754Y673038D01*
X824771Y672994D01*
X824784Y672950D01*
X824793Y672905D01*
X824799Y672858D01*
X824801Y672812D01*
X824239Y673373D02*
X824189Y673371D01*
X824139Y673366D01*
X824089Y673357D01*
X824040Y673345D01*
X823992Y673329D01*
X823946Y673311D01*
X823900Y673288D01*
X823857Y673263D01*
X823815Y673235D01*
X823775Y673204D01*
X823738Y673170D01*
X823703Y673134D01*
X823671Y673095D01*
X823641Y673055D01*
X823614Y673012D01*
X823591Y672967D01*
X823570Y672921D01*
X823553Y672874D01*
X824613Y672375D02*
X824644Y672407D01*
X824672Y672441D01*
X824698Y672477D01*
X824722Y672515D01*
X824742Y672554D01*
X824760Y672595D01*
X824774Y672637D01*
X824785Y672680D01*
X824793Y672724D01*
X824798Y672768D01*
X824800Y672812D01*
X824613Y672375D02*
X823553Y671127D01*
X824800Y671127D01*
X826294Y671127D02*
X826793Y671127D01*
X826294Y671127D02*
X826251Y671129D01*
X826207Y671135D01*
X826165Y671144D01*
X826123Y671157D01*
X826083Y671174D01*
X826045Y671194D01*
X826008Y671217D01*
X825973Y671244D01*
X825941Y671273D01*
X825912Y671305D01*
X825885Y671340D01*
X825862Y671377D01*
X825842Y671415D01*
X825825Y671455D01*
X825812Y671497D01*
X825803Y671539D01*
X825797Y671583D01*
X825795Y671626D01*
X825795Y672874D01*
X825797Y672917D01*
X825803Y672961D01*
X825812Y673003D01*
X825825Y673045D01*
X825842Y673085D01*
X825862Y673123D01*
X825885Y673160D01*
X825912Y673195D01*
X825941Y673227D01*
X825973Y673256D01*
X826008Y673283D01*
X826044Y673306D01*
X826083Y673326D01*
X826123Y673343D01*
X826165Y673356D01*
X826207Y673365D01*
X826250Y673371D01*
X826294Y673373D01*
X826793Y673373D01*
X828302Y673373D02*
X827553Y671127D01*
X829050Y671127D02*
X828302Y673373D01*
X828863Y671689D02*
X827740Y671689D01*
X830003Y671127D02*
X830003Y673373D01*
X830627Y673373D01*
X830676Y673371D01*
X830725Y673365D01*
X830773Y673356D01*
X830820Y673342D01*
X830866Y673326D01*
X830910Y673305D01*
X830953Y673281D01*
X830994Y673254D01*
X831032Y673223D01*
X831068Y673190D01*
X831101Y673154D01*
X831132Y673116D01*
X831159Y673075D01*
X831183Y673032D01*
X831204Y672988D01*
X831220Y672942D01*
X831234Y672895D01*
X831243Y672847D01*
X831249Y672798D01*
X831251Y672749D01*
X831250Y672749D02*
X831250Y671751D01*
X831251Y671751D02*
X831249Y671702D01*
X831243Y671653D01*
X831234Y671605D01*
X831220Y671558D01*
X831204Y671512D01*
X831183Y671468D01*
X831159Y671425D01*
X831132Y671384D01*
X831101Y671346D01*
X831068Y671310D01*
X831032Y671277D01*
X830994Y671246D01*
X830953Y671219D01*
X830910Y671195D01*
X830866Y671174D01*
X830820Y671158D01*
X830773Y671144D01*
X830725Y671135D01*
X830676Y671129D01*
X830627Y671127D01*
X830003Y671127D01*
X832403Y671127D02*
X832403Y673373D01*
X833027Y673373D01*
X833076Y673371D01*
X833125Y673365D01*
X833173Y673356D01*
X833220Y673342D01*
X833266Y673326D01*
X833310Y673305D01*
X833353Y673281D01*
X833394Y673254D01*
X833432Y673223D01*
X833468Y673190D01*
X833501Y673154D01*
X833532Y673116D01*
X833559Y673075D01*
X833583Y673032D01*
X833604Y672988D01*
X833620Y672942D01*
X833634Y672895D01*
X833643Y672847D01*
X833649Y672798D01*
X833651Y672749D01*
X833650Y672749D02*
X833650Y671751D01*
X833651Y671751D02*
X833649Y671702D01*
X833643Y671653D01*
X833634Y671605D01*
X833620Y671558D01*
X833604Y671512D01*
X833583Y671468D01*
X833559Y671425D01*
X833532Y671384D01*
X833501Y671346D01*
X833468Y671310D01*
X833432Y671277D01*
X833394Y671246D01*
X833353Y671219D01*
X833310Y671195D01*
X833266Y671174D01*
X833220Y671158D01*
X833173Y671144D01*
X833125Y671135D01*
X833076Y671129D01*
X833027Y671127D01*
X832403Y671127D01*
X834819Y671127D02*
X834819Y673373D01*
X835443Y673373D01*
X835492Y673371D01*
X835541Y673365D01*
X835589Y673356D01*
X835636Y673342D01*
X835682Y673326D01*
X835726Y673305D01*
X835769Y673281D01*
X835810Y673254D01*
X835848Y673223D01*
X835884Y673190D01*
X835917Y673154D01*
X835948Y673116D01*
X835975Y673075D01*
X835999Y673032D01*
X836020Y672988D01*
X836036Y672942D01*
X836050Y672895D01*
X836059Y672847D01*
X836065Y672798D01*
X836067Y672749D01*
X836065Y672700D01*
X836059Y672651D01*
X836050Y672603D01*
X836036Y672556D01*
X836020Y672510D01*
X835999Y672466D01*
X835975Y672423D01*
X835948Y672382D01*
X835917Y672344D01*
X835884Y672308D01*
X835848Y672275D01*
X835810Y672244D01*
X835769Y672217D01*
X835726Y672193D01*
X835682Y672172D01*
X835636Y672156D01*
X835589Y672142D01*
X835541Y672133D01*
X835492Y672127D01*
X835443Y672125D01*
X834819Y672125D01*
X835568Y672125D02*
X836067Y671127D01*
X852127Y671127D02*
X852127Y673373D01*
X852751Y673373D01*
X852800Y673371D01*
X852849Y673365D01*
X852897Y673356D01*
X852944Y673342D01*
X852990Y673326D01*
X853034Y673305D01*
X853077Y673281D01*
X853118Y673254D01*
X853156Y673223D01*
X853192Y673190D01*
X853225Y673154D01*
X853256Y673116D01*
X853283Y673075D01*
X853307Y673032D01*
X853328Y672988D01*
X853344Y672942D01*
X853358Y672895D01*
X853367Y672847D01*
X853373Y672798D01*
X853375Y672749D01*
X853373Y672700D01*
X853367Y672651D01*
X853358Y672603D01*
X853344Y672556D01*
X853328Y672510D01*
X853307Y672466D01*
X853283Y672423D01*
X853256Y672382D01*
X853225Y672344D01*
X853192Y672308D01*
X853156Y672275D01*
X853118Y672244D01*
X853077Y672217D01*
X853034Y672193D01*
X852990Y672172D01*
X852944Y672156D01*
X852897Y672142D01*
X852849Y672133D01*
X852800Y672127D01*
X852751Y672125D01*
X852127Y672125D01*
X854938Y671127D02*
X854982Y671129D01*
X855025Y671135D01*
X855067Y671144D01*
X855109Y671157D01*
X855149Y671174D01*
X855188Y671194D01*
X855224Y671217D01*
X855259Y671244D01*
X855291Y671273D01*
X855320Y671305D01*
X855347Y671340D01*
X855370Y671377D01*
X855390Y671415D01*
X855407Y671455D01*
X855420Y671497D01*
X855429Y671539D01*
X855435Y671583D01*
X855437Y671626D01*
X854938Y671127D02*
X854874Y671129D01*
X854810Y671135D01*
X854747Y671144D01*
X854684Y671158D01*
X854623Y671175D01*
X854562Y671196D01*
X854503Y671221D01*
X854446Y671249D01*
X854390Y671281D01*
X854336Y671316D01*
X854285Y671354D01*
X854236Y671395D01*
X854190Y671439D01*
X854252Y672874D02*
X854254Y672917D01*
X854260Y672961D01*
X854269Y673003D01*
X854282Y673045D01*
X854299Y673085D01*
X854319Y673124D01*
X854342Y673160D01*
X854369Y673195D01*
X854398Y673227D01*
X854430Y673256D01*
X854465Y673283D01*
X854502Y673306D01*
X854540Y673326D01*
X854580Y673343D01*
X854622Y673356D01*
X854664Y673365D01*
X854708Y673371D01*
X854751Y673373D01*
X854811Y673371D01*
X854871Y673365D01*
X854931Y673356D01*
X854989Y673342D01*
X855047Y673325D01*
X855104Y673304D01*
X855159Y673280D01*
X855212Y673252D01*
X855263Y673220D01*
X855313Y673186D01*
X854501Y672437D02*
X854464Y672461D01*
X854429Y672488D01*
X854397Y672518D01*
X854368Y672550D01*
X854341Y672585D01*
X854318Y672622D01*
X854298Y672661D01*
X854281Y672702D01*
X854268Y672744D01*
X854259Y672787D01*
X854253Y672830D01*
X854251Y672874D01*
X855187Y672063D02*
X855224Y672039D01*
X855259Y672012D01*
X855291Y671982D01*
X855320Y671950D01*
X855347Y671915D01*
X855370Y671878D01*
X855390Y671839D01*
X855407Y671798D01*
X855420Y671756D01*
X855429Y671713D01*
X855435Y671670D01*
X855437Y671626D01*
X855187Y672063D02*
X854501Y672437D01*
X856364Y672250D02*
X856366Y672334D01*
X856372Y672418D01*
X856381Y672501D01*
X856394Y672584D01*
X856411Y672666D01*
X856432Y672748D01*
X856457Y672828D01*
X856485Y672907D01*
X856516Y672985D01*
X856551Y673061D01*
X856566Y673099D01*
X856584Y673136D01*
X856606Y673170D01*
X856630Y673203D01*
X856657Y673234D01*
X856687Y673262D01*
X856719Y673287D01*
X856754Y673309D01*
X856790Y673328D01*
X856828Y673344D01*
X856867Y673357D01*
X856907Y673366D01*
X856947Y673371D01*
X856988Y673373D01*
X857029Y673371D01*
X857069Y673366D01*
X857109Y673357D01*
X857148Y673344D01*
X857186Y673328D01*
X857222Y673309D01*
X857257Y673287D01*
X857289Y673262D01*
X857319Y673234D01*
X857346Y673203D01*
X857370Y673170D01*
X857392Y673136D01*
X857410Y673099D01*
X857425Y673061D01*
X857460Y672985D01*
X857491Y672907D01*
X857519Y672828D01*
X857544Y672748D01*
X857565Y672666D01*
X857582Y672584D01*
X857595Y672501D01*
X857604Y672418D01*
X857610Y672334D01*
X857612Y672250D01*
X856364Y672250D02*
X856366Y672166D01*
X856372Y672082D01*
X856381Y671999D01*
X856394Y671916D01*
X856411Y671834D01*
X856432Y671752D01*
X856457Y671672D01*
X856485Y671593D01*
X856516Y671515D01*
X856551Y671439D01*
X856566Y671401D01*
X856584Y671364D01*
X856606Y671330D01*
X856630Y671297D01*
X856657Y671266D01*
X856687Y671238D01*
X856719Y671213D01*
X856754Y671191D01*
X856790Y671172D01*
X856828Y671156D01*
X856867Y671143D01*
X856907Y671134D01*
X856947Y671129D01*
X856988Y671127D01*
X857425Y671439D02*
X857460Y671515D01*
X857491Y671593D01*
X857519Y671672D01*
X857544Y671752D01*
X857565Y671834D01*
X857582Y671916D01*
X857595Y671999D01*
X857604Y672082D01*
X857610Y672166D01*
X857612Y672250D01*
X857425Y671439D02*
X857410Y671401D01*
X857392Y671364D01*
X857370Y671330D01*
X857346Y671297D01*
X857319Y671266D01*
X857289Y671238D01*
X857257Y671213D01*
X857222Y671191D01*
X857186Y671172D01*
X857148Y671156D01*
X857109Y671143D01*
X857069Y671134D01*
X857029Y671129D01*
X856988Y671127D01*
X856489Y671626D02*
X857487Y672874D01*
X877127Y673373D02*
X877127Y671127D01*
X877127Y673373D02*
X877751Y673373D01*
X877800Y673371D01*
X877849Y673365D01*
X877897Y673356D01*
X877944Y673342D01*
X877990Y673326D01*
X878034Y673305D01*
X878077Y673281D01*
X878118Y673254D01*
X878156Y673223D01*
X878192Y673190D01*
X878225Y673154D01*
X878256Y673116D01*
X878283Y673075D01*
X878307Y673032D01*
X878328Y672988D01*
X878344Y672942D01*
X878358Y672895D01*
X878367Y672847D01*
X878373Y672798D01*
X878375Y672749D01*
X878373Y672700D01*
X878367Y672651D01*
X878358Y672603D01*
X878344Y672556D01*
X878328Y672510D01*
X878307Y672466D01*
X878283Y672423D01*
X878256Y672382D01*
X878225Y672344D01*
X878192Y672308D01*
X878156Y672275D01*
X878118Y672244D01*
X878077Y672217D01*
X878034Y672193D01*
X877990Y672172D01*
X877944Y672156D01*
X877897Y672142D01*
X877849Y672133D01*
X877800Y672127D01*
X877751Y672125D01*
X877127Y672125D01*
X879938Y671127D02*
X879982Y671129D01*
X880025Y671135D01*
X880067Y671144D01*
X880109Y671157D01*
X880149Y671174D01*
X880188Y671194D01*
X880224Y671217D01*
X880259Y671244D01*
X880291Y671273D01*
X880320Y671305D01*
X880347Y671340D01*
X880370Y671377D01*
X880390Y671415D01*
X880407Y671455D01*
X880420Y671497D01*
X880429Y671539D01*
X880435Y671583D01*
X880437Y671626D01*
X879938Y671127D02*
X879874Y671129D01*
X879810Y671135D01*
X879747Y671144D01*
X879684Y671158D01*
X879623Y671175D01*
X879562Y671196D01*
X879503Y671221D01*
X879446Y671249D01*
X879390Y671281D01*
X879336Y671316D01*
X879285Y671354D01*
X879236Y671395D01*
X879190Y671439D01*
X879252Y672874D02*
X879254Y672917D01*
X879260Y672961D01*
X879269Y673003D01*
X879282Y673045D01*
X879299Y673085D01*
X879319Y673124D01*
X879342Y673160D01*
X879369Y673195D01*
X879398Y673227D01*
X879430Y673256D01*
X879465Y673283D01*
X879502Y673306D01*
X879540Y673326D01*
X879580Y673343D01*
X879622Y673356D01*
X879664Y673365D01*
X879708Y673371D01*
X879751Y673373D01*
X879811Y673371D01*
X879871Y673365D01*
X879931Y673356D01*
X879989Y673342D01*
X880047Y673325D01*
X880104Y673304D01*
X880159Y673280D01*
X880212Y673252D01*
X880263Y673220D01*
X880313Y673186D01*
X879501Y672437D02*
X879464Y672461D01*
X879429Y672488D01*
X879397Y672518D01*
X879368Y672550D01*
X879341Y672585D01*
X879318Y672622D01*
X879298Y672661D01*
X879281Y672702D01*
X879268Y672744D01*
X879259Y672787D01*
X879253Y672830D01*
X879251Y672874D01*
X880187Y672063D02*
X880224Y672039D01*
X880259Y672012D01*
X880291Y671982D01*
X880320Y671950D01*
X880347Y671915D01*
X880370Y671878D01*
X880390Y671839D01*
X880407Y671798D01*
X880420Y671756D01*
X880429Y671713D01*
X880435Y671670D01*
X880437Y671626D01*
X880187Y672063D02*
X879501Y672437D01*
X881364Y672874D02*
X881988Y673373D01*
X881988Y671127D01*
X881364Y671127D02*
X882612Y671127D01*
X826127Y473373D02*
X826127Y471127D01*
X826127Y473373D02*
X826751Y473373D01*
X826800Y473371D01*
X826849Y473365D01*
X826897Y473356D01*
X826944Y473342D01*
X826990Y473326D01*
X827034Y473305D01*
X827077Y473281D01*
X827118Y473254D01*
X827156Y473223D01*
X827192Y473190D01*
X827225Y473154D01*
X827256Y473116D01*
X827283Y473075D01*
X827307Y473032D01*
X827328Y472988D01*
X827344Y472942D01*
X827358Y472895D01*
X827367Y472847D01*
X827373Y472798D01*
X827375Y472749D01*
X827373Y472700D01*
X827367Y472651D01*
X827358Y472603D01*
X827344Y472556D01*
X827328Y472510D01*
X827307Y472466D01*
X827283Y472423D01*
X827256Y472382D01*
X827225Y472344D01*
X827192Y472308D01*
X827156Y472275D01*
X827118Y472244D01*
X827077Y472217D01*
X827034Y472193D01*
X826990Y472172D01*
X826944Y472156D01*
X826897Y472142D01*
X826849Y472133D01*
X826800Y472127D01*
X826751Y472125D01*
X826127Y472125D01*
X828438Y471127D02*
X828438Y473373D01*
X828188Y471127D02*
X828688Y471127D01*
X828688Y473373D02*
X828188Y473373D01*
X829694Y471127D02*
X830692Y471127D01*
X829694Y471127D02*
X829694Y473373D01*
X830692Y473373D01*
X830443Y472375D02*
X829694Y472375D01*
X831489Y473373D02*
X832737Y473373D01*
X831489Y471127D01*
X832737Y471127D01*
X833664Y471751D02*
X833664Y472749D01*
X833666Y472798D01*
X833672Y472847D01*
X833681Y472895D01*
X833695Y472942D01*
X833711Y472988D01*
X833732Y473032D01*
X833756Y473075D01*
X833783Y473116D01*
X833814Y473154D01*
X833847Y473190D01*
X833883Y473223D01*
X833921Y473254D01*
X833962Y473281D01*
X834005Y473305D01*
X834049Y473326D01*
X834095Y473342D01*
X834142Y473356D01*
X834190Y473365D01*
X834239Y473371D01*
X834288Y473373D01*
X834337Y473371D01*
X834386Y473365D01*
X834434Y473356D01*
X834481Y473342D01*
X834527Y473326D01*
X834571Y473305D01*
X834614Y473281D01*
X834655Y473254D01*
X834693Y473223D01*
X834729Y473190D01*
X834762Y473154D01*
X834793Y473116D01*
X834820Y473075D01*
X834844Y473032D01*
X834865Y472988D01*
X834881Y472942D01*
X834895Y472895D01*
X834904Y472847D01*
X834910Y472798D01*
X834912Y472749D01*
X834912Y471751D01*
X834910Y471702D01*
X834904Y471653D01*
X834895Y471605D01*
X834881Y471558D01*
X834865Y471512D01*
X834844Y471468D01*
X834820Y471425D01*
X834793Y471384D01*
X834762Y471346D01*
X834729Y471310D01*
X834693Y471277D01*
X834655Y471246D01*
X834614Y471219D01*
X834571Y471195D01*
X834527Y471174D01*
X834481Y471158D01*
X834434Y471144D01*
X834386Y471135D01*
X834337Y471129D01*
X834288Y471127D01*
X834239Y471129D01*
X834190Y471135D01*
X834142Y471144D01*
X834095Y471158D01*
X834049Y471174D01*
X834005Y471195D01*
X833962Y471219D01*
X833921Y471246D01*
X833883Y471277D01*
X833847Y471310D01*
X833814Y471346D01*
X833783Y471384D01*
X833756Y471425D01*
X833732Y471468D01*
X833711Y471512D01*
X833695Y471558D01*
X833681Y471605D01*
X833672Y471653D01*
X833666Y471702D01*
X833664Y471751D01*
X849000Y472375D02*
X849375Y472375D01*
X849375Y471127D01*
X848626Y471127D01*
X848583Y471129D01*
X848539Y471135D01*
X848497Y471144D01*
X848455Y471157D01*
X848415Y471174D01*
X848377Y471194D01*
X848340Y471217D01*
X848305Y471244D01*
X848273Y471273D01*
X848244Y471305D01*
X848217Y471340D01*
X848194Y471377D01*
X848174Y471415D01*
X848157Y471455D01*
X848144Y471497D01*
X848135Y471539D01*
X848129Y471583D01*
X848127Y471626D01*
X848127Y472874D01*
X848129Y472917D01*
X848135Y472961D01*
X848144Y473003D01*
X848157Y473045D01*
X848174Y473085D01*
X848194Y473123D01*
X848217Y473160D01*
X848244Y473195D01*
X848273Y473227D01*
X848305Y473256D01*
X848340Y473283D01*
X848376Y473306D01*
X848415Y473326D01*
X848455Y473343D01*
X848497Y473356D01*
X848539Y473365D01*
X848582Y473371D01*
X848626Y473373D01*
X849375Y473373D01*
X850527Y473373D02*
X850527Y471127D01*
X851775Y471127D02*
X850527Y473373D01*
X851775Y473373D02*
X851775Y471127D01*
X852927Y471127D02*
X852927Y473373D01*
X853551Y473373D01*
X853600Y473371D01*
X853649Y473365D01*
X853697Y473356D01*
X853744Y473342D01*
X853790Y473326D01*
X853834Y473305D01*
X853877Y473281D01*
X853918Y473254D01*
X853956Y473223D01*
X853992Y473190D01*
X854025Y473154D01*
X854056Y473116D01*
X854083Y473075D01*
X854107Y473032D01*
X854128Y472988D01*
X854144Y472942D01*
X854158Y472895D01*
X854167Y472847D01*
X854173Y472798D01*
X854175Y472749D01*
X854175Y471751D01*
X854173Y471702D01*
X854167Y471653D01*
X854158Y471605D01*
X854144Y471558D01*
X854128Y471512D01*
X854107Y471468D01*
X854083Y471425D01*
X854056Y471384D01*
X854025Y471346D01*
X853992Y471310D01*
X853956Y471277D01*
X853918Y471246D01*
X853877Y471219D01*
X853834Y471195D01*
X853790Y471174D01*
X853744Y471158D01*
X853697Y471144D01*
X853649Y471135D01*
X853600Y471129D01*
X853551Y471127D01*
X852927Y471127D01*
X743373Y518088D02*
X741127Y518088D01*
X741127Y518712D01*
X741129Y518761D01*
X741135Y518810D01*
X741144Y518858D01*
X741158Y518905D01*
X741174Y518951D01*
X741195Y518995D01*
X741219Y519038D01*
X741246Y519079D01*
X741277Y519117D01*
X741310Y519153D01*
X741346Y519186D01*
X741384Y519217D01*
X741425Y519244D01*
X741468Y519268D01*
X741512Y519289D01*
X741558Y519305D01*
X741605Y519319D01*
X741653Y519328D01*
X741702Y519334D01*
X741751Y519336D01*
X741800Y519334D01*
X741849Y519328D01*
X741897Y519319D01*
X741944Y519305D01*
X741990Y519289D01*
X742034Y519268D01*
X742077Y519244D01*
X742118Y519217D01*
X742156Y519186D01*
X742192Y519153D01*
X742225Y519117D01*
X742256Y519079D01*
X742283Y519038D01*
X742307Y518995D01*
X742328Y518951D01*
X742344Y518905D01*
X742358Y518858D01*
X742367Y518810D01*
X742373Y518761D01*
X742375Y518712D01*
X742375Y518088D01*
X743373Y520399D02*
X741127Y520399D01*
X743373Y520150D02*
X743373Y520649D01*
X741127Y520649D02*
X741127Y520150D01*
X743373Y521655D02*
X743373Y522654D01*
X743373Y521655D02*
X741127Y521655D01*
X741127Y522654D01*
X742125Y522404D02*
X742125Y521655D01*
X741127Y523450D02*
X741127Y524698D01*
X743373Y523450D01*
X743373Y524698D01*
X742749Y525625D02*
X741751Y525625D01*
X741702Y525627D01*
X741653Y525633D01*
X741605Y525642D01*
X741558Y525656D01*
X741512Y525672D01*
X741468Y525693D01*
X741425Y525717D01*
X741384Y525744D01*
X741346Y525775D01*
X741310Y525808D01*
X741277Y525844D01*
X741246Y525882D01*
X741219Y525923D01*
X741195Y525966D01*
X741174Y526010D01*
X741158Y526056D01*
X741144Y526103D01*
X741135Y526151D01*
X741129Y526200D01*
X741127Y526249D01*
X741129Y526298D01*
X741135Y526347D01*
X741144Y526395D01*
X741158Y526442D01*
X741174Y526488D01*
X741195Y526532D01*
X741219Y526575D01*
X741246Y526616D01*
X741277Y526654D01*
X741310Y526690D01*
X741346Y526723D01*
X741384Y526754D01*
X741425Y526781D01*
X741468Y526805D01*
X741512Y526826D01*
X741558Y526842D01*
X741605Y526856D01*
X741653Y526865D01*
X741702Y526871D01*
X741751Y526873D01*
X742749Y526873D01*
X742798Y526871D01*
X742847Y526865D01*
X742895Y526856D01*
X742942Y526842D01*
X742988Y526826D01*
X743032Y526805D01*
X743075Y526781D01*
X743116Y526754D01*
X743154Y526723D01*
X743190Y526690D01*
X743223Y526654D01*
X743254Y526616D01*
X743281Y526575D01*
X743305Y526532D01*
X743326Y526488D01*
X743342Y526442D01*
X743356Y526395D01*
X743365Y526347D01*
X743371Y526298D01*
X743373Y526249D01*
X743371Y526200D01*
X743365Y526151D01*
X743356Y526103D01*
X743342Y526056D01*
X743326Y526010D01*
X743305Y525966D01*
X743281Y525923D01*
X743254Y525882D01*
X743223Y525844D01*
X743190Y525808D01*
X743154Y525775D01*
X743116Y525744D01*
X743075Y525717D01*
X743032Y525693D01*
X742988Y525672D01*
X742942Y525656D01*
X742895Y525642D01*
X742847Y525633D01*
X742798Y525627D01*
X742749Y525625D01*
X740625Y540000D02*
X740625Y540375D01*
X741873Y540375D01*
X741873Y539626D01*
X741871Y539583D01*
X741865Y539539D01*
X741856Y539497D01*
X741843Y539455D01*
X741826Y539415D01*
X741806Y539377D01*
X741783Y539340D01*
X741756Y539305D01*
X741727Y539273D01*
X741695Y539244D01*
X741660Y539217D01*
X741624Y539194D01*
X741585Y539174D01*
X741545Y539157D01*
X741503Y539144D01*
X741461Y539135D01*
X741418Y539129D01*
X741374Y539127D01*
X740126Y539127D01*
X740083Y539129D01*
X740039Y539135D01*
X739997Y539144D01*
X739955Y539157D01*
X739915Y539174D01*
X739877Y539194D01*
X739840Y539217D01*
X739805Y539244D01*
X739773Y539273D01*
X739744Y539305D01*
X739717Y539340D01*
X739694Y539376D01*
X739674Y539415D01*
X739657Y539455D01*
X739644Y539497D01*
X739635Y539539D01*
X739629Y539582D01*
X739627Y539626D01*
X739627Y540375D01*
X739627Y541527D02*
X741873Y541527D01*
X741873Y542775D02*
X739627Y541527D01*
X739627Y542775D02*
X741873Y542775D01*
X741873Y543927D02*
X739627Y543927D01*
X739627Y544551D01*
X739629Y544600D01*
X739635Y544649D01*
X739644Y544697D01*
X739658Y544744D01*
X739675Y544790D01*
X739695Y544834D01*
X739719Y544877D01*
X739746Y544918D01*
X739777Y544956D01*
X739810Y544992D01*
X739846Y545026D01*
X739884Y545056D01*
X739925Y545083D01*
X739968Y545107D01*
X740012Y545128D01*
X740058Y545144D01*
X740105Y545158D01*
X740153Y545167D01*
X740202Y545173D01*
X740251Y545175D01*
X741249Y545175D01*
X741298Y545173D01*
X741347Y545167D01*
X741395Y545158D01*
X741442Y545144D01*
X741488Y545128D01*
X741532Y545107D01*
X741575Y545083D01*
X741616Y545056D01*
X741654Y545025D01*
X741690Y544992D01*
X741723Y544956D01*
X741754Y544918D01*
X741781Y544877D01*
X741805Y544834D01*
X741826Y544790D01*
X741842Y544744D01*
X741856Y544697D01*
X741865Y544649D01*
X741871Y544600D01*
X741873Y544551D01*
X741873Y543927D01*
X740625Y699000D02*
X740625Y699375D01*
X741873Y699375D01*
X741873Y698626D01*
X741871Y698583D01*
X741865Y698539D01*
X741856Y698497D01*
X741843Y698455D01*
X741826Y698415D01*
X741806Y698377D01*
X741783Y698340D01*
X741756Y698305D01*
X741727Y698273D01*
X741695Y698244D01*
X741660Y698217D01*
X741624Y698194D01*
X741585Y698174D01*
X741545Y698157D01*
X741503Y698144D01*
X741461Y698135D01*
X741418Y698129D01*
X741374Y698127D01*
X740126Y698127D01*
X740083Y698129D01*
X740039Y698135D01*
X739997Y698144D01*
X739955Y698157D01*
X739915Y698174D01*
X739877Y698194D01*
X739840Y698217D01*
X739805Y698244D01*
X739773Y698273D01*
X739744Y698305D01*
X739717Y698340D01*
X739694Y698376D01*
X739674Y698415D01*
X739657Y698455D01*
X739644Y698497D01*
X739635Y698539D01*
X739629Y698582D01*
X739627Y698626D01*
X739627Y699375D01*
X739627Y700527D02*
X741873Y700527D01*
X741873Y701775D02*
X739627Y700527D01*
X739627Y701775D02*
X741873Y701775D01*
X741873Y702927D02*
X739627Y702927D01*
X739627Y703551D01*
X739629Y703600D01*
X739635Y703649D01*
X739644Y703697D01*
X739658Y703744D01*
X739675Y703790D01*
X739695Y703834D01*
X739719Y703877D01*
X739746Y703918D01*
X739777Y703956D01*
X739810Y703992D01*
X739846Y704026D01*
X739884Y704056D01*
X739925Y704083D01*
X739968Y704107D01*
X740012Y704128D01*
X740058Y704144D01*
X740105Y704158D01*
X740153Y704167D01*
X740202Y704173D01*
X740251Y704175D01*
X741249Y704175D01*
X741298Y704173D01*
X741347Y704167D01*
X741395Y704158D01*
X741442Y704144D01*
X741488Y704128D01*
X741532Y704107D01*
X741575Y704083D01*
X741616Y704056D01*
X741654Y704025D01*
X741690Y703992D01*
X741723Y703956D01*
X741754Y703918D01*
X741781Y703877D01*
X741805Y703834D01*
X741826Y703790D01*
X741842Y703744D01*
X741856Y703697D01*
X741865Y703649D01*
X741871Y703600D01*
X741873Y703551D01*
X741873Y702927D01*
X849000Y752375D02*
X849375Y752375D01*
X849375Y751127D01*
X848626Y751127D01*
X848583Y751129D01*
X848539Y751135D01*
X848497Y751144D01*
X848455Y751157D01*
X848415Y751174D01*
X848377Y751194D01*
X848340Y751217D01*
X848305Y751244D01*
X848273Y751273D01*
X848244Y751305D01*
X848217Y751340D01*
X848194Y751377D01*
X848174Y751415D01*
X848157Y751455D01*
X848144Y751497D01*
X848135Y751539D01*
X848129Y751583D01*
X848127Y751626D01*
X848127Y752874D01*
X848129Y752917D01*
X848135Y752961D01*
X848144Y753003D01*
X848157Y753045D01*
X848174Y753085D01*
X848194Y753123D01*
X848217Y753160D01*
X848244Y753195D01*
X848273Y753227D01*
X848305Y753256D01*
X848340Y753283D01*
X848376Y753306D01*
X848415Y753326D01*
X848455Y753343D01*
X848497Y753356D01*
X848539Y753365D01*
X848582Y753371D01*
X848626Y753373D01*
X849375Y753373D01*
X850527Y753373D02*
X850527Y751127D01*
X851775Y751127D02*
X850527Y753373D01*
X851775Y753373D02*
X851775Y751127D01*
X852927Y751127D02*
X852927Y753373D01*
X853551Y753373D01*
X853600Y753371D01*
X853649Y753365D01*
X853697Y753356D01*
X853744Y753342D01*
X853790Y753326D01*
X853834Y753305D01*
X853877Y753281D01*
X853918Y753254D01*
X853956Y753223D01*
X853992Y753190D01*
X854025Y753154D01*
X854056Y753116D01*
X854083Y753075D01*
X854107Y753032D01*
X854128Y752988D01*
X854144Y752942D01*
X854158Y752895D01*
X854167Y752847D01*
X854173Y752798D01*
X854175Y752749D01*
X854175Y751751D01*
X854173Y751702D01*
X854167Y751653D01*
X854158Y751605D01*
X854144Y751558D01*
X854128Y751512D01*
X854107Y751468D01*
X854083Y751425D01*
X854056Y751384D01*
X854025Y751346D01*
X853992Y751310D01*
X853956Y751277D01*
X853918Y751246D01*
X853877Y751219D01*
X853834Y751195D01*
X853790Y751174D01*
X853744Y751158D01*
X853697Y751144D01*
X853649Y751135D01*
X853600Y751129D01*
X853551Y751127D01*
X852927Y751127D01*
X828876Y751127D02*
X828127Y753373D01*
X829624Y753373D02*
X828876Y751127D01*
X830676Y751127D02*
X830676Y753373D01*
X830426Y751127D02*
X830925Y751127D01*
X830925Y753373D02*
X830426Y753373D01*
X831965Y752375D02*
X832588Y752375D01*
X832637Y752373D01*
X832686Y752367D01*
X832734Y752358D01*
X832781Y752344D01*
X832827Y752328D01*
X832871Y752307D01*
X832914Y752283D01*
X832955Y752256D01*
X832993Y752225D01*
X833029Y752192D01*
X833062Y752156D01*
X833093Y752118D01*
X833120Y752077D01*
X833144Y752034D01*
X833165Y751990D01*
X833181Y751944D01*
X833195Y751897D01*
X833204Y751849D01*
X833210Y751800D01*
X833212Y751751D01*
X833210Y751702D01*
X833204Y751653D01*
X833195Y751605D01*
X833181Y751558D01*
X833165Y751512D01*
X833144Y751468D01*
X833120Y751425D01*
X833093Y751384D01*
X833062Y751346D01*
X833029Y751310D01*
X832993Y751277D01*
X832955Y751246D01*
X832914Y751219D01*
X832871Y751195D01*
X832827Y751174D01*
X832781Y751158D01*
X832734Y751144D01*
X832686Y751135D01*
X832637Y751129D01*
X832588Y751127D01*
X831965Y751127D01*
X831965Y753373D01*
X832588Y753373D01*
X832631Y753371D01*
X832675Y753365D01*
X832717Y753356D01*
X832759Y753343D01*
X832799Y753326D01*
X832838Y753306D01*
X832874Y753283D01*
X832909Y753256D01*
X832941Y753227D01*
X832970Y753195D01*
X832997Y753160D01*
X833020Y753124D01*
X833040Y753085D01*
X833057Y753045D01*
X833070Y753003D01*
X833079Y752961D01*
X833085Y752917D01*
X833087Y752874D01*
X833085Y752831D01*
X833079Y752787D01*
X833070Y752745D01*
X833057Y752703D01*
X833040Y752663D01*
X833020Y752625D01*
X832997Y752588D01*
X832970Y752553D01*
X832941Y752521D01*
X832909Y752492D01*
X832874Y752465D01*
X832838Y752442D01*
X832799Y752422D01*
X832759Y752405D01*
X832717Y752392D01*
X832675Y752383D01*
X832631Y752377D01*
X832588Y752375D01*
X834193Y753373D02*
X834193Y751127D01*
X834193Y753373D02*
X834817Y753373D01*
X834866Y753371D01*
X834915Y753365D01*
X834963Y753356D01*
X835010Y753342D01*
X835056Y753326D01*
X835100Y753305D01*
X835143Y753281D01*
X835184Y753254D01*
X835222Y753223D01*
X835258Y753190D01*
X835291Y753154D01*
X835322Y753116D01*
X835349Y753075D01*
X835373Y753032D01*
X835394Y752988D01*
X835410Y752942D01*
X835424Y752895D01*
X835433Y752847D01*
X835439Y752798D01*
X835441Y752749D01*
X835439Y752700D01*
X835433Y752651D01*
X835424Y752603D01*
X835410Y752556D01*
X835394Y752510D01*
X835373Y752466D01*
X835349Y752423D01*
X835322Y752382D01*
X835291Y752344D01*
X835258Y752308D01*
X835222Y752275D01*
X835184Y752244D01*
X835143Y752217D01*
X835100Y752193D01*
X835056Y752172D01*
X835010Y752156D01*
X834963Y752142D01*
X834915Y752133D01*
X834866Y752127D01*
X834817Y752125D01*
X834193Y752125D01*
X834942Y752125D02*
X835441Y751127D01*
X741873Y717876D02*
X739627Y717127D01*
X739627Y718624D02*
X741873Y717876D01*
X741873Y719676D02*
X739627Y719676D01*
X741873Y719426D02*
X741873Y719925D01*
X739627Y719925D02*
X739627Y719426D01*
X740625Y720965D02*
X740625Y721588D01*
X740627Y721637D01*
X740633Y721686D01*
X740642Y721734D01*
X740656Y721781D01*
X740672Y721827D01*
X740693Y721871D01*
X740717Y721914D01*
X740744Y721955D01*
X740775Y721993D01*
X740808Y722029D01*
X740844Y722062D01*
X740882Y722093D01*
X740923Y722120D01*
X740966Y722144D01*
X741010Y722165D01*
X741056Y722181D01*
X741103Y722195D01*
X741151Y722204D01*
X741200Y722210D01*
X741249Y722212D01*
X741298Y722210D01*
X741347Y722204D01*
X741395Y722195D01*
X741442Y722181D01*
X741488Y722165D01*
X741532Y722144D01*
X741575Y722120D01*
X741616Y722093D01*
X741654Y722062D01*
X741690Y722029D01*
X741723Y721993D01*
X741754Y721955D01*
X741781Y721914D01*
X741805Y721871D01*
X741826Y721827D01*
X741842Y721781D01*
X741856Y721734D01*
X741865Y721686D01*
X741871Y721637D01*
X741873Y721588D01*
X741873Y720965D01*
X739627Y720965D01*
X739627Y721588D01*
X739629Y721631D01*
X739635Y721675D01*
X739644Y721717D01*
X739657Y721759D01*
X739674Y721799D01*
X739694Y721838D01*
X739717Y721874D01*
X739744Y721909D01*
X739773Y721941D01*
X739805Y721970D01*
X739840Y721997D01*
X739877Y722020D01*
X739915Y722040D01*
X739955Y722057D01*
X739997Y722070D01*
X740039Y722079D01*
X740083Y722085D01*
X740126Y722087D01*
X740169Y722085D01*
X740213Y722079D01*
X740255Y722070D01*
X740297Y722057D01*
X740337Y722040D01*
X740376Y722020D01*
X740412Y721997D01*
X740447Y721970D01*
X740479Y721941D01*
X740508Y721909D01*
X740535Y721874D01*
X740558Y721838D01*
X740578Y721799D01*
X740595Y721759D01*
X740608Y721717D01*
X740617Y721675D01*
X740623Y721631D01*
X740625Y721588D01*
X739627Y723193D02*
X741873Y723193D01*
X739627Y723193D02*
X739627Y723817D01*
X739629Y723866D01*
X739635Y723915D01*
X739644Y723963D01*
X739658Y724010D01*
X739674Y724056D01*
X739695Y724100D01*
X739719Y724143D01*
X739746Y724184D01*
X739777Y724222D01*
X739810Y724258D01*
X739846Y724291D01*
X739884Y724322D01*
X739925Y724349D01*
X739968Y724373D01*
X740012Y724394D01*
X740058Y724410D01*
X740105Y724424D01*
X740153Y724433D01*
X740202Y724439D01*
X740251Y724441D01*
X740300Y724439D01*
X740349Y724433D01*
X740397Y724424D01*
X740444Y724410D01*
X740490Y724394D01*
X740534Y724373D01*
X740577Y724349D01*
X740618Y724322D01*
X740656Y724291D01*
X740692Y724258D01*
X740725Y724222D01*
X740756Y724184D01*
X740783Y724143D01*
X740807Y724100D01*
X740828Y724056D01*
X740844Y724010D01*
X740858Y723963D01*
X740867Y723915D01*
X740873Y723866D01*
X740875Y723817D01*
X740875Y723193D01*
X740875Y723942D02*
X741873Y724441D01*
X733625Y636375D02*
X733625Y636000D01*
X733625Y636375D02*
X734873Y636375D01*
X734873Y635626D01*
X734871Y635583D01*
X734865Y635539D01*
X734856Y635497D01*
X734843Y635455D01*
X734826Y635415D01*
X734806Y635377D01*
X734783Y635340D01*
X734756Y635305D01*
X734727Y635273D01*
X734695Y635244D01*
X734660Y635217D01*
X734624Y635194D01*
X734585Y635174D01*
X734545Y635157D01*
X734503Y635144D01*
X734461Y635135D01*
X734418Y635129D01*
X734374Y635127D01*
X733126Y635127D01*
X733083Y635129D01*
X733039Y635135D01*
X732997Y635144D01*
X732955Y635157D01*
X732915Y635174D01*
X732877Y635194D01*
X732840Y635217D01*
X732805Y635244D01*
X732773Y635273D01*
X732744Y635305D01*
X732717Y635340D01*
X732694Y635376D01*
X732674Y635415D01*
X732657Y635455D01*
X732644Y635497D01*
X732635Y635539D01*
X732629Y635582D01*
X732627Y635626D01*
X732627Y636375D01*
X732627Y637527D02*
X734873Y637527D01*
X734873Y638775D02*
X732627Y637527D01*
X732627Y638775D02*
X734873Y638775D01*
X734873Y639927D02*
X732627Y639927D01*
X732627Y640551D01*
X732629Y640600D01*
X732635Y640649D01*
X732644Y640697D01*
X732658Y640744D01*
X732675Y640790D01*
X732695Y640834D01*
X732719Y640877D01*
X732746Y640918D01*
X732777Y640956D01*
X732810Y640992D01*
X732846Y641026D01*
X732884Y641056D01*
X732925Y641083D01*
X732968Y641107D01*
X733012Y641128D01*
X733058Y641144D01*
X733105Y641158D01*
X733153Y641167D01*
X733202Y641173D01*
X733251Y641175D01*
X734249Y641175D01*
X734298Y641173D01*
X734347Y641167D01*
X734395Y641158D01*
X734442Y641144D01*
X734488Y641128D01*
X734532Y641107D01*
X734575Y641083D01*
X734616Y641056D01*
X734654Y641025D01*
X734690Y640992D01*
X734723Y640956D01*
X734754Y640918D01*
X734781Y640877D01*
X734805Y640834D01*
X734826Y640790D01*
X734842Y640744D01*
X734856Y640697D01*
X734865Y640649D01*
X734871Y640600D01*
X734873Y640551D01*
X734873Y639927D01*
X735873Y624876D02*
X733627Y624127D01*
X733627Y625624D02*
X735873Y624876D01*
X735873Y626993D02*
X735873Y627493D01*
X735873Y626993D02*
X735871Y626950D01*
X735865Y626906D01*
X735856Y626864D01*
X735843Y626822D01*
X735826Y626782D01*
X735806Y626744D01*
X735783Y626707D01*
X735756Y626672D01*
X735727Y626640D01*
X735695Y626611D01*
X735660Y626584D01*
X735624Y626561D01*
X735585Y626541D01*
X735545Y626524D01*
X735503Y626511D01*
X735461Y626502D01*
X735418Y626496D01*
X735374Y626494D01*
X734126Y626494D01*
X734083Y626496D01*
X734039Y626502D01*
X733997Y626511D01*
X733955Y626524D01*
X733915Y626541D01*
X733877Y626561D01*
X733840Y626584D01*
X733805Y626611D01*
X733773Y626640D01*
X733744Y626672D01*
X733717Y626707D01*
X733694Y626743D01*
X733674Y626782D01*
X733657Y626822D01*
X733644Y626864D01*
X733635Y626906D01*
X733629Y626949D01*
X733627Y626993D01*
X733627Y627493D01*
X735873Y628868D02*
X735873Y629368D01*
X735873Y628868D02*
X735871Y628825D01*
X735865Y628781D01*
X735856Y628739D01*
X735843Y628697D01*
X735826Y628657D01*
X735806Y628619D01*
X735783Y628582D01*
X735756Y628547D01*
X735727Y628515D01*
X735695Y628486D01*
X735660Y628459D01*
X735624Y628436D01*
X735585Y628416D01*
X735545Y628399D01*
X735503Y628386D01*
X735461Y628377D01*
X735418Y628371D01*
X735374Y628369D01*
X734126Y628369D01*
X734083Y628371D01*
X734039Y628377D01*
X733997Y628386D01*
X733955Y628399D01*
X733915Y628416D01*
X733877Y628436D01*
X733840Y628459D01*
X733805Y628486D01*
X733773Y628515D01*
X733744Y628547D01*
X733717Y628582D01*
X733694Y628618D01*
X733674Y628657D01*
X733657Y628697D01*
X733644Y628739D01*
X733635Y628781D01*
X733629Y628824D01*
X733627Y628868D01*
X733627Y629368D01*
X735374Y612375D02*
X735417Y612373D01*
X735461Y612367D01*
X735503Y612358D01*
X735545Y612345D01*
X735585Y612328D01*
X735624Y612308D01*
X735660Y612285D01*
X735695Y612258D01*
X735727Y612229D01*
X735756Y612197D01*
X735783Y612162D01*
X735806Y612126D01*
X735826Y612087D01*
X735843Y612047D01*
X735856Y612005D01*
X735865Y611963D01*
X735871Y611919D01*
X735873Y611876D01*
X735871Y611812D01*
X735865Y611748D01*
X735856Y611685D01*
X735842Y611622D01*
X735825Y611561D01*
X735804Y611500D01*
X735779Y611441D01*
X735751Y611384D01*
X735719Y611328D01*
X735685Y611274D01*
X735646Y611223D01*
X735605Y611174D01*
X735561Y611128D01*
X734126Y611190D02*
X734083Y611192D01*
X734039Y611198D01*
X733997Y611207D01*
X733955Y611220D01*
X733915Y611237D01*
X733877Y611257D01*
X733840Y611280D01*
X733805Y611307D01*
X733773Y611336D01*
X733744Y611368D01*
X733717Y611403D01*
X733694Y611440D01*
X733674Y611478D01*
X733657Y611518D01*
X733644Y611560D01*
X733635Y611602D01*
X733629Y611646D01*
X733627Y611689D01*
X733629Y611749D01*
X733635Y611809D01*
X733644Y611869D01*
X733658Y611927D01*
X733675Y611985D01*
X733696Y612042D01*
X733720Y612097D01*
X733748Y612150D01*
X733780Y612201D01*
X733814Y612251D01*
X734563Y611439D02*
X734539Y611402D01*
X734512Y611367D01*
X734482Y611335D01*
X734450Y611306D01*
X734415Y611279D01*
X734378Y611256D01*
X734339Y611236D01*
X734298Y611219D01*
X734256Y611206D01*
X734213Y611197D01*
X734170Y611191D01*
X734126Y611189D01*
X734937Y612125D02*
X734961Y612162D01*
X734988Y612197D01*
X735018Y612229D01*
X735050Y612258D01*
X735085Y612285D01*
X735122Y612308D01*
X735161Y612328D01*
X735202Y612345D01*
X735244Y612358D01*
X735287Y612367D01*
X735330Y612373D01*
X735374Y612375D01*
X734937Y612125D02*
X734563Y611439D01*
X733627Y613377D02*
X735873Y613377D01*
X733627Y613377D02*
X733627Y614001D01*
X733629Y614050D01*
X733635Y614099D01*
X733644Y614147D01*
X733658Y614194D01*
X733675Y614240D01*
X733695Y614284D01*
X733719Y614327D01*
X733746Y614368D01*
X733777Y614406D01*
X733810Y614442D01*
X733846Y614476D01*
X733884Y614506D01*
X733925Y614533D01*
X733968Y614557D01*
X734012Y614578D01*
X734058Y614594D01*
X734105Y614608D01*
X734153Y614617D01*
X734202Y614623D01*
X734251Y614625D01*
X735249Y614625D01*
X735298Y614623D01*
X735347Y614617D01*
X735395Y614608D01*
X735442Y614594D01*
X735488Y614578D01*
X735532Y614557D01*
X735575Y614533D01*
X735616Y614506D01*
X735654Y614475D01*
X735690Y614442D01*
X735723Y614406D01*
X735754Y614368D01*
X735781Y614327D01*
X735805Y614284D01*
X735826Y614240D01*
X735842Y614194D01*
X735856Y614147D01*
X735865Y614099D01*
X735871Y614050D01*
X735873Y614001D01*
X735873Y613377D01*
X735873Y615577D02*
X733627Y616326D01*
X735873Y617075D01*
X735312Y616887D02*
X735312Y615764D01*
X735374Y600375D02*
X735417Y600373D01*
X735461Y600367D01*
X735503Y600358D01*
X735545Y600345D01*
X735585Y600328D01*
X735624Y600308D01*
X735660Y600285D01*
X735695Y600258D01*
X735727Y600229D01*
X735756Y600197D01*
X735783Y600162D01*
X735806Y600126D01*
X735826Y600087D01*
X735843Y600047D01*
X735856Y600005D01*
X735865Y599963D01*
X735871Y599919D01*
X735873Y599876D01*
X735871Y599812D01*
X735865Y599748D01*
X735856Y599685D01*
X735842Y599622D01*
X735825Y599561D01*
X735804Y599500D01*
X735779Y599441D01*
X735751Y599384D01*
X735719Y599328D01*
X735685Y599274D01*
X735646Y599223D01*
X735605Y599174D01*
X735561Y599128D01*
X734126Y599190D02*
X734083Y599192D01*
X734039Y599198D01*
X733997Y599207D01*
X733955Y599220D01*
X733915Y599237D01*
X733877Y599257D01*
X733840Y599280D01*
X733805Y599307D01*
X733773Y599336D01*
X733744Y599368D01*
X733717Y599403D01*
X733694Y599440D01*
X733674Y599478D01*
X733657Y599518D01*
X733644Y599560D01*
X733635Y599602D01*
X733629Y599646D01*
X733627Y599689D01*
X733629Y599749D01*
X733635Y599809D01*
X733644Y599869D01*
X733658Y599927D01*
X733675Y599985D01*
X733696Y600042D01*
X733720Y600097D01*
X733748Y600150D01*
X733780Y600201D01*
X733814Y600251D01*
X734563Y599439D02*
X734539Y599402D01*
X734512Y599367D01*
X734482Y599335D01*
X734450Y599306D01*
X734415Y599279D01*
X734378Y599256D01*
X734339Y599236D01*
X734298Y599219D01*
X734256Y599206D01*
X734213Y599197D01*
X734170Y599191D01*
X734126Y599189D01*
X734937Y600125D02*
X734961Y600162D01*
X734988Y600197D01*
X735018Y600229D01*
X735050Y600258D01*
X735085Y600285D01*
X735122Y600308D01*
X735161Y600328D01*
X735202Y600345D01*
X735244Y600358D01*
X735287Y600367D01*
X735330Y600373D01*
X735374Y600375D01*
X734937Y600125D02*
X734563Y599439D01*
X735873Y601794D02*
X735873Y602293D01*
X735873Y601794D02*
X735871Y601751D01*
X735865Y601707D01*
X735856Y601665D01*
X735843Y601623D01*
X735826Y601583D01*
X735806Y601545D01*
X735783Y601508D01*
X735756Y601473D01*
X735727Y601441D01*
X735695Y601412D01*
X735660Y601385D01*
X735624Y601362D01*
X735585Y601342D01*
X735545Y601325D01*
X735503Y601312D01*
X735461Y601303D01*
X735418Y601297D01*
X735374Y601295D01*
X734126Y601295D01*
X734083Y601297D01*
X734039Y601303D01*
X733997Y601312D01*
X733955Y601325D01*
X733915Y601342D01*
X733877Y601362D01*
X733840Y601385D01*
X733805Y601412D01*
X733773Y601441D01*
X733744Y601473D01*
X733717Y601508D01*
X733694Y601544D01*
X733674Y601583D01*
X733657Y601623D01*
X733644Y601665D01*
X733635Y601707D01*
X733629Y601750D01*
X733627Y601794D01*
X733627Y602293D01*
X733627Y603257D02*
X735873Y603257D01*
X735873Y604255D01*
D11*
X701254Y462746D02*
X701254Y455754D01*
X704362Y455754D01*
X707459Y455754D02*
X707459Y462746D01*
X706682Y455754D02*
X708236Y455754D01*
X708236Y462746D02*
X706682Y462746D01*
X713022Y455754D02*
X713098Y455756D01*
X713174Y455761D01*
X713250Y455771D01*
X713325Y455784D01*
X713400Y455801D01*
X713473Y455821D01*
X713546Y455845D01*
X713617Y455872D01*
X713686Y455903D01*
X713755Y455937D01*
X713821Y455975D01*
X713885Y456016D01*
X713948Y456060D01*
X714008Y456107D01*
X714066Y456157D01*
X714121Y456209D01*
X714173Y456264D01*
X714223Y456322D01*
X714270Y456382D01*
X714314Y456445D01*
X714355Y456509D01*
X714393Y456575D01*
X714427Y456644D01*
X714458Y456713D01*
X714485Y456784D01*
X714509Y456857D01*
X714529Y456930D01*
X714546Y457005D01*
X714559Y457080D01*
X714569Y457156D01*
X714574Y457232D01*
X714576Y457308D01*
X713022Y455754D02*
X712909Y455756D01*
X712797Y455762D01*
X712685Y455771D01*
X712573Y455785D01*
X712461Y455802D01*
X712351Y455823D01*
X712241Y455848D01*
X712132Y455877D01*
X712024Y455909D01*
X711917Y455945D01*
X711812Y455985D01*
X711708Y456029D01*
X711605Y456075D01*
X711505Y456126D01*
X711406Y456180D01*
X711309Y456237D01*
X711214Y456297D01*
X711121Y456361D01*
X711030Y456428D01*
X710942Y456498D01*
X710856Y456571D01*
X710772Y456646D01*
X710692Y456725D01*
X710886Y461192D02*
X710888Y461268D01*
X710893Y461344D01*
X710903Y461420D01*
X710916Y461495D01*
X710933Y461570D01*
X710953Y461643D01*
X710977Y461716D01*
X711004Y461787D01*
X711035Y461856D01*
X711069Y461925D01*
X711107Y461991D01*
X711148Y462055D01*
X711192Y462118D01*
X711239Y462178D01*
X711289Y462236D01*
X711341Y462291D01*
X711396Y462343D01*
X711454Y462393D01*
X711514Y462440D01*
X711577Y462484D01*
X711641Y462525D01*
X711707Y462563D01*
X711776Y462597D01*
X711845Y462628D01*
X711916Y462655D01*
X711989Y462679D01*
X712062Y462699D01*
X712137Y462716D01*
X712212Y462729D01*
X712288Y462739D01*
X712364Y462744D01*
X712440Y462746D01*
X712544Y462744D01*
X712648Y462739D01*
X712752Y462729D01*
X712855Y462716D01*
X712958Y462700D01*
X713060Y462679D01*
X713161Y462655D01*
X713262Y462628D01*
X713361Y462597D01*
X713459Y462562D01*
X713556Y462524D01*
X713652Y462482D01*
X713746Y462437D01*
X713838Y462389D01*
X713928Y462337D01*
X714017Y462282D01*
X714103Y462224D01*
X714188Y462163D01*
X711663Y459833D02*
X711597Y459874D01*
X711533Y459918D01*
X711471Y459966D01*
X711411Y460016D01*
X711355Y460070D01*
X711300Y460126D01*
X711249Y460185D01*
X711201Y460246D01*
X711156Y460310D01*
X711114Y460375D01*
X711075Y460443D01*
X711040Y460513D01*
X711008Y460584D01*
X710980Y460657D01*
X710955Y460731D01*
X710934Y460806D01*
X710917Y460882D01*
X710903Y460959D01*
X710894Y461036D01*
X710888Y461114D01*
X710886Y461192D01*
X713799Y458668D02*
X713865Y458626D01*
X713929Y458582D01*
X713991Y458534D01*
X714051Y458484D01*
X714107Y458430D01*
X714162Y458374D01*
X714213Y458315D01*
X714261Y458254D01*
X714306Y458190D01*
X714348Y458125D01*
X714387Y458057D01*
X714422Y457987D01*
X714454Y457916D01*
X714482Y457843D01*
X714507Y457769D01*
X714528Y457694D01*
X714545Y457618D01*
X714559Y457541D01*
X714568Y457464D01*
X714574Y457386D01*
X714576Y457308D01*
X713799Y458667D02*
X711663Y459833D01*
X716828Y462746D02*
X719159Y455754D01*
X721490Y462746D01*
X727628Y458473D02*
X732290Y458473D01*
X740352Y455754D02*
X741906Y455754D01*
X740352Y455754D02*
X740276Y455756D01*
X740200Y455761D01*
X740124Y455771D01*
X740049Y455784D01*
X739974Y455801D01*
X739901Y455821D01*
X739828Y455845D01*
X739757Y455872D01*
X739688Y455903D01*
X739619Y455937D01*
X739553Y455975D01*
X739489Y456016D01*
X739426Y456060D01*
X739366Y456107D01*
X739308Y456157D01*
X739253Y456209D01*
X739201Y456264D01*
X739151Y456322D01*
X739104Y456382D01*
X739060Y456445D01*
X739019Y456509D01*
X738981Y456575D01*
X738947Y456644D01*
X738916Y456713D01*
X738889Y456784D01*
X738865Y456857D01*
X738845Y456930D01*
X738828Y457005D01*
X738815Y457080D01*
X738805Y457156D01*
X738800Y457232D01*
X738798Y457308D01*
X738799Y457308D02*
X738799Y461192D01*
X738798Y461192D02*
X738800Y461271D01*
X738806Y461349D01*
X738816Y461427D01*
X738830Y461505D01*
X738848Y461582D01*
X738869Y461657D01*
X738895Y461732D01*
X738924Y461805D01*
X738957Y461876D01*
X738993Y461946D01*
X739033Y462014D01*
X739077Y462080D01*
X739123Y462143D01*
X739173Y462204D01*
X739226Y462263D01*
X739281Y462318D01*
X739340Y462371D01*
X739401Y462421D01*
X739464Y462467D01*
X739530Y462511D01*
X739598Y462551D01*
X739668Y462587D01*
X739739Y462620D01*
X739812Y462649D01*
X739887Y462675D01*
X739962Y462696D01*
X740039Y462714D01*
X740117Y462728D01*
X740195Y462738D01*
X740273Y462744D01*
X740352Y462746D01*
X741906Y462746D01*
X744442Y460804D02*
X744442Y457696D01*
X744442Y460804D02*
X744444Y460891D01*
X744450Y460978D01*
X744460Y461065D01*
X744473Y461151D01*
X744491Y461236D01*
X744512Y461321D01*
X744537Y461404D01*
X744566Y461486D01*
X744598Y461567D01*
X744634Y461647D01*
X744674Y461724D01*
X744717Y461800D01*
X744763Y461874D01*
X744813Y461945D01*
X744866Y462015D01*
X744922Y462082D01*
X744980Y462146D01*
X745042Y462208D01*
X745106Y462266D01*
X745173Y462322D01*
X745243Y462375D01*
X745314Y462425D01*
X745388Y462471D01*
X745464Y462514D01*
X745541Y462554D01*
X745621Y462590D01*
X745702Y462622D01*
X745784Y462651D01*
X745867Y462676D01*
X745952Y462697D01*
X746037Y462715D01*
X746123Y462728D01*
X746210Y462738D01*
X746297Y462744D01*
X746384Y462746D01*
X746471Y462744D01*
X746558Y462738D01*
X746645Y462728D01*
X746731Y462715D01*
X746816Y462697D01*
X746901Y462676D01*
X746984Y462651D01*
X747066Y462622D01*
X747147Y462590D01*
X747227Y462554D01*
X747304Y462514D01*
X747380Y462471D01*
X747454Y462425D01*
X747525Y462375D01*
X747595Y462322D01*
X747662Y462266D01*
X747726Y462208D01*
X747788Y462146D01*
X747846Y462082D01*
X747902Y462015D01*
X747955Y461945D01*
X748005Y461874D01*
X748051Y461800D01*
X748094Y461724D01*
X748134Y461647D01*
X748170Y461567D01*
X748202Y461486D01*
X748231Y461404D01*
X748256Y461321D01*
X748277Y461236D01*
X748295Y461151D01*
X748308Y461065D01*
X748318Y460978D01*
X748324Y460891D01*
X748326Y460804D01*
X748326Y457696D01*
X748324Y457609D01*
X748318Y457522D01*
X748308Y457435D01*
X748295Y457349D01*
X748277Y457264D01*
X748256Y457179D01*
X748231Y457096D01*
X748202Y457014D01*
X748170Y456933D01*
X748134Y456853D01*
X748094Y456776D01*
X748051Y456700D01*
X748005Y456626D01*
X747955Y456555D01*
X747902Y456485D01*
X747846Y456418D01*
X747788Y456354D01*
X747726Y456292D01*
X747662Y456234D01*
X747595Y456178D01*
X747525Y456125D01*
X747454Y456075D01*
X747380Y456029D01*
X747304Y455986D01*
X747227Y455946D01*
X747147Y455910D01*
X747066Y455878D01*
X746984Y455849D01*
X746901Y455824D01*
X746816Y455803D01*
X746731Y455785D01*
X746645Y455772D01*
X746558Y455762D01*
X746471Y455756D01*
X746384Y455754D01*
X746297Y455756D01*
X746210Y455762D01*
X746123Y455772D01*
X746037Y455785D01*
X745952Y455803D01*
X745867Y455824D01*
X745784Y455849D01*
X745702Y455878D01*
X745621Y455910D01*
X745541Y455946D01*
X745464Y455986D01*
X745388Y456029D01*
X745314Y456075D01*
X745243Y456125D01*
X745173Y456178D01*
X745106Y456234D01*
X745042Y456292D01*
X744980Y456354D01*
X744922Y456418D01*
X744866Y456485D01*
X744813Y456555D01*
X744763Y456626D01*
X744717Y456700D01*
X744674Y456776D01*
X744634Y456853D01*
X744598Y456933D01*
X744566Y457014D01*
X744537Y457096D01*
X744512Y457179D01*
X744491Y457264D01*
X744473Y457349D01*
X744460Y457435D01*
X744450Y457522D01*
X744444Y457609D01*
X744442Y457696D01*
X750803Y455754D02*
X753134Y462746D01*
X755464Y455754D01*
X754882Y457502D02*
X751386Y457502D01*
X758228Y455754D02*
X758228Y462746D01*
X760559Y458862D01*
X762889Y462746D01*
X762889Y455754D01*
X701254Y451496D02*
X701254Y444504D01*
X703585Y447612D02*
X701254Y451496D01*
X703585Y447612D02*
X705915Y451496D01*
X705915Y444504D01*
X710171Y444504D02*
X712113Y444504D01*
X710171Y444504D02*
X710106Y444506D01*
X710041Y444511D01*
X709976Y444520D01*
X709912Y444533D01*
X709848Y444550D01*
X709786Y444569D01*
X709725Y444593D01*
X709666Y444619D01*
X709607Y444649D01*
X709551Y444683D01*
X709497Y444719D01*
X709445Y444758D01*
X709395Y444800D01*
X709347Y444845D01*
X709302Y444893D01*
X709260Y444943D01*
X709221Y444995D01*
X709185Y445049D01*
X709151Y445105D01*
X709121Y445164D01*
X709095Y445223D01*
X709071Y445284D01*
X709052Y445346D01*
X709035Y445410D01*
X709022Y445474D01*
X709013Y445539D01*
X709008Y445604D01*
X709006Y445669D01*
X709006Y447612D01*
X709008Y447689D01*
X709014Y447767D01*
X709023Y447844D01*
X709037Y447920D01*
X709054Y447995D01*
X709075Y448070D01*
X709100Y448143D01*
X709128Y448216D01*
X709160Y448286D01*
X709195Y448355D01*
X709234Y448422D01*
X709276Y448487D01*
X709321Y448550D01*
X709370Y448611D01*
X709421Y448669D01*
X709475Y448724D01*
X709532Y448777D01*
X709591Y448827D01*
X709653Y448874D01*
X709717Y448917D01*
X709783Y448958D01*
X709851Y448995D01*
X709921Y449028D01*
X709992Y449059D01*
X710065Y449085D01*
X710139Y449108D01*
X710214Y449127D01*
X710290Y449142D01*
X710367Y449154D01*
X710444Y449162D01*
X710521Y449166D01*
X710599Y449166D01*
X710676Y449162D01*
X710753Y449154D01*
X710830Y449142D01*
X710906Y449127D01*
X710981Y449108D01*
X711055Y449085D01*
X711128Y449059D01*
X711199Y449028D01*
X711269Y448995D01*
X711337Y448958D01*
X711403Y448917D01*
X711467Y448874D01*
X711529Y448827D01*
X711588Y448777D01*
X711645Y448724D01*
X711699Y448669D01*
X711750Y448611D01*
X711799Y448550D01*
X711844Y448487D01*
X711886Y448422D01*
X711925Y448355D01*
X711960Y448286D01*
X711992Y448216D01*
X712020Y448143D01*
X712045Y448070D01*
X712066Y447995D01*
X712083Y447920D01*
X712097Y447844D01*
X712106Y447767D01*
X712112Y447689D01*
X712114Y447612D01*
X712113Y447612D02*
X712113Y446835D01*
X709006Y446835D01*
X714955Y445669D02*
X714955Y451496D01*
X714955Y445669D02*
X714957Y445604D01*
X714962Y445539D01*
X714971Y445474D01*
X714984Y445410D01*
X715001Y445346D01*
X715020Y445284D01*
X715044Y445223D01*
X715070Y445164D01*
X715100Y445105D01*
X715134Y445049D01*
X715170Y444995D01*
X715209Y444943D01*
X715251Y444893D01*
X715296Y444845D01*
X715344Y444800D01*
X715394Y444758D01*
X715446Y444719D01*
X715500Y444683D01*
X715556Y444649D01*
X715615Y444619D01*
X715674Y444593D01*
X715735Y444569D01*
X715797Y444550D01*
X715861Y444533D01*
X715925Y444520D01*
X715990Y444511D01*
X716055Y444506D01*
X716120Y444504D01*
X718231Y442173D02*
X719008Y442173D01*
X721338Y449165D01*
X718231Y449165D02*
X719785Y444504D01*
X730461Y448388D02*
X731627Y448388D01*
X731627Y444504D01*
X729296Y444504D01*
X729220Y444506D01*
X729144Y444511D01*
X729068Y444521D01*
X728993Y444534D01*
X728918Y444551D01*
X728845Y444571D01*
X728772Y444595D01*
X728701Y444622D01*
X728632Y444653D01*
X728563Y444687D01*
X728497Y444725D01*
X728433Y444766D01*
X728370Y444810D01*
X728310Y444857D01*
X728252Y444907D01*
X728197Y444959D01*
X728145Y445014D01*
X728095Y445072D01*
X728048Y445132D01*
X728004Y445195D01*
X727963Y445259D01*
X727925Y445325D01*
X727891Y445394D01*
X727860Y445463D01*
X727833Y445534D01*
X727809Y445607D01*
X727789Y445680D01*
X727772Y445755D01*
X727759Y445830D01*
X727749Y445906D01*
X727744Y445982D01*
X727742Y446058D01*
X727742Y449942D01*
X727744Y450021D01*
X727750Y450099D01*
X727760Y450177D01*
X727774Y450255D01*
X727792Y450332D01*
X727813Y450407D01*
X727839Y450482D01*
X727868Y450555D01*
X727901Y450626D01*
X727937Y450696D01*
X727977Y450764D01*
X728021Y450830D01*
X728067Y450893D01*
X728117Y450954D01*
X728170Y451013D01*
X728225Y451068D01*
X728284Y451121D01*
X728345Y451171D01*
X728408Y451217D01*
X728474Y451261D01*
X728542Y451301D01*
X728612Y451337D01*
X728683Y451370D01*
X728756Y451399D01*
X728831Y451425D01*
X728906Y451446D01*
X728983Y451464D01*
X729061Y451478D01*
X729139Y451488D01*
X729217Y451494D01*
X729296Y451496D01*
X731627Y451496D01*
X736660Y451496D02*
X734329Y444504D01*
X738990Y444504D02*
X736660Y451496D01*
X738408Y446252D02*
X734912Y446252D01*
X741705Y444504D02*
X741705Y451496D01*
X741705Y444504D02*
X744812Y444504D01*
X749260Y444504D02*
X746929Y451496D01*
X751590Y451496D02*
X749260Y444504D01*
X754305Y444504D02*
X757412Y444504D01*
X754305Y444504D02*
X754305Y451496D01*
X757412Y451496D01*
X756635Y448388D02*
X754305Y448388D01*
X759692Y451496D02*
X763577Y451496D01*
X759692Y444504D01*
X763577Y444504D01*
X705138Y438498D02*
X705136Y438579D01*
X705131Y438659D01*
X705121Y438739D01*
X705108Y438819D01*
X705092Y438898D01*
X705071Y438976D01*
X705047Y439053D01*
X705020Y439129D01*
X704989Y439204D01*
X704955Y439277D01*
X704917Y439349D01*
X704876Y439418D01*
X704832Y439486D01*
X704785Y439551D01*
X704735Y439615D01*
X704682Y439676D01*
X704626Y439734D01*
X704568Y439790D01*
X704507Y439843D01*
X704443Y439893D01*
X704378Y439940D01*
X704310Y439984D01*
X704241Y440025D01*
X704169Y440063D01*
X704096Y440097D01*
X704021Y440128D01*
X703945Y440155D01*
X703868Y440179D01*
X703790Y440200D01*
X703711Y440216D01*
X703631Y440229D01*
X703551Y440239D01*
X703471Y440244D01*
X703390Y440246D01*
X703296Y440244D01*
X703202Y440238D01*
X703108Y440228D01*
X703015Y440214D01*
X702923Y440197D01*
X702831Y440175D01*
X702740Y440150D01*
X702651Y440121D01*
X702563Y440088D01*
X702476Y440052D01*
X702391Y440011D01*
X702307Y439968D01*
X702226Y439921D01*
X702146Y439870D01*
X702069Y439816D01*
X701994Y439759D01*
X701921Y439699D01*
X701852Y439636D01*
X701784Y439570D01*
X701720Y439502D01*
X701658Y439430D01*
X701600Y439357D01*
X701545Y439280D01*
X701493Y439202D01*
X701444Y439121D01*
X701399Y439039D01*
X701357Y438955D01*
X701319Y438869D01*
X701284Y438781D01*
X701253Y438692D01*
X704555Y437139D02*
X704615Y437198D01*
X704672Y437261D01*
X704727Y437325D01*
X704778Y437392D01*
X704826Y437462D01*
X704871Y437533D01*
X704913Y437607D01*
X704951Y437682D01*
X704986Y437759D01*
X705018Y437837D01*
X705046Y437917D01*
X705070Y437997D01*
X705091Y438079D01*
X705108Y438162D01*
X705121Y438245D01*
X705130Y438329D01*
X705136Y438414D01*
X705138Y438498D01*
X704556Y437138D02*
X701254Y433254D01*
X705138Y433254D01*
X708004Y436750D02*
X708006Y436895D01*
X708011Y437040D01*
X708020Y437185D01*
X708033Y437330D01*
X708050Y437474D01*
X708070Y437618D01*
X708093Y437761D01*
X708121Y437904D01*
X708152Y438046D01*
X708186Y438187D01*
X708224Y438327D01*
X708265Y438466D01*
X708310Y438604D01*
X708359Y438741D01*
X708411Y438877D01*
X708466Y439011D01*
X708525Y439144D01*
X708587Y439275D01*
X708613Y439345D01*
X708642Y439413D01*
X708675Y439479D01*
X708711Y439544D01*
X708751Y439607D01*
X708794Y439668D01*
X708840Y439726D01*
X708889Y439782D01*
X708940Y439835D01*
X708995Y439886D01*
X709051Y439934D01*
X709111Y439978D01*
X709172Y440020D01*
X709236Y440058D01*
X709301Y440093D01*
X709369Y440125D01*
X709437Y440153D01*
X709507Y440177D01*
X709579Y440198D01*
X709651Y440215D01*
X709724Y440229D01*
X709798Y440238D01*
X709872Y440244D01*
X709946Y440246D01*
X710020Y440244D01*
X710094Y440238D01*
X710168Y440229D01*
X710241Y440215D01*
X710313Y440198D01*
X710385Y440177D01*
X710455Y440153D01*
X710523Y440125D01*
X710591Y440093D01*
X710656Y440058D01*
X710720Y440020D01*
X710781Y439978D01*
X710841Y439934D01*
X710897Y439886D01*
X710952Y439835D01*
X711004Y439782D01*
X711052Y439726D01*
X711098Y439668D01*
X711141Y439607D01*
X711181Y439544D01*
X711217Y439479D01*
X711250Y439413D01*
X711279Y439345D01*
X711305Y439275D01*
X711306Y439275D02*
X711368Y439144D01*
X711427Y439011D01*
X711482Y438877D01*
X711534Y438741D01*
X711583Y438604D01*
X711628Y438466D01*
X711669Y438327D01*
X711707Y438187D01*
X711741Y438046D01*
X711772Y437904D01*
X711800Y437761D01*
X711823Y437618D01*
X711843Y437474D01*
X711860Y437330D01*
X711873Y437185D01*
X711882Y437040D01*
X711887Y436895D01*
X711889Y436750D01*
X708004Y436750D02*
X708006Y436605D01*
X708011Y436460D01*
X708020Y436315D01*
X708033Y436170D01*
X708050Y436026D01*
X708070Y435882D01*
X708093Y435739D01*
X708121Y435596D01*
X708152Y435454D01*
X708186Y435313D01*
X708224Y435173D01*
X708265Y435034D01*
X708310Y434896D01*
X708359Y434759D01*
X708411Y434624D01*
X708466Y434489D01*
X708525Y434356D01*
X708587Y434225D01*
X708613Y434155D01*
X708642Y434087D01*
X708675Y434021D01*
X708711Y433956D01*
X708751Y433893D01*
X708794Y433832D01*
X708840Y433774D01*
X708889Y433718D01*
X708940Y433665D01*
X708995Y433614D01*
X709051Y433566D01*
X709111Y433522D01*
X709172Y433480D01*
X709236Y433442D01*
X709301Y433407D01*
X709369Y433375D01*
X709437Y433347D01*
X709507Y433323D01*
X709579Y433302D01*
X709651Y433285D01*
X709724Y433271D01*
X709798Y433262D01*
X709872Y433256D01*
X709946Y433254D01*
X711306Y434225D02*
X711368Y434356D01*
X711427Y434489D01*
X711482Y434623D01*
X711534Y434759D01*
X711583Y434896D01*
X711628Y435034D01*
X711669Y435173D01*
X711707Y435313D01*
X711741Y435454D01*
X711772Y435596D01*
X711800Y435739D01*
X711823Y435882D01*
X711843Y436026D01*
X711860Y436170D01*
X711873Y436315D01*
X711882Y436460D01*
X711887Y436605D01*
X711889Y436750D01*
X711305Y434225D02*
X711279Y434155D01*
X711250Y434087D01*
X711217Y434021D01*
X711181Y433956D01*
X711141Y433893D01*
X711098Y433832D01*
X711052Y433774D01*
X711004Y433718D01*
X710952Y433665D01*
X710897Y433614D01*
X710841Y433566D01*
X710781Y433522D01*
X710720Y433480D01*
X710656Y433442D01*
X710591Y433407D01*
X710523Y433375D01*
X710455Y433347D01*
X710385Y433323D01*
X710313Y433302D01*
X710241Y433285D01*
X710168Y433271D01*
X710094Y433262D01*
X710020Y433256D01*
X709946Y433254D01*
X708392Y434808D02*
X711500Y438692D01*
X716890Y440246D02*
X716971Y440244D01*
X717051Y440239D01*
X717131Y440229D01*
X717211Y440216D01*
X717290Y440200D01*
X717368Y440179D01*
X717445Y440155D01*
X717521Y440128D01*
X717596Y440097D01*
X717669Y440063D01*
X717741Y440025D01*
X717810Y439984D01*
X717878Y439940D01*
X717943Y439893D01*
X718007Y439843D01*
X718068Y439790D01*
X718126Y439734D01*
X718182Y439676D01*
X718235Y439615D01*
X718285Y439551D01*
X718332Y439486D01*
X718376Y439418D01*
X718417Y439349D01*
X718455Y439277D01*
X718489Y439204D01*
X718520Y439129D01*
X718547Y439053D01*
X718571Y438976D01*
X718592Y438898D01*
X718608Y438819D01*
X718621Y438739D01*
X718631Y438659D01*
X718636Y438579D01*
X718638Y438498D01*
X716890Y440246D02*
X716796Y440244D01*
X716702Y440238D01*
X716608Y440228D01*
X716515Y440214D01*
X716423Y440197D01*
X716331Y440175D01*
X716240Y440150D01*
X716151Y440121D01*
X716063Y440088D01*
X715976Y440052D01*
X715891Y440011D01*
X715807Y439968D01*
X715726Y439921D01*
X715646Y439870D01*
X715569Y439816D01*
X715494Y439759D01*
X715421Y439699D01*
X715352Y439636D01*
X715284Y439570D01*
X715220Y439502D01*
X715158Y439430D01*
X715100Y439357D01*
X715045Y439280D01*
X714993Y439202D01*
X714944Y439121D01*
X714899Y439039D01*
X714857Y438955D01*
X714819Y438869D01*
X714784Y438781D01*
X714753Y438692D01*
X718055Y437139D02*
X718115Y437198D01*
X718172Y437261D01*
X718227Y437325D01*
X718278Y437392D01*
X718326Y437462D01*
X718371Y437533D01*
X718413Y437607D01*
X718451Y437682D01*
X718486Y437759D01*
X718518Y437837D01*
X718546Y437917D01*
X718570Y437997D01*
X718591Y438079D01*
X718608Y438162D01*
X718621Y438245D01*
X718630Y438329D01*
X718636Y438414D01*
X718638Y438498D01*
X718056Y437138D02*
X714754Y433254D01*
X718638Y433254D01*
X721504Y437138D02*
X723835Y437138D01*
X723835Y437139D02*
X723911Y437137D01*
X723987Y437132D01*
X724063Y437122D01*
X724138Y437109D01*
X724213Y437092D01*
X724286Y437072D01*
X724359Y437048D01*
X724430Y437021D01*
X724499Y436990D01*
X724568Y436956D01*
X724634Y436918D01*
X724698Y436877D01*
X724761Y436833D01*
X724821Y436786D01*
X724879Y436736D01*
X724934Y436684D01*
X724986Y436629D01*
X725036Y436571D01*
X725083Y436511D01*
X725127Y436448D01*
X725168Y436384D01*
X725206Y436318D01*
X725240Y436249D01*
X725271Y436180D01*
X725298Y436109D01*
X725322Y436036D01*
X725342Y435963D01*
X725359Y435888D01*
X725372Y435813D01*
X725382Y435737D01*
X725387Y435661D01*
X725389Y435585D01*
X725388Y435585D02*
X725388Y435196D01*
X725386Y435109D01*
X725380Y435022D01*
X725370Y434935D01*
X725357Y434849D01*
X725339Y434764D01*
X725318Y434679D01*
X725293Y434596D01*
X725264Y434514D01*
X725232Y434433D01*
X725196Y434353D01*
X725156Y434276D01*
X725113Y434200D01*
X725067Y434126D01*
X725017Y434055D01*
X724964Y433985D01*
X724908Y433918D01*
X724850Y433854D01*
X724788Y433792D01*
X724724Y433734D01*
X724657Y433678D01*
X724587Y433625D01*
X724516Y433575D01*
X724442Y433529D01*
X724366Y433486D01*
X724289Y433446D01*
X724209Y433410D01*
X724128Y433378D01*
X724046Y433349D01*
X723963Y433324D01*
X723878Y433303D01*
X723793Y433285D01*
X723707Y433272D01*
X723620Y433262D01*
X723533Y433256D01*
X723446Y433254D01*
X723359Y433256D01*
X723272Y433262D01*
X723185Y433272D01*
X723099Y433285D01*
X723014Y433303D01*
X722929Y433324D01*
X722846Y433349D01*
X722764Y433378D01*
X722683Y433410D01*
X722603Y433446D01*
X722526Y433486D01*
X722450Y433529D01*
X722376Y433575D01*
X722305Y433625D01*
X722235Y433678D01*
X722168Y433734D01*
X722104Y433792D01*
X722042Y433854D01*
X721984Y433918D01*
X721928Y433985D01*
X721875Y434055D01*
X721825Y434126D01*
X721779Y434200D01*
X721736Y434276D01*
X721696Y434353D01*
X721660Y434433D01*
X721628Y434514D01*
X721599Y434596D01*
X721574Y434679D01*
X721553Y434764D01*
X721535Y434849D01*
X721522Y434935D01*
X721512Y435022D01*
X721506Y435109D01*
X721504Y435196D01*
X721504Y437138D01*
X721506Y437249D01*
X721512Y437360D01*
X721522Y437470D01*
X721536Y437580D01*
X721553Y437690D01*
X721575Y437799D01*
X721601Y437907D01*
X721630Y438014D01*
X721663Y438119D01*
X721700Y438224D01*
X721741Y438327D01*
X721785Y438429D01*
X721833Y438529D01*
X721884Y438627D01*
X721939Y438724D01*
X721997Y438818D01*
X722059Y438911D01*
X722124Y439001D01*
X722192Y439088D01*
X722263Y439173D01*
X722337Y439256D01*
X722414Y439336D01*
X722494Y439413D01*
X722577Y439487D01*
X722662Y439558D01*
X722749Y439626D01*
X722839Y439691D01*
X722932Y439753D01*
X723026Y439811D01*
X723122Y439866D01*
X723221Y439917D01*
X723321Y439965D01*
X723423Y440009D01*
X723526Y440050D01*
X723630Y440087D01*
X723736Y440120D01*
X723843Y440149D01*
X723951Y440175D01*
X724060Y440197D01*
X724170Y440214D01*
X724280Y440228D01*
X724390Y440238D01*
X724501Y440244D01*
X724612Y440246D01*
X728316Y435973D02*
X732977Y435973D01*
X735904Y436750D02*
X735906Y436895D01*
X735911Y437040D01*
X735920Y437185D01*
X735933Y437330D01*
X735950Y437474D01*
X735970Y437618D01*
X735993Y437761D01*
X736021Y437904D01*
X736052Y438046D01*
X736086Y438187D01*
X736124Y438327D01*
X736165Y438466D01*
X736210Y438604D01*
X736259Y438741D01*
X736311Y438877D01*
X736366Y439011D01*
X736425Y439144D01*
X736487Y439275D01*
X736513Y439345D01*
X736542Y439413D01*
X736575Y439479D01*
X736611Y439544D01*
X736651Y439607D01*
X736694Y439668D01*
X736740Y439726D01*
X736789Y439782D01*
X736840Y439835D01*
X736895Y439886D01*
X736951Y439934D01*
X737011Y439978D01*
X737072Y440020D01*
X737136Y440058D01*
X737201Y440093D01*
X737269Y440125D01*
X737337Y440153D01*
X737407Y440177D01*
X737479Y440198D01*
X737551Y440215D01*
X737624Y440229D01*
X737698Y440238D01*
X737772Y440244D01*
X737846Y440246D01*
X737920Y440244D01*
X737994Y440238D01*
X738068Y440229D01*
X738141Y440215D01*
X738213Y440198D01*
X738285Y440177D01*
X738355Y440153D01*
X738423Y440125D01*
X738491Y440093D01*
X738556Y440058D01*
X738620Y440020D01*
X738681Y439978D01*
X738741Y439934D01*
X738797Y439886D01*
X738852Y439835D01*
X738904Y439782D01*
X738952Y439726D01*
X738998Y439668D01*
X739041Y439607D01*
X739081Y439544D01*
X739117Y439479D01*
X739150Y439413D01*
X739179Y439345D01*
X739205Y439275D01*
X739206Y439275D02*
X739268Y439144D01*
X739327Y439011D01*
X739382Y438877D01*
X739434Y438741D01*
X739483Y438604D01*
X739528Y438466D01*
X739569Y438327D01*
X739607Y438187D01*
X739641Y438046D01*
X739672Y437904D01*
X739700Y437761D01*
X739723Y437618D01*
X739743Y437474D01*
X739760Y437330D01*
X739773Y437185D01*
X739782Y437040D01*
X739787Y436895D01*
X739789Y436750D01*
X735904Y436750D02*
X735906Y436605D01*
X735911Y436460D01*
X735920Y436315D01*
X735933Y436170D01*
X735950Y436026D01*
X735970Y435882D01*
X735993Y435739D01*
X736021Y435596D01*
X736052Y435454D01*
X736086Y435313D01*
X736124Y435173D01*
X736165Y435034D01*
X736210Y434896D01*
X736259Y434759D01*
X736311Y434624D01*
X736366Y434489D01*
X736425Y434356D01*
X736487Y434225D01*
X736513Y434155D01*
X736542Y434087D01*
X736575Y434021D01*
X736611Y433956D01*
X736651Y433893D01*
X736694Y433832D01*
X736740Y433774D01*
X736789Y433718D01*
X736840Y433665D01*
X736895Y433614D01*
X736951Y433566D01*
X737011Y433522D01*
X737072Y433480D01*
X737136Y433442D01*
X737201Y433407D01*
X737269Y433375D01*
X737337Y433347D01*
X737407Y433323D01*
X737479Y433302D01*
X737551Y433285D01*
X737624Y433271D01*
X737698Y433262D01*
X737772Y433256D01*
X737846Y433254D01*
X739206Y434225D02*
X739268Y434356D01*
X739327Y434489D01*
X739382Y434623D01*
X739434Y434759D01*
X739483Y434896D01*
X739528Y435034D01*
X739569Y435173D01*
X739607Y435313D01*
X739641Y435454D01*
X739672Y435596D01*
X739700Y435739D01*
X739723Y435882D01*
X739743Y436026D01*
X739760Y436170D01*
X739773Y436315D01*
X739782Y436460D01*
X739787Y436605D01*
X739789Y436750D01*
X739205Y434225D02*
X739179Y434155D01*
X739150Y434087D01*
X739117Y434021D01*
X739081Y433956D01*
X739041Y433893D01*
X738998Y433832D01*
X738952Y433774D01*
X738904Y433718D01*
X738852Y433665D01*
X738797Y433614D01*
X738741Y433566D01*
X738681Y433522D01*
X738620Y433480D01*
X738556Y433442D01*
X738491Y433407D01*
X738423Y433375D01*
X738355Y433347D01*
X738285Y433323D01*
X738213Y433302D01*
X738141Y433285D01*
X738068Y433271D01*
X737994Y433262D01*
X737920Y433256D01*
X737846Y433254D01*
X736292Y434808D02*
X739400Y438692D01*
X742654Y433254D02*
X744985Y433254D01*
X745064Y433256D01*
X745142Y433262D01*
X745220Y433272D01*
X745298Y433286D01*
X745375Y433304D01*
X745450Y433325D01*
X745525Y433351D01*
X745598Y433380D01*
X745669Y433413D01*
X745739Y433449D01*
X745807Y433489D01*
X745873Y433533D01*
X745936Y433579D01*
X745997Y433629D01*
X746056Y433682D01*
X746111Y433737D01*
X746164Y433796D01*
X746214Y433857D01*
X746260Y433920D01*
X746304Y433986D01*
X746344Y434054D01*
X746380Y434124D01*
X746413Y434195D01*
X746442Y434268D01*
X746468Y434343D01*
X746489Y434418D01*
X746507Y434495D01*
X746521Y434573D01*
X746531Y434651D01*
X746537Y434729D01*
X746539Y434808D01*
X746538Y434808D02*
X746538Y435585D01*
X746539Y435585D02*
X746537Y435661D01*
X746532Y435737D01*
X746522Y435813D01*
X746509Y435888D01*
X746492Y435963D01*
X746472Y436036D01*
X746448Y436109D01*
X746421Y436180D01*
X746390Y436249D01*
X746356Y436318D01*
X746318Y436384D01*
X746277Y436448D01*
X746233Y436511D01*
X746186Y436571D01*
X746136Y436629D01*
X746084Y436684D01*
X746029Y436736D01*
X745971Y436786D01*
X745911Y436833D01*
X745848Y436877D01*
X745784Y436918D01*
X745718Y436956D01*
X745649Y436990D01*
X745580Y437021D01*
X745509Y437048D01*
X745436Y437072D01*
X745363Y437092D01*
X745288Y437109D01*
X745213Y437122D01*
X745137Y437132D01*
X745061Y437137D01*
X744985Y437139D01*
X744985Y437138D02*
X742654Y437138D01*
X742654Y440246D01*
X746538Y440246D01*
X749466Y435973D02*
X754127Y435973D01*
X759190Y440246D02*
X759271Y440244D01*
X759351Y440239D01*
X759431Y440229D01*
X759511Y440216D01*
X759590Y440200D01*
X759668Y440179D01*
X759745Y440155D01*
X759821Y440128D01*
X759896Y440097D01*
X759969Y440063D01*
X760041Y440025D01*
X760110Y439984D01*
X760178Y439940D01*
X760243Y439893D01*
X760307Y439843D01*
X760368Y439790D01*
X760426Y439734D01*
X760482Y439676D01*
X760535Y439615D01*
X760585Y439551D01*
X760632Y439486D01*
X760676Y439418D01*
X760717Y439349D01*
X760755Y439277D01*
X760789Y439204D01*
X760820Y439129D01*
X760847Y439053D01*
X760871Y438976D01*
X760892Y438898D01*
X760908Y438819D01*
X760921Y438739D01*
X760931Y438659D01*
X760936Y438579D01*
X760938Y438498D01*
X759190Y440246D02*
X759096Y440244D01*
X759002Y440238D01*
X758908Y440228D01*
X758815Y440214D01*
X758723Y440197D01*
X758631Y440175D01*
X758540Y440150D01*
X758451Y440121D01*
X758363Y440088D01*
X758276Y440052D01*
X758191Y440011D01*
X758107Y439968D01*
X758026Y439921D01*
X757946Y439870D01*
X757869Y439816D01*
X757794Y439759D01*
X757721Y439699D01*
X757652Y439636D01*
X757584Y439570D01*
X757520Y439502D01*
X757458Y439430D01*
X757400Y439357D01*
X757345Y439280D01*
X757293Y439202D01*
X757244Y439121D01*
X757199Y439039D01*
X757157Y438955D01*
X757119Y438869D01*
X757084Y438781D01*
X757053Y438692D01*
X760355Y437139D02*
X760415Y437198D01*
X760472Y437261D01*
X760527Y437325D01*
X760578Y437392D01*
X760626Y437462D01*
X760671Y437533D01*
X760713Y437607D01*
X760751Y437682D01*
X760786Y437759D01*
X760818Y437837D01*
X760846Y437917D01*
X760870Y437997D01*
X760891Y438079D01*
X760908Y438162D01*
X760921Y438245D01*
X760930Y438329D01*
X760936Y438414D01*
X760938Y438498D01*
X760356Y437138D02*
X757054Y433254D01*
X760938Y433254D01*
X763804Y433254D02*
X766135Y433254D01*
X766214Y433256D01*
X766292Y433262D01*
X766370Y433272D01*
X766448Y433286D01*
X766525Y433304D01*
X766600Y433325D01*
X766675Y433351D01*
X766748Y433380D01*
X766819Y433413D01*
X766889Y433449D01*
X766957Y433489D01*
X767023Y433533D01*
X767086Y433579D01*
X767147Y433629D01*
X767206Y433682D01*
X767261Y433737D01*
X767314Y433796D01*
X767364Y433857D01*
X767410Y433920D01*
X767454Y433986D01*
X767494Y434054D01*
X767530Y434124D01*
X767563Y434195D01*
X767592Y434268D01*
X767618Y434343D01*
X767639Y434418D01*
X767657Y434495D01*
X767671Y434573D01*
X767681Y434651D01*
X767687Y434729D01*
X767689Y434808D01*
X767688Y434808D02*
X767688Y435585D01*
X767689Y435585D02*
X767687Y435661D01*
X767682Y435737D01*
X767672Y435813D01*
X767659Y435888D01*
X767642Y435963D01*
X767622Y436036D01*
X767598Y436109D01*
X767571Y436180D01*
X767540Y436249D01*
X767506Y436318D01*
X767468Y436384D01*
X767427Y436448D01*
X767383Y436511D01*
X767336Y436571D01*
X767286Y436629D01*
X767234Y436684D01*
X767179Y436736D01*
X767121Y436786D01*
X767061Y436833D01*
X766998Y436877D01*
X766934Y436918D01*
X766868Y436956D01*
X766799Y436990D01*
X766730Y437021D01*
X766659Y437048D01*
X766586Y437072D01*
X766513Y437092D01*
X766438Y437109D01*
X766363Y437122D01*
X766287Y437132D01*
X766211Y437137D01*
X766135Y437139D01*
X766135Y437138D02*
X763804Y437138D01*
X763804Y440246D01*
X767688Y440246D01*
D12*
X886200Y620700D02*
X894200Y620700D01*
D13*
X889796Y636978D02*
X888911Y636978D01*
X888853Y636980D01*
X888795Y636986D01*
X888738Y636995D01*
X888682Y637008D01*
X888627Y637025D01*
X888572Y637045D01*
X888520Y637069D01*
X888469Y637097D01*
X888419Y637127D01*
X888372Y637161D01*
X888327Y637198D01*
X888285Y637237D01*
X888246Y637279D01*
X888209Y637324D01*
X888175Y637371D01*
X888145Y637421D01*
X888117Y637472D01*
X888093Y637524D01*
X888073Y637579D01*
X888056Y637634D01*
X888043Y637690D01*
X888034Y637747D01*
X888028Y637805D01*
X888026Y637863D01*
X888026Y640077D01*
X888028Y640135D01*
X888034Y640193D01*
X888043Y640250D01*
X888056Y640306D01*
X888073Y640361D01*
X888093Y640416D01*
X888117Y640468D01*
X888145Y640519D01*
X888175Y640569D01*
X888209Y640616D01*
X888246Y640661D01*
X888285Y640703D01*
X888327Y640742D01*
X888372Y640779D01*
X888419Y640813D01*
X888468Y640843D01*
X888520Y640871D01*
X888572Y640895D01*
X888627Y640915D01*
X888682Y640932D01*
X888738Y640945D01*
X888795Y640954D01*
X888853Y640960D01*
X888911Y640962D01*
X889796Y640962D01*
X891799Y640077D02*
X892905Y640962D01*
X892905Y636978D01*
X891799Y636978D02*
X894012Y636978D01*
D12*
X901800Y620100D02*
X909800Y620100D01*
D13*
X904959Y637038D02*
X904073Y637038D01*
X904015Y637040D01*
X903957Y637046D01*
X903900Y637055D01*
X903844Y637068D01*
X903789Y637085D01*
X903734Y637105D01*
X903682Y637129D01*
X903631Y637157D01*
X903581Y637187D01*
X903534Y637221D01*
X903489Y637258D01*
X903447Y637297D01*
X903408Y637339D01*
X903371Y637384D01*
X903337Y637431D01*
X903307Y637481D01*
X903279Y637532D01*
X903255Y637584D01*
X903235Y637639D01*
X903218Y637694D01*
X903205Y637750D01*
X903196Y637807D01*
X903190Y637865D01*
X903188Y637923D01*
X903188Y640137D01*
X903190Y640195D01*
X903196Y640253D01*
X903205Y640310D01*
X903218Y640366D01*
X903235Y640421D01*
X903255Y640476D01*
X903279Y640528D01*
X903307Y640579D01*
X903337Y640629D01*
X903371Y640676D01*
X903408Y640721D01*
X903447Y640763D01*
X903489Y640802D01*
X903534Y640839D01*
X903581Y640873D01*
X903630Y640903D01*
X903682Y640931D01*
X903734Y640955D01*
X903789Y640975D01*
X903844Y640992D01*
X903900Y641005D01*
X903957Y641014D01*
X904015Y641020D01*
X904073Y641022D01*
X904959Y641022D01*
X908178Y641022D02*
X908238Y641020D01*
X908298Y641015D01*
X908358Y641006D01*
X908416Y640993D01*
X908474Y640977D01*
X908531Y640957D01*
X908587Y640934D01*
X908641Y640908D01*
X908693Y640878D01*
X908744Y640846D01*
X908792Y640810D01*
X908838Y640772D01*
X908882Y640730D01*
X908924Y640686D01*
X908962Y640640D01*
X908998Y640592D01*
X909030Y640541D01*
X909060Y640489D01*
X909086Y640435D01*
X909109Y640379D01*
X909129Y640322D01*
X909145Y640264D01*
X909158Y640206D01*
X909167Y640146D01*
X909172Y640086D01*
X909174Y640026D01*
X908178Y641022D02*
X908108Y641020D01*
X908038Y641014D01*
X907969Y641005D01*
X907900Y640992D01*
X907832Y640974D01*
X907766Y640954D01*
X907700Y640929D01*
X907636Y640901D01*
X907573Y640870D01*
X907512Y640835D01*
X907454Y640797D01*
X907397Y640756D01*
X907343Y640712D01*
X907291Y640665D01*
X907242Y640615D01*
X907196Y640563D01*
X907152Y640508D01*
X907112Y640450D01*
X907075Y640391D01*
X907041Y640330D01*
X907011Y640267D01*
X906984Y640202D01*
X906960Y640136D01*
X908843Y639251D02*
X908886Y639295D01*
X908927Y639342D01*
X908966Y639390D01*
X909001Y639441D01*
X909033Y639494D01*
X909062Y639548D01*
X909088Y639605D01*
X909111Y639662D01*
X909131Y639721D01*
X909146Y639781D01*
X909159Y639841D01*
X909168Y639902D01*
X909173Y639964D01*
X909175Y640026D01*
X908842Y639251D02*
X906961Y637038D01*
X909174Y637038D01*
D12*
X779100Y621800D02*
X779100Y613800D01*
D13*
X769159Y605038D02*
X768273Y605038D01*
X768215Y605040D01*
X768157Y605046D01*
X768100Y605055D01*
X768044Y605068D01*
X767989Y605085D01*
X767934Y605105D01*
X767882Y605129D01*
X767831Y605157D01*
X767781Y605187D01*
X767734Y605221D01*
X767689Y605258D01*
X767647Y605297D01*
X767608Y605339D01*
X767571Y605384D01*
X767537Y605431D01*
X767507Y605481D01*
X767479Y605532D01*
X767455Y605584D01*
X767435Y605639D01*
X767418Y605694D01*
X767405Y605750D01*
X767396Y605807D01*
X767390Y605865D01*
X767388Y605923D01*
X767388Y608137D01*
X767390Y608195D01*
X767396Y608253D01*
X767405Y608310D01*
X767418Y608366D01*
X767435Y608421D01*
X767455Y608476D01*
X767479Y608528D01*
X767507Y608579D01*
X767537Y608629D01*
X767571Y608676D01*
X767608Y608721D01*
X767647Y608763D01*
X767689Y608802D01*
X767734Y608839D01*
X767781Y608873D01*
X767830Y608903D01*
X767882Y608931D01*
X767934Y608955D01*
X767989Y608975D01*
X768044Y608992D01*
X768100Y609005D01*
X768157Y609014D01*
X768215Y609020D01*
X768273Y609022D01*
X769159Y609022D01*
X771161Y605038D02*
X772268Y605038D01*
X772334Y605040D01*
X772399Y605046D01*
X772464Y605055D01*
X772528Y605069D01*
X772591Y605086D01*
X772653Y605107D01*
X772714Y605132D01*
X772773Y605160D01*
X772831Y605192D01*
X772886Y605227D01*
X772940Y605265D01*
X772991Y605306D01*
X773039Y605351D01*
X773085Y605398D01*
X773128Y605447D01*
X773167Y605500D01*
X773204Y605554D01*
X773237Y605611D01*
X773267Y605669D01*
X773294Y605729D01*
X773317Y605790D01*
X773336Y605853D01*
X773351Y605917D01*
X773363Y605982D01*
X773371Y606047D01*
X773375Y606112D01*
X773375Y606178D01*
X773371Y606243D01*
X773363Y606308D01*
X773351Y606373D01*
X773336Y606437D01*
X773317Y606500D01*
X773294Y606561D01*
X773267Y606621D01*
X773237Y606679D01*
X773204Y606736D01*
X773167Y606790D01*
X773128Y606843D01*
X773085Y606892D01*
X773039Y606939D01*
X772991Y606984D01*
X772940Y607025D01*
X772886Y607063D01*
X772831Y607098D01*
X772773Y607130D01*
X772714Y607158D01*
X772653Y607183D01*
X772591Y607204D01*
X772528Y607221D01*
X772464Y607235D01*
X772399Y607244D01*
X772334Y607250D01*
X772268Y607252D01*
X772489Y609022D02*
X771161Y609022D01*
X772489Y609022D02*
X772547Y609020D01*
X772605Y609014D01*
X772662Y609005D01*
X772718Y608992D01*
X772773Y608975D01*
X772828Y608955D01*
X772880Y608931D01*
X772932Y608903D01*
X772981Y608873D01*
X773028Y608839D01*
X773073Y608802D01*
X773115Y608763D01*
X773154Y608721D01*
X773191Y608676D01*
X773225Y608629D01*
X773255Y608580D01*
X773283Y608528D01*
X773307Y608476D01*
X773327Y608421D01*
X773344Y608366D01*
X773357Y608310D01*
X773366Y608253D01*
X773372Y608195D01*
X773374Y608137D01*
X773372Y608079D01*
X773366Y608021D01*
X773357Y607964D01*
X773344Y607908D01*
X773327Y607853D01*
X773307Y607798D01*
X773283Y607746D01*
X773255Y607695D01*
X773225Y607645D01*
X773191Y607598D01*
X773154Y607553D01*
X773115Y607511D01*
X773073Y607472D01*
X773028Y607435D01*
X772981Y607401D01*
X772932Y607371D01*
X772880Y607343D01*
X772828Y607319D01*
X772773Y607299D01*
X772718Y607282D01*
X772662Y607269D01*
X772605Y607260D01*
X772547Y607254D01*
X772489Y607252D01*
X772489Y607251D02*
X771604Y607251D01*
D12*
X763400Y567380D02*
X763400Y557220D01*
D13*
X754356Y575078D02*
X753471Y575078D01*
X753413Y575080D01*
X753355Y575086D01*
X753298Y575095D01*
X753242Y575108D01*
X753187Y575125D01*
X753132Y575145D01*
X753080Y575169D01*
X753029Y575197D01*
X752979Y575227D01*
X752932Y575261D01*
X752887Y575298D01*
X752845Y575337D01*
X752806Y575379D01*
X752769Y575424D01*
X752735Y575471D01*
X752705Y575521D01*
X752677Y575572D01*
X752653Y575624D01*
X752633Y575679D01*
X752616Y575734D01*
X752603Y575790D01*
X752594Y575847D01*
X752588Y575905D01*
X752586Y575963D01*
X752586Y578177D01*
X752588Y578235D01*
X752594Y578293D01*
X752603Y578350D01*
X752616Y578406D01*
X752633Y578461D01*
X752653Y578516D01*
X752677Y578568D01*
X752705Y578619D01*
X752735Y578669D01*
X752769Y578716D01*
X752806Y578761D01*
X752845Y578803D01*
X752887Y578842D01*
X752932Y578879D01*
X752979Y578913D01*
X753028Y578943D01*
X753080Y578971D01*
X753132Y578995D01*
X753187Y579015D01*
X753242Y579032D01*
X753298Y579045D01*
X753355Y579054D01*
X753413Y579060D01*
X753471Y579062D01*
X754356Y579062D01*
X756359Y579062D02*
X756359Y578619D01*
X756359Y579062D02*
X758572Y579062D01*
X757465Y575078D01*
D12*
X780100Y630120D02*
X780100Y640280D01*
D13*
X769056Y645978D02*
X768171Y645978D01*
X768113Y645980D01*
X768055Y645986D01*
X767998Y645995D01*
X767942Y646008D01*
X767887Y646025D01*
X767832Y646045D01*
X767780Y646069D01*
X767729Y646097D01*
X767679Y646127D01*
X767632Y646161D01*
X767587Y646198D01*
X767545Y646237D01*
X767506Y646279D01*
X767469Y646324D01*
X767435Y646371D01*
X767405Y646421D01*
X767377Y646472D01*
X767353Y646524D01*
X767333Y646579D01*
X767316Y646634D01*
X767303Y646690D01*
X767294Y646747D01*
X767288Y646805D01*
X767286Y646863D01*
X767286Y649077D01*
X767288Y649135D01*
X767294Y649193D01*
X767303Y649250D01*
X767316Y649306D01*
X767333Y649361D01*
X767353Y649416D01*
X767377Y649468D01*
X767405Y649519D01*
X767435Y649569D01*
X767469Y649616D01*
X767506Y649661D01*
X767545Y649703D01*
X767587Y649742D01*
X767632Y649779D01*
X767679Y649813D01*
X767728Y649843D01*
X767780Y649871D01*
X767832Y649895D01*
X767887Y649915D01*
X767942Y649932D01*
X767998Y649945D01*
X768055Y649954D01*
X768113Y649960D01*
X768171Y649962D01*
X769056Y649962D01*
X771058Y647085D02*
X771060Y647151D01*
X771066Y647216D01*
X771075Y647281D01*
X771089Y647345D01*
X771106Y647408D01*
X771127Y647470D01*
X771152Y647531D01*
X771180Y647590D01*
X771212Y647648D01*
X771247Y647703D01*
X771285Y647757D01*
X771326Y647808D01*
X771371Y647856D01*
X771418Y647902D01*
X771467Y647945D01*
X771520Y647984D01*
X771574Y648021D01*
X771631Y648054D01*
X771689Y648084D01*
X771749Y648111D01*
X771810Y648134D01*
X771873Y648153D01*
X771937Y648168D01*
X772002Y648180D01*
X772067Y648188D01*
X772132Y648192D01*
X772198Y648192D01*
X772263Y648188D01*
X772328Y648180D01*
X772393Y648168D01*
X772457Y648153D01*
X772520Y648134D01*
X772581Y648111D01*
X772641Y648084D01*
X772699Y648054D01*
X772756Y648021D01*
X772810Y647984D01*
X772863Y647945D01*
X772912Y647902D01*
X772959Y647856D01*
X773004Y647808D01*
X773045Y647757D01*
X773083Y647703D01*
X773118Y647648D01*
X773150Y647590D01*
X773178Y647531D01*
X773203Y647470D01*
X773224Y647408D01*
X773241Y647345D01*
X773255Y647281D01*
X773264Y647216D01*
X773270Y647151D01*
X773272Y647085D01*
X773270Y647019D01*
X773264Y646954D01*
X773255Y646889D01*
X773241Y646825D01*
X773224Y646762D01*
X773203Y646700D01*
X773178Y646639D01*
X773150Y646580D01*
X773118Y646522D01*
X773083Y646467D01*
X773045Y646413D01*
X773004Y646362D01*
X772959Y646314D01*
X772912Y646268D01*
X772863Y646225D01*
X772810Y646186D01*
X772756Y646149D01*
X772699Y646116D01*
X772641Y646086D01*
X772581Y646059D01*
X772520Y646036D01*
X772457Y646017D01*
X772393Y646002D01*
X772328Y645990D01*
X772263Y645982D01*
X772198Y645978D01*
X772132Y645978D01*
X772067Y645982D01*
X772002Y645990D01*
X771937Y646002D01*
X771873Y646017D01*
X771810Y646036D01*
X771749Y646059D01*
X771689Y646086D01*
X771631Y646116D01*
X771574Y646149D01*
X771520Y646186D01*
X771467Y646225D01*
X771418Y646268D01*
X771371Y646314D01*
X771326Y646362D01*
X771285Y646413D01*
X771247Y646467D01*
X771212Y646522D01*
X771180Y646580D01*
X771152Y646639D01*
X771127Y646700D01*
X771106Y646762D01*
X771089Y646825D01*
X771075Y646889D01*
X771066Y646954D01*
X771060Y647019D01*
X771058Y647085D01*
X771280Y649077D02*
X771282Y649135D01*
X771288Y649193D01*
X771297Y649250D01*
X771310Y649306D01*
X771327Y649361D01*
X771347Y649416D01*
X771371Y649468D01*
X771399Y649520D01*
X771429Y649569D01*
X771463Y649616D01*
X771500Y649661D01*
X771539Y649703D01*
X771581Y649742D01*
X771626Y649779D01*
X771673Y649813D01*
X771723Y649843D01*
X771774Y649871D01*
X771826Y649895D01*
X771881Y649915D01*
X771936Y649932D01*
X771992Y649945D01*
X772049Y649954D01*
X772107Y649960D01*
X772165Y649962D01*
X772223Y649960D01*
X772281Y649954D01*
X772338Y649945D01*
X772394Y649932D01*
X772449Y649915D01*
X772504Y649895D01*
X772556Y649871D01*
X772608Y649843D01*
X772657Y649813D01*
X772704Y649779D01*
X772749Y649742D01*
X772791Y649703D01*
X772830Y649661D01*
X772867Y649616D01*
X772901Y649569D01*
X772931Y649520D01*
X772959Y649468D01*
X772983Y649416D01*
X773003Y649361D01*
X773020Y649306D01*
X773033Y649250D01*
X773042Y649193D01*
X773048Y649135D01*
X773050Y649077D01*
X773048Y649019D01*
X773042Y648961D01*
X773033Y648904D01*
X773020Y648848D01*
X773003Y648793D01*
X772983Y648738D01*
X772959Y648686D01*
X772931Y648635D01*
X772901Y648585D01*
X772867Y648538D01*
X772830Y648493D01*
X772791Y648451D01*
X772749Y648412D01*
X772704Y648375D01*
X772657Y648341D01*
X772608Y648311D01*
X772556Y648283D01*
X772504Y648259D01*
X772449Y648239D01*
X772394Y648222D01*
X772338Y648209D01*
X772281Y648200D01*
X772223Y648194D01*
X772165Y648192D01*
X772107Y648194D01*
X772049Y648200D01*
X771992Y648209D01*
X771936Y648222D01*
X771881Y648239D01*
X771826Y648259D01*
X771774Y648283D01*
X771723Y648311D01*
X771673Y648341D01*
X771626Y648375D01*
X771581Y648412D01*
X771539Y648451D01*
X771500Y648493D01*
X771463Y648538D01*
X771429Y648585D01*
X771399Y648635D01*
X771371Y648686D01*
X771347Y648738D01*
X771327Y648793D01*
X771310Y648848D01*
X771297Y648904D01*
X771288Y648961D01*
X771282Y649019D01*
X771280Y649077D01*
D12*
X867300Y650800D02*
X867300Y642800D01*
D13*
X855196Y653978D02*
X854311Y653978D01*
X854253Y653980D01*
X854195Y653986D01*
X854138Y653995D01*
X854082Y654008D01*
X854027Y654025D01*
X853972Y654045D01*
X853920Y654069D01*
X853869Y654097D01*
X853819Y654127D01*
X853772Y654161D01*
X853727Y654198D01*
X853685Y654237D01*
X853646Y654279D01*
X853609Y654324D01*
X853575Y654371D01*
X853545Y654421D01*
X853517Y654472D01*
X853493Y654524D01*
X853473Y654579D01*
X853456Y654634D01*
X853443Y654690D01*
X853434Y654747D01*
X853428Y654805D01*
X853426Y654863D01*
X853426Y657077D01*
X853428Y657135D01*
X853434Y657193D01*
X853443Y657250D01*
X853456Y657306D01*
X853473Y657361D01*
X853493Y657416D01*
X853517Y657468D01*
X853545Y657519D01*
X853575Y657569D01*
X853609Y657616D01*
X853646Y657661D01*
X853685Y657703D01*
X853727Y657742D01*
X853772Y657779D01*
X853819Y657813D01*
X853868Y657843D01*
X853920Y657871D01*
X853972Y657895D01*
X854027Y657915D01*
X854082Y657932D01*
X854138Y657945D01*
X854195Y657954D01*
X854253Y657960D01*
X854311Y657962D01*
X855196Y657962D01*
X858084Y655749D02*
X859412Y655749D01*
X858084Y655749D02*
X858026Y655751D01*
X857968Y655757D01*
X857911Y655766D01*
X857855Y655779D01*
X857800Y655796D01*
X857745Y655816D01*
X857693Y655840D01*
X857641Y655868D01*
X857592Y655898D01*
X857545Y655932D01*
X857500Y655969D01*
X857458Y656008D01*
X857419Y656050D01*
X857382Y656095D01*
X857348Y656142D01*
X857318Y656192D01*
X857290Y656243D01*
X857266Y656295D01*
X857246Y656350D01*
X857229Y656405D01*
X857216Y656461D01*
X857207Y656519D01*
X857201Y656576D01*
X857199Y656634D01*
X857199Y656855D01*
X857198Y656855D02*
X857200Y656921D01*
X857206Y656986D01*
X857215Y657051D01*
X857229Y657115D01*
X857246Y657178D01*
X857267Y657240D01*
X857292Y657301D01*
X857320Y657360D01*
X857352Y657418D01*
X857387Y657473D01*
X857425Y657527D01*
X857466Y657578D01*
X857511Y657626D01*
X857558Y657672D01*
X857607Y657715D01*
X857660Y657754D01*
X857714Y657791D01*
X857771Y657824D01*
X857829Y657854D01*
X857889Y657881D01*
X857950Y657904D01*
X858013Y657923D01*
X858077Y657938D01*
X858142Y657950D01*
X858207Y657958D01*
X858272Y657962D01*
X858338Y657962D01*
X858403Y657958D01*
X858468Y657950D01*
X858533Y657938D01*
X858597Y657923D01*
X858660Y657904D01*
X858721Y657881D01*
X858781Y657854D01*
X858839Y657824D01*
X858896Y657791D01*
X858950Y657754D01*
X859003Y657715D01*
X859052Y657672D01*
X859099Y657626D01*
X859144Y657578D01*
X859185Y657527D01*
X859223Y657473D01*
X859258Y657418D01*
X859290Y657360D01*
X859318Y657301D01*
X859343Y657240D01*
X859364Y657178D01*
X859381Y657115D01*
X859395Y657051D01*
X859404Y656986D01*
X859410Y656921D01*
X859412Y656855D01*
X859412Y655749D01*
X859410Y655667D01*
X859404Y655586D01*
X859395Y655504D01*
X859382Y655424D01*
X859365Y655344D01*
X859344Y655264D01*
X859320Y655186D01*
X859292Y655109D01*
X859261Y655034D01*
X859226Y654960D01*
X859188Y654887D01*
X859147Y654817D01*
X859102Y654748D01*
X859054Y654682D01*
X859003Y654618D01*
X858950Y654556D01*
X858893Y654497D01*
X858834Y654440D01*
X858772Y654387D01*
X858708Y654336D01*
X858642Y654288D01*
X858573Y654243D01*
X858503Y654202D01*
X858430Y654164D01*
X858356Y654129D01*
X858281Y654098D01*
X858204Y654070D01*
X858126Y654046D01*
X858046Y654025D01*
X857966Y654008D01*
X857886Y653995D01*
X857804Y653986D01*
X857723Y653980D01*
X857641Y653978D01*
D14*
X863300Y432800D02*
X818300Y432800D01*
X800800Y467800D02*
X800800Y507800D01*
X809300Y507800D01*
X809300Y482800D01*
X823300Y482800D01*
X858300Y482800D02*
X872300Y482800D01*
X872300Y507800D01*
X880800Y507800D01*
X880800Y467800D01*
D15*
X817051Y515265D02*
X808754Y515265D01*
X812902Y511116D02*
X812902Y519414D01*
X865904Y515265D02*
X874201Y515265D01*
D11*
X836882Y457954D02*
X835884Y457954D01*
X835824Y457956D01*
X835764Y457961D01*
X835704Y457970D01*
X835645Y457983D01*
X835587Y457999D01*
X835530Y458019D01*
X835474Y458042D01*
X835420Y458068D01*
X835368Y458098D01*
X835317Y458131D01*
X835269Y458166D01*
X835222Y458205D01*
X835178Y458246D01*
X835137Y458290D01*
X835098Y458337D01*
X835063Y458385D01*
X835030Y458436D01*
X835000Y458488D01*
X834974Y458542D01*
X834951Y458598D01*
X834931Y458655D01*
X834915Y458713D01*
X834902Y458772D01*
X834893Y458832D01*
X834888Y458892D01*
X834886Y458952D01*
X834886Y461448D01*
X834888Y461511D01*
X834894Y461573D01*
X834904Y461635D01*
X834917Y461696D01*
X834935Y461756D01*
X834956Y461815D01*
X834981Y461873D01*
X835009Y461929D01*
X835041Y461983D01*
X835077Y462035D01*
X835115Y462084D01*
X835156Y462131D01*
X835201Y462175D01*
X835248Y462217D01*
X835297Y462255D01*
X835349Y462291D01*
X835403Y462323D01*
X835459Y462351D01*
X835517Y462376D01*
X835576Y462397D01*
X835636Y462415D01*
X835697Y462428D01*
X835759Y462438D01*
X835821Y462444D01*
X835884Y462446D01*
X836882Y462446D01*
X838801Y462446D02*
X838801Y457954D01*
X841296Y457954D02*
X838801Y462446D01*
X841296Y462446D02*
X841296Y457954D01*
X843450Y461448D02*
X844698Y462446D01*
X844698Y457954D01*
X843450Y457954D02*
X845946Y457954D01*
D14*
X703800Y509800D02*
X703800Y554800D01*
X738800Y572300D02*
X778800Y572300D01*
X778800Y563800D01*
X753800Y563800D01*
X753800Y549800D01*
X753800Y514800D02*
X753800Y500800D01*
X778800Y500800D01*
X778800Y492300D01*
X738800Y492300D01*
D15*
X789031Y556049D02*
X789031Y564346D01*
X793180Y560198D02*
X784882Y560198D01*
X789031Y507196D02*
X789031Y498899D01*
D11*
X733446Y529152D02*
X733446Y530150D01*
X733446Y529152D02*
X733444Y529089D01*
X733438Y529027D01*
X733428Y528965D01*
X733415Y528904D01*
X733397Y528844D01*
X733376Y528785D01*
X733351Y528727D01*
X733323Y528671D01*
X733291Y528617D01*
X733255Y528565D01*
X733217Y528516D01*
X733176Y528469D01*
X733131Y528425D01*
X733084Y528383D01*
X733035Y528345D01*
X732983Y528309D01*
X732929Y528277D01*
X732873Y528249D01*
X732815Y528224D01*
X732756Y528203D01*
X732696Y528185D01*
X732635Y528172D01*
X732573Y528162D01*
X732511Y528156D01*
X732448Y528154D01*
X729952Y528154D01*
X729889Y528156D01*
X729827Y528162D01*
X729765Y528172D01*
X729704Y528185D01*
X729644Y528203D01*
X729585Y528224D01*
X729527Y528249D01*
X729471Y528277D01*
X729417Y528309D01*
X729365Y528345D01*
X729316Y528383D01*
X729269Y528424D01*
X729225Y528469D01*
X729183Y528516D01*
X729145Y528565D01*
X729109Y528617D01*
X729077Y528671D01*
X729049Y528727D01*
X729024Y528785D01*
X729003Y528844D01*
X728985Y528904D01*
X728972Y528965D01*
X728962Y529027D01*
X728956Y529089D01*
X728954Y529152D01*
X728954Y530150D01*
X728954Y532069D02*
X733446Y532069D01*
X733446Y534564D02*
X728954Y532069D01*
X728954Y534564D02*
X733446Y534564D01*
X728954Y538091D02*
X728956Y538156D01*
X728962Y538221D01*
X728971Y538286D01*
X728984Y538350D01*
X729001Y538413D01*
X729022Y538475D01*
X729046Y538536D01*
X729073Y538595D01*
X729104Y538653D01*
X729139Y538708D01*
X729176Y538762D01*
X729217Y538813D01*
X729260Y538862D01*
X729306Y538908D01*
X729355Y538951D01*
X729406Y538992D01*
X729460Y539029D01*
X729516Y539064D01*
X729573Y539095D01*
X729632Y539122D01*
X729693Y539146D01*
X729755Y539167D01*
X729818Y539184D01*
X729882Y539197D01*
X729947Y539206D01*
X730012Y539212D01*
X730077Y539214D01*
X728954Y538091D02*
X728956Y538018D01*
X728961Y537946D01*
X728970Y537874D01*
X728983Y537803D01*
X728999Y537732D01*
X729019Y537662D01*
X729043Y537593D01*
X729069Y537526D01*
X729099Y537460D01*
X729133Y537395D01*
X729169Y537333D01*
X729209Y537272D01*
X729252Y537213D01*
X729297Y537157D01*
X729346Y537103D01*
X729397Y537051D01*
X729450Y537002D01*
X729506Y536956D01*
X729564Y536912D01*
X729625Y536872D01*
X729687Y536835D01*
X729751Y536801D01*
X729817Y536770D01*
X729884Y536742D01*
X729952Y536718D01*
X730950Y538840D02*
X730904Y538886D01*
X730856Y538929D01*
X730805Y538970D01*
X730752Y539008D01*
X730697Y539043D01*
X730640Y539074D01*
X730582Y539103D01*
X730522Y539129D01*
X730461Y539151D01*
X730399Y539170D01*
X730335Y539186D01*
X730271Y539198D01*
X730207Y539207D01*
X730142Y539212D01*
X730077Y539214D01*
X730950Y538840D02*
X733446Y536719D01*
X733446Y539214D01*
D14*
X818900Y790200D02*
X863900Y790200D01*
X881400Y755200D02*
X881400Y715200D01*
X872900Y715200D01*
X872900Y740200D01*
X858900Y740200D01*
X823900Y740200D02*
X809900Y740200D01*
X809900Y715200D01*
X801400Y715200D01*
X801400Y755200D01*
D15*
X865149Y704969D02*
X873446Y704969D01*
X869298Y700820D02*
X869298Y709118D01*
X816296Y704969D02*
X807999Y704969D01*
D11*
X837252Y760554D02*
X838250Y760554D01*
X837252Y760554D02*
X837192Y760556D01*
X837132Y760561D01*
X837072Y760570D01*
X837013Y760583D01*
X836955Y760599D01*
X836898Y760619D01*
X836842Y760642D01*
X836788Y760668D01*
X836736Y760698D01*
X836685Y760731D01*
X836637Y760766D01*
X836590Y760805D01*
X836546Y760846D01*
X836505Y760890D01*
X836466Y760937D01*
X836431Y760985D01*
X836398Y761036D01*
X836368Y761088D01*
X836342Y761142D01*
X836319Y761198D01*
X836299Y761255D01*
X836283Y761313D01*
X836270Y761372D01*
X836261Y761432D01*
X836256Y761492D01*
X836254Y761552D01*
X836254Y764048D01*
X836256Y764111D01*
X836262Y764173D01*
X836272Y764235D01*
X836285Y764296D01*
X836303Y764356D01*
X836324Y764415D01*
X836349Y764473D01*
X836377Y764529D01*
X836409Y764583D01*
X836445Y764635D01*
X836483Y764684D01*
X836524Y764731D01*
X836569Y764775D01*
X836616Y764817D01*
X836665Y764855D01*
X836717Y764891D01*
X836771Y764923D01*
X836827Y764951D01*
X836885Y764976D01*
X836944Y764997D01*
X837004Y765015D01*
X837065Y765028D01*
X837127Y765038D01*
X837189Y765044D01*
X837252Y765046D01*
X838250Y765046D01*
X840169Y765046D02*
X840169Y760554D01*
X842664Y760554D02*
X840169Y765046D01*
X842664Y765046D02*
X842664Y760554D01*
X844819Y760554D02*
X846067Y760554D01*
X846136Y760556D01*
X846204Y760562D01*
X846272Y760571D01*
X846340Y760584D01*
X846407Y760601D01*
X846472Y760622D01*
X846537Y760646D01*
X846600Y760673D01*
X846661Y760704D01*
X846721Y760739D01*
X846778Y760776D01*
X846834Y760817D01*
X846887Y760861D01*
X846937Y760907D01*
X846985Y760957D01*
X847030Y761009D01*
X847073Y761063D01*
X847112Y761119D01*
X847148Y761178D01*
X847181Y761238D01*
X847210Y761301D01*
X847236Y761364D01*
X847258Y761429D01*
X847277Y761496D01*
X847292Y761563D01*
X847303Y761631D01*
X847311Y761699D01*
X847315Y761768D01*
X847315Y761836D01*
X847311Y761905D01*
X847303Y761973D01*
X847292Y762041D01*
X847277Y762108D01*
X847258Y762175D01*
X847236Y762240D01*
X847210Y762303D01*
X847181Y762366D01*
X847148Y762426D01*
X847112Y762485D01*
X847073Y762541D01*
X847030Y762595D01*
X846985Y762647D01*
X846937Y762697D01*
X846887Y762743D01*
X846834Y762787D01*
X846778Y762828D01*
X846721Y762865D01*
X846661Y762900D01*
X846600Y762931D01*
X846537Y762958D01*
X846472Y762982D01*
X846407Y763003D01*
X846340Y763020D01*
X846272Y763033D01*
X846204Y763042D01*
X846136Y763048D01*
X846067Y763050D01*
X846316Y765046D02*
X844819Y765046D01*
X846316Y765046D02*
X846377Y765044D01*
X846439Y765038D01*
X846499Y765029D01*
X846559Y765016D01*
X846619Y764999D01*
X846677Y764979D01*
X846733Y764955D01*
X846788Y764927D01*
X846841Y764897D01*
X846893Y764863D01*
X846942Y764826D01*
X846988Y764786D01*
X847032Y764743D01*
X847074Y764697D01*
X847112Y764649D01*
X847148Y764599D01*
X847180Y764547D01*
X847209Y764493D01*
X847235Y764437D01*
X847257Y764380D01*
X847276Y764321D01*
X847291Y764262D01*
X847302Y764201D01*
X847310Y764140D01*
X847314Y764079D01*
X847314Y764017D01*
X847310Y763956D01*
X847302Y763895D01*
X847291Y763834D01*
X847276Y763775D01*
X847257Y763716D01*
X847235Y763659D01*
X847209Y763603D01*
X847180Y763549D01*
X847148Y763497D01*
X847112Y763447D01*
X847074Y763399D01*
X847032Y763353D01*
X846988Y763310D01*
X846942Y763270D01*
X846893Y763233D01*
X846841Y763199D01*
X846788Y763169D01*
X846733Y763141D01*
X846677Y763117D01*
X846619Y763097D01*
X846559Y763080D01*
X846499Y763067D01*
X846439Y763058D01*
X846377Y763052D01*
X846316Y763050D01*
X845318Y763050D01*
D14*
X702800Y732700D02*
X702800Y687700D01*
X737800Y750200D02*
X777800Y750200D01*
X777800Y741700D01*
X752800Y741700D01*
X752800Y727700D01*
X752800Y692700D02*
X752800Y678700D01*
X777800Y678700D01*
X777800Y670200D01*
X737800Y670200D01*
D15*
X788031Y733949D02*
X788031Y742246D01*
X792180Y738098D02*
X783882Y738098D01*
X788031Y685096D02*
X788031Y676799D01*
D11*
X732446Y706052D02*
X732446Y707050D01*
X732446Y706052D02*
X732444Y705989D01*
X732438Y705927D01*
X732428Y705865D01*
X732415Y705804D01*
X732397Y705744D01*
X732376Y705685D01*
X732351Y705627D01*
X732323Y705571D01*
X732291Y705517D01*
X732255Y705465D01*
X732217Y705416D01*
X732176Y705369D01*
X732131Y705325D01*
X732084Y705283D01*
X732035Y705245D01*
X731983Y705209D01*
X731929Y705177D01*
X731873Y705149D01*
X731815Y705124D01*
X731756Y705103D01*
X731696Y705085D01*
X731635Y705072D01*
X731573Y705062D01*
X731511Y705056D01*
X731448Y705054D01*
X728952Y705054D01*
X728889Y705056D01*
X728827Y705062D01*
X728765Y705072D01*
X728704Y705085D01*
X728644Y705103D01*
X728585Y705124D01*
X728527Y705149D01*
X728471Y705177D01*
X728417Y705209D01*
X728365Y705245D01*
X728316Y705283D01*
X728269Y705324D01*
X728225Y705369D01*
X728183Y705416D01*
X728145Y705465D01*
X728109Y705517D01*
X728077Y705571D01*
X728049Y705627D01*
X728024Y705685D01*
X728003Y705744D01*
X727985Y705804D01*
X727972Y705865D01*
X727962Y705927D01*
X727956Y705989D01*
X727954Y706052D01*
X727954Y707050D01*
X727954Y708969D02*
X732446Y708969D01*
X732446Y711464D02*
X727954Y708969D01*
X727954Y711464D02*
X732446Y711464D01*
X731448Y713619D02*
X727954Y714617D01*
X731448Y713619D02*
X731448Y716114D01*
X730450Y715366D02*
X732446Y715366D01*
D16*
X908700Y554900D02*
X928700Y554900D01*
X928700Y568900D02*
X908700Y568900D01*
X915200Y557900D02*
X921200Y561900D01*
X915200Y557900D02*
X915200Y565900D01*
X921200Y561900D01*
D17*
X922200Y561900D03*
D13*
X894329Y567408D02*
X894329Y571392D01*
X895435Y571392D01*
X895499Y571390D01*
X895564Y571385D01*
X895627Y571375D01*
X895690Y571362D01*
X895752Y571345D01*
X895814Y571325D01*
X895873Y571301D01*
X895932Y571274D01*
X895989Y571244D01*
X896043Y571210D01*
X896096Y571173D01*
X896147Y571133D01*
X896195Y571090D01*
X896240Y571045D01*
X896283Y570997D01*
X896323Y570946D01*
X896360Y570893D01*
X896394Y570838D01*
X896424Y570782D01*
X896451Y570723D01*
X896475Y570664D01*
X896496Y570602D01*
X896512Y570540D01*
X896525Y570477D01*
X896535Y570413D01*
X896540Y570349D01*
X896542Y570285D01*
X896542Y568515D01*
X896540Y568451D01*
X896535Y568386D01*
X896525Y568323D01*
X896512Y568260D01*
X896495Y568198D01*
X896475Y568136D01*
X896451Y568077D01*
X896424Y568018D01*
X896394Y567962D01*
X896360Y567907D01*
X896323Y567854D01*
X896283Y567803D01*
X896240Y567755D01*
X896195Y567710D01*
X896147Y567667D01*
X896096Y567627D01*
X896043Y567590D01*
X895989Y567556D01*
X895932Y567526D01*
X895873Y567499D01*
X895814Y567475D01*
X895753Y567455D01*
X895690Y567438D01*
X895627Y567425D01*
X895564Y567415D01*
X895499Y567410D01*
X895435Y567408D01*
X894329Y567408D01*
X898979Y570507D02*
X900085Y571392D01*
X900085Y567408D01*
X898979Y567408D02*
X901192Y567408D01*
D18*
X778268Y663600D03*
D13*
X776629Y656472D02*
X776629Y652488D01*
X776629Y656472D02*
X777735Y656472D01*
X777799Y656470D01*
X777864Y656465D01*
X777927Y656455D01*
X777990Y656442D01*
X778052Y656425D01*
X778114Y656405D01*
X778173Y656381D01*
X778232Y656354D01*
X778289Y656324D01*
X778343Y656290D01*
X778396Y656253D01*
X778447Y656213D01*
X778495Y656170D01*
X778540Y656125D01*
X778583Y656077D01*
X778623Y656026D01*
X778660Y655973D01*
X778694Y655918D01*
X778724Y655862D01*
X778751Y655803D01*
X778775Y655744D01*
X778796Y655682D01*
X778812Y655620D01*
X778825Y655557D01*
X778835Y655493D01*
X778840Y655429D01*
X778842Y655365D01*
X778842Y653595D01*
X778840Y653531D01*
X778835Y653466D01*
X778825Y653403D01*
X778812Y653340D01*
X778795Y653278D01*
X778775Y653216D01*
X778751Y653157D01*
X778724Y653098D01*
X778694Y653042D01*
X778660Y652987D01*
X778623Y652934D01*
X778583Y652883D01*
X778540Y652835D01*
X778495Y652790D01*
X778447Y652747D01*
X778396Y652707D01*
X778343Y652670D01*
X778289Y652636D01*
X778232Y652606D01*
X778173Y652579D01*
X778114Y652555D01*
X778053Y652535D01*
X777990Y652518D01*
X777927Y652505D01*
X777864Y652495D01*
X777799Y652490D01*
X777735Y652488D01*
X776629Y652488D01*
X782496Y656472D02*
X782556Y656470D01*
X782616Y656465D01*
X782676Y656456D01*
X782734Y656443D01*
X782792Y656427D01*
X782849Y656407D01*
X782905Y656384D01*
X782959Y656358D01*
X783011Y656328D01*
X783062Y656296D01*
X783110Y656260D01*
X783156Y656222D01*
X783200Y656180D01*
X783242Y656136D01*
X783280Y656090D01*
X783316Y656042D01*
X783348Y655991D01*
X783378Y655939D01*
X783404Y655885D01*
X783427Y655829D01*
X783447Y655772D01*
X783463Y655714D01*
X783476Y655656D01*
X783485Y655596D01*
X783490Y655536D01*
X783492Y655476D01*
X782496Y656472D02*
X782426Y656470D01*
X782356Y656464D01*
X782287Y656455D01*
X782218Y656442D01*
X782150Y656424D01*
X782084Y656404D01*
X782018Y656379D01*
X781954Y656351D01*
X781891Y656320D01*
X781830Y656285D01*
X781772Y656247D01*
X781715Y656206D01*
X781661Y656162D01*
X781609Y656115D01*
X781560Y656065D01*
X781514Y656013D01*
X781470Y655958D01*
X781430Y655900D01*
X781393Y655841D01*
X781359Y655780D01*
X781329Y655717D01*
X781302Y655652D01*
X781278Y655586D01*
X783160Y654701D02*
X783203Y654745D01*
X783244Y654792D01*
X783283Y654840D01*
X783318Y654891D01*
X783350Y654944D01*
X783379Y654998D01*
X783405Y655055D01*
X783428Y655112D01*
X783448Y655171D01*
X783463Y655231D01*
X783476Y655291D01*
X783485Y655352D01*
X783490Y655414D01*
X783492Y655476D01*
X783160Y654701D02*
X781279Y652488D01*
X783492Y652488D01*
X838474Y694581D02*
X838474Y697680D01*
X838474Y694581D02*
X838472Y694523D01*
X838466Y694465D01*
X838457Y694408D01*
X838444Y694352D01*
X838427Y694297D01*
X838407Y694242D01*
X838383Y694190D01*
X838355Y694139D01*
X838325Y694089D01*
X838291Y694042D01*
X838254Y693997D01*
X838215Y693955D01*
X838173Y693916D01*
X838128Y693879D01*
X838081Y693845D01*
X838032Y693815D01*
X837980Y693787D01*
X837928Y693763D01*
X837873Y693743D01*
X837818Y693726D01*
X837762Y693713D01*
X837705Y693704D01*
X837647Y693698D01*
X837589Y693696D01*
X837146Y693696D01*
X841146Y693696D02*
X841146Y697680D01*
X842253Y697680D01*
X842319Y697678D01*
X842384Y697672D01*
X842449Y697663D01*
X842513Y697649D01*
X842576Y697632D01*
X842638Y697611D01*
X842699Y697586D01*
X842758Y697558D01*
X842816Y697526D01*
X842871Y697491D01*
X842925Y697453D01*
X842976Y697412D01*
X843024Y697367D01*
X843070Y697320D01*
X843113Y697271D01*
X843152Y697218D01*
X843189Y697164D01*
X843222Y697107D01*
X843252Y697049D01*
X843279Y696989D01*
X843302Y696928D01*
X843321Y696865D01*
X843336Y696801D01*
X843348Y696736D01*
X843356Y696671D01*
X843360Y696606D01*
X843360Y696540D01*
X843356Y696475D01*
X843348Y696410D01*
X843336Y696345D01*
X843321Y696281D01*
X843302Y696218D01*
X843279Y696157D01*
X843252Y696097D01*
X843222Y696039D01*
X843189Y695982D01*
X843152Y695928D01*
X843113Y695875D01*
X843070Y695826D01*
X843024Y695779D01*
X842976Y695734D01*
X842925Y695693D01*
X842871Y695655D01*
X842816Y695620D01*
X842758Y695588D01*
X842699Y695560D01*
X842638Y695535D01*
X842576Y695514D01*
X842513Y695497D01*
X842449Y695483D01*
X842384Y695474D01*
X842319Y695468D01*
X842253Y695466D01*
X842253Y695467D02*
X841146Y695467D01*
X846596Y697680D02*
X846656Y697678D01*
X846716Y697673D01*
X846776Y697664D01*
X846834Y697651D01*
X846892Y697635D01*
X846949Y697615D01*
X847005Y697592D01*
X847059Y697566D01*
X847111Y697536D01*
X847162Y697504D01*
X847210Y697468D01*
X847256Y697430D01*
X847300Y697388D01*
X847342Y697344D01*
X847380Y697298D01*
X847416Y697250D01*
X847448Y697199D01*
X847478Y697147D01*
X847504Y697093D01*
X847527Y697037D01*
X847547Y696980D01*
X847563Y696922D01*
X847576Y696864D01*
X847585Y696804D01*
X847590Y696744D01*
X847592Y696684D01*
X846596Y697680D02*
X846526Y697678D01*
X846456Y697672D01*
X846387Y697663D01*
X846318Y697650D01*
X846250Y697632D01*
X846184Y697612D01*
X846118Y697587D01*
X846054Y697559D01*
X845991Y697528D01*
X845930Y697493D01*
X845872Y697455D01*
X845815Y697414D01*
X845761Y697370D01*
X845709Y697323D01*
X845660Y697273D01*
X845614Y697221D01*
X845570Y697166D01*
X845530Y697108D01*
X845493Y697049D01*
X845459Y696988D01*
X845429Y696925D01*
X845402Y696860D01*
X845378Y696794D01*
X847260Y695909D02*
X847303Y695953D01*
X847344Y696000D01*
X847383Y696048D01*
X847418Y696099D01*
X847450Y696152D01*
X847479Y696206D01*
X847505Y696263D01*
X847528Y696320D01*
X847548Y696379D01*
X847563Y696439D01*
X847576Y696499D01*
X847585Y696560D01*
X847590Y696622D01*
X847592Y696684D01*
X847260Y695909D02*
X845378Y693696D01*
X847592Y693696D01*
D19*
X867501Y525554D02*
X867501Y520418D01*
X867502Y520418D02*
X867500Y520344D01*
X867494Y520269D01*
X867485Y520196D01*
X867472Y520122D01*
X867455Y520050D01*
X867435Y519979D01*
X867411Y519908D01*
X867383Y519839D01*
X867352Y519771D01*
X867318Y519706D01*
X867280Y519641D01*
X867239Y519579D01*
X867195Y519519D01*
X867148Y519462D01*
X867098Y519407D01*
X867045Y519354D01*
X866990Y519304D01*
X866933Y519257D01*
X866873Y519213D01*
X866811Y519172D01*
X866746Y519134D01*
X866680Y519100D01*
X866613Y519069D01*
X866544Y519041D01*
X866473Y519017D01*
X866402Y518997D01*
X866329Y518980D01*
X866256Y518967D01*
X866182Y518958D01*
X866108Y518952D01*
X866034Y518950D01*
X865300Y518950D01*
X871767Y518950D02*
X871767Y525554D01*
X873601Y525554D01*
X873686Y525552D01*
X873770Y525546D01*
X873854Y525536D01*
X873938Y525523D01*
X874021Y525505D01*
X874103Y525484D01*
X874184Y525459D01*
X874264Y525430D01*
X874342Y525398D01*
X874418Y525362D01*
X874493Y525322D01*
X874566Y525279D01*
X874637Y525233D01*
X874706Y525184D01*
X874773Y525131D01*
X874837Y525075D01*
X874898Y525017D01*
X874956Y524956D01*
X875012Y524892D01*
X875065Y524825D01*
X875114Y524756D01*
X875160Y524685D01*
X875203Y524612D01*
X875243Y524537D01*
X875279Y524461D01*
X875311Y524383D01*
X875340Y524303D01*
X875365Y524222D01*
X875386Y524140D01*
X875404Y524057D01*
X875417Y523973D01*
X875427Y523889D01*
X875433Y523805D01*
X875435Y523720D01*
X875433Y523635D01*
X875427Y523551D01*
X875417Y523467D01*
X875404Y523383D01*
X875386Y523300D01*
X875365Y523218D01*
X875340Y523137D01*
X875311Y523057D01*
X875279Y522979D01*
X875243Y522903D01*
X875203Y522828D01*
X875160Y522755D01*
X875114Y522684D01*
X875065Y522615D01*
X875012Y522548D01*
X874956Y522484D01*
X874898Y522423D01*
X874837Y522365D01*
X874773Y522309D01*
X874706Y522256D01*
X874637Y522207D01*
X874566Y522161D01*
X874493Y522118D01*
X874418Y522078D01*
X874342Y522042D01*
X874264Y522010D01*
X874184Y521981D01*
X874103Y521956D01*
X874021Y521935D01*
X873938Y521917D01*
X873854Y521904D01*
X873770Y521894D01*
X873686Y521888D01*
X873601Y521886D01*
X873601Y521885D02*
X871767Y521885D01*
X878657Y518950D02*
X880491Y518950D01*
X880576Y518952D01*
X880660Y518958D01*
X880744Y518968D01*
X880828Y518981D01*
X880911Y518999D01*
X880993Y519020D01*
X881074Y519045D01*
X881154Y519074D01*
X881232Y519106D01*
X881308Y519142D01*
X881383Y519182D01*
X881456Y519225D01*
X881527Y519271D01*
X881596Y519320D01*
X881663Y519373D01*
X881727Y519429D01*
X881788Y519487D01*
X881846Y519548D01*
X881902Y519612D01*
X881955Y519679D01*
X882004Y519748D01*
X882050Y519819D01*
X882093Y519892D01*
X882133Y519967D01*
X882169Y520043D01*
X882201Y520121D01*
X882230Y520201D01*
X882255Y520282D01*
X882276Y520364D01*
X882294Y520447D01*
X882307Y520531D01*
X882317Y520615D01*
X882323Y520699D01*
X882325Y520784D01*
X882323Y520869D01*
X882317Y520953D01*
X882307Y521037D01*
X882294Y521121D01*
X882276Y521204D01*
X882255Y521286D01*
X882230Y521367D01*
X882201Y521447D01*
X882169Y521525D01*
X882133Y521601D01*
X882093Y521676D01*
X882050Y521749D01*
X882004Y521820D01*
X881955Y521889D01*
X881902Y521956D01*
X881846Y522020D01*
X881788Y522081D01*
X881727Y522139D01*
X881663Y522195D01*
X881596Y522248D01*
X881527Y522297D01*
X881456Y522343D01*
X881383Y522386D01*
X881308Y522426D01*
X881232Y522462D01*
X881154Y522494D01*
X881074Y522523D01*
X880993Y522548D01*
X880911Y522569D01*
X880828Y522587D01*
X880744Y522600D01*
X880660Y522610D01*
X880576Y522616D01*
X880491Y522618D01*
X880858Y525554D02*
X878657Y525554D01*
X880858Y525554D02*
X880934Y525552D01*
X881009Y525546D01*
X881084Y525537D01*
X881158Y525523D01*
X881232Y525506D01*
X881304Y525484D01*
X881376Y525460D01*
X881446Y525431D01*
X881514Y525399D01*
X881581Y525364D01*
X881646Y525325D01*
X881709Y525282D01*
X881769Y525237D01*
X881827Y525189D01*
X881883Y525137D01*
X881935Y525083D01*
X881985Y525026D01*
X882032Y524967D01*
X882076Y524906D01*
X882117Y524842D01*
X882154Y524776D01*
X882188Y524708D01*
X882218Y524639D01*
X882245Y524568D01*
X882268Y524496D01*
X882287Y524423D01*
X882302Y524349D01*
X882314Y524274D01*
X882322Y524199D01*
X882326Y524124D01*
X882326Y524048D01*
X882322Y523973D01*
X882314Y523898D01*
X882302Y523823D01*
X882287Y523749D01*
X882268Y523676D01*
X882245Y523604D01*
X882218Y523533D01*
X882188Y523464D01*
X882154Y523396D01*
X882117Y523330D01*
X882076Y523266D01*
X882032Y523205D01*
X881985Y523146D01*
X881935Y523089D01*
X881883Y523035D01*
X881827Y522983D01*
X881769Y522935D01*
X881709Y522890D01*
X881646Y522847D01*
X881581Y522808D01*
X881514Y522773D01*
X881446Y522741D01*
X881376Y522712D01*
X881304Y522688D01*
X881232Y522666D01*
X881158Y522649D01*
X881084Y522635D01*
X881009Y522626D01*
X880934Y522620D01*
X880858Y522618D01*
X880858Y522619D02*
X879391Y522619D01*
D16*
X877800Y569100D02*
X868800Y569100D01*
X868800Y591100D02*
X877800Y591100D01*
X875800Y565100D02*
X875802Y565163D01*
X875808Y565225D01*
X875818Y565287D01*
X875831Y565349D01*
X875849Y565409D01*
X875870Y565468D01*
X875895Y565526D01*
X875924Y565582D01*
X875956Y565636D01*
X875991Y565688D01*
X876029Y565737D01*
X876071Y565785D01*
X876115Y565829D01*
X876163Y565871D01*
X876212Y565909D01*
X876264Y565944D01*
X876318Y565976D01*
X876374Y566005D01*
X876432Y566030D01*
X876491Y566051D01*
X876551Y566069D01*
X876613Y566082D01*
X876675Y566092D01*
X876737Y566098D01*
X876800Y566100D01*
X876863Y566098D01*
X876925Y566092D01*
X876987Y566082D01*
X877049Y566069D01*
X877109Y566051D01*
X877168Y566030D01*
X877226Y566005D01*
X877282Y565976D01*
X877336Y565944D01*
X877388Y565909D01*
X877437Y565871D01*
X877485Y565829D01*
X877529Y565785D01*
X877571Y565737D01*
X877609Y565688D01*
X877644Y565636D01*
X877676Y565582D01*
X877705Y565526D01*
X877730Y565468D01*
X877751Y565409D01*
X877769Y565349D01*
X877782Y565287D01*
X877792Y565225D01*
X877798Y565163D01*
X877800Y565100D01*
X877798Y565037D01*
X877792Y564975D01*
X877782Y564913D01*
X877769Y564851D01*
X877751Y564791D01*
X877730Y564732D01*
X877705Y564674D01*
X877676Y564618D01*
X877644Y564564D01*
X877609Y564512D01*
X877571Y564463D01*
X877529Y564415D01*
X877485Y564371D01*
X877437Y564329D01*
X877388Y564291D01*
X877336Y564256D01*
X877282Y564224D01*
X877226Y564195D01*
X877168Y564170D01*
X877109Y564149D01*
X877049Y564131D01*
X876987Y564118D01*
X876925Y564108D01*
X876863Y564102D01*
X876800Y564100D01*
X876737Y564102D01*
X876675Y564108D01*
X876613Y564118D01*
X876551Y564131D01*
X876491Y564149D01*
X876432Y564170D01*
X876374Y564195D01*
X876318Y564224D01*
X876264Y564256D01*
X876212Y564291D01*
X876163Y564329D01*
X876115Y564371D01*
X876071Y564415D01*
X876029Y564463D01*
X875991Y564512D01*
X875956Y564564D01*
X875924Y564618D01*
X875895Y564674D01*
X875870Y564732D01*
X875849Y564791D01*
X875831Y564851D01*
X875818Y564913D01*
X875808Y564975D01*
X875802Y565037D01*
X875800Y565100D01*
X885600Y643900D02*
X885600Y671900D01*
X923600Y671900D02*
X923600Y643900D01*
D13*
X901430Y655408D02*
X901430Y659392D01*
X902537Y659392D01*
X902603Y659390D01*
X902668Y659384D01*
X902733Y659375D01*
X902797Y659361D01*
X902860Y659344D01*
X902922Y659323D01*
X902983Y659298D01*
X903042Y659270D01*
X903100Y659238D01*
X903155Y659203D01*
X903209Y659165D01*
X903260Y659124D01*
X903308Y659079D01*
X903354Y659032D01*
X903397Y658983D01*
X903436Y658930D01*
X903473Y658876D01*
X903506Y658819D01*
X903536Y658761D01*
X903563Y658701D01*
X903586Y658640D01*
X903605Y658577D01*
X903620Y658513D01*
X903632Y658448D01*
X903640Y658383D01*
X903644Y658318D01*
X903644Y658252D01*
X903640Y658187D01*
X903632Y658122D01*
X903620Y658057D01*
X903605Y657993D01*
X903586Y657930D01*
X903563Y657869D01*
X903536Y657809D01*
X903506Y657751D01*
X903473Y657694D01*
X903436Y657640D01*
X903397Y657587D01*
X903354Y657538D01*
X903308Y657491D01*
X903260Y657446D01*
X903209Y657405D01*
X903155Y657367D01*
X903100Y657332D01*
X903042Y657300D01*
X902983Y657272D01*
X902922Y657247D01*
X902860Y657226D01*
X902797Y657209D01*
X902733Y657195D01*
X902668Y657186D01*
X902603Y657180D01*
X902537Y657178D01*
X902537Y657179D02*
X901430Y657179D01*
X902758Y657179D02*
X903643Y655408D01*
X905879Y658507D02*
X906985Y659392D01*
X906985Y655408D01*
X905879Y655408D02*
X908092Y655408D01*
D16*
X839600Y669100D02*
X839600Y641100D01*
X801600Y641100D02*
X801600Y669100D01*
D13*
X816108Y657592D02*
X816108Y653608D01*
X816108Y657592D02*
X817215Y657592D01*
X817281Y657590D01*
X817346Y657584D01*
X817411Y657575D01*
X817475Y657561D01*
X817538Y657544D01*
X817600Y657523D01*
X817661Y657498D01*
X817720Y657470D01*
X817778Y657438D01*
X817833Y657403D01*
X817887Y657365D01*
X817938Y657324D01*
X817986Y657279D01*
X818032Y657232D01*
X818075Y657183D01*
X818114Y657130D01*
X818151Y657076D01*
X818184Y657019D01*
X818214Y656961D01*
X818241Y656901D01*
X818264Y656840D01*
X818283Y656777D01*
X818298Y656713D01*
X818310Y656648D01*
X818318Y656583D01*
X818322Y656518D01*
X818322Y656452D01*
X818318Y656387D01*
X818310Y656322D01*
X818298Y656257D01*
X818283Y656193D01*
X818264Y656130D01*
X818241Y656069D01*
X818214Y656009D01*
X818184Y655951D01*
X818151Y655894D01*
X818114Y655840D01*
X818075Y655787D01*
X818032Y655738D01*
X817986Y655691D01*
X817938Y655646D01*
X817887Y655605D01*
X817833Y655567D01*
X817778Y655532D01*
X817720Y655500D01*
X817661Y655472D01*
X817600Y655447D01*
X817538Y655426D01*
X817475Y655409D01*
X817411Y655395D01*
X817346Y655386D01*
X817281Y655380D01*
X817215Y655378D01*
X817215Y655379D02*
X816108Y655379D01*
X817436Y655379D02*
X818321Y653608D01*
X820557Y653608D02*
X821663Y653608D01*
X821729Y653610D01*
X821794Y653616D01*
X821859Y653625D01*
X821923Y653639D01*
X821986Y653656D01*
X822048Y653677D01*
X822109Y653702D01*
X822168Y653730D01*
X822226Y653762D01*
X822281Y653797D01*
X822335Y653835D01*
X822386Y653876D01*
X822434Y653921D01*
X822480Y653968D01*
X822523Y654017D01*
X822562Y654070D01*
X822599Y654124D01*
X822632Y654181D01*
X822662Y654239D01*
X822689Y654299D01*
X822712Y654360D01*
X822731Y654423D01*
X822746Y654487D01*
X822758Y654552D01*
X822766Y654617D01*
X822770Y654682D01*
X822770Y654748D01*
X822766Y654813D01*
X822758Y654878D01*
X822746Y654943D01*
X822731Y655007D01*
X822712Y655070D01*
X822689Y655131D01*
X822662Y655191D01*
X822632Y655249D01*
X822599Y655306D01*
X822562Y655360D01*
X822523Y655413D01*
X822480Y655462D01*
X822434Y655509D01*
X822386Y655554D01*
X822335Y655595D01*
X822281Y655633D01*
X822226Y655668D01*
X822168Y655700D01*
X822109Y655728D01*
X822048Y655753D01*
X821986Y655774D01*
X821923Y655791D01*
X821859Y655805D01*
X821794Y655814D01*
X821729Y655820D01*
X821663Y655822D01*
X821885Y657592D02*
X820557Y657592D01*
X821885Y657592D02*
X821943Y657590D01*
X822001Y657584D01*
X822058Y657575D01*
X822114Y657562D01*
X822169Y657545D01*
X822224Y657525D01*
X822276Y657501D01*
X822328Y657473D01*
X822377Y657443D01*
X822424Y657409D01*
X822469Y657372D01*
X822511Y657333D01*
X822550Y657291D01*
X822587Y657246D01*
X822621Y657199D01*
X822651Y657150D01*
X822679Y657098D01*
X822703Y657046D01*
X822723Y656991D01*
X822740Y656936D01*
X822753Y656880D01*
X822762Y656823D01*
X822768Y656765D01*
X822770Y656707D01*
X822768Y656649D01*
X822762Y656591D01*
X822753Y656534D01*
X822740Y656478D01*
X822723Y656423D01*
X822703Y656368D01*
X822679Y656316D01*
X822651Y656265D01*
X822621Y656215D01*
X822587Y656168D01*
X822550Y656123D01*
X822511Y656081D01*
X822469Y656042D01*
X822424Y656005D01*
X822377Y655971D01*
X822328Y655941D01*
X822276Y655913D01*
X822224Y655889D01*
X822169Y655869D01*
X822114Y655852D01*
X822058Y655839D01*
X822001Y655830D01*
X821943Y655824D01*
X821885Y655822D01*
X821885Y655821D02*
X820999Y655821D01*
D12*
X917500Y580200D02*
X917500Y572200D01*
D13*
X914550Y582978D02*
X914550Y586962D01*
X915657Y586962D01*
X915723Y586960D01*
X915788Y586954D01*
X915853Y586945D01*
X915917Y586931D01*
X915980Y586914D01*
X916042Y586893D01*
X916103Y586868D01*
X916162Y586840D01*
X916220Y586808D01*
X916275Y586773D01*
X916329Y586735D01*
X916380Y586694D01*
X916428Y586649D01*
X916474Y586602D01*
X916517Y586553D01*
X916556Y586500D01*
X916593Y586446D01*
X916626Y586389D01*
X916656Y586331D01*
X916683Y586271D01*
X916706Y586210D01*
X916725Y586147D01*
X916740Y586083D01*
X916752Y586018D01*
X916760Y585953D01*
X916764Y585888D01*
X916764Y585822D01*
X916760Y585757D01*
X916752Y585692D01*
X916740Y585627D01*
X916725Y585563D01*
X916706Y585500D01*
X916683Y585439D01*
X916656Y585379D01*
X916626Y585321D01*
X916593Y585264D01*
X916556Y585210D01*
X916517Y585157D01*
X916474Y585108D01*
X916428Y585061D01*
X916380Y585016D01*
X916329Y584975D01*
X916275Y584937D01*
X916220Y584902D01*
X916162Y584870D01*
X916103Y584842D01*
X916042Y584817D01*
X915980Y584796D01*
X915917Y584779D01*
X915853Y584765D01*
X915788Y584756D01*
X915723Y584750D01*
X915657Y584748D01*
X915657Y584749D02*
X914550Y584749D01*
X915878Y584749D02*
X916763Y582978D01*
X918999Y583863D02*
X919884Y586962D01*
X918999Y583863D02*
X921212Y583863D01*
X920548Y582978D02*
X920548Y584749D01*
D14*
X857100Y579100D02*
X857100Y635100D01*
X857100Y579100D02*
X815100Y579100D01*
X815100Y635100D01*
X857100Y635100D01*
D20*
X850100Y641100D02*
X850102Y641189D01*
X850108Y641278D01*
X850118Y641367D01*
X850132Y641455D01*
X850149Y641542D01*
X850171Y641628D01*
X850197Y641714D01*
X850226Y641798D01*
X850259Y641881D01*
X850295Y641962D01*
X850336Y642042D01*
X850379Y642119D01*
X850426Y642195D01*
X850477Y642268D01*
X850530Y642339D01*
X850587Y642408D01*
X850647Y642474D01*
X850710Y642538D01*
X850775Y642598D01*
X850843Y642656D01*
X850914Y642710D01*
X850987Y642761D01*
X851062Y642809D01*
X851139Y642854D01*
X851218Y642895D01*
X851299Y642932D01*
X851381Y642966D01*
X851465Y642997D01*
X851550Y643023D01*
X851636Y643046D01*
X851723Y643064D01*
X851811Y643079D01*
X851900Y643090D01*
X851989Y643097D01*
X852078Y643100D01*
X852167Y643099D01*
X852256Y643094D01*
X852344Y643085D01*
X852433Y643072D01*
X852520Y643055D01*
X852607Y643035D01*
X852693Y643010D01*
X852777Y642982D01*
X852860Y642950D01*
X852942Y642914D01*
X853022Y642875D01*
X853100Y642832D01*
X853176Y642786D01*
X853250Y642736D01*
X853322Y642683D01*
X853391Y642627D01*
X853458Y642568D01*
X853522Y642506D01*
X853583Y642442D01*
X853642Y642374D01*
X853697Y642304D01*
X853749Y642232D01*
X853798Y642157D01*
X853843Y642081D01*
X853885Y642002D01*
X853923Y641922D01*
X853958Y641840D01*
X853989Y641756D01*
X854017Y641671D01*
X854040Y641585D01*
X854060Y641498D01*
X854076Y641411D01*
X854088Y641322D01*
X854096Y641234D01*
X854100Y641145D01*
X854100Y641055D01*
X854096Y640966D01*
X854088Y640878D01*
X854076Y640789D01*
X854060Y640702D01*
X854040Y640615D01*
X854017Y640529D01*
X853989Y640444D01*
X853958Y640360D01*
X853923Y640278D01*
X853885Y640198D01*
X853843Y640119D01*
X853798Y640043D01*
X853749Y639968D01*
X853697Y639896D01*
X853642Y639826D01*
X853583Y639758D01*
X853522Y639694D01*
X853458Y639632D01*
X853391Y639573D01*
X853322Y639517D01*
X853250Y639464D01*
X853176Y639414D01*
X853100Y639368D01*
X853022Y639325D01*
X852942Y639286D01*
X852860Y639250D01*
X852777Y639218D01*
X852693Y639190D01*
X852607Y639165D01*
X852520Y639145D01*
X852433Y639128D01*
X852344Y639115D01*
X852256Y639106D01*
X852167Y639101D01*
X852078Y639100D01*
X851989Y639103D01*
X851900Y639110D01*
X851811Y639121D01*
X851723Y639136D01*
X851636Y639154D01*
X851550Y639177D01*
X851465Y639203D01*
X851381Y639234D01*
X851299Y639268D01*
X851218Y639305D01*
X851139Y639346D01*
X851062Y639391D01*
X850987Y639439D01*
X850914Y639490D01*
X850843Y639544D01*
X850775Y639602D01*
X850710Y639662D01*
X850647Y639726D01*
X850587Y639792D01*
X850530Y639861D01*
X850477Y639932D01*
X850426Y640005D01*
X850379Y640081D01*
X850336Y640158D01*
X850295Y640238D01*
X850259Y640319D01*
X850226Y640402D01*
X850197Y640486D01*
X850171Y640572D01*
X850149Y640658D01*
X850132Y640745D01*
X850118Y640833D01*
X850108Y640922D01*
X850102Y641011D01*
X850100Y641100D01*
D13*
X835699Y595115D02*
X835699Y594008D01*
X835698Y595115D02*
X835700Y595181D01*
X835706Y595246D01*
X835715Y595311D01*
X835729Y595375D01*
X835746Y595438D01*
X835767Y595500D01*
X835792Y595561D01*
X835820Y595620D01*
X835852Y595678D01*
X835887Y595733D01*
X835925Y595787D01*
X835966Y595838D01*
X836011Y595886D01*
X836058Y595932D01*
X836107Y595975D01*
X836160Y596014D01*
X836214Y596051D01*
X836271Y596084D01*
X836329Y596114D01*
X836389Y596141D01*
X836450Y596164D01*
X836513Y596183D01*
X836577Y596198D01*
X836642Y596210D01*
X836707Y596218D01*
X836772Y596222D01*
X836838Y596222D01*
X836903Y596218D01*
X836968Y596210D01*
X837033Y596198D01*
X837097Y596183D01*
X837160Y596164D01*
X837221Y596141D01*
X837281Y596114D01*
X837339Y596084D01*
X837396Y596051D01*
X837450Y596014D01*
X837503Y595975D01*
X837552Y595932D01*
X837599Y595886D01*
X837644Y595838D01*
X837685Y595787D01*
X837723Y595733D01*
X837758Y595678D01*
X837790Y595620D01*
X837818Y595561D01*
X837843Y595500D01*
X837864Y595438D01*
X837881Y595375D01*
X837895Y595311D01*
X837904Y595246D01*
X837910Y595181D01*
X837912Y595115D01*
X837912Y594008D01*
X833928Y594008D01*
X833928Y595115D01*
X833930Y595173D01*
X833936Y595231D01*
X833945Y595288D01*
X833958Y595344D01*
X833975Y595399D01*
X833995Y595454D01*
X834019Y595506D01*
X834047Y595558D01*
X834077Y595607D01*
X834111Y595654D01*
X834148Y595699D01*
X834187Y595741D01*
X834229Y595780D01*
X834274Y595817D01*
X834321Y595851D01*
X834371Y595881D01*
X834422Y595909D01*
X834474Y595933D01*
X834529Y595953D01*
X834584Y595970D01*
X834640Y595983D01*
X834697Y595992D01*
X834755Y595998D01*
X834813Y596000D01*
X834871Y595998D01*
X834929Y595992D01*
X834986Y595983D01*
X835042Y595970D01*
X835097Y595953D01*
X835152Y595933D01*
X835204Y595909D01*
X835256Y595881D01*
X835305Y595851D01*
X835352Y595817D01*
X835397Y595780D01*
X835439Y595741D01*
X835478Y595699D01*
X835515Y595654D01*
X835549Y595607D01*
X835579Y595558D01*
X835607Y595506D01*
X835631Y595454D01*
X835651Y595399D01*
X835668Y595344D01*
X835681Y595288D01*
X835690Y595231D01*
X835696Y595173D01*
X835698Y595115D01*
X833928Y598390D02*
X837912Y598390D01*
X837912Y600603D02*
X833928Y598390D01*
X833928Y600603D02*
X837912Y600603D01*
X836805Y603040D02*
X835035Y603040D01*
X834969Y603042D01*
X834904Y603048D01*
X834839Y603057D01*
X834775Y603071D01*
X834712Y603088D01*
X834650Y603109D01*
X834589Y603134D01*
X834530Y603162D01*
X834472Y603194D01*
X834417Y603229D01*
X834363Y603267D01*
X834312Y603308D01*
X834264Y603353D01*
X834218Y603400D01*
X834175Y603449D01*
X834136Y603502D01*
X834099Y603556D01*
X834066Y603613D01*
X834036Y603671D01*
X834009Y603731D01*
X833986Y603792D01*
X833967Y603855D01*
X833952Y603919D01*
X833940Y603984D01*
X833932Y604049D01*
X833928Y604114D01*
X833928Y604180D01*
X833932Y604245D01*
X833940Y604310D01*
X833952Y604375D01*
X833967Y604439D01*
X833986Y604502D01*
X834009Y604563D01*
X834036Y604623D01*
X834066Y604681D01*
X834099Y604738D01*
X834136Y604792D01*
X834175Y604845D01*
X834218Y604894D01*
X834264Y604941D01*
X834312Y604986D01*
X834363Y605027D01*
X834417Y605065D01*
X834472Y605100D01*
X834530Y605132D01*
X834589Y605160D01*
X834650Y605185D01*
X834712Y605206D01*
X834775Y605223D01*
X834839Y605237D01*
X834904Y605246D01*
X834969Y605252D01*
X835035Y605254D01*
X835035Y605253D02*
X836805Y605253D01*
X836805Y605254D02*
X836871Y605252D01*
X836936Y605246D01*
X837001Y605237D01*
X837065Y605223D01*
X837128Y605206D01*
X837190Y605185D01*
X837251Y605160D01*
X837310Y605132D01*
X837368Y605100D01*
X837423Y605065D01*
X837477Y605027D01*
X837528Y604986D01*
X837576Y604941D01*
X837622Y604894D01*
X837665Y604845D01*
X837704Y604792D01*
X837741Y604738D01*
X837774Y604681D01*
X837804Y604623D01*
X837831Y604563D01*
X837854Y604502D01*
X837873Y604439D01*
X837888Y604375D01*
X837900Y604310D01*
X837908Y604245D01*
X837912Y604180D01*
X837912Y604114D01*
X837908Y604049D01*
X837900Y603984D01*
X837888Y603919D01*
X837873Y603855D01*
X837854Y603792D01*
X837831Y603731D01*
X837804Y603671D01*
X837774Y603613D01*
X837741Y603556D01*
X837704Y603502D01*
X837665Y603449D01*
X837622Y603400D01*
X837576Y603353D01*
X837528Y603308D01*
X837477Y603267D01*
X837423Y603229D01*
X837368Y603194D01*
X837310Y603162D01*
X837251Y603134D01*
X837190Y603109D01*
X837128Y603088D01*
X837065Y603071D01*
X837001Y603057D01*
X836936Y603048D01*
X836871Y603042D01*
X836805Y603040D01*
X835920Y607540D02*
X835814Y607542D01*
X835707Y607547D01*
X835601Y607555D01*
X835496Y607568D01*
X835390Y607583D01*
X835286Y607602D01*
X835182Y607624D01*
X835079Y607650D01*
X834976Y607679D01*
X834875Y607711D01*
X834775Y607746D01*
X834676Y607785D01*
X834578Y607827D01*
X834481Y607872D01*
X834429Y607892D01*
X834377Y607916D01*
X834328Y607943D01*
X834281Y607974D01*
X834235Y608008D01*
X834192Y608044D01*
X834152Y608084D01*
X834115Y608126D01*
X834081Y608171D01*
X834049Y608218D01*
X834021Y608267D01*
X833997Y608318D01*
X833976Y608370D01*
X833959Y608424D01*
X833945Y608479D01*
X833936Y608534D01*
X833930Y608591D01*
X833928Y608647D01*
X833930Y608703D01*
X833936Y608760D01*
X833945Y608815D01*
X833959Y608870D01*
X833976Y608924D01*
X833997Y608976D01*
X834021Y609027D01*
X834049Y609076D01*
X834081Y609123D01*
X834115Y609168D01*
X834152Y609210D01*
X834192Y609250D01*
X834235Y609286D01*
X834281Y609320D01*
X834328Y609351D01*
X834378Y609378D01*
X834429Y609402D01*
X834481Y609422D01*
X834481Y609421D02*
X834578Y609466D01*
X834676Y609508D01*
X834775Y609547D01*
X834875Y609582D01*
X834976Y609614D01*
X835079Y609643D01*
X835182Y609669D01*
X835286Y609691D01*
X835390Y609710D01*
X835496Y609725D01*
X835601Y609738D01*
X835707Y609746D01*
X835814Y609751D01*
X835920Y609753D01*
X835920Y607540D02*
X836026Y607542D01*
X836133Y607547D01*
X836239Y607555D01*
X836344Y607568D01*
X836450Y607583D01*
X836554Y607602D01*
X836658Y607624D01*
X836761Y607650D01*
X836864Y607679D01*
X836965Y607711D01*
X837065Y607746D01*
X837164Y607785D01*
X837262Y607827D01*
X837359Y607872D01*
X837411Y607892D01*
X837463Y607916D01*
X837512Y607943D01*
X837559Y607974D01*
X837605Y608008D01*
X837648Y608044D01*
X837688Y608084D01*
X837725Y608126D01*
X837759Y608171D01*
X837791Y608218D01*
X837819Y608267D01*
X837843Y608318D01*
X837864Y608370D01*
X837881Y608424D01*
X837895Y608479D01*
X837904Y608534D01*
X837910Y608591D01*
X837912Y608647D01*
X837359Y609421D02*
X837262Y609466D01*
X837164Y609508D01*
X837065Y609547D01*
X836965Y609582D01*
X836864Y609614D01*
X836761Y609643D01*
X836658Y609669D01*
X836554Y609691D01*
X836450Y609710D01*
X836344Y609725D01*
X836239Y609738D01*
X836133Y609746D01*
X836026Y609751D01*
X835920Y609753D01*
X837359Y609422D02*
X837411Y609402D01*
X837463Y609378D01*
X837512Y609351D01*
X837559Y609320D01*
X837605Y609286D01*
X837648Y609250D01*
X837688Y609210D01*
X837725Y609168D01*
X837759Y609123D01*
X837791Y609076D01*
X837819Y609027D01*
X837843Y608976D01*
X837864Y608924D01*
X837881Y608870D01*
X837895Y608815D01*
X837904Y608760D01*
X837910Y608703D01*
X837912Y608647D01*
X837027Y607761D02*
X834813Y609532D01*
X837912Y612040D02*
X837912Y613368D01*
X837910Y613426D01*
X837904Y613484D01*
X837895Y613541D01*
X837882Y613597D01*
X837865Y613652D01*
X837845Y613707D01*
X837821Y613759D01*
X837793Y613811D01*
X837763Y613860D01*
X837729Y613907D01*
X837692Y613952D01*
X837653Y613994D01*
X837611Y614033D01*
X837566Y614070D01*
X837519Y614104D01*
X837470Y614134D01*
X837418Y614162D01*
X837366Y614186D01*
X837311Y614206D01*
X837256Y614223D01*
X837200Y614236D01*
X837143Y614245D01*
X837085Y614251D01*
X837027Y614253D01*
X836584Y614253D01*
X836526Y614251D01*
X836468Y614245D01*
X836411Y614236D01*
X836355Y614223D01*
X836300Y614206D01*
X836245Y614186D01*
X836193Y614162D01*
X836142Y614134D01*
X836092Y614104D01*
X836045Y614070D01*
X836000Y614033D01*
X835958Y613994D01*
X835919Y613952D01*
X835882Y613907D01*
X835848Y613860D01*
X835818Y613811D01*
X835790Y613759D01*
X835766Y613707D01*
X835746Y613652D01*
X835729Y613597D01*
X835716Y613541D01*
X835707Y613484D01*
X835701Y613426D01*
X835699Y613368D01*
X835699Y612040D01*
X833928Y612040D01*
X833928Y614253D01*
X837912Y616540D02*
X837912Y617868D01*
X837910Y617926D01*
X837904Y617984D01*
X837895Y618041D01*
X837882Y618097D01*
X837865Y618152D01*
X837845Y618207D01*
X837821Y618259D01*
X837793Y618311D01*
X837763Y618360D01*
X837729Y618407D01*
X837692Y618452D01*
X837653Y618494D01*
X837611Y618533D01*
X837566Y618570D01*
X837519Y618604D01*
X837470Y618634D01*
X837418Y618662D01*
X837366Y618686D01*
X837311Y618706D01*
X837256Y618723D01*
X837200Y618736D01*
X837143Y618745D01*
X837085Y618751D01*
X837027Y618753D01*
X836584Y618753D01*
X836526Y618751D01*
X836468Y618745D01*
X836411Y618736D01*
X836355Y618723D01*
X836300Y618706D01*
X836245Y618686D01*
X836193Y618662D01*
X836142Y618634D01*
X836092Y618604D01*
X836045Y618570D01*
X836000Y618533D01*
X835958Y618494D01*
X835919Y618452D01*
X835882Y618407D01*
X835848Y618360D01*
X835818Y618311D01*
X835790Y618259D01*
X835766Y618207D01*
X835746Y618152D01*
X835729Y618097D01*
X835716Y618041D01*
X835707Y617984D01*
X835701Y617926D01*
X835699Y617868D01*
X835699Y616540D01*
X833928Y616540D01*
X833928Y618753D01*
D16*
X777000Y591700D02*
X777000Y575700D01*
X810000Y575700D02*
X810000Y591700D01*
X797500Y594200D02*
X789500Y594200D01*
D13*
X789788Y589192D02*
X789788Y586315D01*
X789790Y586249D01*
X789796Y586184D01*
X789805Y586119D01*
X789819Y586055D01*
X789836Y585992D01*
X789857Y585930D01*
X789882Y585869D01*
X789910Y585810D01*
X789942Y585752D01*
X789977Y585697D01*
X790015Y585643D01*
X790056Y585592D01*
X790101Y585544D01*
X790148Y585498D01*
X790197Y585455D01*
X790250Y585416D01*
X790304Y585379D01*
X790361Y585346D01*
X790419Y585316D01*
X790479Y585289D01*
X790540Y585266D01*
X790603Y585247D01*
X790667Y585232D01*
X790732Y585220D01*
X790797Y585212D01*
X790862Y585208D01*
X790928Y585208D01*
X790993Y585212D01*
X791058Y585220D01*
X791123Y585232D01*
X791187Y585247D01*
X791250Y585266D01*
X791311Y585289D01*
X791371Y585316D01*
X791429Y585346D01*
X791486Y585379D01*
X791540Y585416D01*
X791593Y585455D01*
X791642Y585498D01*
X791689Y585544D01*
X791734Y585592D01*
X791775Y585643D01*
X791813Y585697D01*
X791848Y585752D01*
X791880Y585810D01*
X791908Y585869D01*
X791933Y585930D01*
X791954Y585992D01*
X791971Y586055D01*
X791985Y586119D01*
X791994Y586184D01*
X792000Y586249D01*
X792002Y586315D01*
X792001Y586315D02*
X792001Y589192D01*
X795655Y589192D02*
X795715Y589190D01*
X795775Y589185D01*
X795835Y589176D01*
X795893Y589163D01*
X795951Y589147D01*
X796008Y589127D01*
X796064Y589104D01*
X796118Y589078D01*
X796170Y589048D01*
X796221Y589016D01*
X796269Y588980D01*
X796315Y588942D01*
X796359Y588900D01*
X796401Y588856D01*
X796439Y588810D01*
X796475Y588762D01*
X796507Y588711D01*
X796537Y588659D01*
X796563Y588605D01*
X796586Y588549D01*
X796606Y588492D01*
X796622Y588434D01*
X796635Y588376D01*
X796644Y588316D01*
X796649Y588256D01*
X796651Y588196D01*
X795655Y589192D02*
X795585Y589190D01*
X795515Y589184D01*
X795446Y589175D01*
X795377Y589162D01*
X795309Y589144D01*
X795243Y589124D01*
X795177Y589099D01*
X795113Y589071D01*
X795050Y589040D01*
X794989Y589005D01*
X794931Y588967D01*
X794874Y588926D01*
X794820Y588882D01*
X794768Y588835D01*
X794719Y588785D01*
X794673Y588733D01*
X794629Y588678D01*
X794589Y588620D01*
X794552Y588561D01*
X794518Y588500D01*
X794488Y588437D01*
X794461Y588372D01*
X794437Y588306D01*
X796320Y587421D02*
X796363Y587465D01*
X796404Y587512D01*
X796443Y587560D01*
X796478Y587611D01*
X796510Y587664D01*
X796539Y587718D01*
X796565Y587775D01*
X796588Y587832D01*
X796608Y587891D01*
X796623Y587951D01*
X796636Y588011D01*
X796645Y588072D01*
X796650Y588134D01*
X796652Y588196D01*
X796319Y587421D02*
X794438Y585208D01*
X796651Y585208D01*
D14*
X862100Y603028D02*
X862102Y602925D01*
X862108Y602822D01*
X862117Y602719D01*
X862130Y602616D01*
X862147Y602514D01*
X862168Y602413D01*
X862192Y602313D01*
X862220Y602213D01*
X862251Y602115D01*
X862287Y602018D01*
X862325Y601922D01*
X862367Y601828D01*
X862413Y601735D01*
X862462Y601644D01*
X862514Y601555D01*
X862569Y601468D01*
X862628Y601383D01*
X862690Y601300D01*
X862754Y601219D01*
X862822Y601141D01*
X862892Y601065D01*
X862965Y600992D01*
X863041Y600922D01*
X863119Y600854D01*
X863200Y600790D01*
X863283Y600728D01*
X863368Y600669D01*
X863455Y600614D01*
X863544Y600562D01*
X863635Y600513D01*
X863728Y600467D01*
X863822Y600425D01*
X863918Y600387D01*
X864015Y600351D01*
X864113Y600320D01*
X864213Y600292D01*
X864313Y600268D01*
X864414Y600247D01*
X864516Y600230D01*
X864619Y600217D01*
X864722Y600208D01*
X864825Y600202D01*
X864928Y600200D01*
X862100Y603028D02*
X862100Y629372D01*
X862102Y629475D01*
X862108Y629578D01*
X862117Y629681D01*
X862130Y629784D01*
X862147Y629886D01*
X862168Y629987D01*
X862192Y630087D01*
X862220Y630187D01*
X862251Y630285D01*
X862287Y630382D01*
X862325Y630478D01*
X862367Y630572D01*
X862413Y630665D01*
X862462Y630756D01*
X862514Y630845D01*
X862569Y630932D01*
X862628Y631017D01*
X862690Y631100D01*
X862754Y631181D01*
X862822Y631259D01*
X862892Y631335D01*
X862965Y631408D01*
X863041Y631478D01*
X863119Y631546D01*
X863200Y631610D01*
X863283Y631672D01*
X863368Y631731D01*
X863455Y631786D01*
X863544Y631838D01*
X863635Y631887D01*
X863728Y631933D01*
X863822Y631975D01*
X863918Y632013D01*
X864015Y632049D01*
X864113Y632080D01*
X864213Y632108D01*
X864313Y632132D01*
X864414Y632153D01*
X864516Y632170D01*
X864619Y632183D01*
X864722Y632192D01*
X864825Y632198D01*
X864928Y632200D01*
X873864Y632200D01*
X873956Y632198D01*
X874049Y632192D01*
X874141Y632183D01*
X874232Y632170D01*
X874323Y632152D01*
X874413Y632132D01*
X874502Y632107D01*
X874590Y632079D01*
X874677Y632047D01*
X874762Y632012D01*
X874846Y631973D01*
X874928Y631931D01*
X875009Y631885D01*
X875087Y631836D01*
X875163Y631784D01*
X875237Y631729D01*
X875309Y631670D01*
X875378Y631609D01*
X875445Y631545D01*
X875509Y631478D01*
X875570Y631409D01*
X875629Y631337D01*
X875684Y631263D01*
X875736Y631187D01*
X875785Y631109D01*
X875831Y631028D01*
X875873Y630946D01*
X875912Y630862D01*
X875947Y630777D01*
X875979Y630690D01*
X876007Y630602D01*
X876032Y630513D01*
X876052Y630423D01*
X876070Y630332D01*
X876083Y630241D01*
X876092Y630149D01*
X876098Y630056D01*
X876100Y629964D01*
X876100Y603362D01*
X876098Y603252D01*
X876092Y603141D01*
X876083Y603031D01*
X876069Y602922D01*
X876052Y602813D01*
X876031Y602705D01*
X876006Y602597D01*
X875978Y602490D01*
X875945Y602385D01*
X875909Y602281D01*
X875870Y602177D01*
X875827Y602076D01*
X875780Y601976D01*
X875730Y601878D01*
X875676Y601781D01*
X875620Y601686D01*
X875559Y601594D01*
X875496Y601503D01*
X875430Y601415D01*
X875360Y601330D01*
X875288Y601246D01*
X875213Y601165D01*
X875135Y601087D01*
X875054Y601012D01*
X874970Y600940D01*
X874885Y600870D01*
X874797Y600804D01*
X874706Y600741D01*
X874614Y600680D01*
X874519Y600624D01*
X874422Y600570D01*
X874324Y600520D01*
X874224Y600473D01*
X874123Y600430D01*
X874019Y600391D01*
X873915Y600355D01*
X873810Y600322D01*
X873703Y600294D01*
X873595Y600269D01*
X873487Y600248D01*
X873378Y600231D01*
X873269Y600217D01*
X873159Y600208D01*
X873048Y600202D01*
X872938Y600200D01*
X864928Y600200D01*
X873100Y606200D02*
X873100Y627200D01*
X873100Y606200D02*
X873098Y606093D01*
X873092Y605986D01*
X873083Y605879D01*
X873069Y605773D01*
X873052Y605667D01*
X873031Y605562D01*
X873007Y605458D01*
X872978Y605355D01*
X872946Y605253D01*
X872911Y605152D01*
X872871Y605052D01*
X872829Y604954D01*
X872782Y604857D01*
X872733Y604762D01*
X872680Y604669D01*
X872623Y604578D01*
X872564Y604489D01*
X872501Y604402D01*
X872436Y604318D01*
X872367Y604236D01*
X872295Y604156D01*
X872221Y604079D01*
X872144Y604005D01*
X872064Y603933D01*
X871982Y603864D01*
X871898Y603799D01*
X871811Y603736D01*
X871722Y603677D01*
X871631Y603620D01*
X871538Y603567D01*
X871443Y603518D01*
X871346Y603471D01*
X871248Y603429D01*
X871148Y603389D01*
X871047Y603354D01*
X870945Y603322D01*
X870842Y603293D01*
X870738Y603269D01*
X870633Y603248D01*
X870527Y603231D01*
X870421Y603217D01*
X870314Y603208D01*
X870207Y603202D01*
X870100Y603200D01*
X868100Y603200D01*
X867993Y603202D01*
X867886Y603208D01*
X867779Y603217D01*
X867673Y603231D01*
X867567Y603248D01*
X867462Y603269D01*
X867358Y603293D01*
X867255Y603322D01*
X867153Y603354D01*
X867052Y603389D01*
X866952Y603428D01*
X866854Y603471D01*
X866757Y603517D01*
X866662Y603567D01*
X866569Y603620D01*
X866478Y603676D01*
X866389Y603736D01*
X866302Y603798D01*
X866218Y603864D01*
X866135Y603933D01*
X866056Y604004D01*
X865979Y604079D01*
X865904Y604156D01*
X865833Y604235D01*
X865764Y604318D01*
X865698Y604402D01*
X865636Y604489D01*
X865576Y604578D01*
X865520Y604669D01*
X865467Y604762D01*
X865417Y604857D01*
X865371Y604954D01*
X865328Y605052D01*
X865289Y605152D01*
X865254Y605253D01*
X865222Y605355D01*
X865193Y605458D01*
X865169Y605562D01*
X865148Y605667D01*
X865131Y605773D01*
X865117Y605879D01*
X865108Y605986D01*
X865102Y606093D01*
X865100Y606200D01*
X865100Y626200D01*
X865082Y626298D01*
X865068Y626398D01*
X865058Y626497D01*
X865052Y626597D01*
X865050Y626697D01*
X865052Y626797D01*
X865058Y626897D01*
X865067Y626997D01*
X865081Y627096D01*
X865098Y627195D01*
X865120Y627293D01*
X865145Y627390D01*
X865174Y627485D01*
X865207Y627580D01*
X865243Y627673D01*
X865283Y627765D01*
X865327Y627855D01*
X865374Y627944D01*
X865424Y628030D01*
X865478Y628114D01*
X865535Y628197D01*
X865596Y628277D01*
X865659Y628354D01*
X865726Y628429D01*
X865795Y628501D01*
X865867Y628571D01*
X865942Y628637D01*
X866019Y628701D01*
X866099Y628761D01*
X866181Y628819D01*
X866265Y628873D01*
X866352Y628924D01*
X866440Y628971D01*
X866530Y629015D01*
X866622Y629055D01*
X866715Y629091D01*
X866809Y629124D01*
X866905Y629154D01*
X867002Y629179D01*
X867100Y629200D01*
X870100Y629200D01*
X870199Y629218D01*
X870298Y629232D01*
X870398Y629242D01*
X870498Y629248D01*
X870598Y629250D01*
X870698Y629248D01*
X870798Y629242D01*
X870897Y629233D01*
X870997Y629219D01*
X871095Y629202D01*
X871193Y629180D01*
X871290Y629155D01*
X871386Y629126D01*
X871481Y629093D01*
X871574Y629057D01*
X871666Y629017D01*
X871756Y628973D01*
X871844Y628926D01*
X871931Y628876D01*
X872015Y628822D01*
X872097Y628765D01*
X872177Y628704D01*
X872255Y628641D01*
X872329Y628574D01*
X872402Y628505D01*
X872471Y628433D01*
X872538Y628358D01*
X872601Y628281D01*
X872662Y628201D01*
X872719Y628119D01*
X872773Y628035D01*
X872824Y627948D01*
X872871Y627860D01*
X872915Y627770D01*
X872955Y627678D01*
X872992Y627585D01*
X873025Y627491D01*
X873054Y627395D01*
X873079Y627298D01*
X873101Y627200D01*
D11*
X865054Y635354D02*
X868049Y639846D01*
X865054Y639846D02*
X868049Y635354D01*
X872299Y638723D02*
X872297Y638788D01*
X872291Y638853D01*
X872282Y638918D01*
X872269Y638982D01*
X872252Y639045D01*
X872231Y639107D01*
X872207Y639168D01*
X872180Y639227D01*
X872149Y639285D01*
X872114Y639340D01*
X872077Y639394D01*
X872036Y639445D01*
X871993Y639494D01*
X871947Y639540D01*
X871898Y639583D01*
X871847Y639624D01*
X871793Y639661D01*
X871738Y639696D01*
X871680Y639727D01*
X871621Y639754D01*
X871560Y639778D01*
X871498Y639799D01*
X871435Y639816D01*
X871371Y639829D01*
X871306Y639838D01*
X871241Y639844D01*
X871176Y639846D01*
X871103Y639844D01*
X871031Y639839D01*
X870959Y639830D01*
X870888Y639817D01*
X870817Y639801D01*
X870747Y639781D01*
X870678Y639757D01*
X870611Y639731D01*
X870545Y639701D01*
X870480Y639667D01*
X870418Y639631D01*
X870357Y639591D01*
X870298Y639548D01*
X870242Y639503D01*
X870188Y639454D01*
X870136Y639403D01*
X870087Y639350D01*
X870041Y639294D01*
X869997Y639236D01*
X869957Y639175D01*
X869920Y639113D01*
X869886Y639049D01*
X869855Y638983D01*
X869827Y638916D01*
X869803Y638848D01*
X871925Y637850D02*
X871971Y637896D01*
X872014Y637944D01*
X872055Y637995D01*
X872093Y638048D01*
X872128Y638103D01*
X872159Y638160D01*
X872188Y638218D01*
X872214Y638278D01*
X872236Y638339D01*
X872255Y638401D01*
X872271Y638465D01*
X872283Y638529D01*
X872292Y638593D01*
X872297Y638658D01*
X872299Y638723D01*
X871925Y637850D02*
X869804Y635354D01*
X872299Y635354D01*
D16*
X704700Y650000D02*
X704700Y590000D01*
X734000Y660500D02*
X743500Y660500D01*
X743500Y650000D01*
X743500Y590000D02*
X743500Y579500D01*
X734000Y579500D01*
D11*
X715248Y618434D02*
X711754Y618434D01*
X715248Y618434D02*
X715308Y618432D01*
X715368Y618427D01*
X715428Y618418D01*
X715487Y618405D01*
X715545Y618389D01*
X715602Y618369D01*
X715658Y618346D01*
X715712Y618320D01*
X715764Y618290D01*
X715815Y618257D01*
X715863Y618222D01*
X715910Y618183D01*
X715954Y618142D01*
X715995Y618098D01*
X716034Y618051D01*
X716069Y618003D01*
X716102Y617952D01*
X716132Y617900D01*
X716158Y617846D01*
X716181Y617790D01*
X716201Y617733D01*
X716217Y617675D01*
X716230Y617616D01*
X716239Y617556D01*
X716244Y617496D01*
X716246Y617436D01*
X716246Y616937D01*
X712752Y620568D02*
X711754Y621815D01*
X716246Y621815D01*
X716246Y620568D02*
X716246Y623063D01*
M02*
