G04 EAGLE Gerber RS-274X export*
G75*
%MOMM*%
%FSLAX34Y34*%
%LPD*%
%INSilkscreen Top*%
%IPPOS*%
%AMOC8*
5,1,8,0,0,1.08239X$1,22.5*%
G01*
%ADD10C,0.050800*%
%ADD11C,0.203200*%
%ADD12C,0.127000*%


D10*
X379914Y67464D02*
X386906Y67464D01*
X386906Y70571D01*
X386906Y73668D02*
X379914Y73668D01*
X386906Y72892D02*
X386906Y74445D01*
X379914Y74445D02*
X379914Y72892D01*
X386906Y79232D02*
X386904Y79308D01*
X386899Y79384D01*
X386889Y79460D01*
X386876Y79535D01*
X386859Y79610D01*
X386839Y79683D01*
X386815Y79756D01*
X386788Y79827D01*
X386757Y79896D01*
X386723Y79965D01*
X386685Y80031D01*
X386644Y80095D01*
X386600Y80158D01*
X386553Y80218D01*
X386503Y80276D01*
X386451Y80331D01*
X386396Y80383D01*
X386338Y80433D01*
X386278Y80480D01*
X386215Y80524D01*
X386151Y80565D01*
X386085Y80603D01*
X386016Y80637D01*
X385947Y80668D01*
X385876Y80695D01*
X385803Y80719D01*
X385730Y80739D01*
X385655Y80756D01*
X385580Y80769D01*
X385504Y80779D01*
X385428Y80784D01*
X385352Y80786D01*
X386906Y79232D02*
X386904Y79119D01*
X386898Y79007D01*
X386889Y78895D01*
X386875Y78783D01*
X386858Y78671D01*
X386837Y78561D01*
X386812Y78451D01*
X386783Y78342D01*
X386751Y78234D01*
X386715Y78127D01*
X386675Y78022D01*
X386631Y77918D01*
X386585Y77815D01*
X386534Y77715D01*
X386480Y77616D01*
X386423Y77519D01*
X386363Y77424D01*
X386299Y77331D01*
X386232Y77240D01*
X386162Y77152D01*
X386089Y77066D01*
X386014Y76982D01*
X385935Y76902D01*
X381468Y77095D02*
X381392Y77097D01*
X381316Y77102D01*
X381240Y77112D01*
X381165Y77125D01*
X381090Y77142D01*
X381017Y77162D01*
X380944Y77186D01*
X380873Y77213D01*
X380804Y77244D01*
X380735Y77278D01*
X380669Y77316D01*
X380605Y77357D01*
X380542Y77401D01*
X380482Y77448D01*
X380424Y77498D01*
X380369Y77550D01*
X380317Y77605D01*
X380267Y77663D01*
X380220Y77723D01*
X380176Y77786D01*
X380135Y77850D01*
X380097Y77916D01*
X380063Y77985D01*
X380032Y78054D01*
X380005Y78125D01*
X379981Y78198D01*
X379961Y78271D01*
X379944Y78346D01*
X379931Y78421D01*
X379921Y78497D01*
X379916Y78573D01*
X379914Y78649D01*
X379916Y78753D01*
X379921Y78857D01*
X379931Y78961D01*
X379944Y79064D01*
X379960Y79167D01*
X379981Y79269D01*
X380005Y79370D01*
X380032Y79471D01*
X380063Y79570D01*
X380098Y79668D01*
X380136Y79765D01*
X380178Y79861D01*
X380223Y79955D01*
X380271Y80047D01*
X380323Y80137D01*
X380378Y80226D01*
X380436Y80312D01*
X380497Y80397D01*
X382827Y77873D02*
X382786Y77807D01*
X382742Y77743D01*
X382694Y77681D01*
X382644Y77621D01*
X382590Y77565D01*
X382534Y77510D01*
X382475Y77459D01*
X382414Y77411D01*
X382350Y77366D01*
X382285Y77324D01*
X382217Y77285D01*
X382147Y77250D01*
X382076Y77218D01*
X382003Y77190D01*
X381929Y77165D01*
X381854Y77144D01*
X381778Y77127D01*
X381701Y77113D01*
X381624Y77104D01*
X381546Y77098D01*
X381468Y77096D01*
X383992Y80009D02*
X384034Y80075D01*
X384078Y80139D01*
X384126Y80201D01*
X384176Y80261D01*
X384230Y80317D01*
X384286Y80372D01*
X384345Y80423D01*
X384406Y80471D01*
X384470Y80516D01*
X384535Y80558D01*
X384603Y80597D01*
X384673Y80632D01*
X384744Y80664D01*
X384817Y80692D01*
X384891Y80717D01*
X384966Y80738D01*
X385042Y80755D01*
X385119Y80769D01*
X385196Y80778D01*
X385274Y80784D01*
X385352Y80786D01*
X383993Y80009D02*
X382827Y77872D01*
X379914Y83038D02*
X386906Y85368D01*
X379914Y87699D01*
X384187Y93838D02*
X384187Y98499D01*
X386906Y106562D02*
X386906Y108116D01*
X386906Y106562D02*
X386904Y106486D01*
X386899Y106410D01*
X386889Y106334D01*
X386876Y106259D01*
X386859Y106184D01*
X386839Y106111D01*
X386815Y106038D01*
X386788Y105967D01*
X386757Y105898D01*
X386723Y105829D01*
X386685Y105763D01*
X386644Y105699D01*
X386600Y105636D01*
X386553Y105576D01*
X386503Y105518D01*
X386451Y105463D01*
X386396Y105411D01*
X386338Y105361D01*
X386278Y105314D01*
X386215Y105270D01*
X386151Y105229D01*
X386085Y105191D01*
X386016Y105157D01*
X385947Y105126D01*
X385876Y105099D01*
X385803Y105075D01*
X385730Y105055D01*
X385655Y105038D01*
X385580Y105025D01*
X385504Y105015D01*
X385428Y105010D01*
X385352Y105008D01*
X381468Y105008D01*
X381389Y105010D01*
X381311Y105016D01*
X381233Y105026D01*
X381155Y105040D01*
X381078Y105058D01*
X381003Y105079D01*
X380928Y105105D01*
X380855Y105134D01*
X380784Y105167D01*
X380714Y105203D01*
X380646Y105243D01*
X380580Y105287D01*
X380517Y105333D01*
X380456Y105383D01*
X380397Y105436D01*
X380342Y105491D01*
X380289Y105550D01*
X380239Y105611D01*
X380193Y105674D01*
X380149Y105740D01*
X380109Y105808D01*
X380073Y105878D01*
X380040Y105949D01*
X380011Y106022D01*
X379985Y106097D01*
X379964Y106172D01*
X379946Y106249D01*
X379932Y106327D01*
X379922Y106405D01*
X379916Y106483D01*
X379914Y106562D01*
X379914Y108116D01*
X381856Y110651D02*
X384964Y110651D01*
X381856Y110651D02*
X381769Y110653D01*
X381682Y110659D01*
X381595Y110669D01*
X381509Y110682D01*
X381424Y110700D01*
X381339Y110721D01*
X381256Y110746D01*
X381174Y110775D01*
X381093Y110807D01*
X381013Y110843D01*
X380936Y110883D01*
X380860Y110926D01*
X380786Y110972D01*
X380715Y111022D01*
X380645Y111075D01*
X380578Y111131D01*
X380514Y111189D01*
X380452Y111251D01*
X380394Y111315D01*
X380338Y111382D01*
X380285Y111452D01*
X380235Y111523D01*
X380189Y111597D01*
X380146Y111673D01*
X380106Y111750D01*
X380070Y111830D01*
X380038Y111911D01*
X380009Y111993D01*
X379984Y112076D01*
X379963Y112161D01*
X379945Y112246D01*
X379932Y112332D01*
X379922Y112419D01*
X379916Y112506D01*
X379914Y112593D01*
X379916Y112680D01*
X379922Y112767D01*
X379932Y112854D01*
X379945Y112940D01*
X379963Y113025D01*
X379984Y113110D01*
X380009Y113193D01*
X380038Y113275D01*
X380070Y113356D01*
X380106Y113436D01*
X380146Y113513D01*
X380189Y113589D01*
X380235Y113663D01*
X380285Y113734D01*
X380338Y113804D01*
X380394Y113871D01*
X380452Y113935D01*
X380514Y113997D01*
X380578Y114055D01*
X380645Y114111D01*
X380715Y114164D01*
X380786Y114214D01*
X380860Y114260D01*
X380936Y114303D01*
X381013Y114343D01*
X381093Y114379D01*
X381174Y114411D01*
X381256Y114440D01*
X381339Y114465D01*
X381424Y114486D01*
X381509Y114504D01*
X381595Y114517D01*
X381682Y114527D01*
X381769Y114533D01*
X381856Y114535D01*
X381856Y114536D02*
X384964Y114536D01*
X384964Y114535D02*
X385051Y114533D01*
X385138Y114527D01*
X385225Y114517D01*
X385311Y114504D01*
X385396Y114486D01*
X385481Y114465D01*
X385564Y114440D01*
X385646Y114411D01*
X385727Y114379D01*
X385807Y114343D01*
X385884Y114303D01*
X385960Y114260D01*
X386034Y114214D01*
X386105Y114164D01*
X386175Y114111D01*
X386242Y114055D01*
X386306Y113997D01*
X386368Y113935D01*
X386426Y113871D01*
X386482Y113804D01*
X386535Y113734D01*
X386585Y113663D01*
X386631Y113589D01*
X386674Y113513D01*
X386714Y113436D01*
X386750Y113356D01*
X386782Y113275D01*
X386811Y113193D01*
X386836Y113110D01*
X386857Y113025D01*
X386875Y112940D01*
X386888Y112854D01*
X386898Y112767D01*
X386904Y112680D01*
X386906Y112593D01*
X386904Y112506D01*
X386898Y112419D01*
X386888Y112332D01*
X386875Y112246D01*
X386857Y112161D01*
X386836Y112076D01*
X386811Y111993D01*
X386782Y111911D01*
X386750Y111830D01*
X386714Y111750D01*
X386674Y111673D01*
X386631Y111597D01*
X386585Y111523D01*
X386535Y111452D01*
X386482Y111382D01*
X386426Y111315D01*
X386368Y111251D01*
X386306Y111189D01*
X386242Y111131D01*
X386175Y111075D01*
X386105Y111022D01*
X386034Y110972D01*
X385960Y110926D01*
X385884Y110883D01*
X385807Y110843D01*
X385727Y110807D01*
X385646Y110775D01*
X385564Y110746D01*
X385481Y110721D01*
X385396Y110700D01*
X385311Y110682D01*
X385225Y110669D01*
X385138Y110659D01*
X385051Y110653D01*
X384964Y110651D01*
X386906Y117013D02*
X379914Y119343D01*
X386906Y121674D01*
X385158Y121091D02*
X385158Y117595D01*
X386906Y124438D02*
X379914Y124438D01*
X383798Y126768D01*
X379914Y129099D01*
X386906Y129099D01*
X391164Y67464D02*
X398156Y67464D01*
X395048Y69794D02*
X391164Y67464D01*
X395048Y69794D02*
X391164Y72125D01*
X398156Y72125D01*
X398156Y76381D02*
X398156Y78323D01*
X398156Y76381D02*
X398154Y76316D01*
X398149Y76251D01*
X398140Y76186D01*
X398127Y76122D01*
X398110Y76058D01*
X398091Y75996D01*
X398067Y75935D01*
X398041Y75876D01*
X398011Y75817D01*
X397977Y75761D01*
X397941Y75707D01*
X397902Y75655D01*
X397860Y75605D01*
X397815Y75557D01*
X397767Y75512D01*
X397717Y75470D01*
X397665Y75431D01*
X397611Y75395D01*
X397555Y75361D01*
X397496Y75331D01*
X397437Y75305D01*
X397376Y75281D01*
X397314Y75262D01*
X397250Y75245D01*
X397186Y75232D01*
X397121Y75223D01*
X397056Y75218D01*
X396991Y75216D01*
X396991Y75215D02*
X395048Y75215D01*
X394971Y75217D01*
X394893Y75223D01*
X394816Y75232D01*
X394740Y75246D01*
X394665Y75263D01*
X394590Y75284D01*
X394517Y75309D01*
X394444Y75337D01*
X394374Y75369D01*
X394305Y75404D01*
X394238Y75443D01*
X394173Y75485D01*
X394110Y75530D01*
X394049Y75579D01*
X393991Y75630D01*
X393936Y75684D01*
X393883Y75741D01*
X393833Y75800D01*
X393786Y75862D01*
X393743Y75926D01*
X393702Y75992D01*
X393665Y76060D01*
X393632Y76130D01*
X393601Y76201D01*
X393575Y76274D01*
X393552Y76348D01*
X393533Y76423D01*
X393518Y76499D01*
X393506Y76576D01*
X393498Y76653D01*
X393494Y76730D01*
X393494Y76808D01*
X393498Y76885D01*
X393506Y76962D01*
X393518Y77039D01*
X393533Y77115D01*
X393552Y77190D01*
X393575Y77264D01*
X393601Y77337D01*
X393632Y77408D01*
X393665Y77478D01*
X393702Y77546D01*
X393743Y77612D01*
X393786Y77676D01*
X393833Y77738D01*
X393883Y77797D01*
X393936Y77854D01*
X393991Y77908D01*
X394049Y77959D01*
X394110Y78008D01*
X394173Y78053D01*
X394238Y78095D01*
X394305Y78134D01*
X394374Y78169D01*
X394444Y78201D01*
X394517Y78229D01*
X394590Y78254D01*
X394665Y78275D01*
X394740Y78292D01*
X394816Y78306D01*
X394893Y78315D01*
X394971Y78321D01*
X395048Y78323D01*
X395825Y78323D01*
X395825Y75215D01*
X396991Y81164D02*
X391164Y81164D01*
X396991Y81165D02*
X397056Y81167D01*
X397121Y81172D01*
X397186Y81181D01*
X397250Y81194D01*
X397314Y81211D01*
X397376Y81230D01*
X397437Y81254D01*
X397496Y81280D01*
X397555Y81310D01*
X397611Y81344D01*
X397665Y81380D01*
X397717Y81419D01*
X397767Y81461D01*
X397815Y81506D01*
X397860Y81554D01*
X397902Y81604D01*
X397941Y81656D01*
X397977Y81710D01*
X398011Y81766D01*
X398041Y81825D01*
X398067Y81884D01*
X398091Y81945D01*
X398110Y82007D01*
X398127Y82071D01*
X398140Y82135D01*
X398149Y82200D01*
X398154Y82265D01*
X398156Y82330D01*
X400487Y84440D02*
X400487Y85217D01*
X393495Y87548D01*
X393495Y84440D02*
X398156Y85994D01*
X394272Y96671D02*
X394272Y97836D01*
X398156Y97836D01*
X398156Y95506D01*
X398154Y95430D01*
X398149Y95354D01*
X398139Y95278D01*
X398126Y95203D01*
X398109Y95128D01*
X398089Y95055D01*
X398065Y94982D01*
X398038Y94911D01*
X398007Y94842D01*
X397973Y94773D01*
X397935Y94707D01*
X397894Y94643D01*
X397850Y94580D01*
X397803Y94520D01*
X397753Y94462D01*
X397701Y94407D01*
X397646Y94355D01*
X397588Y94305D01*
X397528Y94258D01*
X397465Y94214D01*
X397401Y94173D01*
X397335Y94135D01*
X397266Y94101D01*
X397197Y94070D01*
X397126Y94043D01*
X397053Y94019D01*
X396980Y93999D01*
X396905Y93982D01*
X396830Y93969D01*
X396754Y93959D01*
X396678Y93954D01*
X396602Y93952D01*
X392718Y93952D01*
X392639Y93954D01*
X392561Y93960D01*
X392483Y93970D01*
X392405Y93984D01*
X392328Y94002D01*
X392253Y94023D01*
X392178Y94049D01*
X392105Y94078D01*
X392034Y94111D01*
X391964Y94147D01*
X391896Y94187D01*
X391830Y94231D01*
X391767Y94277D01*
X391706Y94327D01*
X391647Y94380D01*
X391592Y94435D01*
X391539Y94494D01*
X391489Y94555D01*
X391443Y94618D01*
X391399Y94684D01*
X391359Y94752D01*
X391323Y94822D01*
X391290Y94893D01*
X391261Y94966D01*
X391235Y95041D01*
X391214Y95116D01*
X391196Y95193D01*
X391182Y95271D01*
X391172Y95349D01*
X391166Y95427D01*
X391164Y95506D01*
X391164Y97836D01*
X391164Y102869D02*
X398156Y100538D01*
X398156Y105200D02*
X391164Y102869D01*
X396408Y104617D02*
X396408Y101121D01*
X398156Y107914D02*
X391164Y107914D01*
X398156Y107914D02*
X398156Y111022D01*
X398156Y115469D02*
X391164Y113138D01*
X391164Y117800D02*
X398156Y115469D01*
X398156Y120514D02*
X398156Y123622D01*
X398156Y120514D02*
X391164Y120514D01*
X391164Y123622D01*
X394272Y122845D02*
X394272Y120514D01*
X391164Y125902D02*
X391164Y129786D01*
X398156Y125902D01*
X398156Y129786D01*
X404162Y71348D02*
X404081Y71346D01*
X404001Y71341D01*
X403921Y71331D01*
X403841Y71318D01*
X403762Y71302D01*
X403684Y71281D01*
X403607Y71257D01*
X403531Y71230D01*
X403456Y71199D01*
X403383Y71165D01*
X403311Y71127D01*
X403242Y71086D01*
X403174Y71042D01*
X403109Y70995D01*
X403045Y70945D01*
X402984Y70892D01*
X402926Y70836D01*
X402870Y70778D01*
X402817Y70717D01*
X402767Y70653D01*
X402720Y70588D01*
X402676Y70520D01*
X402635Y70451D01*
X402597Y70379D01*
X402563Y70306D01*
X402532Y70231D01*
X402505Y70155D01*
X402481Y70078D01*
X402460Y70000D01*
X402444Y69921D01*
X402431Y69841D01*
X402421Y69761D01*
X402416Y69681D01*
X402414Y69600D01*
X402416Y69506D01*
X402422Y69412D01*
X402432Y69318D01*
X402446Y69225D01*
X402463Y69133D01*
X402485Y69041D01*
X402510Y68950D01*
X402539Y68861D01*
X402572Y68773D01*
X402608Y68686D01*
X402649Y68601D01*
X402692Y68517D01*
X402739Y68436D01*
X402790Y68356D01*
X402844Y68279D01*
X402901Y68204D01*
X402961Y68131D01*
X403024Y68062D01*
X403090Y67994D01*
X403158Y67930D01*
X403230Y67868D01*
X403303Y67810D01*
X403380Y67755D01*
X403458Y67703D01*
X403539Y67654D01*
X403621Y67609D01*
X403705Y67567D01*
X403792Y67529D01*
X403879Y67494D01*
X403968Y67463D01*
X405521Y70765D02*
X405462Y70825D01*
X405399Y70882D01*
X405335Y70937D01*
X405268Y70988D01*
X405198Y71036D01*
X405127Y71081D01*
X405053Y71123D01*
X404978Y71161D01*
X404901Y71196D01*
X404823Y71228D01*
X404743Y71256D01*
X404663Y71280D01*
X404581Y71301D01*
X404498Y71318D01*
X404415Y71331D01*
X404331Y71340D01*
X404246Y71346D01*
X404162Y71348D01*
X405522Y70765D02*
X409406Y67464D01*
X409406Y71348D01*
X405910Y74214D02*
X405765Y74216D01*
X405620Y74221D01*
X405475Y74230D01*
X405330Y74243D01*
X405186Y74260D01*
X405042Y74280D01*
X404899Y74303D01*
X404756Y74331D01*
X404614Y74362D01*
X404473Y74396D01*
X404333Y74434D01*
X404194Y74475D01*
X404056Y74520D01*
X403919Y74569D01*
X403783Y74621D01*
X403649Y74676D01*
X403516Y74735D01*
X403385Y74797D01*
X403315Y74823D01*
X403247Y74852D01*
X403181Y74885D01*
X403116Y74921D01*
X403053Y74961D01*
X402992Y75004D01*
X402934Y75050D01*
X402878Y75099D01*
X402825Y75150D01*
X402774Y75205D01*
X402726Y75261D01*
X402682Y75321D01*
X402640Y75382D01*
X402602Y75446D01*
X402567Y75511D01*
X402535Y75579D01*
X402507Y75647D01*
X402483Y75717D01*
X402462Y75789D01*
X402445Y75861D01*
X402431Y75934D01*
X402422Y76008D01*
X402416Y76082D01*
X402414Y76156D01*
X402416Y76230D01*
X402422Y76304D01*
X402431Y76378D01*
X402445Y76451D01*
X402462Y76523D01*
X402483Y76595D01*
X402507Y76665D01*
X402535Y76733D01*
X402567Y76801D01*
X402602Y76866D01*
X402640Y76930D01*
X402682Y76991D01*
X402726Y77051D01*
X402774Y77107D01*
X402825Y77162D01*
X402878Y77214D01*
X402934Y77262D01*
X402992Y77308D01*
X403053Y77351D01*
X403116Y77391D01*
X403181Y77427D01*
X403247Y77460D01*
X403315Y77489D01*
X403385Y77515D01*
X403516Y77577D01*
X403649Y77636D01*
X403783Y77691D01*
X403919Y77743D01*
X404056Y77792D01*
X404194Y77837D01*
X404333Y77878D01*
X404473Y77916D01*
X404614Y77950D01*
X404756Y77981D01*
X404899Y78009D01*
X405042Y78032D01*
X405186Y78052D01*
X405330Y78069D01*
X405475Y78082D01*
X405620Y78091D01*
X405765Y78096D01*
X405910Y78098D01*
X405910Y74214D02*
X406055Y74216D01*
X406200Y74221D01*
X406345Y74230D01*
X406490Y74243D01*
X406634Y74260D01*
X406778Y74280D01*
X406921Y74303D01*
X407064Y74331D01*
X407206Y74362D01*
X407347Y74396D01*
X407487Y74434D01*
X407626Y74475D01*
X407764Y74520D01*
X407901Y74569D01*
X408037Y74621D01*
X408171Y74676D01*
X408304Y74735D01*
X408435Y74797D01*
X408505Y74823D01*
X408573Y74852D01*
X408639Y74885D01*
X408704Y74921D01*
X408767Y74961D01*
X408828Y75004D01*
X408886Y75050D01*
X408942Y75099D01*
X408995Y75150D01*
X409046Y75205D01*
X409094Y75261D01*
X409138Y75321D01*
X409180Y75382D01*
X409218Y75446D01*
X409253Y75511D01*
X409285Y75579D01*
X409313Y75647D01*
X409337Y75717D01*
X409358Y75789D01*
X409375Y75861D01*
X409389Y75934D01*
X409398Y76008D01*
X409404Y76082D01*
X409406Y76156D01*
X408435Y77515D02*
X408304Y77577D01*
X408171Y77636D01*
X408037Y77691D01*
X407901Y77743D01*
X407764Y77792D01*
X407626Y77837D01*
X407487Y77878D01*
X407347Y77916D01*
X407206Y77950D01*
X407064Y77981D01*
X406921Y78009D01*
X406778Y78032D01*
X406634Y78052D01*
X406490Y78069D01*
X406345Y78082D01*
X406200Y78091D01*
X406055Y78096D01*
X405910Y78098D01*
X408435Y77515D02*
X408505Y77489D01*
X408573Y77460D01*
X408639Y77427D01*
X408704Y77391D01*
X408767Y77351D01*
X408828Y77308D01*
X408886Y77262D01*
X408942Y77213D01*
X408995Y77162D01*
X409046Y77107D01*
X409094Y77051D01*
X409138Y76991D01*
X409180Y76930D01*
X409218Y76866D01*
X409253Y76801D01*
X409285Y76733D01*
X409313Y76665D01*
X409337Y76595D01*
X409358Y76523D01*
X409375Y76451D01*
X409389Y76378D01*
X409398Y76304D01*
X409404Y76230D01*
X409406Y76156D01*
X407852Y74602D02*
X403968Y77710D01*
X402414Y83100D02*
X402416Y83181D01*
X402421Y83261D01*
X402431Y83341D01*
X402444Y83421D01*
X402460Y83500D01*
X402481Y83578D01*
X402505Y83655D01*
X402532Y83731D01*
X402563Y83806D01*
X402597Y83879D01*
X402635Y83951D01*
X402676Y84020D01*
X402720Y84088D01*
X402767Y84153D01*
X402817Y84217D01*
X402870Y84278D01*
X402926Y84336D01*
X402984Y84392D01*
X403045Y84445D01*
X403109Y84495D01*
X403174Y84542D01*
X403242Y84586D01*
X403311Y84627D01*
X403383Y84665D01*
X403456Y84699D01*
X403531Y84730D01*
X403607Y84757D01*
X403684Y84781D01*
X403762Y84802D01*
X403841Y84818D01*
X403921Y84831D01*
X404001Y84841D01*
X404081Y84846D01*
X404162Y84848D01*
X402414Y83100D02*
X402416Y83006D01*
X402422Y82912D01*
X402432Y82818D01*
X402446Y82725D01*
X402463Y82633D01*
X402485Y82541D01*
X402510Y82450D01*
X402539Y82361D01*
X402572Y82273D01*
X402608Y82186D01*
X402649Y82101D01*
X402692Y82017D01*
X402739Y81936D01*
X402790Y81856D01*
X402844Y81779D01*
X402901Y81704D01*
X402961Y81631D01*
X403024Y81562D01*
X403090Y81494D01*
X403158Y81430D01*
X403230Y81368D01*
X403303Y81310D01*
X403380Y81255D01*
X403458Y81203D01*
X403539Y81154D01*
X403621Y81109D01*
X403705Y81067D01*
X403792Y81029D01*
X403879Y80994D01*
X403968Y80963D01*
X405521Y84265D02*
X405462Y84325D01*
X405399Y84382D01*
X405335Y84437D01*
X405268Y84488D01*
X405198Y84536D01*
X405127Y84581D01*
X405053Y84623D01*
X404978Y84661D01*
X404901Y84696D01*
X404823Y84728D01*
X404743Y84756D01*
X404663Y84780D01*
X404581Y84801D01*
X404498Y84818D01*
X404415Y84831D01*
X404331Y84840D01*
X404246Y84846D01*
X404162Y84848D01*
X405522Y84265D02*
X409406Y80964D01*
X409406Y84848D01*
X405522Y87714D02*
X405522Y90044D01*
X405521Y90044D02*
X405523Y90120D01*
X405528Y90196D01*
X405538Y90272D01*
X405551Y90347D01*
X405568Y90422D01*
X405588Y90495D01*
X405612Y90568D01*
X405639Y90639D01*
X405670Y90708D01*
X405704Y90777D01*
X405742Y90843D01*
X405783Y90907D01*
X405827Y90970D01*
X405874Y91030D01*
X405924Y91088D01*
X405976Y91143D01*
X406031Y91195D01*
X406089Y91245D01*
X406149Y91292D01*
X406212Y91336D01*
X406276Y91377D01*
X406342Y91415D01*
X406411Y91449D01*
X406480Y91480D01*
X406551Y91507D01*
X406624Y91531D01*
X406697Y91551D01*
X406772Y91568D01*
X406847Y91581D01*
X406923Y91591D01*
X406999Y91596D01*
X407075Y91598D01*
X407464Y91598D01*
X407551Y91596D01*
X407638Y91590D01*
X407725Y91580D01*
X407811Y91567D01*
X407896Y91549D01*
X407981Y91528D01*
X408064Y91503D01*
X408146Y91474D01*
X408227Y91442D01*
X408307Y91406D01*
X408384Y91366D01*
X408460Y91323D01*
X408534Y91277D01*
X408605Y91227D01*
X408675Y91174D01*
X408742Y91118D01*
X408806Y91060D01*
X408868Y90998D01*
X408926Y90934D01*
X408982Y90867D01*
X409035Y90797D01*
X409085Y90726D01*
X409131Y90652D01*
X409174Y90576D01*
X409214Y90499D01*
X409250Y90419D01*
X409282Y90338D01*
X409311Y90256D01*
X409336Y90173D01*
X409357Y90088D01*
X409375Y90003D01*
X409388Y89917D01*
X409398Y89830D01*
X409404Y89743D01*
X409406Y89656D01*
X409404Y89569D01*
X409398Y89482D01*
X409388Y89395D01*
X409375Y89309D01*
X409357Y89224D01*
X409336Y89139D01*
X409311Y89056D01*
X409282Y88974D01*
X409250Y88893D01*
X409214Y88813D01*
X409174Y88736D01*
X409131Y88660D01*
X409085Y88586D01*
X409035Y88515D01*
X408982Y88445D01*
X408926Y88378D01*
X408868Y88314D01*
X408806Y88252D01*
X408742Y88194D01*
X408675Y88138D01*
X408605Y88085D01*
X408534Y88035D01*
X408460Y87989D01*
X408384Y87946D01*
X408307Y87906D01*
X408227Y87870D01*
X408146Y87838D01*
X408064Y87809D01*
X407981Y87784D01*
X407896Y87763D01*
X407811Y87745D01*
X407725Y87732D01*
X407638Y87722D01*
X407551Y87716D01*
X407464Y87714D01*
X405522Y87714D01*
X405522Y87713D02*
X405411Y87715D01*
X405300Y87721D01*
X405190Y87731D01*
X405080Y87745D01*
X404970Y87762D01*
X404861Y87784D01*
X404753Y87810D01*
X404646Y87839D01*
X404541Y87872D01*
X404436Y87909D01*
X404333Y87950D01*
X404231Y87994D01*
X404131Y88042D01*
X404033Y88093D01*
X403936Y88148D01*
X403842Y88206D01*
X403749Y88268D01*
X403659Y88333D01*
X403572Y88401D01*
X403487Y88472D01*
X403404Y88546D01*
X403324Y88623D01*
X403247Y88703D01*
X403173Y88786D01*
X403102Y88871D01*
X403034Y88958D01*
X402969Y89048D01*
X402907Y89141D01*
X402849Y89235D01*
X402794Y89331D01*
X402743Y89430D01*
X402695Y89530D01*
X402651Y89632D01*
X402610Y89735D01*
X402573Y89839D01*
X402540Y89945D01*
X402511Y90052D01*
X402485Y90160D01*
X402463Y90269D01*
X402446Y90379D01*
X402432Y90489D01*
X402422Y90599D01*
X402416Y90710D01*
X402414Y90821D01*
X406687Y94525D02*
X406687Y99186D01*
X405910Y102114D02*
X405765Y102116D01*
X405620Y102121D01*
X405475Y102130D01*
X405330Y102143D01*
X405186Y102160D01*
X405042Y102180D01*
X404899Y102203D01*
X404756Y102231D01*
X404614Y102262D01*
X404473Y102296D01*
X404333Y102334D01*
X404194Y102375D01*
X404056Y102420D01*
X403919Y102469D01*
X403783Y102521D01*
X403649Y102576D01*
X403516Y102635D01*
X403385Y102697D01*
X403315Y102723D01*
X403247Y102752D01*
X403181Y102785D01*
X403116Y102821D01*
X403053Y102861D01*
X402992Y102904D01*
X402934Y102950D01*
X402878Y102999D01*
X402825Y103050D01*
X402774Y103105D01*
X402726Y103161D01*
X402682Y103221D01*
X402640Y103282D01*
X402602Y103346D01*
X402567Y103411D01*
X402535Y103479D01*
X402507Y103547D01*
X402483Y103617D01*
X402462Y103689D01*
X402445Y103761D01*
X402431Y103834D01*
X402422Y103908D01*
X402416Y103982D01*
X402414Y104056D01*
X402416Y104130D01*
X402422Y104204D01*
X402431Y104278D01*
X402445Y104351D01*
X402462Y104423D01*
X402483Y104495D01*
X402507Y104565D01*
X402535Y104633D01*
X402567Y104701D01*
X402602Y104766D01*
X402640Y104830D01*
X402682Y104891D01*
X402726Y104951D01*
X402774Y105007D01*
X402825Y105062D01*
X402878Y105114D01*
X402934Y105162D01*
X402992Y105208D01*
X403053Y105251D01*
X403116Y105291D01*
X403181Y105327D01*
X403247Y105360D01*
X403315Y105389D01*
X403385Y105415D01*
X403516Y105477D01*
X403649Y105536D01*
X403783Y105591D01*
X403919Y105643D01*
X404056Y105692D01*
X404194Y105737D01*
X404333Y105778D01*
X404473Y105816D01*
X404614Y105850D01*
X404756Y105881D01*
X404899Y105909D01*
X405042Y105932D01*
X405186Y105952D01*
X405330Y105969D01*
X405475Y105982D01*
X405620Y105991D01*
X405765Y105996D01*
X405910Y105998D01*
X405910Y102114D02*
X406055Y102116D01*
X406200Y102121D01*
X406345Y102130D01*
X406490Y102143D01*
X406634Y102160D01*
X406778Y102180D01*
X406921Y102203D01*
X407064Y102231D01*
X407206Y102262D01*
X407347Y102296D01*
X407487Y102334D01*
X407626Y102375D01*
X407764Y102420D01*
X407901Y102469D01*
X408037Y102521D01*
X408171Y102576D01*
X408304Y102635D01*
X408435Y102697D01*
X408505Y102723D01*
X408573Y102752D01*
X408639Y102785D01*
X408704Y102821D01*
X408767Y102861D01*
X408828Y102904D01*
X408886Y102950D01*
X408942Y102999D01*
X408995Y103050D01*
X409046Y103105D01*
X409094Y103161D01*
X409138Y103221D01*
X409180Y103282D01*
X409218Y103346D01*
X409253Y103411D01*
X409285Y103479D01*
X409313Y103547D01*
X409337Y103617D01*
X409358Y103689D01*
X409375Y103761D01*
X409389Y103834D01*
X409398Y103908D01*
X409404Y103982D01*
X409406Y104056D01*
X408435Y105415D02*
X408304Y105477D01*
X408171Y105536D01*
X408037Y105591D01*
X407901Y105643D01*
X407764Y105692D01*
X407626Y105737D01*
X407487Y105778D01*
X407347Y105816D01*
X407206Y105850D01*
X407064Y105881D01*
X406921Y105909D01*
X406778Y105932D01*
X406634Y105952D01*
X406490Y105969D01*
X406345Y105982D01*
X406200Y105991D01*
X406055Y105996D01*
X405910Y105998D01*
X408435Y105415D02*
X408505Y105389D01*
X408573Y105360D01*
X408639Y105327D01*
X408704Y105291D01*
X408767Y105251D01*
X408828Y105208D01*
X408886Y105162D01*
X408942Y105113D01*
X408995Y105062D01*
X409046Y105007D01*
X409094Y104951D01*
X409138Y104891D01*
X409180Y104830D01*
X409218Y104766D01*
X409253Y104701D01*
X409285Y104633D01*
X409313Y104565D01*
X409337Y104495D01*
X409358Y104423D01*
X409375Y104351D01*
X409389Y104278D01*
X409398Y104204D01*
X409404Y104130D01*
X409406Y104056D01*
X407852Y102502D02*
X403968Y105610D01*
X409406Y108864D02*
X409406Y111194D01*
X409404Y111270D01*
X409399Y111346D01*
X409389Y111422D01*
X409376Y111497D01*
X409359Y111572D01*
X409339Y111645D01*
X409315Y111718D01*
X409288Y111789D01*
X409257Y111858D01*
X409223Y111927D01*
X409185Y111993D01*
X409144Y112057D01*
X409100Y112120D01*
X409053Y112180D01*
X409003Y112238D01*
X408951Y112293D01*
X408896Y112345D01*
X408838Y112395D01*
X408778Y112442D01*
X408715Y112486D01*
X408651Y112527D01*
X408585Y112565D01*
X408516Y112599D01*
X408447Y112630D01*
X408376Y112657D01*
X408303Y112681D01*
X408230Y112701D01*
X408155Y112718D01*
X408080Y112731D01*
X408004Y112741D01*
X407928Y112746D01*
X407852Y112748D01*
X407075Y112748D01*
X406996Y112746D01*
X406918Y112740D01*
X406840Y112730D01*
X406762Y112716D01*
X406685Y112698D01*
X406610Y112677D01*
X406535Y112651D01*
X406462Y112622D01*
X406391Y112589D01*
X406321Y112553D01*
X406253Y112513D01*
X406187Y112469D01*
X406124Y112423D01*
X406063Y112373D01*
X406004Y112320D01*
X405949Y112265D01*
X405896Y112206D01*
X405846Y112145D01*
X405800Y112082D01*
X405756Y112016D01*
X405716Y111948D01*
X405680Y111878D01*
X405647Y111807D01*
X405618Y111734D01*
X405592Y111659D01*
X405571Y111584D01*
X405553Y111507D01*
X405539Y111429D01*
X405529Y111351D01*
X405523Y111273D01*
X405521Y111194D01*
X405522Y111194D02*
X405522Y108864D01*
X402414Y108864D01*
X402414Y112748D01*
X406687Y115675D02*
X406687Y120336D01*
X402414Y125400D02*
X402416Y125481D01*
X402421Y125561D01*
X402431Y125641D01*
X402444Y125721D01*
X402460Y125800D01*
X402481Y125878D01*
X402505Y125955D01*
X402532Y126031D01*
X402563Y126106D01*
X402597Y126179D01*
X402635Y126251D01*
X402676Y126320D01*
X402720Y126388D01*
X402767Y126453D01*
X402817Y126517D01*
X402870Y126578D01*
X402926Y126636D01*
X402984Y126692D01*
X403045Y126745D01*
X403109Y126795D01*
X403174Y126842D01*
X403242Y126886D01*
X403311Y126927D01*
X403383Y126965D01*
X403456Y126999D01*
X403531Y127030D01*
X403607Y127057D01*
X403684Y127081D01*
X403762Y127102D01*
X403841Y127118D01*
X403921Y127131D01*
X404001Y127141D01*
X404081Y127146D01*
X404162Y127148D01*
X402414Y125400D02*
X402416Y125306D01*
X402422Y125212D01*
X402432Y125118D01*
X402446Y125025D01*
X402463Y124933D01*
X402485Y124841D01*
X402510Y124750D01*
X402539Y124661D01*
X402572Y124573D01*
X402608Y124486D01*
X402649Y124401D01*
X402692Y124317D01*
X402739Y124236D01*
X402790Y124156D01*
X402844Y124079D01*
X402901Y124004D01*
X402961Y123931D01*
X403024Y123862D01*
X403090Y123794D01*
X403158Y123730D01*
X403230Y123668D01*
X403303Y123610D01*
X403380Y123555D01*
X403458Y123503D01*
X403539Y123454D01*
X403621Y123409D01*
X403705Y123367D01*
X403792Y123329D01*
X403879Y123294D01*
X403968Y123263D01*
X405521Y126565D02*
X405462Y126625D01*
X405399Y126682D01*
X405335Y126737D01*
X405268Y126788D01*
X405198Y126836D01*
X405127Y126881D01*
X405053Y126923D01*
X404978Y126961D01*
X404901Y126996D01*
X404823Y127028D01*
X404743Y127056D01*
X404663Y127080D01*
X404581Y127101D01*
X404498Y127118D01*
X404415Y127131D01*
X404331Y127140D01*
X404246Y127146D01*
X404162Y127148D01*
X405522Y126565D02*
X409406Y123264D01*
X409406Y127148D01*
X409406Y130014D02*
X409406Y132344D01*
X409404Y132420D01*
X409399Y132496D01*
X409389Y132572D01*
X409376Y132647D01*
X409359Y132722D01*
X409339Y132795D01*
X409315Y132868D01*
X409288Y132939D01*
X409257Y133008D01*
X409223Y133077D01*
X409185Y133143D01*
X409144Y133207D01*
X409100Y133270D01*
X409053Y133330D01*
X409003Y133388D01*
X408951Y133443D01*
X408896Y133495D01*
X408838Y133545D01*
X408778Y133592D01*
X408715Y133636D01*
X408651Y133677D01*
X408585Y133715D01*
X408516Y133749D01*
X408447Y133780D01*
X408376Y133807D01*
X408303Y133831D01*
X408230Y133851D01*
X408155Y133868D01*
X408080Y133881D01*
X408004Y133891D01*
X407928Y133896D01*
X407852Y133898D01*
X407075Y133898D01*
X406996Y133896D01*
X406918Y133890D01*
X406840Y133880D01*
X406762Y133866D01*
X406685Y133848D01*
X406610Y133827D01*
X406535Y133801D01*
X406462Y133772D01*
X406391Y133739D01*
X406321Y133703D01*
X406253Y133663D01*
X406187Y133619D01*
X406124Y133573D01*
X406063Y133523D01*
X406004Y133470D01*
X405949Y133415D01*
X405896Y133356D01*
X405846Y133295D01*
X405800Y133232D01*
X405756Y133166D01*
X405716Y133098D01*
X405680Y133028D01*
X405647Y132957D01*
X405618Y132884D01*
X405592Y132809D01*
X405571Y132734D01*
X405553Y132657D01*
X405539Y132579D01*
X405529Y132501D01*
X405523Y132423D01*
X405521Y132344D01*
X405522Y132344D02*
X405522Y130014D01*
X402414Y130014D01*
X402414Y133898D01*
X140750Y6450D02*
X140001Y6450D01*
X140750Y6450D02*
X140750Y3954D01*
X139252Y3954D01*
X139192Y3956D01*
X139132Y3961D01*
X139072Y3970D01*
X139013Y3983D01*
X138955Y3999D01*
X138898Y4019D01*
X138842Y4042D01*
X138788Y4068D01*
X138736Y4098D01*
X138685Y4131D01*
X138637Y4166D01*
X138590Y4205D01*
X138546Y4246D01*
X138505Y4290D01*
X138466Y4337D01*
X138431Y4385D01*
X138398Y4436D01*
X138368Y4488D01*
X138342Y4542D01*
X138319Y4598D01*
X138299Y4655D01*
X138283Y4713D01*
X138270Y4772D01*
X138261Y4832D01*
X138256Y4892D01*
X138254Y4952D01*
X138254Y7448D01*
X138256Y7511D01*
X138262Y7573D01*
X138272Y7635D01*
X138285Y7696D01*
X138303Y7756D01*
X138324Y7815D01*
X138349Y7873D01*
X138377Y7929D01*
X138409Y7983D01*
X138445Y8035D01*
X138483Y8084D01*
X138524Y8131D01*
X138569Y8175D01*
X138616Y8217D01*
X138665Y8255D01*
X138717Y8291D01*
X138771Y8323D01*
X138827Y8351D01*
X138885Y8376D01*
X138944Y8397D01*
X139004Y8415D01*
X139065Y8428D01*
X139127Y8438D01*
X139189Y8444D01*
X139252Y8446D01*
X140750Y8446D01*
X143054Y8446D02*
X143054Y3954D01*
X145550Y3954D02*
X143054Y8446D01*
X145550Y8446D02*
X145550Y3954D01*
X147854Y3954D02*
X147854Y8446D01*
X149102Y8446D01*
X149170Y8444D01*
X149237Y8439D01*
X149304Y8430D01*
X149370Y8417D01*
X149436Y8401D01*
X149500Y8381D01*
X149564Y8357D01*
X149626Y8331D01*
X149687Y8301D01*
X149745Y8267D01*
X149802Y8231D01*
X149857Y8192D01*
X149910Y8149D01*
X149960Y8104D01*
X150008Y8056D01*
X150053Y8006D01*
X150096Y7953D01*
X150135Y7898D01*
X150171Y7841D01*
X150205Y7783D01*
X150235Y7722D01*
X150261Y7660D01*
X150285Y7596D01*
X150305Y7532D01*
X150321Y7466D01*
X150334Y7400D01*
X150343Y7333D01*
X150348Y7266D01*
X150350Y7198D01*
X150349Y7198D02*
X150349Y5202D01*
X150350Y5202D02*
X150348Y5134D01*
X150343Y5067D01*
X150334Y5000D01*
X150321Y4934D01*
X150305Y4868D01*
X150285Y4804D01*
X150261Y4740D01*
X150235Y4678D01*
X150205Y4617D01*
X150171Y4559D01*
X150135Y4502D01*
X150096Y4447D01*
X150053Y4394D01*
X150008Y4344D01*
X149960Y4296D01*
X149910Y4251D01*
X149857Y4208D01*
X149802Y4169D01*
X149745Y4133D01*
X149687Y4099D01*
X149626Y4069D01*
X149564Y4043D01*
X149500Y4019D01*
X149436Y3999D01*
X149370Y3983D01*
X149304Y3970D01*
X149237Y3961D01*
X149170Y3956D01*
X149102Y3954D01*
X147854Y3954D01*
X187001Y6450D02*
X187750Y6450D01*
X187750Y3954D01*
X186252Y3954D01*
X186192Y3956D01*
X186132Y3961D01*
X186072Y3970D01*
X186013Y3983D01*
X185955Y3999D01*
X185898Y4019D01*
X185842Y4042D01*
X185788Y4068D01*
X185736Y4098D01*
X185685Y4131D01*
X185637Y4166D01*
X185590Y4205D01*
X185546Y4246D01*
X185505Y4290D01*
X185466Y4337D01*
X185431Y4385D01*
X185398Y4436D01*
X185368Y4488D01*
X185342Y4542D01*
X185319Y4598D01*
X185299Y4655D01*
X185283Y4713D01*
X185270Y4772D01*
X185261Y4832D01*
X185256Y4892D01*
X185254Y4952D01*
X185254Y7448D01*
X185256Y7511D01*
X185262Y7573D01*
X185272Y7635D01*
X185285Y7696D01*
X185303Y7756D01*
X185324Y7815D01*
X185349Y7873D01*
X185377Y7929D01*
X185409Y7983D01*
X185445Y8035D01*
X185483Y8084D01*
X185524Y8131D01*
X185569Y8175D01*
X185616Y8217D01*
X185665Y8255D01*
X185717Y8291D01*
X185771Y8323D01*
X185827Y8351D01*
X185885Y8376D01*
X185944Y8397D01*
X186004Y8415D01*
X186065Y8428D01*
X186127Y8438D01*
X186189Y8444D01*
X186252Y8446D01*
X187750Y8446D01*
X190054Y8446D02*
X190054Y3954D01*
X192550Y3954D02*
X190054Y8446D01*
X192550Y8446D02*
X192550Y3954D01*
X194854Y3954D02*
X194854Y8446D01*
X196102Y8446D01*
X196170Y8444D01*
X196237Y8439D01*
X196304Y8430D01*
X196370Y8417D01*
X196436Y8401D01*
X196500Y8381D01*
X196564Y8357D01*
X196626Y8331D01*
X196687Y8301D01*
X196745Y8267D01*
X196802Y8231D01*
X196857Y8192D01*
X196910Y8149D01*
X196960Y8104D01*
X197008Y8056D01*
X197053Y8006D01*
X197096Y7953D01*
X197135Y7898D01*
X197171Y7841D01*
X197205Y7783D01*
X197235Y7722D01*
X197261Y7660D01*
X197285Y7596D01*
X197305Y7532D01*
X197321Y7466D01*
X197334Y7400D01*
X197343Y7333D01*
X197348Y7266D01*
X197350Y7198D01*
X197349Y7198D02*
X197349Y5202D01*
X197350Y5202D02*
X197348Y5134D01*
X197343Y5067D01*
X197334Y5000D01*
X197321Y4934D01*
X197305Y4868D01*
X197285Y4804D01*
X197261Y4740D01*
X197235Y4678D01*
X197205Y4617D01*
X197171Y4559D01*
X197135Y4502D01*
X197096Y4447D01*
X197053Y4394D01*
X197008Y4344D01*
X196960Y4296D01*
X196910Y4251D01*
X196857Y4208D01*
X196802Y4169D01*
X196745Y4133D01*
X196687Y4099D01*
X196626Y4069D01*
X196564Y4043D01*
X196500Y4019D01*
X196436Y3999D01*
X196370Y3983D01*
X196304Y3970D01*
X196237Y3961D01*
X196170Y3956D01*
X196102Y3954D01*
X194854Y3954D01*
X321001Y6450D02*
X321750Y6450D01*
X321750Y3954D01*
X320252Y3954D01*
X320192Y3956D01*
X320132Y3961D01*
X320072Y3970D01*
X320013Y3983D01*
X319955Y3999D01*
X319898Y4019D01*
X319842Y4042D01*
X319788Y4068D01*
X319736Y4098D01*
X319685Y4131D01*
X319637Y4166D01*
X319590Y4205D01*
X319546Y4246D01*
X319505Y4290D01*
X319466Y4337D01*
X319431Y4385D01*
X319398Y4436D01*
X319368Y4488D01*
X319342Y4542D01*
X319319Y4598D01*
X319299Y4655D01*
X319283Y4713D01*
X319270Y4772D01*
X319261Y4832D01*
X319256Y4892D01*
X319254Y4952D01*
X319254Y7448D01*
X319256Y7511D01*
X319262Y7573D01*
X319272Y7635D01*
X319285Y7696D01*
X319303Y7756D01*
X319324Y7815D01*
X319349Y7873D01*
X319377Y7929D01*
X319409Y7983D01*
X319445Y8035D01*
X319483Y8084D01*
X319524Y8131D01*
X319569Y8175D01*
X319616Y8217D01*
X319665Y8255D01*
X319717Y8291D01*
X319771Y8323D01*
X319827Y8351D01*
X319885Y8376D01*
X319944Y8397D01*
X320004Y8415D01*
X320065Y8428D01*
X320127Y8438D01*
X320189Y8444D01*
X320252Y8446D01*
X321750Y8446D01*
X324054Y8446D02*
X324054Y3954D01*
X326550Y3954D02*
X324054Y8446D01*
X326550Y8446D02*
X326550Y3954D01*
X328854Y3954D02*
X328854Y8446D01*
X330102Y8446D01*
X330170Y8444D01*
X330237Y8439D01*
X330304Y8430D01*
X330370Y8417D01*
X330436Y8401D01*
X330500Y8381D01*
X330564Y8357D01*
X330626Y8331D01*
X330687Y8301D01*
X330745Y8267D01*
X330802Y8231D01*
X330857Y8192D01*
X330910Y8149D01*
X330960Y8104D01*
X331008Y8056D01*
X331053Y8006D01*
X331096Y7953D01*
X331135Y7898D01*
X331171Y7841D01*
X331205Y7783D01*
X331235Y7722D01*
X331261Y7660D01*
X331285Y7596D01*
X331305Y7532D01*
X331321Y7466D01*
X331334Y7400D01*
X331343Y7333D01*
X331348Y7266D01*
X331350Y7198D01*
X331349Y7198D02*
X331349Y5202D01*
X331350Y5202D02*
X331348Y5134D01*
X331343Y5067D01*
X331334Y5000D01*
X331321Y4934D01*
X331305Y4868D01*
X331285Y4804D01*
X331261Y4740D01*
X331235Y4678D01*
X331205Y4617D01*
X331171Y4559D01*
X331135Y4502D01*
X331096Y4447D01*
X331053Y4394D01*
X331008Y4344D01*
X330960Y4296D01*
X330910Y4251D01*
X330857Y4208D01*
X330802Y4169D01*
X330745Y4133D01*
X330687Y4099D01*
X330626Y4069D01*
X330564Y4043D01*
X330500Y4019D01*
X330436Y3999D01*
X330370Y3983D01*
X330304Y3970D01*
X330237Y3961D01*
X330170Y3956D01*
X330102Y3954D01*
X328854Y3954D01*
X440550Y192001D02*
X440550Y192750D01*
X443046Y192750D01*
X443046Y191252D01*
X443044Y191189D01*
X443038Y191127D01*
X443028Y191065D01*
X443015Y191004D01*
X442997Y190944D01*
X442976Y190885D01*
X442951Y190827D01*
X442923Y190771D01*
X442891Y190717D01*
X442855Y190665D01*
X442817Y190616D01*
X442776Y190569D01*
X442731Y190525D01*
X442684Y190483D01*
X442635Y190445D01*
X442583Y190409D01*
X442529Y190377D01*
X442473Y190349D01*
X442415Y190324D01*
X442356Y190303D01*
X442296Y190285D01*
X442235Y190272D01*
X442173Y190262D01*
X442111Y190256D01*
X442048Y190254D01*
X439552Y190254D01*
X439489Y190256D01*
X439427Y190262D01*
X439365Y190272D01*
X439304Y190285D01*
X439244Y190303D01*
X439185Y190324D01*
X439127Y190349D01*
X439071Y190377D01*
X439017Y190409D01*
X438965Y190445D01*
X438916Y190483D01*
X438869Y190524D01*
X438825Y190569D01*
X438783Y190616D01*
X438745Y190665D01*
X438709Y190717D01*
X438677Y190771D01*
X438649Y190827D01*
X438624Y190885D01*
X438603Y190944D01*
X438585Y191004D01*
X438572Y191065D01*
X438562Y191127D01*
X438556Y191189D01*
X438554Y191252D01*
X438554Y192750D01*
X438554Y195054D02*
X443046Y195054D01*
X443046Y197550D02*
X438554Y195054D01*
X438554Y197550D02*
X443046Y197550D01*
X443046Y199854D02*
X438554Y199854D01*
X438554Y201102D01*
X438556Y201170D01*
X438561Y201237D01*
X438570Y201304D01*
X438583Y201370D01*
X438599Y201436D01*
X438619Y201500D01*
X438643Y201564D01*
X438669Y201626D01*
X438699Y201687D01*
X438733Y201745D01*
X438769Y201802D01*
X438808Y201857D01*
X438851Y201910D01*
X438896Y201960D01*
X438944Y202008D01*
X438994Y202053D01*
X439047Y202096D01*
X439102Y202135D01*
X439159Y202171D01*
X439217Y202205D01*
X439278Y202235D01*
X439340Y202261D01*
X439404Y202285D01*
X439468Y202305D01*
X439534Y202321D01*
X439600Y202334D01*
X439667Y202343D01*
X439734Y202348D01*
X439802Y202350D01*
X439802Y202349D02*
X441798Y202349D01*
X441798Y202350D02*
X441866Y202348D01*
X441933Y202343D01*
X442000Y202334D01*
X442066Y202321D01*
X442132Y202305D01*
X442196Y202285D01*
X442260Y202261D01*
X442322Y202235D01*
X442383Y202205D01*
X442441Y202171D01*
X442498Y202135D01*
X442553Y202096D01*
X442606Y202053D01*
X442656Y202008D01*
X442704Y201960D01*
X442749Y201910D01*
X442792Y201857D01*
X442831Y201802D01*
X442867Y201745D01*
X442901Y201687D01*
X442931Y201626D01*
X442957Y201564D01*
X442981Y201500D01*
X443001Y201436D01*
X443017Y201370D01*
X443030Y201304D01*
X443039Y201237D01*
X443044Y201170D01*
X443046Y201102D01*
X443046Y199854D01*
X207502Y3954D02*
X206254Y3954D01*
X207502Y3954D02*
X207571Y3956D01*
X207639Y3962D01*
X207707Y3971D01*
X207775Y3984D01*
X207842Y4001D01*
X207907Y4022D01*
X207972Y4046D01*
X208035Y4073D01*
X208096Y4104D01*
X208156Y4139D01*
X208213Y4176D01*
X208269Y4217D01*
X208322Y4261D01*
X208372Y4307D01*
X208420Y4357D01*
X208465Y4409D01*
X208508Y4463D01*
X208547Y4519D01*
X208583Y4578D01*
X208616Y4638D01*
X208645Y4701D01*
X208671Y4764D01*
X208693Y4829D01*
X208712Y4896D01*
X208727Y4963D01*
X208738Y5031D01*
X208746Y5099D01*
X208750Y5168D01*
X208750Y5236D01*
X208746Y5305D01*
X208738Y5373D01*
X208727Y5441D01*
X208712Y5508D01*
X208693Y5575D01*
X208671Y5640D01*
X208645Y5703D01*
X208616Y5766D01*
X208583Y5826D01*
X208547Y5885D01*
X208508Y5941D01*
X208465Y5995D01*
X208420Y6047D01*
X208372Y6097D01*
X208322Y6143D01*
X208269Y6187D01*
X208213Y6228D01*
X208156Y6265D01*
X208096Y6300D01*
X208035Y6331D01*
X207972Y6358D01*
X207907Y6382D01*
X207842Y6403D01*
X207775Y6420D01*
X207707Y6433D01*
X207639Y6442D01*
X207571Y6448D01*
X207502Y6450D01*
X207751Y8446D02*
X206254Y8446D01*
X207751Y8446D02*
X207812Y8444D01*
X207874Y8438D01*
X207934Y8429D01*
X207994Y8416D01*
X208054Y8399D01*
X208112Y8379D01*
X208168Y8355D01*
X208223Y8327D01*
X208276Y8297D01*
X208328Y8263D01*
X208377Y8226D01*
X208423Y8186D01*
X208467Y8143D01*
X208509Y8097D01*
X208547Y8049D01*
X208583Y7999D01*
X208615Y7947D01*
X208644Y7893D01*
X208670Y7837D01*
X208692Y7780D01*
X208711Y7721D01*
X208726Y7662D01*
X208737Y7601D01*
X208745Y7540D01*
X208749Y7479D01*
X208749Y7417D01*
X208745Y7356D01*
X208737Y7295D01*
X208726Y7234D01*
X208711Y7175D01*
X208692Y7116D01*
X208670Y7059D01*
X208644Y7003D01*
X208615Y6949D01*
X208583Y6897D01*
X208547Y6847D01*
X208509Y6799D01*
X208467Y6753D01*
X208423Y6710D01*
X208377Y6670D01*
X208328Y6633D01*
X208276Y6599D01*
X208223Y6569D01*
X208168Y6541D01*
X208112Y6517D01*
X208054Y6497D01*
X207994Y6480D01*
X207934Y6467D01*
X207874Y6458D01*
X207812Y6452D01*
X207751Y6450D01*
X206753Y6450D01*
X210527Y4204D02*
X210527Y3954D01*
X210527Y4204D02*
X210777Y4204D01*
X210777Y3954D01*
X210527Y3954D01*
X212554Y3954D02*
X213802Y3954D01*
X213871Y3956D01*
X213939Y3962D01*
X214007Y3971D01*
X214075Y3984D01*
X214142Y4001D01*
X214207Y4022D01*
X214272Y4046D01*
X214335Y4073D01*
X214396Y4104D01*
X214456Y4139D01*
X214513Y4176D01*
X214569Y4217D01*
X214622Y4261D01*
X214672Y4307D01*
X214720Y4357D01*
X214765Y4409D01*
X214808Y4463D01*
X214847Y4519D01*
X214883Y4578D01*
X214916Y4638D01*
X214945Y4701D01*
X214971Y4764D01*
X214993Y4829D01*
X215012Y4896D01*
X215027Y4963D01*
X215038Y5031D01*
X215046Y5099D01*
X215050Y5168D01*
X215050Y5236D01*
X215046Y5305D01*
X215038Y5373D01*
X215027Y5441D01*
X215012Y5508D01*
X214993Y5575D01*
X214971Y5640D01*
X214945Y5703D01*
X214916Y5766D01*
X214883Y5826D01*
X214847Y5885D01*
X214808Y5941D01*
X214765Y5995D01*
X214720Y6047D01*
X214672Y6097D01*
X214622Y6143D01*
X214569Y6187D01*
X214513Y6228D01*
X214456Y6265D01*
X214396Y6300D01*
X214335Y6331D01*
X214272Y6358D01*
X214207Y6382D01*
X214142Y6403D01*
X214075Y6420D01*
X214007Y6433D01*
X213939Y6442D01*
X213871Y6448D01*
X213802Y6450D01*
X214051Y8446D02*
X212554Y8446D01*
X214051Y8446D02*
X214112Y8444D01*
X214174Y8438D01*
X214234Y8429D01*
X214294Y8416D01*
X214354Y8399D01*
X214412Y8379D01*
X214468Y8355D01*
X214523Y8327D01*
X214576Y8297D01*
X214628Y8263D01*
X214677Y8226D01*
X214723Y8186D01*
X214767Y8143D01*
X214809Y8097D01*
X214847Y8049D01*
X214883Y7999D01*
X214915Y7947D01*
X214944Y7893D01*
X214970Y7837D01*
X214992Y7780D01*
X215011Y7721D01*
X215026Y7662D01*
X215037Y7601D01*
X215045Y7540D01*
X215049Y7479D01*
X215049Y7417D01*
X215045Y7356D01*
X215037Y7295D01*
X215026Y7234D01*
X215011Y7175D01*
X214992Y7116D01*
X214970Y7059D01*
X214944Y7003D01*
X214915Y6949D01*
X214883Y6897D01*
X214847Y6847D01*
X214809Y6799D01*
X214767Y6753D01*
X214723Y6710D01*
X214677Y6670D01*
X214628Y6633D01*
X214576Y6599D01*
X214523Y6569D01*
X214468Y6541D01*
X214412Y6517D01*
X214354Y6497D01*
X214294Y6480D01*
X214234Y6467D01*
X214174Y6458D01*
X214112Y6452D01*
X214051Y6450D01*
X213053Y6450D01*
X216804Y8446D02*
X218302Y3954D01*
X219799Y8446D01*
X228751Y3954D02*
X228814Y3956D01*
X228876Y3962D01*
X228938Y3972D01*
X228999Y3985D01*
X229059Y4003D01*
X229118Y4024D01*
X229176Y4049D01*
X229232Y4077D01*
X229286Y4109D01*
X229338Y4145D01*
X229387Y4183D01*
X229434Y4225D01*
X229479Y4269D01*
X229520Y4316D01*
X229558Y4365D01*
X229594Y4417D01*
X229626Y4471D01*
X229654Y4527D01*
X229679Y4585D01*
X229700Y4644D01*
X229718Y4704D01*
X229731Y4765D01*
X229741Y4827D01*
X229747Y4889D01*
X229749Y4952D01*
X228751Y3954D02*
X228663Y3956D01*
X228576Y3961D01*
X228489Y3970D01*
X228402Y3983D01*
X228316Y3999D01*
X228231Y4019D01*
X228146Y4043D01*
X228063Y4069D01*
X227980Y4100D01*
X227900Y4134D01*
X227820Y4171D01*
X227742Y4211D01*
X227666Y4254D01*
X227592Y4301D01*
X227520Y4351D01*
X227450Y4403D01*
X227382Y4459D01*
X227316Y4517D01*
X227253Y4578D01*
X227379Y7448D02*
X227381Y7508D01*
X227386Y7568D01*
X227395Y7628D01*
X227408Y7687D01*
X227424Y7745D01*
X227444Y7802D01*
X227467Y7858D01*
X227493Y7912D01*
X227523Y7964D01*
X227556Y8015D01*
X227591Y8063D01*
X227630Y8110D01*
X227671Y8154D01*
X227715Y8195D01*
X227762Y8234D01*
X227810Y8269D01*
X227861Y8302D01*
X227913Y8332D01*
X227967Y8358D01*
X228023Y8381D01*
X228080Y8401D01*
X228138Y8417D01*
X228197Y8430D01*
X228257Y8439D01*
X228317Y8444D01*
X228377Y8446D01*
X228463Y8444D01*
X228549Y8438D01*
X228634Y8428D01*
X228719Y8414D01*
X228803Y8397D01*
X228887Y8375D01*
X228969Y8350D01*
X229050Y8321D01*
X229130Y8288D01*
X229207Y8252D01*
X229284Y8212D01*
X229358Y8168D01*
X229430Y8122D01*
X229500Y8072D01*
X227878Y6574D02*
X227826Y6607D01*
X227776Y6644D01*
X227728Y6683D01*
X227682Y6725D01*
X227639Y6770D01*
X227599Y6817D01*
X227562Y6866D01*
X227528Y6918D01*
X227498Y6972D01*
X227470Y7028D01*
X227446Y7085D01*
X227426Y7143D01*
X227409Y7203D01*
X227396Y7263D01*
X227387Y7324D01*
X227381Y7386D01*
X227379Y7448D01*
X229251Y5826D02*
X229303Y5793D01*
X229353Y5756D01*
X229401Y5717D01*
X229447Y5675D01*
X229490Y5630D01*
X229530Y5583D01*
X229567Y5534D01*
X229601Y5482D01*
X229631Y5428D01*
X229659Y5372D01*
X229683Y5315D01*
X229703Y5257D01*
X229720Y5197D01*
X229733Y5137D01*
X229742Y5076D01*
X229748Y5014D01*
X229750Y4952D01*
X229250Y5826D02*
X227878Y6574D01*
X231754Y8446D02*
X231754Y3954D01*
X231754Y8446D02*
X233002Y8446D01*
X233070Y8444D01*
X233137Y8439D01*
X233204Y8430D01*
X233270Y8417D01*
X233336Y8401D01*
X233400Y8381D01*
X233464Y8357D01*
X233526Y8331D01*
X233587Y8301D01*
X233645Y8267D01*
X233702Y8231D01*
X233757Y8192D01*
X233810Y8149D01*
X233860Y8104D01*
X233908Y8056D01*
X233953Y8006D01*
X233996Y7953D01*
X234035Y7898D01*
X234071Y7841D01*
X234105Y7783D01*
X234135Y7722D01*
X234161Y7660D01*
X234185Y7596D01*
X234205Y7532D01*
X234221Y7466D01*
X234234Y7400D01*
X234243Y7333D01*
X234248Y7266D01*
X234250Y7198D01*
X234250Y5202D01*
X234248Y5134D01*
X234243Y5067D01*
X234234Y5000D01*
X234221Y4934D01*
X234205Y4868D01*
X234185Y4804D01*
X234161Y4740D01*
X234135Y4678D01*
X234105Y4617D01*
X234071Y4559D01*
X234035Y4502D01*
X233996Y4447D01*
X233953Y4394D01*
X233908Y4344D01*
X233860Y4296D01*
X233810Y4251D01*
X233757Y4208D01*
X233702Y4169D01*
X233645Y4133D01*
X233587Y4099D01*
X233526Y4069D01*
X233464Y4043D01*
X233400Y4019D01*
X233336Y3999D01*
X233270Y3983D01*
X233204Y3970D01*
X233137Y3961D01*
X233070Y3956D01*
X233002Y3954D01*
X231754Y3954D01*
X236154Y3954D02*
X237652Y8446D01*
X239149Y3954D01*
X238775Y5077D02*
X236529Y5077D01*
X247751Y3954D02*
X247814Y3956D01*
X247876Y3962D01*
X247938Y3972D01*
X247999Y3985D01*
X248059Y4003D01*
X248118Y4024D01*
X248176Y4049D01*
X248232Y4077D01*
X248286Y4109D01*
X248338Y4145D01*
X248387Y4183D01*
X248434Y4225D01*
X248479Y4269D01*
X248520Y4316D01*
X248558Y4365D01*
X248594Y4417D01*
X248626Y4471D01*
X248654Y4527D01*
X248679Y4585D01*
X248700Y4644D01*
X248718Y4704D01*
X248731Y4765D01*
X248741Y4827D01*
X248747Y4889D01*
X248749Y4952D01*
X247751Y3954D02*
X247663Y3956D01*
X247576Y3961D01*
X247489Y3970D01*
X247402Y3983D01*
X247316Y3999D01*
X247231Y4019D01*
X247146Y4043D01*
X247063Y4069D01*
X246980Y4100D01*
X246900Y4134D01*
X246820Y4171D01*
X246742Y4211D01*
X246666Y4254D01*
X246592Y4301D01*
X246520Y4351D01*
X246450Y4403D01*
X246382Y4459D01*
X246316Y4517D01*
X246253Y4578D01*
X246379Y7448D02*
X246381Y7508D01*
X246386Y7568D01*
X246395Y7628D01*
X246408Y7687D01*
X246424Y7745D01*
X246444Y7802D01*
X246467Y7858D01*
X246493Y7912D01*
X246523Y7964D01*
X246556Y8015D01*
X246591Y8063D01*
X246630Y8110D01*
X246671Y8154D01*
X246715Y8195D01*
X246762Y8234D01*
X246810Y8269D01*
X246861Y8302D01*
X246913Y8332D01*
X246967Y8358D01*
X247023Y8381D01*
X247080Y8401D01*
X247138Y8417D01*
X247197Y8430D01*
X247257Y8439D01*
X247317Y8444D01*
X247377Y8446D01*
X247463Y8444D01*
X247549Y8438D01*
X247634Y8428D01*
X247719Y8414D01*
X247803Y8397D01*
X247887Y8375D01*
X247969Y8350D01*
X248050Y8321D01*
X248130Y8288D01*
X248207Y8252D01*
X248284Y8212D01*
X248358Y8168D01*
X248430Y8122D01*
X248500Y8072D01*
X246878Y6574D02*
X246826Y6607D01*
X246776Y6644D01*
X246728Y6683D01*
X246682Y6725D01*
X246639Y6770D01*
X246599Y6817D01*
X246562Y6866D01*
X246528Y6918D01*
X246498Y6972D01*
X246470Y7028D01*
X246446Y7085D01*
X246426Y7143D01*
X246409Y7203D01*
X246396Y7263D01*
X246387Y7324D01*
X246381Y7386D01*
X246379Y7448D01*
X248251Y5826D02*
X248303Y5793D01*
X248353Y5756D01*
X248401Y5717D01*
X248447Y5675D01*
X248490Y5630D01*
X248530Y5583D01*
X248567Y5534D01*
X248601Y5482D01*
X248631Y5428D01*
X248659Y5372D01*
X248683Y5315D01*
X248703Y5257D01*
X248720Y5197D01*
X248733Y5137D01*
X248742Y5076D01*
X248748Y5014D01*
X248750Y4952D01*
X248250Y5826D02*
X246878Y6574D01*
X251587Y3954D02*
X252586Y3954D01*
X251587Y3954D02*
X251527Y3956D01*
X251467Y3961D01*
X251407Y3970D01*
X251348Y3983D01*
X251290Y3999D01*
X251233Y4019D01*
X251177Y4042D01*
X251123Y4068D01*
X251071Y4098D01*
X251020Y4131D01*
X250972Y4166D01*
X250925Y4205D01*
X250881Y4246D01*
X250840Y4290D01*
X250801Y4337D01*
X250766Y4385D01*
X250733Y4436D01*
X250703Y4488D01*
X250677Y4542D01*
X250654Y4598D01*
X250634Y4655D01*
X250618Y4713D01*
X250605Y4772D01*
X250596Y4832D01*
X250591Y4892D01*
X250589Y4952D01*
X250589Y7448D01*
X250591Y7511D01*
X250597Y7573D01*
X250607Y7635D01*
X250620Y7696D01*
X250638Y7756D01*
X250659Y7815D01*
X250684Y7873D01*
X250712Y7929D01*
X250744Y7983D01*
X250780Y8035D01*
X250818Y8084D01*
X250859Y8131D01*
X250904Y8175D01*
X250951Y8217D01*
X251000Y8255D01*
X251052Y8291D01*
X251106Y8323D01*
X251162Y8351D01*
X251220Y8376D01*
X251279Y8397D01*
X251339Y8415D01*
X251400Y8428D01*
X251462Y8438D01*
X251524Y8444D01*
X251587Y8446D01*
X252586Y8446D01*
X254514Y8446D02*
X254514Y3954D01*
X256510Y3954D01*
X295254Y3954D02*
X295254Y8446D01*
X296502Y8446D01*
X296571Y8444D01*
X296639Y8438D01*
X296707Y8429D01*
X296775Y8416D01*
X296842Y8399D01*
X296907Y8378D01*
X296972Y8354D01*
X297035Y8327D01*
X297096Y8296D01*
X297156Y8261D01*
X297213Y8224D01*
X297269Y8183D01*
X297322Y8139D01*
X297372Y8093D01*
X297420Y8043D01*
X297465Y7991D01*
X297508Y7937D01*
X297547Y7881D01*
X297583Y7822D01*
X297616Y7762D01*
X297645Y7699D01*
X297671Y7636D01*
X297693Y7571D01*
X297712Y7504D01*
X297727Y7437D01*
X297738Y7369D01*
X297746Y7301D01*
X297750Y7232D01*
X297750Y7164D01*
X297746Y7095D01*
X297738Y7027D01*
X297727Y6959D01*
X297712Y6892D01*
X297693Y6825D01*
X297671Y6760D01*
X297645Y6697D01*
X297616Y6634D01*
X297583Y6574D01*
X297547Y6515D01*
X297508Y6459D01*
X297465Y6405D01*
X297420Y6353D01*
X297372Y6303D01*
X297322Y6257D01*
X297269Y6213D01*
X297213Y6172D01*
X297156Y6135D01*
X297096Y6100D01*
X297035Y6069D01*
X296972Y6042D01*
X296907Y6018D01*
X296842Y5997D01*
X296775Y5980D01*
X296707Y5967D01*
X296639Y5958D01*
X296571Y5952D01*
X296502Y5950D01*
X295254Y5950D01*
X301728Y3455D02*
X303724Y8945D01*
X307679Y8446D02*
X309176Y3954D01*
X310673Y8446D01*
X438554Y168254D02*
X443046Y168254D01*
X438554Y168254D02*
X438554Y169502D01*
X438556Y169571D01*
X438562Y169639D01*
X438571Y169707D01*
X438584Y169775D01*
X438601Y169842D01*
X438622Y169907D01*
X438646Y169972D01*
X438673Y170035D01*
X438704Y170096D01*
X438739Y170156D01*
X438776Y170213D01*
X438817Y170269D01*
X438861Y170322D01*
X438907Y170372D01*
X438957Y170420D01*
X439009Y170465D01*
X439063Y170508D01*
X439119Y170547D01*
X439178Y170583D01*
X439238Y170616D01*
X439301Y170645D01*
X439364Y170671D01*
X439429Y170693D01*
X439496Y170712D01*
X439563Y170727D01*
X439631Y170738D01*
X439699Y170746D01*
X439768Y170750D01*
X439836Y170750D01*
X439905Y170746D01*
X439973Y170738D01*
X440041Y170727D01*
X440108Y170712D01*
X440175Y170693D01*
X440240Y170671D01*
X440303Y170645D01*
X440366Y170616D01*
X440426Y170583D01*
X440485Y170547D01*
X440541Y170508D01*
X440595Y170465D01*
X440647Y170420D01*
X440697Y170372D01*
X440743Y170322D01*
X440787Y170269D01*
X440828Y170213D01*
X440865Y170156D01*
X440900Y170096D01*
X440931Y170035D01*
X440958Y169972D01*
X440982Y169907D01*
X441003Y169842D01*
X441020Y169775D01*
X441033Y169707D01*
X441042Y169639D01*
X441048Y169571D01*
X441050Y169502D01*
X441050Y168254D01*
X443545Y174728D02*
X438055Y176724D01*
X438554Y180679D02*
X443046Y182176D01*
X438554Y183673D01*
X7446Y188327D02*
X2954Y188327D01*
X2954Y189574D01*
X2956Y189643D01*
X2962Y189711D01*
X2971Y189779D01*
X2984Y189847D01*
X3001Y189914D01*
X3022Y189979D01*
X3046Y190044D01*
X3073Y190107D01*
X3104Y190168D01*
X3139Y190228D01*
X3176Y190285D01*
X3217Y190341D01*
X3261Y190394D01*
X3307Y190444D01*
X3357Y190492D01*
X3409Y190537D01*
X3463Y190580D01*
X3519Y190619D01*
X3578Y190655D01*
X3638Y190688D01*
X3701Y190717D01*
X3764Y190743D01*
X3829Y190765D01*
X3896Y190784D01*
X3963Y190799D01*
X4031Y190810D01*
X4099Y190818D01*
X4168Y190822D01*
X4236Y190822D01*
X4305Y190818D01*
X4373Y190810D01*
X4441Y190799D01*
X4508Y190784D01*
X4575Y190765D01*
X4640Y190743D01*
X4703Y190717D01*
X4766Y190688D01*
X4826Y190655D01*
X4885Y190619D01*
X4941Y190580D01*
X4995Y190537D01*
X5047Y190492D01*
X5097Y190444D01*
X5143Y190394D01*
X5187Y190341D01*
X5228Y190285D01*
X5265Y190228D01*
X5300Y190168D01*
X5331Y190107D01*
X5358Y190044D01*
X5382Y189979D01*
X5403Y189914D01*
X5420Y189847D01*
X5433Y189779D01*
X5442Y189711D01*
X5448Y189643D01*
X5450Y189574D01*
X5450Y188327D01*
X7945Y194800D02*
X2455Y196797D01*
X2954Y200751D02*
X7446Y202249D01*
X2954Y203746D01*
X4550Y173750D02*
X4550Y173001D01*
X4550Y173750D02*
X7046Y173750D01*
X7046Y172252D01*
X7044Y172189D01*
X7038Y172127D01*
X7028Y172065D01*
X7015Y172004D01*
X6997Y171944D01*
X6976Y171885D01*
X6951Y171827D01*
X6923Y171771D01*
X6891Y171717D01*
X6855Y171665D01*
X6817Y171616D01*
X6776Y171569D01*
X6731Y171525D01*
X6684Y171483D01*
X6635Y171445D01*
X6583Y171409D01*
X6529Y171377D01*
X6473Y171349D01*
X6415Y171324D01*
X6356Y171303D01*
X6296Y171285D01*
X6235Y171272D01*
X6173Y171262D01*
X6111Y171256D01*
X6048Y171254D01*
X3552Y171254D01*
X3489Y171256D01*
X3427Y171262D01*
X3365Y171272D01*
X3304Y171285D01*
X3244Y171303D01*
X3185Y171324D01*
X3127Y171349D01*
X3071Y171377D01*
X3017Y171409D01*
X2965Y171445D01*
X2916Y171483D01*
X2869Y171524D01*
X2825Y171569D01*
X2783Y171616D01*
X2745Y171665D01*
X2709Y171717D01*
X2677Y171771D01*
X2649Y171827D01*
X2624Y171885D01*
X2603Y171944D01*
X2585Y172004D01*
X2572Y172065D01*
X2562Y172127D01*
X2556Y172189D01*
X2554Y172252D01*
X2554Y173750D01*
X2554Y176054D02*
X7046Y176054D01*
X7046Y178550D02*
X2554Y176054D01*
X2554Y178550D02*
X7046Y178550D01*
X7046Y180854D02*
X2554Y180854D01*
X2554Y182102D01*
X2556Y182170D01*
X2561Y182237D01*
X2570Y182304D01*
X2583Y182370D01*
X2599Y182436D01*
X2619Y182500D01*
X2643Y182564D01*
X2669Y182626D01*
X2699Y182687D01*
X2733Y182745D01*
X2769Y182802D01*
X2808Y182857D01*
X2851Y182910D01*
X2896Y182960D01*
X2944Y183008D01*
X2994Y183053D01*
X3047Y183096D01*
X3102Y183135D01*
X3159Y183171D01*
X3217Y183205D01*
X3278Y183235D01*
X3340Y183261D01*
X3404Y183285D01*
X3468Y183305D01*
X3534Y183321D01*
X3600Y183334D01*
X3667Y183343D01*
X3734Y183348D01*
X3802Y183350D01*
X3802Y183349D02*
X5798Y183349D01*
X5798Y183350D02*
X5866Y183348D01*
X5933Y183343D01*
X6000Y183334D01*
X6066Y183321D01*
X6132Y183305D01*
X6196Y183285D01*
X6260Y183261D01*
X6322Y183235D01*
X6383Y183205D01*
X6441Y183171D01*
X6498Y183135D01*
X6553Y183096D01*
X6606Y183053D01*
X6656Y183008D01*
X6704Y182960D01*
X6749Y182910D01*
X6792Y182857D01*
X6831Y182802D01*
X6867Y182745D01*
X6901Y182687D01*
X6931Y182626D01*
X6957Y182564D01*
X6981Y182500D01*
X7001Y182436D01*
X7017Y182370D01*
X7030Y182304D01*
X7039Y182237D01*
X7044Y182170D01*
X7046Y182102D01*
X7046Y180854D01*
X117254Y8446D02*
X117254Y3954D01*
X117254Y8446D02*
X118502Y8446D01*
X118571Y8444D01*
X118639Y8438D01*
X118707Y8429D01*
X118775Y8416D01*
X118842Y8399D01*
X118907Y8378D01*
X118972Y8354D01*
X119035Y8327D01*
X119096Y8296D01*
X119156Y8261D01*
X119213Y8224D01*
X119269Y8183D01*
X119322Y8139D01*
X119372Y8093D01*
X119420Y8043D01*
X119465Y7991D01*
X119508Y7937D01*
X119547Y7881D01*
X119583Y7822D01*
X119616Y7762D01*
X119645Y7699D01*
X119671Y7636D01*
X119693Y7571D01*
X119712Y7504D01*
X119727Y7437D01*
X119738Y7369D01*
X119746Y7301D01*
X119750Y7232D01*
X119750Y7164D01*
X119746Y7095D01*
X119738Y7027D01*
X119727Y6959D01*
X119712Y6892D01*
X119693Y6825D01*
X119671Y6760D01*
X119645Y6697D01*
X119616Y6634D01*
X119583Y6574D01*
X119547Y6515D01*
X119508Y6459D01*
X119465Y6405D01*
X119420Y6353D01*
X119372Y6303D01*
X119322Y6257D01*
X119269Y6213D01*
X119213Y6172D01*
X119156Y6135D01*
X119096Y6100D01*
X119035Y6069D01*
X118972Y6042D01*
X118907Y6018D01*
X118842Y5997D01*
X118775Y5980D01*
X118707Y5967D01*
X118639Y5958D01*
X118571Y5952D01*
X118502Y5950D01*
X117254Y5950D01*
X123728Y3455D02*
X125724Y8945D01*
X129679Y8446D02*
X131176Y3954D01*
X132673Y8446D01*
D11*
X164200Y12200D02*
X164200Y88200D01*
X164200Y12200D02*
X105200Y12200D01*
X105200Y88200D01*
X157700Y88200D02*
X164200Y88200D01*
X111700Y88200D02*
X105200Y88200D01*
X157700Y88200D02*
X157700Y72200D01*
X111700Y72200D02*
X111700Y88200D01*
D12*
X131136Y38865D02*
X131136Y35111D01*
X131134Y35046D01*
X131128Y34982D01*
X131118Y34918D01*
X131105Y34854D01*
X131087Y34792D01*
X131066Y34731D01*
X131042Y34671D01*
X131013Y34613D01*
X130981Y34556D01*
X130946Y34502D01*
X130908Y34450D01*
X130866Y34400D01*
X130822Y34353D01*
X130775Y34309D01*
X130725Y34267D01*
X130673Y34229D01*
X130619Y34194D01*
X130562Y34162D01*
X130504Y34133D01*
X130444Y34109D01*
X130383Y34088D01*
X130321Y34070D01*
X130257Y34057D01*
X130193Y34047D01*
X130129Y34041D01*
X130064Y34039D01*
X129527Y34039D01*
X134084Y37793D02*
X135424Y38865D01*
X135424Y34039D01*
X134084Y34039D02*
X136765Y34039D01*
D11*
X87200Y157000D02*
X11200Y157000D01*
X11200Y216000D01*
X87200Y216000D01*
X87200Y163500D02*
X87200Y157000D01*
X87200Y209500D02*
X87200Y216000D01*
X87200Y163500D02*
X71200Y163500D01*
X71200Y209500D02*
X87200Y209500D01*
D12*
X38793Y184044D02*
X35039Y184044D01*
X38793Y184043D02*
X38858Y184041D01*
X38922Y184035D01*
X38986Y184025D01*
X39050Y184012D01*
X39112Y183994D01*
X39173Y183973D01*
X39233Y183949D01*
X39291Y183920D01*
X39348Y183888D01*
X39402Y183853D01*
X39454Y183815D01*
X39504Y183773D01*
X39551Y183729D01*
X39595Y183682D01*
X39637Y183632D01*
X39675Y183580D01*
X39710Y183526D01*
X39742Y183469D01*
X39771Y183411D01*
X39795Y183351D01*
X39816Y183290D01*
X39834Y183228D01*
X39847Y183164D01*
X39857Y183100D01*
X39863Y183036D01*
X39865Y182971D01*
X39865Y182435D01*
X35039Y188466D02*
X35041Y188534D01*
X35047Y188601D01*
X35056Y188668D01*
X35069Y188735D01*
X35086Y188800D01*
X35107Y188865D01*
X35131Y188928D01*
X35159Y188990D01*
X35190Y189050D01*
X35224Y189108D01*
X35262Y189164D01*
X35302Y189219D01*
X35346Y189270D01*
X35393Y189319D01*
X35442Y189366D01*
X35493Y189410D01*
X35548Y189450D01*
X35604Y189488D01*
X35662Y189522D01*
X35722Y189553D01*
X35784Y189581D01*
X35847Y189605D01*
X35912Y189626D01*
X35977Y189643D01*
X36044Y189656D01*
X36111Y189665D01*
X36178Y189671D01*
X36246Y189673D01*
X35039Y188466D02*
X35041Y188388D01*
X35047Y188310D01*
X35057Y188233D01*
X35070Y188156D01*
X35088Y188080D01*
X35109Y188005D01*
X35134Y187931D01*
X35163Y187859D01*
X35195Y187788D01*
X35231Y187719D01*
X35270Y187651D01*
X35313Y187586D01*
X35359Y187523D01*
X35408Y187462D01*
X35460Y187404D01*
X35515Y187349D01*
X35572Y187296D01*
X35632Y187247D01*
X35695Y187200D01*
X35760Y187157D01*
X35826Y187117D01*
X35895Y187080D01*
X35966Y187047D01*
X36038Y187017D01*
X36112Y186991D01*
X37184Y189271D02*
X37135Y189320D01*
X37083Y189367D01*
X37028Y189410D01*
X36971Y189451D01*
X36912Y189489D01*
X36851Y189523D01*
X36788Y189554D01*
X36724Y189582D01*
X36658Y189606D01*
X36592Y189626D01*
X36524Y189643D01*
X36455Y189656D01*
X36386Y189665D01*
X36316Y189671D01*
X36246Y189673D01*
X37184Y189271D02*
X39865Y186992D01*
X39865Y189673D01*
D11*
X342000Y88200D02*
X342000Y12200D01*
X283000Y12200D01*
X283000Y88200D01*
X335500Y88200D02*
X342000Y88200D01*
X289500Y88200D02*
X283000Y88200D01*
X335500Y88200D02*
X335500Y72200D01*
X289500Y72200D02*
X289500Y88200D01*
D12*
X307936Y39865D02*
X307936Y36111D01*
X307934Y36046D01*
X307928Y35982D01*
X307918Y35918D01*
X307905Y35854D01*
X307887Y35792D01*
X307866Y35731D01*
X307842Y35671D01*
X307813Y35613D01*
X307781Y35556D01*
X307746Y35502D01*
X307708Y35450D01*
X307666Y35400D01*
X307622Y35353D01*
X307575Y35309D01*
X307525Y35267D01*
X307473Y35229D01*
X307419Y35194D01*
X307362Y35162D01*
X307304Y35133D01*
X307244Y35109D01*
X307183Y35088D01*
X307121Y35070D01*
X307057Y35057D01*
X306993Y35047D01*
X306929Y35041D01*
X306864Y35039D01*
X306327Y35039D01*
X310884Y35039D02*
X312224Y35039D01*
X312295Y35041D01*
X312367Y35047D01*
X312437Y35056D01*
X312507Y35069D01*
X312577Y35086D01*
X312645Y35107D01*
X312712Y35131D01*
X312778Y35159D01*
X312842Y35190D01*
X312905Y35225D01*
X312965Y35263D01*
X313024Y35304D01*
X313080Y35348D01*
X313134Y35395D01*
X313185Y35444D01*
X313233Y35497D01*
X313279Y35552D01*
X313321Y35609D01*
X313361Y35669D01*
X313397Y35730D01*
X313430Y35794D01*
X313459Y35859D01*
X313485Y35925D01*
X313508Y35993D01*
X313527Y36062D01*
X313542Y36132D01*
X313553Y36202D01*
X313561Y36273D01*
X313565Y36344D01*
X313565Y36416D01*
X313561Y36487D01*
X313553Y36558D01*
X313542Y36628D01*
X313527Y36698D01*
X313508Y36767D01*
X313485Y36835D01*
X313459Y36901D01*
X313430Y36966D01*
X313397Y37030D01*
X313361Y37091D01*
X313321Y37151D01*
X313279Y37208D01*
X313233Y37263D01*
X313185Y37316D01*
X313134Y37365D01*
X313080Y37412D01*
X313024Y37456D01*
X312965Y37497D01*
X312905Y37535D01*
X312842Y37570D01*
X312778Y37601D01*
X312712Y37629D01*
X312645Y37653D01*
X312577Y37674D01*
X312507Y37691D01*
X312437Y37704D01*
X312367Y37713D01*
X312295Y37719D01*
X312224Y37721D01*
X312493Y39865D02*
X310884Y39865D01*
X312493Y39865D02*
X312558Y39863D01*
X312622Y39857D01*
X312686Y39847D01*
X312750Y39834D01*
X312812Y39816D01*
X312873Y39795D01*
X312933Y39771D01*
X312991Y39742D01*
X313048Y39710D01*
X313102Y39675D01*
X313154Y39637D01*
X313204Y39595D01*
X313251Y39551D01*
X313295Y39504D01*
X313337Y39454D01*
X313375Y39402D01*
X313410Y39348D01*
X313442Y39291D01*
X313471Y39233D01*
X313495Y39173D01*
X313516Y39112D01*
X313534Y39050D01*
X313547Y38986D01*
X313557Y38922D01*
X313563Y38858D01*
X313565Y38793D01*
X313563Y38728D01*
X313557Y38664D01*
X313547Y38600D01*
X313534Y38536D01*
X313516Y38474D01*
X313495Y38413D01*
X313471Y38353D01*
X313442Y38295D01*
X313410Y38238D01*
X313375Y38184D01*
X313337Y38132D01*
X313295Y38082D01*
X313251Y38035D01*
X313204Y37991D01*
X313154Y37949D01*
X313102Y37911D01*
X313048Y37876D01*
X312991Y37844D01*
X312933Y37815D01*
X312873Y37791D01*
X312812Y37770D01*
X312750Y37752D01*
X312686Y37739D01*
X312622Y37729D01*
X312558Y37723D01*
X312493Y37721D01*
X312493Y37720D02*
X311420Y37720D01*
D11*
X360000Y216000D02*
X436000Y216000D01*
X436000Y157000D01*
X360000Y157000D01*
X360000Y209500D02*
X360000Y216000D01*
X360000Y163500D02*
X360000Y157000D01*
X360000Y209500D02*
X376000Y209500D01*
X376000Y163500D02*
X360000Y163500D01*
D12*
X412335Y181936D02*
X416089Y181936D01*
X416154Y181934D01*
X416218Y181928D01*
X416282Y181918D01*
X416346Y181905D01*
X416408Y181887D01*
X416469Y181866D01*
X416529Y181842D01*
X416587Y181813D01*
X416644Y181781D01*
X416698Y181746D01*
X416750Y181708D01*
X416800Y181666D01*
X416847Y181622D01*
X416891Y181575D01*
X416933Y181525D01*
X416971Y181473D01*
X417006Y181419D01*
X417038Y181362D01*
X417067Y181304D01*
X417091Y181244D01*
X417112Y181183D01*
X417130Y181121D01*
X417143Y181057D01*
X417153Y180993D01*
X417159Y180929D01*
X417161Y180864D01*
X417161Y180327D01*
X416089Y184884D02*
X412335Y185956D01*
X416089Y184884D02*
X416089Y187565D01*
X415016Y186761D02*
X417161Y186761D01*
D11*
X273100Y88200D02*
X273100Y12200D01*
X174100Y12200D01*
X174100Y88200D01*
X266600Y88200D02*
X273100Y88200D01*
X180600Y88200D02*
X174100Y88200D01*
X266600Y88200D02*
X266600Y72200D01*
X180600Y72200D02*
X180600Y88200D01*
D12*
X220306Y37275D02*
X220306Y33521D01*
X220304Y33456D01*
X220298Y33392D01*
X220288Y33328D01*
X220275Y33264D01*
X220257Y33202D01*
X220236Y33141D01*
X220212Y33081D01*
X220183Y33023D01*
X220151Y32966D01*
X220116Y32912D01*
X220078Y32860D01*
X220036Y32810D01*
X219992Y32763D01*
X219945Y32719D01*
X219895Y32677D01*
X219843Y32639D01*
X219789Y32604D01*
X219732Y32572D01*
X219674Y32543D01*
X219614Y32519D01*
X219553Y32498D01*
X219491Y32480D01*
X219427Y32467D01*
X219363Y32457D01*
X219299Y32451D01*
X219234Y32449D01*
X218697Y32449D01*
X223254Y32449D02*
X224863Y32449D01*
X224928Y32451D01*
X224992Y32457D01*
X225056Y32467D01*
X225120Y32480D01*
X225182Y32498D01*
X225243Y32519D01*
X225303Y32543D01*
X225361Y32572D01*
X225418Y32604D01*
X225472Y32639D01*
X225524Y32677D01*
X225574Y32719D01*
X225621Y32763D01*
X225665Y32810D01*
X225707Y32860D01*
X225745Y32912D01*
X225780Y32966D01*
X225812Y33023D01*
X225841Y33081D01*
X225865Y33141D01*
X225886Y33202D01*
X225904Y33264D01*
X225917Y33328D01*
X225927Y33392D01*
X225933Y33456D01*
X225935Y33521D01*
X225935Y34058D01*
X225933Y34123D01*
X225927Y34187D01*
X225917Y34251D01*
X225904Y34315D01*
X225886Y34377D01*
X225865Y34438D01*
X225841Y34498D01*
X225812Y34556D01*
X225780Y34613D01*
X225745Y34667D01*
X225707Y34719D01*
X225665Y34769D01*
X225621Y34816D01*
X225574Y34860D01*
X225524Y34902D01*
X225472Y34940D01*
X225418Y34975D01*
X225361Y35007D01*
X225303Y35036D01*
X225243Y35060D01*
X225182Y35081D01*
X225120Y35099D01*
X225056Y35112D01*
X224992Y35122D01*
X224928Y35128D01*
X224863Y35130D01*
X223254Y35130D01*
X223254Y37275D01*
X225935Y37275D01*
X350600Y97600D02*
X96600Y97600D01*
X350600Y97600D02*
X350600Y300800D01*
X96600Y300800D01*
X96600Y97600D01*
M02*
