M48
;GenerationSoftware,Autodesk,EAGLE,9.6.2*%
;CreationDate,2026-05-28T03:31:55Z*%
FMAT,2
ICI,OFF
METRIC,TZ,000.000
T7C0.600
T6C0.700
T5C0.813
T4C0.900
T3C1.110
T2C2.540
T1C5.000
%
G90
M71
T1
X4000Y4000
X56000Y4000
X4000Y106000
X56000Y106000
T2
X15621Y84328
X41021Y84328
T3
X42291Y75438
X39751Y75438
X29591Y75438
X27051Y75438
X24511Y75438
X21971Y75438
X19431Y75438
X16891Y75438
X14351Y75438
X14351Y93218
X19431Y93218
X16891Y93218
X21971Y93218
X24511Y93218
X27051Y93218
X29591Y93218
X32131Y93218
X34671Y93218
X37211Y93218
X39751Y93218
X42291Y93218
X37211Y75438
X34671Y75438
X32131Y75438
T4
X48260Y62250
X48260Y64750
X48260Y67250
X11430Y54550
X11430Y52050
X11430Y49550
X11430Y47050
X48260Y44510
X48260Y49510
X48260Y52010
X11303Y39310
X11303Y36810
X11303Y34310
X11303Y31810
X48260Y29270
X48260Y31770
X48260Y34270
X48260Y36770
X38167Y99187
X35667Y99187
X33167Y99187
X30667Y99187
X21523Y10795
X24023Y10795
X26523Y10795
X29023Y10795
X11430Y69663
X11430Y67163
X11430Y64663
X11430Y62163
X48260Y47010
X48260Y59750
T5
X36322Y44831
X26162Y44831
X31496Y23368
X26162Y40005
X36322Y40005
X17653Y23368
X27813Y23368
X41656Y23368
X8255Y83947
X5715Y83947
X8382Y91440
X5842Y91440
X8382Y76327
X36322Y49657
X5842Y76327
X26162Y49657
T6
X8382Y12716
X13954Y7874
X11954Y7874
X19320Y102235
X21320Y102235
X51181Y12430
X51181Y10430
X8382Y14716
X8255Y21352
X8255Y23352
X51181Y22590
X51181Y20590
T7
X42375Y35560
X17375Y53340
X42375Y30480
X42375Y27940
X17375Y63500
X42375Y63500
X17375Y60960
X17375Y58420
X42375Y33020
X17375Y55880
X17375Y50800
X17375Y48260
X17375Y45720
X17375Y43180
X17375Y40640
X17375Y38100
X17375Y35560
X17375Y33020
X17375Y30480
X17375Y27940
X42375Y60960
X42375Y58420
X42375Y50800
X42375Y55880
X42375Y53340
X42375Y48260
X42375Y45720
X42375Y43180
X42375Y40640
X42375Y38100
M30