G04 EAGLE Gerber RS-274X export*
G75*
%MOMM*%
%FSLAX34Y34*%
%LPD*%
%INBoard Outline*%
%IPPOS*%
%AMOC8*
5,1,8,0,0,1.08239X$1,22.5*%
G01*
%ADD10C,0.000000*%
%ADD11C,0.130000*%
%ADD12C,0.152400*%
%ADD13C,0.254000*%


D10*
X964000Y420000D02*
X689000Y420000D01*
X689000Y803000D01*
X964000Y803000D01*
X964000Y420000D01*
D11*
X689000Y803000D02*
X689000Y849580D01*
X964000Y849580D02*
X964000Y803000D01*
X963350Y830080D02*
X689650Y830080D01*
X715000Y833272D01*
X715000Y826888D01*
X689650Y830080D01*
X715000Y831380D01*
X715000Y828780D02*
X689650Y830080D01*
X715000Y832680D01*
X715000Y827480D02*
X689650Y830080D01*
X938000Y833272D02*
X963350Y830080D01*
X938000Y833272D02*
X938000Y826888D01*
X963350Y830080D01*
X938000Y831380D01*
X938000Y828780D02*
X963350Y830080D01*
X938000Y832680D01*
X938000Y827480D02*
X963350Y830080D01*
D12*
X804383Y848779D02*
X804381Y848904D01*
X804375Y849029D01*
X804366Y849154D01*
X804352Y849278D01*
X804335Y849402D01*
X804314Y849526D01*
X804289Y849648D01*
X804260Y849770D01*
X804228Y849891D01*
X804192Y850011D01*
X804152Y850130D01*
X804109Y850247D01*
X804062Y850363D01*
X804011Y850478D01*
X803957Y850590D01*
X803899Y850702D01*
X803839Y850811D01*
X803774Y850918D01*
X803707Y851024D01*
X803636Y851127D01*
X803562Y851228D01*
X803485Y851327D01*
X803405Y851423D01*
X803322Y851517D01*
X803237Y851608D01*
X803148Y851697D01*
X803057Y851782D01*
X802963Y851865D01*
X802867Y851945D01*
X802768Y852022D01*
X802667Y852096D01*
X802564Y852167D01*
X802458Y852234D01*
X802351Y852299D01*
X802242Y852359D01*
X802130Y852417D01*
X802018Y852471D01*
X801903Y852522D01*
X801787Y852569D01*
X801670Y852612D01*
X801551Y852652D01*
X801431Y852688D01*
X801310Y852720D01*
X801188Y852749D01*
X801066Y852774D01*
X800942Y852795D01*
X800818Y852812D01*
X800694Y852826D01*
X800569Y852835D01*
X800444Y852841D01*
X800319Y852843D01*
X800176Y852841D01*
X800034Y852835D01*
X799891Y852825D01*
X799749Y852812D01*
X799608Y852794D01*
X799466Y852773D01*
X799326Y852748D01*
X799186Y852719D01*
X799047Y852686D01*
X798909Y852649D01*
X798772Y852609D01*
X798637Y852565D01*
X798502Y852517D01*
X798369Y852465D01*
X798237Y852410D01*
X798107Y852351D01*
X797979Y852289D01*
X797852Y852223D01*
X797727Y852154D01*
X797604Y852082D01*
X797484Y852006D01*
X797365Y851927D01*
X797248Y851844D01*
X797134Y851759D01*
X797022Y851670D01*
X796913Y851579D01*
X796806Y851484D01*
X796701Y851387D01*
X796600Y851286D01*
X796501Y851183D01*
X796405Y851078D01*
X796312Y850969D01*
X796222Y850858D01*
X796135Y850745D01*
X796051Y850630D01*
X795971Y850512D01*
X795893Y850392D01*
X795819Y850270D01*
X795749Y850146D01*
X795681Y850020D01*
X795618Y849892D01*
X795557Y849763D01*
X795500Y849632D01*
X795447Y849500D01*
X795398Y849366D01*
X795352Y849231D01*
X803028Y845618D02*
X803122Y845710D01*
X803212Y845804D01*
X803300Y845901D01*
X803385Y846001D01*
X803467Y846103D01*
X803546Y846208D01*
X803621Y846315D01*
X803693Y846424D01*
X803762Y846535D01*
X803828Y846649D01*
X803890Y846764D01*
X803949Y846881D01*
X804004Y847000D01*
X804055Y847120D01*
X804103Y847242D01*
X804148Y847365D01*
X804188Y847489D01*
X804225Y847615D01*
X804258Y847742D01*
X804287Y847869D01*
X804313Y847998D01*
X804334Y848127D01*
X804352Y848257D01*
X804365Y848387D01*
X804375Y848517D01*
X804381Y848648D01*
X804383Y848779D01*
X803028Y845618D02*
X795352Y836587D01*
X804383Y836587D01*
X810983Y851037D02*
X810983Y852843D01*
X820014Y852843D01*
X815499Y836587D01*
X825989Y836587D02*
X825989Y837490D01*
X826892Y837490D01*
X826892Y836587D01*
X825989Y836587D01*
X832867Y836587D02*
X838286Y836587D01*
X838404Y836589D01*
X838522Y836595D01*
X838640Y836604D01*
X838757Y836618D01*
X838874Y836635D01*
X838991Y836656D01*
X839106Y836681D01*
X839221Y836710D01*
X839335Y836743D01*
X839447Y836779D01*
X839558Y836819D01*
X839668Y836862D01*
X839777Y836909D01*
X839884Y836959D01*
X839989Y837014D01*
X840092Y837071D01*
X840193Y837132D01*
X840293Y837196D01*
X840390Y837263D01*
X840485Y837333D01*
X840577Y837407D01*
X840668Y837483D01*
X840755Y837563D01*
X840840Y837645D01*
X840922Y837730D01*
X841002Y837817D01*
X841078Y837908D01*
X841152Y838000D01*
X841222Y838095D01*
X841289Y838192D01*
X841353Y838292D01*
X841414Y838393D01*
X841471Y838496D01*
X841526Y838601D01*
X841576Y838708D01*
X841623Y838817D01*
X841666Y838927D01*
X841706Y839038D01*
X841742Y839150D01*
X841775Y839264D01*
X841804Y839379D01*
X841829Y839494D01*
X841850Y839611D01*
X841867Y839728D01*
X841881Y839845D01*
X841890Y839963D01*
X841896Y840081D01*
X841898Y840199D01*
X841898Y842006D01*
X841896Y842124D01*
X841890Y842242D01*
X841881Y842360D01*
X841867Y842477D01*
X841850Y842594D01*
X841829Y842711D01*
X841804Y842826D01*
X841775Y842941D01*
X841742Y843055D01*
X841706Y843167D01*
X841666Y843278D01*
X841623Y843388D01*
X841576Y843497D01*
X841526Y843604D01*
X841471Y843709D01*
X841414Y843812D01*
X841353Y843913D01*
X841289Y844013D01*
X841222Y844110D01*
X841152Y844205D01*
X841078Y844297D01*
X841002Y844388D01*
X840922Y844475D01*
X840840Y844560D01*
X840755Y844642D01*
X840668Y844722D01*
X840577Y844798D01*
X840485Y844872D01*
X840390Y844942D01*
X840293Y845009D01*
X840193Y845073D01*
X840092Y845134D01*
X839989Y845191D01*
X839884Y845246D01*
X839777Y845296D01*
X839668Y845343D01*
X839558Y845386D01*
X839447Y845426D01*
X839335Y845462D01*
X839221Y845495D01*
X839106Y845524D01*
X838991Y845549D01*
X838874Y845570D01*
X838757Y845587D01*
X838640Y845601D01*
X838522Y845610D01*
X838404Y845616D01*
X838286Y845618D01*
X832867Y845618D01*
X832867Y852843D01*
X841898Y852843D01*
X849853Y850585D02*
X849716Y850296D01*
X849586Y850004D01*
X849463Y849708D01*
X849348Y849410D01*
X849239Y849109D01*
X849138Y848806D01*
X849044Y848500D01*
X848957Y848193D01*
X848878Y847883D01*
X848806Y847571D01*
X848742Y847258D01*
X848685Y846943D01*
X848635Y846627D01*
X848593Y846310D01*
X848559Y845992D01*
X848532Y845674D01*
X848513Y845354D01*
X848502Y845035D01*
X848498Y844715D01*
X849853Y850586D02*
X849892Y850694D01*
X849935Y850801D01*
X849981Y850906D01*
X850032Y851010D01*
X850085Y851112D01*
X850142Y851212D01*
X850203Y851310D01*
X850267Y851405D01*
X850334Y851499D01*
X850405Y851590D01*
X850478Y851679D01*
X850555Y851765D01*
X850634Y851848D01*
X850716Y851929D01*
X850801Y852007D01*
X850889Y852081D01*
X850979Y852153D01*
X851071Y852221D01*
X851166Y852287D01*
X851263Y852349D01*
X851362Y852407D01*
X851464Y852463D01*
X851566Y852514D01*
X851671Y852562D01*
X851777Y852607D01*
X851885Y852648D01*
X851994Y852685D01*
X852104Y852718D01*
X852216Y852747D01*
X852328Y852773D01*
X852441Y852795D01*
X852555Y852812D01*
X852669Y852826D01*
X852784Y852836D01*
X852899Y852842D01*
X853014Y852844D01*
X853014Y852843D02*
X853129Y852841D01*
X853244Y852835D01*
X853359Y852825D01*
X853473Y852811D01*
X853587Y852794D01*
X853700Y852772D01*
X853812Y852746D01*
X853924Y852717D01*
X854034Y852684D01*
X854143Y852647D01*
X854251Y852606D01*
X854357Y852561D01*
X854462Y852513D01*
X854564Y852462D01*
X854665Y852406D01*
X854765Y852348D01*
X854862Y852286D01*
X854956Y852221D01*
X855049Y852152D01*
X855139Y852080D01*
X855227Y852006D01*
X855312Y851928D01*
X855394Y851847D01*
X855473Y851764D01*
X855550Y851678D01*
X855623Y851589D01*
X855694Y851498D01*
X855761Y851404D01*
X855825Y851309D01*
X855886Y851211D01*
X855943Y851111D01*
X855996Y851009D01*
X856047Y850905D01*
X856093Y850800D01*
X856136Y850693D01*
X856175Y850585D01*
X856174Y850585D02*
X856311Y850296D01*
X856441Y850004D01*
X856564Y849708D01*
X856679Y849410D01*
X856788Y849109D01*
X856889Y848806D01*
X856983Y848500D01*
X857070Y848193D01*
X857149Y847883D01*
X857221Y847571D01*
X857285Y847258D01*
X857342Y846943D01*
X857392Y846627D01*
X857434Y846310D01*
X857468Y845992D01*
X857495Y845674D01*
X857514Y845354D01*
X857525Y845035D01*
X857529Y844715D01*
X848498Y844715D02*
X848502Y844395D01*
X848513Y844076D01*
X848532Y843756D01*
X848559Y843438D01*
X848593Y843120D01*
X848635Y842803D01*
X848685Y842487D01*
X848742Y842172D01*
X848806Y841859D01*
X848878Y841547D01*
X848957Y841237D01*
X849044Y840930D01*
X849138Y840624D01*
X849239Y840321D01*
X849348Y840020D01*
X849463Y839722D01*
X849586Y839426D01*
X849716Y839134D01*
X849853Y838845D01*
X849892Y838737D01*
X849935Y838630D01*
X849981Y838525D01*
X850032Y838421D01*
X850085Y838319D01*
X850142Y838219D01*
X850203Y838121D01*
X850267Y838026D01*
X850334Y837932D01*
X850405Y837841D01*
X850478Y837752D01*
X850555Y837666D01*
X850634Y837583D01*
X850716Y837502D01*
X850801Y837424D01*
X850889Y837350D01*
X850979Y837278D01*
X851072Y837209D01*
X851166Y837144D01*
X851263Y837082D01*
X851363Y837024D01*
X851464Y836968D01*
X851566Y836917D01*
X851671Y836869D01*
X851777Y836824D01*
X851885Y836783D01*
X851994Y836746D01*
X852104Y836713D01*
X852216Y836684D01*
X852328Y836658D01*
X852441Y836636D01*
X852555Y836619D01*
X852669Y836605D01*
X852784Y836595D01*
X852899Y836589D01*
X853014Y836587D01*
X856174Y838845D02*
X856311Y839134D01*
X856441Y839426D01*
X856564Y839722D01*
X856679Y840020D01*
X856788Y840321D01*
X856889Y840624D01*
X856983Y840930D01*
X857070Y841237D01*
X857149Y841547D01*
X857221Y841859D01*
X857285Y842172D01*
X857342Y842487D01*
X857392Y842803D01*
X857434Y843120D01*
X857468Y843438D01*
X857495Y843756D01*
X857514Y844076D01*
X857525Y844395D01*
X857529Y844715D01*
X856175Y838845D02*
X856136Y838737D01*
X856093Y838630D01*
X856047Y838525D01*
X855996Y838421D01*
X855943Y838319D01*
X855886Y838219D01*
X855825Y838121D01*
X855761Y838026D01*
X855694Y837932D01*
X855623Y837841D01*
X855550Y837752D01*
X855473Y837666D01*
X855394Y837583D01*
X855312Y837502D01*
X855227Y837424D01*
X855139Y837350D01*
X855049Y837278D01*
X854956Y837209D01*
X854862Y837144D01*
X854765Y837082D01*
X854665Y837024D01*
X854564Y836968D01*
X854461Y836917D01*
X854357Y836869D01*
X854251Y836824D01*
X854143Y836783D01*
X854034Y836746D01*
X853924Y836713D01*
X853812Y836684D01*
X853700Y836658D01*
X853587Y836636D01*
X853473Y836619D01*
X853359Y836605D01*
X853244Y836595D01*
X853129Y836589D01*
X853014Y836587D01*
X849401Y840199D02*
X856626Y849231D01*
D10*
X939546Y784860D02*
X939548Y785019D01*
X939554Y785178D01*
X939564Y785336D01*
X939578Y785495D01*
X939596Y785653D01*
X939617Y785810D01*
X939643Y785967D01*
X939673Y786123D01*
X939706Y786279D01*
X939744Y786433D01*
X939785Y786587D01*
X939830Y786739D01*
X939879Y786890D01*
X939932Y787040D01*
X939988Y787189D01*
X940049Y787336D01*
X940112Y787481D01*
X940180Y787625D01*
X940251Y787768D01*
X940325Y787908D01*
X940403Y788046D01*
X940485Y788183D01*
X940570Y788317D01*
X940658Y788450D01*
X940749Y788580D01*
X940844Y788707D01*
X940942Y788832D01*
X941043Y788955D01*
X941147Y789075D01*
X941254Y789193D01*
X941364Y789308D01*
X941477Y789420D01*
X941592Y789529D01*
X941710Y789635D01*
X941831Y789739D01*
X941955Y789839D01*
X942080Y789936D01*
X942209Y790030D01*
X942339Y790120D01*
X942472Y790208D01*
X942607Y790292D01*
X942744Y790372D01*
X942883Y790450D01*
X943024Y790523D01*
X943166Y790593D01*
X943311Y790660D01*
X943457Y790723D01*
X943604Y790782D01*
X943753Y790838D01*
X943904Y790889D01*
X944055Y790937D01*
X944208Y790981D01*
X944362Y791022D01*
X944516Y791058D01*
X944672Y791091D01*
X944828Y791120D01*
X944985Y791144D01*
X945143Y791165D01*
X945301Y791182D01*
X945459Y791195D01*
X945618Y791204D01*
X945777Y791209D01*
X945936Y791210D01*
X946095Y791207D01*
X946253Y791200D01*
X946412Y791189D01*
X946570Y791174D01*
X946728Y791155D01*
X946885Y791132D01*
X947042Y791106D01*
X947198Y791075D01*
X947353Y791041D01*
X947507Y791002D01*
X947661Y790960D01*
X947813Y790914D01*
X947964Y790864D01*
X948113Y790810D01*
X948262Y790753D01*
X948408Y790692D01*
X948554Y790627D01*
X948697Y790559D01*
X948839Y790487D01*
X948979Y790411D01*
X949117Y790333D01*
X949253Y790250D01*
X949387Y790165D01*
X949518Y790076D01*
X949648Y789983D01*
X949775Y789888D01*
X949899Y789789D01*
X950022Y789687D01*
X950141Y789583D01*
X950258Y789475D01*
X950372Y789364D01*
X950483Y789251D01*
X950592Y789135D01*
X950697Y789016D01*
X950800Y788894D01*
X950899Y788770D01*
X950996Y788644D01*
X951089Y788515D01*
X951179Y788384D01*
X951265Y788250D01*
X951348Y788115D01*
X951428Y787977D01*
X951504Y787838D01*
X951577Y787697D01*
X951646Y787554D01*
X951712Y787409D01*
X951774Y787262D01*
X951832Y787115D01*
X951887Y786965D01*
X951938Y786815D01*
X951985Y786663D01*
X952028Y786510D01*
X952067Y786356D01*
X952103Y786201D01*
X952134Y786045D01*
X952162Y785889D01*
X952186Y785732D01*
X952206Y785574D01*
X952222Y785416D01*
X952234Y785257D01*
X952242Y785098D01*
X952246Y784939D01*
X952246Y784781D01*
X952242Y784622D01*
X952234Y784463D01*
X952222Y784304D01*
X952206Y784146D01*
X952186Y783988D01*
X952162Y783831D01*
X952134Y783675D01*
X952103Y783519D01*
X952067Y783364D01*
X952028Y783210D01*
X951985Y783057D01*
X951938Y782905D01*
X951887Y782755D01*
X951832Y782605D01*
X951774Y782458D01*
X951712Y782311D01*
X951646Y782166D01*
X951577Y782023D01*
X951504Y781882D01*
X951428Y781743D01*
X951348Y781605D01*
X951265Y781470D01*
X951179Y781336D01*
X951089Y781205D01*
X950996Y781076D01*
X950899Y780950D01*
X950800Y780826D01*
X950697Y780704D01*
X950592Y780585D01*
X950483Y780469D01*
X950372Y780356D01*
X950258Y780245D01*
X950141Y780137D01*
X950022Y780033D01*
X949899Y779931D01*
X949775Y779832D01*
X949648Y779737D01*
X949518Y779644D01*
X949387Y779555D01*
X949253Y779470D01*
X949117Y779387D01*
X948979Y779309D01*
X948839Y779233D01*
X948697Y779161D01*
X948554Y779093D01*
X948408Y779028D01*
X948262Y778967D01*
X948113Y778910D01*
X947964Y778856D01*
X947813Y778806D01*
X947661Y778760D01*
X947507Y778718D01*
X947353Y778679D01*
X947198Y778645D01*
X947042Y778614D01*
X946885Y778588D01*
X946728Y778565D01*
X946570Y778546D01*
X946412Y778531D01*
X946253Y778520D01*
X946095Y778513D01*
X945936Y778510D01*
X945777Y778511D01*
X945618Y778516D01*
X945459Y778525D01*
X945301Y778538D01*
X945143Y778555D01*
X944985Y778576D01*
X944828Y778600D01*
X944672Y778629D01*
X944516Y778662D01*
X944362Y778698D01*
X944208Y778739D01*
X944055Y778783D01*
X943904Y778831D01*
X943753Y778882D01*
X943604Y778938D01*
X943457Y778997D01*
X943311Y779060D01*
X943166Y779127D01*
X943024Y779197D01*
X942883Y779270D01*
X942744Y779348D01*
X942607Y779428D01*
X942472Y779512D01*
X942339Y779600D01*
X942209Y779690D01*
X942080Y779784D01*
X941955Y779881D01*
X941831Y779981D01*
X941710Y780085D01*
X941592Y780191D01*
X941477Y780300D01*
X941364Y780412D01*
X941254Y780527D01*
X941147Y780645D01*
X941043Y780765D01*
X940942Y780888D01*
X940844Y781013D01*
X940749Y781140D01*
X940658Y781270D01*
X940570Y781403D01*
X940485Y781537D01*
X940403Y781674D01*
X940325Y781812D01*
X940251Y781952D01*
X940180Y782095D01*
X940112Y782239D01*
X940049Y782384D01*
X939988Y782531D01*
X939932Y782680D01*
X939879Y782830D01*
X939830Y782981D01*
X939785Y783133D01*
X939744Y783287D01*
X939706Y783441D01*
X939673Y783597D01*
X939643Y783753D01*
X939617Y783910D01*
X939596Y784067D01*
X939578Y784225D01*
X939564Y784384D01*
X939554Y784542D01*
X939548Y784701D01*
X939546Y784860D01*
X939546Y438150D02*
X939548Y438309D01*
X939554Y438468D01*
X939564Y438626D01*
X939578Y438785D01*
X939596Y438943D01*
X939617Y439100D01*
X939643Y439257D01*
X939673Y439413D01*
X939706Y439569D01*
X939744Y439723D01*
X939785Y439877D01*
X939830Y440029D01*
X939879Y440180D01*
X939932Y440330D01*
X939988Y440479D01*
X940049Y440626D01*
X940112Y440771D01*
X940180Y440915D01*
X940251Y441058D01*
X940325Y441198D01*
X940403Y441336D01*
X940485Y441473D01*
X940570Y441607D01*
X940658Y441740D01*
X940749Y441870D01*
X940844Y441997D01*
X940942Y442122D01*
X941043Y442245D01*
X941147Y442365D01*
X941254Y442483D01*
X941364Y442598D01*
X941477Y442710D01*
X941592Y442819D01*
X941710Y442925D01*
X941831Y443029D01*
X941955Y443129D01*
X942080Y443226D01*
X942209Y443320D01*
X942339Y443410D01*
X942472Y443498D01*
X942607Y443582D01*
X942744Y443662D01*
X942883Y443740D01*
X943024Y443813D01*
X943166Y443883D01*
X943311Y443950D01*
X943457Y444013D01*
X943604Y444072D01*
X943753Y444128D01*
X943904Y444179D01*
X944055Y444227D01*
X944208Y444271D01*
X944362Y444312D01*
X944516Y444348D01*
X944672Y444381D01*
X944828Y444410D01*
X944985Y444434D01*
X945143Y444455D01*
X945301Y444472D01*
X945459Y444485D01*
X945618Y444494D01*
X945777Y444499D01*
X945936Y444500D01*
X946095Y444497D01*
X946253Y444490D01*
X946412Y444479D01*
X946570Y444464D01*
X946728Y444445D01*
X946885Y444422D01*
X947042Y444396D01*
X947198Y444365D01*
X947353Y444331D01*
X947507Y444292D01*
X947661Y444250D01*
X947813Y444204D01*
X947964Y444154D01*
X948113Y444100D01*
X948262Y444043D01*
X948408Y443982D01*
X948554Y443917D01*
X948697Y443849D01*
X948839Y443777D01*
X948979Y443701D01*
X949117Y443623D01*
X949253Y443540D01*
X949387Y443455D01*
X949518Y443366D01*
X949648Y443273D01*
X949775Y443178D01*
X949899Y443079D01*
X950022Y442977D01*
X950141Y442873D01*
X950258Y442765D01*
X950372Y442654D01*
X950483Y442541D01*
X950592Y442425D01*
X950697Y442306D01*
X950800Y442184D01*
X950899Y442060D01*
X950996Y441934D01*
X951089Y441805D01*
X951179Y441674D01*
X951265Y441540D01*
X951348Y441405D01*
X951428Y441267D01*
X951504Y441128D01*
X951577Y440987D01*
X951646Y440844D01*
X951712Y440699D01*
X951774Y440552D01*
X951832Y440405D01*
X951887Y440255D01*
X951938Y440105D01*
X951985Y439953D01*
X952028Y439800D01*
X952067Y439646D01*
X952103Y439491D01*
X952134Y439335D01*
X952162Y439179D01*
X952186Y439022D01*
X952206Y438864D01*
X952222Y438706D01*
X952234Y438547D01*
X952242Y438388D01*
X952246Y438229D01*
X952246Y438071D01*
X952242Y437912D01*
X952234Y437753D01*
X952222Y437594D01*
X952206Y437436D01*
X952186Y437278D01*
X952162Y437121D01*
X952134Y436965D01*
X952103Y436809D01*
X952067Y436654D01*
X952028Y436500D01*
X951985Y436347D01*
X951938Y436195D01*
X951887Y436045D01*
X951832Y435895D01*
X951774Y435748D01*
X951712Y435601D01*
X951646Y435456D01*
X951577Y435313D01*
X951504Y435172D01*
X951428Y435033D01*
X951348Y434895D01*
X951265Y434760D01*
X951179Y434626D01*
X951089Y434495D01*
X950996Y434366D01*
X950899Y434240D01*
X950800Y434116D01*
X950697Y433994D01*
X950592Y433875D01*
X950483Y433759D01*
X950372Y433646D01*
X950258Y433535D01*
X950141Y433427D01*
X950022Y433323D01*
X949899Y433221D01*
X949775Y433122D01*
X949648Y433027D01*
X949518Y432934D01*
X949387Y432845D01*
X949253Y432760D01*
X949117Y432677D01*
X948979Y432599D01*
X948839Y432523D01*
X948697Y432451D01*
X948554Y432383D01*
X948408Y432318D01*
X948262Y432257D01*
X948113Y432200D01*
X947964Y432146D01*
X947813Y432096D01*
X947661Y432050D01*
X947507Y432008D01*
X947353Y431969D01*
X947198Y431935D01*
X947042Y431904D01*
X946885Y431878D01*
X946728Y431855D01*
X946570Y431836D01*
X946412Y431821D01*
X946253Y431810D01*
X946095Y431803D01*
X945936Y431800D01*
X945777Y431801D01*
X945618Y431806D01*
X945459Y431815D01*
X945301Y431828D01*
X945143Y431845D01*
X944985Y431866D01*
X944828Y431890D01*
X944672Y431919D01*
X944516Y431952D01*
X944362Y431988D01*
X944208Y432029D01*
X944055Y432073D01*
X943904Y432121D01*
X943753Y432172D01*
X943604Y432228D01*
X943457Y432287D01*
X943311Y432350D01*
X943166Y432417D01*
X943024Y432487D01*
X942883Y432560D01*
X942744Y432638D01*
X942607Y432718D01*
X942472Y432802D01*
X942339Y432890D01*
X942209Y432980D01*
X942080Y433074D01*
X941955Y433171D01*
X941831Y433271D01*
X941710Y433375D01*
X941592Y433481D01*
X941477Y433590D01*
X941364Y433702D01*
X941254Y433817D01*
X941147Y433935D01*
X941043Y434055D01*
X940942Y434178D01*
X940844Y434303D01*
X940749Y434430D01*
X940658Y434560D01*
X940570Y434693D01*
X940485Y434827D01*
X940403Y434964D01*
X940325Y435102D01*
X940251Y435242D01*
X940180Y435385D01*
X940112Y435529D01*
X940049Y435674D01*
X939988Y435821D01*
X939932Y435970D01*
X939879Y436120D01*
X939830Y436271D01*
X939785Y436423D01*
X939744Y436577D01*
X939706Y436731D01*
X939673Y436887D01*
X939643Y437043D01*
X939617Y437200D01*
X939596Y437357D01*
X939578Y437515D01*
X939564Y437674D01*
X939554Y437832D01*
X939548Y437991D01*
X939546Y438150D01*
X701548Y438150D02*
X701550Y438309D01*
X701556Y438468D01*
X701566Y438626D01*
X701580Y438785D01*
X701598Y438943D01*
X701619Y439100D01*
X701645Y439257D01*
X701675Y439413D01*
X701708Y439569D01*
X701746Y439723D01*
X701787Y439877D01*
X701832Y440029D01*
X701881Y440180D01*
X701934Y440330D01*
X701990Y440479D01*
X702051Y440626D01*
X702114Y440771D01*
X702182Y440915D01*
X702253Y441058D01*
X702327Y441198D01*
X702405Y441336D01*
X702487Y441473D01*
X702572Y441607D01*
X702660Y441740D01*
X702751Y441870D01*
X702846Y441997D01*
X702944Y442122D01*
X703045Y442245D01*
X703149Y442365D01*
X703256Y442483D01*
X703366Y442598D01*
X703479Y442710D01*
X703594Y442819D01*
X703712Y442925D01*
X703833Y443029D01*
X703957Y443129D01*
X704082Y443226D01*
X704211Y443320D01*
X704341Y443410D01*
X704474Y443498D01*
X704609Y443582D01*
X704746Y443662D01*
X704885Y443740D01*
X705026Y443813D01*
X705168Y443883D01*
X705313Y443950D01*
X705459Y444013D01*
X705606Y444072D01*
X705755Y444128D01*
X705906Y444179D01*
X706057Y444227D01*
X706210Y444271D01*
X706364Y444312D01*
X706518Y444348D01*
X706674Y444381D01*
X706830Y444410D01*
X706987Y444434D01*
X707145Y444455D01*
X707303Y444472D01*
X707461Y444485D01*
X707620Y444494D01*
X707779Y444499D01*
X707938Y444500D01*
X708097Y444497D01*
X708255Y444490D01*
X708414Y444479D01*
X708572Y444464D01*
X708730Y444445D01*
X708887Y444422D01*
X709044Y444396D01*
X709200Y444365D01*
X709355Y444331D01*
X709509Y444292D01*
X709663Y444250D01*
X709815Y444204D01*
X709966Y444154D01*
X710115Y444100D01*
X710264Y444043D01*
X710410Y443982D01*
X710556Y443917D01*
X710699Y443849D01*
X710841Y443777D01*
X710981Y443701D01*
X711119Y443623D01*
X711255Y443540D01*
X711389Y443455D01*
X711520Y443366D01*
X711650Y443273D01*
X711777Y443178D01*
X711901Y443079D01*
X712024Y442977D01*
X712143Y442873D01*
X712260Y442765D01*
X712374Y442654D01*
X712485Y442541D01*
X712594Y442425D01*
X712699Y442306D01*
X712802Y442184D01*
X712901Y442060D01*
X712998Y441934D01*
X713091Y441805D01*
X713181Y441674D01*
X713267Y441540D01*
X713350Y441405D01*
X713430Y441267D01*
X713506Y441128D01*
X713579Y440987D01*
X713648Y440844D01*
X713714Y440699D01*
X713776Y440552D01*
X713834Y440405D01*
X713889Y440255D01*
X713940Y440105D01*
X713987Y439953D01*
X714030Y439800D01*
X714069Y439646D01*
X714105Y439491D01*
X714136Y439335D01*
X714164Y439179D01*
X714188Y439022D01*
X714208Y438864D01*
X714224Y438706D01*
X714236Y438547D01*
X714244Y438388D01*
X714248Y438229D01*
X714248Y438071D01*
X714244Y437912D01*
X714236Y437753D01*
X714224Y437594D01*
X714208Y437436D01*
X714188Y437278D01*
X714164Y437121D01*
X714136Y436965D01*
X714105Y436809D01*
X714069Y436654D01*
X714030Y436500D01*
X713987Y436347D01*
X713940Y436195D01*
X713889Y436045D01*
X713834Y435895D01*
X713776Y435748D01*
X713714Y435601D01*
X713648Y435456D01*
X713579Y435313D01*
X713506Y435172D01*
X713430Y435033D01*
X713350Y434895D01*
X713267Y434760D01*
X713181Y434626D01*
X713091Y434495D01*
X712998Y434366D01*
X712901Y434240D01*
X712802Y434116D01*
X712699Y433994D01*
X712594Y433875D01*
X712485Y433759D01*
X712374Y433646D01*
X712260Y433535D01*
X712143Y433427D01*
X712024Y433323D01*
X711901Y433221D01*
X711777Y433122D01*
X711650Y433027D01*
X711520Y432934D01*
X711389Y432845D01*
X711255Y432760D01*
X711119Y432677D01*
X710981Y432599D01*
X710841Y432523D01*
X710699Y432451D01*
X710556Y432383D01*
X710410Y432318D01*
X710264Y432257D01*
X710115Y432200D01*
X709966Y432146D01*
X709815Y432096D01*
X709663Y432050D01*
X709509Y432008D01*
X709355Y431969D01*
X709200Y431935D01*
X709044Y431904D01*
X708887Y431878D01*
X708730Y431855D01*
X708572Y431836D01*
X708414Y431821D01*
X708255Y431810D01*
X708097Y431803D01*
X707938Y431800D01*
X707779Y431801D01*
X707620Y431806D01*
X707461Y431815D01*
X707303Y431828D01*
X707145Y431845D01*
X706987Y431866D01*
X706830Y431890D01*
X706674Y431919D01*
X706518Y431952D01*
X706364Y431988D01*
X706210Y432029D01*
X706057Y432073D01*
X705906Y432121D01*
X705755Y432172D01*
X705606Y432228D01*
X705459Y432287D01*
X705313Y432350D01*
X705168Y432417D01*
X705026Y432487D01*
X704885Y432560D01*
X704746Y432638D01*
X704609Y432718D01*
X704474Y432802D01*
X704341Y432890D01*
X704211Y432980D01*
X704082Y433074D01*
X703957Y433171D01*
X703833Y433271D01*
X703712Y433375D01*
X703594Y433481D01*
X703479Y433590D01*
X703366Y433702D01*
X703256Y433817D01*
X703149Y433935D01*
X703045Y434055D01*
X702944Y434178D01*
X702846Y434303D01*
X702751Y434430D01*
X702660Y434560D01*
X702572Y434693D01*
X702487Y434827D01*
X702405Y434964D01*
X702327Y435102D01*
X702253Y435242D01*
X702182Y435385D01*
X702114Y435529D01*
X702051Y435674D01*
X701990Y435821D01*
X701934Y435970D01*
X701881Y436120D01*
X701832Y436271D01*
X701787Y436423D01*
X701746Y436577D01*
X701708Y436731D01*
X701675Y436887D01*
X701645Y437043D01*
X701619Y437200D01*
X701598Y437357D01*
X701580Y437515D01*
X701566Y437674D01*
X701556Y437832D01*
X701550Y437991D01*
X701548Y438150D01*
X701548Y784860D02*
X701550Y785019D01*
X701556Y785178D01*
X701566Y785336D01*
X701580Y785495D01*
X701598Y785653D01*
X701619Y785810D01*
X701645Y785967D01*
X701675Y786123D01*
X701708Y786279D01*
X701746Y786433D01*
X701787Y786587D01*
X701832Y786739D01*
X701881Y786890D01*
X701934Y787040D01*
X701990Y787189D01*
X702051Y787336D01*
X702114Y787481D01*
X702182Y787625D01*
X702253Y787768D01*
X702327Y787908D01*
X702405Y788046D01*
X702487Y788183D01*
X702572Y788317D01*
X702660Y788450D01*
X702751Y788580D01*
X702846Y788707D01*
X702944Y788832D01*
X703045Y788955D01*
X703149Y789075D01*
X703256Y789193D01*
X703366Y789308D01*
X703479Y789420D01*
X703594Y789529D01*
X703712Y789635D01*
X703833Y789739D01*
X703957Y789839D01*
X704082Y789936D01*
X704211Y790030D01*
X704341Y790120D01*
X704474Y790208D01*
X704609Y790292D01*
X704746Y790372D01*
X704885Y790450D01*
X705026Y790523D01*
X705168Y790593D01*
X705313Y790660D01*
X705459Y790723D01*
X705606Y790782D01*
X705755Y790838D01*
X705906Y790889D01*
X706057Y790937D01*
X706210Y790981D01*
X706364Y791022D01*
X706518Y791058D01*
X706674Y791091D01*
X706830Y791120D01*
X706987Y791144D01*
X707145Y791165D01*
X707303Y791182D01*
X707461Y791195D01*
X707620Y791204D01*
X707779Y791209D01*
X707938Y791210D01*
X708097Y791207D01*
X708255Y791200D01*
X708414Y791189D01*
X708572Y791174D01*
X708730Y791155D01*
X708887Y791132D01*
X709044Y791106D01*
X709200Y791075D01*
X709355Y791041D01*
X709509Y791002D01*
X709663Y790960D01*
X709815Y790914D01*
X709966Y790864D01*
X710115Y790810D01*
X710264Y790753D01*
X710410Y790692D01*
X710556Y790627D01*
X710699Y790559D01*
X710841Y790487D01*
X710981Y790411D01*
X711119Y790333D01*
X711255Y790250D01*
X711389Y790165D01*
X711520Y790076D01*
X711650Y789983D01*
X711777Y789888D01*
X711901Y789789D01*
X712024Y789687D01*
X712143Y789583D01*
X712260Y789475D01*
X712374Y789364D01*
X712485Y789251D01*
X712594Y789135D01*
X712699Y789016D01*
X712802Y788894D01*
X712901Y788770D01*
X712998Y788644D01*
X713091Y788515D01*
X713181Y788384D01*
X713267Y788250D01*
X713350Y788115D01*
X713430Y787977D01*
X713506Y787838D01*
X713579Y787697D01*
X713648Y787554D01*
X713714Y787409D01*
X713776Y787262D01*
X713834Y787115D01*
X713889Y786965D01*
X713940Y786815D01*
X713987Y786663D01*
X714030Y786510D01*
X714069Y786356D01*
X714105Y786201D01*
X714136Y786045D01*
X714164Y785889D01*
X714188Y785732D01*
X714208Y785574D01*
X714224Y785416D01*
X714236Y785257D01*
X714244Y785098D01*
X714248Y784939D01*
X714248Y784781D01*
X714244Y784622D01*
X714236Y784463D01*
X714224Y784304D01*
X714208Y784146D01*
X714188Y783988D01*
X714164Y783831D01*
X714136Y783675D01*
X714105Y783519D01*
X714069Y783364D01*
X714030Y783210D01*
X713987Y783057D01*
X713940Y782905D01*
X713889Y782755D01*
X713834Y782605D01*
X713776Y782458D01*
X713714Y782311D01*
X713648Y782166D01*
X713579Y782023D01*
X713506Y781882D01*
X713430Y781743D01*
X713350Y781605D01*
X713267Y781470D01*
X713181Y781336D01*
X713091Y781205D01*
X712998Y781076D01*
X712901Y780950D01*
X712802Y780826D01*
X712699Y780704D01*
X712594Y780585D01*
X712485Y780469D01*
X712374Y780356D01*
X712260Y780245D01*
X712143Y780137D01*
X712024Y780033D01*
X711901Y779931D01*
X711777Y779832D01*
X711650Y779737D01*
X711520Y779644D01*
X711389Y779555D01*
X711255Y779470D01*
X711119Y779387D01*
X710981Y779309D01*
X710841Y779233D01*
X710699Y779161D01*
X710556Y779093D01*
X710410Y779028D01*
X710264Y778967D01*
X710115Y778910D01*
X709966Y778856D01*
X709815Y778806D01*
X709663Y778760D01*
X709509Y778718D01*
X709355Y778679D01*
X709200Y778645D01*
X709044Y778614D01*
X708887Y778588D01*
X708730Y778565D01*
X708572Y778546D01*
X708414Y778531D01*
X708255Y778520D01*
X708097Y778513D01*
X707938Y778510D01*
X707779Y778511D01*
X707620Y778516D01*
X707461Y778525D01*
X707303Y778538D01*
X707145Y778555D01*
X706987Y778576D01*
X706830Y778600D01*
X706674Y778629D01*
X706518Y778662D01*
X706364Y778698D01*
X706210Y778739D01*
X706057Y778783D01*
X705906Y778831D01*
X705755Y778882D01*
X705606Y778938D01*
X705459Y778997D01*
X705313Y779060D01*
X705168Y779127D01*
X705026Y779197D01*
X704885Y779270D01*
X704746Y779348D01*
X704609Y779428D01*
X704474Y779512D01*
X704341Y779600D01*
X704211Y779690D01*
X704082Y779784D01*
X703957Y779881D01*
X703833Y779981D01*
X703712Y780085D01*
X703594Y780191D01*
X703479Y780300D01*
X703366Y780412D01*
X703256Y780527D01*
X703149Y780645D01*
X703045Y780765D01*
X702944Y780888D01*
X702846Y781013D01*
X702751Y781140D01*
X702660Y781270D01*
X702572Y781403D01*
X702487Y781537D01*
X702405Y781674D01*
X702327Y781812D01*
X702253Y781952D01*
X702182Y782095D01*
X702114Y782239D01*
X702051Y782384D01*
X701990Y782531D01*
X701934Y782680D01*
X701881Y782830D01*
X701832Y782981D01*
X701787Y783133D01*
X701746Y783287D01*
X701708Y783441D01*
X701675Y783597D01*
X701645Y783753D01*
X701619Y783910D01*
X701598Y784067D01*
X701580Y784225D01*
X701566Y784384D01*
X701556Y784542D01*
X701550Y784701D01*
X701548Y784860D01*
D11*
X964000Y803000D02*
X1017466Y803000D01*
X1017466Y420000D02*
X964000Y420000D01*
X997966Y420650D02*
X997966Y802350D01*
X994774Y777000D01*
X1001158Y777000D01*
X997966Y802350D01*
X996666Y777000D01*
X999266Y777000D02*
X997966Y802350D01*
X995366Y777000D01*
X1000566Y777000D02*
X997966Y802350D01*
X994774Y446000D02*
X997966Y420650D01*
X994774Y446000D02*
X1001158Y446000D01*
X997966Y420650D01*
X996666Y446000D01*
X999266Y446000D02*
X997966Y420650D01*
X995366Y446000D01*
X1000566Y446000D02*
X997966Y420650D01*
X964000Y608308D02*
X964000Y614692D01*
X960808Y611500D02*
X967192Y611500D01*
D12*
X991459Y584868D02*
X991459Y580352D01*
X991459Y584868D02*
X991457Y585001D01*
X991451Y585133D01*
X991441Y585265D01*
X991428Y585397D01*
X991410Y585529D01*
X991389Y585659D01*
X991364Y585790D01*
X991335Y585919D01*
X991302Y586047D01*
X991266Y586175D01*
X991226Y586301D01*
X991182Y586426D01*
X991134Y586550D01*
X991083Y586672D01*
X991028Y586793D01*
X990970Y586912D01*
X990908Y587030D01*
X990843Y587145D01*
X990774Y587259D01*
X990703Y587370D01*
X990627Y587479D01*
X990549Y587586D01*
X990468Y587691D01*
X990383Y587793D01*
X990296Y587893D01*
X990206Y587990D01*
X990113Y588085D01*
X990017Y588176D01*
X989919Y588265D01*
X989818Y588351D01*
X989714Y588434D01*
X989608Y588514D01*
X989500Y588590D01*
X989390Y588664D01*
X989277Y588734D01*
X989163Y588801D01*
X989046Y588864D01*
X988928Y588924D01*
X988808Y588981D01*
X988686Y589034D01*
X988563Y589083D01*
X988439Y589129D01*
X988313Y589171D01*
X988186Y589209D01*
X988058Y589244D01*
X987929Y589275D01*
X987800Y589302D01*
X987669Y589325D01*
X987538Y589345D01*
X987406Y589360D01*
X987274Y589372D01*
X987142Y589380D01*
X987009Y589384D01*
X986877Y589384D01*
X986744Y589380D01*
X986612Y589372D01*
X986480Y589360D01*
X986348Y589345D01*
X986217Y589325D01*
X986086Y589302D01*
X985957Y589275D01*
X985828Y589244D01*
X985700Y589209D01*
X985573Y589171D01*
X985447Y589129D01*
X985323Y589083D01*
X985200Y589034D01*
X985078Y588981D01*
X984958Y588924D01*
X984840Y588864D01*
X984723Y588801D01*
X984609Y588734D01*
X984496Y588664D01*
X984386Y588590D01*
X984278Y588514D01*
X984172Y588434D01*
X984068Y588351D01*
X983967Y588265D01*
X983869Y588176D01*
X983773Y588085D01*
X983680Y587990D01*
X983590Y587893D01*
X983503Y587793D01*
X983418Y587691D01*
X983337Y587586D01*
X983259Y587479D01*
X983183Y587370D01*
X983112Y587259D01*
X983043Y587145D01*
X982978Y587030D01*
X982916Y586912D01*
X982858Y586793D01*
X982803Y586672D01*
X982752Y586550D01*
X982704Y586426D01*
X982660Y586301D01*
X982620Y586175D01*
X982584Y586047D01*
X982551Y585919D01*
X982522Y585790D01*
X982497Y585659D01*
X982476Y585529D01*
X982458Y585397D01*
X982445Y585265D01*
X982435Y585133D01*
X982429Y585001D01*
X982427Y584868D01*
X975203Y585771D02*
X975203Y580352D01*
X975203Y585771D02*
X975205Y585890D01*
X975211Y586010D01*
X975221Y586129D01*
X975235Y586247D01*
X975252Y586366D01*
X975274Y586483D01*
X975299Y586600D01*
X975329Y586715D01*
X975362Y586830D01*
X975399Y586944D01*
X975439Y587056D01*
X975484Y587167D01*
X975532Y587276D01*
X975583Y587384D01*
X975638Y587490D01*
X975697Y587594D01*
X975759Y587696D01*
X975824Y587796D01*
X975893Y587894D01*
X975965Y587990D01*
X976040Y588083D01*
X976117Y588173D01*
X976198Y588261D01*
X976282Y588346D01*
X976369Y588428D01*
X976458Y588508D01*
X976550Y588584D01*
X976644Y588658D01*
X976741Y588728D01*
X976839Y588795D01*
X976940Y588859D01*
X977044Y588919D01*
X977149Y588976D01*
X977256Y589029D01*
X977364Y589079D01*
X977474Y589125D01*
X977586Y589167D01*
X977699Y589206D01*
X977813Y589241D01*
X977928Y589272D01*
X978045Y589300D01*
X978162Y589323D01*
X978279Y589343D01*
X978398Y589359D01*
X978517Y589371D01*
X978636Y589379D01*
X978755Y589383D01*
X978875Y589383D01*
X978994Y589379D01*
X979113Y589371D01*
X979232Y589359D01*
X979351Y589343D01*
X979468Y589323D01*
X979585Y589300D01*
X979702Y589272D01*
X979817Y589241D01*
X979931Y589206D01*
X980044Y589167D01*
X980156Y589125D01*
X980266Y589079D01*
X980374Y589029D01*
X980481Y588976D01*
X980586Y588919D01*
X980690Y588859D01*
X980791Y588795D01*
X980889Y588728D01*
X980986Y588658D01*
X981080Y588584D01*
X981172Y588508D01*
X981261Y588428D01*
X981348Y588346D01*
X981432Y588261D01*
X981513Y588173D01*
X981590Y588083D01*
X981665Y587990D01*
X981737Y587894D01*
X981806Y587796D01*
X981871Y587696D01*
X981933Y587594D01*
X981992Y587490D01*
X982047Y587384D01*
X982098Y587276D01*
X982146Y587167D01*
X982191Y587056D01*
X982231Y586944D01*
X982268Y586830D01*
X982301Y586715D01*
X982331Y586600D01*
X982356Y586483D01*
X982378Y586366D01*
X982395Y586247D01*
X982409Y586129D01*
X982419Y586010D01*
X982425Y585890D01*
X982427Y585771D01*
X982428Y585771D02*
X982428Y582158D01*
X986943Y595983D02*
X986810Y595985D01*
X986678Y595991D01*
X986546Y596001D01*
X986414Y596014D01*
X986282Y596032D01*
X986152Y596053D01*
X986021Y596078D01*
X985892Y596107D01*
X985764Y596140D01*
X985636Y596176D01*
X985510Y596216D01*
X985385Y596260D01*
X985261Y596308D01*
X985139Y596359D01*
X985018Y596414D01*
X984899Y596472D01*
X984781Y596534D01*
X984666Y596599D01*
X984552Y596668D01*
X984441Y596739D01*
X984332Y596815D01*
X984225Y596893D01*
X984120Y596974D01*
X984018Y597059D01*
X983918Y597146D01*
X983821Y597236D01*
X983726Y597329D01*
X983635Y597425D01*
X983546Y597523D01*
X983460Y597624D01*
X983377Y597728D01*
X983297Y597834D01*
X983221Y597942D01*
X983147Y598052D01*
X983077Y598165D01*
X983010Y598279D01*
X982947Y598396D01*
X982887Y598514D01*
X982830Y598634D01*
X982777Y598756D01*
X982728Y598879D01*
X982682Y599003D01*
X982640Y599129D01*
X982602Y599256D01*
X982567Y599384D01*
X982536Y599513D01*
X982509Y599642D01*
X982486Y599773D01*
X982466Y599904D01*
X982451Y600036D01*
X982439Y600168D01*
X982431Y600300D01*
X982427Y600433D01*
X982427Y600565D01*
X982431Y600698D01*
X982439Y600830D01*
X982451Y600962D01*
X982466Y601094D01*
X982486Y601225D01*
X982509Y601356D01*
X982536Y601485D01*
X982567Y601614D01*
X982602Y601742D01*
X982640Y601869D01*
X982682Y601995D01*
X982728Y602119D01*
X982777Y602242D01*
X982830Y602364D01*
X982887Y602484D01*
X982947Y602602D01*
X983010Y602719D01*
X983077Y602833D01*
X983147Y602946D01*
X983221Y603056D01*
X983297Y603164D01*
X983377Y603270D01*
X983460Y603374D01*
X983546Y603475D01*
X983635Y603573D01*
X983726Y603669D01*
X983821Y603762D01*
X983918Y603852D01*
X984018Y603939D01*
X984120Y604024D01*
X984225Y604105D01*
X984332Y604183D01*
X984441Y604259D01*
X984552Y604330D01*
X984666Y604399D01*
X984781Y604464D01*
X984899Y604526D01*
X985018Y604584D01*
X985139Y604639D01*
X985261Y604690D01*
X985385Y604738D01*
X985510Y604782D01*
X985636Y604822D01*
X985764Y604858D01*
X985892Y604891D01*
X986021Y604920D01*
X986152Y604945D01*
X986282Y604966D01*
X986414Y604984D01*
X986546Y604997D01*
X986678Y605007D01*
X986810Y605013D01*
X986943Y605015D01*
X987076Y605013D01*
X987208Y605007D01*
X987340Y604997D01*
X987472Y604984D01*
X987604Y604966D01*
X987734Y604945D01*
X987865Y604920D01*
X987994Y604891D01*
X988122Y604858D01*
X988250Y604822D01*
X988376Y604782D01*
X988501Y604738D01*
X988625Y604690D01*
X988747Y604639D01*
X988868Y604584D01*
X988987Y604526D01*
X989105Y604464D01*
X989220Y604399D01*
X989334Y604330D01*
X989445Y604259D01*
X989554Y604183D01*
X989661Y604105D01*
X989766Y604024D01*
X989868Y603939D01*
X989968Y603852D01*
X990065Y603762D01*
X990160Y603669D01*
X990251Y603573D01*
X990340Y603475D01*
X990426Y603374D01*
X990509Y603270D01*
X990589Y603164D01*
X990665Y603056D01*
X990739Y602946D01*
X990809Y602833D01*
X990876Y602719D01*
X990939Y602602D01*
X990999Y602484D01*
X991056Y602364D01*
X991109Y602242D01*
X991158Y602119D01*
X991204Y601995D01*
X991246Y601869D01*
X991284Y601742D01*
X991319Y601614D01*
X991350Y601485D01*
X991377Y601356D01*
X991400Y601225D01*
X991420Y601094D01*
X991435Y600962D01*
X991447Y600830D01*
X991455Y600698D01*
X991459Y600565D01*
X991459Y600433D01*
X991455Y600300D01*
X991447Y600168D01*
X991435Y600036D01*
X991420Y599904D01*
X991400Y599773D01*
X991377Y599642D01*
X991350Y599513D01*
X991319Y599384D01*
X991284Y599256D01*
X991246Y599129D01*
X991204Y599003D01*
X991158Y598879D01*
X991109Y598756D01*
X991056Y598634D01*
X990999Y598514D01*
X990939Y598396D01*
X990876Y598279D01*
X990809Y598165D01*
X990739Y598052D01*
X990665Y597942D01*
X990589Y597834D01*
X990509Y597728D01*
X990426Y597624D01*
X990340Y597523D01*
X990251Y597425D01*
X990160Y597329D01*
X990065Y597236D01*
X989968Y597146D01*
X989868Y597059D01*
X989766Y596974D01*
X989661Y596893D01*
X989554Y596815D01*
X989445Y596739D01*
X989334Y596668D01*
X989220Y596599D01*
X989105Y596534D01*
X988987Y596472D01*
X988868Y596414D01*
X988747Y596359D01*
X988625Y596308D01*
X988501Y596260D01*
X988376Y596216D01*
X988250Y596176D01*
X988122Y596140D01*
X987994Y596107D01*
X987865Y596078D01*
X987734Y596053D01*
X987604Y596032D01*
X987472Y596014D01*
X987340Y596001D01*
X987208Y595991D01*
X987076Y595985D01*
X986943Y595983D01*
X978815Y596887D02*
X978696Y596889D01*
X978576Y596895D01*
X978457Y596905D01*
X978339Y596919D01*
X978220Y596936D01*
X978103Y596958D01*
X977986Y596983D01*
X977871Y597013D01*
X977756Y597046D01*
X977642Y597083D01*
X977530Y597123D01*
X977419Y597168D01*
X977310Y597216D01*
X977202Y597267D01*
X977096Y597322D01*
X976992Y597381D01*
X976890Y597443D01*
X976790Y597508D01*
X976692Y597577D01*
X976596Y597649D01*
X976503Y597724D01*
X976413Y597801D01*
X976325Y597882D01*
X976240Y597966D01*
X976158Y598053D01*
X976078Y598142D01*
X976002Y598234D01*
X975928Y598328D01*
X975858Y598425D01*
X975791Y598523D01*
X975727Y598624D01*
X975667Y598728D01*
X975610Y598833D01*
X975557Y598940D01*
X975507Y599048D01*
X975461Y599158D01*
X975419Y599270D01*
X975380Y599383D01*
X975345Y599497D01*
X975314Y599612D01*
X975286Y599729D01*
X975263Y599846D01*
X975243Y599963D01*
X975227Y600082D01*
X975215Y600201D01*
X975207Y600320D01*
X975203Y600439D01*
X975203Y600559D01*
X975207Y600678D01*
X975215Y600797D01*
X975227Y600916D01*
X975243Y601035D01*
X975263Y601152D01*
X975286Y601269D01*
X975314Y601386D01*
X975345Y601501D01*
X975380Y601615D01*
X975419Y601728D01*
X975461Y601840D01*
X975507Y601950D01*
X975557Y602058D01*
X975610Y602165D01*
X975667Y602270D01*
X975727Y602374D01*
X975791Y602475D01*
X975858Y602573D01*
X975928Y602670D01*
X976002Y602764D01*
X976078Y602856D01*
X976158Y602945D01*
X976240Y603032D01*
X976325Y603116D01*
X976413Y603197D01*
X976503Y603274D01*
X976596Y603349D01*
X976692Y603421D01*
X976790Y603490D01*
X976890Y603555D01*
X976992Y603617D01*
X977096Y603676D01*
X977202Y603731D01*
X977310Y603782D01*
X977419Y603830D01*
X977530Y603875D01*
X977642Y603915D01*
X977756Y603952D01*
X977871Y603985D01*
X977986Y604015D01*
X978103Y604040D01*
X978220Y604062D01*
X978339Y604079D01*
X978457Y604093D01*
X978576Y604103D01*
X978696Y604109D01*
X978815Y604111D01*
X978934Y604109D01*
X979054Y604103D01*
X979173Y604093D01*
X979291Y604079D01*
X979410Y604062D01*
X979527Y604040D01*
X979644Y604015D01*
X979759Y603985D01*
X979874Y603952D01*
X979988Y603915D01*
X980100Y603875D01*
X980211Y603830D01*
X980320Y603782D01*
X980428Y603731D01*
X980534Y603676D01*
X980638Y603617D01*
X980740Y603555D01*
X980840Y603490D01*
X980938Y603421D01*
X981034Y603349D01*
X981127Y603274D01*
X981217Y603197D01*
X981305Y603116D01*
X981390Y603032D01*
X981472Y602945D01*
X981552Y602856D01*
X981628Y602764D01*
X981702Y602670D01*
X981772Y602573D01*
X981839Y602475D01*
X981903Y602374D01*
X981963Y602270D01*
X982020Y602165D01*
X982073Y602058D01*
X982123Y601950D01*
X982169Y601840D01*
X982211Y601728D01*
X982250Y601615D01*
X982285Y601501D01*
X982316Y601386D01*
X982344Y601269D01*
X982367Y601152D01*
X982387Y601035D01*
X982403Y600916D01*
X982415Y600797D01*
X982423Y600678D01*
X982427Y600559D01*
X982427Y600439D01*
X982423Y600320D01*
X982415Y600201D01*
X982403Y600082D01*
X982387Y599963D01*
X982367Y599846D01*
X982344Y599729D01*
X982316Y599612D01*
X982285Y599497D01*
X982250Y599383D01*
X982211Y599270D01*
X982169Y599158D01*
X982123Y599048D01*
X982073Y598940D01*
X982020Y598833D01*
X981963Y598728D01*
X981903Y598624D01*
X981839Y598523D01*
X981772Y598425D01*
X981702Y598328D01*
X981628Y598234D01*
X981552Y598142D01*
X981472Y598053D01*
X981390Y597966D01*
X981305Y597882D01*
X981217Y597801D01*
X981127Y597724D01*
X981034Y597649D01*
X980938Y597577D01*
X980840Y597508D01*
X980740Y597443D01*
X980638Y597381D01*
X980534Y597322D01*
X980428Y597267D01*
X980320Y597216D01*
X980211Y597168D01*
X980100Y597123D01*
X979988Y597083D01*
X979874Y597046D01*
X979759Y597013D01*
X979644Y596983D01*
X979527Y596958D01*
X979410Y596936D01*
X979291Y596919D01*
X979173Y596905D01*
X979054Y596895D01*
X978934Y596889D01*
X978815Y596887D01*
X990556Y610989D02*
X991459Y610989D01*
X990556Y610989D02*
X990556Y611892D01*
X991459Y611892D01*
X991459Y610989D01*
X991459Y617867D02*
X991459Y622382D01*
X991457Y622515D01*
X991451Y622647D01*
X991441Y622779D01*
X991428Y622911D01*
X991410Y623043D01*
X991389Y623173D01*
X991364Y623304D01*
X991335Y623433D01*
X991302Y623561D01*
X991266Y623689D01*
X991226Y623815D01*
X991182Y623940D01*
X991134Y624064D01*
X991083Y624186D01*
X991028Y624307D01*
X990970Y624426D01*
X990908Y624544D01*
X990843Y624659D01*
X990774Y624773D01*
X990703Y624884D01*
X990627Y624993D01*
X990549Y625100D01*
X990468Y625205D01*
X990383Y625307D01*
X990296Y625407D01*
X990206Y625504D01*
X990113Y625599D01*
X990017Y625690D01*
X989919Y625779D01*
X989818Y625865D01*
X989714Y625948D01*
X989608Y626028D01*
X989500Y626104D01*
X989390Y626178D01*
X989277Y626248D01*
X989163Y626315D01*
X989046Y626378D01*
X988928Y626438D01*
X988808Y626495D01*
X988686Y626548D01*
X988563Y626597D01*
X988439Y626643D01*
X988313Y626685D01*
X988186Y626723D01*
X988058Y626758D01*
X987929Y626789D01*
X987800Y626816D01*
X987669Y626839D01*
X987538Y626859D01*
X987406Y626874D01*
X987274Y626886D01*
X987142Y626894D01*
X987009Y626898D01*
X986877Y626898D01*
X986744Y626894D01*
X986612Y626886D01*
X986480Y626874D01*
X986348Y626859D01*
X986217Y626839D01*
X986086Y626816D01*
X985957Y626789D01*
X985828Y626758D01*
X985700Y626723D01*
X985573Y626685D01*
X985447Y626643D01*
X985323Y626597D01*
X985200Y626548D01*
X985078Y626495D01*
X984958Y626438D01*
X984840Y626378D01*
X984723Y626315D01*
X984609Y626248D01*
X984496Y626178D01*
X984386Y626104D01*
X984278Y626028D01*
X984172Y625948D01*
X984068Y625865D01*
X983967Y625779D01*
X983869Y625690D01*
X983773Y625599D01*
X983680Y625504D01*
X983590Y625407D01*
X983503Y625307D01*
X983418Y625205D01*
X983337Y625100D01*
X983259Y624993D01*
X983183Y624884D01*
X983112Y624773D01*
X983043Y624659D01*
X982978Y624544D01*
X982916Y624426D01*
X982858Y624307D01*
X982803Y624186D01*
X982752Y624064D01*
X982704Y623940D01*
X982660Y623815D01*
X982620Y623689D01*
X982584Y623561D01*
X982551Y623433D01*
X982522Y623304D01*
X982497Y623173D01*
X982476Y623043D01*
X982458Y622911D01*
X982445Y622779D01*
X982435Y622647D01*
X982429Y622515D01*
X982427Y622382D01*
X975203Y623286D02*
X975203Y617867D01*
X975203Y623286D02*
X975205Y623405D01*
X975211Y623525D01*
X975221Y623644D01*
X975235Y623762D01*
X975252Y623881D01*
X975274Y623998D01*
X975299Y624115D01*
X975329Y624230D01*
X975362Y624345D01*
X975399Y624459D01*
X975439Y624571D01*
X975484Y624682D01*
X975532Y624791D01*
X975583Y624899D01*
X975638Y625005D01*
X975697Y625109D01*
X975759Y625211D01*
X975824Y625311D01*
X975893Y625409D01*
X975965Y625505D01*
X976040Y625598D01*
X976117Y625688D01*
X976198Y625776D01*
X976282Y625861D01*
X976369Y625943D01*
X976458Y626023D01*
X976550Y626099D01*
X976644Y626173D01*
X976741Y626243D01*
X976839Y626310D01*
X976940Y626374D01*
X977044Y626434D01*
X977149Y626491D01*
X977256Y626544D01*
X977364Y626594D01*
X977474Y626640D01*
X977586Y626682D01*
X977699Y626721D01*
X977813Y626756D01*
X977928Y626787D01*
X978045Y626815D01*
X978162Y626838D01*
X978279Y626858D01*
X978398Y626874D01*
X978517Y626886D01*
X978636Y626894D01*
X978755Y626898D01*
X978875Y626898D01*
X978994Y626894D01*
X979113Y626886D01*
X979232Y626874D01*
X979351Y626858D01*
X979468Y626838D01*
X979585Y626815D01*
X979702Y626787D01*
X979817Y626756D01*
X979931Y626721D01*
X980044Y626682D01*
X980156Y626640D01*
X980266Y626594D01*
X980374Y626544D01*
X980481Y626491D01*
X980586Y626434D01*
X980690Y626374D01*
X980791Y626310D01*
X980889Y626243D01*
X980986Y626173D01*
X981080Y626099D01*
X981172Y626023D01*
X981261Y625943D01*
X981348Y625861D01*
X981432Y625776D01*
X981513Y625688D01*
X981590Y625598D01*
X981665Y625505D01*
X981737Y625409D01*
X981806Y625311D01*
X981871Y625211D01*
X981933Y625109D01*
X981992Y625005D01*
X982047Y624899D01*
X982098Y624791D01*
X982146Y624682D01*
X982191Y624571D01*
X982231Y624459D01*
X982268Y624345D01*
X982301Y624230D01*
X982331Y624115D01*
X982356Y623998D01*
X982378Y623881D01*
X982395Y623762D01*
X982409Y623644D01*
X982419Y623525D01*
X982425Y623405D01*
X982427Y623286D01*
X982428Y623286D02*
X982428Y619673D01*
X983331Y633498D02*
X983011Y633502D01*
X982692Y633513D01*
X982372Y633532D01*
X982054Y633559D01*
X981736Y633593D01*
X981419Y633635D01*
X981103Y633685D01*
X980788Y633742D01*
X980475Y633806D01*
X980163Y633878D01*
X979853Y633957D01*
X979546Y634044D01*
X979240Y634138D01*
X978937Y634239D01*
X978636Y634348D01*
X978338Y634463D01*
X978042Y634586D01*
X977750Y634716D01*
X977461Y634853D01*
X977460Y634854D02*
X977352Y634893D01*
X977245Y634936D01*
X977140Y634982D01*
X977037Y635032D01*
X976935Y635086D01*
X976835Y635143D01*
X976737Y635204D01*
X976641Y635268D01*
X976548Y635335D01*
X976457Y635405D01*
X976368Y635479D01*
X976282Y635555D01*
X976199Y635635D01*
X976118Y635717D01*
X976040Y635802D01*
X975966Y635889D01*
X975894Y635980D01*
X975825Y636072D01*
X975760Y636167D01*
X975698Y636264D01*
X975639Y636363D01*
X975584Y636464D01*
X975533Y636567D01*
X975485Y636672D01*
X975440Y636778D01*
X975399Y636885D01*
X975362Y636994D01*
X975329Y637105D01*
X975300Y637216D01*
X975274Y637328D01*
X975252Y637441D01*
X975235Y637555D01*
X975221Y637669D01*
X975211Y637784D01*
X975205Y637899D01*
X975203Y638014D01*
X975205Y638129D01*
X975211Y638244D01*
X975221Y638359D01*
X975235Y638473D01*
X975252Y638587D01*
X975274Y638700D01*
X975300Y638812D01*
X975329Y638924D01*
X975362Y639034D01*
X975399Y639143D01*
X975440Y639251D01*
X975485Y639357D01*
X975533Y639462D01*
X975584Y639564D01*
X975640Y639666D01*
X975698Y639765D01*
X975760Y639862D01*
X975826Y639957D01*
X975894Y640049D01*
X975966Y640139D01*
X976040Y640227D01*
X976118Y640312D01*
X976199Y640394D01*
X976282Y640473D01*
X976368Y640550D01*
X976457Y640623D01*
X976548Y640694D01*
X976642Y640761D01*
X976737Y640825D01*
X976835Y640886D01*
X976935Y640943D01*
X977037Y640996D01*
X977141Y641047D01*
X977246Y641093D01*
X977353Y641136D01*
X977461Y641175D01*
X977461Y641174D02*
X977750Y641311D01*
X978042Y641441D01*
X978338Y641564D01*
X978636Y641679D01*
X978937Y641788D01*
X979240Y641889D01*
X979546Y641983D01*
X979853Y642070D01*
X980163Y642149D01*
X980475Y642221D01*
X980788Y642285D01*
X981103Y642342D01*
X981419Y642392D01*
X981736Y642434D01*
X982054Y642468D01*
X982372Y642495D01*
X982692Y642514D01*
X983011Y642525D01*
X983331Y642529D01*
X983331Y633498D02*
X983651Y633502D01*
X983970Y633513D01*
X984290Y633532D01*
X984608Y633559D01*
X984926Y633593D01*
X985243Y633635D01*
X985559Y633685D01*
X985874Y633742D01*
X986187Y633806D01*
X986499Y633878D01*
X986809Y633957D01*
X987116Y634044D01*
X987422Y634138D01*
X987725Y634239D01*
X988026Y634348D01*
X988324Y634463D01*
X988620Y634586D01*
X988912Y634716D01*
X989201Y634853D01*
X989202Y634853D02*
X989310Y634892D01*
X989417Y634935D01*
X989522Y634981D01*
X989626Y635032D01*
X989728Y635085D01*
X989828Y635142D01*
X989926Y635203D01*
X990021Y635267D01*
X990115Y635334D01*
X990206Y635405D01*
X990295Y635478D01*
X990381Y635555D01*
X990464Y635634D01*
X990545Y635716D01*
X990623Y635801D01*
X990697Y635889D01*
X990769Y635979D01*
X990838Y636072D01*
X990903Y636166D01*
X990965Y636263D01*
X991023Y636363D01*
X991079Y636464D01*
X991130Y636566D01*
X991178Y636671D01*
X991223Y636777D01*
X991264Y636885D01*
X991301Y636994D01*
X991334Y637104D01*
X991363Y637216D01*
X991389Y637328D01*
X991411Y637441D01*
X991428Y637555D01*
X991442Y637669D01*
X991452Y637784D01*
X991458Y637899D01*
X991460Y638014D01*
X989201Y641174D02*
X988912Y641311D01*
X988620Y641441D01*
X988324Y641564D01*
X988026Y641679D01*
X987725Y641788D01*
X987422Y641889D01*
X987116Y641983D01*
X986809Y642070D01*
X986499Y642149D01*
X986187Y642221D01*
X985874Y642285D01*
X985559Y642342D01*
X985243Y642392D01*
X984926Y642434D01*
X984608Y642468D01*
X984290Y642495D01*
X983970Y642514D01*
X983651Y642525D01*
X983331Y642529D01*
X989201Y641175D02*
X989309Y641136D01*
X989416Y641093D01*
X989521Y641047D01*
X989625Y640996D01*
X989727Y640943D01*
X989827Y640886D01*
X989925Y640825D01*
X990020Y640761D01*
X990114Y640694D01*
X990205Y640623D01*
X990294Y640550D01*
X990380Y640473D01*
X990463Y640394D01*
X990544Y640312D01*
X990622Y640227D01*
X990696Y640139D01*
X990768Y640049D01*
X990837Y639956D01*
X990902Y639862D01*
X990964Y639765D01*
X991022Y639665D01*
X991078Y639564D01*
X991129Y639461D01*
X991177Y639357D01*
X991222Y639251D01*
X991263Y639143D01*
X991300Y639034D01*
X991333Y638924D01*
X991362Y638812D01*
X991388Y638700D01*
X991410Y638587D01*
X991427Y638473D01*
X991441Y638359D01*
X991451Y638244D01*
X991457Y638129D01*
X991459Y638014D01*
X987847Y634401D02*
X978815Y641626D01*
D11*
X707898Y784860D02*
X640138Y784860D01*
X640138Y438150D02*
X707898Y438150D01*
X659638Y438800D02*
X659638Y784210D01*
X656446Y758860D01*
X662830Y758860D01*
X659638Y784210D01*
X658338Y758860D01*
X660938Y758860D02*
X659638Y784210D01*
X657038Y758860D01*
X662238Y758860D02*
X659638Y784210D01*
X656446Y464150D02*
X659638Y438800D01*
X656446Y464150D02*
X662830Y464150D01*
X659638Y438800D01*
X658338Y464150D01*
X660938Y464150D02*
X659638Y438800D01*
X657038Y464150D01*
X662238Y464150D02*
X659638Y438800D01*
X707898Y608313D02*
X707898Y614697D01*
X704706Y611505D02*
X711090Y611505D01*
D12*
X653131Y584873D02*
X653131Y580357D01*
X653131Y584873D02*
X653129Y585006D01*
X653123Y585138D01*
X653113Y585270D01*
X653100Y585402D01*
X653082Y585534D01*
X653061Y585664D01*
X653036Y585795D01*
X653007Y585924D01*
X652974Y586052D01*
X652938Y586180D01*
X652898Y586306D01*
X652854Y586431D01*
X652806Y586555D01*
X652755Y586677D01*
X652700Y586798D01*
X652642Y586917D01*
X652580Y587035D01*
X652515Y587150D01*
X652446Y587264D01*
X652375Y587375D01*
X652299Y587484D01*
X652221Y587591D01*
X652140Y587696D01*
X652055Y587798D01*
X651968Y587898D01*
X651878Y587995D01*
X651785Y588090D01*
X651689Y588181D01*
X651591Y588270D01*
X651490Y588356D01*
X651386Y588439D01*
X651280Y588519D01*
X651172Y588595D01*
X651062Y588669D01*
X650949Y588739D01*
X650835Y588806D01*
X650718Y588869D01*
X650600Y588929D01*
X650480Y588986D01*
X650358Y589039D01*
X650235Y589088D01*
X650111Y589134D01*
X649985Y589176D01*
X649858Y589214D01*
X649730Y589249D01*
X649601Y589280D01*
X649472Y589307D01*
X649341Y589330D01*
X649210Y589350D01*
X649078Y589365D01*
X648946Y589377D01*
X648814Y589385D01*
X648681Y589389D01*
X648549Y589389D01*
X648416Y589385D01*
X648284Y589377D01*
X648152Y589365D01*
X648020Y589350D01*
X647889Y589330D01*
X647758Y589307D01*
X647629Y589280D01*
X647500Y589249D01*
X647372Y589214D01*
X647245Y589176D01*
X647119Y589134D01*
X646995Y589088D01*
X646872Y589039D01*
X646750Y588986D01*
X646630Y588929D01*
X646512Y588869D01*
X646395Y588806D01*
X646281Y588739D01*
X646168Y588669D01*
X646058Y588595D01*
X645950Y588519D01*
X645844Y588439D01*
X645740Y588356D01*
X645639Y588270D01*
X645541Y588181D01*
X645445Y588090D01*
X645352Y587995D01*
X645262Y587898D01*
X645175Y587798D01*
X645090Y587696D01*
X645009Y587591D01*
X644931Y587484D01*
X644855Y587375D01*
X644784Y587264D01*
X644715Y587150D01*
X644650Y587035D01*
X644588Y586917D01*
X644530Y586798D01*
X644475Y586677D01*
X644424Y586555D01*
X644376Y586431D01*
X644332Y586306D01*
X644292Y586180D01*
X644256Y586052D01*
X644223Y585924D01*
X644194Y585795D01*
X644169Y585664D01*
X644148Y585534D01*
X644130Y585402D01*
X644117Y585270D01*
X644107Y585138D01*
X644101Y585006D01*
X644099Y584873D01*
X636875Y585776D02*
X636875Y580357D01*
X636875Y585776D02*
X636877Y585895D01*
X636883Y586015D01*
X636893Y586134D01*
X636907Y586252D01*
X636924Y586371D01*
X636946Y586488D01*
X636971Y586605D01*
X637001Y586720D01*
X637034Y586835D01*
X637071Y586949D01*
X637111Y587061D01*
X637156Y587172D01*
X637204Y587281D01*
X637255Y587389D01*
X637310Y587495D01*
X637369Y587599D01*
X637431Y587701D01*
X637496Y587801D01*
X637565Y587899D01*
X637637Y587995D01*
X637712Y588088D01*
X637789Y588178D01*
X637870Y588266D01*
X637954Y588351D01*
X638041Y588433D01*
X638130Y588513D01*
X638222Y588589D01*
X638316Y588663D01*
X638413Y588733D01*
X638511Y588800D01*
X638612Y588864D01*
X638716Y588924D01*
X638821Y588981D01*
X638928Y589034D01*
X639036Y589084D01*
X639146Y589130D01*
X639258Y589172D01*
X639371Y589211D01*
X639485Y589246D01*
X639600Y589277D01*
X639717Y589305D01*
X639834Y589328D01*
X639951Y589348D01*
X640070Y589364D01*
X640189Y589376D01*
X640308Y589384D01*
X640427Y589388D01*
X640547Y589388D01*
X640666Y589384D01*
X640785Y589376D01*
X640904Y589364D01*
X641023Y589348D01*
X641140Y589328D01*
X641257Y589305D01*
X641374Y589277D01*
X641489Y589246D01*
X641603Y589211D01*
X641716Y589172D01*
X641828Y589130D01*
X641938Y589084D01*
X642046Y589034D01*
X642153Y588981D01*
X642258Y588924D01*
X642362Y588864D01*
X642463Y588800D01*
X642561Y588733D01*
X642658Y588663D01*
X642752Y588589D01*
X642844Y588513D01*
X642933Y588433D01*
X643020Y588351D01*
X643104Y588266D01*
X643185Y588178D01*
X643262Y588088D01*
X643337Y587995D01*
X643409Y587899D01*
X643478Y587801D01*
X643543Y587701D01*
X643605Y587599D01*
X643664Y587495D01*
X643719Y587389D01*
X643770Y587281D01*
X643818Y587172D01*
X643863Y587061D01*
X643903Y586949D01*
X643940Y586835D01*
X643973Y586720D01*
X644003Y586605D01*
X644028Y586488D01*
X644050Y586371D01*
X644067Y586252D01*
X644081Y586134D01*
X644091Y586015D01*
X644097Y585895D01*
X644099Y585776D01*
X644100Y585776D02*
X644100Y582163D01*
X649519Y595988D02*
X636875Y599601D01*
X649519Y595988D02*
X649519Y605019D01*
X645906Y602310D02*
X653131Y602310D01*
X653131Y610994D02*
X652228Y610994D01*
X652228Y611897D01*
X653131Y611897D01*
X653131Y610994D01*
X644100Y617872D02*
X644100Y623291D01*
X644102Y623409D01*
X644108Y623527D01*
X644117Y623645D01*
X644131Y623762D01*
X644148Y623879D01*
X644169Y623996D01*
X644194Y624111D01*
X644223Y624226D01*
X644256Y624340D01*
X644292Y624452D01*
X644332Y624563D01*
X644375Y624673D01*
X644422Y624782D01*
X644472Y624889D01*
X644527Y624994D01*
X644584Y625097D01*
X644645Y625198D01*
X644709Y625298D01*
X644776Y625395D01*
X644846Y625490D01*
X644920Y625582D01*
X644996Y625673D01*
X645076Y625760D01*
X645158Y625845D01*
X645243Y625927D01*
X645330Y626007D01*
X645421Y626083D01*
X645513Y626157D01*
X645608Y626227D01*
X645705Y626294D01*
X645805Y626358D01*
X645906Y626419D01*
X646009Y626476D01*
X646114Y626531D01*
X646221Y626581D01*
X646330Y626628D01*
X646440Y626671D01*
X646551Y626711D01*
X646663Y626747D01*
X646777Y626780D01*
X646892Y626809D01*
X647007Y626834D01*
X647124Y626855D01*
X647241Y626872D01*
X647358Y626886D01*
X647476Y626895D01*
X647594Y626901D01*
X647712Y626903D01*
X648615Y626903D01*
X648748Y626901D01*
X648880Y626895D01*
X649012Y626885D01*
X649144Y626872D01*
X649276Y626854D01*
X649406Y626833D01*
X649537Y626808D01*
X649666Y626779D01*
X649794Y626746D01*
X649922Y626710D01*
X650048Y626670D01*
X650173Y626626D01*
X650297Y626578D01*
X650419Y626527D01*
X650540Y626472D01*
X650659Y626414D01*
X650777Y626352D01*
X650892Y626287D01*
X651006Y626218D01*
X651117Y626147D01*
X651226Y626071D01*
X651333Y625993D01*
X651438Y625912D01*
X651540Y625827D01*
X651640Y625740D01*
X651737Y625650D01*
X651832Y625557D01*
X651923Y625461D01*
X652012Y625363D01*
X652098Y625262D01*
X652181Y625158D01*
X652261Y625052D01*
X652337Y624944D01*
X652411Y624834D01*
X652481Y624721D01*
X652548Y624607D01*
X652611Y624490D01*
X652671Y624372D01*
X652728Y624252D01*
X652781Y624130D01*
X652830Y624007D01*
X652876Y623883D01*
X652918Y623757D01*
X652956Y623630D01*
X652991Y623502D01*
X653022Y623373D01*
X653049Y623244D01*
X653072Y623113D01*
X653092Y622982D01*
X653107Y622850D01*
X653119Y622718D01*
X653127Y622586D01*
X653131Y622453D01*
X653131Y622321D01*
X653127Y622188D01*
X653119Y622056D01*
X653107Y621924D01*
X653092Y621792D01*
X653072Y621661D01*
X653049Y621530D01*
X653022Y621401D01*
X652991Y621272D01*
X652956Y621144D01*
X652918Y621017D01*
X652876Y620891D01*
X652830Y620767D01*
X652781Y620644D01*
X652728Y620522D01*
X652671Y620402D01*
X652611Y620284D01*
X652548Y620167D01*
X652481Y620053D01*
X652411Y619940D01*
X652337Y619830D01*
X652261Y619722D01*
X652181Y619616D01*
X652098Y619512D01*
X652012Y619411D01*
X651923Y619313D01*
X651832Y619217D01*
X651737Y619124D01*
X651640Y619034D01*
X651540Y618947D01*
X651438Y618862D01*
X651333Y618781D01*
X651226Y618703D01*
X651117Y618627D01*
X651006Y618556D01*
X650892Y618487D01*
X650777Y618422D01*
X650659Y618360D01*
X650540Y618302D01*
X650419Y618247D01*
X650297Y618196D01*
X650173Y618148D01*
X650048Y618104D01*
X649922Y618064D01*
X649794Y618028D01*
X649666Y617995D01*
X649537Y617966D01*
X649406Y617941D01*
X649276Y617920D01*
X649144Y617902D01*
X649012Y617889D01*
X648880Y617879D01*
X648748Y617873D01*
X648615Y617871D01*
X648615Y617872D02*
X644100Y617872D01*
X643923Y617874D01*
X643745Y617881D01*
X643568Y617892D01*
X643392Y617907D01*
X643216Y617926D01*
X643040Y617950D01*
X642865Y617978D01*
X642690Y618011D01*
X642517Y618048D01*
X642344Y618089D01*
X642173Y618134D01*
X642003Y618183D01*
X641834Y618237D01*
X641666Y618294D01*
X641500Y618356D01*
X641335Y618422D01*
X641172Y618492D01*
X641011Y618566D01*
X640852Y618643D01*
X640694Y618725D01*
X640539Y618811D01*
X640386Y618900D01*
X640235Y618993D01*
X640086Y619090D01*
X639940Y619190D01*
X639796Y619294D01*
X639655Y619401D01*
X639517Y619512D01*
X639381Y619626D01*
X639248Y619744D01*
X639118Y619864D01*
X638991Y619988D01*
X638867Y620115D01*
X638747Y620245D01*
X638629Y620378D01*
X638515Y620513D01*
X638404Y620652D01*
X638297Y620793D01*
X638193Y620937D01*
X638093Y621083D01*
X637996Y621232D01*
X637903Y621383D01*
X637814Y621536D01*
X637728Y621691D01*
X637646Y621849D01*
X637569Y622008D01*
X637495Y622169D01*
X637425Y622332D01*
X637359Y622497D01*
X637297Y622663D01*
X637240Y622831D01*
X637186Y623000D01*
X637137Y623170D01*
X637092Y623341D01*
X637051Y623514D01*
X637014Y623687D01*
X636981Y623862D01*
X636953Y624037D01*
X636929Y624213D01*
X636910Y624389D01*
X636895Y624565D01*
X636884Y624742D01*
X636877Y624920D01*
X636875Y625097D01*
X636875Y633503D02*
X638681Y633503D01*
X636875Y633503D02*
X636875Y642534D01*
X653131Y638019D01*
D11*
X707898Y438150D02*
X707898Y369374D01*
X945896Y369374D02*
X945896Y438150D01*
X945246Y388874D02*
X708548Y388874D01*
X733898Y392066D01*
X733898Y385682D01*
X708548Y388874D01*
X733898Y390174D01*
X733898Y387574D02*
X708548Y388874D01*
X733898Y391474D01*
X733898Y386274D02*
X708548Y388874D01*
X919896Y392066D02*
X945246Y388874D01*
X919896Y392066D02*
X919896Y385682D01*
X945246Y388874D01*
X919896Y390174D01*
X919896Y387574D02*
X945246Y388874D01*
X919896Y391474D01*
X919896Y386274D02*
X945246Y388874D01*
X826897Y434958D02*
X826897Y441342D01*
X823705Y438150D02*
X830089Y438150D01*
D12*
X800716Y411637D02*
X800841Y411635D01*
X800966Y411629D01*
X801091Y411620D01*
X801215Y411606D01*
X801339Y411589D01*
X801463Y411568D01*
X801585Y411543D01*
X801707Y411514D01*
X801828Y411482D01*
X801948Y411446D01*
X802067Y411406D01*
X802184Y411363D01*
X802300Y411316D01*
X802415Y411265D01*
X802527Y411211D01*
X802639Y411153D01*
X802748Y411093D01*
X802855Y411028D01*
X802961Y410961D01*
X803064Y410890D01*
X803165Y410816D01*
X803264Y410739D01*
X803360Y410659D01*
X803454Y410576D01*
X803545Y410491D01*
X803634Y410402D01*
X803719Y410311D01*
X803802Y410217D01*
X803882Y410121D01*
X803959Y410022D01*
X804033Y409921D01*
X804104Y409818D01*
X804171Y409712D01*
X804236Y409605D01*
X804296Y409496D01*
X804354Y409384D01*
X804408Y409272D01*
X804459Y409157D01*
X804506Y409041D01*
X804549Y408924D01*
X804589Y408805D01*
X804625Y408685D01*
X804657Y408564D01*
X804686Y408442D01*
X804711Y408320D01*
X804732Y408196D01*
X804749Y408072D01*
X804763Y407948D01*
X804772Y407823D01*
X804778Y407698D01*
X804780Y407573D01*
X800716Y411637D02*
X800573Y411635D01*
X800431Y411629D01*
X800288Y411619D01*
X800146Y411606D01*
X800005Y411588D01*
X799863Y411567D01*
X799723Y411542D01*
X799583Y411513D01*
X799444Y411480D01*
X799306Y411443D01*
X799169Y411403D01*
X799034Y411359D01*
X798899Y411311D01*
X798766Y411259D01*
X798634Y411204D01*
X798504Y411145D01*
X798376Y411083D01*
X798249Y411017D01*
X798124Y410948D01*
X798001Y410876D01*
X797881Y410800D01*
X797762Y410721D01*
X797645Y410638D01*
X797531Y410553D01*
X797419Y410464D01*
X797310Y410373D01*
X797203Y410278D01*
X797098Y410181D01*
X796997Y410080D01*
X796898Y409977D01*
X796802Y409872D01*
X796709Y409763D01*
X796619Y409652D01*
X796532Y409539D01*
X796448Y409424D01*
X796368Y409306D01*
X796290Y409186D01*
X796216Y409064D01*
X796146Y408940D01*
X796078Y408814D01*
X796015Y408686D01*
X795954Y408557D01*
X795897Y408426D01*
X795844Y408294D01*
X795795Y408160D01*
X795749Y408025D01*
X803425Y404412D02*
X803519Y404504D01*
X803609Y404598D01*
X803697Y404695D01*
X803782Y404795D01*
X803864Y404897D01*
X803943Y405002D01*
X804018Y405109D01*
X804090Y405218D01*
X804159Y405329D01*
X804225Y405443D01*
X804287Y405558D01*
X804346Y405675D01*
X804401Y405794D01*
X804452Y405914D01*
X804500Y406036D01*
X804545Y406159D01*
X804585Y406283D01*
X804622Y406409D01*
X804655Y406536D01*
X804684Y406663D01*
X804710Y406792D01*
X804731Y406921D01*
X804749Y407051D01*
X804762Y407181D01*
X804772Y407311D01*
X804778Y407442D01*
X804780Y407573D01*
X803425Y404412D02*
X795749Y395381D01*
X804780Y395381D01*
X811380Y395381D02*
X815896Y395381D01*
X816029Y395383D01*
X816161Y395389D01*
X816293Y395399D01*
X816425Y395412D01*
X816557Y395430D01*
X816687Y395451D01*
X816818Y395476D01*
X816947Y395505D01*
X817075Y395538D01*
X817203Y395574D01*
X817329Y395614D01*
X817454Y395658D01*
X817578Y395706D01*
X817700Y395757D01*
X817821Y395812D01*
X817940Y395870D01*
X818058Y395932D01*
X818173Y395997D01*
X818287Y396066D01*
X818398Y396137D01*
X818507Y396213D01*
X818614Y396291D01*
X818719Y396372D01*
X818821Y396457D01*
X818921Y396544D01*
X819018Y396634D01*
X819113Y396727D01*
X819204Y396823D01*
X819293Y396921D01*
X819379Y397022D01*
X819462Y397126D01*
X819542Y397232D01*
X819618Y397340D01*
X819692Y397450D01*
X819762Y397563D01*
X819829Y397677D01*
X819892Y397794D01*
X819952Y397912D01*
X820009Y398032D01*
X820062Y398154D01*
X820111Y398277D01*
X820157Y398401D01*
X820199Y398527D01*
X820237Y398654D01*
X820272Y398782D01*
X820303Y398911D01*
X820330Y399040D01*
X820353Y399171D01*
X820373Y399302D01*
X820388Y399434D01*
X820400Y399566D01*
X820408Y399698D01*
X820412Y399831D01*
X820412Y399963D01*
X820408Y400096D01*
X820400Y400228D01*
X820388Y400360D01*
X820373Y400492D01*
X820353Y400623D01*
X820330Y400754D01*
X820303Y400883D01*
X820272Y401012D01*
X820237Y401140D01*
X820199Y401267D01*
X820157Y401393D01*
X820111Y401517D01*
X820062Y401640D01*
X820009Y401762D01*
X819952Y401882D01*
X819892Y402000D01*
X819829Y402117D01*
X819762Y402231D01*
X819692Y402344D01*
X819618Y402454D01*
X819542Y402562D01*
X819462Y402668D01*
X819379Y402772D01*
X819293Y402873D01*
X819204Y402971D01*
X819113Y403067D01*
X819018Y403160D01*
X818921Y403250D01*
X818821Y403337D01*
X818719Y403422D01*
X818614Y403503D01*
X818507Y403581D01*
X818398Y403657D01*
X818287Y403728D01*
X818173Y403797D01*
X818058Y403862D01*
X817940Y403924D01*
X817821Y403982D01*
X817700Y404037D01*
X817578Y404088D01*
X817454Y404136D01*
X817329Y404180D01*
X817203Y404220D01*
X817075Y404256D01*
X816947Y404289D01*
X816818Y404318D01*
X816687Y404343D01*
X816557Y404364D01*
X816425Y404382D01*
X816293Y404395D01*
X816161Y404405D01*
X816029Y404411D01*
X815896Y404413D01*
X816799Y411637D02*
X811380Y411637D01*
X816799Y411637D02*
X816918Y411635D01*
X817038Y411629D01*
X817157Y411619D01*
X817275Y411605D01*
X817394Y411588D01*
X817511Y411566D01*
X817628Y411541D01*
X817743Y411511D01*
X817858Y411478D01*
X817972Y411441D01*
X818084Y411401D01*
X818195Y411356D01*
X818304Y411308D01*
X818412Y411257D01*
X818518Y411202D01*
X818622Y411143D01*
X818724Y411081D01*
X818824Y411016D01*
X818922Y410947D01*
X819018Y410875D01*
X819111Y410800D01*
X819201Y410723D01*
X819289Y410642D01*
X819374Y410558D01*
X819456Y410471D01*
X819536Y410382D01*
X819612Y410290D01*
X819686Y410196D01*
X819756Y410099D01*
X819823Y410001D01*
X819887Y409900D01*
X819947Y409796D01*
X820004Y409691D01*
X820057Y409584D01*
X820107Y409476D01*
X820153Y409366D01*
X820195Y409254D01*
X820234Y409141D01*
X820269Y409027D01*
X820300Y408912D01*
X820328Y408795D01*
X820351Y408678D01*
X820371Y408561D01*
X820387Y408442D01*
X820399Y408323D01*
X820407Y408204D01*
X820411Y408085D01*
X820411Y407965D01*
X820407Y407846D01*
X820399Y407727D01*
X820387Y407608D01*
X820371Y407489D01*
X820351Y407372D01*
X820328Y407255D01*
X820300Y407138D01*
X820269Y407023D01*
X820234Y406909D01*
X820195Y406796D01*
X820153Y406684D01*
X820107Y406574D01*
X820057Y406466D01*
X820004Y406359D01*
X819947Y406254D01*
X819887Y406150D01*
X819823Y406049D01*
X819756Y405951D01*
X819686Y405854D01*
X819612Y405760D01*
X819536Y405668D01*
X819456Y405579D01*
X819374Y405492D01*
X819289Y405408D01*
X819201Y405327D01*
X819111Y405250D01*
X819018Y405175D01*
X818922Y405103D01*
X818824Y405034D01*
X818724Y404969D01*
X818622Y404907D01*
X818518Y404848D01*
X818412Y404793D01*
X818304Y404742D01*
X818195Y404694D01*
X818084Y404649D01*
X817972Y404609D01*
X817858Y404572D01*
X817743Y404539D01*
X817628Y404509D01*
X817511Y404484D01*
X817394Y404462D01*
X817275Y404445D01*
X817157Y404431D01*
X817038Y404421D01*
X816918Y404415D01*
X816799Y404413D01*
X816799Y404412D02*
X813186Y404412D01*
X826386Y396284D02*
X826386Y395381D01*
X826386Y396284D02*
X827289Y396284D01*
X827289Y395381D01*
X826386Y395381D01*
X833263Y399897D02*
X833265Y400030D01*
X833271Y400162D01*
X833281Y400294D01*
X833294Y400426D01*
X833312Y400558D01*
X833333Y400688D01*
X833358Y400819D01*
X833387Y400948D01*
X833420Y401076D01*
X833456Y401204D01*
X833496Y401330D01*
X833540Y401455D01*
X833588Y401579D01*
X833639Y401701D01*
X833694Y401822D01*
X833752Y401941D01*
X833814Y402059D01*
X833879Y402174D01*
X833948Y402288D01*
X834019Y402399D01*
X834095Y402508D01*
X834173Y402615D01*
X834254Y402720D01*
X834339Y402822D01*
X834426Y402922D01*
X834516Y403019D01*
X834609Y403114D01*
X834705Y403205D01*
X834803Y403294D01*
X834904Y403380D01*
X835008Y403463D01*
X835114Y403543D01*
X835222Y403619D01*
X835332Y403693D01*
X835445Y403763D01*
X835559Y403830D01*
X835676Y403893D01*
X835794Y403953D01*
X835914Y404010D01*
X836036Y404063D01*
X836159Y404112D01*
X836283Y404158D01*
X836409Y404200D01*
X836536Y404238D01*
X836664Y404273D01*
X836793Y404304D01*
X836922Y404331D01*
X837053Y404354D01*
X837184Y404374D01*
X837316Y404389D01*
X837448Y404401D01*
X837580Y404409D01*
X837713Y404413D01*
X837845Y404413D01*
X837978Y404409D01*
X838110Y404401D01*
X838242Y404389D01*
X838374Y404374D01*
X838505Y404354D01*
X838636Y404331D01*
X838765Y404304D01*
X838894Y404273D01*
X839022Y404238D01*
X839149Y404200D01*
X839275Y404158D01*
X839399Y404112D01*
X839522Y404063D01*
X839644Y404010D01*
X839764Y403953D01*
X839882Y403893D01*
X839999Y403830D01*
X840113Y403763D01*
X840226Y403693D01*
X840336Y403619D01*
X840444Y403543D01*
X840550Y403463D01*
X840654Y403380D01*
X840755Y403294D01*
X840853Y403205D01*
X840949Y403114D01*
X841042Y403019D01*
X841132Y402922D01*
X841219Y402822D01*
X841304Y402720D01*
X841385Y402615D01*
X841463Y402508D01*
X841539Y402399D01*
X841610Y402288D01*
X841679Y402174D01*
X841744Y402059D01*
X841806Y401941D01*
X841864Y401822D01*
X841919Y401701D01*
X841970Y401579D01*
X842018Y401455D01*
X842062Y401330D01*
X842102Y401204D01*
X842138Y401076D01*
X842171Y400948D01*
X842200Y400819D01*
X842225Y400688D01*
X842246Y400558D01*
X842264Y400426D01*
X842277Y400294D01*
X842287Y400162D01*
X842293Y400030D01*
X842295Y399897D01*
X842293Y399764D01*
X842287Y399632D01*
X842277Y399500D01*
X842264Y399368D01*
X842246Y399236D01*
X842225Y399106D01*
X842200Y398975D01*
X842171Y398846D01*
X842138Y398718D01*
X842102Y398590D01*
X842062Y398464D01*
X842018Y398339D01*
X841970Y398215D01*
X841919Y398093D01*
X841864Y397972D01*
X841806Y397853D01*
X841744Y397735D01*
X841679Y397620D01*
X841610Y397506D01*
X841539Y397395D01*
X841463Y397286D01*
X841385Y397179D01*
X841304Y397074D01*
X841219Y396972D01*
X841132Y396872D01*
X841042Y396775D01*
X840949Y396680D01*
X840853Y396589D01*
X840755Y396500D01*
X840654Y396414D01*
X840550Y396331D01*
X840444Y396251D01*
X840336Y396175D01*
X840226Y396101D01*
X840113Y396031D01*
X839999Y395964D01*
X839882Y395901D01*
X839764Y395841D01*
X839644Y395784D01*
X839522Y395731D01*
X839399Y395682D01*
X839275Y395636D01*
X839149Y395594D01*
X839022Y395556D01*
X838894Y395521D01*
X838765Y395490D01*
X838636Y395463D01*
X838505Y395440D01*
X838374Y395420D01*
X838242Y395405D01*
X838110Y395393D01*
X837978Y395385D01*
X837845Y395381D01*
X837713Y395381D01*
X837580Y395385D01*
X837448Y395393D01*
X837316Y395405D01*
X837184Y395420D01*
X837053Y395440D01*
X836922Y395463D01*
X836793Y395490D01*
X836664Y395521D01*
X836536Y395556D01*
X836409Y395594D01*
X836283Y395636D01*
X836159Y395682D01*
X836036Y395731D01*
X835914Y395784D01*
X835794Y395841D01*
X835676Y395901D01*
X835559Y395964D01*
X835445Y396031D01*
X835332Y396101D01*
X835222Y396175D01*
X835114Y396251D01*
X835008Y396331D01*
X834904Y396414D01*
X834803Y396500D01*
X834705Y396589D01*
X834609Y396680D01*
X834516Y396775D01*
X834426Y396872D01*
X834339Y396972D01*
X834254Y397074D01*
X834173Y397179D01*
X834095Y397286D01*
X834019Y397395D01*
X833948Y397506D01*
X833879Y397620D01*
X833814Y397735D01*
X833752Y397853D01*
X833694Y397972D01*
X833639Y398093D01*
X833588Y398215D01*
X833540Y398339D01*
X833496Y398464D01*
X833456Y398590D01*
X833420Y398718D01*
X833387Y398846D01*
X833358Y398975D01*
X833333Y399106D01*
X833312Y399236D01*
X833294Y399368D01*
X833281Y399500D01*
X833271Y399632D01*
X833265Y399764D01*
X833263Y399897D01*
X834167Y408025D02*
X834169Y408144D01*
X834175Y408264D01*
X834185Y408383D01*
X834199Y408501D01*
X834216Y408620D01*
X834238Y408737D01*
X834263Y408854D01*
X834293Y408969D01*
X834326Y409084D01*
X834363Y409198D01*
X834403Y409310D01*
X834448Y409421D01*
X834496Y409530D01*
X834547Y409638D01*
X834602Y409744D01*
X834661Y409848D01*
X834723Y409950D01*
X834788Y410050D01*
X834857Y410148D01*
X834929Y410244D01*
X835004Y410337D01*
X835081Y410427D01*
X835162Y410515D01*
X835246Y410600D01*
X835333Y410682D01*
X835422Y410762D01*
X835514Y410838D01*
X835608Y410912D01*
X835705Y410982D01*
X835803Y411049D01*
X835904Y411113D01*
X836008Y411173D01*
X836113Y411230D01*
X836220Y411283D01*
X836328Y411333D01*
X836438Y411379D01*
X836550Y411421D01*
X836663Y411460D01*
X836777Y411495D01*
X836892Y411526D01*
X837009Y411554D01*
X837126Y411577D01*
X837243Y411597D01*
X837362Y411613D01*
X837481Y411625D01*
X837600Y411633D01*
X837719Y411637D01*
X837839Y411637D01*
X837958Y411633D01*
X838077Y411625D01*
X838196Y411613D01*
X838315Y411597D01*
X838432Y411577D01*
X838549Y411554D01*
X838666Y411526D01*
X838781Y411495D01*
X838895Y411460D01*
X839008Y411421D01*
X839120Y411379D01*
X839230Y411333D01*
X839338Y411283D01*
X839445Y411230D01*
X839550Y411173D01*
X839654Y411113D01*
X839755Y411049D01*
X839853Y410982D01*
X839950Y410912D01*
X840044Y410838D01*
X840136Y410762D01*
X840225Y410682D01*
X840312Y410600D01*
X840396Y410515D01*
X840477Y410427D01*
X840554Y410337D01*
X840629Y410244D01*
X840701Y410148D01*
X840770Y410050D01*
X840835Y409950D01*
X840897Y409848D01*
X840956Y409744D01*
X841011Y409638D01*
X841062Y409530D01*
X841110Y409421D01*
X841155Y409310D01*
X841195Y409198D01*
X841232Y409084D01*
X841265Y408969D01*
X841295Y408854D01*
X841320Y408737D01*
X841342Y408620D01*
X841359Y408501D01*
X841373Y408383D01*
X841383Y408264D01*
X841389Y408144D01*
X841391Y408025D01*
X841389Y407906D01*
X841383Y407786D01*
X841373Y407667D01*
X841359Y407549D01*
X841342Y407430D01*
X841320Y407313D01*
X841295Y407196D01*
X841265Y407081D01*
X841232Y406966D01*
X841195Y406852D01*
X841155Y406740D01*
X841110Y406629D01*
X841062Y406520D01*
X841011Y406412D01*
X840956Y406306D01*
X840897Y406202D01*
X840835Y406100D01*
X840770Y406000D01*
X840701Y405902D01*
X840629Y405806D01*
X840554Y405713D01*
X840477Y405623D01*
X840396Y405535D01*
X840312Y405450D01*
X840225Y405368D01*
X840136Y405288D01*
X840044Y405212D01*
X839950Y405138D01*
X839853Y405068D01*
X839755Y405001D01*
X839654Y404937D01*
X839550Y404877D01*
X839445Y404820D01*
X839338Y404767D01*
X839230Y404717D01*
X839120Y404671D01*
X839008Y404629D01*
X838895Y404590D01*
X838781Y404555D01*
X838666Y404524D01*
X838549Y404496D01*
X838432Y404473D01*
X838315Y404453D01*
X838196Y404437D01*
X838077Y404425D01*
X837958Y404417D01*
X837839Y404413D01*
X837719Y404413D01*
X837600Y404417D01*
X837481Y404425D01*
X837362Y404437D01*
X837243Y404453D01*
X837126Y404473D01*
X837009Y404496D01*
X836892Y404524D01*
X836777Y404555D01*
X836663Y404590D01*
X836550Y404629D01*
X836438Y404671D01*
X836328Y404717D01*
X836220Y404767D01*
X836113Y404820D01*
X836008Y404877D01*
X835904Y404937D01*
X835803Y405001D01*
X835705Y405068D01*
X835608Y405138D01*
X835514Y405212D01*
X835422Y405288D01*
X835333Y405368D01*
X835246Y405450D01*
X835162Y405535D01*
X835081Y405623D01*
X835004Y405713D01*
X834929Y405806D01*
X834857Y405902D01*
X834788Y406000D01*
X834723Y406100D01*
X834661Y406202D01*
X834602Y406306D01*
X834547Y406412D01*
X834496Y406520D01*
X834448Y406629D01*
X834403Y406740D01*
X834363Y406852D01*
X834326Y406966D01*
X834293Y407081D01*
X834263Y407196D01*
X834238Y407313D01*
X834216Y407430D01*
X834199Y407549D01*
X834185Y407667D01*
X834175Y407786D01*
X834169Y407906D01*
X834167Y408025D01*
X848895Y403509D02*
X848899Y403829D01*
X848910Y404148D01*
X848929Y404468D01*
X848956Y404786D01*
X848990Y405104D01*
X849032Y405421D01*
X849082Y405737D01*
X849139Y406052D01*
X849203Y406365D01*
X849275Y406677D01*
X849354Y406987D01*
X849441Y407294D01*
X849535Y407600D01*
X849636Y407903D01*
X849745Y408204D01*
X849860Y408502D01*
X849983Y408798D01*
X850113Y409090D01*
X850250Y409379D01*
X850250Y409380D02*
X850289Y409488D01*
X850332Y409595D01*
X850378Y409700D01*
X850429Y409804D01*
X850482Y409906D01*
X850539Y410006D01*
X850600Y410104D01*
X850664Y410199D01*
X850731Y410293D01*
X850802Y410384D01*
X850875Y410473D01*
X850952Y410559D01*
X851031Y410642D01*
X851113Y410723D01*
X851198Y410801D01*
X851286Y410875D01*
X851376Y410947D01*
X851468Y411015D01*
X851563Y411081D01*
X851660Y411143D01*
X851759Y411201D01*
X851861Y411257D01*
X851963Y411308D01*
X852068Y411356D01*
X852174Y411401D01*
X852282Y411442D01*
X852391Y411479D01*
X852501Y411512D01*
X852613Y411541D01*
X852725Y411567D01*
X852838Y411589D01*
X852952Y411606D01*
X853066Y411620D01*
X853181Y411630D01*
X853296Y411636D01*
X853411Y411638D01*
X853411Y411637D02*
X853526Y411635D01*
X853641Y411629D01*
X853756Y411619D01*
X853870Y411605D01*
X853984Y411588D01*
X854097Y411566D01*
X854209Y411540D01*
X854321Y411511D01*
X854431Y411478D01*
X854540Y411441D01*
X854648Y411400D01*
X854754Y411355D01*
X854859Y411307D01*
X854961Y411256D01*
X855062Y411200D01*
X855162Y411142D01*
X855259Y411080D01*
X855353Y411015D01*
X855446Y410946D01*
X855536Y410874D01*
X855624Y410800D01*
X855709Y410722D01*
X855791Y410641D01*
X855870Y410558D01*
X855947Y410472D01*
X856020Y410383D01*
X856091Y410292D01*
X856158Y410198D01*
X856222Y410103D01*
X856283Y410005D01*
X856340Y409905D01*
X856393Y409803D01*
X856444Y409699D01*
X856490Y409594D01*
X856533Y409487D01*
X856572Y409379D01*
X856571Y409379D02*
X856708Y409090D01*
X856838Y408798D01*
X856961Y408502D01*
X857076Y408204D01*
X857185Y407903D01*
X857286Y407600D01*
X857380Y407294D01*
X857467Y406987D01*
X857546Y406677D01*
X857618Y406365D01*
X857682Y406052D01*
X857739Y405737D01*
X857789Y405421D01*
X857831Y405104D01*
X857865Y404786D01*
X857892Y404468D01*
X857911Y404148D01*
X857922Y403829D01*
X857926Y403509D01*
X848895Y403509D02*
X848899Y403189D01*
X848910Y402870D01*
X848929Y402550D01*
X848956Y402232D01*
X848990Y401914D01*
X849032Y401597D01*
X849082Y401281D01*
X849139Y400966D01*
X849203Y400653D01*
X849275Y400341D01*
X849354Y400031D01*
X849441Y399724D01*
X849535Y399418D01*
X849636Y399115D01*
X849745Y398814D01*
X849860Y398516D01*
X849983Y398220D01*
X850113Y397928D01*
X850250Y397639D01*
X850289Y397531D01*
X850332Y397424D01*
X850378Y397319D01*
X850429Y397215D01*
X850482Y397113D01*
X850539Y397013D01*
X850600Y396915D01*
X850664Y396820D01*
X850731Y396726D01*
X850802Y396635D01*
X850875Y396546D01*
X850952Y396460D01*
X851031Y396377D01*
X851113Y396296D01*
X851198Y396218D01*
X851286Y396144D01*
X851376Y396072D01*
X851469Y396003D01*
X851563Y395938D01*
X851660Y395876D01*
X851760Y395818D01*
X851861Y395762D01*
X851963Y395711D01*
X852068Y395663D01*
X852174Y395618D01*
X852282Y395577D01*
X852391Y395540D01*
X852501Y395507D01*
X852613Y395478D01*
X852725Y395452D01*
X852838Y395430D01*
X852952Y395413D01*
X853066Y395399D01*
X853181Y395389D01*
X853296Y395383D01*
X853411Y395381D01*
X856571Y397639D02*
X856708Y397928D01*
X856838Y398220D01*
X856961Y398516D01*
X857076Y398814D01*
X857185Y399115D01*
X857286Y399418D01*
X857380Y399724D01*
X857467Y400031D01*
X857546Y400341D01*
X857618Y400653D01*
X857682Y400966D01*
X857739Y401281D01*
X857789Y401597D01*
X857831Y401914D01*
X857865Y402232D01*
X857892Y402550D01*
X857911Y402870D01*
X857922Y403189D01*
X857926Y403509D01*
X856572Y397639D02*
X856533Y397531D01*
X856490Y397424D01*
X856444Y397319D01*
X856393Y397215D01*
X856340Y397113D01*
X856283Y397013D01*
X856222Y396915D01*
X856158Y396820D01*
X856091Y396726D01*
X856020Y396635D01*
X855947Y396546D01*
X855870Y396460D01*
X855791Y396377D01*
X855709Y396296D01*
X855624Y396218D01*
X855536Y396144D01*
X855446Y396072D01*
X855353Y396003D01*
X855259Y395938D01*
X855162Y395876D01*
X855062Y395818D01*
X854961Y395762D01*
X854858Y395711D01*
X854754Y395663D01*
X854648Y395618D01*
X854540Y395577D01*
X854431Y395540D01*
X854321Y395507D01*
X854209Y395478D01*
X854097Y395452D01*
X853984Y395430D01*
X853870Y395413D01*
X853756Y395399D01*
X853641Y395389D01*
X853526Y395383D01*
X853411Y395381D01*
X849798Y398993D02*
X857023Y408025D01*
D13*
X689000Y420000D02*
X964000Y420000D01*
X964000Y803000D01*
X689000Y803000D01*
X689000Y420000D01*
X952246Y784548D02*
X952185Y783927D01*
X952063Y783315D01*
X951882Y782718D01*
X951643Y782142D01*
X951349Y781592D01*
X951003Y781073D01*
X950607Y780590D01*
X950166Y780149D01*
X949683Y779753D01*
X949165Y779407D01*
X948614Y779113D01*
X948038Y778874D01*
X947441Y778693D01*
X946829Y778571D01*
X946208Y778510D01*
X945584Y778510D01*
X944963Y778571D01*
X944351Y778693D01*
X943754Y778874D01*
X943178Y779113D01*
X942628Y779407D01*
X942109Y779753D01*
X941626Y780149D01*
X941185Y780590D01*
X940789Y781073D01*
X940443Y781592D01*
X940149Y782142D01*
X939910Y782718D01*
X939729Y783315D01*
X939607Y783927D01*
X939546Y784548D01*
X939546Y785172D01*
X939607Y785793D01*
X939729Y786405D01*
X939910Y787002D01*
X940149Y787578D01*
X940443Y788129D01*
X940789Y788647D01*
X941185Y789130D01*
X941626Y789571D01*
X942109Y789967D01*
X942628Y790313D01*
X943178Y790607D01*
X943754Y790846D01*
X944351Y791027D01*
X944963Y791149D01*
X945584Y791210D01*
X946208Y791210D01*
X946829Y791149D01*
X947441Y791027D01*
X948038Y790846D01*
X948614Y790607D01*
X949165Y790313D01*
X949683Y789967D01*
X950166Y789571D01*
X950607Y789130D01*
X951003Y788647D01*
X951349Y788129D01*
X951643Y787578D01*
X951882Y787002D01*
X952063Y786405D01*
X952185Y785793D01*
X952246Y785172D01*
X952246Y784548D01*
X952246Y437838D02*
X952185Y437217D01*
X952063Y436605D01*
X951882Y436008D01*
X951643Y435432D01*
X951349Y434882D01*
X951003Y434363D01*
X950607Y433880D01*
X950166Y433439D01*
X949683Y433043D01*
X949165Y432697D01*
X948614Y432403D01*
X948038Y432164D01*
X947441Y431983D01*
X946829Y431861D01*
X946208Y431800D01*
X945584Y431800D01*
X944963Y431861D01*
X944351Y431983D01*
X943754Y432164D01*
X943178Y432403D01*
X942628Y432697D01*
X942109Y433043D01*
X941626Y433439D01*
X941185Y433880D01*
X940789Y434363D01*
X940443Y434882D01*
X940149Y435432D01*
X939910Y436008D01*
X939729Y436605D01*
X939607Y437217D01*
X939546Y437838D01*
X939546Y438462D01*
X939607Y439083D01*
X939729Y439695D01*
X939910Y440292D01*
X940149Y440868D01*
X940443Y441419D01*
X940789Y441937D01*
X941185Y442420D01*
X941626Y442861D01*
X942109Y443257D01*
X942628Y443603D01*
X943178Y443897D01*
X943754Y444136D01*
X944351Y444317D01*
X944963Y444439D01*
X945584Y444500D01*
X946208Y444500D01*
X946829Y444439D01*
X947441Y444317D01*
X948038Y444136D01*
X948614Y443897D01*
X949165Y443603D01*
X949683Y443257D01*
X950166Y442861D01*
X950607Y442420D01*
X951003Y441937D01*
X951349Y441419D01*
X951643Y440868D01*
X951882Y440292D01*
X952063Y439695D01*
X952185Y439083D01*
X952246Y438462D01*
X952246Y437838D01*
X714248Y437838D02*
X714187Y437217D01*
X714065Y436605D01*
X713884Y436008D01*
X713645Y435432D01*
X713351Y434882D01*
X713005Y434363D01*
X712609Y433880D01*
X712168Y433439D01*
X711685Y433043D01*
X711167Y432697D01*
X710616Y432403D01*
X710040Y432164D01*
X709443Y431983D01*
X708831Y431861D01*
X708210Y431800D01*
X707586Y431800D01*
X706965Y431861D01*
X706353Y431983D01*
X705756Y432164D01*
X705180Y432403D01*
X704630Y432697D01*
X704111Y433043D01*
X703628Y433439D01*
X703187Y433880D01*
X702791Y434363D01*
X702445Y434882D01*
X702151Y435432D01*
X701912Y436008D01*
X701731Y436605D01*
X701609Y437217D01*
X701548Y437838D01*
X701548Y438462D01*
X701609Y439083D01*
X701731Y439695D01*
X701912Y440292D01*
X702151Y440868D01*
X702445Y441419D01*
X702791Y441937D01*
X703187Y442420D01*
X703628Y442861D01*
X704111Y443257D01*
X704630Y443603D01*
X705180Y443897D01*
X705756Y444136D01*
X706353Y444317D01*
X706965Y444439D01*
X707586Y444500D01*
X708210Y444500D01*
X708831Y444439D01*
X709443Y444317D01*
X710040Y444136D01*
X710616Y443897D01*
X711167Y443603D01*
X711685Y443257D01*
X712168Y442861D01*
X712609Y442420D01*
X713005Y441937D01*
X713351Y441419D01*
X713645Y440868D01*
X713884Y440292D01*
X714065Y439695D01*
X714187Y439083D01*
X714248Y438462D01*
X714248Y437838D01*
X714248Y784548D02*
X714187Y783927D01*
X714065Y783315D01*
X713884Y782718D01*
X713645Y782142D01*
X713351Y781592D01*
X713005Y781073D01*
X712609Y780590D01*
X712168Y780149D01*
X711685Y779753D01*
X711167Y779407D01*
X710616Y779113D01*
X710040Y778874D01*
X709443Y778693D01*
X708831Y778571D01*
X708210Y778510D01*
X707586Y778510D01*
X706965Y778571D01*
X706353Y778693D01*
X705756Y778874D01*
X705180Y779113D01*
X704630Y779407D01*
X704111Y779753D01*
X703628Y780149D01*
X703187Y780590D01*
X702791Y781073D01*
X702445Y781592D01*
X702151Y782142D01*
X701912Y782718D01*
X701731Y783315D01*
X701609Y783927D01*
X701548Y784548D01*
X701548Y785172D01*
X701609Y785793D01*
X701731Y786405D01*
X701912Y787002D01*
X702151Y787578D01*
X702445Y788129D01*
X702791Y788647D01*
X703187Y789130D01*
X703628Y789571D01*
X704111Y789967D01*
X704630Y790313D01*
X705180Y790607D01*
X705756Y790846D01*
X706353Y791027D01*
X706965Y791149D01*
X707586Y791210D01*
X708210Y791210D01*
X708831Y791149D01*
X709443Y791027D01*
X710040Y790846D01*
X710616Y790607D01*
X711167Y790313D01*
X711685Y789967D01*
X712168Y789571D01*
X712609Y789130D01*
X713005Y788647D01*
X713351Y788129D01*
X713645Y787578D01*
X713884Y787002D01*
X714065Y786405D01*
X714187Y785793D01*
X714248Y785172D01*
X714248Y784548D01*
M02*
