G04 EAGLE Gerber RS-274X export*
G75*
%MOMM*%
%FSLAX34Y34*%
%LPD*%
%INTop Copper*%
%IPPOS*%
%AMOC8*
5,1,8,0,0,1.08239X$1,22.5*%
G01*
%ADD10R,1.208000X1.208000*%
%ADD11C,1.208000*%
%ADD12R,1.408000X1.408000*%
%ADD13C,1.408000*%
%ADD14P,1.429621X8X22.500000*%
%ADD15P,1.814519X8X22.500000*%
%ADD16P,1.814519X8X202.500000*%
%ADD17R,1.108000X1.108000*%
%ADD18C,1.108000*%
%ADD19C,1.665000*%
%ADD20C,3.810000*%
%ADD21C,0.500000*%
%ADD22C,0.250000*%

G36*
X538568Y10168D02*
X538568Y10168D01*
X538616Y10167D01*
X538689Y10188D01*
X538763Y10200D01*
X538806Y10223D01*
X538852Y10237D01*
X538914Y10280D01*
X538981Y10316D01*
X539014Y10350D01*
X539053Y10378D01*
X539098Y10439D01*
X539150Y10494D01*
X539170Y10537D01*
X539199Y10576D01*
X539222Y10648D01*
X539254Y10717D01*
X539259Y10765D01*
X539274Y10810D01*
X539273Y10886D01*
X539281Y10961D01*
X539271Y11008D01*
X539270Y11056D01*
X539245Y11128D01*
X539229Y11202D01*
X539204Y11243D01*
X539188Y11288D01*
X539141Y11348D01*
X539102Y11413D01*
X539066Y11444D01*
X539036Y11482D01*
X538933Y11558D01*
X538916Y11573D01*
X538909Y11575D01*
X538901Y11581D01*
X538411Y11864D01*
X531864Y18411D01*
X527235Y26428D01*
X524839Y35371D01*
X524839Y44629D01*
X527235Y53572D01*
X531864Y61589D01*
X538411Y68136D01*
X546428Y72765D01*
X555371Y75161D01*
X564629Y75161D01*
X573572Y72765D01*
X581589Y68136D01*
X588136Y61589D01*
X588419Y61099D01*
X588449Y61062D01*
X588472Y61019D01*
X588527Y60967D01*
X588575Y60908D01*
X588615Y60883D01*
X588650Y60850D01*
X588719Y60818D01*
X588783Y60778D01*
X588829Y60766D01*
X588873Y60746D01*
X588948Y60738D01*
X589022Y60720D01*
X589070Y60724D01*
X589117Y60719D01*
X589192Y60735D01*
X589267Y60742D01*
X589311Y60761D01*
X589358Y60771D01*
X589423Y60810D01*
X589492Y60841D01*
X589528Y60873D01*
X589569Y60898D01*
X589618Y60955D01*
X589674Y61006D01*
X589698Y61048D01*
X589729Y61084D01*
X589757Y61155D01*
X589794Y61221D01*
X589803Y61268D01*
X589821Y61313D01*
X589835Y61441D01*
X589839Y61463D01*
X589838Y61469D01*
X589839Y61479D01*
X589839Y1038521D01*
X589832Y1038568D01*
X589833Y1038616D01*
X589812Y1038689D01*
X589800Y1038763D01*
X589777Y1038806D01*
X589763Y1038852D01*
X589720Y1038914D01*
X589684Y1038981D01*
X589650Y1039014D01*
X589622Y1039053D01*
X589561Y1039098D01*
X589506Y1039150D01*
X589463Y1039170D01*
X589424Y1039199D01*
X589352Y1039222D01*
X589283Y1039254D01*
X589235Y1039259D01*
X589190Y1039274D01*
X589114Y1039273D01*
X589039Y1039281D01*
X588992Y1039271D01*
X588944Y1039270D01*
X588872Y1039245D01*
X588798Y1039229D01*
X588757Y1039204D01*
X588712Y1039188D01*
X588652Y1039141D01*
X588587Y1039102D01*
X588556Y1039066D01*
X588518Y1039036D01*
X588442Y1038933D01*
X588427Y1038916D01*
X588425Y1038909D01*
X588419Y1038901D01*
X588136Y1038411D01*
X581589Y1031864D01*
X573572Y1027235D01*
X564629Y1024839D01*
X555371Y1024839D01*
X546428Y1027235D01*
X538411Y1031864D01*
X531864Y1038411D01*
X527235Y1046428D01*
X524839Y1055371D01*
X524839Y1064629D01*
X527235Y1073572D01*
X531864Y1081589D01*
X538411Y1088136D01*
X538901Y1088419D01*
X538938Y1088449D01*
X538981Y1088472D01*
X539033Y1088527D01*
X539092Y1088575D01*
X539117Y1088615D01*
X539150Y1088650D01*
X539182Y1088719D01*
X539222Y1088783D01*
X539234Y1088829D01*
X539254Y1088873D01*
X539262Y1088948D01*
X539280Y1089022D01*
X539276Y1089070D01*
X539281Y1089117D01*
X539265Y1089192D01*
X539258Y1089267D01*
X539239Y1089311D01*
X539229Y1089358D01*
X539190Y1089423D01*
X539159Y1089492D01*
X539127Y1089528D01*
X539102Y1089569D01*
X539045Y1089618D01*
X538994Y1089674D01*
X538952Y1089698D01*
X538916Y1089729D01*
X538845Y1089757D01*
X538779Y1089794D01*
X538732Y1089803D01*
X538687Y1089821D01*
X538559Y1089835D01*
X538537Y1089839D01*
X538531Y1089838D01*
X538521Y1089839D01*
X61479Y1089839D01*
X61432Y1089832D01*
X61384Y1089833D01*
X61311Y1089812D01*
X61237Y1089800D01*
X61194Y1089777D01*
X61148Y1089763D01*
X61086Y1089720D01*
X61019Y1089684D01*
X60986Y1089650D01*
X60947Y1089622D01*
X60902Y1089561D01*
X60850Y1089506D01*
X60830Y1089463D01*
X60801Y1089424D01*
X60778Y1089352D01*
X60746Y1089283D01*
X60741Y1089235D01*
X60726Y1089190D01*
X60727Y1089114D01*
X60719Y1089039D01*
X60729Y1088992D01*
X60730Y1088944D01*
X60755Y1088872D01*
X60771Y1088798D01*
X60796Y1088757D01*
X60812Y1088712D01*
X60859Y1088652D01*
X60898Y1088587D01*
X60934Y1088556D01*
X60964Y1088518D01*
X61067Y1088442D01*
X61084Y1088427D01*
X61091Y1088425D01*
X61099Y1088419D01*
X61589Y1088136D01*
X68136Y1081589D01*
X72765Y1073572D01*
X75161Y1064629D01*
X75161Y1055371D01*
X72765Y1046428D01*
X68136Y1038411D01*
X61589Y1031864D01*
X53572Y1027235D01*
X44629Y1024839D01*
X35371Y1024839D01*
X26428Y1027235D01*
X18411Y1031864D01*
X11864Y1038411D01*
X11581Y1038901D01*
X11551Y1038938D01*
X11528Y1038981D01*
X11473Y1039033D01*
X11425Y1039092D01*
X11385Y1039117D01*
X11350Y1039150D01*
X11281Y1039182D01*
X11217Y1039222D01*
X11171Y1039234D01*
X11127Y1039254D01*
X11052Y1039262D01*
X10978Y1039280D01*
X10930Y1039276D01*
X10883Y1039281D01*
X10808Y1039265D01*
X10733Y1039258D01*
X10689Y1039239D01*
X10642Y1039229D01*
X10577Y1039190D01*
X10508Y1039159D01*
X10472Y1039127D01*
X10431Y1039102D01*
X10382Y1039045D01*
X10326Y1038994D01*
X10302Y1038952D01*
X10271Y1038916D01*
X10243Y1038845D01*
X10206Y1038779D01*
X10197Y1038732D01*
X10179Y1038687D01*
X10165Y1038559D01*
X10161Y1038537D01*
X10162Y1038531D01*
X10161Y1038521D01*
X10161Y61479D01*
X10168Y61432D01*
X10167Y61384D01*
X10188Y61311D01*
X10200Y61237D01*
X10223Y61194D01*
X10237Y61148D01*
X10280Y61086D01*
X10316Y61019D01*
X10350Y60986D01*
X10378Y60947D01*
X10439Y60902D01*
X10494Y60850D01*
X10537Y60830D01*
X10576Y60801D01*
X10648Y60778D01*
X10717Y60746D01*
X10765Y60741D01*
X10810Y60726D01*
X10886Y60727D01*
X10961Y60719D01*
X11008Y60729D01*
X11056Y60730D01*
X11128Y60755D01*
X11202Y60771D01*
X11243Y60796D01*
X11288Y60812D01*
X11348Y60859D01*
X11413Y60898D01*
X11444Y60934D01*
X11482Y60964D01*
X11558Y61067D01*
X11573Y61084D01*
X11575Y61091D01*
X11581Y61099D01*
X11864Y61589D01*
X18411Y68136D01*
X26428Y72765D01*
X35371Y75161D01*
X44629Y75161D01*
X53572Y72765D01*
X61589Y68136D01*
X68136Y61589D01*
X72765Y53572D01*
X75161Y44629D01*
X75161Y35371D01*
X72765Y26428D01*
X68136Y18411D01*
X61589Y11864D01*
X61099Y11581D01*
X61062Y11551D01*
X61019Y11528D01*
X60967Y11473D01*
X60908Y11425D01*
X60883Y11385D01*
X60850Y11350D01*
X60818Y11281D01*
X60778Y11217D01*
X60766Y11171D01*
X60746Y11127D01*
X60738Y11052D01*
X60720Y10978D01*
X60724Y10930D01*
X60719Y10883D01*
X60735Y10808D01*
X60742Y10733D01*
X60761Y10689D01*
X60771Y10642D01*
X60810Y10577D01*
X60841Y10508D01*
X60873Y10472D01*
X60898Y10431D01*
X60955Y10382D01*
X61006Y10326D01*
X61048Y10302D01*
X61084Y10271D01*
X61155Y10243D01*
X61221Y10206D01*
X61268Y10197D01*
X61313Y10179D01*
X61441Y10165D01*
X61463Y10161D01*
X61469Y10162D01*
X61479Y10161D01*
X538521Y10161D01*
X538568Y10168D01*
G37*
%LPC*%
G36*
X110093Y59475D02*
X110093Y59475D01*
X56976Y112592D01*
X54395Y115173D01*
X54395Y262017D01*
X93542Y301164D01*
X93595Y301238D01*
X93655Y301308D01*
X93667Y301338D01*
X93686Y301364D01*
X93713Y301451D01*
X93747Y301536D01*
X93751Y301577D01*
X93758Y301599D01*
X93757Y301631D01*
X93765Y301702D01*
X93765Y362347D01*
X98545Y367127D01*
X98557Y367143D01*
X98572Y367155D01*
X98628Y367243D01*
X98688Y367326D01*
X98694Y367345D01*
X98705Y367362D01*
X98730Y367463D01*
X98761Y367562D01*
X98760Y367581D01*
X98765Y367601D01*
X98757Y367704D01*
X98754Y367807D01*
X98748Y367826D01*
X98746Y367846D01*
X98706Y367941D01*
X98670Y368038D01*
X98657Y368054D01*
X98650Y368072D01*
X98545Y368203D01*
X93765Y372983D01*
X93765Y515617D01*
X98110Y519962D01*
X98122Y519978D01*
X98137Y519990D01*
X98193Y520078D01*
X98253Y520161D01*
X98259Y520180D01*
X98270Y520197D01*
X98295Y520298D01*
X98326Y520397D01*
X98325Y520416D01*
X98330Y520436D01*
X98322Y520539D01*
X98319Y520642D01*
X98313Y520661D01*
X98311Y520681D01*
X98271Y520776D01*
X98235Y520873D01*
X98222Y520889D01*
X98215Y520907D01*
X98110Y521038D01*
X93765Y525383D01*
X93765Y669487D01*
X95370Y671092D01*
X95382Y671108D01*
X95397Y671120D01*
X95453Y671208D01*
X95513Y671291D01*
X95519Y671310D01*
X95530Y671327D01*
X95555Y671428D01*
X95586Y671527D01*
X95585Y671546D01*
X95590Y671566D01*
X95582Y671669D01*
X95579Y671772D01*
X95573Y671791D01*
X95571Y671811D01*
X95531Y671906D01*
X95495Y672003D01*
X95482Y672019D01*
X95475Y672037D01*
X95370Y672168D01*
X27725Y739813D01*
X27725Y930037D01*
X139303Y1041615D01*
X325517Y1041615D01*
X360695Y1006437D01*
X360695Y999982D01*
X360713Y999867D01*
X360731Y999751D01*
X360733Y999745D01*
X360734Y999739D01*
X360789Y999637D01*
X360842Y999532D01*
X360847Y999527D01*
X360850Y999522D01*
X360934Y999442D01*
X361018Y999360D01*
X361024Y999356D01*
X361028Y999352D01*
X361045Y999345D01*
X361165Y999279D01*
X361522Y999131D01*
X363931Y996722D01*
X365235Y993574D01*
X365235Y990166D01*
X363931Y987018D01*
X361522Y984609D01*
X358374Y983305D01*
X354966Y983305D01*
X351818Y984609D01*
X349409Y987018D01*
X348105Y990166D01*
X348105Y993574D01*
X349409Y996722D01*
X351818Y999131D01*
X352175Y999279D01*
X352274Y999340D01*
X352375Y999400D01*
X352379Y999405D01*
X352384Y999408D01*
X352458Y999498D01*
X352535Y999587D01*
X352537Y999593D01*
X352541Y999598D01*
X352583Y999706D01*
X352627Y999815D01*
X352628Y999823D01*
X352629Y999827D01*
X352630Y999846D01*
X352645Y999982D01*
X352645Y1002788D01*
X352631Y1002878D01*
X352623Y1002969D01*
X352611Y1002998D01*
X352606Y1003030D01*
X352563Y1003111D01*
X352527Y1003195D01*
X352501Y1003227D01*
X352490Y1003248D01*
X352467Y1003270D01*
X352422Y1003326D01*
X322406Y1033342D01*
X322332Y1033395D01*
X322262Y1033455D01*
X322232Y1033467D01*
X322206Y1033486D01*
X322119Y1033513D01*
X322034Y1033547D01*
X321993Y1033551D01*
X321971Y1033558D01*
X321939Y1033557D01*
X321868Y1033565D01*
X142952Y1033565D01*
X142862Y1033551D01*
X142771Y1033543D01*
X142742Y1033531D01*
X142710Y1033526D01*
X142629Y1033483D01*
X142545Y1033447D01*
X142513Y1033421D01*
X142492Y1033410D01*
X142470Y1033387D01*
X142414Y1033342D01*
X85966Y976894D01*
X85924Y976836D01*
X85875Y976784D01*
X85853Y976737D01*
X85823Y976695D01*
X85801Y976626D01*
X85771Y976561D01*
X85765Y976509D01*
X85750Y976459D01*
X85752Y976388D01*
X85744Y976317D01*
X85755Y976266D01*
X85757Y976214D01*
X85781Y976146D01*
X85796Y976076D01*
X85823Y976031D01*
X85841Y975983D01*
X85886Y975927D01*
X85923Y975865D01*
X85962Y975831D01*
X85995Y975791D01*
X86055Y975752D01*
X86109Y975705D01*
X86158Y975686D01*
X86202Y975658D01*
X86271Y975640D01*
X86338Y975613D01*
X86409Y975605D01*
X86440Y975597D01*
X86463Y975599D01*
X86504Y975595D01*
X162205Y975595D01*
X162295Y975609D01*
X162386Y975617D01*
X162416Y975629D01*
X162448Y975634D01*
X162529Y975677D01*
X162613Y975713D01*
X162645Y975739D01*
X162665Y975750D01*
X162688Y975773D01*
X162744Y975818D01*
X205412Y1018486D01*
X205465Y1018560D01*
X205525Y1018630D01*
X205537Y1018660D01*
X205556Y1018686D01*
X205583Y1018773D01*
X205617Y1018858D01*
X205621Y1018899D01*
X205628Y1018921D01*
X205627Y1018953D01*
X205635Y1019025D01*
X205635Y1029022D01*
X206528Y1029915D01*
X219872Y1029915D01*
X220765Y1029022D01*
X220765Y1015678D01*
X219872Y1014785D01*
X209875Y1014785D01*
X209785Y1014771D01*
X209694Y1014763D01*
X209664Y1014751D01*
X209632Y1014746D01*
X209551Y1014703D01*
X209467Y1014667D01*
X209435Y1014641D01*
X209415Y1014630D01*
X209392Y1014607D01*
X209336Y1014562D01*
X166668Y971894D01*
X164819Y970045D01*
X86555Y970045D01*
X86465Y970031D01*
X86374Y970023D01*
X86344Y970011D01*
X86312Y970006D01*
X86231Y969963D01*
X86147Y969927D01*
X86115Y969901D01*
X86095Y969890D01*
X86072Y969867D01*
X86016Y969822D01*
X41098Y924904D01*
X41045Y924830D01*
X40985Y924760D01*
X40973Y924730D01*
X40954Y924704D01*
X40927Y924617D01*
X40893Y924532D01*
X40889Y924491D01*
X40882Y924469D01*
X40883Y924437D01*
X40875Y924365D01*
X40875Y744415D01*
X40889Y744325D01*
X40897Y744234D01*
X40909Y744204D01*
X40914Y744172D01*
X40957Y744091D01*
X40993Y744007D01*
X41019Y743975D01*
X41030Y743955D01*
X41053Y743932D01*
X41098Y743876D01*
X74586Y710388D01*
X74660Y710335D01*
X74730Y710275D01*
X74760Y710263D01*
X74786Y710244D01*
X74873Y710217D01*
X74958Y710183D01*
X74999Y710179D01*
X75021Y710172D01*
X75053Y710173D01*
X75125Y710165D01*
X84895Y710165D01*
X84985Y710179D01*
X85076Y710187D01*
X85106Y710199D01*
X85138Y710204D01*
X85219Y710247D01*
X85303Y710283D01*
X85335Y710309D01*
X85355Y710320D01*
X85378Y710343D01*
X85434Y710388D01*
X93522Y718476D01*
X93602Y718556D01*
X93644Y718614D01*
X93693Y718666D01*
X93715Y718713D01*
X93745Y718755D01*
X93766Y718824D01*
X93797Y718889D01*
X93802Y718941D01*
X93818Y718990D01*
X93816Y719062D01*
X93824Y719133D01*
X93813Y719184D01*
X93811Y719236D01*
X93787Y719304D01*
X93771Y719374D01*
X93745Y719418D01*
X93727Y719467D01*
X93682Y719523D01*
X93645Y719585D01*
X93606Y719619D01*
X93573Y719659D01*
X93513Y719698D01*
X93458Y719745D01*
X93410Y719764D01*
X93366Y719792D01*
X93297Y719810D01*
X93230Y719837D01*
X93159Y719845D01*
X93128Y719853D01*
X93104Y719851D01*
X93063Y719855D01*
X89021Y719855D01*
X55645Y753231D01*
X55645Y754380D01*
X55642Y754400D01*
X55644Y754419D01*
X55622Y754521D01*
X55606Y754623D01*
X55596Y754640D01*
X55592Y754660D01*
X55539Y754749D01*
X55490Y754840D01*
X55476Y754854D01*
X55466Y754871D01*
X55387Y754938D01*
X55312Y755010D01*
X55294Y755018D01*
X55279Y755031D01*
X55183Y755070D01*
X55089Y755113D01*
X55080Y755114D01*
X50291Y759903D01*
X50291Y766637D01*
X55053Y771399D01*
X61787Y771399D01*
X66549Y766637D01*
X66549Y759903D01*
X62223Y755577D01*
X62212Y755561D01*
X62196Y755549D01*
X62140Y755461D01*
X62080Y755378D01*
X62074Y755359D01*
X62063Y755342D01*
X62038Y755241D01*
X62007Y755143D01*
X62008Y755123D01*
X62003Y755103D01*
X62011Y755000D01*
X62014Y754897D01*
X62021Y754878D01*
X62022Y754858D01*
X62062Y754763D01*
X62098Y754666D01*
X62111Y754650D01*
X62118Y754632D01*
X62223Y754501D01*
X91096Y725628D01*
X91170Y725575D01*
X91240Y725515D01*
X91270Y725503D01*
X91296Y725484D01*
X91383Y725457D01*
X91468Y725423D01*
X91509Y725419D01*
X91531Y725412D01*
X91563Y725413D01*
X91635Y725405D01*
X115313Y725405D01*
X115383Y725416D01*
X115455Y725418D01*
X115504Y725436D01*
X115555Y725444D01*
X115619Y725478D01*
X115686Y725503D01*
X115727Y725535D01*
X115773Y725560D01*
X115822Y725612D01*
X115878Y725656D01*
X115906Y725700D01*
X115942Y725738D01*
X115972Y725803D01*
X116011Y725863D01*
X116024Y725914D01*
X116046Y725961D01*
X116054Y726032D01*
X116071Y726102D01*
X116067Y726154D01*
X116073Y726205D01*
X116058Y726276D01*
X116052Y726347D01*
X116032Y726395D01*
X116021Y726446D01*
X115984Y726507D01*
X115956Y726573D01*
X115911Y726629D01*
X115894Y726657D01*
X115877Y726672D01*
X115851Y726704D01*
X98611Y743944D01*
X98611Y782339D01*
X98597Y782429D01*
X98589Y782520D01*
X98577Y782550D01*
X98572Y782582D01*
X98529Y782663D01*
X98493Y782747D01*
X98467Y782779D01*
X98456Y782799D01*
X98433Y782822D01*
X98388Y782878D01*
X54375Y826891D01*
X54375Y830580D01*
X54372Y830600D01*
X54374Y830619D01*
X54352Y830721D01*
X54336Y830823D01*
X54326Y830840D01*
X54322Y830860D01*
X54269Y830949D01*
X54220Y831040D01*
X54206Y831054D01*
X54196Y831071D01*
X54117Y831138D01*
X54042Y831210D01*
X54024Y831218D01*
X54009Y831231D01*
X53913Y831270D01*
X53819Y831313D01*
X53810Y831314D01*
X49021Y836103D01*
X49021Y842837D01*
X53783Y847599D01*
X60517Y847599D01*
X65279Y842837D01*
X65279Y836103D01*
X60484Y831308D01*
X60443Y831302D01*
X60426Y831292D01*
X60406Y831288D01*
X60317Y831235D01*
X60226Y831186D01*
X60212Y831172D01*
X60195Y831162D01*
X60128Y831083D01*
X60056Y831008D01*
X60048Y830990D01*
X60035Y830975D01*
X59996Y830879D01*
X59953Y830785D01*
X59951Y830765D01*
X59943Y830747D01*
X59925Y830580D01*
X59925Y829505D01*
X59939Y829415D01*
X59947Y829324D01*
X59959Y829294D01*
X59964Y829262D01*
X60007Y829181D01*
X60043Y829097D01*
X60069Y829065D01*
X60080Y829045D01*
X60103Y829022D01*
X60148Y828966D01*
X101336Y787778D01*
X101394Y787737D01*
X101446Y787687D01*
X101493Y787665D01*
X101535Y787635D01*
X101604Y787614D01*
X101669Y787583D01*
X101721Y787578D01*
X101771Y787562D01*
X101842Y787564D01*
X101913Y787556D01*
X101964Y787567D01*
X102016Y787569D01*
X102084Y787593D01*
X102154Y787609D01*
X102199Y787635D01*
X102247Y787653D01*
X102303Y787698D01*
X102365Y787735D01*
X102399Y787774D01*
X102439Y787807D01*
X102478Y787867D01*
X102525Y787922D01*
X102544Y787970D01*
X102572Y788014D01*
X102590Y788083D01*
X102617Y788150D01*
X102625Y788221D01*
X102633Y788252D01*
X102631Y788276D01*
X102635Y788317D01*
X102635Y850705D01*
X102621Y850795D01*
X102613Y850886D01*
X102601Y850916D01*
X102596Y850948D01*
X102553Y851029D01*
X102517Y851113D01*
X102491Y851145D01*
X102480Y851165D01*
X102457Y851188D01*
X102412Y851244D01*
X55645Y898011D01*
X55645Y905510D01*
X55642Y905530D01*
X55644Y905549D01*
X55622Y905651D01*
X55606Y905753D01*
X55596Y905770D01*
X55592Y905790D01*
X55539Y905879D01*
X55490Y905970D01*
X55476Y905984D01*
X55466Y906001D01*
X55387Y906068D01*
X55312Y906140D01*
X55294Y906148D01*
X55279Y906161D01*
X55183Y906200D01*
X55089Y906243D01*
X55080Y906244D01*
X50291Y911033D01*
X50291Y917767D01*
X55053Y922529D01*
X61787Y922529D01*
X66549Y917767D01*
X66549Y911033D01*
X61754Y906238D01*
X61713Y906232D01*
X61696Y906222D01*
X61676Y906218D01*
X61587Y906165D01*
X61496Y906116D01*
X61482Y906102D01*
X61465Y906092D01*
X61398Y906013D01*
X61326Y905938D01*
X61318Y905920D01*
X61305Y905905D01*
X61266Y905809D01*
X61223Y905715D01*
X61221Y905695D01*
X61213Y905677D01*
X61195Y905510D01*
X61195Y900625D01*
X61209Y900535D01*
X61217Y900444D01*
X61229Y900414D01*
X61234Y900382D01*
X61277Y900301D01*
X61313Y900217D01*
X61339Y900185D01*
X61350Y900165D01*
X61373Y900142D01*
X61418Y900086D01*
X108185Y853319D01*
X108185Y748225D01*
X108199Y748135D01*
X108207Y748044D01*
X108219Y748014D01*
X108224Y747982D01*
X108267Y747901D01*
X108303Y747817D01*
X108329Y747785D01*
X108340Y747765D01*
X108363Y747742D01*
X108408Y747686D01*
X250425Y605669D01*
X250425Y501845D01*
X250439Y501755D01*
X250447Y501664D01*
X250459Y501634D01*
X250464Y501602D01*
X250507Y501521D01*
X250543Y501437D01*
X250569Y501405D01*
X250580Y501385D01*
X250603Y501362D01*
X250648Y501306D01*
X250959Y500995D01*
X250975Y500984D01*
X250987Y500968D01*
X251074Y500912D01*
X251158Y500852D01*
X251177Y500846D01*
X251194Y500835D01*
X251294Y500810D01*
X251393Y500780D01*
X251413Y500780D01*
X251433Y500775D01*
X251536Y500783D01*
X251639Y500786D01*
X251658Y500793D01*
X251678Y500794D01*
X251773Y500835D01*
X251870Y500870D01*
X251886Y500883D01*
X251904Y500891D01*
X252035Y500995D01*
X257516Y506477D01*
X265724Y506477D01*
X271527Y500674D01*
X271527Y492466D01*
X265724Y486663D01*
X257516Y486663D01*
X251713Y492466D01*
X251713Y493034D01*
X251710Y493054D01*
X251712Y493073D01*
X251690Y493175D01*
X251674Y493277D01*
X251664Y493294D01*
X251660Y493314D01*
X251607Y493403D01*
X251558Y493494D01*
X251544Y493508D01*
X251534Y493525D01*
X251455Y493592D01*
X251380Y493664D01*
X251362Y493672D01*
X251347Y493685D01*
X251251Y493724D01*
X251157Y493767D01*
X251137Y493769D01*
X251119Y493777D01*
X250952Y493795D01*
X250311Y493795D01*
X246644Y497462D01*
X246586Y497504D01*
X246534Y497553D01*
X246487Y497575D01*
X246445Y497605D01*
X246376Y497626D01*
X246311Y497657D01*
X246259Y497662D01*
X246209Y497678D01*
X246138Y497676D01*
X246067Y497684D01*
X246016Y497673D01*
X245964Y497671D01*
X245896Y497647D01*
X245826Y497631D01*
X245781Y497605D01*
X245733Y497587D01*
X245677Y497542D01*
X245615Y497505D01*
X245581Y497466D01*
X245541Y497433D01*
X245502Y497373D01*
X245455Y497318D01*
X245436Y497270D01*
X245408Y497226D01*
X245390Y497157D01*
X245363Y497090D01*
X245355Y497019D01*
X245347Y496988D01*
X245349Y496964D01*
X245345Y496923D01*
X245345Y457395D01*
X245359Y457305D01*
X245367Y457214D01*
X245379Y457184D01*
X245384Y457152D01*
X245427Y457071D01*
X245463Y456987D01*
X245489Y456955D01*
X245500Y456935D01*
X245523Y456912D01*
X245568Y456856D01*
X250414Y452010D01*
X250472Y451968D01*
X250524Y451919D01*
X250571Y451897D01*
X250613Y451867D01*
X250682Y451846D01*
X250747Y451815D01*
X250799Y451810D01*
X250849Y451794D01*
X250920Y451796D01*
X250991Y451788D01*
X251042Y451799D01*
X251094Y451801D01*
X251162Y451825D01*
X251232Y451841D01*
X251277Y451867D01*
X251325Y451885D01*
X251381Y451930D01*
X251443Y451967D01*
X251477Y452006D01*
X251517Y452039D01*
X251556Y452099D01*
X251603Y452154D01*
X251622Y452202D01*
X251650Y452246D01*
X251668Y452315D01*
X251695Y452382D01*
X251696Y452397D01*
X257516Y458217D01*
X265724Y458217D01*
X271527Y452414D01*
X271527Y444206D01*
X265724Y438403D01*
X257516Y438403D01*
X251713Y444206D01*
X251713Y444774D01*
X251710Y444794D01*
X251712Y444813D01*
X251690Y444915D01*
X251674Y445017D01*
X251664Y445034D01*
X251660Y445054D01*
X251607Y445143D01*
X251558Y445234D01*
X251544Y445248D01*
X251534Y445265D01*
X251455Y445332D01*
X251380Y445404D01*
X251362Y445412D01*
X251347Y445425D01*
X251251Y445464D01*
X251157Y445507D01*
X251137Y445509D01*
X251119Y445517D01*
X250952Y445535D01*
X249041Y445535D01*
X241564Y453012D01*
X241506Y453054D01*
X241454Y453103D01*
X241407Y453125D01*
X241365Y453155D01*
X241296Y453176D01*
X241231Y453207D01*
X241179Y453212D01*
X241129Y453228D01*
X241058Y453226D01*
X240987Y453234D01*
X240936Y453223D01*
X240884Y453221D01*
X240816Y453197D01*
X240746Y453181D01*
X240701Y453155D01*
X240653Y453137D01*
X240597Y453092D01*
X240535Y453055D01*
X240501Y453016D01*
X240461Y452983D01*
X240422Y452923D01*
X240375Y452868D01*
X240356Y452820D01*
X240328Y452776D01*
X240310Y452707D01*
X240283Y452640D01*
X240275Y452569D01*
X240267Y452538D01*
X240269Y452514D01*
X240265Y452473D01*
X240265Y412945D01*
X240279Y412855D01*
X240287Y412764D01*
X240299Y412734D01*
X240304Y412702D01*
X240347Y412621D01*
X240383Y412537D01*
X240409Y412505D01*
X240420Y412485D01*
X240443Y412462D01*
X240488Y412406D01*
X249846Y403048D01*
X249920Y402995D01*
X249990Y402935D01*
X250020Y402923D01*
X250046Y402904D01*
X250133Y402877D01*
X250218Y402843D01*
X250259Y402839D01*
X250281Y402832D01*
X250313Y402833D01*
X250385Y402825D01*
X250952Y402825D01*
X250972Y402828D01*
X250991Y402826D01*
X251093Y402848D01*
X251195Y402864D01*
X251212Y402874D01*
X251232Y402878D01*
X251321Y402931D01*
X251412Y402980D01*
X251426Y402994D01*
X251443Y403004D01*
X251510Y403083D01*
X251582Y403158D01*
X251590Y403176D01*
X251603Y403191D01*
X251642Y403287D01*
X251685Y403381D01*
X251687Y403401D01*
X251695Y403419D01*
X251713Y403586D01*
X251713Y404154D01*
X257516Y409957D01*
X265724Y409957D01*
X271527Y404154D01*
X271527Y395946D01*
X265724Y390143D01*
X257516Y390143D01*
X251713Y395946D01*
X251713Y396514D01*
X251710Y396534D01*
X251712Y396553D01*
X251690Y396655D01*
X251674Y396757D01*
X251664Y396774D01*
X251660Y396794D01*
X251607Y396883D01*
X251558Y396974D01*
X251544Y396988D01*
X251534Y397005D01*
X251455Y397072D01*
X251380Y397144D01*
X251362Y397152D01*
X251347Y397165D01*
X251251Y397204D01*
X251157Y397247D01*
X251137Y397249D01*
X251119Y397257D01*
X250952Y397275D01*
X247771Y397275D01*
X234715Y410331D01*
X234715Y601785D01*
X234701Y601875D01*
X234693Y601966D01*
X234681Y601996D01*
X234676Y602028D01*
X234633Y602109D01*
X234597Y602193D01*
X234571Y602225D01*
X234560Y602245D01*
X234537Y602268D01*
X234492Y602324D01*
X157744Y679072D01*
X157686Y679113D01*
X157634Y679163D01*
X157587Y679185D01*
X157545Y679215D01*
X157476Y679236D01*
X157411Y679267D01*
X157359Y679272D01*
X157309Y679288D01*
X157238Y679286D01*
X157167Y679294D01*
X157116Y679283D01*
X157064Y679281D01*
X156996Y679257D01*
X156926Y679241D01*
X156882Y679215D01*
X156833Y679197D01*
X156777Y679152D01*
X156715Y679115D01*
X156681Y679076D01*
X156641Y679043D01*
X156602Y678983D01*
X156555Y678928D01*
X156536Y678880D01*
X156508Y678836D01*
X156490Y678767D01*
X156463Y678700D01*
X156455Y678629D01*
X156447Y678598D01*
X156449Y678574D01*
X156445Y678533D01*
X156445Y490415D01*
X156459Y490325D01*
X156467Y490234D01*
X156479Y490204D01*
X156484Y490172D01*
X156527Y490091D01*
X156563Y490007D01*
X156589Y489975D01*
X156600Y489955D01*
X156623Y489932D01*
X156668Y489876D01*
X160946Y485598D01*
X161020Y485545D01*
X161090Y485485D01*
X161120Y485473D01*
X161146Y485454D01*
X161233Y485427D01*
X161318Y485393D01*
X161359Y485389D01*
X161381Y485382D01*
X161413Y485383D01*
X161485Y485375D01*
X166744Y485375D01*
X166859Y485394D01*
X166975Y485411D01*
X166980Y485413D01*
X166987Y485414D01*
X167089Y485469D01*
X167194Y485522D01*
X167198Y485527D01*
X167204Y485530D01*
X167284Y485614D01*
X167366Y485698D01*
X167370Y485704D01*
X167373Y485708D01*
X167381Y485725D01*
X167447Y485845D01*
X167761Y486602D01*
X169748Y488589D01*
X172345Y489665D01*
X175155Y489665D01*
X177752Y488589D01*
X179739Y486602D01*
X180815Y484005D01*
X180815Y481195D01*
X179739Y478598D01*
X177752Y476611D01*
X175155Y475535D01*
X172345Y475535D01*
X169748Y476611D01*
X167761Y478598D01*
X167447Y479355D01*
X167386Y479455D01*
X167326Y479555D01*
X167321Y479559D01*
X167318Y479564D01*
X167228Y479639D01*
X167139Y479715D01*
X167133Y479717D01*
X167128Y479721D01*
X167020Y479763D01*
X166911Y479807D01*
X166903Y479808D01*
X166898Y479809D01*
X166880Y479810D01*
X166744Y479825D01*
X158871Y479825D01*
X150895Y487801D01*
X150895Y677985D01*
X150881Y678075D01*
X150873Y678166D01*
X150861Y678196D01*
X150856Y678228D01*
X150813Y678309D01*
X150777Y678393D01*
X150751Y678425D01*
X150740Y678445D01*
X150717Y678468D01*
X150672Y678524D01*
X125180Y704016D01*
X125122Y704057D01*
X125070Y704107D01*
X125023Y704129D01*
X124981Y704159D01*
X124912Y704180D01*
X124847Y704211D01*
X124795Y704216D01*
X124745Y704232D01*
X124674Y704230D01*
X124603Y704238D01*
X124552Y704227D01*
X124500Y704225D01*
X124432Y704201D01*
X124362Y704185D01*
X124317Y704159D01*
X124269Y704141D01*
X124213Y704096D01*
X124151Y704059D01*
X124117Y704020D01*
X124077Y703987D01*
X124038Y703927D01*
X123991Y703872D01*
X123972Y703824D01*
X123944Y703780D01*
X123926Y703711D01*
X123899Y703644D01*
X123891Y703573D01*
X123883Y703542D01*
X123885Y703518D01*
X123881Y703477D01*
X123881Y698153D01*
X115823Y698153D01*
X115823Y706211D01*
X121147Y706211D01*
X121218Y706222D01*
X121290Y706224D01*
X121339Y706242D01*
X121390Y706250D01*
X121453Y706284D01*
X121521Y706309D01*
X121561Y706341D01*
X121608Y706366D01*
X121657Y706418D01*
X121713Y706462D01*
X121741Y706506D01*
X121777Y706544D01*
X121807Y706609D01*
X121846Y706669D01*
X121859Y706720D01*
X121881Y706767D01*
X121888Y706838D01*
X121906Y706908D01*
X121902Y706960D01*
X121908Y707011D01*
X121892Y707082D01*
X121887Y707153D01*
X121866Y707201D01*
X121855Y707252D01*
X121819Y707313D01*
X121790Y707379D01*
X121746Y707435D01*
X121729Y707463D01*
X121711Y707478D01*
X121686Y707510D01*
X114644Y714552D01*
X114570Y714605D01*
X114500Y714665D01*
X114470Y714677D01*
X114444Y714696D01*
X114357Y714723D01*
X114272Y714757D01*
X114231Y714761D01*
X114209Y714768D01*
X114177Y714767D01*
X114105Y714775D01*
X97985Y714775D01*
X97895Y714761D01*
X97804Y714753D01*
X97774Y714741D01*
X97742Y714736D01*
X97661Y714693D01*
X97577Y714657D01*
X97545Y714631D01*
X97525Y714620D01*
X97502Y714597D01*
X97446Y714552D01*
X87509Y704615D01*
X76144Y704615D01*
X76074Y704604D01*
X76002Y704602D01*
X75953Y704584D01*
X75902Y704576D01*
X75838Y704542D01*
X75771Y704517D01*
X75730Y704485D01*
X75684Y704460D01*
X75635Y704408D01*
X75579Y704364D01*
X75551Y704320D01*
X75515Y704282D01*
X75485Y704217D01*
X75446Y704157D01*
X75433Y704106D01*
X75411Y704059D01*
X75403Y703988D01*
X75386Y703918D01*
X75390Y703866D01*
X75384Y703815D01*
X75399Y703744D01*
X75405Y703673D01*
X75425Y703625D01*
X75436Y703574D01*
X75473Y703513D01*
X75501Y703447D01*
X75546Y703391D01*
X75563Y703363D01*
X75580Y703348D01*
X75606Y703316D01*
X103044Y675878D01*
X103118Y675825D01*
X103188Y675765D01*
X103218Y675753D01*
X103244Y675734D01*
X103331Y675707D01*
X103416Y675673D01*
X103457Y675669D01*
X103479Y675662D01*
X103511Y675663D01*
X103582Y675655D01*
X106188Y675655D01*
X106303Y675674D01*
X106419Y675691D01*
X106425Y675693D01*
X106431Y675694D01*
X106533Y675749D01*
X106638Y675802D01*
X106643Y675807D01*
X106648Y675810D01*
X106728Y675894D01*
X106810Y675978D01*
X106814Y675984D01*
X106818Y675988D01*
X106825Y676005D01*
X106891Y676125D01*
X107039Y676482D01*
X109448Y678891D01*
X112596Y680195D01*
X116004Y680195D01*
X119152Y678891D01*
X121561Y676482D01*
X122865Y673334D01*
X122865Y669926D01*
X121561Y666778D01*
X119152Y664369D01*
X116004Y663065D01*
X112596Y663065D01*
X109448Y664369D01*
X107039Y666778D01*
X106891Y667135D01*
X106830Y667235D01*
X106770Y667335D01*
X106765Y667339D01*
X106762Y667344D01*
X106672Y667419D01*
X106583Y667495D01*
X106577Y667497D01*
X106572Y667501D01*
X106464Y667543D01*
X106355Y667587D01*
X106347Y667588D01*
X106343Y667589D01*
X106324Y667590D01*
X106188Y667605D01*
X103582Y667605D01*
X103492Y667591D01*
X103401Y667583D01*
X103372Y667571D01*
X103340Y667566D01*
X103259Y667523D01*
X103175Y667487D01*
X103143Y667461D01*
X103122Y667450D01*
X103100Y667427D01*
X103044Y667382D01*
X102038Y666376D01*
X101985Y666302D01*
X101925Y666232D01*
X101913Y666202D01*
X101894Y666176D01*
X101867Y666089D01*
X101833Y666004D01*
X101829Y665963D01*
X101822Y665941D01*
X101823Y665909D01*
X101815Y665838D01*
X101815Y529032D01*
X101829Y528942D01*
X101837Y528851D01*
X101849Y528822D01*
X101854Y528790D01*
X101897Y528709D01*
X101933Y528625D01*
X101959Y528593D01*
X101970Y528572D01*
X101993Y528550D01*
X102038Y528494D01*
X105689Y524843D01*
X105726Y524816D01*
X105757Y524782D01*
X105826Y524745D01*
X105889Y524699D01*
X105933Y524686D01*
X105973Y524664D01*
X106050Y524650D01*
X106124Y524627D01*
X106170Y524628D01*
X106215Y524620D01*
X106292Y524631D01*
X106370Y524633D01*
X106413Y524649D01*
X106458Y524656D01*
X106528Y524691D01*
X106601Y524718D01*
X106637Y524746D01*
X106678Y524767D01*
X106732Y524823D01*
X106793Y524871D01*
X106818Y524910D01*
X106850Y524943D01*
X106916Y525062D01*
X106926Y525078D01*
X106927Y525083D01*
X106931Y525090D01*
X107039Y525352D01*
X109448Y527761D01*
X112596Y529065D01*
X116004Y529065D01*
X119152Y527761D01*
X121561Y525352D01*
X122865Y522204D01*
X122865Y518796D01*
X121561Y515648D01*
X119152Y513239D01*
X116004Y511935D01*
X112596Y511935D01*
X109448Y513239D01*
X107039Y515648D01*
X106931Y515910D01*
X106906Y515949D01*
X106891Y515992D01*
X106842Y516053D01*
X106801Y516119D01*
X106766Y516149D01*
X106737Y516184D01*
X106671Y516227D01*
X106612Y516276D01*
X106569Y516293D01*
X106530Y516317D01*
X106455Y516337D01*
X106382Y516364D01*
X106336Y516366D01*
X106292Y516378D01*
X106214Y516372D01*
X106136Y516375D01*
X106092Y516362D01*
X106046Y516358D01*
X105975Y516328D01*
X105900Y516306D01*
X105862Y516280D01*
X105820Y516262D01*
X105713Y516177D01*
X105698Y516166D01*
X105695Y516162D01*
X105689Y516157D01*
X102038Y512506D01*
X101985Y512432D01*
X101925Y512362D01*
X101913Y512332D01*
X101894Y512306D01*
X101867Y512219D01*
X101833Y512134D01*
X101829Y512093D01*
X101822Y512071D01*
X101823Y512039D01*
X101815Y511968D01*
X101815Y376632D01*
X101829Y376542D01*
X101837Y376451D01*
X101849Y376422D01*
X101854Y376390D01*
X101897Y376309D01*
X101933Y376225D01*
X101959Y376193D01*
X101970Y376172D01*
X101993Y376150D01*
X102038Y376094D01*
X104936Y373195D01*
X104953Y373184D01*
X104965Y373168D01*
X105052Y373112D01*
X105136Y373052D01*
X105155Y373046D01*
X105172Y373035D01*
X105273Y373010D01*
X105371Y372979D01*
X105391Y372980D01*
X105411Y372975D01*
X105513Y372983D01*
X105617Y372986D01*
X105636Y372993D01*
X105656Y372994D01*
X105751Y373035D01*
X105848Y373070D01*
X105864Y373083D01*
X105882Y373091D01*
X106013Y373195D01*
X108178Y375361D01*
X111326Y376665D01*
X114734Y376665D01*
X117882Y375361D01*
X120291Y372952D01*
X121595Y369804D01*
X121595Y366396D01*
X120291Y363248D01*
X117882Y360839D01*
X114734Y359535D01*
X111326Y359535D01*
X108178Y360839D01*
X106448Y362570D01*
X106432Y362581D01*
X106419Y362597D01*
X106332Y362653D01*
X106248Y362713D01*
X106229Y362719D01*
X106212Y362730D01*
X106112Y362755D01*
X106013Y362786D01*
X105993Y362785D01*
X105974Y362790D01*
X105871Y362782D01*
X105767Y362779D01*
X105749Y362772D01*
X105729Y362771D01*
X105634Y362730D01*
X105536Y362695D01*
X105521Y362682D01*
X105502Y362674D01*
X105371Y362570D01*
X102038Y359236D01*
X101985Y359162D01*
X101925Y359092D01*
X101913Y359062D01*
X101894Y359036D01*
X101867Y358949D01*
X101833Y358864D01*
X101829Y358823D01*
X101822Y358801D01*
X101823Y358769D01*
X101815Y358698D01*
X101815Y298053D01*
X98666Y294904D01*
X98624Y294846D01*
X98575Y294794D01*
X98553Y294747D01*
X98523Y294705D01*
X98501Y294636D01*
X98471Y294571D01*
X98466Y294519D01*
X98450Y294469D01*
X98452Y294398D01*
X98444Y294327D01*
X98455Y294276D01*
X98457Y294224D01*
X98481Y294156D01*
X98496Y294086D01*
X98523Y294041D01*
X98541Y293993D01*
X98586Y293937D01*
X98623Y293875D01*
X98662Y293841D01*
X98695Y293801D01*
X98755Y293762D01*
X98809Y293715D01*
X98858Y293696D01*
X98902Y293668D01*
X98971Y293650D01*
X99038Y293623D01*
X99109Y293615D01*
X99140Y293607D01*
X99163Y293609D01*
X99204Y293605D01*
X130615Y293605D01*
X130705Y293619D01*
X130796Y293627D01*
X130826Y293639D01*
X130858Y293644D01*
X130939Y293687D01*
X131023Y293723D01*
X131055Y293749D01*
X131075Y293760D01*
X131098Y293783D01*
X131154Y293828D01*
X145592Y308266D01*
X145645Y308340D01*
X145705Y308410D01*
X145717Y308440D01*
X145736Y308466D01*
X145763Y308553D01*
X145797Y308638D01*
X145801Y308679D01*
X145808Y308701D01*
X145807Y308733D01*
X145815Y308805D01*
X145815Y342779D01*
X161411Y358375D01*
X166744Y358375D01*
X166858Y358393D01*
X166975Y358411D01*
X166980Y358413D01*
X166987Y358414D01*
X167090Y358469D01*
X167194Y358522D01*
X167198Y358527D01*
X167204Y358530D01*
X167285Y358615D01*
X167366Y358698D01*
X167370Y358704D01*
X167373Y358708D01*
X167381Y358725D01*
X167447Y358845D01*
X167761Y359602D01*
X169748Y361589D01*
X172345Y362665D01*
X175155Y362665D01*
X177752Y361589D01*
X179739Y359602D01*
X180815Y357005D01*
X180815Y354195D01*
X179739Y351598D01*
X177752Y349611D01*
X175155Y348535D01*
X172345Y348535D01*
X169748Y349611D01*
X167761Y351598D01*
X167447Y352355D01*
X167386Y352455D01*
X167326Y352555D01*
X167321Y352559D01*
X167318Y352564D01*
X167228Y352639D01*
X167139Y352715D01*
X167133Y352717D01*
X167128Y352721D01*
X167019Y352763D01*
X166911Y352807D01*
X166903Y352808D01*
X166899Y352809D01*
X166880Y352810D01*
X166744Y352825D01*
X164025Y352825D01*
X163935Y352811D01*
X163844Y352803D01*
X163814Y352791D01*
X163782Y352786D01*
X163701Y352743D01*
X163617Y352707D01*
X163585Y352681D01*
X163565Y352670D01*
X163542Y352647D01*
X163486Y352602D01*
X151588Y340704D01*
X151535Y340630D01*
X151475Y340560D01*
X151463Y340530D01*
X151444Y340504D01*
X151417Y340417D01*
X151383Y340332D01*
X151379Y340291D01*
X151372Y340269D01*
X151373Y340237D01*
X151365Y340165D01*
X151365Y332387D01*
X151376Y332316D01*
X151378Y332244D01*
X151396Y332195D01*
X151404Y332144D01*
X151438Y332081D01*
X151463Y332013D01*
X151495Y331973D01*
X151520Y331926D01*
X151572Y331877D01*
X151616Y331821D01*
X151660Y331793D01*
X151698Y331757D01*
X151763Y331727D01*
X151823Y331688D01*
X151874Y331675D01*
X151921Y331653D01*
X151992Y331646D01*
X152062Y331628D01*
X152114Y331632D01*
X152165Y331626D01*
X152236Y331642D01*
X152307Y331647D01*
X152355Y331668D01*
X152406Y331679D01*
X152467Y331715D01*
X152533Y331744D01*
X152589Y331788D01*
X152617Y331805D01*
X152632Y331823D01*
X152664Y331848D01*
X164642Y343826D01*
X166491Y345675D01*
X181415Y345675D01*
X181505Y345689D01*
X181596Y345697D01*
X181626Y345709D01*
X181658Y345714D01*
X181739Y345757D01*
X181823Y345793D01*
X181855Y345819D01*
X181875Y345830D01*
X181898Y345853D01*
X181954Y345898D01*
X183692Y347636D01*
X183737Y347699D01*
X183765Y347728D01*
X183770Y347739D01*
X183805Y347780D01*
X183817Y347810D01*
X183836Y347836D01*
X183863Y347923D01*
X183897Y348008D01*
X183901Y348049D01*
X183908Y348071D01*
X183907Y348103D01*
X183915Y348175D01*
X183915Y500185D01*
X183901Y500275D01*
X183893Y500366D01*
X183881Y500396D01*
X183876Y500428D01*
X183833Y500509D01*
X183797Y500593D01*
X183771Y500625D01*
X183760Y500645D01*
X183737Y500668D01*
X183692Y500724D01*
X180617Y503799D01*
X180601Y503811D01*
X180588Y503826D01*
X180501Y503882D01*
X180417Y503943D01*
X180398Y503949D01*
X180381Y503959D01*
X180281Y503985D01*
X180182Y504015D01*
X180162Y504015D01*
X180143Y504019D01*
X180040Y504011D01*
X179936Y504009D01*
X179917Y504002D01*
X179897Y504000D01*
X179803Y503960D01*
X179705Y503924D01*
X179689Y503912D01*
X179671Y503904D01*
X179540Y503799D01*
X177752Y502011D01*
X175155Y500935D01*
X172345Y500935D01*
X169748Y502011D01*
X167761Y503998D01*
X166685Y506595D01*
X166685Y509405D01*
X167761Y512002D01*
X169748Y513989D01*
X172345Y515065D01*
X175155Y515065D01*
X177752Y513989D01*
X179739Y512002D01*
X180053Y511245D01*
X180114Y511145D01*
X180174Y511045D01*
X180179Y511041D01*
X180182Y511036D01*
X180272Y510961D01*
X180361Y510885D01*
X180367Y510883D01*
X180372Y510879D01*
X180480Y510837D01*
X180589Y510793D01*
X180597Y510792D01*
X180602Y510791D01*
X180620Y510790D01*
X180756Y510775D01*
X181489Y510775D01*
X189465Y502799D01*
X189465Y345561D01*
X184029Y340125D01*
X169105Y340125D01*
X169015Y340111D01*
X168924Y340103D01*
X168894Y340091D01*
X168862Y340086D01*
X168781Y340043D01*
X168697Y340007D01*
X168665Y339981D01*
X168645Y339970D01*
X168622Y339947D01*
X168566Y339902D01*
X156668Y328004D01*
X156615Y327930D01*
X156555Y327860D01*
X156543Y327830D01*
X156524Y327804D01*
X156497Y327717D01*
X156463Y327632D01*
X156459Y327591D01*
X156452Y327569D01*
X156453Y327537D01*
X156445Y327465D01*
X156445Y305580D01*
X134896Y284031D01*
X100311Y284031D01*
X100221Y284017D01*
X100130Y284009D01*
X100100Y283997D01*
X100068Y283992D01*
X99987Y283949D01*
X99903Y283913D01*
X99871Y283887D01*
X99851Y283876D01*
X99828Y283853D01*
X99772Y283808D01*
X72848Y256884D01*
X72795Y256810D01*
X72735Y256740D01*
X72723Y256710D01*
X72704Y256684D01*
X72677Y256597D01*
X72643Y256512D01*
X72639Y256471D01*
X72632Y256449D01*
X72633Y256417D01*
X72625Y256345D01*
X72625Y215335D01*
X72633Y215286D01*
X72631Y215237D01*
X72652Y215166D01*
X72664Y215092D01*
X72687Y215049D01*
X72701Y215002D01*
X72745Y214941D01*
X72780Y214875D01*
X72815Y214841D01*
X72843Y214801D01*
X72904Y214757D01*
X72958Y214705D01*
X73002Y214685D01*
X73042Y214656D01*
X73113Y214633D01*
X73181Y214602D01*
X73230Y214596D01*
X73276Y214581D01*
X73351Y214583D01*
X73425Y214575D01*
X73473Y214585D01*
X73522Y214586D01*
X73593Y214611D01*
X73666Y214627D01*
X73708Y214652D01*
X73754Y214668D01*
X73813Y214715D01*
X73877Y214753D01*
X73909Y214790D01*
X73947Y214821D01*
X73988Y214883D01*
X74037Y214940D01*
X74055Y214985D01*
X74082Y215026D01*
X74120Y215146D01*
X74129Y215168D01*
X74130Y215177D01*
X74133Y215186D01*
X74299Y216023D01*
X74946Y217585D01*
X75885Y218990D01*
X77080Y220185D01*
X78485Y221124D01*
X80047Y221771D01*
X81027Y221966D01*
X81027Y214282D01*
X81030Y214262D01*
X81028Y214243D01*
X81050Y214141D01*
X81067Y214039D01*
X81076Y214022D01*
X81080Y214002D01*
X81133Y213913D01*
X81182Y213822D01*
X81196Y213808D01*
X81206Y213791D01*
X81285Y213724D01*
X81360Y213653D01*
X81378Y213644D01*
X81393Y213631D01*
X81489Y213593D01*
X81583Y213549D01*
X81603Y213547D01*
X81621Y213539D01*
X81788Y213521D01*
X82551Y213521D01*
X82551Y213519D01*
X81788Y213519D01*
X81768Y213516D01*
X81749Y213518D01*
X81647Y213496D01*
X81545Y213479D01*
X81528Y213470D01*
X81508Y213466D01*
X81419Y213413D01*
X81328Y213364D01*
X81314Y213350D01*
X81297Y213340D01*
X81230Y213261D01*
X81159Y213186D01*
X81150Y213168D01*
X81137Y213153D01*
X81098Y213057D01*
X81055Y212963D01*
X81053Y212943D01*
X81045Y212925D01*
X81027Y212758D01*
X81027Y205074D01*
X80047Y205269D01*
X78485Y205916D01*
X77080Y206855D01*
X75885Y208050D01*
X74946Y209455D01*
X74299Y211017D01*
X74133Y211854D01*
X74115Y211900D01*
X74107Y211948D01*
X74073Y212014D01*
X74046Y212084D01*
X74015Y212122D01*
X73992Y212165D01*
X73938Y212217D01*
X73891Y212275D01*
X73850Y212301D01*
X73814Y212335D01*
X73746Y212366D01*
X73683Y212406D01*
X73635Y212418D01*
X73591Y212438D01*
X73517Y212447D01*
X73444Y212464D01*
X73395Y212460D01*
X73347Y212465D01*
X73274Y212450D01*
X73199Y212443D01*
X73154Y212424D01*
X73106Y212413D01*
X73042Y212375D01*
X72973Y212345D01*
X72937Y212312D01*
X72895Y212287D01*
X72846Y212230D01*
X72791Y212180D01*
X72767Y212137D01*
X72735Y212100D01*
X72707Y212031D01*
X72671Y211966D01*
X72662Y211918D01*
X72643Y211872D01*
X72629Y211747D01*
X72625Y211724D01*
X72626Y211715D01*
X72625Y211705D01*
X72625Y181805D01*
X72639Y181715D01*
X72647Y181624D01*
X72659Y181594D01*
X72664Y181562D01*
X72707Y181481D01*
X72743Y181397D01*
X72769Y181365D01*
X72780Y181345D01*
X72803Y181322D01*
X72848Y181266D01*
X122315Y131799D01*
X122315Y87066D01*
X122318Y87046D01*
X122316Y87027D01*
X122338Y86925D01*
X122354Y86823D01*
X122364Y86806D01*
X122368Y86786D01*
X122421Y86697D01*
X122470Y86606D01*
X122484Y86592D01*
X122494Y86575D01*
X122573Y86508D01*
X122648Y86436D01*
X122666Y86428D01*
X122681Y86415D01*
X122777Y86376D01*
X122871Y86333D01*
X122891Y86331D01*
X122909Y86323D01*
X123076Y86305D01*
X126212Y86305D01*
X127105Y85412D01*
X127105Y72068D01*
X126212Y71175D01*
X112868Y71175D01*
X111975Y72068D01*
X111975Y85412D01*
X112868Y86305D01*
X116004Y86305D01*
X116024Y86308D01*
X116043Y86306D01*
X116145Y86328D01*
X116247Y86344D01*
X116264Y86354D01*
X116284Y86358D01*
X116373Y86411D01*
X116464Y86460D01*
X116478Y86474D01*
X116495Y86484D01*
X116562Y86563D01*
X116634Y86638D01*
X116642Y86656D01*
X116655Y86671D01*
X116694Y86767D01*
X116737Y86861D01*
X116739Y86881D01*
X116747Y86899D01*
X116765Y87066D01*
X116765Y129185D01*
X116751Y129275D01*
X116743Y129366D01*
X116731Y129396D01*
X116726Y129428D01*
X116683Y129509D01*
X116647Y129593D01*
X116621Y129625D01*
X116610Y129645D01*
X116587Y129668D01*
X116542Y129724D01*
X92684Y153582D01*
X92626Y153623D01*
X92574Y153673D01*
X92527Y153695D01*
X92485Y153725D01*
X92416Y153746D01*
X92351Y153777D01*
X92299Y153782D01*
X92249Y153798D01*
X92178Y153796D01*
X92107Y153804D01*
X92056Y153793D01*
X92004Y153791D01*
X91936Y153767D01*
X91866Y153751D01*
X91821Y153725D01*
X91773Y153707D01*
X91717Y153662D01*
X91655Y153625D01*
X91621Y153586D01*
X91581Y153553D01*
X91542Y153493D01*
X91495Y153438D01*
X91476Y153390D01*
X91448Y153346D01*
X91430Y153277D01*
X91403Y153210D01*
X91395Y153139D01*
X91387Y153108D01*
X91389Y153084D01*
X91385Y153043D01*
X91385Y140488D01*
X90492Y139595D01*
X77148Y139595D01*
X76255Y140488D01*
X76255Y153832D01*
X77148Y154725D01*
X80284Y154725D01*
X80304Y154728D01*
X80323Y154726D01*
X80425Y154748D01*
X80527Y154764D01*
X80544Y154774D01*
X80564Y154778D01*
X80653Y154831D01*
X80744Y154880D01*
X80758Y154894D01*
X80775Y154904D01*
X80842Y154983D01*
X80914Y155058D01*
X80922Y155076D01*
X80935Y155091D01*
X80974Y155187D01*
X81017Y155281D01*
X81019Y155301D01*
X81027Y155319D01*
X81045Y155486D01*
X81045Y157285D01*
X81031Y157375D01*
X81023Y157466D01*
X81011Y157496D01*
X81006Y157528D01*
X80963Y157609D01*
X80927Y157693D01*
X80901Y157725D01*
X80890Y157745D01*
X80867Y157768D01*
X80822Y157824D01*
X63844Y174802D01*
X63744Y174902D01*
X63686Y174943D01*
X63634Y174993D01*
X63587Y175015D01*
X63545Y175045D01*
X63476Y175066D01*
X63411Y175097D01*
X63359Y175102D01*
X63310Y175118D01*
X63238Y175116D01*
X63167Y175124D01*
X63116Y175113D01*
X63064Y175111D01*
X62996Y175087D01*
X62926Y175071D01*
X62881Y175045D01*
X62833Y175027D01*
X62777Y174982D01*
X62715Y174945D01*
X62681Y174906D01*
X62641Y174873D01*
X62602Y174813D01*
X62555Y174758D01*
X62536Y174710D01*
X62508Y174666D01*
X62490Y174597D01*
X62463Y174530D01*
X62455Y174459D01*
X62447Y174428D01*
X62449Y174404D01*
X62445Y174363D01*
X62445Y118822D01*
X62459Y118732D01*
X62467Y118641D01*
X62479Y118612D01*
X62484Y118580D01*
X62527Y118499D01*
X62563Y118415D01*
X62589Y118383D01*
X62600Y118362D01*
X62623Y118340D01*
X62668Y118284D01*
X113204Y67748D01*
X113278Y67695D01*
X113348Y67635D01*
X113378Y67623D01*
X113404Y67604D01*
X113491Y67577D01*
X113576Y67543D01*
X113617Y67539D01*
X113639Y67532D01*
X113671Y67533D01*
X113742Y67525D01*
X205428Y67525D01*
X205518Y67539D01*
X205609Y67547D01*
X205638Y67559D01*
X205670Y67564D01*
X205751Y67607D01*
X205835Y67643D01*
X205867Y67669D01*
X205888Y67680D01*
X205910Y67703D01*
X205966Y67748D01*
X235982Y97764D01*
X236035Y97838D01*
X236095Y97908D01*
X236107Y97938D01*
X236126Y97964D01*
X236153Y98051D01*
X236187Y98136D01*
X236191Y98177D01*
X236198Y98199D01*
X236197Y98231D01*
X236205Y98302D01*
X236205Y99838D01*
X236187Y99953D01*
X236169Y100069D01*
X236167Y100075D01*
X236166Y100081D01*
X236111Y100183D01*
X236058Y100288D01*
X236053Y100293D01*
X236050Y100298D01*
X235966Y100378D01*
X235882Y100460D01*
X235876Y100464D01*
X235872Y100468D01*
X235855Y100475D01*
X235735Y100541D01*
X235378Y100689D01*
X232969Y103098D01*
X231665Y106246D01*
X231665Y109654D01*
X232969Y112802D01*
X235378Y115211D01*
X238526Y116515D01*
X241934Y116515D01*
X245082Y115211D01*
X247491Y112802D01*
X248795Y109654D01*
X248795Y106246D01*
X247491Y103098D01*
X245082Y100689D01*
X244725Y100541D01*
X244626Y100480D01*
X244525Y100420D01*
X244521Y100415D01*
X244516Y100412D01*
X244442Y100322D01*
X244365Y100233D01*
X244363Y100227D01*
X244359Y100222D01*
X244317Y100114D01*
X244273Y100005D01*
X244272Y99997D01*
X244271Y99993D01*
X244270Y99974D01*
X244255Y99838D01*
X244255Y98302D01*
X244269Y98212D01*
X244277Y98121D01*
X244289Y98092D01*
X244294Y98060D01*
X244337Y97979D01*
X244373Y97895D01*
X244399Y97863D01*
X244410Y97842D01*
X244433Y97820D01*
X244478Y97764D01*
X246554Y95688D01*
X246628Y95635D01*
X246698Y95575D01*
X246728Y95563D01*
X246754Y95544D01*
X246841Y95517D01*
X246926Y95483D01*
X246967Y95479D01*
X246989Y95472D01*
X247021Y95473D01*
X247092Y95465D01*
X504571Y95465D01*
X504642Y95476D01*
X504714Y95478D01*
X504763Y95496D01*
X504814Y95504D01*
X504877Y95538D01*
X504945Y95563D01*
X504985Y95595D01*
X505031Y95620D01*
X505081Y95672D01*
X505137Y95716D01*
X505165Y95760D01*
X505201Y95798D01*
X505231Y95863D01*
X505270Y95923D01*
X505282Y95974D01*
X505304Y96021D01*
X505312Y96092D01*
X505330Y96162D01*
X505326Y96214D01*
X505331Y96265D01*
X505316Y96336D01*
X505311Y96407D01*
X505290Y96455D01*
X505279Y96506D01*
X505242Y96567D01*
X505214Y96633D01*
X505169Y96689D01*
X505153Y96717D01*
X505135Y96732D01*
X505109Y96764D01*
X504245Y97628D01*
X504245Y100764D01*
X504243Y100778D01*
X504244Y100789D01*
X504243Y100794D01*
X504244Y100803D01*
X504222Y100905D01*
X504206Y101007D01*
X504196Y101024D01*
X504192Y101044D01*
X504139Y101133D01*
X504090Y101224D01*
X504076Y101238D01*
X504066Y101255D01*
X503987Y101322D01*
X503912Y101394D01*
X503894Y101402D01*
X503879Y101415D01*
X503783Y101454D01*
X503689Y101497D01*
X503669Y101499D01*
X503651Y101507D01*
X503484Y101525D01*
X314921Y101525D01*
X224555Y191891D01*
X224555Y284285D01*
X224541Y284375D01*
X224533Y284466D01*
X224521Y284496D01*
X224516Y284528D01*
X224473Y284609D01*
X224437Y284693D01*
X224411Y284725D01*
X224400Y284745D01*
X224377Y284768D01*
X224332Y284824D01*
X181954Y327202D01*
X181880Y327255D01*
X181810Y327315D01*
X181780Y327327D01*
X181754Y327346D01*
X181667Y327373D01*
X181582Y327407D01*
X181541Y327411D01*
X181519Y327418D01*
X181487Y327417D01*
X181415Y327425D01*
X180756Y327425D01*
X180642Y327407D01*
X180525Y327389D01*
X180520Y327387D01*
X180513Y327386D01*
X180410Y327331D01*
X180306Y327278D01*
X180302Y327273D01*
X180296Y327270D01*
X180215Y327185D01*
X180134Y327102D01*
X180130Y327096D01*
X180127Y327092D01*
X180119Y327075D01*
X180053Y326955D01*
X179739Y326198D01*
X177752Y324211D01*
X175155Y323135D01*
X172345Y323135D01*
X169748Y324211D01*
X167761Y326198D01*
X166685Y328795D01*
X166685Y331605D01*
X167761Y334202D01*
X169748Y336189D01*
X172345Y337265D01*
X175155Y337265D01*
X177752Y336189D01*
X179739Y334202D01*
X180053Y333445D01*
X180114Y333345D01*
X180174Y333245D01*
X180179Y333241D01*
X180182Y333236D01*
X180272Y333161D01*
X180361Y333085D01*
X180367Y333083D01*
X180372Y333079D01*
X180481Y333037D01*
X180589Y332993D01*
X180597Y332992D01*
X180601Y332991D01*
X180620Y332990D01*
X180756Y332975D01*
X184029Y332975D01*
X230105Y286899D01*
X230105Y194505D01*
X230119Y194415D01*
X230127Y194324D01*
X230139Y194294D01*
X230144Y194262D01*
X230187Y194181D01*
X230223Y194097D01*
X230249Y194065D01*
X230260Y194045D01*
X230283Y194022D01*
X230328Y193966D01*
X316996Y107298D01*
X317070Y107245D01*
X317140Y107185D01*
X317170Y107173D01*
X317196Y107154D01*
X317283Y107127D01*
X317368Y107093D01*
X317409Y107089D01*
X317431Y107082D01*
X317463Y107083D01*
X317535Y107075D01*
X503484Y107075D01*
X503504Y107078D01*
X503523Y107076D01*
X503625Y107098D01*
X503727Y107114D01*
X503744Y107124D01*
X503764Y107128D01*
X503853Y107181D01*
X503944Y107230D01*
X503958Y107244D01*
X503975Y107254D01*
X504042Y107333D01*
X504114Y107408D01*
X504122Y107426D01*
X504135Y107441D01*
X504174Y107537D01*
X504217Y107631D01*
X504219Y107651D01*
X504227Y107669D01*
X504245Y107836D01*
X504245Y110972D01*
X505138Y111865D01*
X518482Y111865D01*
X519375Y110972D01*
X519375Y97644D01*
X519386Y97574D01*
X519388Y97502D01*
X519406Y97453D01*
X519414Y97402D01*
X519448Y97338D01*
X519473Y97271D01*
X519505Y97230D01*
X519530Y97184D01*
X519582Y97135D01*
X519626Y97079D01*
X519670Y97051D01*
X519708Y97015D01*
X519773Y96985D01*
X519833Y96946D01*
X519884Y96933D01*
X519931Y96911D01*
X520002Y96903D01*
X520072Y96886D01*
X520124Y96890D01*
X520175Y96884D01*
X520246Y96899D01*
X520317Y96905D01*
X520365Y96925D01*
X520416Y96936D01*
X520477Y96973D01*
X520543Y97001D01*
X520599Y97046D01*
X520627Y97063D01*
X520642Y97080D01*
X520674Y97106D01*
X522802Y99234D01*
X522855Y99308D01*
X522915Y99378D01*
X522927Y99408D01*
X522946Y99434D01*
X522973Y99521D01*
X523007Y99606D01*
X523011Y99647D01*
X523018Y99669D01*
X523017Y99701D01*
X523025Y99772D01*
X523025Y284168D01*
X523011Y284258D01*
X523003Y284349D01*
X522991Y284378D01*
X522986Y284410D01*
X522943Y284491D01*
X522907Y284575D01*
X522881Y284607D01*
X522870Y284628D01*
X522847Y284650D01*
X522802Y284706D01*
X494056Y313452D01*
X493982Y313505D01*
X493912Y313565D01*
X493882Y313577D01*
X493856Y313596D01*
X493769Y313623D01*
X493684Y313657D01*
X493643Y313661D01*
X493621Y313668D01*
X493589Y313667D01*
X493518Y313675D01*
X490712Y313675D01*
X490597Y313657D01*
X490481Y313639D01*
X490475Y313637D01*
X490469Y313636D01*
X490367Y313581D01*
X490262Y313528D01*
X490257Y313523D01*
X490252Y313520D01*
X490172Y313436D01*
X490090Y313352D01*
X490086Y313346D01*
X490082Y313342D01*
X490075Y313325D01*
X490009Y313205D01*
X489861Y312848D01*
X487452Y310439D01*
X484304Y309135D01*
X480896Y309135D01*
X477748Y310439D01*
X475339Y312848D01*
X475191Y313205D01*
X475130Y313304D01*
X475070Y313405D01*
X475065Y313409D01*
X475062Y313414D01*
X474972Y313488D01*
X474883Y313565D01*
X474877Y313567D01*
X474872Y313571D01*
X474765Y313612D01*
X474655Y313657D01*
X474647Y313658D01*
X474643Y313659D01*
X474624Y313660D01*
X474488Y313675D01*
X473352Y313675D01*
X473262Y313661D01*
X473171Y313653D01*
X473142Y313641D01*
X473110Y313636D01*
X473029Y313593D01*
X472945Y313557D01*
X472913Y313531D01*
X472892Y313520D01*
X472870Y313497D01*
X472814Y313452D01*
X434737Y275375D01*
X430032Y275375D01*
X429942Y275361D01*
X429851Y275353D01*
X429821Y275341D01*
X429789Y275336D01*
X429708Y275293D01*
X429624Y275257D01*
X429592Y275231D01*
X429572Y275220D01*
X429549Y275197D01*
X429493Y275152D01*
X427752Y273411D01*
X425155Y272335D01*
X422345Y272335D01*
X419748Y273411D01*
X417761Y275398D01*
X416685Y277995D01*
X416685Y280805D01*
X417761Y283402D01*
X419748Y285389D01*
X422345Y286465D01*
X425155Y286465D01*
X427752Y285389D01*
X429493Y283648D01*
X429567Y283595D01*
X429637Y283535D01*
X429667Y283523D01*
X429693Y283504D01*
X429780Y283477D01*
X429865Y283443D01*
X429906Y283439D01*
X429928Y283432D01*
X429960Y283433D01*
X430032Y283425D01*
X431088Y283425D01*
X431178Y283439D01*
X431269Y283447D01*
X431298Y283459D01*
X431330Y283464D01*
X431411Y283507D01*
X431495Y283543D01*
X431527Y283569D01*
X431548Y283580D01*
X431570Y283603D01*
X431572Y283604D01*
X431575Y283607D01*
X431626Y283648D01*
X469703Y321725D01*
X474488Y321725D01*
X474603Y321743D01*
X474719Y321761D01*
X474725Y321763D01*
X474731Y321764D01*
X474833Y321819D01*
X474938Y321872D01*
X474943Y321877D01*
X474948Y321880D01*
X475028Y321964D01*
X475110Y322048D01*
X475114Y322054D01*
X475118Y322058D01*
X475125Y322075D01*
X475191Y322195D01*
X475339Y322552D01*
X477748Y324961D01*
X480896Y326265D01*
X484304Y326265D01*
X487452Y324961D01*
X489861Y322552D01*
X490009Y322195D01*
X490070Y322096D01*
X490130Y321995D01*
X490135Y321991D01*
X490138Y321986D01*
X490228Y321912D01*
X490317Y321835D01*
X490323Y321833D01*
X490328Y321829D01*
X490436Y321787D01*
X490545Y321743D01*
X490553Y321742D01*
X490557Y321741D01*
X490576Y321740D01*
X490712Y321725D01*
X493518Y321725D01*
X493608Y321739D01*
X493699Y321747D01*
X493728Y321759D01*
X493760Y321764D01*
X493841Y321807D01*
X493925Y321843D01*
X493957Y321869D01*
X493978Y321880D01*
X494000Y321903D01*
X494056Y321948D01*
X496132Y324024D01*
X496175Y324084D01*
X496218Y324129D01*
X496226Y324145D01*
X496245Y324168D01*
X496257Y324198D01*
X496276Y324224D01*
X496303Y324311D01*
X496322Y324352D01*
X496323Y324361D01*
X496337Y324396D01*
X496341Y324437D01*
X496348Y324459D01*
X496347Y324491D01*
X496355Y324562D01*
X496355Y462838D01*
X496341Y462928D01*
X496333Y463019D01*
X496321Y463048D01*
X496316Y463080D01*
X496273Y463161D01*
X496237Y463245D01*
X496211Y463277D01*
X496200Y463298D01*
X496177Y463320D01*
X496132Y463376D01*
X493856Y465652D01*
X493782Y465705D01*
X493712Y465765D01*
X493682Y465777D01*
X493656Y465796D01*
X493569Y465823D01*
X493484Y465857D01*
X493443Y465861D01*
X493421Y465868D01*
X493389Y465867D01*
X493318Y465875D01*
X490629Y465875D01*
X490514Y465856D01*
X490398Y465839D01*
X490393Y465837D01*
X490386Y465836D01*
X490284Y465781D01*
X490179Y465728D01*
X490175Y465723D01*
X490169Y465720D01*
X490089Y465636D01*
X490007Y465552D01*
X490003Y465546D01*
X490000Y465542D01*
X489992Y465525D01*
X489926Y465405D01*
X489861Y465248D01*
X487452Y462839D01*
X484304Y461535D01*
X480896Y461535D01*
X477748Y462839D01*
X475339Y465248D01*
X474035Y468396D01*
X474035Y471804D01*
X475339Y474952D01*
X477748Y477361D01*
X480896Y478665D01*
X484304Y478665D01*
X487452Y477361D01*
X489861Y474952D01*
X490091Y474395D01*
X490153Y474295D01*
X490213Y474195D01*
X490218Y474191D01*
X490221Y474186D01*
X490311Y474111D01*
X490400Y474035D01*
X490406Y474033D01*
X490411Y474029D01*
X490519Y473987D01*
X490628Y473943D01*
X490636Y473942D01*
X490640Y473941D01*
X490658Y473940D01*
X490795Y473925D01*
X493318Y473925D01*
X493408Y473939D01*
X493499Y473947D01*
X493528Y473959D01*
X493560Y473964D01*
X493641Y474007D01*
X493725Y474043D01*
X493757Y474069D01*
X493778Y474080D01*
X493800Y474103D01*
X493856Y474148D01*
X496132Y476424D01*
X496185Y476498D01*
X496245Y476568D01*
X496257Y476598D01*
X496276Y476624D01*
X496303Y476711D01*
X496337Y476796D01*
X496341Y476837D01*
X496348Y476859D01*
X496347Y476891D01*
X496355Y476962D01*
X496355Y616508D01*
X496341Y616598D01*
X496333Y616689D01*
X496321Y616718D01*
X496316Y616750D01*
X496273Y616831D01*
X496237Y616915D01*
X496211Y616947D01*
X496200Y616968D01*
X496177Y616990D01*
X496132Y617046D01*
X493856Y619322D01*
X493782Y619375D01*
X493712Y619435D01*
X493682Y619447D01*
X493656Y619466D01*
X493569Y619493D01*
X493484Y619527D01*
X493443Y619531D01*
X493421Y619538D01*
X493389Y619537D01*
X493318Y619545D01*
X491155Y619545D01*
X491040Y619526D01*
X490924Y619509D01*
X490919Y619507D01*
X490912Y619506D01*
X490810Y619451D01*
X490705Y619398D01*
X490701Y619393D01*
X490695Y619390D01*
X490615Y619306D01*
X490533Y619222D01*
X490529Y619216D01*
X490526Y619212D01*
X490518Y619195D01*
X490452Y619075D01*
X489861Y617648D01*
X487452Y615239D01*
X484304Y613935D01*
X480896Y613935D01*
X477748Y615239D01*
X475339Y617648D01*
X474035Y620796D01*
X474035Y624204D01*
X475339Y627352D01*
X477748Y629761D01*
X480896Y631065D01*
X484304Y631065D01*
X487452Y629761D01*
X489395Y627818D01*
X489469Y627765D01*
X489538Y627705D01*
X489568Y627693D01*
X489594Y627674D01*
X489681Y627647D01*
X489766Y627613D01*
X489807Y627609D01*
X489829Y627602D01*
X489862Y627603D01*
X489933Y627595D01*
X493318Y627595D01*
X493408Y627609D01*
X493499Y627617D01*
X493528Y627629D01*
X493560Y627634D01*
X493641Y627677D01*
X493725Y627713D01*
X493757Y627739D01*
X493778Y627750D01*
X493800Y627773D01*
X493856Y627818D01*
X496132Y630094D01*
X496185Y630168D01*
X496245Y630238D01*
X496257Y630268D01*
X496276Y630294D01*
X496303Y630381D01*
X496337Y630466D01*
X496341Y630507D01*
X496348Y630529D01*
X496347Y630561D01*
X496355Y630632D01*
X496355Y866698D01*
X496341Y866788D01*
X496333Y866879D01*
X496321Y866908D01*
X496316Y866940D01*
X496273Y867021D01*
X496237Y867105D01*
X496211Y867137D01*
X496200Y867158D01*
X496177Y867180D01*
X496132Y867236D01*
X435436Y927932D01*
X435362Y927985D01*
X435292Y928045D01*
X435262Y928057D01*
X435236Y928076D01*
X435149Y928103D01*
X435064Y928137D01*
X435023Y928141D01*
X435001Y928148D01*
X434969Y928147D01*
X434898Y928155D01*
X432413Y928155D01*
X432298Y928136D01*
X432182Y928119D01*
X432176Y928117D01*
X432170Y928116D01*
X432067Y928061D01*
X431963Y928008D01*
X431958Y928003D01*
X431953Y928000D01*
X431873Y927916D01*
X431790Y927832D01*
X431787Y927826D01*
X431783Y927822D01*
X431776Y927805D01*
X431710Y927685D01*
X431260Y926601D01*
X428489Y923830D01*
X424869Y922330D01*
X420951Y922330D01*
X417331Y923830D01*
X414560Y926601D01*
X413060Y930221D01*
X413060Y934139D01*
X414560Y937759D01*
X417331Y940530D01*
X420951Y942030D01*
X424869Y942030D01*
X428489Y940530D01*
X431260Y937759D01*
X431710Y936675D01*
X431771Y936575D01*
X431831Y936475D01*
X431836Y936471D01*
X431839Y936466D01*
X431929Y936391D01*
X432018Y936315D01*
X432024Y936313D01*
X432029Y936309D01*
X432137Y936267D01*
X432246Y936223D01*
X432254Y936222D01*
X432258Y936221D01*
X432277Y936220D01*
X432413Y936205D01*
X438547Y936205D01*
X504405Y870347D01*
X504405Y626983D01*
X501530Y624108D01*
X501518Y624092D01*
X501503Y624080D01*
X501447Y623992D01*
X501387Y623909D01*
X501381Y623890D01*
X501370Y623873D01*
X501345Y623772D01*
X501314Y623673D01*
X501315Y623654D01*
X501310Y623634D01*
X501318Y623531D01*
X501321Y623428D01*
X501327Y623409D01*
X501329Y623389D01*
X501369Y623294D01*
X501405Y623197D01*
X501418Y623181D01*
X501425Y623163D01*
X501530Y623032D01*
X504405Y620157D01*
X504405Y473313D01*
X501824Y470732D01*
X501530Y470438D01*
X501519Y470422D01*
X501503Y470410D01*
X501447Y470323D01*
X501387Y470239D01*
X501381Y470220D01*
X501370Y470203D01*
X501345Y470102D01*
X501314Y470004D01*
X501315Y469984D01*
X501310Y469964D01*
X501318Y469861D01*
X501321Y469758D01*
X501327Y469739D01*
X501329Y469719D01*
X501369Y469624D01*
X501405Y469527D01*
X501418Y469511D01*
X501425Y469493D01*
X501530Y469362D01*
X504405Y466487D01*
X504405Y320913D01*
X501730Y318238D01*
X501718Y318222D01*
X501703Y318210D01*
X501674Y318165D01*
X501645Y318134D01*
X501626Y318093D01*
X501587Y318039D01*
X501581Y318020D01*
X501570Y318003D01*
X501554Y317938D01*
X501541Y317911D01*
X501537Y317879D01*
X501514Y317803D01*
X501515Y317784D01*
X501510Y317764D01*
X501516Y317685D01*
X501514Y317666D01*
X501518Y317646D01*
X501521Y317558D01*
X501527Y317539D01*
X501529Y317519D01*
X501564Y317438D01*
X501566Y317426D01*
X501573Y317415D01*
X501605Y317327D01*
X501618Y317311D01*
X501625Y317293D01*
X501730Y317162D01*
X531075Y287817D01*
X531075Y96123D01*
X522367Y87415D01*
X243443Y87415D01*
X240768Y90090D01*
X240752Y90102D01*
X240740Y90117D01*
X240652Y90173D01*
X240569Y90233D01*
X240550Y90239D01*
X240533Y90250D01*
X240432Y90275D01*
X240333Y90306D01*
X240314Y90305D01*
X240294Y90310D01*
X240191Y90302D01*
X240088Y90299D01*
X240069Y90293D01*
X240049Y90291D01*
X239954Y90251D01*
X239857Y90215D01*
X239841Y90202D01*
X239823Y90195D01*
X239692Y90090D01*
X209077Y59475D01*
X110093Y59475D01*
G37*
%LPD*%
%LPC*%
G36*
X480896Y334135D02*
X480896Y334135D01*
X477748Y335439D01*
X475339Y337848D01*
X474674Y339455D01*
X474612Y339555D01*
X474552Y339655D01*
X474547Y339659D01*
X474544Y339664D01*
X474454Y339739D01*
X474365Y339815D01*
X474359Y339817D01*
X474354Y339821D01*
X474246Y339863D01*
X474137Y339907D01*
X474129Y339908D01*
X474125Y339909D01*
X474107Y339910D01*
X473970Y339925D01*
X471491Y339925D01*
X453155Y358261D01*
X453155Y681795D01*
X453141Y681885D01*
X453133Y681976D01*
X453121Y682006D01*
X453116Y682038D01*
X453073Y682119D01*
X453037Y682203D01*
X453011Y682235D01*
X453000Y682255D01*
X452977Y682278D01*
X452932Y682334D01*
X394735Y740531D01*
X394735Y744359D01*
X394716Y744474D01*
X394699Y744590D01*
X394697Y744596D01*
X394696Y744602D01*
X394641Y744705D01*
X394588Y744810D01*
X394583Y744814D01*
X394580Y744820D01*
X394496Y744899D01*
X394412Y744982D01*
X394406Y744985D01*
X394402Y744989D01*
X394385Y744997D01*
X394265Y745063D01*
X391931Y746030D01*
X389160Y748801D01*
X389049Y749067D01*
X388998Y749150D01*
X388952Y749236D01*
X388933Y749254D01*
X388920Y749276D01*
X388845Y749339D01*
X388774Y749406D01*
X388750Y749417D01*
X388730Y749433D01*
X388639Y749468D01*
X388551Y749509D01*
X388525Y749512D01*
X388501Y749522D01*
X388403Y749526D01*
X388307Y749536D01*
X388281Y749531D01*
X388255Y749532D01*
X388161Y749505D01*
X388066Y749484D01*
X388044Y749471D01*
X388019Y749463D01*
X387939Y749408D01*
X387855Y749358D01*
X387838Y749338D01*
X387817Y749323D01*
X387758Y749245D01*
X387695Y749171D01*
X387685Y749147D01*
X387670Y749126D01*
X387640Y749033D01*
X387603Y748943D01*
X387600Y748910D01*
X387594Y748892D01*
X387594Y748859D01*
X387585Y748776D01*
X387585Y628845D01*
X387599Y628755D01*
X387607Y628664D01*
X387619Y628634D01*
X387624Y628602D01*
X387667Y628521D01*
X387703Y628437D01*
X387729Y628405D01*
X387740Y628385D01*
X387763Y628362D01*
X387808Y628306D01*
X403516Y612598D01*
X403590Y612545D01*
X403660Y612485D01*
X403690Y612473D01*
X403716Y612454D01*
X403803Y612427D01*
X403888Y612393D01*
X403929Y612389D01*
X403951Y612382D01*
X403983Y612383D01*
X404055Y612375D01*
X416744Y612375D01*
X416858Y612393D01*
X416975Y612411D01*
X416980Y612413D01*
X416987Y612414D01*
X417090Y612469D01*
X417194Y612522D01*
X417198Y612527D01*
X417204Y612530D01*
X417285Y612615D01*
X417366Y612698D01*
X417370Y612704D01*
X417373Y612708D01*
X417381Y612725D01*
X417447Y612845D01*
X417761Y613602D01*
X419748Y615589D01*
X422345Y616665D01*
X425155Y616665D01*
X427752Y615589D01*
X429739Y613602D01*
X430815Y611005D01*
X430815Y608195D01*
X429739Y605598D01*
X427752Y603611D01*
X425155Y602535D01*
X422345Y602535D01*
X419748Y603611D01*
X417761Y605598D01*
X417447Y606355D01*
X417386Y606455D01*
X417326Y606555D01*
X417321Y606559D01*
X417318Y606564D01*
X417228Y606638D01*
X417139Y606715D01*
X417133Y606717D01*
X417128Y606721D01*
X417019Y606763D01*
X416911Y606807D01*
X416903Y606808D01*
X416899Y606809D01*
X416880Y606810D01*
X416744Y606825D01*
X401441Y606825D01*
X382035Y626231D01*
X382035Y748776D01*
X382020Y748872D01*
X382010Y748969D01*
X382000Y748993D01*
X381996Y749019D01*
X381950Y749105D01*
X381910Y749194D01*
X381893Y749213D01*
X381880Y749236D01*
X381810Y749303D01*
X381744Y749375D01*
X381721Y749388D01*
X381702Y749406D01*
X381614Y749447D01*
X381528Y749494D01*
X381503Y749498D01*
X381479Y749509D01*
X381382Y749520D01*
X381286Y749537D01*
X381260Y749533D01*
X381235Y749536D01*
X381140Y749516D01*
X381043Y749502D01*
X381020Y749490D01*
X380994Y749484D01*
X380911Y749434D01*
X380824Y749390D01*
X380805Y749371D01*
X380783Y749358D01*
X380720Y749284D01*
X380652Y749214D01*
X380636Y749186D01*
X380623Y749171D01*
X380611Y749140D01*
X380571Y749067D01*
X380460Y748801D01*
X377689Y746030D01*
X374069Y744530D01*
X370151Y744530D01*
X366531Y746030D01*
X363760Y748801D01*
X362260Y752421D01*
X362260Y756339D01*
X363760Y759959D01*
X366531Y762730D01*
X370151Y764230D01*
X374069Y764230D01*
X377689Y762730D01*
X380460Y759959D01*
X380571Y759693D01*
X380622Y759610D01*
X380668Y759524D01*
X380686Y759507D01*
X380689Y759501D01*
X380690Y759500D01*
X380700Y759484D01*
X380775Y759421D01*
X380846Y759354D01*
X380870Y759343D01*
X380890Y759327D01*
X380981Y759292D01*
X381069Y759251D01*
X381095Y759248D01*
X381119Y759238D01*
X381217Y759234D01*
X381313Y759224D01*
X381339Y759229D01*
X381365Y759228D01*
X381459Y759255D01*
X381554Y759276D01*
X381576Y759289D01*
X381601Y759297D01*
X381681Y759352D01*
X381765Y759402D01*
X381782Y759422D01*
X381803Y759437D01*
X381862Y759515D01*
X381903Y759563D01*
X381904Y759564D01*
X381925Y759589D01*
X381935Y759613D01*
X381950Y759634D01*
X381980Y759727D01*
X381988Y759746D01*
X382007Y759787D01*
X382008Y759796D01*
X382017Y759817D01*
X382020Y759850D01*
X382026Y759868D01*
X382026Y759901D01*
X382035Y759984D01*
X382035Y926576D01*
X382020Y926672D01*
X382010Y926769D01*
X382000Y926793D01*
X381996Y926819D01*
X381950Y926905D01*
X381910Y926994D01*
X381893Y927013D01*
X381880Y927036D01*
X381810Y927103D01*
X381744Y927175D01*
X381721Y927188D01*
X381702Y927206D01*
X381614Y927247D01*
X381528Y927294D01*
X381503Y927298D01*
X381479Y927309D01*
X381382Y927320D01*
X381286Y927337D01*
X381260Y927333D01*
X381235Y927336D01*
X381140Y927316D01*
X381043Y927302D01*
X381020Y927290D01*
X380994Y927284D01*
X380911Y927234D01*
X380824Y927190D01*
X380805Y927171D01*
X380783Y927158D01*
X380720Y927084D01*
X380652Y927014D01*
X380636Y926986D01*
X380623Y926971D01*
X380611Y926940D01*
X380571Y926867D01*
X380460Y926601D01*
X377689Y923830D01*
X375355Y922863D01*
X375255Y922801D01*
X375155Y922741D01*
X375151Y922736D01*
X375146Y922733D01*
X375071Y922643D01*
X374995Y922554D01*
X374993Y922548D01*
X374989Y922544D01*
X374947Y922436D01*
X374903Y922326D01*
X374902Y922319D01*
X374901Y922314D01*
X374900Y922296D01*
X374885Y922159D01*
X374885Y914521D01*
X373037Y912672D01*
X373036Y912672D01*
X286208Y825844D01*
X286155Y825770D01*
X286095Y825700D01*
X286083Y825670D01*
X286064Y825644D01*
X286037Y825557D01*
X286003Y825472D01*
X285999Y825431D01*
X285992Y825409D01*
X285993Y825377D01*
X285985Y825305D01*
X285985Y759984D01*
X285987Y759967D01*
X285986Y759953D01*
X286001Y759883D01*
X286010Y759791D01*
X286020Y759767D01*
X286024Y759741D01*
X286037Y759718D01*
X286038Y759712D01*
X286054Y759686D01*
X286070Y759655D01*
X286110Y759566D01*
X286127Y759547D01*
X286140Y759524D01*
X286210Y759457D01*
X286276Y759385D01*
X286299Y759372D01*
X286318Y759354D01*
X286406Y759313D01*
X286492Y759266D01*
X286517Y759262D01*
X286541Y759251D01*
X286638Y759240D01*
X286734Y759223D01*
X286760Y759227D01*
X286785Y759224D01*
X286880Y759244D01*
X286977Y759258D01*
X287000Y759270D01*
X287026Y759276D01*
X287109Y759326D01*
X287196Y759370D01*
X287215Y759389D01*
X287237Y759402D01*
X287300Y759476D01*
X287368Y759546D01*
X287378Y759563D01*
X287379Y759564D01*
X287381Y759568D01*
X287384Y759574D01*
X287397Y759589D01*
X287409Y759620D01*
X287449Y759693D01*
X287560Y759959D01*
X290331Y762730D01*
X293951Y764230D01*
X297869Y764230D01*
X301489Y762730D01*
X304260Y759959D01*
X305760Y756339D01*
X305760Y752421D01*
X304260Y748801D01*
X301489Y746030D01*
X297869Y744530D01*
X293951Y744530D01*
X290331Y746030D01*
X287560Y748801D01*
X287449Y749067D01*
X287398Y749150D01*
X287352Y749236D01*
X287333Y749254D01*
X287320Y749276D01*
X287245Y749339D01*
X287174Y749406D01*
X287150Y749417D01*
X287130Y749433D01*
X287039Y749468D01*
X286951Y749509D01*
X286925Y749512D01*
X286901Y749522D01*
X286803Y749526D01*
X286707Y749536D01*
X286681Y749531D01*
X286655Y749532D01*
X286561Y749505D01*
X286466Y749484D01*
X286444Y749471D01*
X286419Y749463D01*
X286339Y749408D01*
X286255Y749358D01*
X286238Y749338D01*
X286217Y749323D01*
X286158Y749245D01*
X286095Y749171D01*
X286085Y749147D01*
X286070Y749126D01*
X286040Y749033D01*
X286003Y748943D01*
X286000Y748910D01*
X285994Y748892D01*
X285994Y748859D01*
X285985Y748776D01*
X285985Y627575D01*
X285999Y627485D01*
X286007Y627394D01*
X286019Y627364D01*
X286024Y627332D01*
X286067Y627251D01*
X286103Y627167D01*
X286129Y627135D01*
X286140Y627115D01*
X286163Y627092D01*
X286208Y627036D01*
X376846Y536398D01*
X376920Y536345D01*
X376990Y536285D01*
X377020Y536273D01*
X377046Y536254D01*
X377133Y536227D01*
X377218Y536193D01*
X377259Y536189D01*
X377281Y536182D01*
X377313Y536183D01*
X377385Y536175D01*
X416744Y536175D01*
X416858Y536193D01*
X416975Y536211D01*
X416980Y536213D01*
X416987Y536214D01*
X417090Y536269D01*
X417194Y536322D01*
X417198Y536327D01*
X417204Y536330D01*
X417285Y536415D01*
X417366Y536498D01*
X417370Y536504D01*
X417373Y536508D01*
X417381Y536525D01*
X417447Y536645D01*
X417761Y537402D01*
X419748Y539389D01*
X422345Y540465D01*
X425155Y540465D01*
X427752Y539389D01*
X429739Y537402D01*
X430815Y534805D01*
X430815Y531995D01*
X429739Y529398D01*
X427752Y527411D01*
X425155Y526335D01*
X422345Y526335D01*
X419748Y527411D01*
X417761Y529398D01*
X417447Y530155D01*
X417386Y530255D01*
X417326Y530355D01*
X417321Y530359D01*
X417318Y530364D01*
X417228Y530439D01*
X417139Y530515D01*
X417133Y530517D01*
X417128Y530521D01*
X417019Y530563D01*
X416911Y530607D01*
X416903Y530608D01*
X416899Y530609D01*
X416880Y530610D01*
X416744Y530625D01*
X374771Y530625D01*
X372922Y532473D01*
X372922Y532474D01*
X280435Y624961D01*
X280435Y748776D01*
X280420Y748872D01*
X280410Y748969D01*
X280400Y748993D01*
X280396Y749019D01*
X280350Y749105D01*
X280310Y749194D01*
X280293Y749213D01*
X280280Y749236D01*
X280210Y749303D01*
X280144Y749375D01*
X280121Y749388D01*
X280102Y749406D01*
X280014Y749447D01*
X279928Y749494D01*
X279903Y749498D01*
X279879Y749509D01*
X279782Y749520D01*
X279686Y749537D01*
X279660Y749533D01*
X279635Y749536D01*
X279540Y749516D01*
X279443Y749502D01*
X279420Y749490D01*
X279394Y749484D01*
X279311Y749434D01*
X279224Y749390D01*
X279205Y749371D01*
X279183Y749358D01*
X279120Y749284D01*
X279052Y749214D01*
X279036Y749186D01*
X279023Y749171D01*
X279011Y749140D01*
X278971Y749067D01*
X278860Y748801D01*
X276089Y746030D01*
X272469Y744530D01*
X268551Y744530D01*
X264931Y746030D01*
X262160Y748801D01*
X260660Y752421D01*
X260660Y756339D01*
X262160Y759959D01*
X264931Y762730D01*
X268551Y764230D01*
X272469Y764230D01*
X276089Y762730D01*
X278860Y759959D01*
X278971Y759693D01*
X279022Y759610D01*
X279068Y759524D01*
X279086Y759507D01*
X279089Y759501D01*
X279090Y759500D01*
X279100Y759484D01*
X279175Y759421D01*
X279246Y759354D01*
X279270Y759343D01*
X279290Y759327D01*
X279381Y759292D01*
X279469Y759251D01*
X279495Y759248D01*
X279519Y759238D01*
X279617Y759234D01*
X279713Y759224D01*
X279739Y759229D01*
X279765Y759228D01*
X279859Y759255D01*
X279954Y759276D01*
X279976Y759289D01*
X280001Y759297D01*
X280081Y759352D01*
X280165Y759402D01*
X280182Y759422D01*
X280203Y759437D01*
X280262Y759515D01*
X280303Y759563D01*
X280304Y759564D01*
X280325Y759589D01*
X280335Y759613D01*
X280350Y759634D01*
X280380Y759727D01*
X280388Y759746D01*
X280407Y759787D01*
X280408Y759796D01*
X280417Y759817D01*
X280420Y759850D01*
X280426Y759868D01*
X280426Y759901D01*
X280435Y759984D01*
X280435Y827919D01*
X282283Y829768D01*
X282284Y829768D01*
X369112Y916596D01*
X369165Y916670D01*
X369225Y916740D01*
X369237Y916770D01*
X369256Y916796D01*
X369283Y916883D01*
X369317Y916968D01*
X369321Y917009D01*
X369328Y917031D01*
X369327Y917063D01*
X369335Y917135D01*
X369335Y922159D01*
X369333Y922171D01*
X369334Y922178D01*
X369326Y922214D01*
X369316Y922274D01*
X369299Y922390D01*
X369297Y922396D01*
X369296Y922402D01*
X369241Y922505D01*
X369188Y922610D01*
X369183Y922614D01*
X369180Y922620D01*
X369096Y922699D01*
X369012Y922782D01*
X369006Y922785D01*
X369002Y922789D01*
X368985Y922797D01*
X368865Y922863D01*
X366531Y923830D01*
X363760Y926601D01*
X362260Y930221D01*
X362260Y934139D01*
X363760Y937759D01*
X366531Y940530D01*
X370151Y942030D01*
X374069Y942030D01*
X377689Y940530D01*
X380460Y937759D01*
X380571Y937493D01*
X380622Y937410D01*
X380668Y937324D01*
X380687Y937306D01*
X380700Y937284D01*
X380775Y937221D01*
X380846Y937154D01*
X380870Y937143D01*
X380890Y937127D01*
X380981Y937092D01*
X381069Y937051D01*
X381095Y937048D01*
X381119Y937038D01*
X381217Y937034D01*
X381313Y937024D01*
X381339Y937029D01*
X381365Y937028D01*
X381459Y937055D01*
X381554Y937076D01*
X381576Y937089D01*
X381601Y937097D01*
X381681Y937152D01*
X381765Y937202D01*
X381782Y937222D01*
X381803Y937237D01*
X381862Y937315D01*
X381925Y937389D01*
X381935Y937413D01*
X381950Y937434D01*
X381980Y937527D01*
X382017Y937617D01*
X382020Y937650D01*
X382026Y937668D01*
X382026Y937701D01*
X382035Y937784D01*
X382035Y940875D01*
X382021Y940965D01*
X382013Y941056D01*
X382001Y941086D01*
X381996Y941118D01*
X381953Y941199D01*
X381917Y941283D01*
X381891Y941315D01*
X381880Y941335D01*
X381857Y941358D01*
X381812Y941414D01*
X377534Y945692D01*
X377460Y945745D01*
X377390Y945805D01*
X377360Y945817D01*
X377334Y945836D01*
X377247Y945863D01*
X377162Y945897D01*
X377121Y945901D01*
X377099Y945908D01*
X377067Y945907D01*
X376995Y945915D01*
X351985Y945915D01*
X351895Y945901D01*
X351804Y945893D01*
X351774Y945881D01*
X351742Y945876D01*
X351661Y945833D01*
X351577Y945797D01*
X351545Y945771D01*
X351525Y945760D01*
X351502Y945737D01*
X351446Y945692D01*
X349708Y943954D01*
X349660Y943887D01*
X349654Y943881D01*
X349653Y943877D01*
X349595Y943810D01*
X349583Y943780D01*
X349564Y943754D01*
X349537Y943667D01*
X349503Y943582D01*
X349499Y943541D01*
X349492Y943519D01*
X349493Y943487D01*
X349485Y943415D01*
X349485Y942201D01*
X349504Y942086D01*
X349521Y941970D01*
X349523Y941964D01*
X349524Y941958D01*
X349579Y941855D01*
X349632Y941750D01*
X349637Y941746D01*
X349640Y941740D01*
X349724Y941660D01*
X349808Y941578D01*
X349814Y941575D01*
X349818Y941571D01*
X349835Y941563D01*
X349955Y941497D01*
X352289Y940530D01*
X355060Y937759D01*
X356560Y934139D01*
X356560Y930221D01*
X355060Y926601D01*
X352289Y923830D01*
X348669Y922330D01*
X344751Y922330D01*
X341131Y923830D01*
X338360Y926601D01*
X336860Y930221D01*
X336860Y934139D01*
X338360Y937759D01*
X341131Y940530D01*
X343465Y941497D01*
X343565Y941559D01*
X343665Y941619D01*
X343669Y941624D01*
X343674Y941627D01*
X343749Y941717D01*
X343825Y941806D01*
X343827Y941812D01*
X343831Y941816D01*
X343873Y941924D01*
X343917Y942034D01*
X343918Y942041D01*
X343919Y942046D01*
X343920Y942064D01*
X343935Y942201D01*
X343935Y946029D01*
X349371Y951465D01*
X379609Y951465D01*
X387585Y943489D01*
X387585Y939348D01*
X387586Y939340D01*
X387585Y939332D01*
X387606Y939218D01*
X387624Y939105D01*
X387628Y939098D01*
X387630Y939090D01*
X387686Y938990D01*
X387740Y938888D01*
X387745Y938882D01*
X387749Y938875D01*
X387834Y938798D01*
X387918Y938718D01*
X387925Y938715D01*
X387931Y938710D01*
X388037Y938663D01*
X388141Y938615D01*
X388149Y938614D01*
X388156Y938611D01*
X388271Y938600D01*
X388385Y938588D01*
X388393Y938589D01*
X388401Y938589D01*
X388513Y938615D01*
X388626Y938640D01*
X388633Y938644D01*
X388640Y938646D01*
X388739Y938707D01*
X388837Y938766D01*
X388842Y938772D01*
X388849Y938776D01*
X388962Y938900D01*
X389222Y939259D01*
X390431Y940468D01*
X391815Y941473D01*
X393339Y942250D01*
X394966Y942778D01*
X395987Y942940D01*
X395987Y932942D01*
X395990Y932922D01*
X395988Y932903D01*
X396010Y932801D01*
X396027Y932699D01*
X396036Y932682D01*
X396040Y932662D01*
X396093Y932573D01*
X396142Y932482D01*
X396156Y932468D01*
X396166Y932451D01*
X396245Y932384D01*
X396320Y932313D01*
X396338Y932304D01*
X396353Y932291D01*
X396449Y932253D01*
X396543Y932209D01*
X396563Y932207D01*
X396581Y932199D01*
X396748Y932181D01*
X397511Y932181D01*
X397511Y932179D01*
X396748Y932179D01*
X396728Y932176D01*
X396709Y932178D01*
X396607Y932156D01*
X396505Y932139D01*
X396488Y932130D01*
X396468Y932126D01*
X396379Y932073D01*
X396288Y932024D01*
X396274Y932010D01*
X396257Y932000D01*
X396190Y931921D01*
X396119Y931846D01*
X396110Y931828D01*
X396097Y931813D01*
X396058Y931717D01*
X396015Y931623D01*
X396013Y931603D01*
X396005Y931585D01*
X395987Y931418D01*
X395987Y921420D01*
X394966Y921582D01*
X393339Y922110D01*
X391815Y922887D01*
X390431Y923892D01*
X389222Y925101D01*
X388962Y925460D01*
X388956Y925465D01*
X388952Y925472D01*
X388869Y925551D01*
X388787Y925633D01*
X388780Y925636D01*
X388774Y925642D01*
X388670Y925690D01*
X388566Y925741D01*
X388558Y925742D01*
X388551Y925745D01*
X388437Y925758D01*
X388322Y925773D01*
X388314Y925772D01*
X388307Y925772D01*
X388194Y925748D01*
X388081Y925726D01*
X388074Y925722D01*
X388066Y925720D01*
X387967Y925661D01*
X387867Y925604D01*
X387862Y925598D01*
X387855Y925594D01*
X387780Y925506D01*
X387703Y925420D01*
X387700Y925413D01*
X387695Y925407D01*
X387652Y925300D01*
X387607Y925194D01*
X387606Y925186D01*
X387603Y925179D01*
X387585Y925012D01*
X387585Y759984D01*
X387587Y759967D01*
X387586Y759953D01*
X387601Y759883D01*
X387610Y759791D01*
X387620Y759767D01*
X387624Y759741D01*
X387637Y759718D01*
X387638Y759712D01*
X387654Y759686D01*
X387670Y759655D01*
X387710Y759566D01*
X387727Y759547D01*
X387740Y759524D01*
X387810Y759457D01*
X387876Y759385D01*
X387899Y759372D01*
X387918Y759354D01*
X388006Y759313D01*
X388092Y759266D01*
X388117Y759262D01*
X388141Y759251D01*
X388238Y759240D01*
X388334Y759223D01*
X388360Y759227D01*
X388385Y759224D01*
X388480Y759244D01*
X388577Y759258D01*
X388600Y759270D01*
X388626Y759276D01*
X388709Y759326D01*
X388796Y759370D01*
X388815Y759389D01*
X388837Y759402D01*
X388900Y759476D01*
X388968Y759546D01*
X388978Y759563D01*
X388979Y759564D01*
X388981Y759568D01*
X388984Y759574D01*
X388997Y759589D01*
X389009Y759620D01*
X389049Y759693D01*
X389160Y759959D01*
X391931Y762730D01*
X395551Y764230D01*
X399469Y764230D01*
X403089Y762730D01*
X405860Y759959D01*
X407360Y756339D01*
X407360Y752421D01*
X405860Y748801D01*
X403089Y746030D01*
X400755Y745063D01*
X400655Y745001D01*
X400555Y744941D01*
X400551Y744936D01*
X400546Y744933D01*
X400471Y744843D01*
X400395Y744754D01*
X400393Y744748D01*
X400389Y744744D01*
X400347Y744636D01*
X400303Y744526D01*
X400302Y744519D01*
X400301Y744514D01*
X400300Y744496D01*
X400285Y744359D01*
X400285Y743145D01*
X400299Y743055D01*
X400307Y742964D01*
X400319Y742934D01*
X400324Y742902D01*
X400367Y742821D01*
X400403Y742737D01*
X400429Y742705D01*
X400440Y742685D01*
X400463Y742662D01*
X400508Y742606D01*
X418836Y724278D01*
X418894Y724237D01*
X418946Y724187D01*
X418993Y724165D01*
X419035Y724135D01*
X419104Y724114D01*
X419169Y724083D01*
X419221Y724078D01*
X419271Y724062D01*
X419342Y724064D01*
X419413Y724056D01*
X419464Y724067D01*
X419516Y724069D01*
X419584Y724093D01*
X419654Y724109D01*
X419699Y724135D01*
X419747Y724153D01*
X419803Y724198D01*
X419865Y724235D01*
X419899Y724274D01*
X419939Y724307D01*
X419978Y724367D01*
X420025Y724422D01*
X420044Y724470D01*
X420072Y724514D01*
X420090Y724583D01*
X420117Y724650D01*
X420125Y724721D01*
X420133Y724752D01*
X420131Y724776D01*
X420135Y724817D01*
X420135Y744359D01*
X420116Y744474D01*
X420099Y744590D01*
X420097Y744596D01*
X420096Y744602D01*
X420041Y744705D01*
X419988Y744810D01*
X419983Y744814D01*
X419980Y744820D01*
X419896Y744899D01*
X419812Y744982D01*
X419806Y744985D01*
X419802Y744989D01*
X419785Y744997D01*
X419665Y745063D01*
X417331Y746030D01*
X414560Y748801D01*
X413060Y752421D01*
X413060Y756339D01*
X414560Y759959D01*
X417331Y762730D01*
X420951Y764230D01*
X424869Y764230D01*
X428489Y762730D01*
X431260Y759959D01*
X432760Y756339D01*
X432760Y752421D01*
X431260Y748801D01*
X428489Y746030D01*
X426155Y745063D01*
X426055Y745001D01*
X425955Y744941D01*
X425951Y744936D01*
X425946Y744933D01*
X425871Y744843D01*
X425795Y744754D01*
X425793Y744748D01*
X425789Y744744D01*
X425747Y744636D01*
X425703Y744526D01*
X425702Y744519D01*
X425701Y744514D01*
X425700Y744496D01*
X425685Y744359D01*
X425685Y724095D01*
X425699Y724005D01*
X425707Y723914D01*
X425719Y723884D01*
X425724Y723852D01*
X425767Y723771D01*
X425803Y723687D01*
X425829Y723655D01*
X425840Y723635D01*
X425863Y723612D01*
X425908Y723556D01*
X461936Y687528D01*
X463785Y685679D01*
X463785Y376115D01*
X463799Y376025D01*
X463807Y375934D01*
X463819Y375904D01*
X463824Y375872D01*
X463867Y375791D01*
X463903Y375707D01*
X463929Y375675D01*
X463940Y375655D01*
X463963Y375632D01*
X464008Y375576D01*
X468886Y370698D01*
X468960Y370645D01*
X469030Y370585D01*
X469060Y370573D01*
X469086Y370554D01*
X469173Y370527D01*
X469258Y370493D01*
X469299Y370489D01*
X469321Y370482D01*
X469353Y370483D01*
X469425Y370475D01*
X473970Y370475D01*
X474085Y370494D01*
X474201Y370511D01*
X474207Y370513D01*
X474213Y370514D01*
X474316Y370569D01*
X474420Y370622D01*
X474425Y370627D01*
X474430Y370630D01*
X474510Y370714D01*
X474593Y370798D01*
X474596Y370804D01*
X474600Y370808D01*
X474608Y370825D01*
X474674Y370945D01*
X475339Y372552D01*
X477748Y374961D01*
X480896Y376265D01*
X484304Y376265D01*
X487452Y374961D01*
X489861Y372552D01*
X491165Y369404D01*
X491165Y365996D01*
X489861Y362848D01*
X487452Y360439D01*
X484304Y359135D01*
X480896Y359135D01*
X477748Y360439D01*
X475339Y362848D01*
X474674Y364455D01*
X474612Y364555D01*
X474552Y364655D01*
X474547Y364659D01*
X474544Y364664D01*
X474454Y364739D01*
X474365Y364815D01*
X474359Y364817D01*
X474354Y364821D01*
X474246Y364863D01*
X474137Y364907D01*
X474129Y364908D01*
X474125Y364909D01*
X474107Y364910D01*
X473970Y364925D01*
X466811Y364925D01*
X460004Y371732D01*
X459946Y371774D01*
X459894Y371823D01*
X459847Y371845D01*
X459805Y371875D01*
X459736Y371896D01*
X459671Y371927D01*
X459619Y371932D01*
X459569Y371948D01*
X459498Y371946D01*
X459427Y371954D01*
X459376Y371943D01*
X459324Y371941D01*
X459256Y371917D01*
X459186Y371901D01*
X459141Y371875D01*
X459093Y371857D01*
X459037Y371812D01*
X458975Y371775D01*
X458941Y371736D01*
X458901Y371703D01*
X458862Y371643D01*
X458815Y371588D01*
X458796Y371540D01*
X458768Y371496D01*
X458750Y371427D01*
X458723Y371360D01*
X458715Y371289D01*
X458707Y371258D01*
X458709Y371234D01*
X458705Y371193D01*
X458705Y360875D01*
X458719Y360785D01*
X458727Y360694D01*
X458739Y360664D01*
X458744Y360632D01*
X458787Y360551D01*
X458823Y360467D01*
X458849Y360435D01*
X458860Y360415D01*
X458883Y360392D01*
X458928Y360336D01*
X473471Y345793D01*
X473509Y345766D01*
X473540Y345732D01*
X473608Y345695D01*
X473671Y345649D01*
X473715Y345636D01*
X473755Y345614D01*
X473832Y345600D01*
X473906Y345577D01*
X473952Y345578D01*
X473997Y345570D01*
X474074Y345581D01*
X474152Y345583D01*
X474195Y345599D01*
X474241Y345606D01*
X474310Y345641D01*
X474383Y345668D01*
X474419Y345696D01*
X474460Y345717D01*
X474514Y345773D01*
X474575Y345821D01*
X474600Y345860D01*
X474632Y345893D01*
X474698Y346013D01*
X474708Y346028D01*
X474709Y346033D01*
X474713Y346040D01*
X475339Y347552D01*
X477748Y349961D01*
X480896Y351265D01*
X484304Y351265D01*
X487452Y349961D01*
X489861Y347552D01*
X491165Y344404D01*
X491165Y340996D01*
X489861Y337848D01*
X487452Y335439D01*
X484304Y334135D01*
X480896Y334135D01*
G37*
%LPD*%
%LPC*%
G36*
X274026Y223773D02*
X274026Y223773D01*
X268223Y229576D01*
X268223Y237784D01*
X274026Y243587D01*
X282234Y243587D01*
X286756Y239064D01*
X286814Y239023D01*
X286866Y238973D01*
X286913Y238951D01*
X286955Y238921D01*
X287024Y238900D01*
X287089Y238870D01*
X287141Y238864D01*
X287191Y238849D01*
X287262Y238850D01*
X287333Y238843D01*
X287384Y238854D01*
X287436Y238855D01*
X287504Y238880D01*
X287574Y238895D01*
X287619Y238922D01*
X287667Y238939D01*
X287723Y238984D01*
X287785Y239021D01*
X287819Y239061D01*
X287859Y239093D01*
X287898Y239153D01*
X287945Y239208D01*
X287964Y239256D01*
X287992Y239300D01*
X288010Y239369D01*
X288037Y239436D01*
X288045Y239507D01*
X288053Y239539D01*
X288051Y239562D01*
X288055Y239603D01*
X288055Y239835D01*
X288041Y239925D01*
X288033Y240016D01*
X288021Y240046D01*
X288016Y240078D01*
X287973Y240159D01*
X287937Y240243D01*
X287911Y240275D01*
X287900Y240295D01*
X287877Y240318D01*
X287832Y240374D01*
X200425Y327781D01*
X200425Y502725D01*
X200411Y502815D01*
X200403Y502906D01*
X200391Y502936D01*
X200386Y502968D01*
X200343Y503049D01*
X200307Y503133D01*
X200281Y503165D01*
X200270Y503185D01*
X200247Y503208D01*
X200202Y503264D01*
X181954Y521512D01*
X181880Y521565D01*
X181810Y521625D01*
X181780Y521637D01*
X181754Y521656D01*
X181667Y521683D01*
X181582Y521717D01*
X181541Y521721D01*
X181519Y521728D01*
X181487Y521727D01*
X181415Y521735D01*
X167761Y521735D01*
X161055Y528441D01*
X161055Y557409D01*
X165221Y561575D01*
X166744Y561575D01*
X166859Y561594D01*
X166975Y561611D01*
X166980Y561613D01*
X166987Y561614D01*
X167089Y561669D01*
X167194Y561722D01*
X167198Y561727D01*
X167204Y561730D01*
X167284Y561814D01*
X167366Y561898D01*
X167370Y561904D01*
X167373Y561908D01*
X167381Y561925D01*
X167447Y562045D01*
X167761Y562802D01*
X169748Y564789D01*
X172345Y565865D01*
X175155Y565865D01*
X177752Y564789D01*
X179739Y562802D01*
X180815Y560205D01*
X180815Y557395D01*
X179739Y554798D01*
X177752Y552811D01*
X175155Y551735D01*
X172345Y551735D01*
X169748Y552811D01*
X167904Y554655D01*
X167846Y554697D01*
X167794Y554746D01*
X167747Y554768D01*
X167705Y554798D01*
X167636Y554819D01*
X167571Y554850D01*
X167519Y554855D01*
X167469Y554871D01*
X167398Y554869D01*
X167327Y554877D01*
X167276Y554866D01*
X167224Y554864D01*
X167156Y554840D01*
X167086Y554824D01*
X167041Y554798D01*
X166993Y554780D01*
X166937Y554735D01*
X166875Y554698D01*
X166841Y554659D01*
X166801Y554626D01*
X166762Y554566D01*
X166715Y554511D01*
X166696Y554463D01*
X166668Y554419D01*
X166650Y554350D01*
X166623Y554283D01*
X166615Y554212D01*
X166607Y554181D01*
X166609Y554157D01*
X166605Y554116D01*
X166605Y538084D01*
X166616Y538013D01*
X166618Y537941D01*
X166636Y537892D01*
X166644Y537841D01*
X166678Y537777D01*
X166703Y537710D01*
X166735Y537669D01*
X166760Y537623D01*
X166812Y537574D01*
X166856Y537518D01*
X166900Y537490D01*
X166938Y537454D01*
X167003Y537424D01*
X167063Y537385D01*
X167114Y537372D01*
X167161Y537350D01*
X167232Y537343D01*
X167302Y537325D01*
X167354Y537329D01*
X167405Y537323D01*
X167476Y537339D01*
X167547Y537344D01*
X167595Y537365D01*
X167646Y537376D01*
X167707Y537412D01*
X167773Y537440D01*
X167829Y537485D01*
X167857Y537502D01*
X167872Y537520D01*
X167904Y537545D01*
X169748Y539389D01*
X172345Y540465D01*
X175155Y540465D01*
X177752Y539389D01*
X179739Y537402D01*
X180053Y536645D01*
X180114Y536545D01*
X180174Y536445D01*
X180179Y536441D01*
X180182Y536436D01*
X180272Y536361D01*
X180361Y536285D01*
X180367Y536283D01*
X180372Y536279D01*
X180480Y536237D01*
X180589Y536193D01*
X180597Y536192D01*
X180602Y536191D01*
X180620Y536190D01*
X180756Y536175D01*
X181489Y536175D01*
X211055Y506609D01*
X211055Y331665D01*
X211069Y331575D01*
X211077Y331484D01*
X211089Y331454D01*
X211094Y331422D01*
X211137Y331341D01*
X211173Y331257D01*
X211199Y331225D01*
X211210Y331205D01*
X211233Y331182D01*
X211278Y331126D01*
X304299Y238105D01*
X304315Y238094D01*
X304327Y238078D01*
X304415Y238022D01*
X304498Y237962D01*
X304517Y237956D01*
X304534Y237945D01*
X304635Y237920D01*
X304733Y237890D01*
X304753Y237890D01*
X304773Y237885D01*
X304876Y237893D01*
X304979Y237896D01*
X304998Y237903D01*
X305018Y237904D01*
X305113Y237945D01*
X305210Y237980D01*
X305226Y237993D01*
X305244Y238001D01*
X305375Y238105D01*
X310856Y243587D01*
X319064Y243587D01*
X324867Y237784D01*
X324867Y229576D01*
X319064Y223773D01*
X310856Y223773D01*
X305053Y229576D01*
X305053Y230144D01*
X305050Y230164D01*
X305052Y230183D01*
X305030Y230285D01*
X305014Y230387D01*
X305004Y230404D01*
X305000Y230424D01*
X304947Y230513D01*
X304898Y230604D01*
X304884Y230618D01*
X304874Y230635D01*
X304795Y230702D01*
X304720Y230774D01*
X304702Y230782D01*
X304687Y230795D01*
X304591Y230834D01*
X304497Y230877D01*
X304477Y230879D01*
X304459Y230887D01*
X304292Y230905D01*
X303651Y230905D01*
X294904Y239652D01*
X294846Y239694D01*
X294794Y239743D01*
X294747Y239765D01*
X294705Y239795D01*
X294636Y239816D01*
X294571Y239847D01*
X294519Y239852D01*
X294469Y239868D01*
X294398Y239866D01*
X294327Y239874D01*
X294276Y239863D01*
X294224Y239861D01*
X294156Y239837D01*
X294086Y239821D01*
X294041Y239795D01*
X293993Y239777D01*
X293937Y239732D01*
X293875Y239695D01*
X293841Y239656D01*
X293801Y239623D01*
X293762Y239563D01*
X293715Y239508D01*
X293696Y239460D01*
X293668Y239416D01*
X293650Y239347D01*
X293623Y239280D01*
X293615Y239209D01*
X293607Y239178D01*
X293609Y239154D01*
X293605Y239113D01*
X293605Y235071D01*
X289439Y230905D01*
X288798Y230905D01*
X288778Y230902D01*
X288759Y230904D01*
X288657Y230882D01*
X288555Y230866D01*
X288538Y230856D01*
X288518Y230852D01*
X288429Y230799D01*
X288338Y230750D01*
X288324Y230736D01*
X288307Y230726D01*
X288240Y230647D01*
X288168Y230572D01*
X288160Y230554D01*
X288147Y230539D01*
X288108Y230443D01*
X288065Y230349D01*
X288063Y230329D01*
X288055Y230311D01*
X288037Y230144D01*
X288037Y229576D01*
X282234Y223773D01*
X274026Y223773D01*
G37*
%LPD*%
%LPC*%
G36*
X406117Y822705D02*
X406117Y822705D01*
X398555Y825838D01*
X392768Y831625D01*
X389635Y839187D01*
X389635Y847373D01*
X392768Y854935D01*
X398555Y860722D01*
X406117Y863855D01*
X414303Y863855D01*
X421865Y860722D01*
X427652Y854935D01*
X430785Y847373D01*
X430785Y839187D01*
X427652Y831625D01*
X421865Y825838D01*
X414303Y822705D01*
X406117Y822705D01*
G37*
%LPD*%
%LPC*%
G36*
X152117Y822705D02*
X152117Y822705D01*
X144555Y825838D01*
X138768Y831625D01*
X135635Y839187D01*
X135635Y847373D01*
X138768Y854935D01*
X144555Y860722D01*
X152117Y863855D01*
X160303Y863855D01*
X167865Y860722D01*
X173652Y854935D01*
X176785Y847373D01*
X176785Y839187D01*
X173652Y831625D01*
X167865Y825838D01*
X160303Y822705D01*
X152117Y822705D01*
G37*
%LPD*%
%LPC*%
G36*
X217751Y922330D02*
X217751Y922330D01*
X214131Y923830D01*
X211360Y926601D01*
X209860Y930221D01*
X209860Y934139D01*
X211360Y937759D01*
X214131Y940530D01*
X216465Y941497D01*
X216565Y941559D01*
X216665Y941619D01*
X216669Y941624D01*
X216674Y941627D01*
X216749Y941717D01*
X216825Y941806D01*
X216827Y941812D01*
X216831Y941816D01*
X216873Y941924D01*
X216917Y942034D01*
X216918Y942041D01*
X216919Y942046D01*
X216920Y942064D01*
X216935Y942201D01*
X216935Y946029D01*
X243961Y973055D01*
X320045Y973055D01*
X320135Y973069D01*
X320226Y973077D01*
X320256Y973089D01*
X320288Y973094D01*
X320369Y973137D01*
X320453Y973173D01*
X320485Y973199D01*
X320505Y973210D01*
X320528Y973233D01*
X320584Y973278D01*
X328672Y981366D01*
X328725Y981440D01*
X328785Y981510D01*
X328797Y981540D01*
X328816Y981566D01*
X328843Y981653D01*
X328877Y981738D01*
X328881Y981779D01*
X328888Y981801D01*
X328887Y981833D01*
X328895Y981905D01*
X328895Y983240D01*
X328876Y983355D01*
X328859Y983471D01*
X328857Y983477D01*
X328856Y983483D01*
X328801Y983586D01*
X328748Y983690D01*
X328743Y983695D01*
X328740Y983700D01*
X328656Y983780D01*
X328572Y983863D01*
X328566Y983866D01*
X328562Y983870D01*
X328545Y983878D01*
X328425Y983944D01*
X326818Y984609D01*
X324409Y987018D01*
X323105Y990166D01*
X323105Y993574D01*
X324409Y996722D01*
X326818Y999131D01*
X329966Y1000435D01*
X333374Y1000435D01*
X336522Y999131D01*
X338931Y996722D01*
X340235Y993574D01*
X340235Y990166D01*
X338931Y987018D01*
X336522Y984609D01*
X334915Y983944D01*
X334815Y983882D01*
X334715Y983822D01*
X334711Y983817D01*
X334706Y983814D01*
X334631Y983724D01*
X334555Y983635D01*
X334553Y983629D01*
X334549Y983624D01*
X334507Y983516D01*
X334463Y983407D01*
X334462Y983399D01*
X334461Y983395D01*
X334460Y983377D01*
X334445Y983240D01*
X334445Y979291D01*
X322659Y967505D01*
X246575Y967505D01*
X246485Y967491D01*
X246394Y967483D01*
X246364Y967471D01*
X246332Y967466D01*
X246251Y967423D01*
X246167Y967387D01*
X246135Y967361D01*
X246115Y967350D01*
X246092Y967327D01*
X246036Y967282D01*
X222708Y943954D01*
X222660Y943887D01*
X222654Y943881D01*
X222653Y943877D01*
X222595Y943810D01*
X222583Y943780D01*
X222564Y943754D01*
X222537Y943667D01*
X222503Y943582D01*
X222499Y943541D01*
X222492Y943519D01*
X222493Y943487D01*
X222485Y943415D01*
X222485Y942201D01*
X222504Y942086D01*
X222521Y941970D01*
X222523Y941964D01*
X222524Y941958D01*
X222579Y941855D01*
X222632Y941750D01*
X222637Y941746D01*
X222640Y941740D01*
X222724Y941660D01*
X222808Y941578D01*
X222814Y941575D01*
X222818Y941571D01*
X222835Y941563D01*
X222955Y941497D01*
X225289Y940530D01*
X228060Y937759D01*
X229560Y934139D01*
X229560Y930221D01*
X228060Y926601D01*
X225289Y923830D01*
X221669Y922330D01*
X217751Y922330D01*
G37*
%LPD*%
%LPC*%
G36*
X192351Y922330D02*
X192351Y922330D01*
X188731Y923830D01*
X185960Y926601D01*
X184460Y930221D01*
X184460Y934139D01*
X185960Y937759D01*
X188731Y940530D01*
X191065Y941497D01*
X191165Y941559D01*
X191265Y941619D01*
X191269Y941624D01*
X191274Y941627D01*
X191349Y941717D01*
X191425Y941806D01*
X191427Y941812D01*
X191431Y941816D01*
X191473Y941924D01*
X191517Y942034D01*
X191518Y942041D01*
X191519Y942046D01*
X191520Y942064D01*
X191535Y942201D01*
X191535Y946029D01*
X240151Y994645D01*
X298040Y994645D01*
X298155Y994664D01*
X298271Y994681D01*
X298277Y994683D01*
X298283Y994684D01*
X298386Y994739D01*
X298490Y994792D01*
X298495Y994797D01*
X298500Y994800D01*
X298580Y994884D01*
X298663Y994968D01*
X298666Y994974D01*
X298670Y994978D01*
X298678Y994995D01*
X298744Y995115D01*
X299409Y996722D01*
X301818Y999131D01*
X304966Y1000435D01*
X308374Y1000435D01*
X311522Y999131D01*
X313931Y996722D01*
X315235Y993574D01*
X315235Y990166D01*
X313931Y987018D01*
X311522Y984609D01*
X308374Y983305D01*
X304966Y983305D01*
X301818Y984609D01*
X299409Y987018D01*
X298744Y988625D01*
X298682Y988725D01*
X298622Y988825D01*
X298617Y988829D01*
X298614Y988834D01*
X298524Y988909D01*
X298435Y988985D01*
X298429Y988987D01*
X298424Y988991D01*
X298316Y989033D01*
X298207Y989077D01*
X298199Y989078D01*
X298195Y989079D01*
X298177Y989080D01*
X298040Y989095D01*
X242765Y989095D01*
X242675Y989081D01*
X242584Y989073D01*
X242554Y989061D01*
X242522Y989056D01*
X242441Y989013D01*
X242357Y988977D01*
X242325Y988951D01*
X242305Y988940D01*
X242282Y988917D01*
X242226Y988872D01*
X197308Y943954D01*
X197260Y943887D01*
X197254Y943881D01*
X197253Y943877D01*
X197195Y943810D01*
X197183Y943780D01*
X197164Y943754D01*
X197137Y943667D01*
X197103Y943582D01*
X197099Y943541D01*
X197092Y943519D01*
X197093Y943487D01*
X197085Y943415D01*
X197085Y942201D01*
X197104Y942086D01*
X197121Y941970D01*
X197123Y941964D01*
X197124Y941958D01*
X197179Y941855D01*
X197232Y941750D01*
X197237Y941746D01*
X197240Y941740D01*
X197324Y941660D01*
X197408Y941578D01*
X197414Y941575D01*
X197418Y941571D01*
X197435Y941563D01*
X197555Y941497D01*
X199889Y940530D01*
X202660Y937759D01*
X204160Y934139D01*
X204160Y930221D01*
X202660Y926601D01*
X199889Y923830D01*
X196269Y922330D01*
X192351Y922330D01*
G37*
%LPD*%
%LPC*%
G36*
X505138Y198335D02*
X505138Y198335D01*
X504245Y199228D01*
X504245Y202364D01*
X504242Y202384D01*
X504244Y202403D01*
X504222Y202505D01*
X504206Y202607D01*
X504196Y202624D01*
X504192Y202644D01*
X504139Y202733D01*
X504090Y202824D01*
X504076Y202838D01*
X504066Y202855D01*
X503987Y202922D01*
X503912Y202994D01*
X503894Y203002D01*
X503879Y203015D01*
X503783Y203054D01*
X503689Y203097D01*
X503669Y203099D01*
X503651Y203107D01*
X503484Y203125D01*
X480021Y203125D01*
X452464Y230682D01*
X452390Y230735D01*
X452320Y230795D01*
X452290Y230807D01*
X452264Y230826D01*
X452177Y230853D01*
X452092Y230887D01*
X452051Y230891D01*
X452029Y230898D01*
X451997Y230897D01*
X451925Y230905D01*
X427228Y230905D01*
X427208Y230902D01*
X427189Y230904D01*
X427087Y230882D01*
X426985Y230866D01*
X426968Y230856D01*
X426948Y230852D01*
X426859Y230799D01*
X426768Y230750D01*
X426754Y230736D01*
X426737Y230726D01*
X426670Y230647D01*
X426598Y230572D01*
X426590Y230554D01*
X426577Y230539D01*
X426538Y230443D01*
X426495Y230349D01*
X426493Y230329D01*
X426485Y230311D01*
X426467Y230144D01*
X426467Y229576D01*
X420664Y223773D01*
X412456Y223773D01*
X406653Y229576D01*
X406653Y237784D01*
X412456Y243587D01*
X420664Y243587D01*
X426467Y237784D01*
X426467Y237216D01*
X426470Y237196D01*
X426468Y237177D01*
X426490Y237075D01*
X426506Y236973D01*
X426516Y236956D01*
X426520Y236936D01*
X426573Y236847D01*
X426622Y236756D01*
X426636Y236742D01*
X426646Y236725D01*
X426725Y236658D01*
X426800Y236586D01*
X426818Y236578D01*
X426833Y236565D01*
X426929Y236526D01*
X427023Y236483D01*
X427043Y236481D01*
X427061Y236473D01*
X427228Y236455D01*
X454539Y236455D01*
X482096Y208898D01*
X482170Y208845D01*
X482240Y208785D01*
X482270Y208773D01*
X482296Y208754D01*
X482383Y208727D01*
X482468Y208693D01*
X482509Y208689D01*
X482531Y208682D01*
X482563Y208683D01*
X482635Y208675D01*
X503484Y208675D01*
X503504Y208678D01*
X503523Y208676D01*
X503625Y208698D01*
X503727Y208714D01*
X503744Y208724D01*
X503764Y208728D01*
X503853Y208781D01*
X503944Y208830D01*
X503958Y208844D01*
X503975Y208854D01*
X504042Y208933D01*
X504114Y209008D01*
X504122Y209026D01*
X504135Y209041D01*
X504174Y209137D01*
X504217Y209231D01*
X504219Y209251D01*
X504227Y209269D01*
X504245Y209436D01*
X504245Y212572D01*
X505138Y213465D01*
X518482Y213465D01*
X519375Y212572D01*
X519375Y199228D01*
X518482Y198335D01*
X505138Y198335D01*
G37*
%LPD*%
%LPC*%
G36*
X172426Y223773D02*
X172426Y223773D01*
X166623Y229576D01*
X166623Y229984D01*
X166620Y230004D01*
X166622Y230023D01*
X166600Y230125D01*
X166584Y230227D01*
X166574Y230244D01*
X166570Y230264D01*
X166517Y230353D01*
X166468Y230444D01*
X166454Y230458D01*
X166444Y230475D01*
X166365Y230542D01*
X166290Y230614D01*
X166272Y230622D01*
X166257Y230635D01*
X166161Y230674D01*
X166067Y230717D01*
X166047Y230719D01*
X166029Y230727D01*
X165862Y230745D01*
X90876Y230745D01*
X90856Y230742D01*
X90837Y230744D01*
X90735Y230722D01*
X90633Y230706D01*
X90616Y230696D01*
X90596Y230692D01*
X90507Y230639D01*
X90416Y230590D01*
X90402Y230576D01*
X90385Y230566D01*
X90318Y230487D01*
X90246Y230412D01*
X90238Y230394D01*
X90225Y230379D01*
X90186Y230283D01*
X90143Y230189D01*
X90141Y230169D01*
X90133Y230151D01*
X90115Y229984D01*
X90115Y226848D01*
X89222Y225955D01*
X75878Y225955D01*
X74985Y226848D01*
X74985Y240192D01*
X75878Y241085D01*
X89222Y241085D01*
X90115Y240192D01*
X90115Y237056D01*
X90118Y237036D01*
X90116Y237017D01*
X90138Y236915D01*
X90154Y236813D01*
X90164Y236796D01*
X90168Y236776D01*
X90221Y236687D01*
X90270Y236596D01*
X90284Y236582D01*
X90294Y236565D01*
X90373Y236498D01*
X90448Y236426D01*
X90466Y236418D01*
X90481Y236405D01*
X90577Y236366D01*
X90671Y236323D01*
X90691Y236321D01*
X90709Y236313D01*
X90876Y236295D01*
X165862Y236295D01*
X165882Y236298D01*
X165901Y236296D01*
X166003Y236318D01*
X166105Y236334D01*
X166122Y236344D01*
X166142Y236348D01*
X166231Y236401D01*
X166322Y236450D01*
X166336Y236464D01*
X166353Y236474D01*
X166420Y236553D01*
X166492Y236628D01*
X166500Y236646D01*
X166513Y236661D01*
X166552Y236757D01*
X166595Y236851D01*
X166597Y236871D01*
X166605Y236889D01*
X166623Y237056D01*
X166623Y237784D01*
X172426Y243587D01*
X180634Y243587D01*
X186437Y237784D01*
X186437Y229576D01*
X180634Y223773D01*
X172426Y223773D01*
G37*
%LPD*%
%LPC*%
G36*
X422345Y424735D02*
X422345Y424735D01*
X419748Y425811D01*
X417761Y427798D01*
X417447Y428555D01*
X417386Y428655D01*
X417326Y428755D01*
X417321Y428759D01*
X417318Y428764D01*
X417228Y428839D01*
X417139Y428915D01*
X417133Y428917D01*
X417128Y428921D01*
X417020Y428963D01*
X416911Y429007D01*
X416903Y429008D01*
X416898Y429009D01*
X416880Y429010D01*
X416744Y429025D01*
X398901Y429025D01*
X382614Y445312D01*
X382540Y445365D01*
X382470Y445425D01*
X382440Y445437D01*
X382414Y445456D01*
X382327Y445483D01*
X382242Y445517D01*
X382201Y445521D01*
X382179Y445528D01*
X382147Y445527D01*
X382075Y445535D01*
X373888Y445535D01*
X373868Y445532D01*
X373849Y445534D01*
X373747Y445512D01*
X373645Y445496D01*
X373628Y445486D01*
X373608Y445482D01*
X373519Y445429D01*
X373428Y445380D01*
X373414Y445366D01*
X373397Y445356D01*
X373330Y445277D01*
X373258Y445202D01*
X373250Y445184D01*
X373237Y445169D01*
X373198Y445073D01*
X373155Y444979D01*
X373153Y444959D01*
X373145Y444941D01*
X373127Y444774D01*
X373127Y444206D01*
X367324Y438403D01*
X359116Y438403D01*
X353313Y444206D01*
X353313Y452414D01*
X359116Y458217D01*
X367324Y458217D01*
X373127Y452414D01*
X373127Y451846D01*
X373130Y451826D01*
X373128Y451807D01*
X373150Y451705D01*
X373166Y451603D01*
X373176Y451586D01*
X373180Y451566D01*
X373233Y451477D01*
X373282Y451386D01*
X373296Y451372D01*
X373306Y451355D01*
X373385Y451288D01*
X373460Y451216D01*
X373478Y451208D01*
X373493Y451195D01*
X373589Y451156D01*
X373683Y451113D01*
X373703Y451111D01*
X373721Y451103D01*
X373888Y451085D01*
X384689Y451085D01*
X400976Y434798D01*
X401050Y434745D01*
X401120Y434685D01*
X401150Y434673D01*
X401176Y434654D01*
X401263Y434627D01*
X401348Y434593D01*
X401389Y434589D01*
X401411Y434582D01*
X401443Y434583D01*
X401515Y434575D01*
X416744Y434575D01*
X416859Y434594D01*
X416975Y434611D01*
X416980Y434613D01*
X416987Y434614D01*
X417089Y434669D01*
X417194Y434722D01*
X417198Y434727D01*
X417204Y434730D01*
X417284Y434814D01*
X417366Y434898D01*
X417370Y434904D01*
X417373Y434908D01*
X417381Y434925D01*
X417447Y435045D01*
X417761Y435802D01*
X419748Y437789D01*
X422345Y438865D01*
X425155Y438865D01*
X427752Y437789D01*
X429739Y435802D01*
X430815Y433205D01*
X430815Y430395D01*
X429739Y427798D01*
X427752Y425811D01*
X425155Y424735D01*
X422345Y424735D01*
G37*
%LPD*%
%LPC*%
G36*
X422345Y475535D02*
X422345Y475535D01*
X419748Y476611D01*
X417761Y478598D01*
X416685Y481195D01*
X416685Y484005D01*
X416999Y484762D01*
X417025Y484876D01*
X417054Y484990D01*
X417054Y484996D01*
X417055Y485002D01*
X417044Y485118D01*
X417035Y485235D01*
X417033Y485240D01*
X417032Y485247D01*
X416984Y485354D01*
X416939Y485461D01*
X416934Y485467D01*
X416932Y485472D01*
X416919Y485485D01*
X416834Y485592D01*
X408854Y493572D01*
X408780Y493625D01*
X408710Y493685D01*
X408680Y493697D01*
X408654Y493716D01*
X408567Y493743D01*
X408482Y493777D01*
X408441Y493781D01*
X408419Y493788D01*
X408387Y493787D01*
X408315Y493795D01*
X373888Y493795D01*
X373868Y493792D01*
X373849Y493794D01*
X373747Y493772D01*
X373645Y493756D01*
X373628Y493746D01*
X373608Y493742D01*
X373519Y493689D01*
X373428Y493640D01*
X373414Y493626D01*
X373397Y493616D01*
X373330Y493537D01*
X373258Y493462D01*
X373250Y493444D01*
X373237Y493429D01*
X373198Y493333D01*
X373155Y493239D01*
X373153Y493219D01*
X373145Y493201D01*
X373127Y493034D01*
X373127Y492466D01*
X367324Y486663D01*
X359116Y486663D01*
X353313Y492466D01*
X353313Y500674D01*
X359116Y506477D01*
X367324Y506477D01*
X373127Y500674D01*
X373127Y500106D01*
X373130Y500086D01*
X373128Y500067D01*
X373150Y499965D01*
X373166Y499863D01*
X373176Y499846D01*
X373180Y499826D01*
X373233Y499737D01*
X373282Y499646D01*
X373296Y499632D01*
X373306Y499615D01*
X373385Y499548D01*
X373460Y499476D01*
X373478Y499468D01*
X373493Y499455D01*
X373589Y499416D01*
X373683Y499373D01*
X373703Y499371D01*
X373721Y499363D01*
X373888Y499345D01*
X410929Y499345D01*
X420758Y489516D01*
X420853Y489448D01*
X420947Y489378D01*
X420953Y489376D01*
X420958Y489373D01*
X421069Y489338D01*
X421181Y489302D01*
X421187Y489302D01*
X421193Y489300D01*
X421310Y489303D01*
X421426Y489304D01*
X421434Y489306D01*
X421439Y489307D01*
X421456Y489313D01*
X421588Y489351D01*
X422345Y489665D01*
X425155Y489665D01*
X427752Y488589D01*
X429739Y486602D01*
X430815Y484005D01*
X430815Y481195D01*
X429739Y478598D01*
X427752Y476611D01*
X425155Y475535D01*
X422345Y475535D01*
G37*
%LPD*%
%LPC*%
G36*
X359116Y390143D02*
X359116Y390143D01*
X353313Y395946D01*
X353313Y404154D01*
X359116Y409957D01*
X367324Y409957D01*
X373127Y404154D01*
X373127Y403586D01*
X373130Y403566D01*
X373128Y403547D01*
X373150Y403445D01*
X373166Y403343D01*
X373176Y403326D01*
X373180Y403306D01*
X373233Y403217D01*
X373282Y403126D01*
X373296Y403112D01*
X373306Y403095D01*
X373385Y403028D01*
X373460Y402956D01*
X373478Y402948D01*
X373493Y402935D01*
X373589Y402896D01*
X373683Y402853D01*
X373703Y402851D01*
X373721Y402843D01*
X373888Y402825D01*
X384615Y402825D01*
X384705Y402839D01*
X384796Y402847D01*
X384826Y402859D01*
X384858Y402864D01*
X384939Y402907D01*
X385023Y402943D01*
X385055Y402969D01*
X385075Y402980D01*
X385098Y403003D01*
X385154Y403048D01*
X391281Y409175D01*
X416744Y409175D01*
X416859Y409194D01*
X416975Y409211D01*
X416980Y409213D01*
X416987Y409214D01*
X417089Y409269D01*
X417194Y409322D01*
X417198Y409327D01*
X417204Y409330D01*
X417284Y409414D01*
X417366Y409498D01*
X417370Y409504D01*
X417373Y409508D01*
X417381Y409525D01*
X417447Y409645D01*
X417761Y410402D01*
X419748Y412389D01*
X422345Y413465D01*
X425155Y413465D01*
X427752Y412389D01*
X429739Y410402D01*
X430815Y407805D01*
X430815Y404995D01*
X429739Y402398D01*
X427752Y400411D01*
X425155Y399335D01*
X422345Y399335D01*
X419748Y400411D01*
X417761Y402398D01*
X417447Y403155D01*
X417386Y403255D01*
X417326Y403355D01*
X417321Y403359D01*
X417318Y403364D01*
X417228Y403439D01*
X417139Y403515D01*
X417133Y403517D01*
X417128Y403521D01*
X417020Y403563D01*
X416911Y403607D01*
X416903Y403608D01*
X416898Y403609D01*
X416880Y403610D01*
X416744Y403625D01*
X393895Y403625D01*
X393805Y403611D01*
X393714Y403603D01*
X393684Y403591D01*
X393652Y403586D01*
X393571Y403543D01*
X393487Y403507D01*
X393455Y403481D01*
X393435Y403470D01*
X393412Y403447D01*
X393356Y403402D01*
X387229Y397275D01*
X373888Y397275D01*
X373868Y397272D01*
X373849Y397274D01*
X373747Y397252D01*
X373645Y397236D01*
X373628Y397226D01*
X373608Y397222D01*
X373519Y397169D01*
X373428Y397120D01*
X373414Y397106D01*
X373397Y397096D01*
X373330Y397017D01*
X373258Y396942D01*
X373250Y396924D01*
X373237Y396909D01*
X373198Y396813D01*
X373155Y396719D01*
X373153Y396699D01*
X373145Y396681D01*
X373127Y396514D01*
X373127Y395946D01*
X367324Y390143D01*
X359116Y390143D01*
G37*
%LPD*%
%LPC*%
G36*
X37850Y535997D02*
X37850Y535997D01*
X33876Y537643D01*
X27643Y543876D01*
X25997Y547850D01*
X25997Y552150D01*
X27643Y556124D01*
X33876Y562357D01*
X37850Y564003D01*
X42150Y564003D01*
X46124Y562357D01*
X52357Y556124D01*
X54003Y552150D01*
X54003Y547850D01*
X52357Y543876D01*
X46124Y537643D01*
X42150Y535997D01*
X37850Y535997D01*
G37*
%LPD*%
%LPC*%
G36*
X297850Y25997D02*
X297850Y25997D01*
X293876Y27643D01*
X287643Y33876D01*
X285997Y37850D01*
X285997Y42150D01*
X287643Y46124D01*
X293876Y52357D01*
X297850Y54003D01*
X302150Y54003D01*
X306124Y52357D01*
X312357Y46124D01*
X314003Y42150D01*
X314003Y37850D01*
X312357Y33876D01*
X306124Y27643D01*
X302150Y25997D01*
X297850Y25997D01*
G37*
%LPD*%
%LPC*%
G36*
X166951Y744530D02*
X166951Y744530D01*
X163331Y746030D01*
X160560Y748801D01*
X159060Y752421D01*
X159060Y756339D01*
X160560Y759959D01*
X163331Y762730D01*
X166951Y764230D01*
X170869Y764230D01*
X174489Y762730D01*
X177260Y759959D01*
X178760Y756339D01*
X178760Y752421D01*
X177260Y748801D01*
X174489Y746030D01*
X170869Y744530D01*
X166951Y744530D01*
G37*
%LPD*%
%LPC*%
G36*
X319351Y922330D02*
X319351Y922330D01*
X315731Y923830D01*
X312960Y926601D01*
X311460Y930221D01*
X311460Y934139D01*
X312960Y937759D01*
X315731Y940530D01*
X319351Y942030D01*
X323269Y942030D01*
X326889Y940530D01*
X329660Y937759D01*
X331160Y934139D01*
X331160Y930221D01*
X329660Y926601D01*
X326889Y923830D01*
X323269Y922330D01*
X319351Y922330D01*
G37*
%LPD*%
%LPC*%
G36*
X166951Y922330D02*
X166951Y922330D01*
X163331Y923830D01*
X160560Y926601D01*
X159060Y930221D01*
X159060Y934139D01*
X160560Y937759D01*
X163331Y940530D01*
X166951Y942030D01*
X170869Y942030D01*
X174489Y940530D01*
X177260Y937759D01*
X178760Y934139D01*
X178760Y930221D01*
X177260Y926601D01*
X174489Y923830D01*
X170869Y922330D01*
X166951Y922330D01*
G37*
%LPD*%
%LPC*%
G36*
X268551Y922330D02*
X268551Y922330D01*
X264931Y923830D01*
X262160Y926601D01*
X260660Y930221D01*
X260660Y934139D01*
X262160Y937759D01*
X264931Y940530D01*
X268551Y942030D01*
X272469Y942030D01*
X276089Y940530D01*
X278860Y937759D01*
X280360Y934139D01*
X280360Y930221D01*
X278860Y926601D01*
X276089Y923830D01*
X272469Y922330D01*
X268551Y922330D01*
G37*
%LPD*%
%LPC*%
G36*
X141551Y922330D02*
X141551Y922330D01*
X137931Y923830D01*
X135160Y926601D01*
X133660Y930221D01*
X133660Y934139D01*
X135160Y937759D01*
X137931Y940530D01*
X141551Y942030D01*
X145469Y942030D01*
X149089Y940530D01*
X151860Y937759D01*
X153360Y934139D01*
X153360Y930221D01*
X151860Y926601D01*
X149089Y923830D01*
X145469Y922330D01*
X141551Y922330D01*
G37*
%LPD*%
%LPC*%
G36*
X243151Y922330D02*
X243151Y922330D01*
X239531Y923830D01*
X236760Y926601D01*
X235260Y930221D01*
X235260Y934139D01*
X236760Y937759D01*
X239531Y940530D01*
X243151Y942030D01*
X247069Y942030D01*
X250689Y940530D01*
X253460Y937759D01*
X254960Y934139D01*
X254960Y930221D01*
X253460Y926601D01*
X250689Y923830D01*
X247069Y922330D01*
X243151Y922330D01*
G37*
%LPD*%
%LPC*%
G36*
X293951Y922330D02*
X293951Y922330D01*
X290331Y923830D01*
X287560Y926601D01*
X286060Y930221D01*
X286060Y934139D01*
X287560Y937759D01*
X290331Y940530D01*
X293951Y942030D01*
X297869Y942030D01*
X301489Y940530D01*
X304260Y937759D01*
X305760Y934139D01*
X305760Y930221D01*
X304260Y926601D01*
X301489Y923830D01*
X297869Y922330D01*
X293951Y922330D01*
G37*
%LPD*%
%LPC*%
G36*
X192351Y744530D02*
X192351Y744530D01*
X188731Y746030D01*
X185960Y748801D01*
X184460Y752421D01*
X184460Y756339D01*
X185960Y759959D01*
X188731Y762730D01*
X192351Y764230D01*
X196269Y764230D01*
X199889Y762730D01*
X202660Y759959D01*
X204160Y756339D01*
X204160Y752421D01*
X202660Y748801D01*
X199889Y746030D01*
X196269Y744530D01*
X192351Y744530D01*
G37*
%LPD*%
%LPC*%
G36*
X319351Y744530D02*
X319351Y744530D01*
X315731Y746030D01*
X312960Y748801D01*
X311460Y752421D01*
X311460Y756339D01*
X312960Y759959D01*
X315731Y762730D01*
X319351Y764230D01*
X323269Y764230D01*
X326889Y762730D01*
X329660Y759959D01*
X331160Y756339D01*
X331160Y752421D01*
X329660Y748801D01*
X326889Y746030D01*
X323269Y744530D01*
X319351Y744530D01*
G37*
%LPD*%
%LPC*%
G36*
X243151Y744530D02*
X243151Y744530D01*
X239531Y746030D01*
X236760Y748801D01*
X235260Y752421D01*
X235260Y756339D01*
X236760Y759959D01*
X239531Y762730D01*
X243151Y764230D01*
X247069Y764230D01*
X250689Y762730D01*
X253460Y759959D01*
X254960Y756339D01*
X254960Y752421D01*
X253460Y748801D01*
X250689Y746030D01*
X247069Y744530D01*
X243151Y744530D01*
G37*
%LPD*%
%LPC*%
G36*
X217751Y744530D02*
X217751Y744530D01*
X214131Y746030D01*
X211360Y748801D01*
X209860Y752421D01*
X209860Y756339D01*
X211360Y759959D01*
X214131Y762730D01*
X217751Y764230D01*
X221669Y764230D01*
X225289Y762730D01*
X228060Y759959D01*
X229560Y756339D01*
X229560Y752421D01*
X228060Y748801D01*
X225289Y746030D01*
X221669Y744530D01*
X217751Y744530D01*
G37*
%LPD*%
%LPC*%
G36*
X141551Y744530D02*
X141551Y744530D01*
X137931Y746030D01*
X135160Y748801D01*
X133660Y752421D01*
X133660Y756339D01*
X135160Y759959D01*
X137931Y762730D01*
X141551Y764230D01*
X145469Y764230D01*
X149089Y762730D01*
X151860Y759959D01*
X153360Y756339D01*
X153360Y752421D01*
X151860Y748801D01*
X149089Y746030D01*
X145469Y744530D01*
X141551Y744530D01*
G37*
%LPD*%
%LPC*%
G36*
X344751Y744530D02*
X344751Y744530D01*
X341131Y746030D01*
X338360Y748801D01*
X336860Y752421D01*
X336860Y756339D01*
X338360Y759959D01*
X341131Y762730D01*
X344751Y764230D01*
X348669Y764230D01*
X352289Y762730D01*
X355060Y759959D01*
X356560Y756339D01*
X356560Y752421D01*
X355060Y748801D01*
X352289Y746030D01*
X348669Y744530D01*
X344751Y744530D01*
G37*
%LPD*%
%LPC*%
G36*
X480896Y486535D02*
X480896Y486535D01*
X477748Y487839D01*
X475339Y490248D01*
X474035Y493396D01*
X474035Y496804D01*
X475339Y499952D01*
X477748Y502361D01*
X480896Y503665D01*
X484304Y503665D01*
X487452Y502361D01*
X489861Y499952D01*
X491165Y496804D01*
X491165Y493396D01*
X489861Y490248D01*
X487452Y487839D01*
X484304Y486535D01*
X480896Y486535D01*
G37*
%LPD*%
%LPC*%
G36*
X112596Y461935D02*
X112596Y461935D01*
X109448Y463239D01*
X107039Y465648D01*
X105735Y468796D01*
X105735Y472204D01*
X107039Y475352D01*
X109448Y477761D01*
X112596Y479065D01*
X116004Y479065D01*
X119152Y477761D01*
X121561Y475352D01*
X122865Y472204D01*
X122865Y468796D01*
X121561Y465648D01*
X119152Y463239D01*
X116004Y461935D01*
X112596Y461935D01*
G37*
%LPD*%
%LPC*%
G36*
X111326Y334535D02*
X111326Y334535D01*
X108178Y335839D01*
X105769Y338248D01*
X104465Y341396D01*
X104465Y344804D01*
X105769Y347952D01*
X108178Y350361D01*
X111326Y351665D01*
X114734Y351665D01*
X117882Y350361D01*
X120291Y347952D01*
X121595Y344804D01*
X121595Y341396D01*
X120291Y338248D01*
X117882Y335839D01*
X114734Y334535D01*
X111326Y334535D01*
G37*
%LPD*%
%LPC*%
G36*
X263526Y99385D02*
X263526Y99385D01*
X260378Y100689D01*
X257969Y103098D01*
X256665Y106246D01*
X256665Y109654D01*
X257969Y112802D01*
X260378Y115211D01*
X263526Y116515D01*
X266934Y116515D01*
X270082Y115211D01*
X272491Y112802D01*
X273795Y109654D01*
X273795Y106246D01*
X272491Y103098D01*
X270082Y100689D01*
X266934Y99385D01*
X263526Y99385D01*
G37*
%LPD*%
%LPC*%
G36*
X288526Y99385D02*
X288526Y99385D01*
X285378Y100689D01*
X282969Y103098D01*
X281665Y106246D01*
X281665Y109654D01*
X282969Y112802D01*
X285378Y115211D01*
X288526Y116515D01*
X291934Y116515D01*
X295082Y115211D01*
X297491Y112802D01*
X298795Y109654D01*
X298795Y106246D01*
X297491Y103098D01*
X295082Y100689D01*
X291934Y99385D01*
X288526Y99385D01*
G37*
%LPD*%
%LPC*%
G36*
X480896Y663935D02*
X480896Y663935D01*
X477748Y665239D01*
X475339Y667648D01*
X474035Y670796D01*
X474035Y674204D01*
X475339Y677352D01*
X477748Y679761D01*
X480896Y681065D01*
X484304Y681065D01*
X487452Y679761D01*
X489861Y677352D01*
X491165Y674204D01*
X491165Y670796D01*
X489861Y667648D01*
X487452Y665239D01*
X484304Y663935D01*
X480896Y663935D01*
G37*
%LPD*%
%LPC*%
G36*
X480896Y638935D02*
X480896Y638935D01*
X477748Y640239D01*
X475339Y642648D01*
X474035Y645796D01*
X474035Y649204D01*
X475339Y652352D01*
X477748Y654761D01*
X480896Y656065D01*
X484304Y656065D01*
X487452Y654761D01*
X489861Y652352D01*
X491165Y649204D01*
X491165Y645796D01*
X489861Y642648D01*
X487452Y640239D01*
X484304Y638935D01*
X480896Y638935D01*
G37*
%LPD*%
%LPC*%
G36*
X112596Y638065D02*
X112596Y638065D01*
X109448Y639369D01*
X107039Y641778D01*
X105735Y644926D01*
X105735Y648334D01*
X107039Y651482D01*
X109448Y653891D01*
X112596Y655195D01*
X116004Y655195D01*
X119152Y653891D01*
X121561Y651482D01*
X122865Y648334D01*
X122865Y644926D01*
X121561Y641778D01*
X119152Y639369D01*
X116004Y638065D01*
X112596Y638065D01*
G37*
%LPD*%
%LPC*%
G36*
X111326Y309535D02*
X111326Y309535D01*
X108178Y310839D01*
X105769Y313248D01*
X104465Y316396D01*
X104465Y319804D01*
X105769Y322952D01*
X108178Y325361D01*
X111326Y326665D01*
X114734Y326665D01*
X117882Y325361D01*
X120291Y322952D01*
X121595Y319804D01*
X121595Y316396D01*
X120291Y313248D01*
X117882Y310839D01*
X114734Y309535D01*
X111326Y309535D01*
G37*
%LPD*%
%LPC*%
G36*
X112596Y486935D02*
X112596Y486935D01*
X109448Y488239D01*
X107039Y490648D01*
X105735Y493796D01*
X105735Y497204D01*
X107039Y500352D01*
X109448Y502761D01*
X112596Y504065D01*
X116004Y504065D01*
X119152Y502761D01*
X121561Y500352D01*
X122865Y497204D01*
X122865Y493796D01*
X121561Y490648D01*
X119152Y488239D01*
X116004Y486935D01*
X112596Y486935D01*
G37*
%LPD*%
%LPC*%
G36*
X480896Y511535D02*
X480896Y511535D01*
X477748Y512839D01*
X475339Y515248D01*
X474035Y518396D01*
X474035Y521804D01*
X475339Y524952D01*
X477748Y527361D01*
X480896Y528665D01*
X484304Y528665D01*
X487452Y527361D01*
X489861Y524952D01*
X491165Y521804D01*
X491165Y518396D01*
X489861Y515248D01*
X487452Y512839D01*
X484304Y511535D01*
X480896Y511535D01*
G37*
%LPD*%
%LPC*%
G36*
X112596Y613065D02*
X112596Y613065D01*
X109448Y614369D01*
X107039Y616778D01*
X105735Y619926D01*
X105735Y623334D01*
X107039Y626482D01*
X109448Y628891D01*
X112596Y630195D01*
X116004Y630195D01*
X119152Y628891D01*
X121561Y626482D01*
X122865Y623334D01*
X122865Y619926D01*
X121561Y616778D01*
X119152Y614369D01*
X116004Y613065D01*
X112596Y613065D01*
G37*
%LPD*%
%LPC*%
G36*
X167578Y627935D02*
X167578Y627935D01*
X166685Y628828D01*
X166685Y641172D01*
X167578Y642065D01*
X179922Y642065D01*
X180815Y641172D01*
X180815Y628828D01*
X179922Y627935D01*
X167578Y627935D01*
G37*
%LPD*%
%LPC*%
G36*
X417578Y627935D02*
X417578Y627935D01*
X416685Y628828D01*
X416685Y641172D01*
X417578Y642065D01*
X429922Y642065D01*
X430815Y641172D01*
X430815Y628828D01*
X429922Y627935D01*
X417578Y627935D01*
G37*
%LPD*%
%LPC*%
G36*
X422345Y450135D02*
X422345Y450135D01*
X419748Y451211D01*
X417761Y453198D01*
X416685Y455795D01*
X416685Y458605D01*
X417761Y461202D01*
X419748Y463189D01*
X422345Y464265D01*
X425155Y464265D01*
X427752Y463189D01*
X429739Y461202D01*
X430815Y458605D01*
X430815Y455795D01*
X429739Y453198D01*
X427752Y451211D01*
X425155Y450135D01*
X422345Y450135D01*
G37*
%LPD*%
%LPC*%
G36*
X422345Y500935D02*
X422345Y500935D01*
X419748Y502011D01*
X417761Y503998D01*
X416685Y506595D01*
X416685Y509405D01*
X417761Y512002D01*
X419748Y513989D01*
X422345Y515065D01*
X425155Y515065D01*
X427752Y513989D01*
X429739Y512002D01*
X430815Y509405D01*
X430815Y506595D01*
X429739Y503998D01*
X427752Y502011D01*
X425155Y500935D01*
X422345Y500935D01*
G37*
%LPD*%
%LPC*%
G36*
X172345Y577135D02*
X172345Y577135D01*
X169748Y578211D01*
X167761Y580198D01*
X166685Y582795D01*
X166685Y585605D01*
X167761Y588202D01*
X169748Y590189D01*
X172345Y591265D01*
X175155Y591265D01*
X177752Y590189D01*
X179739Y588202D01*
X180815Y585605D01*
X180815Y582795D01*
X179739Y580198D01*
X177752Y578211D01*
X175155Y577135D01*
X172345Y577135D01*
G37*
%LPD*%
%LPC*%
G36*
X172345Y272335D02*
X172345Y272335D01*
X169748Y273411D01*
X167761Y275398D01*
X166685Y277995D01*
X166685Y280805D01*
X167761Y283402D01*
X169748Y285389D01*
X172345Y286465D01*
X175155Y286465D01*
X177752Y285389D01*
X179739Y283402D01*
X180815Y280805D01*
X180815Y277995D01*
X179739Y275398D01*
X177752Y273411D01*
X175155Y272335D01*
X172345Y272335D01*
G37*
%LPD*%
%LPC*%
G36*
X422345Y348535D02*
X422345Y348535D01*
X419748Y349611D01*
X417761Y351598D01*
X416685Y354195D01*
X416685Y357005D01*
X417761Y359602D01*
X419748Y361589D01*
X422345Y362665D01*
X425155Y362665D01*
X427752Y361589D01*
X429739Y359602D01*
X430815Y357005D01*
X430815Y354195D01*
X429739Y351598D01*
X427752Y349611D01*
X425155Y348535D01*
X422345Y348535D01*
G37*
%LPD*%
%LPC*%
G36*
X172345Y602535D02*
X172345Y602535D01*
X169748Y603611D01*
X167761Y605598D01*
X166685Y608195D01*
X166685Y611005D01*
X167761Y613602D01*
X169748Y615589D01*
X172345Y616665D01*
X175155Y616665D01*
X177752Y615589D01*
X179739Y613602D01*
X180815Y611005D01*
X180815Y608195D01*
X179739Y605598D01*
X177752Y603611D01*
X175155Y602535D01*
X172345Y602535D01*
G37*
%LPD*%
%LPC*%
G36*
X422345Y551735D02*
X422345Y551735D01*
X419748Y552811D01*
X417761Y554798D01*
X416685Y557395D01*
X416685Y560205D01*
X417761Y562802D01*
X419748Y564789D01*
X422345Y565865D01*
X425155Y565865D01*
X427752Y564789D01*
X429739Y562802D01*
X430815Y560205D01*
X430815Y557395D01*
X429739Y554798D01*
X427752Y552811D01*
X425155Y551735D01*
X422345Y551735D01*
G37*
%LPD*%
%LPC*%
G36*
X172345Y399335D02*
X172345Y399335D01*
X169748Y400411D01*
X167761Y402398D01*
X166685Y404995D01*
X166685Y407805D01*
X167761Y410402D01*
X169748Y412389D01*
X172345Y413465D01*
X175155Y413465D01*
X177752Y412389D01*
X179739Y410402D01*
X180815Y407805D01*
X180815Y404995D01*
X179739Y402398D01*
X177752Y400411D01*
X175155Y399335D01*
X172345Y399335D01*
G37*
%LPD*%
%LPC*%
G36*
X172345Y424735D02*
X172345Y424735D01*
X169748Y425811D01*
X167761Y427798D01*
X166685Y430395D01*
X166685Y433205D01*
X167761Y435802D01*
X169748Y437789D01*
X172345Y438865D01*
X175155Y438865D01*
X177752Y437789D01*
X179739Y435802D01*
X180815Y433205D01*
X180815Y430395D01*
X179739Y427798D01*
X177752Y425811D01*
X175155Y424735D01*
X172345Y424735D01*
G37*
%LPD*%
%LPC*%
G36*
X172345Y373935D02*
X172345Y373935D01*
X169748Y375011D01*
X167761Y376998D01*
X166685Y379595D01*
X166685Y382405D01*
X167761Y385002D01*
X169748Y386989D01*
X172345Y388065D01*
X175155Y388065D01*
X177752Y386989D01*
X179739Y385002D01*
X180815Y382405D01*
X180815Y379595D01*
X179739Y376998D01*
X177752Y375011D01*
X175155Y373935D01*
X172345Y373935D01*
G37*
%LPD*%
%LPC*%
G36*
X422345Y373935D02*
X422345Y373935D01*
X419748Y375011D01*
X417761Y376998D01*
X416685Y379595D01*
X416685Y382405D01*
X417761Y385002D01*
X419748Y386989D01*
X422345Y388065D01*
X425155Y388065D01*
X427752Y386989D01*
X429739Y385002D01*
X430815Y382405D01*
X430815Y379595D01*
X429739Y376998D01*
X427752Y375011D01*
X425155Y373935D01*
X422345Y373935D01*
G37*
%LPD*%
%LPC*%
G36*
X172345Y450135D02*
X172345Y450135D01*
X169748Y451211D01*
X167761Y453198D01*
X166685Y455795D01*
X166685Y458605D01*
X167761Y461202D01*
X169748Y463189D01*
X172345Y464265D01*
X175155Y464265D01*
X177752Y463189D01*
X179739Y461202D01*
X180815Y458605D01*
X180815Y455795D01*
X179739Y453198D01*
X177752Y451211D01*
X175155Y450135D01*
X172345Y450135D01*
G37*
%LPD*%
%LPC*%
G36*
X422345Y323135D02*
X422345Y323135D01*
X419748Y324211D01*
X417761Y326198D01*
X416685Y328795D01*
X416685Y331605D01*
X417761Y334202D01*
X419748Y336189D01*
X422345Y337265D01*
X425155Y337265D01*
X427752Y336189D01*
X429739Y334202D01*
X430815Y331605D01*
X430815Y328795D01*
X429739Y326198D01*
X427752Y324211D01*
X425155Y323135D01*
X422345Y323135D01*
G37*
%LPD*%
%LPC*%
G36*
X422345Y577135D02*
X422345Y577135D01*
X419748Y578211D01*
X417761Y580198D01*
X416685Y582795D01*
X416685Y585605D01*
X417761Y588202D01*
X419748Y590189D01*
X422345Y591265D01*
X425155Y591265D01*
X427752Y590189D01*
X429739Y588202D01*
X430815Y585605D01*
X430815Y582795D01*
X429739Y580198D01*
X427752Y578211D01*
X425155Y577135D01*
X422345Y577135D01*
G37*
%LPD*%
%LPC*%
G36*
X383193Y993393D02*
X383193Y993393D01*
X383193Y1001451D01*
X389044Y1001451D01*
X389691Y1001278D01*
X390270Y1000943D01*
X390743Y1000470D01*
X391078Y999891D01*
X391251Y999244D01*
X391251Y993393D01*
X383193Y993393D01*
G37*
%LPD*%
%LPC*%
G36*
X216753Y109473D02*
X216753Y109473D01*
X216753Y117531D01*
X222604Y117531D01*
X223251Y117358D01*
X223830Y117023D01*
X224303Y116550D01*
X224638Y115971D01*
X224811Y115324D01*
X224811Y109473D01*
X216753Y109473D01*
G37*
%LPD*%
%LPC*%
G36*
X114553Y394623D02*
X114553Y394623D01*
X114553Y402681D01*
X120404Y402681D01*
X121051Y402508D01*
X121630Y402173D01*
X122103Y401700D01*
X122438Y401121D01*
X122611Y400474D01*
X122611Y394623D01*
X114553Y394623D01*
G37*
%LPD*%
%LPC*%
G36*
X484123Y446623D02*
X484123Y446623D01*
X484123Y454681D01*
X489974Y454681D01*
X490621Y454508D01*
X491200Y454173D01*
X491673Y453700D01*
X492008Y453121D01*
X492181Y452474D01*
X492181Y446623D01*
X484123Y446623D01*
G37*
%LPD*%
%LPC*%
G36*
X115823Y547023D02*
X115823Y547023D01*
X115823Y555081D01*
X121674Y555081D01*
X122321Y554908D01*
X122900Y554573D01*
X123373Y554100D01*
X123708Y553521D01*
X123881Y552874D01*
X123881Y547023D01*
X115823Y547023D01*
G37*
%LPD*%
%LPC*%
G36*
X484123Y294223D02*
X484123Y294223D01*
X484123Y302281D01*
X489974Y302281D01*
X490621Y302108D01*
X491200Y301773D01*
X491673Y301300D01*
X492008Y300721D01*
X492181Y300074D01*
X492181Y294223D01*
X484123Y294223D01*
G37*
%LPD*%
%LPC*%
G36*
X484123Y599023D02*
X484123Y599023D01*
X484123Y607081D01*
X489974Y607081D01*
X490621Y606908D01*
X491200Y606573D01*
X491673Y606100D01*
X492008Y605521D01*
X492181Y604874D01*
X492181Y599023D01*
X484123Y599023D01*
G37*
%LPD*%
%LPC*%
G36*
X205649Y109473D02*
X205649Y109473D01*
X205649Y115324D01*
X205822Y115971D01*
X206157Y116550D01*
X206630Y117023D01*
X207209Y117358D01*
X207856Y117531D01*
X213707Y117531D01*
X213707Y109473D01*
X205649Y109473D01*
G37*
%LPD*%
%LPC*%
G36*
X372089Y993393D02*
X372089Y993393D01*
X372089Y999244D01*
X372262Y999891D01*
X372597Y1000470D01*
X373070Y1000943D01*
X373649Y1001278D01*
X374296Y1001451D01*
X380147Y1001451D01*
X380147Y993393D01*
X372089Y993393D01*
G37*
%LPD*%
%LPC*%
G36*
X473019Y294223D02*
X473019Y294223D01*
X473019Y300074D01*
X473192Y300721D01*
X473527Y301300D01*
X474000Y301773D01*
X474579Y302108D01*
X475226Y302281D01*
X481077Y302281D01*
X481077Y294223D01*
X473019Y294223D01*
G37*
%LPD*%
%LPC*%
G36*
X484123Y587919D02*
X484123Y587919D01*
X484123Y595977D01*
X492181Y595977D01*
X492181Y590126D01*
X492008Y589479D01*
X491673Y588900D01*
X491200Y588427D01*
X490621Y588092D01*
X489974Y587919D01*
X484123Y587919D01*
G37*
%LPD*%
%LPC*%
G36*
X383193Y982289D02*
X383193Y982289D01*
X383193Y990347D01*
X391251Y990347D01*
X391251Y984496D01*
X391078Y983849D01*
X390743Y983270D01*
X390270Y982797D01*
X389691Y982462D01*
X389044Y982289D01*
X383193Y982289D01*
G37*
%LPD*%
%LPC*%
G36*
X114553Y383519D02*
X114553Y383519D01*
X114553Y391577D01*
X122611Y391577D01*
X122611Y385726D01*
X122438Y385079D01*
X122103Y384500D01*
X121630Y384027D01*
X121051Y383692D01*
X120404Y383519D01*
X114553Y383519D01*
G37*
%LPD*%
%LPC*%
G36*
X104719Y698153D02*
X104719Y698153D01*
X104719Y704004D01*
X104892Y704651D01*
X105227Y705230D01*
X105700Y705703D01*
X106279Y706038D01*
X106926Y706211D01*
X112777Y706211D01*
X112777Y698153D01*
X104719Y698153D01*
G37*
%LPD*%
%LPC*%
G36*
X473019Y446623D02*
X473019Y446623D01*
X473019Y452474D01*
X473192Y453121D01*
X473527Y453700D01*
X474000Y454173D01*
X474579Y454508D01*
X475226Y454681D01*
X481077Y454681D01*
X481077Y446623D01*
X473019Y446623D01*
G37*
%LPD*%
%LPC*%
G36*
X115823Y687049D02*
X115823Y687049D01*
X115823Y695107D01*
X123881Y695107D01*
X123881Y689256D01*
X123708Y688609D01*
X123373Y688030D01*
X122900Y687557D01*
X122321Y687222D01*
X121674Y687049D01*
X115823Y687049D01*
G37*
%LPD*%
%LPC*%
G36*
X115823Y535919D02*
X115823Y535919D01*
X115823Y543977D01*
X123881Y543977D01*
X123881Y538126D01*
X123708Y537479D01*
X123373Y536900D01*
X122900Y536427D01*
X122321Y536092D01*
X121674Y535919D01*
X115823Y535919D01*
G37*
%LPD*%
%LPC*%
G36*
X104719Y547023D02*
X104719Y547023D01*
X104719Y552874D01*
X104892Y553521D01*
X105227Y554100D01*
X105700Y554573D01*
X106279Y554908D01*
X106926Y555081D01*
X112777Y555081D01*
X112777Y547023D01*
X104719Y547023D01*
G37*
%LPD*%
%LPC*%
G36*
X484123Y435519D02*
X484123Y435519D01*
X484123Y443577D01*
X492181Y443577D01*
X492181Y437726D01*
X492008Y437079D01*
X491673Y436500D01*
X491200Y436027D01*
X490621Y435692D01*
X489974Y435519D01*
X484123Y435519D01*
G37*
%LPD*%
%LPC*%
G36*
X103449Y394623D02*
X103449Y394623D01*
X103449Y400474D01*
X103622Y401121D01*
X103957Y401700D01*
X104430Y402173D01*
X105009Y402508D01*
X105656Y402681D01*
X111507Y402681D01*
X111507Y394623D01*
X103449Y394623D01*
G37*
%LPD*%
%LPC*%
G36*
X484123Y283119D02*
X484123Y283119D01*
X484123Y291177D01*
X492181Y291177D01*
X492181Y285326D01*
X492008Y284679D01*
X491673Y284100D01*
X491200Y283627D01*
X490621Y283292D01*
X489974Y283119D01*
X484123Y283119D01*
G37*
%LPD*%
%LPC*%
G36*
X473019Y599023D02*
X473019Y599023D01*
X473019Y604874D01*
X473192Y605521D01*
X473527Y606100D01*
X474000Y606573D01*
X474579Y606908D01*
X475226Y607081D01*
X481077Y607081D01*
X481077Y599023D01*
X473019Y599023D01*
G37*
%LPD*%
%LPC*%
G36*
X216753Y98369D02*
X216753Y98369D01*
X216753Y106427D01*
X224811Y106427D01*
X224811Y100576D01*
X224638Y99929D01*
X224303Y99350D01*
X223830Y98877D01*
X223251Y98542D01*
X222604Y98369D01*
X216753Y98369D01*
G37*
%LPD*%
%LPC*%
G36*
X105656Y383519D02*
X105656Y383519D01*
X105009Y383692D01*
X104430Y384027D01*
X103957Y384500D01*
X103622Y385079D01*
X103449Y385726D01*
X103449Y391577D01*
X111507Y391577D01*
X111507Y383519D01*
X105656Y383519D01*
G37*
%LPD*%
%LPC*%
G36*
X475226Y435519D02*
X475226Y435519D01*
X474579Y435692D01*
X474000Y436027D01*
X473527Y436500D01*
X473192Y437079D01*
X473019Y437726D01*
X473019Y443577D01*
X481077Y443577D01*
X481077Y435519D01*
X475226Y435519D01*
G37*
%LPD*%
%LPC*%
G36*
X475226Y587919D02*
X475226Y587919D01*
X474579Y588092D01*
X474000Y588427D01*
X473527Y588900D01*
X473192Y589479D01*
X473019Y590126D01*
X473019Y595977D01*
X481077Y595977D01*
X481077Y587919D01*
X475226Y587919D01*
G37*
%LPD*%
%LPC*%
G36*
X106926Y535919D02*
X106926Y535919D01*
X106279Y536092D01*
X105700Y536427D01*
X105227Y536900D01*
X104892Y537479D01*
X104719Y538126D01*
X104719Y543977D01*
X112777Y543977D01*
X112777Y535919D01*
X106926Y535919D01*
G37*
%LPD*%
%LPC*%
G36*
X475226Y283119D02*
X475226Y283119D01*
X474579Y283292D01*
X474000Y283627D01*
X473527Y284100D01*
X473192Y284679D01*
X473019Y285326D01*
X473019Y291177D01*
X481077Y291177D01*
X481077Y283119D01*
X475226Y283119D01*
G37*
%LPD*%
%LPC*%
G36*
X106926Y687049D02*
X106926Y687049D01*
X106279Y687222D01*
X105700Y687557D01*
X105227Y688030D01*
X104892Y688609D01*
X104719Y689256D01*
X104719Y695107D01*
X112777Y695107D01*
X112777Y687049D01*
X106926Y687049D01*
G37*
%LPD*%
%LPC*%
G36*
X374296Y982289D02*
X374296Y982289D01*
X373649Y982462D01*
X373070Y982797D01*
X372597Y983270D01*
X372262Y983849D01*
X372089Y984496D01*
X372089Y990347D01*
X380147Y990347D01*
X380147Y982289D01*
X374296Y982289D01*
G37*
%LPD*%
%LPC*%
G36*
X207856Y98369D02*
X207856Y98369D01*
X207209Y98542D01*
X206630Y98877D01*
X206157Y99350D01*
X205822Y99929D01*
X205649Y100576D01*
X205649Y106427D01*
X213707Y106427D01*
X213707Y98369D01*
X207856Y98369D01*
G37*
%LPD*%
%LPC*%
G36*
X399033Y933703D02*
X399033Y933703D01*
X399033Y942940D01*
X400054Y942778D01*
X401681Y942250D01*
X403205Y941473D01*
X404589Y940468D01*
X405798Y939259D01*
X406803Y937875D01*
X407580Y936351D01*
X408108Y934724D01*
X408270Y933703D01*
X399033Y933703D01*
G37*
%LPD*%
%LPC*%
G36*
X399033Y930657D02*
X399033Y930657D01*
X408270Y930657D01*
X408108Y929636D01*
X407580Y928009D01*
X406803Y926485D01*
X405798Y925101D01*
X404589Y923892D01*
X403205Y922887D01*
X401681Y922110D01*
X400054Y921582D01*
X399033Y921420D01*
X399033Y930657D01*
G37*
%LPD*%
%LPC*%
G36*
X85343Y764793D02*
X85343Y764793D01*
X85343Y772415D01*
X87608Y772415D01*
X92965Y767058D01*
X92965Y764793D01*
X85343Y764793D01*
G37*
%LPD*%
%LPC*%
G36*
X84073Y840993D02*
X84073Y840993D01*
X84073Y848615D01*
X86338Y848615D01*
X91695Y843258D01*
X91695Y840993D01*
X84073Y840993D01*
G37*
%LPD*%
%LPC*%
G36*
X85343Y915923D02*
X85343Y915923D01*
X85343Y923545D01*
X87608Y923545D01*
X92965Y918188D01*
X92965Y915923D01*
X85343Y915923D01*
G37*
%LPD*%
%LPC*%
G36*
X73405Y840993D02*
X73405Y840993D01*
X73405Y843258D01*
X78762Y848615D01*
X81027Y848615D01*
X81027Y840993D01*
X73405Y840993D01*
G37*
%LPD*%
%LPC*%
G36*
X74675Y915923D02*
X74675Y915923D01*
X74675Y918188D01*
X80032Y923545D01*
X82297Y923545D01*
X82297Y915923D01*
X74675Y915923D01*
G37*
%LPD*%
%LPC*%
G36*
X74675Y764793D02*
X74675Y764793D01*
X74675Y767058D01*
X80032Y772415D01*
X82297Y772415D01*
X82297Y764793D01*
X74675Y764793D01*
G37*
%LPD*%
%LPC*%
G36*
X85343Y905255D02*
X85343Y905255D01*
X85343Y912877D01*
X92965Y912877D01*
X92965Y910612D01*
X87608Y905255D01*
X85343Y905255D01*
G37*
%LPD*%
%LPC*%
G36*
X84073Y830325D02*
X84073Y830325D01*
X84073Y837947D01*
X91695Y837947D01*
X91695Y835682D01*
X86338Y830325D01*
X84073Y830325D01*
G37*
%LPD*%
%LPC*%
G36*
X85343Y754125D02*
X85343Y754125D01*
X85343Y761747D01*
X92965Y761747D01*
X92965Y759482D01*
X87608Y754125D01*
X85343Y754125D01*
G37*
%LPD*%
%LPC*%
G36*
X80032Y905255D02*
X80032Y905255D01*
X74675Y910612D01*
X74675Y912877D01*
X82297Y912877D01*
X82297Y905255D01*
X80032Y905255D01*
G37*
%LPD*%
%LPC*%
G36*
X78762Y830325D02*
X78762Y830325D01*
X73405Y835682D01*
X73405Y837947D01*
X81027Y837947D01*
X81027Y830325D01*
X78762Y830325D01*
G37*
%LPD*%
%LPC*%
G36*
X80032Y754125D02*
X80032Y754125D01*
X74675Y759482D01*
X74675Y761747D01*
X82297Y761747D01*
X82297Y754125D01*
X80032Y754125D01*
G37*
%LPD*%
%LPC*%
G36*
X194723Y1023873D02*
X194723Y1023873D01*
X194723Y1030796D01*
X195703Y1030601D01*
X197265Y1029954D01*
X198670Y1029015D01*
X199865Y1027820D01*
X200804Y1026415D01*
X201451Y1024853D01*
X201646Y1023873D01*
X194723Y1023873D01*
G37*
%LPD*%
%LPC*%
G36*
X513333Y125823D02*
X513333Y125823D01*
X513333Y132746D01*
X514313Y132551D01*
X515875Y131904D01*
X517280Y130965D01*
X518475Y129770D01*
X519414Y128365D01*
X520061Y126803D01*
X520256Y125823D01*
X513333Y125823D01*
G37*
%LPD*%
%LPC*%
G36*
X513333Y227423D02*
X513333Y227423D01*
X513333Y234346D01*
X514313Y234151D01*
X515875Y233504D01*
X517280Y232565D01*
X518475Y231370D01*
X519414Y229965D01*
X520061Y228403D01*
X520256Y227423D01*
X513333Y227423D01*
G37*
%LPD*%
%LPC*%
G36*
X85343Y128683D02*
X85343Y128683D01*
X85343Y135606D01*
X86323Y135411D01*
X87885Y134764D01*
X89290Y133825D01*
X90485Y132630D01*
X91424Y131225D01*
X92071Y129663D01*
X92266Y128683D01*
X85343Y128683D01*
G37*
%LPD*%
%LPC*%
G36*
X84073Y215043D02*
X84073Y215043D01*
X84073Y221966D01*
X85053Y221771D01*
X86615Y221124D01*
X88020Y220185D01*
X89215Y218990D01*
X90154Y217585D01*
X90801Y216023D01*
X90996Y215043D01*
X84073Y215043D01*
G37*
%LPD*%
%LPC*%
G36*
X141063Y80263D02*
X141063Y80263D01*
X141063Y87186D01*
X142043Y86991D01*
X143605Y86344D01*
X145010Y85405D01*
X146205Y84210D01*
X147144Y82805D01*
X147791Y81243D01*
X147986Y80263D01*
X141063Y80263D01*
G37*
%LPD*%
%LPC*%
G36*
X131094Y80263D02*
X131094Y80263D01*
X131289Y81243D01*
X131936Y82805D01*
X131941Y82813D01*
X132875Y84210D01*
X134070Y85405D01*
X135475Y86344D01*
X137037Y86991D01*
X138017Y87186D01*
X138017Y80263D01*
X131094Y80263D01*
G37*
%LPD*%
%LPC*%
G36*
X84073Y211997D02*
X84073Y211997D01*
X90996Y211997D01*
X90801Y211017D01*
X90154Y209455D01*
X89215Y208050D01*
X88020Y206855D01*
X86615Y205916D01*
X85053Y205269D01*
X84073Y205074D01*
X84073Y211997D01*
G37*
%LPD*%
%LPC*%
G36*
X513333Y122777D02*
X513333Y122777D01*
X520256Y122777D01*
X520061Y121797D01*
X519414Y120235D01*
X518475Y118830D01*
X517280Y117635D01*
X515875Y116696D01*
X514313Y116049D01*
X513333Y115854D01*
X513333Y122777D01*
G37*
%LPD*%
%LPC*%
G36*
X85343Y125637D02*
X85343Y125637D01*
X92266Y125637D01*
X92071Y124657D01*
X91424Y123095D01*
X90485Y121690D01*
X89290Y120495D01*
X87885Y119556D01*
X86323Y118909D01*
X85343Y118714D01*
X85343Y125637D01*
G37*
%LPD*%
%LPC*%
G36*
X503364Y125823D02*
X503364Y125823D01*
X503559Y126803D01*
X504206Y128365D01*
X505145Y129770D01*
X506340Y130965D01*
X507745Y131904D01*
X509307Y132551D01*
X510287Y132746D01*
X510287Y125823D01*
X503364Y125823D01*
G37*
%LPD*%
%LPC*%
G36*
X194723Y1020827D02*
X194723Y1020827D01*
X201646Y1020827D01*
X201451Y1019847D01*
X200804Y1018285D01*
X199865Y1016880D01*
X198670Y1015685D01*
X197265Y1014746D01*
X195703Y1014099D01*
X194723Y1013904D01*
X194723Y1020827D01*
G37*
%LPD*%
%LPC*%
G36*
X75374Y128683D02*
X75374Y128683D01*
X75569Y129663D01*
X76216Y131225D01*
X77155Y132630D01*
X78350Y133825D01*
X79755Y134764D01*
X81317Y135411D01*
X82297Y135606D01*
X82297Y128683D01*
X75374Y128683D01*
G37*
%LPD*%
%LPC*%
G36*
X503364Y227423D02*
X503364Y227423D01*
X503559Y228403D01*
X504206Y229965D01*
X505145Y231370D01*
X506340Y232565D01*
X507745Y233504D01*
X509307Y234151D01*
X510287Y234346D01*
X510287Y227423D01*
X503364Y227423D01*
G37*
%LPD*%
%LPC*%
G36*
X513333Y224377D02*
X513333Y224377D01*
X520256Y224377D01*
X520061Y223397D01*
X519414Y221835D01*
X518475Y220430D01*
X517280Y219235D01*
X515875Y218296D01*
X514313Y217649D01*
X513333Y217454D01*
X513333Y224377D01*
G37*
%LPD*%
%LPC*%
G36*
X184754Y1023873D02*
X184754Y1023873D01*
X184949Y1024853D01*
X185596Y1026415D01*
X186535Y1027820D01*
X187730Y1029015D01*
X189135Y1029954D01*
X190697Y1030601D01*
X191677Y1030796D01*
X191677Y1023873D01*
X184754Y1023873D01*
G37*
%LPD*%
%LPC*%
G36*
X141063Y77217D02*
X141063Y77217D01*
X147986Y77217D01*
X147791Y76237D01*
X147144Y74675D01*
X146205Y73270D01*
X145010Y72075D01*
X143605Y71136D01*
X142043Y70489D01*
X141063Y70294D01*
X141063Y77217D01*
G37*
%LPD*%
%LPC*%
G36*
X81317Y118909D02*
X81317Y118909D01*
X79755Y119556D01*
X78350Y120495D01*
X77155Y121690D01*
X76216Y123095D01*
X75569Y124657D01*
X75374Y125637D01*
X82297Y125637D01*
X82297Y118714D01*
X81317Y118909D01*
G37*
%LPD*%
%LPC*%
G36*
X190697Y1014099D02*
X190697Y1014099D01*
X189135Y1014746D01*
X187730Y1015685D01*
X186535Y1016880D01*
X185596Y1018285D01*
X184949Y1019847D01*
X184754Y1020827D01*
X191677Y1020827D01*
X191677Y1013904D01*
X190697Y1014099D01*
G37*
%LPD*%
%LPC*%
G36*
X509307Y217649D02*
X509307Y217649D01*
X507745Y218296D01*
X506340Y219235D01*
X505145Y220430D01*
X504206Y221835D01*
X503559Y223397D01*
X503364Y224377D01*
X510287Y224377D01*
X510287Y217454D01*
X509307Y217649D01*
G37*
%LPD*%
%LPC*%
G36*
X509307Y116049D02*
X509307Y116049D01*
X507745Y116696D01*
X506340Y117635D01*
X505145Y118830D01*
X504206Y120235D01*
X503559Y121797D01*
X503364Y122777D01*
X510287Y122777D01*
X510287Y115854D01*
X509307Y116049D01*
G37*
%LPD*%
%LPC*%
G36*
X137037Y70489D02*
X137037Y70489D01*
X135475Y71136D01*
X134070Y72075D01*
X132875Y73270D01*
X131936Y74675D01*
X131289Y76237D01*
X131094Y77217D01*
X138017Y77217D01*
X138017Y70294D01*
X137037Y70489D01*
G37*
%LPD*%
%LPC*%
G36*
X175249Y306299D02*
X175249Y306299D01*
X175249Y312741D01*
X176107Y312570D01*
X177578Y311961D01*
X178901Y311077D01*
X180027Y309951D01*
X180911Y308628D01*
X181520Y307157D01*
X181691Y306299D01*
X175249Y306299D01*
G37*
%LPD*%
%LPC*%
G36*
X425249Y306299D02*
X425249Y306299D01*
X425249Y312741D01*
X426107Y312570D01*
X427578Y311961D01*
X428901Y311077D01*
X430027Y309951D01*
X430911Y308628D01*
X431520Y307157D01*
X431691Y306299D01*
X425249Y306299D01*
G37*
%LPD*%
%LPC*%
G36*
X165809Y306299D02*
X165809Y306299D01*
X165980Y307157D01*
X166589Y308628D01*
X167473Y309951D01*
X168599Y311077D01*
X169922Y311961D01*
X171393Y312570D01*
X172251Y312741D01*
X172251Y306299D01*
X165809Y306299D01*
G37*
%LPD*%
%LPC*%
G36*
X415809Y306299D02*
X415809Y306299D01*
X415980Y307157D01*
X416589Y308628D01*
X417473Y309951D01*
X418599Y311077D01*
X419922Y311961D01*
X421393Y312570D01*
X422251Y312741D01*
X422251Y306299D01*
X415809Y306299D01*
G37*
%LPD*%
%LPC*%
G36*
X425249Y303301D02*
X425249Y303301D01*
X431691Y303301D01*
X431520Y302443D01*
X430911Y300972D01*
X430027Y299649D01*
X428901Y298523D01*
X427578Y297639D01*
X426107Y297030D01*
X425249Y296859D01*
X425249Y303301D01*
G37*
%LPD*%
%LPC*%
G36*
X175249Y303301D02*
X175249Y303301D01*
X181691Y303301D01*
X181520Y302443D01*
X180911Y300972D01*
X180027Y299649D01*
X178901Y298523D01*
X177578Y297639D01*
X176107Y297030D01*
X175249Y296859D01*
X175249Y303301D01*
G37*
%LPD*%
%LPC*%
G36*
X171393Y297030D02*
X171393Y297030D01*
X169922Y297639D01*
X168599Y298523D01*
X167473Y299649D01*
X166589Y300972D01*
X165980Y302443D01*
X165809Y303301D01*
X172251Y303301D01*
X172251Y296859D01*
X171393Y297030D01*
G37*
%LPD*%
%LPC*%
G36*
X421393Y297030D02*
X421393Y297030D01*
X419922Y297639D01*
X418599Y298523D01*
X417473Y299649D01*
X416589Y300972D01*
X415980Y302443D01*
X415809Y303301D01*
X422251Y303301D01*
X422251Y296859D01*
X421393Y297030D01*
G37*
%LPD*%
%LPC*%
G36*
X511809Y124299D02*
X511809Y124299D01*
X511809Y124301D01*
X511811Y124301D01*
X511811Y124299D01*
X511809Y124299D01*
G37*
%LPD*%
%LPC*%
G36*
X82549Y839469D02*
X82549Y839469D01*
X82549Y839471D01*
X82551Y839471D01*
X82551Y839469D01*
X82549Y839469D01*
G37*
%LPD*%
%LPC*%
G36*
X482599Y597499D02*
X482599Y597499D01*
X482599Y597501D01*
X482601Y597501D01*
X482601Y597499D01*
X482599Y597499D01*
G37*
%LPD*%
%LPC*%
G36*
X113029Y393099D02*
X113029Y393099D01*
X113029Y393101D01*
X113031Y393101D01*
X113031Y393099D01*
X113029Y393099D01*
G37*
%LPD*%
%LPC*%
G36*
X482599Y445099D02*
X482599Y445099D01*
X482599Y445101D01*
X482601Y445101D01*
X482601Y445099D01*
X482599Y445099D01*
G37*
%LPD*%
%LPC*%
G36*
X193199Y1022349D02*
X193199Y1022349D01*
X193199Y1022351D01*
X193201Y1022351D01*
X193201Y1022349D01*
X193199Y1022349D01*
G37*
%LPD*%
%LPC*%
G36*
X114299Y696629D02*
X114299Y696629D01*
X114299Y696631D01*
X114301Y696631D01*
X114301Y696629D01*
X114299Y696629D01*
G37*
%LPD*%
%LPC*%
G36*
X215229Y107949D02*
X215229Y107949D01*
X215229Y107951D01*
X215231Y107951D01*
X215231Y107949D01*
X215229Y107949D01*
G37*
%LPD*%
%LPC*%
G36*
X381669Y991869D02*
X381669Y991869D01*
X381669Y991871D01*
X381671Y991871D01*
X381671Y991869D01*
X381669Y991869D01*
G37*
%LPD*%
%LPC*%
G36*
X83819Y763269D02*
X83819Y763269D01*
X83819Y763271D01*
X83821Y763271D01*
X83821Y763269D01*
X83819Y763269D01*
G37*
%LPD*%
%LPC*%
G36*
X114299Y545499D02*
X114299Y545499D01*
X114299Y545501D01*
X114301Y545501D01*
X114301Y545499D01*
X114299Y545499D01*
G37*
%LPD*%
%LPC*%
G36*
X482599Y292699D02*
X482599Y292699D01*
X482599Y292701D01*
X482601Y292701D01*
X482601Y292699D01*
X482599Y292699D01*
G37*
%LPD*%
%LPC*%
G36*
X139539Y78739D02*
X139539Y78739D01*
X139539Y78741D01*
X139541Y78741D01*
X139541Y78739D01*
X139539Y78739D01*
G37*
%LPD*%
%LPC*%
G36*
X511809Y225899D02*
X511809Y225899D01*
X511809Y225901D01*
X511811Y225901D01*
X511811Y225899D01*
X511809Y225899D01*
G37*
%LPD*%
%LPC*%
G36*
X83819Y914399D02*
X83819Y914399D01*
X83819Y914401D01*
X83821Y914401D01*
X83821Y914399D01*
X83819Y914399D01*
G37*
%LPD*%
%LPC*%
G36*
X83819Y127159D02*
X83819Y127159D01*
X83819Y127161D01*
X83821Y127161D01*
X83821Y127159D01*
X83819Y127159D01*
G37*
%LPD*%
D10*
X511810Y205900D03*
D11*
X511810Y225900D03*
D12*
X482600Y597500D03*
D13*
X482600Y622500D03*
X482600Y647500D03*
X482600Y672500D03*
D12*
X114300Y545500D03*
D13*
X114300Y520500D03*
X114300Y495500D03*
X114300Y470500D03*
D12*
X482600Y445100D03*
D13*
X482600Y470100D03*
X482600Y495100D03*
X482600Y520100D03*
D12*
X113030Y393100D03*
D13*
X113030Y368100D03*
X113030Y343100D03*
X113030Y318100D03*
D12*
X482600Y292700D03*
D13*
X482600Y317700D03*
X482600Y342700D03*
X482600Y367700D03*
D10*
X82550Y233520D03*
D11*
X82550Y213520D03*
D10*
X83820Y147160D03*
D11*
X83820Y127160D03*
D10*
X511810Y104300D03*
D11*
X511810Y124300D03*
D10*
X213200Y1022350D03*
D11*
X193200Y1022350D03*
D10*
X119540Y78740D03*
D11*
X139540Y78740D03*
D12*
X381670Y991870D03*
D13*
X356670Y991870D03*
X331670Y991870D03*
X306670Y991870D03*
D12*
X215230Y107950D03*
D13*
X240230Y107950D03*
X265230Y107950D03*
X290230Y107950D03*
D12*
X114300Y696630D03*
D13*
X114300Y671630D03*
X114300Y646630D03*
X114300Y621630D03*
D14*
X58420Y763270D03*
X83820Y763270D03*
X58420Y914400D03*
X83820Y914400D03*
X57150Y839470D03*
X82550Y839470D03*
D15*
X314960Y233680D03*
X416560Y233680D03*
D16*
X278130Y233680D03*
X176530Y233680D03*
X363220Y400050D03*
X261620Y400050D03*
X363220Y496570D03*
X261620Y496570D03*
X363220Y448310D03*
X261620Y448310D03*
D17*
X173750Y635000D03*
X423750Y635000D03*
D18*
X173750Y609600D03*
X173750Y584200D03*
X173750Y558800D03*
X173750Y533400D03*
X173750Y508000D03*
X173750Y482600D03*
X173750Y457200D03*
X173750Y431800D03*
X173750Y406400D03*
X173750Y381000D03*
X173750Y355600D03*
X173750Y330200D03*
X173750Y304800D03*
X173750Y279400D03*
X423750Y609600D03*
X423750Y584200D03*
X423750Y558800D03*
X423750Y533400D03*
X423750Y508000D03*
X423750Y482600D03*
X423750Y457200D03*
X423750Y431800D03*
X423750Y406400D03*
X423750Y381000D03*
X423750Y355600D03*
X423750Y330200D03*
X423750Y304800D03*
X423750Y279400D03*
D19*
X422910Y932180D03*
X397510Y932180D03*
X372110Y932180D03*
X346710Y932180D03*
X321310Y932180D03*
X295910Y932180D03*
X270510Y932180D03*
X245110Y932180D03*
X219710Y932180D03*
X194310Y932180D03*
X168910Y932180D03*
X143510Y932180D03*
X143510Y754380D03*
X168910Y754380D03*
X194310Y754380D03*
X219710Y754380D03*
X245110Y754380D03*
X270510Y754380D03*
X295910Y754380D03*
X321310Y754380D03*
X346710Y754380D03*
X372110Y754380D03*
X397510Y754380D03*
X422910Y754380D03*
D20*
X410210Y843280D03*
X156210Y843280D03*
D21*
X422910Y932180D02*
X436880Y932180D01*
X500380Y868680D02*
X500380Y628650D01*
X495300Y623570D01*
D22*
X483670Y623570D02*
X482600Y622500D01*
D21*
X500380Y868680D02*
X436880Y932180D01*
X483670Y623570D02*
X495300Y623570D01*
X500380Y618490D01*
X527050Y97790D02*
X520700Y91440D01*
X245110Y91440D01*
X240230Y96320D02*
X240230Y107950D01*
X527050Y97790D02*
X527050Y286150D01*
X245110Y91440D02*
X240230Y96320D01*
X207410Y63500D01*
X111760Y63500D01*
X58420Y116840D01*
X58420Y260350D01*
X31750Y741480D02*
X31750Y928370D01*
X140970Y1037590D01*
X356670Y1004770D02*
X356670Y991870D01*
X323850Y1037590D02*
X140970Y1037590D01*
X323850Y1037590D02*
X356670Y1004770D01*
X423750Y279400D02*
X433070Y279400D01*
X471370Y317700D01*
X482600Y317700D01*
X114300Y671630D02*
X101600Y671630D01*
X31750Y741480D01*
X101600Y671630D02*
X97790Y667820D01*
X97790Y527050D01*
X104340Y520500D02*
X114300Y520500D01*
X104340Y520500D02*
X97790Y527050D01*
X104340Y520500D02*
X97790Y513950D01*
X97790Y374650D01*
D22*
X104340Y368100D02*
X113030Y368100D01*
D21*
X104340Y368100D02*
X97790Y374650D01*
X105210Y368100D02*
X113030Y368100D01*
X105210Y368100D02*
X97790Y360680D01*
X97790Y299720D01*
X58420Y260350D01*
X495300Y469900D02*
X500380Y474980D01*
X495300Y469900D02*
X482800Y469900D01*
D22*
X482600Y470100D01*
D21*
X500380Y474980D02*
X500380Y618490D01*
X495300Y469900D02*
X500380Y464820D01*
X495500Y317700D02*
X482600Y317700D01*
X500380Y322580D02*
X500380Y464820D01*
X500380Y322580D02*
X495500Y317700D01*
X527050Y286150D01*
D22*
X372110Y915670D02*
X372110Y932180D01*
X375920Y533400D02*
X423750Y533400D01*
X283210Y826770D02*
X372110Y915670D01*
X283210Y826770D02*
X283210Y626110D01*
X375920Y533400D01*
X346710Y932180D02*
X346710Y944880D01*
X350520Y948690D01*
X378460Y948690D01*
X402590Y609600D02*
X423750Y609600D01*
X384810Y942340D02*
X378460Y948690D01*
X384810Y942340D02*
X384810Y627380D01*
X402590Y609600D01*
X386080Y400050D02*
X363220Y400050D01*
X392430Y406400D02*
X423750Y406400D01*
X392430Y406400D02*
X386080Y400050D01*
X363220Y496570D02*
X409780Y496570D01*
X423750Y482600D01*
X383540Y448310D02*
X363220Y448310D01*
X400050Y431800D02*
X423750Y431800D01*
X400050Y431800D02*
X383540Y448310D01*
X173750Y558800D02*
X166370Y558800D01*
X163830Y556260D01*
X168910Y524510D02*
X182880Y524510D01*
X203200Y504190D01*
X290830Y241300D02*
X290830Y236220D01*
X288290Y233680D01*
X278130Y233680D01*
X163830Y529590D02*
X163830Y556260D01*
X163830Y529590D02*
X168910Y524510D01*
X203200Y504190D02*
X203200Y328930D01*
X290830Y241300D01*
X208280Y330200D02*
X208280Y505460D01*
X180340Y533400D01*
X173750Y533400D01*
X304800Y233680D02*
X314960Y233680D01*
X304800Y233680D02*
X208280Y330200D01*
X83820Y158750D02*
X83820Y147160D01*
X64770Y177800D02*
X64770Y259080D01*
X96520Y290830D01*
X132080Y290830D01*
X148590Y307340D01*
X148590Y341630D01*
X162560Y355600D01*
X173750Y355600D01*
X64770Y177800D02*
X83820Y158750D01*
X316070Y104300D02*
X511810Y104300D01*
X182880Y330200D02*
X173750Y330200D01*
X227330Y193040D02*
X316070Y104300D01*
X227330Y193040D02*
X227330Y285750D01*
X182880Y330200D01*
X163670Y972820D02*
X213200Y1022350D01*
X163670Y972820D02*
X85090Y972820D01*
X38100Y925830D01*
X38100Y742950D02*
X73660Y707390D01*
X86360Y707390D01*
X96520Y717550D01*
X115570Y717550D01*
X153670Y488950D02*
X160020Y482600D01*
X173750Y482600D01*
X38100Y742950D02*
X38100Y925830D01*
X115570Y717550D02*
X153670Y679450D01*
X153670Y488950D01*
X119540Y130650D02*
X119540Y78740D01*
X119540Y130650D02*
X69850Y180340D01*
X69850Y257810D01*
X98846Y286806D02*
X133747Y286806D01*
X153670Y306729D01*
X153670Y328930D01*
X167640Y342900D01*
X182880Y342900D01*
X186690Y346710D01*
X186690Y501650D01*
X180340Y508000D01*
X173750Y508000D01*
X98846Y286806D02*
X69850Y257810D01*
X481170Y205900D02*
X511810Y205900D01*
X453390Y233680D02*
X416560Y233680D01*
X453390Y233680D02*
X481170Y205900D01*
X176370Y233520D02*
X82550Y233520D01*
X176370Y233520D02*
X176530Y233680D01*
X58420Y754380D02*
X58420Y763270D01*
X58420Y754380D02*
X90170Y722630D01*
X118110Y722630D01*
X237490Y603250D01*
X248920Y400050D02*
X261620Y400050D01*
X237490Y411480D02*
X237490Y603250D01*
X237490Y411480D02*
X248920Y400050D01*
X105410Y852170D02*
X58420Y899160D01*
X58420Y914400D01*
X105410Y852170D02*
X105410Y746760D01*
X247650Y604520D01*
X247650Y500380D01*
X251460Y496570D02*
X261620Y496570D01*
X251460Y496570D02*
X247650Y500380D01*
X101386Y783804D02*
X57150Y828040D01*
X57150Y839470D01*
X250190Y448310D02*
X261620Y448310D01*
X101386Y745093D02*
X101386Y783804D01*
X101386Y745093D02*
X242570Y603909D01*
X242570Y455930D01*
X250190Y448310D01*
X219710Y932180D02*
X219710Y944880D01*
X331670Y980440D02*
X331670Y991870D01*
X331670Y980440D02*
X321510Y970280D01*
X245110Y970280D02*
X219710Y944880D01*
X245110Y970280D02*
X321510Y970280D01*
X306670Y991870D02*
X241300Y991870D01*
X194310Y944880D02*
X194310Y932180D01*
X194310Y944880D02*
X241300Y991870D01*
X397510Y741680D02*
X455930Y683260D01*
X397510Y741680D02*
X397510Y754380D01*
X472640Y342700D02*
X482600Y342700D01*
X455930Y359410D02*
X455930Y683260D01*
X455930Y359410D02*
X472640Y342700D01*
X461010Y684530D02*
X422910Y722630D01*
X422910Y754380D01*
X467960Y367700D02*
X482600Y367700D01*
X461010Y374650D02*
X461010Y684530D01*
X461010Y374650D02*
X467960Y367700D01*
M02*
