G04 EAGLE Gerber RS-274X export*
G75*
%MOMM*%
%FSLAX34Y34*%
%LPD*%
%INSoldermask Top*%
%IPPOS*%
%AMOC8*
5,1,8,0,0,1.08239X$1,22.5*%
G01*
%ADD10C,5.203200*%
%ADD11R,1.411200X1.411200*%
%ADD12C,1.411200*%
%ADD13R,1.611200X1.611200*%
%ADD14C,1.611200*%
%ADD15P,1.649562X8X22.500000*%
%ADD16P,2.034460X8X22.500000*%
%ADD17P,2.034460X8X202.500000*%
%ADD18R,1.311200X1.311200*%
%ADD19C,1.311200*%
%ADD20C,1.868200*%
%ADD21C,4.013200*%


D10*
X40000Y40000D03*
X560000Y40000D03*
X40000Y1060000D03*
X560000Y1060000D03*
D11*
X511810Y205900D03*
D12*
X511810Y225900D03*
D13*
X482600Y597500D03*
D14*
X482600Y622500D03*
X482600Y647500D03*
X482600Y672500D03*
D13*
X114300Y545500D03*
D14*
X114300Y520500D03*
X114300Y495500D03*
X114300Y470500D03*
D13*
X482600Y445100D03*
D14*
X482600Y470100D03*
X482600Y495100D03*
X482600Y520100D03*
D13*
X113030Y393100D03*
D14*
X113030Y368100D03*
X113030Y343100D03*
X113030Y318100D03*
D13*
X482600Y292700D03*
D14*
X482600Y317700D03*
X482600Y342700D03*
X482600Y367700D03*
D11*
X82550Y233520D03*
D12*
X82550Y213520D03*
D11*
X83820Y147160D03*
D12*
X83820Y127160D03*
D11*
X511810Y104300D03*
D12*
X511810Y124300D03*
D11*
X213200Y1022350D03*
D12*
X193200Y1022350D03*
D11*
X119540Y78740D03*
D12*
X139540Y78740D03*
D13*
X381670Y991870D03*
D14*
X356670Y991870D03*
X331670Y991870D03*
X306670Y991870D03*
D13*
X215230Y107950D03*
D14*
X240230Y107950D03*
X265230Y107950D03*
X290230Y107950D03*
D13*
X114300Y696630D03*
D14*
X114300Y671630D03*
X114300Y646630D03*
X114300Y621630D03*
D15*
X58420Y763270D03*
X83820Y763270D03*
X58420Y914400D03*
X83820Y914400D03*
X57150Y839470D03*
X82550Y839470D03*
D16*
X314960Y233680D03*
X416560Y233680D03*
D17*
X278130Y233680D03*
X176530Y233680D03*
X363220Y400050D03*
X261620Y400050D03*
X363220Y496570D03*
X261620Y496570D03*
X363220Y448310D03*
X261620Y448310D03*
D18*
X173750Y635000D03*
X423750Y635000D03*
D19*
X173750Y609600D03*
X173750Y584200D03*
X173750Y558800D03*
X173750Y533400D03*
X173750Y508000D03*
X173750Y482600D03*
X173750Y457200D03*
X173750Y431800D03*
X173750Y406400D03*
X173750Y381000D03*
X173750Y355600D03*
X173750Y330200D03*
X173750Y304800D03*
X173750Y279400D03*
X423750Y609600D03*
X423750Y584200D03*
X423750Y558800D03*
X423750Y533400D03*
X423750Y508000D03*
X423750Y482600D03*
X423750Y457200D03*
X423750Y431800D03*
X423750Y406400D03*
X423750Y381000D03*
X423750Y355600D03*
X423750Y330200D03*
X423750Y304800D03*
X423750Y279400D03*
D20*
X422910Y932180D03*
X397510Y932180D03*
X372110Y932180D03*
X346710Y932180D03*
X321310Y932180D03*
X295910Y932180D03*
X270510Y932180D03*
X245110Y932180D03*
X219710Y932180D03*
X194310Y932180D03*
X168910Y932180D03*
X143510Y932180D03*
X143510Y754380D03*
X168910Y754380D03*
X194310Y754380D03*
X219710Y754380D03*
X245110Y754380D03*
X270510Y754380D03*
X295910Y754380D03*
X321310Y754380D03*
X346710Y754380D03*
X372110Y754380D03*
X397510Y754380D03*
X422910Y754380D03*
D21*
X410210Y843280D03*
X156210Y843280D03*
M02*
