%TF.GenerationSoftware,KiCad,Pcbnew,8.0.1*%
%TF.CreationDate,2026-04-15T10:31:26+08:00*%
%TF.ProjectId,Measurement_Device_PCB,4d656173-7572-4656-9d65-6e745f446576,rev?*%
%TF.SameCoordinates,Original*%
%TF.FileFunction,Drillmap*%
%TF.FilePolarity,Positive*%
%FSLAX45Y45*%
G04 Gerber Fmt 4.5, Leading zero omitted, Abs format (unit mm)*
G04 Created by KiCad (PCBNEW 8.0.1) date 2026-04-15 10:31:26*
%MOMM*%
%LPD*%
G01*
G04 APERTURE LIST*
%ADD10C,0.200000*%
%ADD11C,0.100000*%
G04 APERTURE END LIST*
D10*
D11*
X9540900Y-7831900D02*
X9617100Y-7908100D01*
X9617100Y-7831900D02*
X9540900Y-7908100D01*
X9545900Y-10886900D02*
X9622100Y-10963100D01*
X9622100Y-10886900D02*
X9545900Y-10963100D01*
X9555900Y-9336900D02*
X9632100Y-9413100D01*
X9632100Y-9336900D02*
X9555900Y-9413100D01*
X10302900Y-7831900D02*
X10379100Y-7908100D01*
X10379100Y-7831900D02*
X10302900Y-7908100D01*
X10307900Y-10886900D02*
X10384100Y-10963100D01*
X10384100Y-10886900D02*
X10307900Y-10963100D01*
X10317900Y-9336900D02*
X10394100Y-9413100D01*
X10394100Y-9336900D02*
X10317900Y-9413100D01*
X10796900Y-4142900D02*
X10873100Y-4219100D01*
X10873100Y-4142900D02*
X10796900Y-4219100D01*
X10796900Y-4396900D02*
X10873100Y-4473100D01*
X10873100Y-4396900D02*
X10796900Y-4473100D01*
X10796900Y-4650900D02*
X10873100Y-4727100D01*
X10873100Y-4650900D02*
X10796900Y-4727100D01*
X10796900Y-4904900D02*
X10873100Y-4981100D01*
X10873100Y-4904900D02*
X10796900Y-4981100D01*
X10796900Y-5158900D02*
X10873100Y-5235100D01*
X10873100Y-5158900D02*
X10796900Y-5235100D01*
X10796900Y-5412900D02*
X10873100Y-5489100D01*
X10873100Y-5412900D02*
X10796900Y-5489100D01*
X10796900Y-5666900D02*
X10873100Y-5743100D01*
X10873100Y-5666900D02*
X10796900Y-5743100D01*
X10796900Y-5920900D02*
X10873100Y-5997100D01*
X10873100Y-5920900D02*
X10796900Y-5997100D01*
X11051900Y-7070900D02*
X11128100Y-7147100D01*
X11128100Y-7070900D02*
X11051900Y-7147100D01*
X11051900Y-7832900D02*
X11128100Y-7909100D01*
X11128100Y-7832900D02*
X11051900Y-7909100D01*
X11066900Y-8575900D02*
X11143100Y-8652100D01*
X11143100Y-8575900D02*
X11066900Y-8652100D01*
X11066900Y-9337900D02*
X11143100Y-9414100D01*
X11143100Y-9337900D02*
X11066900Y-9414100D01*
X11066900Y-10125900D02*
X11143100Y-10202100D01*
X11143100Y-10125900D02*
X11066900Y-10202100D01*
X11066900Y-10887900D02*
X11143100Y-10964100D01*
X11143100Y-10887900D02*
X11066900Y-10964100D01*
X19025604Y-8862900D02*
X19101804Y-8939100D01*
X19101804Y-8862900D02*
X19025604Y-8939100D01*
X19025604Y-9116900D02*
X19101804Y-9193100D01*
X19101804Y-9116900D02*
X19025604Y-9193100D01*
X19025604Y-9370900D02*
X19101804Y-9447100D01*
X19101804Y-9370900D02*
X19025604Y-9447100D01*
X19040604Y-7787900D02*
X19116804Y-7864100D01*
X19116804Y-7787900D02*
X19040604Y-7864100D01*
X19040604Y-8041900D02*
X19116804Y-8118100D01*
X19116804Y-8041900D02*
X19040604Y-8118100D01*
X19040604Y-8295900D02*
X19116804Y-8372100D01*
X19116804Y-8295900D02*
X19040604Y-8372100D01*
X19050900Y-5155900D02*
X19127100Y-5232100D01*
X19127100Y-5155900D02*
X19050900Y-5232100D01*
X19050900Y-5409900D02*
X19127100Y-5486100D01*
X19127100Y-5409900D02*
X19050900Y-5486100D01*
X19050900Y-5663900D02*
X19127100Y-5740100D01*
X19127100Y-5663900D02*
X19050900Y-5740100D01*
X19050900Y-5917900D02*
X19127100Y-5994100D01*
X19127100Y-5917900D02*
X19050900Y-5994100D01*
X19055900Y-6435900D02*
X19132100Y-6512100D01*
X19132100Y-6435900D02*
X19055900Y-6512100D01*
X19055900Y-6689900D02*
X19132100Y-6766100D01*
X19132100Y-6689900D02*
X19055900Y-6766100D01*
X19055900Y-6943900D02*
X19132100Y-7020100D01*
X19132100Y-6943900D02*
X19055900Y-7020100D01*
X19055900Y-7197900D02*
X19132100Y-7274100D01*
X19132100Y-7197900D02*
X19055900Y-7274100D01*
X20215900Y-8296900D02*
X20292100Y-8373100D01*
X20292100Y-8296900D02*
X20215900Y-8373100D01*
X20220900Y-9376900D02*
X20297100Y-9453100D01*
X20297100Y-9376900D02*
X20220900Y-9453100D01*
X20977900Y-8296900D02*
X21054100Y-8373100D01*
X21054100Y-8296900D02*
X20977900Y-8373100D01*
X20982900Y-9376900D02*
X21059100Y-9453100D01*
X21059100Y-9376900D02*
X20982900Y-9453100D01*
X12820000Y-4938000D02*
G75*
G02*
X12720000Y-4938000I-50000J0D01*
G01*
X12720000Y-4938000D02*
G75*
G02*
X12820000Y-4938000I50000J0D01*
G01*
X12820000Y-5192000D02*
G75*
G02*
X12720000Y-5192000I-50000J0D01*
G01*
X12720000Y-5192000D02*
G75*
G02*
X12820000Y-5192000I50000J0D01*
G01*
X12820000Y-5446000D02*
G75*
G02*
X12720000Y-5446000I-50000J0D01*
G01*
X12720000Y-5446000D02*
G75*
G02*
X12820000Y-5446000I50000J0D01*
G01*
X12820000Y-5700000D02*
G75*
G02*
X12720000Y-5700000I-50000J0D01*
G01*
X12720000Y-5700000D02*
G75*
G02*
X12820000Y-5700000I50000J0D01*
G01*
X12820000Y-5954000D02*
G75*
G02*
X12720000Y-5954000I-50000J0D01*
G01*
X12720000Y-5954000D02*
G75*
G02*
X12820000Y-5954000I50000J0D01*
G01*
X12820000Y-6208000D02*
G75*
G02*
X12720000Y-6208000I-50000J0D01*
G01*
X12720000Y-6208000D02*
G75*
G02*
X12820000Y-6208000I50000J0D01*
G01*
X12820000Y-6716000D02*
G75*
G02*
X12720000Y-6716000I-50000J0D01*
G01*
X12720000Y-6716000D02*
G75*
G02*
X12820000Y-6716000I50000J0D01*
G01*
X12820000Y-6970000D02*
G75*
G02*
X12720000Y-6970000I-50000J0D01*
G01*
X12720000Y-6970000D02*
G75*
G02*
X12820000Y-6970000I50000J0D01*
G01*
X12820000Y-7224000D02*
G75*
G02*
X12720000Y-7224000I-50000J0D01*
G01*
X12720000Y-7224000D02*
G75*
G02*
X12820000Y-7224000I50000J0D01*
G01*
X12820000Y-7478000D02*
G75*
G02*
X12720000Y-7478000I-50000J0D01*
G01*
X12720000Y-7478000D02*
G75*
G02*
X12820000Y-7478000I50000J0D01*
G01*
X12820000Y-7732000D02*
G75*
G02*
X12720000Y-7732000I-50000J0D01*
G01*
X12720000Y-7732000D02*
G75*
G02*
X12820000Y-7732000I50000J0D01*
G01*
X12820000Y-7986000D02*
G75*
G02*
X12720000Y-7986000I-50000J0D01*
G01*
X12720000Y-7986000D02*
G75*
G02*
X12820000Y-7986000I50000J0D01*
G01*
X12820000Y-8240000D02*
G75*
G02*
X12720000Y-8240000I-50000J0D01*
G01*
X12720000Y-8240000D02*
G75*
G02*
X12820000Y-8240000I50000J0D01*
G01*
X12820000Y-8494000D02*
G75*
G02*
X12720000Y-8494000I-50000J0D01*
G01*
X12720000Y-8494000D02*
G75*
G02*
X12820000Y-8494000I50000J0D01*
G01*
X17646000Y-4938000D02*
G75*
G02*
X17546000Y-4938000I-50000J0D01*
G01*
X17546000Y-4938000D02*
G75*
G02*
X17646000Y-4938000I50000J0D01*
G01*
X17646000Y-5192000D02*
G75*
G02*
X17546000Y-5192000I-50000J0D01*
G01*
X17546000Y-5192000D02*
G75*
G02*
X17646000Y-5192000I50000J0D01*
G01*
X17646000Y-5446000D02*
G75*
G02*
X17546000Y-5446000I-50000J0D01*
G01*
X17546000Y-5446000D02*
G75*
G02*
X17646000Y-5446000I50000J0D01*
G01*
X17646000Y-5700000D02*
G75*
G02*
X17546000Y-5700000I-50000J0D01*
G01*
X17546000Y-5700000D02*
G75*
G02*
X17646000Y-5700000I50000J0D01*
G01*
X17646000Y-5954000D02*
G75*
G02*
X17546000Y-5954000I-50000J0D01*
G01*
X17546000Y-5954000D02*
G75*
G02*
X17646000Y-5954000I50000J0D01*
G01*
X17646000Y-6208000D02*
G75*
G02*
X17546000Y-6208000I-50000J0D01*
G01*
X17546000Y-6208000D02*
G75*
G02*
X17646000Y-6208000I50000J0D01*
G01*
X17646000Y-6462000D02*
G75*
G02*
X17546000Y-6462000I-50000J0D01*
G01*
X17546000Y-6462000D02*
G75*
G02*
X17646000Y-6462000I50000J0D01*
G01*
X17646000Y-6716000D02*
G75*
G02*
X17546000Y-6716000I-50000J0D01*
G01*
X17546000Y-6716000D02*
G75*
G02*
X17646000Y-6716000I50000J0D01*
G01*
X17646000Y-7122000D02*
G75*
G02*
X17546000Y-7122000I-50000J0D01*
G01*
X17546000Y-7122000D02*
G75*
G02*
X17646000Y-7122000I50000J0D01*
G01*
X17646000Y-7376000D02*
G75*
G02*
X17546000Y-7376000I-50000J0D01*
G01*
X17546000Y-7376000D02*
G75*
G02*
X17646000Y-7376000I50000J0D01*
G01*
X17646000Y-7630000D02*
G75*
G02*
X17546000Y-7630000I-50000J0D01*
G01*
X17546000Y-7630000D02*
G75*
G02*
X17646000Y-7630000I50000J0D01*
G01*
X17646000Y-7884000D02*
G75*
G02*
X17546000Y-7884000I-50000J0D01*
G01*
X17546000Y-7884000D02*
G75*
G02*
X17646000Y-7884000I50000J0D01*
G01*
X17646000Y-8138000D02*
G75*
G02*
X17546000Y-8138000I-50000J0D01*
G01*
X17546000Y-8138000D02*
G75*
G02*
X17646000Y-8138000I50000J0D01*
G01*
X17646000Y-8392000D02*
G75*
G02*
X17546000Y-8392000I-50000J0D01*
G01*
X17546000Y-8392000D02*
G75*
G02*
X17646000Y-8392000I50000J0D01*
G01*
X17646000Y-8646000D02*
G75*
G02*
X17546000Y-8646000I-50000J0D01*
G01*
X17546000Y-8646000D02*
G75*
G02*
X17646000Y-8646000I50000J0D01*
G01*
X17646000Y-8900000D02*
G75*
G02*
X17546000Y-8900000I-50000J0D01*
G01*
X17546000Y-8900000D02*
G75*
G02*
X17646000Y-8900000I50000J0D01*
G01*
X17646000Y-9154000D02*
G75*
G02*
X17546000Y-9154000I-50000J0D01*
G01*
X17546000Y-9154000D02*
G75*
G02*
X17646000Y-9154000I50000J0D01*
G01*
X17646000Y-9408000D02*
G75*
G02*
X17546000Y-9408000I-50000J0D01*
G01*
X17546000Y-9408000D02*
G75*
G02*
X17646000Y-9408000I50000J0D01*
G01*
D10*
X260777Y-311484D02*
X260777Y-111484D01*
X260777Y-111484D02*
X308396Y-111484D01*
X308396Y-111484D02*
X336967Y-121008D01*
X336967Y-121008D02*
X356015Y-140055D01*
X356015Y-140055D02*
X365539Y-159103D01*
X365539Y-159103D02*
X375062Y-197198D01*
X375062Y-197198D02*
X375062Y-225769D01*
X375062Y-225769D02*
X365539Y-263865D01*
X365539Y-263865D02*
X356015Y-282912D01*
X356015Y-282912D02*
X336967Y-301960D01*
X336967Y-301960D02*
X308396Y-311484D01*
X308396Y-311484D02*
X260777Y-311484D01*
X460777Y-311484D02*
X460777Y-178150D01*
X460777Y-216246D02*
X470301Y-197198D01*
X470301Y-197198D02*
X479824Y-187674D01*
X479824Y-187674D02*
X498872Y-178150D01*
X498872Y-178150D02*
X517920Y-178150D01*
X584586Y-311484D02*
X584586Y-178150D01*
X584586Y-111484D02*
X575063Y-121008D01*
X575063Y-121008D02*
X584586Y-130531D01*
X584586Y-130531D02*
X594110Y-121008D01*
X594110Y-121008D02*
X584586Y-111484D01*
X584586Y-111484D02*
X584586Y-130531D01*
X708396Y-311484D02*
X689348Y-301960D01*
X689348Y-301960D02*
X679824Y-282912D01*
X679824Y-282912D02*
X679824Y-111484D01*
X813158Y-311484D02*
X794110Y-301960D01*
X794110Y-301960D02*
X784586Y-282912D01*
X784586Y-282912D02*
X784586Y-111484D01*
X1041729Y-311484D02*
X1041729Y-111484D01*
X1041729Y-111484D02*
X1108396Y-254341D01*
X1108396Y-254341D02*
X1175063Y-111484D01*
X1175063Y-111484D02*
X1175063Y-311484D01*
X1356015Y-311484D02*
X1356015Y-206722D01*
X1356015Y-206722D02*
X1346491Y-187674D01*
X1346491Y-187674D02*
X1327444Y-178150D01*
X1327444Y-178150D02*
X1289348Y-178150D01*
X1289348Y-178150D02*
X1270301Y-187674D01*
X1356015Y-301960D02*
X1336967Y-311484D01*
X1336967Y-311484D02*
X1289348Y-311484D01*
X1289348Y-311484D02*
X1270301Y-301960D01*
X1270301Y-301960D02*
X1260777Y-282912D01*
X1260777Y-282912D02*
X1260777Y-263865D01*
X1260777Y-263865D02*
X1270301Y-244817D01*
X1270301Y-244817D02*
X1289348Y-235293D01*
X1289348Y-235293D02*
X1336967Y-235293D01*
X1336967Y-235293D02*
X1356015Y-225769D01*
X1451253Y-178150D02*
X1451253Y-378150D01*
X1451253Y-187674D02*
X1470301Y-178150D01*
X1470301Y-178150D02*
X1508396Y-178150D01*
X1508396Y-178150D02*
X1527443Y-187674D01*
X1527443Y-187674D02*
X1536967Y-197198D01*
X1536967Y-197198D02*
X1546491Y-216246D01*
X1546491Y-216246D02*
X1546491Y-273389D01*
X1546491Y-273389D02*
X1536967Y-292436D01*
X1536967Y-292436D02*
X1527443Y-301960D01*
X1527443Y-301960D02*
X1508396Y-311484D01*
X1508396Y-311484D02*
X1470301Y-311484D01*
X1470301Y-311484D02*
X1451253Y-301960D01*
X1632205Y-292436D02*
X1641729Y-301960D01*
X1641729Y-301960D02*
X1632205Y-311484D01*
X1632205Y-311484D02*
X1622682Y-301960D01*
X1622682Y-301960D02*
X1632205Y-292436D01*
X1632205Y-292436D02*
X1632205Y-311484D01*
X1632205Y-187674D02*
X1641729Y-197198D01*
X1641729Y-197198D02*
X1632205Y-206722D01*
X1632205Y-206722D02*
X1622682Y-197198D01*
X1622682Y-197198D02*
X1632205Y-187674D01*
X1632205Y-187674D02*
X1632205Y-206722D01*
D11*
X-76200Y-601900D02*
X0Y-678100D01*
X0Y-601900D02*
X-76200Y-678100D01*
D10*
X298872Y-531484D02*
X317920Y-531484D01*
X317920Y-531484D02*
X336967Y-541008D01*
X336967Y-541008D02*
X346491Y-550531D01*
X346491Y-550531D02*
X356015Y-569579D01*
X356015Y-569579D02*
X365539Y-607674D01*
X365539Y-607674D02*
X365539Y-655293D01*
X365539Y-655293D02*
X356015Y-693389D01*
X356015Y-693389D02*
X346491Y-712436D01*
X346491Y-712436D02*
X336967Y-721960D01*
X336967Y-721960D02*
X317920Y-731484D01*
X317920Y-731484D02*
X298872Y-731484D01*
X298872Y-731484D02*
X279824Y-721960D01*
X279824Y-721960D02*
X270301Y-712436D01*
X270301Y-712436D02*
X260777Y-693389D01*
X260777Y-693389D02*
X251253Y-655293D01*
X251253Y-655293D02*
X251253Y-607674D01*
X251253Y-607674D02*
X260777Y-569579D01*
X260777Y-569579D02*
X270301Y-550531D01*
X270301Y-550531D02*
X279824Y-541008D01*
X279824Y-541008D02*
X298872Y-531484D01*
X451253Y-712436D02*
X460777Y-721960D01*
X460777Y-721960D02*
X451253Y-731484D01*
X451253Y-731484D02*
X441729Y-721960D01*
X441729Y-721960D02*
X451253Y-712436D01*
X451253Y-712436D02*
X451253Y-731484D01*
X527444Y-531484D02*
X660777Y-531484D01*
X660777Y-531484D02*
X575063Y-731484D01*
X822682Y-531484D02*
X784586Y-531484D01*
X784586Y-531484D02*
X765539Y-541008D01*
X765539Y-541008D02*
X756015Y-550531D01*
X756015Y-550531D02*
X736967Y-579103D01*
X736967Y-579103D02*
X727443Y-617198D01*
X727443Y-617198D02*
X727443Y-693389D01*
X727443Y-693389D02*
X736967Y-712436D01*
X736967Y-712436D02*
X746491Y-721960D01*
X746491Y-721960D02*
X765539Y-731484D01*
X765539Y-731484D02*
X803634Y-731484D01*
X803634Y-731484D02*
X822682Y-721960D01*
X822682Y-721960D02*
X832205Y-712436D01*
X832205Y-712436D02*
X841729Y-693389D01*
X841729Y-693389D02*
X841729Y-645770D01*
X841729Y-645770D02*
X832205Y-626722D01*
X832205Y-626722D02*
X822682Y-617198D01*
X822682Y-617198D02*
X803634Y-607674D01*
X803634Y-607674D02*
X765539Y-607674D01*
X765539Y-607674D02*
X746491Y-617198D01*
X746491Y-617198D02*
X736967Y-626722D01*
X736967Y-626722D02*
X727443Y-645770D01*
X917920Y-550531D02*
X927443Y-541008D01*
X927443Y-541008D02*
X946491Y-531484D01*
X946491Y-531484D02*
X994110Y-531484D01*
X994110Y-531484D02*
X1013158Y-541008D01*
X1013158Y-541008D02*
X1022682Y-550531D01*
X1022682Y-550531D02*
X1032205Y-569579D01*
X1032205Y-569579D02*
X1032205Y-588627D01*
X1032205Y-588627D02*
X1022682Y-617198D01*
X1022682Y-617198D02*
X908396Y-731484D01*
X908396Y-731484D02*
X1032205Y-731484D01*
X1117920Y-731484D02*
X1117920Y-598150D01*
X1117920Y-617198D02*
X1127444Y-607674D01*
X1127444Y-607674D02*
X1146491Y-598150D01*
X1146491Y-598150D02*
X1175063Y-598150D01*
X1175063Y-598150D02*
X1194110Y-607674D01*
X1194110Y-607674D02*
X1203634Y-626722D01*
X1203634Y-626722D02*
X1203634Y-731484D01*
X1203634Y-626722D02*
X1213158Y-607674D01*
X1213158Y-607674D02*
X1232205Y-598150D01*
X1232205Y-598150D02*
X1260777Y-598150D01*
X1260777Y-598150D02*
X1279825Y-607674D01*
X1279825Y-607674D02*
X1289348Y-626722D01*
X1289348Y-626722D02*
X1289348Y-731484D01*
X1384586Y-731484D02*
X1384586Y-598150D01*
X1384586Y-617198D02*
X1394110Y-607674D01*
X1394110Y-607674D02*
X1413158Y-598150D01*
X1413158Y-598150D02*
X1441729Y-598150D01*
X1441729Y-598150D02*
X1460777Y-607674D01*
X1460777Y-607674D02*
X1470301Y-626722D01*
X1470301Y-626722D02*
X1470301Y-731484D01*
X1470301Y-626722D02*
X1479824Y-607674D01*
X1479824Y-607674D02*
X1498872Y-598150D01*
X1498872Y-598150D02*
X1527443Y-598150D01*
X1527443Y-598150D02*
X1546491Y-607674D01*
X1546491Y-607674D02*
X1556015Y-626722D01*
X1556015Y-626722D02*
X1556015Y-731484D01*
X1946491Y-521960D02*
X1775063Y-779103D01*
X2203634Y-531484D02*
X2222682Y-531484D01*
X2222682Y-531484D02*
X2241729Y-541008D01*
X2241729Y-541008D02*
X2251253Y-550531D01*
X2251253Y-550531D02*
X2260777Y-569579D01*
X2260777Y-569579D02*
X2270301Y-607674D01*
X2270301Y-607674D02*
X2270301Y-655293D01*
X2270301Y-655293D02*
X2260777Y-693389D01*
X2260777Y-693389D02*
X2251253Y-712436D01*
X2251253Y-712436D02*
X2241729Y-721960D01*
X2241729Y-721960D02*
X2222682Y-731484D01*
X2222682Y-731484D02*
X2203634Y-731484D01*
X2203634Y-731484D02*
X2184587Y-721960D01*
X2184587Y-721960D02*
X2175063Y-712436D01*
X2175063Y-712436D02*
X2165539Y-693389D01*
X2165539Y-693389D02*
X2156015Y-655293D01*
X2156015Y-655293D02*
X2156015Y-607674D01*
X2156015Y-607674D02*
X2165539Y-569579D01*
X2165539Y-569579D02*
X2175063Y-550531D01*
X2175063Y-550531D02*
X2184587Y-541008D01*
X2184587Y-541008D02*
X2203634Y-531484D01*
X2356015Y-712436D02*
X2365539Y-721960D01*
X2365539Y-721960D02*
X2356015Y-731484D01*
X2356015Y-731484D02*
X2346491Y-721960D01*
X2346491Y-721960D02*
X2356015Y-712436D01*
X2356015Y-712436D02*
X2356015Y-731484D01*
X2489348Y-531484D02*
X2508396Y-531484D01*
X2508396Y-531484D02*
X2527444Y-541008D01*
X2527444Y-541008D02*
X2536968Y-550531D01*
X2536968Y-550531D02*
X2546491Y-569579D01*
X2546491Y-569579D02*
X2556015Y-607674D01*
X2556015Y-607674D02*
X2556015Y-655293D01*
X2556015Y-655293D02*
X2546491Y-693389D01*
X2546491Y-693389D02*
X2536968Y-712436D01*
X2536968Y-712436D02*
X2527444Y-721960D01*
X2527444Y-721960D02*
X2508396Y-731484D01*
X2508396Y-731484D02*
X2489348Y-731484D01*
X2489348Y-731484D02*
X2470301Y-721960D01*
X2470301Y-721960D02*
X2460777Y-712436D01*
X2460777Y-712436D02*
X2451253Y-693389D01*
X2451253Y-693389D02*
X2441729Y-655293D01*
X2441729Y-655293D02*
X2441729Y-607674D01*
X2441729Y-607674D02*
X2451253Y-569579D01*
X2451253Y-569579D02*
X2460777Y-550531D01*
X2460777Y-550531D02*
X2470301Y-541008D01*
X2470301Y-541008D02*
X2489348Y-531484D01*
X2622682Y-531484D02*
X2746491Y-531484D01*
X2746491Y-531484D02*
X2679825Y-607674D01*
X2679825Y-607674D02*
X2708396Y-607674D01*
X2708396Y-607674D02*
X2727444Y-617198D01*
X2727444Y-617198D02*
X2736968Y-626722D01*
X2736968Y-626722D02*
X2746491Y-645770D01*
X2746491Y-645770D02*
X2746491Y-693389D01*
X2746491Y-693389D02*
X2736968Y-712436D01*
X2736968Y-712436D02*
X2727444Y-721960D01*
X2727444Y-721960D02*
X2708396Y-731484D01*
X2708396Y-731484D02*
X2651253Y-731484D01*
X2651253Y-731484D02*
X2632206Y-721960D01*
X2632206Y-721960D02*
X2622682Y-712436D01*
X2870301Y-531484D02*
X2889348Y-531484D01*
X2889348Y-531484D02*
X2908396Y-541008D01*
X2908396Y-541008D02*
X2917920Y-550531D01*
X2917920Y-550531D02*
X2927444Y-569579D01*
X2927444Y-569579D02*
X2936967Y-607674D01*
X2936967Y-607674D02*
X2936967Y-655293D01*
X2936967Y-655293D02*
X2927444Y-693389D01*
X2927444Y-693389D02*
X2917920Y-712436D01*
X2917920Y-712436D02*
X2908396Y-721960D01*
X2908396Y-721960D02*
X2889348Y-731484D01*
X2889348Y-731484D02*
X2870301Y-731484D01*
X2870301Y-731484D02*
X2851253Y-721960D01*
X2851253Y-721960D02*
X2841729Y-712436D01*
X2841729Y-712436D02*
X2832206Y-693389D01*
X2832206Y-693389D02*
X2822682Y-655293D01*
X2822682Y-655293D02*
X2822682Y-607674D01*
X2822682Y-607674D02*
X2832206Y-569579D01*
X2832206Y-569579D02*
X2841729Y-550531D01*
X2841729Y-550531D02*
X2851253Y-541008D01*
X2851253Y-541008D02*
X2870301Y-531484D01*
X3060777Y-531484D02*
X3079825Y-531484D01*
X3079825Y-531484D02*
X3098872Y-541008D01*
X3098872Y-541008D02*
X3108396Y-550531D01*
X3108396Y-550531D02*
X3117920Y-569579D01*
X3117920Y-569579D02*
X3127444Y-607674D01*
X3127444Y-607674D02*
X3127444Y-655293D01*
X3127444Y-655293D02*
X3117920Y-693389D01*
X3117920Y-693389D02*
X3108396Y-712436D01*
X3108396Y-712436D02*
X3098872Y-721960D01*
X3098872Y-721960D02*
X3079825Y-731484D01*
X3079825Y-731484D02*
X3060777Y-731484D01*
X3060777Y-731484D02*
X3041729Y-721960D01*
X3041729Y-721960D02*
X3032206Y-712436D01*
X3032206Y-712436D02*
X3022682Y-693389D01*
X3022682Y-693389D02*
X3013158Y-655293D01*
X3013158Y-655293D02*
X3013158Y-607674D01*
X3013158Y-607674D02*
X3022682Y-569579D01*
X3022682Y-569579D02*
X3032206Y-550531D01*
X3032206Y-550531D02*
X3041729Y-541008D01*
X3041729Y-541008D02*
X3060777Y-531484D01*
X3203634Y-531484D02*
X3203634Y-569579D01*
X3279825Y-531484D02*
X3279825Y-569579D01*
X3575063Y-807674D02*
X3565539Y-798150D01*
X3565539Y-798150D02*
X3546491Y-769579D01*
X3546491Y-769579D02*
X3536968Y-750531D01*
X3536968Y-750531D02*
X3527444Y-721960D01*
X3527444Y-721960D02*
X3517920Y-674341D01*
X3517920Y-674341D02*
X3517920Y-636246D01*
X3517920Y-636246D02*
X3527444Y-588627D01*
X3527444Y-588627D02*
X3536968Y-560055D01*
X3536968Y-560055D02*
X3546491Y-541008D01*
X3546491Y-541008D02*
X3565539Y-512436D01*
X3565539Y-512436D02*
X3575063Y-502912D01*
X3632206Y-531484D02*
X3756015Y-531484D01*
X3756015Y-531484D02*
X3689348Y-607674D01*
X3689348Y-607674D02*
X3717920Y-607674D01*
X3717920Y-607674D02*
X3736968Y-617198D01*
X3736968Y-617198D02*
X3746491Y-626722D01*
X3746491Y-626722D02*
X3756015Y-645770D01*
X3756015Y-645770D02*
X3756015Y-693389D01*
X3756015Y-693389D02*
X3746491Y-712436D01*
X3746491Y-712436D02*
X3736968Y-721960D01*
X3736968Y-721960D02*
X3717920Y-731484D01*
X3717920Y-731484D02*
X3660777Y-731484D01*
X3660777Y-731484D02*
X3641729Y-721960D01*
X3641729Y-721960D02*
X3632206Y-712436D01*
X3870301Y-617198D02*
X3851253Y-607674D01*
X3851253Y-607674D02*
X3841729Y-598150D01*
X3841729Y-598150D02*
X3832206Y-579103D01*
X3832206Y-579103D02*
X3832206Y-569579D01*
X3832206Y-569579D02*
X3841729Y-550531D01*
X3841729Y-550531D02*
X3851253Y-541008D01*
X3851253Y-541008D02*
X3870301Y-531484D01*
X3870301Y-531484D02*
X3908396Y-531484D01*
X3908396Y-531484D02*
X3927444Y-541008D01*
X3927444Y-541008D02*
X3936968Y-550531D01*
X3936968Y-550531D02*
X3946491Y-569579D01*
X3946491Y-569579D02*
X3946491Y-579103D01*
X3946491Y-579103D02*
X3936968Y-598150D01*
X3936968Y-598150D02*
X3927444Y-607674D01*
X3927444Y-607674D02*
X3908396Y-617198D01*
X3908396Y-617198D02*
X3870301Y-617198D01*
X3870301Y-617198D02*
X3851253Y-626722D01*
X3851253Y-626722D02*
X3841729Y-636246D01*
X3841729Y-636246D02*
X3832206Y-655293D01*
X3832206Y-655293D02*
X3832206Y-693389D01*
X3832206Y-693389D02*
X3841729Y-712436D01*
X3841729Y-712436D02*
X3851253Y-721960D01*
X3851253Y-721960D02*
X3870301Y-731484D01*
X3870301Y-731484D02*
X3908396Y-731484D01*
X3908396Y-731484D02*
X3927444Y-721960D01*
X3927444Y-721960D02*
X3936968Y-712436D01*
X3936968Y-712436D02*
X3946491Y-693389D01*
X3946491Y-693389D02*
X3946491Y-655293D01*
X3946491Y-655293D02*
X3936968Y-636246D01*
X3936968Y-636246D02*
X3927444Y-626722D01*
X3927444Y-626722D02*
X3908396Y-617198D01*
X4184587Y-731484D02*
X4184587Y-531484D01*
X4270301Y-731484D02*
X4270301Y-626722D01*
X4270301Y-626722D02*
X4260777Y-607674D01*
X4260777Y-607674D02*
X4241730Y-598150D01*
X4241730Y-598150D02*
X4213158Y-598150D01*
X4213158Y-598150D02*
X4194110Y-607674D01*
X4194110Y-607674D02*
X4184587Y-617198D01*
X4394111Y-731484D02*
X4375063Y-721960D01*
X4375063Y-721960D02*
X4365539Y-712436D01*
X4365539Y-712436D02*
X4356015Y-693389D01*
X4356015Y-693389D02*
X4356015Y-636246D01*
X4356015Y-636246D02*
X4365539Y-617198D01*
X4365539Y-617198D02*
X4375063Y-607674D01*
X4375063Y-607674D02*
X4394111Y-598150D01*
X4394111Y-598150D02*
X4422682Y-598150D01*
X4422682Y-598150D02*
X4441730Y-607674D01*
X4441730Y-607674D02*
X4451253Y-617198D01*
X4451253Y-617198D02*
X4460777Y-636246D01*
X4460777Y-636246D02*
X4460777Y-693389D01*
X4460777Y-693389D02*
X4451253Y-712436D01*
X4451253Y-712436D02*
X4441730Y-721960D01*
X4441730Y-721960D02*
X4422682Y-731484D01*
X4422682Y-731484D02*
X4394111Y-731484D01*
X4575063Y-731484D02*
X4556015Y-721960D01*
X4556015Y-721960D02*
X4546492Y-702912D01*
X4546492Y-702912D02*
X4546492Y-531484D01*
X4727444Y-721960D02*
X4708396Y-731484D01*
X4708396Y-731484D02*
X4670301Y-731484D01*
X4670301Y-731484D02*
X4651253Y-721960D01*
X4651253Y-721960D02*
X4641730Y-702912D01*
X4641730Y-702912D02*
X4641730Y-626722D01*
X4641730Y-626722D02*
X4651253Y-607674D01*
X4651253Y-607674D02*
X4670301Y-598150D01*
X4670301Y-598150D02*
X4708396Y-598150D01*
X4708396Y-598150D02*
X4727444Y-607674D01*
X4727444Y-607674D02*
X4736968Y-626722D01*
X4736968Y-626722D02*
X4736968Y-645770D01*
X4736968Y-645770D02*
X4641730Y-664817D01*
X4813158Y-721960D02*
X4832206Y-731484D01*
X4832206Y-731484D02*
X4870301Y-731484D01*
X4870301Y-731484D02*
X4889349Y-721960D01*
X4889349Y-721960D02*
X4898873Y-702912D01*
X4898873Y-702912D02*
X4898873Y-693389D01*
X4898873Y-693389D02*
X4889349Y-674341D01*
X4889349Y-674341D02*
X4870301Y-664817D01*
X4870301Y-664817D02*
X4841730Y-664817D01*
X4841730Y-664817D02*
X4822682Y-655293D01*
X4822682Y-655293D02*
X4813158Y-636246D01*
X4813158Y-636246D02*
X4813158Y-626722D01*
X4813158Y-626722D02*
X4822682Y-607674D01*
X4822682Y-607674D02*
X4841730Y-598150D01*
X4841730Y-598150D02*
X4870301Y-598150D01*
X4870301Y-598150D02*
X4889349Y-607674D01*
X4965539Y-807674D02*
X4975063Y-798150D01*
X4975063Y-798150D02*
X4994111Y-769579D01*
X4994111Y-769579D02*
X5003634Y-750531D01*
X5003634Y-750531D02*
X5013158Y-721960D01*
X5013158Y-721960D02*
X5022682Y-674341D01*
X5022682Y-674341D02*
X5022682Y-636246D01*
X5022682Y-636246D02*
X5013158Y-588627D01*
X5013158Y-588627D02*
X5003634Y-560055D01*
X5003634Y-560055D02*
X4994111Y-541008D01*
X4994111Y-541008D02*
X4975063Y-512436D01*
X4975063Y-512436D02*
X4965539Y-502912D01*
D11*
X0Y-904000D02*
G75*
G02*
X-100000Y-904000I-50000J0D01*
G01*
X-100000Y-904000D02*
G75*
G02*
X0Y-904000I50000J0D01*
G01*
D10*
X365539Y-995484D02*
X251253Y-995484D01*
X308396Y-995484D02*
X308396Y-795484D01*
X308396Y-795484D02*
X289348Y-824055D01*
X289348Y-824055D02*
X270301Y-843103D01*
X270301Y-843103D02*
X251253Y-852627D01*
X451253Y-976436D02*
X460777Y-985960D01*
X460777Y-985960D02*
X451253Y-995484D01*
X451253Y-995484D02*
X441729Y-985960D01*
X441729Y-985960D02*
X451253Y-976436D01*
X451253Y-976436D02*
X451253Y-995484D01*
X584586Y-795484D02*
X603634Y-795484D01*
X603634Y-795484D02*
X622682Y-805008D01*
X622682Y-805008D02*
X632205Y-814531D01*
X632205Y-814531D02*
X641729Y-833579D01*
X641729Y-833579D02*
X651253Y-871674D01*
X651253Y-871674D02*
X651253Y-919293D01*
X651253Y-919293D02*
X641729Y-957388D01*
X641729Y-957388D02*
X632205Y-976436D01*
X632205Y-976436D02*
X622682Y-985960D01*
X622682Y-985960D02*
X603634Y-995484D01*
X603634Y-995484D02*
X584586Y-995484D01*
X584586Y-995484D02*
X565539Y-985960D01*
X565539Y-985960D02*
X556015Y-976436D01*
X556015Y-976436D02*
X546491Y-957388D01*
X546491Y-957388D02*
X536967Y-919293D01*
X536967Y-919293D02*
X536967Y-871674D01*
X536967Y-871674D02*
X546491Y-833579D01*
X546491Y-833579D02*
X556015Y-814531D01*
X556015Y-814531D02*
X565539Y-805008D01*
X565539Y-805008D02*
X584586Y-795484D01*
X775062Y-795484D02*
X794110Y-795484D01*
X794110Y-795484D02*
X813158Y-805008D01*
X813158Y-805008D02*
X822682Y-814531D01*
X822682Y-814531D02*
X832205Y-833579D01*
X832205Y-833579D02*
X841729Y-871674D01*
X841729Y-871674D02*
X841729Y-919293D01*
X841729Y-919293D02*
X832205Y-957388D01*
X832205Y-957388D02*
X822682Y-976436D01*
X822682Y-976436D02*
X813158Y-985960D01*
X813158Y-985960D02*
X794110Y-995484D01*
X794110Y-995484D02*
X775062Y-995484D01*
X775062Y-995484D02*
X756015Y-985960D01*
X756015Y-985960D02*
X746491Y-976436D01*
X746491Y-976436D02*
X736967Y-957388D01*
X736967Y-957388D02*
X727443Y-919293D01*
X727443Y-919293D02*
X727443Y-871674D01*
X727443Y-871674D02*
X736967Y-833579D01*
X736967Y-833579D02*
X746491Y-814531D01*
X746491Y-814531D02*
X756015Y-805008D01*
X756015Y-805008D02*
X775062Y-795484D01*
X965539Y-795484D02*
X984586Y-795484D01*
X984586Y-795484D02*
X1003634Y-805008D01*
X1003634Y-805008D02*
X1013158Y-814531D01*
X1013158Y-814531D02*
X1022682Y-833579D01*
X1022682Y-833579D02*
X1032205Y-871674D01*
X1032205Y-871674D02*
X1032205Y-919293D01*
X1032205Y-919293D02*
X1022682Y-957388D01*
X1022682Y-957388D02*
X1013158Y-976436D01*
X1013158Y-976436D02*
X1003634Y-985960D01*
X1003634Y-985960D02*
X984586Y-995484D01*
X984586Y-995484D02*
X965539Y-995484D01*
X965539Y-995484D02*
X946491Y-985960D01*
X946491Y-985960D02*
X936967Y-976436D01*
X936967Y-976436D02*
X927443Y-957388D01*
X927443Y-957388D02*
X917920Y-919293D01*
X917920Y-919293D02*
X917920Y-871674D01*
X917920Y-871674D02*
X927443Y-833579D01*
X927443Y-833579D02*
X936967Y-814531D01*
X936967Y-814531D02*
X946491Y-805008D01*
X946491Y-805008D02*
X965539Y-795484D01*
X1117920Y-995484D02*
X1117920Y-862150D01*
X1117920Y-881198D02*
X1127444Y-871674D01*
X1127444Y-871674D02*
X1146491Y-862150D01*
X1146491Y-862150D02*
X1175063Y-862150D01*
X1175063Y-862150D02*
X1194110Y-871674D01*
X1194110Y-871674D02*
X1203634Y-890722D01*
X1203634Y-890722D02*
X1203634Y-995484D01*
X1203634Y-890722D02*
X1213158Y-871674D01*
X1213158Y-871674D02*
X1232205Y-862150D01*
X1232205Y-862150D02*
X1260777Y-862150D01*
X1260777Y-862150D02*
X1279825Y-871674D01*
X1279825Y-871674D02*
X1289348Y-890722D01*
X1289348Y-890722D02*
X1289348Y-995484D01*
X1384586Y-995484D02*
X1384586Y-862150D01*
X1384586Y-881198D02*
X1394110Y-871674D01*
X1394110Y-871674D02*
X1413158Y-862150D01*
X1413158Y-862150D02*
X1441729Y-862150D01*
X1441729Y-862150D02*
X1460777Y-871674D01*
X1460777Y-871674D02*
X1470301Y-890722D01*
X1470301Y-890722D02*
X1470301Y-995484D01*
X1470301Y-890722D02*
X1479824Y-871674D01*
X1479824Y-871674D02*
X1498872Y-862150D01*
X1498872Y-862150D02*
X1527443Y-862150D01*
X1527443Y-862150D02*
X1546491Y-871674D01*
X1546491Y-871674D02*
X1556015Y-890722D01*
X1556015Y-890722D02*
X1556015Y-995484D01*
X1946491Y-785960D02*
X1775063Y-1043103D01*
X2203634Y-795484D02*
X2222682Y-795484D01*
X2222682Y-795484D02*
X2241729Y-805008D01*
X2241729Y-805008D02*
X2251253Y-814531D01*
X2251253Y-814531D02*
X2260777Y-833579D01*
X2260777Y-833579D02*
X2270301Y-871674D01*
X2270301Y-871674D02*
X2270301Y-919293D01*
X2270301Y-919293D02*
X2260777Y-957388D01*
X2260777Y-957388D02*
X2251253Y-976436D01*
X2251253Y-976436D02*
X2241729Y-985960D01*
X2241729Y-985960D02*
X2222682Y-995484D01*
X2222682Y-995484D02*
X2203634Y-995484D01*
X2203634Y-995484D02*
X2184587Y-985960D01*
X2184587Y-985960D02*
X2175063Y-976436D01*
X2175063Y-976436D02*
X2165539Y-957388D01*
X2165539Y-957388D02*
X2156015Y-919293D01*
X2156015Y-919293D02*
X2156015Y-871674D01*
X2156015Y-871674D02*
X2165539Y-833579D01*
X2165539Y-833579D02*
X2175063Y-814531D01*
X2175063Y-814531D02*
X2184587Y-805008D01*
X2184587Y-805008D02*
X2203634Y-795484D01*
X2356015Y-976436D02*
X2365539Y-985960D01*
X2365539Y-985960D02*
X2356015Y-995484D01*
X2356015Y-995484D02*
X2346491Y-985960D01*
X2346491Y-985960D02*
X2356015Y-976436D01*
X2356015Y-976436D02*
X2356015Y-995484D01*
X2489348Y-795484D02*
X2508396Y-795484D01*
X2508396Y-795484D02*
X2527444Y-805008D01*
X2527444Y-805008D02*
X2536968Y-814531D01*
X2536968Y-814531D02*
X2546491Y-833579D01*
X2546491Y-833579D02*
X2556015Y-871674D01*
X2556015Y-871674D02*
X2556015Y-919293D01*
X2556015Y-919293D02*
X2546491Y-957388D01*
X2546491Y-957388D02*
X2536968Y-976436D01*
X2536968Y-976436D02*
X2527444Y-985960D01*
X2527444Y-985960D02*
X2508396Y-995484D01*
X2508396Y-995484D02*
X2489348Y-995484D01*
X2489348Y-995484D02*
X2470301Y-985960D01*
X2470301Y-985960D02*
X2460777Y-976436D01*
X2460777Y-976436D02*
X2451253Y-957388D01*
X2451253Y-957388D02*
X2441729Y-919293D01*
X2441729Y-919293D02*
X2441729Y-871674D01*
X2441729Y-871674D02*
X2451253Y-833579D01*
X2451253Y-833579D02*
X2460777Y-814531D01*
X2460777Y-814531D02*
X2470301Y-805008D01*
X2470301Y-805008D02*
X2489348Y-795484D01*
X2622682Y-795484D02*
X2746491Y-795484D01*
X2746491Y-795484D02*
X2679825Y-871674D01*
X2679825Y-871674D02*
X2708396Y-871674D01*
X2708396Y-871674D02*
X2727444Y-881198D01*
X2727444Y-881198D02*
X2736968Y-890722D01*
X2736968Y-890722D02*
X2746491Y-909769D01*
X2746491Y-909769D02*
X2746491Y-957388D01*
X2746491Y-957388D02*
X2736968Y-976436D01*
X2736968Y-976436D02*
X2727444Y-985960D01*
X2727444Y-985960D02*
X2708396Y-995484D01*
X2708396Y-995484D02*
X2651253Y-995484D01*
X2651253Y-995484D02*
X2632206Y-985960D01*
X2632206Y-985960D02*
X2622682Y-976436D01*
X2841729Y-995484D02*
X2879825Y-995484D01*
X2879825Y-995484D02*
X2898872Y-985960D01*
X2898872Y-985960D02*
X2908396Y-976436D01*
X2908396Y-976436D02*
X2927444Y-947865D01*
X2927444Y-947865D02*
X2936967Y-909769D01*
X2936967Y-909769D02*
X2936967Y-833579D01*
X2936967Y-833579D02*
X2927444Y-814531D01*
X2927444Y-814531D02*
X2917920Y-805008D01*
X2917920Y-805008D02*
X2898872Y-795484D01*
X2898872Y-795484D02*
X2860777Y-795484D01*
X2860777Y-795484D02*
X2841729Y-805008D01*
X2841729Y-805008D02*
X2832206Y-814531D01*
X2832206Y-814531D02*
X2822682Y-833579D01*
X2822682Y-833579D02*
X2822682Y-881198D01*
X2822682Y-881198D02*
X2832206Y-900246D01*
X2832206Y-900246D02*
X2841729Y-909769D01*
X2841729Y-909769D02*
X2860777Y-919293D01*
X2860777Y-919293D02*
X2898872Y-919293D01*
X2898872Y-919293D02*
X2917920Y-909769D01*
X2917920Y-909769D02*
X2927444Y-900246D01*
X2927444Y-900246D02*
X2936967Y-881198D01*
X3108396Y-862150D02*
X3108396Y-995484D01*
X3060777Y-785960D02*
X3013158Y-928817D01*
X3013158Y-928817D02*
X3136967Y-928817D01*
X3203634Y-795484D02*
X3203634Y-833579D01*
X3279825Y-795484D02*
X3279825Y-833579D01*
X3575063Y-1071674D02*
X3565539Y-1062150D01*
X3565539Y-1062150D02*
X3546491Y-1033579D01*
X3546491Y-1033579D02*
X3536968Y-1014531D01*
X3536968Y-1014531D02*
X3527444Y-985960D01*
X3527444Y-985960D02*
X3517920Y-938341D01*
X3517920Y-938341D02*
X3517920Y-900246D01*
X3517920Y-900246D02*
X3527444Y-852627D01*
X3527444Y-852627D02*
X3536968Y-824055D01*
X3536968Y-824055D02*
X3546491Y-805008D01*
X3546491Y-805008D02*
X3565539Y-776436D01*
X3565539Y-776436D02*
X3575063Y-766912D01*
X3632206Y-795484D02*
X3756015Y-795484D01*
X3756015Y-795484D02*
X3689348Y-871674D01*
X3689348Y-871674D02*
X3717920Y-871674D01*
X3717920Y-871674D02*
X3736968Y-881198D01*
X3736968Y-881198D02*
X3746491Y-890722D01*
X3746491Y-890722D02*
X3756015Y-909769D01*
X3756015Y-909769D02*
X3756015Y-957388D01*
X3756015Y-957388D02*
X3746491Y-976436D01*
X3746491Y-976436D02*
X3736968Y-985960D01*
X3736968Y-985960D02*
X3717920Y-995484D01*
X3717920Y-995484D02*
X3660777Y-995484D01*
X3660777Y-995484D02*
X3641729Y-985960D01*
X3641729Y-985960D02*
X3632206Y-976436D01*
X3832206Y-814531D02*
X3841729Y-805008D01*
X3841729Y-805008D02*
X3860777Y-795484D01*
X3860777Y-795484D02*
X3908396Y-795484D01*
X3908396Y-795484D02*
X3927444Y-805008D01*
X3927444Y-805008D02*
X3936968Y-814531D01*
X3936968Y-814531D02*
X3946491Y-833579D01*
X3946491Y-833579D02*
X3946491Y-852627D01*
X3946491Y-852627D02*
X3936968Y-881198D01*
X3936968Y-881198D02*
X3822682Y-995484D01*
X3822682Y-995484D02*
X3946491Y-995484D01*
X4184587Y-995484D02*
X4184587Y-795484D01*
X4270301Y-995484D02*
X4270301Y-890722D01*
X4270301Y-890722D02*
X4260777Y-871674D01*
X4260777Y-871674D02*
X4241730Y-862150D01*
X4241730Y-862150D02*
X4213158Y-862150D01*
X4213158Y-862150D02*
X4194110Y-871674D01*
X4194110Y-871674D02*
X4184587Y-881198D01*
X4394111Y-995484D02*
X4375063Y-985960D01*
X4375063Y-985960D02*
X4365539Y-976436D01*
X4365539Y-976436D02*
X4356015Y-957388D01*
X4356015Y-957388D02*
X4356015Y-900246D01*
X4356015Y-900246D02*
X4365539Y-881198D01*
X4365539Y-881198D02*
X4375063Y-871674D01*
X4375063Y-871674D02*
X4394111Y-862150D01*
X4394111Y-862150D02*
X4422682Y-862150D01*
X4422682Y-862150D02*
X4441730Y-871674D01*
X4441730Y-871674D02*
X4451253Y-881198D01*
X4451253Y-881198D02*
X4460777Y-900246D01*
X4460777Y-900246D02*
X4460777Y-957388D01*
X4460777Y-957388D02*
X4451253Y-976436D01*
X4451253Y-976436D02*
X4441730Y-985960D01*
X4441730Y-985960D02*
X4422682Y-995484D01*
X4422682Y-995484D02*
X4394111Y-995484D01*
X4575063Y-995484D02*
X4556015Y-985960D01*
X4556015Y-985960D02*
X4546492Y-966912D01*
X4546492Y-966912D02*
X4546492Y-795484D01*
X4727444Y-985960D02*
X4708396Y-995484D01*
X4708396Y-995484D02*
X4670301Y-995484D01*
X4670301Y-995484D02*
X4651253Y-985960D01*
X4651253Y-985960D02*
X4641730Y-966912D01*
X4641730Y-966912D02*
X4641730Y-890722D01*
X4641730Y-890722D02*
X4651253Y-871674D01*
X4651253Y-871674D02*
X4670301Y-862150D01*
X4670301Y-862150D02*
X4708396Y-862150D01*
X4708396Y-862150D02*
X4727444Y-871674D01*
X4727444Y-871674D02*
X4736968Y-890722D01*
X4736968Y-890722D02*
X4736968Y-909769D01*
X4736968Y-909769D02*
X4641730Y-928817D01*
X4813158Y-985960D02*
X4832206Y-995484D01*
X4832206Y-995484D02*
X4870301Y-995484D01*
X4870301Y-995484D02*
X4889349Y-985960D01*
X4889349Y-985960D02*
X4898873Y-966912D01*
X4898873Y-966912D02*
X4898873Y-957388D01*
X4898873Y-957388D02*
X4889349Y-938341D01*
X4889349Y-938341D02*
X4870301Y-928817D01*
X4870301Y-928817D02*
X4841730Y-928817D01*
X4841730Y-928817D02*
X4822682Y-919293D01*
X4822682Y-919293D02*
X4813158Y-900246D01*
X4813158Y-900246D02*
X4813158Y-890722D01*
X4813158Y-890722D02*
X4822682Y-871674D01*
X4822682Y-871674D02*
X4841730Y-862150D01*
X4841730Y-862150D02*
X4870301Y-862150D01*
X4870301Y-862150D02*
X4889349Y-871674D01*
X4965539Y-1071674D02*
X4975063Y-1062150D01*
X4975063Y-1062150D02*
X4994111Y-1033579D01*
X4994111Y-1033579D02*
X5003634Y-1014531D01*
X5003634Y-1014531D02*
X5013158Y-985960D01*
X5013158Y-985960D02*
X5022682Y-938341D01*
X5022682Y-938341D02*
X5022682Y-900246D01*
X5022682Y-900246D02*
X5013158Y-852627D01*
X5013158Y-852627D02*
X5003634Y-824055D01*
X5003634Y-824055D02*
X4994111Y-805008D01*
X4994111Y-805008D02*
X4975063Y-776436D01*
X4975063Y-776436D02*
X4965539Y-766912D01*
M02*
