G04 EAGLE Gerber RS-274X export*
G75*
%MOMM*%
%FSLAX34Y34*%
%LPD*%
%INSilkscreen Bottom*%
%IPPOS*%
%AMOC8*
5,1,8,0,0,1.08239X$1,22.5*%
G01*
%ADD10C,0.127000*%
%ADD11C,0.200000*%
%ADD12C,0.152400*%


D10*
X499500Y1063500D02*
X440500Y1063500D01*
X440500Y987500D01*
X499500Y987500D02*
X499500Y1063500D01*
X499500Y987500D02*
X440500Y987500D01*
D11*
X484400Y1069000D02*
X484402Y1069063D01*
X484408Y1069125D01*
X484418Y1069187D01*
X484431Y1069249D01*
X484449Y1069309D01*
X484470Y1069368D01*
X484495Y1069426D01*
X484524Y1069482D01*
X484556Y1069536D01*
X484591Y1069588D01*
X484629Y1069637D01*
X484671Y1069685D01*
X484715Y1069729D01*
X484763Y1069771D01*
X484812Y1069809D01*
X484864Y1069844D01*
X484918Y1069876D01*
X484974Y1069905D01*
X485032Y1069930D01*
X485091Y1069951D01*
X485151Y1069969D01*
X485213Y1069982D01*
X485275Y1069992D01*
X485337Y1069998D01*
X485400Y1070000D01*
X485463Y1069998D01*
X485525Y1069992D01*
X485587Y1069982D01*
X485649Y1069969D01*
X485709Y1069951D01*
X485768Y1069930D01*
X485826Y1069905D01*
X485882Y1069876D01*
X485936Y1069844D01*
X485988Y1069809D01*
X486037Y1069771D01*
X486085Y1069729D01*
X486129Y1069685D01*
X486171Y1069637D01*
X486209Y1069588D01*
X486244Y1069536D01*
X486276Y1069482D01*
X486305Y1069426D01*
X486330Y1069368D01*
X486351Y1069309D01*
X486369Y1069249D01*
X486382Y1069187D01*
X486392Y1069125D01*
X486398Y1069063D01*
X486400Y1069000D01*
X486398Y1068937D01*
X486392Y1068875D01*
X486382Y1068813D01*
X486369Y1068751D01*
X486351Y1068691D01*
X486330Y1068632D01*
X486305Y1068574D01*
X486276Y1068518D01*
X486244Y1068464D01*
X486209Y1068412D01*
X486171Y1068363D01*
X486129Y1068315D01*
X486085Y1068271D01*
X486037Y1068229D01*
X485988Y1068191D01*
X485936Y1068156D01*
X485882Y1068124D01*
X485826Y1068095D01*
X485768Y1068070D01*
X485709Y1068049D01*
X485649Y1068031D01*
X485587Y1068018D01*
X485525Y1068008D01*
X485463Y1068002D01*
X485400Y1068000D01*
X485337Y1068002D01*
X485275Y1068008D01*
X485213Y1068018D01*
X485151Y1068031D01*
X485091Y1068049D01*
X485032Y1068070D01*
X484974Y1068095D01*
X484918Y1068124D01*
X484864Y1068156D01*
X484812Y1068191D01*
X484763Y1068229D01*
X484715Y1068271D01*
X484671Y1068315D01*
X484629Y1068363D01*
X484591Y1068412D01*
X484556Y1068464D01*
X484524Y1068518D01*
X484495Y1068574D01*
X484470Y1068632D01*
X484449Y1068691D01*
X484431Y1068751D01*
X484418Y1068813D01*
X484408Y1068875D01*
X484402Y1068937D01*
X484400Y1069000D01*
D12*
X474699Y1024218D02*
X474699Y1019181D01*
X474701Y1019106D01*
X474707Y1019031D01*
X474717Y1018956D01*
X474730Y1018882D01*
X474748Y1018809D01*
X474769Y1018736D01*
X474795Y1018665D01*
X474823Y1018596D01*
X474856Y1018528D01*
X474892Y1018462D01*
X474931Y1018397D01*
X474974Y1018335D01*
X475020Y1018275D01*
X475069Y1018218D01*
X475120Y1018163D01*
X475175Y1018112D01*
X475232Y1018063D01*
X475292Y1018017D01*
X475354Y1017974D01*
X475419Y1017935D01*
X475485Y1017899D01*
X475553Y1017866D01*
X475622Y1017838D01*
X475693Y1017812D01*
X475766Y1017791D01*
X475839Y1017773D01*
X475913Y1017760D01*
X475988Y1017750D01*
X476063Y1017744D01*
X476138Y1017742D01*
X476858Y1017742D01*
X470907Y1022779D02*
X469108Y1024218D01*
X469108Y1017742D01*
X470907Y1017742D02*
X467309Y1017742D01*
X462268Y1020620D02*
X460109Y1020620D01*
X462268Y1020620D02*
X462341Y1020622D01*
X462414Y1020627D01*
X462486Y1020637D01*
X462558Y1020649D01*
X462629Y1020666D01*
X462699Y1020686D01*
X462768Y1020710D01*
X462835Y1020737D01*
X462902Y1020767D01*
X462966Y1020801D01*
X463029Y1020838D01*
X463090Y1020878D01*
X463149Y1020921D01*
X463205Y1020967D01*
X463259Y1021016D01*
X463311Y1021068D01*
X463360Y1021122D01*
X463406Y1021178D01*
X463449Y1021237D01*
X463489Y1021298D01*
X463526Y1021361D01*
X463560Y1021425D01*
X463590Y1021492D01*
X463617Y1021559D01*
X463641Y1021628D01*
X463661Y1021698D01*
X463678Y1021769D01*
X463690Y1021841D01*
X463700Y1021913D01*
X463705Y1021986D01*
X463707Y1022059D01*
X463707Y1022419D01*
X463705Y1022502D01*
X463699Y1022585D01*
X463690Y1022668D01*
X463676Y1022750D01*
X463659Y1022831D01*
X463638Y1022911D01*
X463614Y1022991D01*
X463586Y1023069D01*
X463554Y1023146D01*
X463518Y1023221D01*
X463480Y1023294D01*
X463438Y1023366D01*
X463392Y1023436D01*
X463344Y1023503D01*
X463292Y1023568D01*
X463237Y1023631D01*
X463180Y1023691D01*
X463120Y1023748D01*
X463057Y1023803D01*
X462992Y1023855D01*
X462925Y1023903D01*
X462855Y1023949D01*
X462783Y1023991D01*
X462710Y1024029D01*
X462635Y1024065D01*
X462558Y1024097D01*
X462480Y1024125D01*
X462400Y1024149D01*
X462320Y1024170D01*
X462239Y1024187D01*
X462157Y1024201D01*
X462074Y1024210D01*
X461991Y1024216D01*
X461908Y1024218D01*
X461825Y1024216D01*
X461742Y1024210D01*
X461659Y1024201D01*
X461577Y1024187D01*
X461496Y1024170D01*
X461416Y1024149D01*
X461336Y1024125D01*
X461258Y1024097D01*
X461181Y1024065D01*
X461106Y1024029D01*
X461033Y1023991D01*
X460961Y1023949D01*
X460891Y1023903D01*
X460824Y1023855D01*
X460759Y1023803D01*
X460696Y1023748D01*
X460636Y1023691D01*
X460579Y1023631D01*
X460524Y1023568D01*
X460472Y1023503D01*
X460424Y1023436D01*
X460378Y1023366D01*
X460336Y1023294D01*
X460298Y1023221D01*
X460262Y1023146D01*
X460230Y1023069D01*
X460202Y1022991D01*
X460178Y1022911D01*
X460157Y1022831D01*
X460140Y1022750D01*
X460126Y1022668D01*
X460117Y1022585D01*
X460111Y1022502D01*
X460109Y1022419D01*
X460109Y1020620D01*
X460111Y1020515D01*
X460117Y1020410D01*
X460126Y1020305D01*
X460140Y1020201D01*
X460157Y1020097D01*
X460178Y1019994D01*
X460203Y1019892D01*
X460231Y1019791D01*
X460263Y1019691D01*
X460299Y1019592D01*
X460338Y1019494D01*
X460381Y1019398D01*
X460427Y1019304D01*
X460477Y1019211D01*
X460530Y1019121D01*
X460587Y1019032D01*
X460646Y1018945D01*
X460709Y1018861D01*
X460775Y1018779D01*
X460844Y1018699D01*
X460915Y1018622D01*
X460989Y1018548D01*
X461066Y1018477D01*
X461146Y1018408D01*
X461228Y1018342D01*
X461312Y1018279D01*
X461399Y1018220D01*
X461488Y1018163D01*
X461578Y1018110D01*
X461671Y1018060D01*
X461765Y1018014D01*
X461861Y1017971D01*
X461959Y1017932D01*
X462058Y1017896D01*
X462158Y1017864D01*
X462259Y1017836D01*
X462361Y1017811D01*
X462464Y1017790D01*
X462568Y1017773D01*
X462672Y1017759D01*
X462777Y1017750D01*
X462882Y1017744D01*
X462987Y1017742D01*
M02*
