G04 EAGLE Gerber RS-274X export*
G75*
%MOMM*%
%FSLAX34Y34*%
%LPD*%
%INSoldermask Bottom*%
%IPPOS*%
%AMOC8*
5,1,8,0,0,1.08239X$1,22.5*%
G01*
%ADD10C,5.203200*%
%ADD11R,1.411200X1.411200*%
%ADD12C,1.411200*%
%ADD13C,1.803200*%
%ADD14C,1.727200*%
%ADD15P,1.649562X8X22.500000*%
%ADD16P,2.034460X8X292.500000*%
%ADD17P,2.034460X8X202.500000*%
%ADD18C,1.868200*%
%ADD19C,4.013200*%
%ADD20R,1.711200X1.711200*%
%ADD21C,1.711200*%


D10*
X40000Y40000D03*
X560000Y40000D03*
X560000Y1060000D03*
X40000Y1060000D03*
D11*
X520000Y190000D03*
D12*
X520000Y210000D03*
D13*
X80000Y630000D03*
X80000Y650000D03*
X80000Y670000D03*
X520000Y680000D03*
X520000Y660000D03*
X520000Y640000D03*
D11*
X410000Y80000D03*
D12*
X430000Y80000D03*
D11*
X480000Y1050000D03*
D12*
X460000Y1050000D03*
D11*
X80000Y210000D03*
D12*
X80000Y190000D03*
D11*
X80000Y130000D03*
D12*
X80000Y110000D03*
D11*
X520000Y110000D03*
D12*
X520000Y130000D03*
D11*
X150000Y1020000D03*
D12*
X130000Y1020000D03*
D11*
X130000Y80000D03*
D12*
X150000Y80000D03*
D14*
X522380Y885400D02*
X537620Y885400D01*
X537620Y860000D02*
X522380Y860000D01*
X522380Y834600D02*
X537620Y834600D01*
D15*
X57300Y960000D03*
X82700Y960000D03*
X57300Y880000D03*
X82700Y880000D03*
X57300Y800000D03*
X82700Y800000D03*
D16*
X375000Y311800D03*
X375000Y210200D03*
X225000Y311800D03*
X225000Y210200D03*
D17*
X385800Y363000D03*
X284200Y363000D03*
X385800Y465000D03*
X284200Y465000D03*
X385800Y414000D03*
X284200Y414000D03*
D18*
X439700Y916200D03*
X414300Y916200D03*
X388900Y916200D03*
X363500Y916200D03*
X338100Y916200D03*
X312700Y916200D03*
X287300Y916200D03*
X261900Y916200D03*
X236500Y916200D03*
X211100Y916200D03*
X185700Y916200D03*
X160300Y916200D03*
X160300Y738400D03*
X185700Y738400D03*
X211100Y738400D03*
X236500Y738400D03*
X261900Y738400D03*
X287300Y738400D03*
X312700Y738400D03*
X338100Y738400D03*
X363500Y738400D03*
X388900Y738400D03*
X414300Y738400D03*
X439700Y738400D03*
D19*
X427000Y827300D03*
X173000Y827300D03*
D20*
X175000Y617200D03*
X425000Y617200D03*
D21*
X175000Y591800D03*
X175000Y566400D03*
X175000Y541000D03*
X175000Y515600D03*
X175000Y490200D03*
X175000Y464800D03*
X175000Y439400D03*
X175000Y414000D03*
X175000Y388600D03*
X175000Y363200D03*
X175000Y337800D03*
X175000Y312400D03*
X175000Y287000D03*
X175000Y261600D03*
X425000Y591800D03*
X425000Y566400D03*
X425000Y541000D03*
X425000Y515600D03*
X425000Y490200D03*
X425000Y464800D03*
X425000Y439400D03*
X425000Y414000D03*
X425000Y388600D03*
X425000Y363200D03*
X425000Y337800D03*
X425000Y312400D03*
X425000Y287000D03*
X425000Y261600D03*
D13*
X211000Y1020000D03*
X231000Y1020000D03*
X251000Y1020000D03*
X271000Y1020000D03*
X270000Y80000D03*
X250000Y80000D03*
X230000Y80000D03*
X210000Y80000D03*
X80000Y510000D03*
X80000Y530000D03*
X80000Y550000D03*
X80000Y570000D03*
X520000Y570000D03*
X520000Y550000D03*
X520000Y530000D03*
X520000Y510000D03*
X80000Y390000D03*
X80000Y410000D03*
X80000Y430000D03*
X80000Y450000D03*
X520000Y450000D03*
X520000Y430000D03*
X520000Y410000D03*
X520000Y390000D03*
X80000Y270000D03*
X80000Y290000D03*
X80000Y310000D03*
X80000Y330000D03*
X520000Y330000D03*
X520000Y310000D03*
X520000Y290000D03*
X520000Y270000D03*
M02*
