G04 EAGLE Gerber RS-274X export*
G75*
%MOMM*%
%FSLAX34Y34*%
%LPD*%
%IN*%
%IPPOS*%
%AMOC8*
5,1,8,0,0,1.08239X$1,22.5*%
G01*
%ADD10C,0.254000*%


D10*
X689000Y420000D02*
X964000Y420000D01*
X964000Y803000D01*
X689000Y803000D01*
X689000Y420000D01*
X952246Y784548D02*
X952185Y783927D01*
X952063Y783315D01*
X951882Y782718D01*
X951643Y782142D01*
X951349Y781592D01*
X951003Y781073D01*
X950607Y780590D01*
X950166Y780149D01*
X949683Y779753D01*
X949165Y779407D01*
X948614Y779113D01*
X948038Y778874D01*
X947441Y778693D01*
X946829Y778571D01*
X946208Y778510D01*
X945584Y778510D01*
X944963Y778571D01*
X944351Y778693D01*
X943754Y778874D01*
X943178Y779113D01*
X942628Y779407D01*
X942109Y779753D01*
X941626Y780149D01*
X941185Y780590D01*
X940789Y781073D01*
X940443Y781592D01*
X940149Y782142D01*
X939910Y782718D01*
X939729Y783315D01*
X939607Y783927D01*
X939546Y784548D01*
X939546Y785172D01*
X939607Y785793D01*
X939729Y786405D01*
X939910Y787002D01*
X940149Y787578D01*
X940443Y788129D01*
X940789Y788647D01*
X941185Y789130D01*
X941626Y789571D01*
X942109Y789967D01*
X942628Y790313D01*
X943178Y790607D01*
X943754Y790846D01*
X944351Y791027D01*
X944963Y791149D01*
X945584Y791210D01*
X946208Y791210D01*
X946829Y791149D01*
X947441Y791027D01*
X948038Y790846D01*
X948614Y790607D01*
X949165Y790313D01*
X949683Y789967D01*
X950166Y789571D01*
X950607Y789130D01*
X951003Y788647D01*
X951349Y788129D01*
X951643Y787578D01*
X951882Y787002D01*
X952063Y786405D01*
X952185Y785793D01*
X952246Y785172D01*
X952246Y784548D01*
X952246Y437838D02*
X952185Y437217D01*
X952063Y436605D01*
X951882Y436008D01*
X951643Y435432D01*
X951349Y434882D01*
X951003Y434363D01*
X950607Y433880D01*
X950166Y433439D01*
X949683Y433043D01*
X949165Y432697D01*
X948614Y432403D01*
X948038Y432164D01*
X947441Y431983D01*
X946829Y431861D01*
X946208Y431800D01*
X945584Y431800D01*
X944963Y431861D01*
X944351Y431983D01*
X943754Y432164D01*
X943178Y432403D01*
X942628Y432697D01*
X942109Y433043D01*
X941626Y433439D01*
X941185Y433880D01*
X940789Y434363D01*
X940443Y434882D01*
X940149Y435432D01*
X939910Y436008D01*
X939729Y436605D01*
X939607Y437217D01*
X939546Y437838D01*
X939546Y438462D01*
X939607Y439083D01*
X939729Y439695D01*
X939910Y440292D01*
X940149Y440868D01*
X940443Y441419D01*
X940789Y441937D01*
X941185Y442420D01*
X941626Y442861D01*
X942109Y443257D01*
X942628Y443603D01*
X943178Y443897D01*
X943754Y444136D01*
X944351Y444317D01*
X944963Y444439D01*
X945584Y444500D01*
X946208Y444500D01*
X946829Y444439D01*
X947441Y444317D01*
X948038Y444136D01*
X948614Y443897D01*
X949165Y443603D01*
X949683Y443257D01*
X950166Y442861D01*
X950607Y442420D01*
X951003Y441937D01*
X951349Y441419D01*
X951643Y440868D01*
X951882Y440292D01*
X952063Y439695D01*
X952185Y439083D01*
X952246Y438462D01*
X952246Y437838D01*
X714248Y437838D02*
X714187Y437217D01*
X714065Y436605D01*
X713884Y436008D01*
X713645Y435432D01*
X713351Y434882D01*
X713005Y434363D01*
X712609Y433880D01*
X712168Y433439D01*
X711685Y433043D01*
X711167Y432697D01*
X710616Y432403D01*
X710040Y432164D01*
X709443Y431983D01*
X708831Y431861D01*
X708210Y431800D01*
X707586Y431800D01*
X706965Y431861D01*
X706353Y431983D01*
X705756Y432164D01*
X705180Y432403D01*
X704630Y432697D01*
X704111Y433043D01*
X703628Y433439D01*
X703187Y433880D01*
X702791Y434363D01*
X702445Y434882D01*
X702151Y435432D01*
X701912Y436008D01*
X701731Y436605D01*
X701609Y437217D01*
X701548Y437838D01*
X701548Y438462D01*
X701609Y439083D01*
X701731Y439695D01*
X701912Y440292D01*
X702151Y440868D01*
X702445Y441419D01*
X702791Y441937D01*
X703187Y442420D01*
X703628Y442861D01*
X704111Y443257D01*
X704630Y443603D01*
X705180Y443897D01*
X705756Y444136D01*
X706353Y444317D01*
X706965Y444439D01*
X707586Y444500D01*
X708210Y444500D01*
X708831Y444439D01*
X709443Y444317D01*
X710040Y444136D01*
X710616Y443897D01*
X711167Y443603D01*
X711685Y443257D01*
X712168Y442861D01*
X712609Y442420D01*
X713005Y441937D01*
X713351Y441419D01*
X713645Y440868D01*
X713884Y440292D01*
X714065Y439695D01*
X714187Y439083D01*
X714248Y438462D01*
X714248Y437838D01*
X714248Y784548D02*
X714187Y783927D01*
X714065Y783315D01*
X713884Y782718D01*
X713645Y782142D01*
X713351Y781592D01*
X713005Y781073D01*
X712609Y780590D01*
X712168Y780149D01*
X711685Y779753D01*
X711167Y779407D01*
X710616Y779113D01*
X710040Y778874D01*
X709443Y778693D01*
X708831Y778571D01*
X708210Y778510D01*
X707586Y778510D01*
X706965Y778571D01*
X706353Y778693D01*
X705756Y778874D01*
X705180Y779113D01*
X704630Y779407D01*
X704111Y779753D01*
X703628Y780149D01*
X703187Y780590D01*
X702791Y781073D01*
X702445Y781592D01*
X702151Y782142D01*
X701912Y782718D01*
X701731Y783315D01*
X701609Y783927D01*
X701548Y784548D01*
X701548Y785172D01*
X701609Y785793D01*
X701731Y786405D01*
X701912Y787002D01*
X702151Y787578D01*
X702445Y788129D01*
X702791Y788647D01*
X703187Y789130D01*
X703628Y789571D01*
X704111Y789967D01*
X704630Y790313D01*
X705180Y790607D01*
X705756Y790846D01*
X706353Y791027D01*
X706965Y791149D01*
X707586Y791210D01*
X708210Y791210D01*
X708831Y791149D01*
X709443Y791027D01*
X710040Y790846D01*
X710616Y790607D01*
X711167Y790313D01*
X711685Y789967D01*
X712168Y789571D01*
X712609Y789130D01*
X713005Y788647D01*
X713351Y788129D01*
X713645Y787578D01*
X713884Y787002D01*
X714065Y786405D01*
X714187Y785793D01*
X714248Y785172D01*
X714248Y784548D01*
M02*
