G04 EAGLE Gerber RS-274X export*
G75*
%MOMM*%
%FSLAX34Y34*%
%LPD*%
%INSoldermask Top*%
%IPPOS*%
%AMOC8*
5,1,8,0,0,1.08239X$1,22.5*%
G01*
%ADD10C,1.473200*%
%ADD11R,1.203200X1.278200*%
%ADD12R,1.278200X1.203200*%
%ADD13R,1.443200X1.703200*%
%ADD14R,1.203200X4.803200*%
%ADD15R,1.803200X3.603200*%
%ADD16R,4.803200X1.203200*%
%ADD17R,3.603200X1.803200*%
%ADD18R,1.553200X1.003200*%
%ADD19R,1.003200X1.003200*%
%ADD20C,2.133600*%
%ADD21C,1.981200*%
%ADD22R,0.703200X0.703200*%
%ADD23R,0.703200X0.603200*%
%ADD24R,0.653200X1.103200*%
%ADD25R,0.678200X0.453200*%
%ADD26R,0.453200X0.578200*%
%ADD27R,0.753200X1.403200*%
%ADD28R,2.103200X1.303200*%
%ADD29R,1.903200X0.803200*%
%ADD30R,2.903200X1.203200*%
%ADD31C,1.092200*%
%ADD32C,0.959600*%


D10*
X945896Y784860D03*
X945896Y438150D03*
X707898Y438150D03*
X707898Y784860D03*
D11*
X890200Y612200D03*
X890200Y629200D03*
X905800Y628600D03*
X905800Y611600D03*
D12*
X770600Y617800D03*
X787600Y617800D03*
D13*
X772900Y562300D03*
X753900Y562300D03*
X789600Y635200D03*
X770600Y635200D03*
D12*
X858800Y646800D03*
X875800Y646800D03*
D14*
X850800Y499800D03*
X830800Y499800D03*
D15*
X874800Y447800D03*
X806800Y447800D03*
D16*
X770800Y522300D03*
X770800Y542300D03*
D17*
X718800Y498300D03*
X718800Y566300D03*
D14*
X831400Y723200D03*
X851400Y723200D03*
D15*
X807400Y775200D03*
X875400Y775200D03*
D16*
X769800Y700200D03*
X769800Y720200D03*
D17*
X717800Y676200D03*
X717800Y744200D03*
D18*
X931400Y561900D03*
X906000Y561900D03*
D19*
X772800Y663600D03*
X787800Y663600D03*
D20*
X804100Y684900D03*
X829500Y684900D03*
X854900Y684900D03*
X880300Y684900D03*
D21*
X810000Y536900D03*
X835400Y536900D03*
X860800Y536900D03*
X886200Y536900D03*
X911600Y536900D03*
X937000Y536900D03*
D22*
X882300Y572600D03*
D23*
X882300Y580100D03*
D22*
X882300Y587600D03*
X864300Y587600D03*
D23*
X864300Y580100D03*
D22*
X864300Y572600D03*
D24*
X917600Y649400D03*
X917600Y666400D03*
X908600Y649400D03*
X900600Y649400D03*
X891600Y649400D03*
X891600Y666400D03*
X908600Y666400D03*
X900600Y666400D03*
X807600Y663600D03*
X807600Y646600D03*
X816600Y663600D03*
X824600Y663600D03*
X833600Y663600D03*
X833600Y646600D03*
X816600Y646600D03*
X824600Y646600D03*
D12*
X926000Y576200D03*
X909000Y576200D03*
D25*
X851725Y629600D03*
D26*
X843600Y630225D03*
X838600Y630225D03*
X833600Y630225D03*
X828600Y630225D03*
D25*
X820475Y629600D03*
X820475Y624600D03*
X820475Y619600D03*
X820475Y614600D03*
X820475Y609600D03*
X820475Y604600D03*
X820475Y599600D03*
X820475Y594600D03*
X820475Y589600D03*
X820475Y584600D03*
D26*
X828600Y583975D03*
X833600Y583975D03*
X838600Y583975D03*
X843600Y583975D03*
D25*
X851725Y584600D03*
X851725Y589600D03*
X851725Y594600D03*
X851725Y599600D03*
X851725Y604600D03*
X851725Y609600D03*
X851725Y614600D03*
X851725Y619600D03*
X851725Y624600D03*
D27*
X784000Y570699D03*
X793500Y570699D03*
X803000Y570699D03*
X803000Y596701D03*
X784000Y596701D03*
D28*
X869100Y604200D03*
X869100Y628200D03*
D29*
X747000Y638750D03*
D30*
X715000Y582750D03*
X715000Y657250D03*
D29*
X747000Y626250D03*
X747000Y613750D03*
X747000Y601250D03*
D31*
X880000Y658000D03*
X750000Y584000D03*
D32*
X924000Y634000D03*
X864000Y564000D03*
X923000Y624000D03*
X892000Y585000D03*
D31*
X727000Y613000D03*
X905000Y678000D03*
X727000Y626000D03*
D32*
X939000Y576000D03*
X873000Y580000D03*
D31*
X863000Y664000D03*
X793000Y605000D03*
X791000Y651000D03*
D32*
X908000Y587000D03*
D31*
X812000Y605000D03*
X812000Y590000D03*
D32*
X834000Y576000D03*
M02*
