%TF.GenerationSoftware,KiCad,Pcbnew,8.0.1*%
%TF.CreationDate,2026-04-15T14:43:22+08:00*%
%TF.ProjectId,Measurement_Device_PCB,4d656173-7572-4656-9d65-6e745f446576,rev?*%
%TF.SameCoordinates,Original*%
%TF.FileFunction,Legend,Top*%
%TF.FilePolarity,Positive*%
%FSLAX46Y46*%
G04 Gerber Fmt 4.6, Leading zero omitted, Abs format (unit mm)*
G04 Created by KiCad (PCBNEW 8.0.1) date 2026-04-15 14:43:22*
%MOMM*%
%LPD*%
G01*
G04 APERTURE LIST*
%ADD10C,0.100000*%
%ADD11C,0.150000*%
%ADD12C,0.300000*%
%ADD13C,0.400000*%
%ADD14C,0.120000*%
G04 APERTURE END LIST*
D10*
D11*
X177002200Y-166007200D02*
X285002200Y-166007200D01*
X285002200Y-198007200D01*
X177002200Y-198007200D01*
X177002200Y-166007200D01*
D10*
D11*
X10000000Y-10000000D02*
X287002200Y-10000000D01*
X287002200Y-200007200D01*
X10000000Y-200007200D01*
X10000000Y-10000000D01*
D10*
D11*
X12000000Y-12000000D02*
X285002200Y-12000000D01*
X285002200Y-198007200D01*
X12000000Y-198007200D01*
X12000000Y-12000000D01*
D10*
D11*
X60000000Y-12000000D02*
X60000000Y-10000000D01*
D10*
D11*
X110000000Y-12000000D02*
X110000000Y-10000000D01*
D10*
D11*
X160000000Y-12000000D02*
X160000000Y-10000000D01*
D10*
D11*
X210000000Y-12000000D02*
X210000000Y-10000000D01*
D10*
D11*
X260000000Y-12000000D02*
X260000000Y-10000000D01*
D10*
D11*
X36089160Y-11593604D02*
X35346303Y-11593604D01*
X35717731Y-11593604D02*
X35717731Y-10293604D01*
X35717731Y-10293604D02*
X35593922Y-10479319D01*
X35593922Y-10479319D02*
X35470112Y-10603128D01*
X35470112Y-10603128D02*
X35346303Y-10665033D01*
D10*
D11*
X85346303Y-10417414D02*
X85408207Y-10355509D01*
X85408207Y-10355509D02*
X85532017Y-10293604D01*
X85532017Y-10293604D02*
X85841541Y-10293604D01*
X85841541Y-10293604D02*
X85965350Y-10355509D01*
X85965350Y-10355509D02*
X86027255Y-10417414D01*
X86027255Y-10417414D02*
X86089160Y-10541223D01*
X86089160Y-10541223D02*
X86089160Y-10665033D01*
X86089160Y-10665033D02*
X86027255Y-10850747D01*
X86027255Y-10850747D02*
X85284398Y-11593604D01*
X85284398Y-11593604D02*
X86089160Y-11593604D01*
D10*
D11*
X135284398Y-10293604D02*
X136089160Y-10293604D01*
X136089160Y-10293604D02*
X135655826Y-10788842D01*
X135655826Y-10788842D02*
X135841541Y-10788842D01*
X135841541Y-10788842D02*
X135965350Y-10850747D01*
X135965350Y-10850747D02*
X136027255Y-10912652D01*
X136027255Y-10912652D02*
X136089160Y-11036461D01*
X136089160Y-11036461D02*
X136089160Y-11345985D01*
X136089160Y-11345985D02*
X136027255Y-11469795D01*
X136027255Y-11469795D02*
X135965350Y-11531700D01*
X135965350Y-11531700D02*
X135841541Y-11593604D01*
X135841541Y-11593604D02*
X135470112Y-11593604D01*
X135470112Y-11593604D02*
X135346303Y-11531700D01*
X135346303Y-11531700D02*
X135284398Y-11469795D01*
D10*
D11*
X185965350Y-10726938D02*
X185965350Y-11593604D01*
X185655826Y-10231700D02*
X185346303Y-11160271D01*
X185346303Y-11160271D02*
X186151064Y-11160271D01*
D10*
D11*
X236027255Y-10293604D02*
X235408207Y-10293604D01*
X235408207Y-10293604D02*
X235346303Y-10912652D01*
X235346303Y-10912652D02*
X235408207Y-10850747D01*
X235408207Y-10850747D02*
X235532017Y-10788842D01*
X235532017Y-10788842D02*
X235841541Y-10788842D01*
X235841541Y-10788842D02*
X235965350Y-10850747D01*
X235965350Y-10850747D02*
X236027255Y-10912652D01*
X236027255Y-10912652D02*
X236089160Y-11036461D01*
X236089160Y-11036461D02*
X236089160Y-11345985D01*
X236089160Y-11345985D02*
X236027255Y-11469795D01*
X236027255Y-11469795D02*
X235965350Y-11531700D01*
X235965350Y-11531700D02*
X235841541Y-11593604D01*
X235841541Y-11593604D02*
X235532017Y-11593604D01*
X235532017Y-11593604D02*
X235408207Y-11531700D01*
X235408207Y-11531700D02*
X235346303Y-11469795D01*
D10*
D11*
X285965350Y-10293604D02*
X285717731Y-10293604D01*
X285717731Y-10293604D02*
X285593922Y-10355509D01*
X285593922Y-10355509D02*
X285532017Y-10417414D01*
X285532017Y-10417414D02*
X285408207Y-10603128D01*
X285408207Y-10603128D02*
X285346303Y-10850747D01*
X285346303Y-10850747D02*
X285346303Y-11345985D01*
X285346303Y-11345985D02*
X285408207Y-11469795D01*
X285408207Y-11469795D02*
X285470112Y-11531700D01*
X285470112Y-11531700D02*
X285593922Y-11593604D01*
X285593922Y-11593604D02*
X285841541Y-11593604D01*
X285841541Y-11593604D02*
X285965350Y-11531700D01*
X285965350Y-11531700D02*
X286027255Y-11469795D01*
X286027255Y-11469795D02*
X286089160Y-11345985D01*
X286089160Y-11345985D02*
X286089160Y-11036461D01*
X286089160Y-11036461D02*
X286027255Y-10912652D01*
X286027255Y-10912652D02*
X285965350Y-10850747D01*
X285965350Y-10850747D02*
X285841541Y-10788842D01*
X285841541Y-10788842D02*
X285593922Y-10788842D01*
X285593922Y-10788842D02*
X285470112Y-10850747D01*
X285470112Y-10850747D02*
X285408207Y-10912652D01*
X285408207Y-10912652D02*
X285346303Y-11036461D01*
D10*
D11*
X60000000Y-198007200D02*
X60000000Y-200007200D01*
D10*
D11*
X110000000Y-198007200D02*
X110000000Y-200007200D01*
D10*
D11*
X160000000Y-198007200D02*
X160000000Y-200007200D01*
D10*
D11*
X210000000Y-198007200D02*
X210000000Y-200007200D01*
D10*
D11*
X260000000Y-198007200D02*
X260000000Y-200007200D01*
D10*
D11*
X36089160Y-199600804D02*
X35346303Y-199600804D01*
X35717731Y-199600804D02*
X35717731Y-198300804D01*
X35717731Y-198300804D02*
X35593922Y-198486519D01*
X35593922Y-198486519D02*
X35470112Y-198610328D01*
X35470112Y-198610328D02*
X35346303Y-198672233D01*
D10*
D11*
X85346303Y-198424614D02*
X85408207Y-198362709D01*
X85408207Y-198362709D02*
X85532017Y-198300804D01*
X85532017Y-198300804D02*
X85841541Y-198300804D01*
X85841541Y-198300804D02*
X85965350Y-198362709D01*
X85965350Y-198362709D02*
X86027255Y-198424614D01*
X86027255Y-198424614D02*
X86089160Y-198548423D01*
X86089160Y-198548423D02*
X86089160Y-198672233D01*
X86089160Y-198672233D02*
X86027255Y-198857947D01*
X86027255Y-198857947D02*
X85284398Y-199600804D01*
X85284398Y-199600804D02*
X86089160Y-199600804D01*
D10*
D11*
X135284398Y-198300804D02*
X136089160Y-198300804D01*
X136089160Y-198300804D02*
X135655826Y-198796042D01*
X135655826Y-198796042D02*
X135841541Y-198796042D01*
X135841541Y-198796042D02*
X135965350Y-198857947D01*
X135965350Y-198857947D02*
X136027255Y-198919852D01*
X136027255Y-198919852D02*
X136089160Y-199043661D01*
X136089160Y-199043661D02*
X136089160Y-199353185D01*
X136089160Y-199353185D02*
X136027255Y-199476995D01*
X136027255Y-199476995D02*
X135965350Y-199538900D01*
X135965350Y-199538900D02*
X135841541Y-199600804D01*
X135841541Y-199600804D02*
X135470112Y-199600804D01*
X135470112Y-199600804D02*
X135346303Y-199538900D01*
X135346303Y-199538900D02*
X135284398Y-199476995D01*
D10*
D11*
X185965350Y-198734138D02*
X185965350Y-199600804D01*
X185655826Y-198238900D02*
X185346303Y-199167471D01*
X185346303Y-199167471D02*
X186151064Y-199167471D01*
D10*
D11*
X236027255Y-198300804D02*
X235408207Y-198300804D01*
X235408207Y-198300804D02*
X235346303Y-198919852D01*
X235346303Y-198919852D02*
X235408207Y-198857947D01*
X235408207Y-198857947D02*
X235532017Y-198796042D01*
X235532017Y-198796042D02*
X235841541Y-198796042D01*
X235841541Y-198796042D02*
X235965350Y-198857947D01*
X235965350Y-198857947D02*
X236027255Y-198919852D01*
X236027255Y-198919852D02*
X236089160Y-199043661D01*
X236089160Y-199043661D02*
X236089160Y-199353185D01*
X236089160Y-199353185D02*
X236027255Y-199476995D01*
X236027255Y-199476995D02*
X235965350Y-199538900D01*
X235965350Y-199538900D02*
X235841541Y-199600804D01*
X235841541Y-199600804D02*
X235532017Y-199600804D01*
X235532017Y-199600804D02*
X235408207Y-199538900D01*
X235408207Y-199538900D02*
X235346303Y-199476995D01*
D10*
D11*
X285965350Y-198300804D02*
X285717731Y-198300804D01*
X285717731Y-198300804D02*
X285593922Y-198362709D01*
X285593922Y-198362709D02*
X285532017Y-198424614D01*
X285532017Y-198424614D02*
X285408207Y-198610328D01*
X285408207Y-198610328D02*
X285346303Y-198857947D01*
X285346303Y-198857947D02*
X285346303Y-199353185D01*
X285346303Y-199353185D02*
X285408207Y-199476995D01*
X285408207Y-199476995D02*
X285470112Y-199538900D01*
X285470112Y-199538900D02*
X285593922Y-199600804D01*
X285593922Y-199600804D02*
X285841541Y-199600804D01*
X285841541Y-199600804D02*
X285965350Y-199538900D01*
X285965350Y-199538900D02*
X286027255Y-199476995D01*
X286027255Y-199476995D02*
X286089160Y-199353185D01*
X286089160Y-199353185D02*
X286089160Y-199043661D01*
X286089160Y-199043661D02*
X286027255Y-198919852D01*
X286027255Y-198919852D02*
X285965350Y-198857947D01*
X285965350Y-198857947D02*
X285841541Y-198796042D01*
X285841541Y-198796042D02*
X285593922Y-198796042D01*
X285593922Y-198796042D02*
X285470112Y-198857947D01*
X285470112Y-198857947D02*
X285408207Y-198919852D01*
X285408207Y-198919852D02*
X285346303Y-199043661D01*
D10*
D11*
X10000000Y-60000000D02*
X12000000Y-60000000D01*
D10*
D11*
X10000000Y-110000000D02*
X12000000Y-110000000D01*
D10*
D11*
X10000000Y-160000000D02*
X12000000Y-160000000D01*
D10*
D11*
X10690476Y-35222176D02*
X11309523Y-35222176D01*
X10566666Y-35593604D02*
X10999999Y-34293604D01*
X10999999Y-34293604D02*
X11433333Y-35593604D01*
D10*
D11*
X11092857Y-84912652D02*
X11278571Y-84974557D01*
X11278571Y-84974557D02*
X11340476Y-85036461D01*
X11340476Y-85036461D02*
X11402380Y-85160271D01*
X11402380Y-85160271D02*
X11402380Y-85345985D01*
X11402380Y-85345985D02*
X11340476Y-85469795D01*
X11340476Y-85469795D02*
X11278571Y-85531700D01*
X11278571Y-85531700D02*
X11154761Y-85593604D01*
X11154761Y-85593604D02*
X10659523Y-85593604D01*
X10659523Y-85593604D02*
X10659523Y-84293604D01*
X10659523Y-84293604D02*
X11092857Y-84293604D01*
X11092857Y-84293604D02*
X11216666Y-84355509D01*
X11216666Y-84355509D02*
X11278571Y-84417414D01*
X11278571Y-84417414D02*
X11340476Y-84541223D01*
X11340476Y-84541223D02*
X11340476Y-84665033D01*
X11340476Y-84665033D02*
X11278571Y-84788842D01*
X11278571Y-84788842D02*
X11216666Y-84850747D01*
X11216666Y-84850747D02*
X11092857Y-84912652D01*
X11092857Y-84912652D02*
X10659523Y-84912652D01*
D10*
D11*
X11402380Y-135469795D02*
X11340476Y-135531700D01*
X11340476Y-135531700D02*
X11154761Y-135593604D01*
X11154761Y-135593604D02*
X11030952Y-135593604D01*
X11030952Y-135593604D02*
X10845238Y-135531700D01*
X10845238Y-135531700D02*
X10721428Y-135407890D01*
X10721428Y-135407890D02*
X10659523Y-135284080D01*
X10659523Y-135284080D02*
X10597619Y-135036461D01*
X10597619Y-135036461D02*
X10597619Y-134850747D01*
X10597619Y-134850747D02*
X10659523Y-134603128D01*
X10659523Y-134603128D02*
X10721428Y-134479319D01*
X10721428Y-134479319D02*
X10845238Y-134355509D01*
X10845238Y-134355509D02*
X11030952Y-134293604D01*
X11030952Y-134293604D02*
X11154761Y-134293604D01*
X11154761Y-134293604D02*
X11340476Y-134355509D01*
X11340476Y-134355509D02*
X11402380Y-134417414D01*
D10*
D11*
X10659523Y-185593604D02*
X10659523Y-184293604D01*
X10659523Y-184293604D02*
X10969047Y-184293604D01*
X10969047Y-184293604D02*
X11154761Y-184355509D01*
X11154761Y-184355509D02*
X11278571Y-184479319D01*
X11278571Y-184479319D02*
X11340476Y-184603128D01*
X11340476Y-184603128D02*
X11402380Y-184850747D01*
X11402380Y-184850747D02*
X11402380Y-185036461D01*
X11402380Y-185036461D02*
X11340476Y-185284080D01*
X11340476Y-185284080D02*
X11278571Y-185407890D01*
X11278571Y-185407890D02*
X11154761Y-185531700D01*
X11154761Y-185531700D02*
X10969047Y-185593604D01*
X10969047Y-185593604D02*
X10659523Y-185593604D01*
D10*
D11*
X287002200Y-60000000D02*
X285002200Y-60000000D01*
D10*
D11*
X287002200Y-110000000D02*
X285002200Y-110000000D01*
D10*
D11*
X287002200Y-160000000D02*
X285002200Y-160000000D01*
D10*
D11*
X285692676Y-35222176D02*
X286311723Y-35222176D01*
X285568866Y-35593604D02*
X286002199Y-34293604D01*
X286002199Y-34293604D02*
X286435533Y-35593604D01*
D10*
D11*
X286095057Y-84912652D02*
X286280771Y-84974557D01*
X286280771Y-84974557D02*
X286342676Y-85036461D01*
X286342676Y-85036461D02*
X286404580Y-85160271D01*
X286404580Y-85160271D02*
X286404580Y-85345985D01*
X286404580Y-85345985D02*
X286342676Y-85469795D01*
X286342676Y-85469795D02*
X286280771Y-85531700D01*
X286280771Y-85531700D02*
X286156961Y-85593604D01*
X286156961Y-85593604D02*
X285661723Y-85593604D01*
X285661723Y-85593604D02*
X285661723Y-84293604D01*
X285661723Y-84293604D02*
X286095057Y-84293604D01*
X286095057Y-84293604D02*
X286218866Y-84355509D01*
X286218866Y-84355509D02*
X286280771Y-84417414D01*
X286280771Y-84417414D02*
X286342676Y-84541223D01*
X286342676Y-84541223D02*
X286342676Y-84665033D01*
X286342676Y-84665033D02*
X286280771Y-84788842D01*
X286280771Y-84788842D02*
X286218866Y-84850747D01*
X286218866Y-84850747D02*
X286095057Y-84912652D01*
X286095057Y-84912652D02*
X285661723Y-84912652D01*
D10*
D11*
X286404580Y-135469795D02*
X286342676Y-135531700D01*
X286342676Y-135531700D02*
X286156961Y-135593604D01*
X286156961Y-135593604D02*
X286033152Y-135593604D01*
X286033152Y-135593604D02*
X285847438Y-135531700D01*
X285847438Y-135531700D02*
X285723628Y-135407890D01*
X285723628Y-135407890D02*
X285661723Y-135284080D01*
X285661723Y-135284080D02*
X285599819Y-135036461D01*
X285599819Y-135036461D02*
X285599819Y-134850747D01*
X285599819Y-134850747D02*
X285661723Y-134603128D01*
X285661723Y-134603128D02*
X285723628Y-134479319D01*
X285723628Y-134479319D02*
X285847438Y-134355509D01*
X285847438Y-134355509D02*
X286033152Y-134293604D01*
X286033152Y-134293604D02*
X286156961Y-134293604D01*
X286156961Y-134293604D02*
X286342676Y-134355509D01*
X286342676Y-134355509D02*
X286404580Y-134417414D01*
D10*
D11*
X285661723Y-185593604D02*
X285661723Y-184293604D01*
X285661723Y-184293604D02*
X285971247Y-184293604D01*
X285971247Y-184293604D02*
X286156961Y-184355509D01*
X286156961Y-184355509D02*
X286280771Y-184479319D01*
X286280771Y-184479319D02*
X286342676Y-184603128D01*
X286342676Y-184603128D02*
X286404580Y-184850747D01*
X286404580Y-184850747D02*
X286404580Y-185036461D01*
X286404580Y-185036461D02*
X286342676Y-185284080D01*
X286342676Y-185284080D02*
X286280771Y-185407890D01*
X286280771Y-185407890D02*
X286156961Y-185531700D01*
X286156961Y-185531700D02*
X285971247Y-185593604D01*
X285971247Y-185593604D02*
X285661723Y-185593604D01*
D10*
D11*
X200458026Y-193793328D02*
X200458026Y-192293328D01*
X200458026Y-192293328D02*
X200815169Y-192293328D01*
X200815169Y-192293328D02*
X201029455Y-192364757D01*
X201029455Y-192364757D02*
X201172312Y-192507614D01*
X201172312Y-192507614D02*
X201243741Y-192650471D01*
X201243741Y-192650471D02*
X201315169Y-192936185D01*
X201315169Y-192936185D02*
X201315169Y-193150471D01*
X201315169Y-193150471D02*
X201243741Y-193436185D01*
X201243741Y-193436185D02*
X201172312Y-193579042D01*
X201172312Y-193579042D02*
X201029455Y-193721900D01*
X201029455Y-193721900D02*
X200815169Y-193793328D01*
X200815169Y-193793328D02*
X200458026Y-193793328D01*
X202600884Y-193793328D02*
X202600884Y-193007614D01*
X202600884Y-193007614D02*
X202529455Y-192864757D01*
X202529455Y-192864757D02*
X202386598Y-192793328D01*
X202386598Y-192793328D02*
X202100884Y-192793328D01*
X202100884Y-192793328D02*
X201958026Y-192864757D01*
X202600884Y-193721900D02*
X202458026Y-193793328D01*
X202458026Y-193793328D02*
X202100884Y-193793328D01*
X202100884Y-193793328D02*
X201958026Y-193721900D01*
X201958026Y-193721900D02*
X201886598Y-193579042D01*
X201886598Y-193579042D02*
X201886598Y-193436185D01*
X201886598Y-193436185D02*
X201958026Y-193293328D01*
X201958026Y-193293328D02*
X202100884Y-193221900D01*
X202100884Y-193221900D02*
X202458026Y-193221900D01*
X202458026Y-193221900D02*
X202600884Y-193150471D01*
X203100884Y-192793328D02*
X203672312Y-192793328D01*
X203315169Y-192293328D02*
X203315169Y-193579042D01*
X203315169Y-193579042D02*
X203386598Y-193721900D01*
X203386598Y-193721900D02*
X203529455Y-193793328D01*
X203529455Y-193793328D02*
X203672312Y-193793328D01*
X204743741Y-193721900D02*
X204600884Y-193793328D01*
X204600884Y-193793328D02*
X204315170Y-193793328D01*
X204315170Y-193793328D02*
X204172312Y-193721900D01*
X204172312Y-193721900D02*
X204100884Y-193579042D01*
X204100884Y-193579042D02*
X204100884Y-193007614D01*
X204100884Y-193007614D02*
X204172312Y-192864757D01*
X204172312Y-192864757D02*
X204315170Y-192793328D01*
X204315170Y-192793328D02*
X204600884Y-192793328D01*
X204600884Y-192793328D02*
X204743741Y-192864757D01*
X204743741Y-192864757D02*
X204815170Y-193007614D01*
X204815170Y-193007614D02*
X204815170Y-193150471D01*
X204815170Y-193150471D02*
X204100884Y-193293328D01*
X205458026Y-193650471D02*
X205529455Y-193721900D01*
X205529455Y-193721900D02*
X205458026Y-193793328D01*
X205458026Y-193793328D02*
X205386598Y-193721900D01*
X205386598Y-193721900D02*
X205458026Y-193650471D01*
X205458026Y-193650471D02*
X205458026Y-193793328D01*
X205458026Y-192864757D02*
X205529455Y-192936185D01*
X205529455Y-192936185D02*
X205458026Y-193007614D01*
X205458026Y-193007614D02*
X205386598Y-192936185D01*
X205386598Y-192936185D02*
X205458026Y-192864757D01*
X205458026Y-192864757D02*
X205458026Y-193007614D01*
D10*
D11*
X177002200Y-194507200D02*
X285002200Y-194507200D01*
D10*
D11*
X178458026Y-196593328D02*
X178458026Y-195093328D01*
X179315169Y-196593328D02*
X178672312Y-195736185D01*
X179315169Y-195093328D02*
X178458026Y-195950471D01*
X179958026Y-196593328D02*
X179958026Y-195593328D01*
X179958026Y-195093328D02*
X179886598Y-195164757D01*
X179886598Y-195164757D02*
X179958026Y-195236185D01*
X179958026Y-195236185D02*
X180029455Y-195164757D01*
X180029455Y-195164757D02*
X179958026Y-195093328D01*
X179958026Y-195093328D02*
X179958026Y-195236185D01*
X181529455Y-196450471D02*
X181458027Y-196521900D01*
X181458027Y-196521900D02*
X181243741Y-196593328D01*
X181243741Y-196593328D02*
X181100884Y-196593328D01*
X181100884Y-196593328D02*
X180886598Y-196521900D01*
X180886598Y-196521900D02*
X180743741Y-196379042D01*
X180743741Y-196379042D02*
X180672312Y-196236185D01*
X180672312Y-196236185D02*
X180600884Y-195950471D01*
X180600884Y-195950471D02*
X180600884Y-195736185D01*
X180600884Y-195736185D02*
X180672312Y-195450471D01*
X180672312Y-195450471D02*
X180743741Y-195307614D01*
X180743741Y-195307614D02*
X180886598Y-195164757D01*
X180886598Y-195164757D02*
X181100884Y-195093328D01*
X181100884Y-195093328D02*
X181243741Y-195093328D01*
X181243741Y-195093328D02*
X181458027Y-195164757D01*
X181458027Y-195164757D02*
X181529455Y-195236185D01*
X182815170Y-196593328D02*
X182815170Y-195807614D01*
X182815170Y-195807614D02*
X182743741Y-195664757D01*
X182743741Y-195664757D02*
X182600884Y-195593328D01*
X182600884Y-195593328D02*
X182315170Y-195593328D01*
X182315170Y-195593328D02*
X182172312Y-195664757D01*
X182815170Y-196521900D02*
X182672312Y-196593328D01*
X182672312Y-196593328D02*
X182315170Y-196593328D01*
X182315170Y-196593328D02*
X182172312Y-196521900D01*
X182172312Y-196521900D02*
X182100884Y-196379042D01*
X182100884Y-196379042D02*
X182100884Y-196236185D01*
X182100884Y-196236185D02*
X182172312Y-196093328D01*
X182172312Y-196093328D02*
X182315170Y-196021900D01*
X182315170Y-196021900D02*
X182672312Y-196021900D01*
X182672312Y-196021900D02*
X182815170Y-195950471D01*
X184172313Y-196593328D02*
X184172313Y-195093328D01*
X184172313Y-196521900D02*
X184029455Y-196593328D01*
X184029455Y-196593328D02*
X183743741Y-196593328D01*
X183743741Y-196593328D02*
X183600884Y-196521900D01*
X183600884Y-196521900D02*
X183529455Y-196450471D01*
X183529455Y-196450471D02*
X183458027Y-196307614D01*
X183458027Y-196307614D02*
X183458027Y-195879042D01*
X183458027Y-195879042D02*
X183529455Y-195736185D01*
X183529455Y-195736185D02*
X183600884Y-195664757D01*
X183600884Y-195664757D02*
X183743741Y-195593328D01*
X183743741Y-195593328D02*
X184029455Y-195593328D01*
X184029455Y-195593328D02*
X184172313Y-195664757D01*
X186029455Y-195807614D02*
X186529455Y-195807614D01*
X186743741Y-196593328D02*
X186029455Y-196593328D01*
X186029455Y-196593328D02*
X186029455Y-195093328D01*
X186029455Y-195093328D02*
X186743741Y-195093328D01*
X187386598Y-196450471D02*
X187458027Y-196521900D01*
X187458027Y-196521900D02*
X187386598Y-196593328D01*
X187386598Y-196593328D02*
X187315170Y-196521900D01*
X187315170Y-196521900D02*
X187386598Y-196450471D01*
X187386598Y-196450471D02*
X187386598Y-196593328D01*
X188100884Y-196593328D02*
X188100884Y-195093328D01*
X188100884Y-195093328D02*
X188458027Y-195093328D01*
X188458027Y-195093328D02*
X188672313Y-195164757D01*
X188672313Y-195164757D02*
X188815170Y-195307614D01*
X188815170Y-195307614D02*
X188886599Y-195450471D01*
X188886599Y-195450471D02*
X188958027Y-195736185D01*
X188958027Y-195736185D02*
X188958027Y-195950471D01*
X188958027Y-195950471D02*
X188886599Y-196236185D01*
X188886599Y-196236185D02*
X188815170Y-196379042D01*
X188815170Y-196379042D02*
X188672313Y-196521900D01*
X188672313Y-196521900D02*
X188458027Y-196593328D01*
X188458027Y-196593328D02*
X188100884Y-196593328D01*
X189600884Y-196450471D02*
X189672313Y-196521900D01*
X189672313Y-196521900D02*
X189600884Y-196593328D01*
X189600884Y-196593328D02*
X189529456Y-196521900D01*
X189529456Y-196521900D02*
X189600884Y-196450471D01*
X189600884Y-196450471D02*
X189600884Y-196593328D01*
X190243742Y-196164757D02*
X190958028Y-196164757D01*
X190100885Y-196593328D02*
X190600885Y-195093328D01*
X190600885Y-195093328D02*
X191100885Y-196593328D01*
X191600884Y-196450471D02*
X191672313Y-196521900D01*
X191672313Y-196521900D02*
X191600884Y-196593328D01*
X191600884Y-196593328D02*
X191529456Y-196521900D01*
X191529456Y-196521900D02*
X191600884Y-196450471D01*
X191600884Y-196450471D02*
X191600884Y-196593328D01*
X193672313Y-195736185D02*
X193529456Y-195664757D01*
X193529456Y-195664757D02*
X193458027Y-195593328D01*
X193458027Y-195593328D02*
X193386599Y-195450471D01*
X193386599Y-195450471D02*
X193386599Y-195379042D01*
X193386599Y-195379042D02*
X193458027Y-195236185D01*
X193458027Y-195236185D02*
X193529456Y-195164757D01*
X193529456Y-195164757D02*
X193672313Y-195093328D01*
X193672313Y-195093328D02*
X193958027Y-195093328D01*
X193958027Y-195093328D02*
X194100885Y-195164757D01*
X194100885Y-195164757D02*
X194172313Y-195236185D01*
X194172313Y-195236185D02*
X194243742Y-195379042D01*
X194243742Y-195379042D02*
X194243742Y-195450471D01*
X194243742Y-195450471D02*
X194172313Y-195593328D01*
X194172313Y-195593328D02*
X194100885Y-195664757D01*
X194100885Y-195664757D02*
X193958027Y-195736185D01*
X193958027Y-195736185D02*
X193672313Y-195736185D01*
X193672313Y-195736185D02*
X193529456Y-195807614D01*
X193529456Y-195807614D02*
X193458027Y-195879042D01*
X193458027Y-195879042D02*
X193386599Y-196021900D01*
X193386599Y-196021900D02*
X193386599Y-196307614D01*
X193386599Y-196307614D02*
X193458027Y-196450471D01*
X193458027Y-196450471D02*
X193529456Y-196521900D01*
X193529456Y-196521900D02*
X193672313Y-196593328D01*
X193672313Y-196593328D02*
X193958027Y-196593328D01*
X193958027Y-196593328D02*
X194100885Y-196521900D01*
X194100885Y-196521900D02*
X194172313Y-196450471D01*
X194172313Y-196450471D02*
X194243742Y-196307614D01*
X194243742Y-196307614D02*
X194243742Y-196021900D01*
X194243742Y-196021900D02*
X194172313Y-195879042D01*
X194172313Y-195879042D02*
X194100885Y-195807614D01*
X194100885Y-195807614D02*
X193958027Y-195736185D01*
X194886598Y-196450471D02*
X194958027Y-196521900D01*
X194958027Y-196521900D02*
X194886598Y-196593328D01*
X194886598Y-196593328D02*
X194815170Y-196521900D01*
X194815170Y-196521900D02*
X194886598Y-196450471D01*
X194886598Y-196450471D02*
X194886598Y-196593328D01*
X195886599Y-195093328D02*
X196029456Y-195093328D01*
X196029456Y-195093328D02*
X196172313Y-195164757D01*
X196172313Y-195164757D02*
X196243742Y-195236185D01*
X196243742Y-195236185D02*
X196315170Y-195379042D01*
X196315170Y-195379042D02*
X196386599Y-195664757D01*
X196386599Y-195664757D02*
X196386599Y-196021900D01*
X196386599Y-196021900D02*
X196315170Y-196307614D01*
X196315170Y-196307614D02*
X196243742Y-196450471D01*
X196243742Y-196450471D02*
X196172313Y-196521900D01*
X196172313Y-196521900D02*
X196029456Y-196593328D01*
X196029456Y-196593328D02*
X195886599Y-196593328D01*
X195886599Y-196593328D02*
X195743742Y-196521900D01*
X195743742Y-196521900D02*
X195672313Y-196450471D01*
X195672313Y-196450471D02*
X195600884Y-196307614D01*
X195600884Y-196307614D02*
X195529456Y-196021900D01*
X195529456Y-196021900D02*
X195529456Y-195664757D01*
X195529456Y-195664757D02*
X195600884Y-195379042D01*
X195600884Y-195379042D02*
X195672313Y-195236185D01*
X195672313Y-195236185D02*
X195743742Y-195164757D01*
X195743742Y-195164757D02*
X195886599Y-195093328D01*
X197029455Y-196450471D02*
X197100884Y-196521900D01*
X197100884Y-196521900D02*
X197029455Y-196593328D01*
X197029455Y-196593328D02*
X196958027Y-196521900D01*
X196958027Y-196521900D02*
X197029455Y-196450471D01*
X197029455Y-196450471D02*
X197029455Y-196593328D01*
X198529456Y-196593328D02*
X197672313Y-196593328D01*
X198100884Y-196593328D02*
X198100884Y-195093328D01*
X198100884Y-195093328D02*
X197958027Y-195307614D01*
X197958027Y-195307614D02*
X197815170Y-195450471D01*
X197815170Y-195450471D02*
X197672313Y-195521900D01*
D10*
D11*
X177002200Y-191507200D02*
X285002200Y-191507200D01*
D10*
D12*
X264413853Y-193785528D02*
X263913853Y-193071242D01*
X263556710Y-193785528D02*
X263556710Y-192285528D01*
X263556710Y-192285528D02*
X264128139Y-192285528D01*
X264128139Y-192285528D02*
X264270996Y-192356957D01*
X264270996Y-192356957D02*
X264342425Y-192428385D01*
X264342425Y-192428385D02*
X264413853Y-192571242D01*
X264413853Y-192571242D02*
X264413853Y-192785528D01*
X264413853Y-192785528D02*
X264342425Y-192928385D01*
X264342425Y-192928385D02*
X264270996Y-192999814D01*
X264270996Y-192999814D02*
X264128139Y-193071242D01*
X264128139Y-193071242D02*
X263556710Y-193071242D01*
X265628139Y-193714100D02*
X265485282Y-193785528D01*
X265485282Y-193785528D02*
X265199568Y-193785528D01*
X265199568Y-193785528D02*
X265056710Y-193714100D01*
X265056710Y-193714100D02*
X264985282Y-193571242D01*
X264985282Y-193571242D02*
X264985282Y-192999814D01*
X264985282Y-192999814D02*
X265056710Y-192856957D01*
X265056710Y-192856957D02*
X265199568Y-192785528D01*
X265199568Y-192785528D02*
X265485282Y-192785528D01*
X265485282Y-192785528D02*
X265628139Y-192856957D01*
X265628139Y-192856957D02*
X265699568Y-192999814D01*
X265699568Y-192999814D02*
X265699568Y-193142671D01*
X265699568Y-193142671D02*
X264985282Y-193285528D01*
X266199567Y-192785528D02*
X266556710Y-193785528D01*
X266556710Y-193785528D02*
X266913853Y-192785528D01*
X267485281Y-193642671D02*
X267556710Y-193714100D01*
X267556710Y-193714100D02*
X267485281Y-193785528D01*
X267485281Y-193785528D02*
X267413853Y-193714100D01*
X267413853Y-193714100D02*
X267485281Y-193642671D01*
X267485281Y-193642671D02*
X267485281Y-193785528D01*
X267485281Y-192856957D02*
X267556710Y-192928385D01*
X267556710Y-192928385D02*
X267485281Y-192999814D01*
X267485281Y-192999814D02*
X267413853Y-192928385D01*
X267413853Y-192928385D02*
X267485281Y-192856957D01*
X267485281Y-192856957D02*
X267485281Y-192999814D01*
D10*
D11*
X178386598Y-193721900D02*
X178600884Y-193793328D01*
X178600884Y-193793328D02*
X178958026Y-193793328D01*
X178958026Y-193793328D02*
X179100884Y-193721900D01*
X179100884Y-193721900D02*
X179172312Y-193650471D01*
X179172312Y-193650471D02*
X179243741Y-193507614D01*
X179243741Y-193507614D02*
X179243741Y-193364757D01*
X179243741Y-193364757D02*
X179172312Y-193221900D01*
X179172312Y-193221900D02*
X179100884Y-193150471D01*
X179100884Y-193150471D02*
X178958026Y-193079042D01*
X178958026Y-193079042D02*
X178672312Y-193007614D01*
X178672312Y-193007614D02*
X178529455Y-192936185D01*
X178529455Y-192936185D02*
X178458026Y-192864757D01*
X178458026Y-192864757D02*
X178386598Y-192721900D01*
X178386598Y-192721900D02*
X178386598Y-192579042D01*
X178386598Y-192579042D02*
X178458026Y-192436185D01*
X178458026Y-192436185D02*
X178529455Y-192364757D01*
X178529455Y-192364757D02*
X178672312Y-192293328D01*
X178672312Y-192293328D02*
X179029455Y-192293328D01*
X179029455Y-192293328D02*
X179243741Y-192364757D01*
X179886597Y-193793328D02*
X179886597Y-192793328D01*
X179886597Y-192293328D02*
X179815169Y-192364757D01*
X179815169Y-192364757D02*
X179886597Y-192436185D01*
X179886597Y-192436185D02*
X179958026Y-192364757D01*
X179958026Y-192364757D02*
X179886597Y-192293328D01*
X179886597Y-192293328D02*
X179886597Y-192436185D01*
X180458026Y-192793328D02*
X181243741Y-192793328D01*
X181243741Y-192793328D02*
X180458026Y-193793328D01*
X180458026Y-193793328D02*
X181243741Y-193793328D01*
X182386598Y-193721900D02*
X182243741Y-193793328D01*
X182243741Y-193793328D02*
X181958027Y-193793328D01*
X181958027Y-193793328D02*
X181815169Y-193721900D01*
X181815169Y-193721900D02*
X181743741Y-193579042D01*
X181743741Y-193579042D02*
X181743741Y-193007614D01*
X181743741Y-193007614D02*
X181815169Y-192864757D01*
X181815169Y-192864757D02*
X181958027Y-192793328D01*
X181958027Y-192793328D02*
X182243741Y-192793328D01*
X182243741Y-192793328D02*
X182386598Y-192864757D01*
X182386598Y-192864757D02*
X182458027Y-193007614D01*
X182458027Y-193007614D02*
X182458027Y-193150471D01*
X182458027Y-193150471D02*
X181743741Y-193293328D01*
X183100883Y-193650471D02*
X183172312Y-193721900D01*
X183172312Y-193721900D02*
X183100883Y-193793328D01*
X183100883Y-193793328D02*
X183029455Y-193721900D01*
X183029455Y-193721900D02*
X183100883Y-193650471D01*
X183100883Y-193650471D02*
X183100883Y-193793328D01*
X183100883Y-192864757D02*
X183172312Y-192936185D01*
X183172312Y-192936185D02*
X183100883Y-193007614D01*
X183100883Y-193007614D02*
X183029455Y-192936185D01*
X183029455Y-192936185D02*
X183100883Y-192864757D01*
X183100883Y-192864757D02*
X183100883Y-193007614D01*
X184886598Y-193364757D02*
X185600884Y-193364757D01*
X184743741Y-193793328D02*
X185243741Y-192293328D01*
X185243741Y-192293328D02*
X185743741Y-193793328D01*
X186886598Y-192793328D02*
X186886598Y-193793328D01*
X186529455Y-192221900D02*
X186172312Y-193293328D01*
X186172312Y-193293328D02*
X187100883Y-193293328D01*
D10*
D11*
X263458026Y-196593328D02*
X263458026Y-195093328D01*
X264815170Y-196593328D02*
X264815170Y-195093328D01*
X264815170Y-196521900D02*
X264672312Y-196593328D01*
X264672312Y-196593328D02*
X264386598Y-196593328D01*
X264386598Y-196593328D02*
X264243741Y-196521900D01*
X264243741Y-196521900D02*
X264172312Y-196450471D01*
X264172312Y-196450471D02*
X264100884Y-196307614D01*
X264100884Y-196307614D02*
X264100884Y-195879042D01*
X264100884Y-195879042D02*
X264172312Y-195736185D01*
X264172312Y-195736185D02*
X264243741Y-195664757D01*
X264243741Y-195664757D02*
X264386598Y-195593328D01*
X264386598Y-195593328D02*
X264672312Y-195593328D01*
X264672312Y-195593328D02*
X264815170Y-195664757D01*
X265529455Y-196450471D02*
X265600884Y-196521900D01*
X265600884Y-196521900D02*
X265529455Y-196593328D01*
X265529455Y-196593328D02*
X265458027Y-196521900D01*
X265458027Y-196521900D02*
X265529455Y-196450471D01*
X265529455Y-196450471D02*
X265529455Y-196593328D01*
X265529455Y-195664757D02*
X265600884Y-195736185D01*
X265600884Y-195736185D02*
X265529455Y-195807614D01*
X265529455Y-195807614D02*
X265458027Y-195736185D01*
X265458027Y-195736185D02*
X265529455Y-195664757D01*
X265529455Y-195664757D02*
X265529455Y-195807614D01*
X268172313Y-196593328D02*
X267315170Y-196593328D01*
X267743741Y-196593328D02*
X267743741Y-195093328D01*
X267743741Y-195093328D02*
X267600884Y-195307614D01*
X267600884Y-195307614D02*
X267458027Y-195450471D01*
X267458027Y-195450471D02*
X267315170Y-195521900D01*
X269886598Y-195021900D02*
X268600884Y-196950471D01*
X271172313Y-196593328D02*
X270315170Y-196593328D01*
X270743741Y-196593328D02*
X270743741Y-195093328D01*
X270743741Y-195093328D02*
X270600884Y-195307614D01*
X270600884Y-195307614D02*
X270458027Y-195450471D01*
X270458027Y-195450471D02*
X270315170Y-195521900D01*
D10*
D11*
X177002200Y-187507200D02*
X285002200Y-187507200D01*
D10*
D13*
X178693928Y-188211638D02*
X179836785Y-188211638D01*
X179015357Y-190211638D02*
X179265357Y-188211638D01*
X180253452Y-190211638D02*
X180420119Y-188878304D01*
X180503452Y-188211638D02*
X180396309Y-188306876D01*
X180396309Y-188306876D02*
X180479643Y-188402114D01*
X180479643Y-188402114D02*
X180586786Y-188306876D01*
X180586786Y-188306876D02*
X180503452Y-188211638D01*
X180503452Y-188211638D02*
X180479643Y-188402114D01*
X181086786Y-188878304D02*
X181848690Y-188878304D01*
X181455833Y-188211638D02*
X181241548Y-189925923D01*
X181241548Y-189925923D02*
X181312976Y-190116400D01*
X181312976Y-190116400D02*
X181491548Y-190211638D01*
X181491548Y-190211638D02*
X181682024Y-190211638D01*
X182634405Y-190211638D02*
X182455833Y-190116400D01*
X182455833Y-190116400D02*
X182384405Y-189925923D01*
X182384405Y-189925923D02*
X182598690Y-188211638D01*
X184170119Y-190116400D02*
X183967738Y-190211638D01*
X183967738Y-190211638D02*
X183586785Y-190211638D01*
X183586785Y-190211638D02*
X183408214Y-190116400D01*
X183408214Y-190116400D02*
X183336785Y-189925923D01*
X183336785Y-189925923D02*
X183432024Y-189164019D01*
X183432024Y-189164019D02*
X183551071Y-188973542D01*
X183551071Y-188973542D02*
X183753452Y-188878304D01*
X183753452Y-188878304D02*
X184134404Y-188878304D01*
X184134404Y-188878304D02*
X184312976Y-188973542D01*
X184312976Y-188973542D02*
X184384404Y-189164019D01*
X184384404Y-189164019D02*
X184360595Y-189354495D01*
X184360595Y-189354495D02*
X183384404Y-189544971D01*
X185134405Y-190021161D02*
X185217738Y-190116400D01*
X185217738Y-190116400D02*
X185110595Y-190211638D01*
X185110595Y-190211638D02*
X185027262Y-190116400D01*
X185027262Y-190116400D02*
X185134405Y-190021161D01*
X185134405Y-190021161D02*
X185110595Y-190211638D01*
X185265357Y-188973542D02*
X185348690Y-189068780D01*
X185348690Y-189068780D02*
X185241548Y-189164019D01*
X185241548Y-189164019D02*
X185158214Y-189068780D01*
X185158214Y-189068780D02*
X185265357Y-188973542D01*
X185265357Y-188973542D02*
X185241548Y-189164019D01*
D10*
D11*
X178958026Y-185607614D02*
X178458026Y-185607614D01*
X178458026Y-186393328D02*
X178458026Y-184893328D01*
X178458026Y-184893328D02*
X179172312Y-184893328D01*
X179743740Y-186393328D02*
X179743740Y-185393328D01*
X179743740Y-184893328D02*
X179672312Y-184964757D01*
X179672312Y-184964757D02*
X179743740Y-185036185D01*
X179743740Y-185036185D02*
X179815169Y-184964757D01*
X179815169Y-184964757D02*
X179743740Y-184893328D01*
X179743740Y-184893328D02*
X179743740Y-185036185D01*
X180672312Y-186393328D02*
X180529455Y-186321900D01*
X180529455Y-186321900D02*
X180458026Y-186179042D01*
X180458026Y-186179042D02*
X180458026Y-184893328D01*
X181815169Y-186321900D02*
X181672312Y-186393328D01*
X181672312Y-186393328D02*
X181386598Y-186393328D01*
X181386598Y-186393328D02*
X181243740Y-186321900D01*
X181243740Y-186321900D02*
X181172312Y-186179042D01*
X181172312Y-186179042D02*
X181172312Y-185607614D01*
X181172312Y-185607614D02*
X181243740Y-185464757D01*
X181243740Y-185464757D02*
X181386598Y-185393328D01*
X181386598Y-185393328D02*
X181672312Y-185393328D01*
X181672312Y-185393328D02*
X181815169Y-185464757D01*
X181815169Y-185464757D02*
X181886598Y-185607614D01*
X181886598Y-185607614D02*
X181886598Y-185750471D01*
X181886598Y-185750471D02*
X181172312Y-185893328D01*
X182529454Y-186250471D02*
X182600883Y-186321900D01*
X182600883Y-186321900D02*
X182529454Y-186393328D01*
X182529454Y-186393328D02*
X182458026Y-186321900D01*
X182458026Y-186321900D02*
X182529454Y-186250471D01*
X182529454Y-186250471D02*
X182529454Y-186393328D01*
X182529454Y-185464757D02*
X182600883Y-185536185D01*
X182600883Y-185536185D02*
X182529454Y-185607614D01*
X182529454Y-185607614D02*
X182458026Y-185536185D01*
X182458026Y-185536185D02*
X182529454Y-185464757D01*
X182529454Y-185464757D02*
X182529454Y-185607614D01*
X184386597Y-186393328D02*
X184386597Y-184893328D01*
X184386597Y-184893328D02*
X184886597Y-185964757D01*
X184886597Y-185964757D02*
X185386597Y-184893328D01*
X185386597Y-184893328D02*
X185386597Y-186393328D01*
X186672312Y-186321900D02*
X186529455Y-186393328D01*
X186529455Y-186393328D02*
X186243741Y-186393328D01*
X186243741Y-186393328D02*
X186100883Y-186321900D01*
X186100883Y-186321900D02*
X186029455Y-186179042D01*
X186029455Y-186179042D02*
X186029455Y-185607614D01*
X186029455Y-185607614D02*
X186100883Y-185464757D01*
X186100883Y-185464757D02*
X186243741Y-185393328D01*
X186243741Y-185393328D02*
X186529455Y-185393328D01*
X186529455Y-185393328D02*
X186672312Y-185464757D01*
X186672312Y-185464757D02*
X186743741Y-185607614D01*
X186743741Y-185607614D02*
X186743741Y-185750471D01*
X186743741Y-185750471D02*
X186029455Y-185893328D01*
X188029455Y-186393328D02*
X188029455Y-185607614D01*
X188029455Y-185607614D02*
X187958026Y-185464757D01*
X187958026Y-185464757D02*
X187815169Y-185393328D01*
X187815169Y-185393328D02*
X187529455Y-185393328D01*
X187529455Y-185393328D02*
X187386597Y-185464757D01*
X188029455Y-186321900D02*
X187886597Y-186393328D01*
X187886597Y-186393328D02*
X187529455Y-186393328D01*
X187529455Y-186393328D02*
X187386597Y-186321900D01*
X187386597Y-186321900D02*
X187315169Y-186179042D01*
X187315169Y-186179042D02*
X187315169Y-186036185D01*
X187315169Y-186036185D02*
X187386597Y-185893328D01*
X187386597Y-185893328D02*
X187529455Y-185821900D01*
X187529455Y-185821900D02*
X187886597Y-185821900D01*
X187886597Y-185821900D02*
X188029455Y-185750471D01*
X188672312Y-186321900D02*
X188815169Y-186393328D01*
X188815169Y-186393328D02*
X189100883Y-186393328D01*
X189100883Y-186393328D02*
X189243740Y-186321900D01*
X189243740Y-186321900D02*
X189315169Y-186179042D01*
X189315169Y-186179042D02*
X189315169Y-186107614D01*
X189315169Y-186107614D02*
X189243740Y-185964757D01*
X189243740Y-185964757D02*
X189100883Y-185893328D01*
X189100883Y-185893328D02*
X188886598Y-185893328D01*
X188886598Y-185893328D02*
X188743740Y-185821900D01*
X188743740Y-185821900D02*
X188672312Y-185679042D01*
X188672312Y-185679042D02*
X188672312Y-185607614D01*
X188672312Y-185607614D02*
X188743740Y-185464757D01*
X188743740Y-185464757D02*
X188886598Y-185393328D01*
X188886598Y-185393328D02*
X189100883Y-185393328D01*
X189100883Y-185393328D02*
X189243740Y-185464757D01*
X190600884Y-185393328D02*
X190600884Y-186393328D01*
X189958026Y-185393328D02*
X189958026Y-186179042D01*
X189958026Y-186179042D02*
X190029455Y-186321900D01*
X190029455Y-186321900D02*
X190172312Y-186393328D01*
X190172312Y-186393328D02*
X190386598Y-186393328D01*
X190386598Y-186393328D02*
X190529455Y-186321900D01*
X190529455Y-186321900D02*
X190600884Y-186250471D01*
X191315169Y-186393328D02*
X191315169Y-185393328D01*
X191315169Y-185679042D02*
X191386598Y-185536185D01*
X191386598Y-185536185D02*
X191458027Y-185464757D01*
X191458027Y-185464757D02*
X191600884Y-185393328D01*
X191600884Y-185393328D02*
X191743741Y-185393328D01*
X192815169Y-186321900D02*
X192672312Y-186393328D01*
X192672312Y-186393328D02*
X192386598Y-186393328D01*
X192386598Y-186393328D02*
X192243740Y-186321900D01*
X192243740Y-186321900D02*
X192172312Y-186179042D01*
X192172312Y-186179042D02*
X192172312Y-185607614D01*
X192172312Y-185607614D02*
X192243740Y-185464757D01*
X192243740Y-185464757D02*
X192386598Y-185393328D01*
X192386598Y-185393328D02*
X192672312Y-185393328D01*
X192672312Y-185393328D02*
X192815169Y-185464757D01*
X192815169Y-185464757D02*
X192886598Y-185607614D01*
X192886598Y-185607614D02*
X192886598Y-185750471D01*
X192886598Y-185750471D02*
X192172312Y-185893328D01*
X193529454Y-186393328D02*
X193529454Y-185393328D01*
X193529454Y-185536185D02*
X193600883Y-185464757D01*
X193600883Y-185464757D02*
X193743740Y-185393328D01*
X193743740Y-185393328D02*
X193958026Y-185393328D01*
X193958026Y-185393328D02*
X194100883Y-185464757D01*
X194100883Y-185464757D02*
X194172312Y-185607614D01*
X194172312Y-185607614D02*
X194172312Y-186393328D01*
X194172312Y-185607614D02*
X194243740Y-185464757D01*
X194243740Y-185464757D02*
X194386597Y-185393328D01*
X194386597Y-185393328D02*
X194600883Y-185393328D01*
X194600883Y-185393328D02*
X194743740Y-185464757D01*
X194743740Y-185464757D02*
X194815169Y-185607614D01*
X194815169Y-185607614D02*
X194815169Y-186393328D01*
X196100883Y-186321900D02*
X195958026Y-186393328D01*
X195958026Y-186393328D02*
X195672312Y-186393328D01*
X195672312Y-186393328D02*
X195529454Y-186321900D01*
X195529454Y-186321900D02*
X195458026Y-186179042D01*
X195458026Y-186179042D02*
X195458026Y-185607614D01*
X195458026Y-185607614D02*
X195529454Y-185464757D01*
X195529454Y-185464757D02*
X195672312Y-185393328D01*
X195672312Y-185393328D02*
X195958026Y-185393328D01*
X195958026Y-185393328D02*
X196100883Y-185464757D01*
X196100883Y-185464757D02*
X196172312Y-185607614D01*
X196172312Y-185607614D02*
X196172312Y-185750471D01*
X196172312Y-185750471D02*
X195458026Y-185893328D01*
X196815168Y-185393328D02*
X196815168Y-186393328D01*
X196815168Y-185536185D02*
X196886597Y-185464757D01*
X196886597Y-185464757D02*
X197029454Y-185393328D01*
X197029454Y-185393328D02*
X197243740Y-185393328D01*
X197243740Y-185393328D02*
X197386597Y-185464757D01*
X197386597Y-185464757D02*
X197458026Y-185607614D01*
X197458026Y-185607614D02*
X197458026Y-186393328D01*
X197958026Y-185393328D02*
X198529454Y-185393328D01*
X198172311Y-184893328D02*
X198172311Y-186179042D01*
X198172311Y-186179042D02*
X198243740Y-186321900D01*
X198243740Y-186321900D02*
X198386597Y-186393328D01*
X198386597Y-186393328D02*
X198529454Y-186393328D01*
X198672312Y-186536185D02*
X199815169Y-186536185D01*
X200172311Y-186393328D02*
X200172311Y-184893328D01*
X200172311Y-184893328D02*
X200529454Y-184893328D01*
X200529454Y-184893328D02*
X200743740Y-184964757D01*
X200743740Y-184964757D02*
X200886597Y-185107614D01*
X200886597Y-185107614D02*
X200958026Y-185250471D01*
X200958026Y-185250471D02*
X201029454Y-185536185D01*
X201029454Y-185536185D02*
X201029454Y-185750471D01*
X201029454Y-185750471D02*
X200958026Y-186036185D01*
X200958026Y-186036185D02*
X200886597Y-186179042D01*
X200886597Y-186179042D02*
X200743740Y-186321900D01*
X200743740Y-186321900D02*
X200529454Y-186393328D01*
X200529454Y-186393328D02*
X200172311Y-186393328D01*
X202243740Y-186321900D02*
X202100883Y-186393328D01*
X202100883Y-186393328D02*
X201815169Y-186393328D01*
X201815169Y-186393328D02*
X201672311Y-186321900D01*
X201672311Y-186321900D02*
X201600883Y-186179042D01*
X201600883Y-186179042D02*
X201600883Y-185607614D01*
X201600883Y-185607614D02*
X201672311Y-185464757D01*
X201672311Y-185464757D02*
X201815169Y-185393328D01*
X201815169Y-185393328D02*
X202100883Y-185393328D01*
X202100883Y-185393328D02*
X202243740Y-185464757D01*
X202243740Y-185464757D02*
X202315169Y-185607614D01*
X202315169Y-185607614D02*
X202315169Y-185750471D01*
X202315169Y-185750471D02*
X201600883Y-185893328D01*
X202815168Y-185393328D02*
X203172311Y-186393328D01*
X203172311Y-186393328D02*
X203529454Y-185393328D01*
X204100882Y-186393328D02*
X204100882Y-185393328D01*
X204100882Y-184893328D02*
X204029454Y-184964757D01*
X204029454Y-184964757D02*
X204100882Y-185036185D01*
X204100882Y-185036185D02*
X204172311Y-184964757D01*
X204172311Y-184964757D02*
X204100882Y-184893328D01*
X204100882Y-184893328D02*
X204100882Y-185036185D01*
X205458026Y-186321900D02*
X205315168Y-186393328D01*
X205315168Y-186393328D02*
X205029454Y-186393328D01*
X205029454Y-186393328D02*
X204886597Y-186321900D01*
X204886597Y-186321900D02*
X204815168Y-186250471D01*
X204815168Y-186250471D02*
X204743740Y-186107614D01*
X204743740Y-186107614D02*
X204743740Y-185679042D01*
X204743740Y-185679042D02*
X204815168Y-185536185D01*
X204815168Y-185536185D02*
X204886597Y-185464757D01*
X204886597Y-185464757D02*
X205029454Y-185393328D01*
X205029454Y-185393328D02*
X205315168Y-185393328D01*
X205315168Y-185393328D02*
X205458026Y-185464757D01*
X206672311Y-186321900D02*
X206529454Y-186393328D01*
X206529454Y-186393328D02*
X206243740Y-186393328D01*
X206243740Y-186393328D02*
X206100882Y-186321900D01*
X206100882Y-186321900D02*
X206029454Y-186179042D01*
X206029454Y-186179042D02*
X206029454Y-185607614D01*
X206029454Y-185607614D02*
X206100882Y-185464757D01*
X206100882Y-185464757D02*
X206243740Y-185393328D01*
X206243740Y-185393328D02*
X206529454Y-185393328D01*
X206529454Y-185393328D02*
X206672311Y-185464757D01*
X206672311Y-185464757D02*
X206743740Y-185607614D01*
X206743740Y-185607614D02*
X206743740Y-185750471D01*
X206743740Y-185750471D02*
X206029454Y-185893328D01*
X207029454Y-186536185D02*
X208172311Y-186536185D01*
X208529453Y-186393328D02*
X208529453Y-184893328D01*
X208529453Y-184893328D02*
X209100882Y-184893328D01*
X209100882Y-184893328D02*
X209243739Y-184964757D01*
X209243739Y-184964757D02*
X209315168Y-185036185D01*
X209315168Y-185036185D02*
X209386596Y-185179042D01*
X209386596Y-185179042D02*
X209386596Y-185393328D01*
X209386596Y-185393328D02*
X209315168Y-185536185D01*
X209315168Y-185536185D02*
X209243739Y-185607614D01*
X209243739Y-185607614D02*
X209100882Y-185679042D01*
X209100882Y-185679042D02*
X208529453Y-185679042D01*
X210886596Y-186250471D02*
X210815168Y-186321900D01*
X210815168Y-186321900D02*
X210600882Y-186393328D01*
X210600882Y-186393328D02*
X210458025Y-186393328D01*
X210458025Y-186393328D02*
X210243739Y-186321900D01*
X210243739Y-186321900D02*
X210100882Y-186179042D01*
X210100882Y-186179042D02*
X210029453Y-186036185D01*
X210029453Y-186036185D02*
X209958025Y-185750471D01*
X209958025Y-185750471D02*
X209958025Y-185536185D01*
X209958025Y-185536185D02*
X210029453Y-185250471D01*
X210029453Y-185250471D02*
X210100882Y-185107614D01*
X210100882Y-185107614D02*
X210243739Y-184964757D01*
X210243739Y-184964757D02*
X210458025Y-184893328D01*
X210458025Y-184893328D02*
X210600882Y-184893328D01*
X210600882Y-184893328D02*
X210815168Y-184964757D01*
X210815168Y-184964757D02*
X210886596Y-185036185D01*
X212029453Y-185607614D02*
X212243739Y-185679042D01*
X212243739Y-185679042D02*
X212315168Y-185750471D01*
X212315168Y-185750471D02*
X212386596Y-185893328D01*
X212386596Y-185893328D02*
X212386596Y-186107614D01*
X212386596Y-186107614D02*
X212315168Y-186250471D01*
X212315168Y-186250471D02*
X212243739Y-186321900D01*
X212243739Y-186321900D02*
X212100882Y-186393328D01*
X212100882Y-186393328D02*
X211529453Y-186393328D01*
X211529453Y-186393328D02*
X211529453Y-184893328D01*
X211529453Y-184893328D02*
X212029453Y-184893328D01*
X212029453Y-184893328D02*
X212172311Y-184964757D01*
X212172311Y-184964757D02*
X212243739Y-185036185D01*
X212243739Y-185036185D02*
X212315168Y-185179042D01*
X212315168Y-185179042D02*
X212315168Y-185321900D01*
X212315168Y-185321900D02*
X212243739Y-185464757D01*
X212243739Y-185464757D02*
X212172311Y-185536185D01*
X212172311Y-185536185D02*
X212029453Y-185607614D01*
X212029453Y-185607614D02*
X211529453Y-185607614D01*
X213029453Y-186250471D02*
X213100882Y-186321900D01*
X213100882Y-186321900D02*
X213029453Y-186393328D01*
X213029453Y-186393328D02*
X212958025Y-186321900D01*
X212958025Y-186321900D02*
X213029453Y-186250471D01*
X213029453Y-186250471D02*
X213029453Y-186393328D01*
X213743739Y-186393328D02*
X213743739Y-184893328D01*
X213886597Y-185821900D02*
X214315168Y-186393328D01*
X214315168Y-185393328D02*
X213743739Y-185964757D01*
X214958025Y-186393328D02*
X214958025Y-185393328D01*
X214958025Y-184893328D02*
X214886597Y-184964757D01*
X214886597Y-184964757D02*
X214958025Y-185036185D01*
X214958025Y-185036185D02*
X215029454Y-184964757D01*
X215029454Y-184964757D02*
X214958025Y-184893328D01*
X214958025Y-184893328D02*
X214958025Y-185036185D01*
X216315169Y-186321900D02*
X216172311Y-186393328D01*
X216172311Y-186393328D02*
X215886597Y-186393328D01*
X215886597Y-186393328D02*
X215743740Y-186321900D01*
X215743740Y-186321900D02*
X215672311Y-186250471D01*
X215672311Y-186250471D02*
X215600883Y-186107614D01*
X215600883Y-186107614D02*
X215600883Y-185679042D01*
X215600883Y-185679042D02*
X215672311Y-185536185D01*
X215672311Y-185536185D02*
X215743740Y-185464757D01*
X215743740Y-185464757D02*
X215886597Y-185393328D01*
X215886597Y-185393328D02*
X216172311Y-185393328D01*
X216172311Y-185393328D02*
X216315169Y-185464757D01*
X217600883Y-186393328D02*
X217600883Y-185607614D01*
X217600883Y-185607614D02*
X217529454Y-185464757D01*
X217529454Y-185464757D02*
X217386597Y-185393328D01*
X217386597Y-185393328D02*
X217100883Y-185393328D01*
X217100883Y-185393328D02*
X216958025Y-185464757D01*
X217600883Y-186321900D02*
X217458025Y-186393328D01*
X217458025Y-186393328D02*
X217100883Y-186393328D01*
X217100883Y-186393328D02*
X216958025Y-186321900D01*
X216958025Y-186321900D02*
X216886597Y-186179042D01*
X216886597Y-186179042D02*
X216886597Y-186036185D01*
X216886597Y-186036185D02*
X216958025Y-185893328D01*
X216958025Y-185893328D02*
X217100883Y-185821900D01*
X217100883Y-185821900D02*
X217458025Y-185821900D01*
X217458025Y-185821900D02*
X217600883Y-185750471D01*
X218958026Y-186393328D02*
X218958026Y-184893328D01*
X218958026Y-186321900D02*
X218815168Y-186393328D01*
X218815168Y-186393328D02*
X218529454Y-186393328D01*
X218529454Y-186393328D02*
X218386597Y-186321900D01*
X218386597Y-186321900D02*
X218315168Y-186250471D01*
X218315168Y-186250471D02*
X218243740Y-186107614D01*
X218243740Y-186107614D02*
X218243740Y-185679042D01*
X218243740Y-185679042D02*
X218315168Y-185536185D01*
X218315168Y-185536185D02*
X218386597Y-185464757D01*
X218386597Y-185464757D02*
X218529454Y-185393328D01*
X218529454Y-185393328D02*
X218815168Y-185393328D01*
X218815168Y-185393328D02*
X218958026Y-185464757D01*
X219315169Y-186536185D02*
X220458026Y-186536185D01*
X220815168Y-185393328D02*
X220815168Y-186893328D01*
X220815168Y-185464757D02*
X220958026Y-185393328D01*
X220958026Y-185393328D02*
X221243740Y-185393328D01*
X221243740Y-185393328D02*
X221386597Y-185464757D01*
X221386597Y-185464757D02*
X221458026Y-185536185D01*
X221458026Y-185536185D02*
X221529454Y-185679042D01*
X221529454Y-185679042D02*
X221529454Y-186107614D01*
X221529454Y-186107614D02*
X221458026Y-186250471D01*
X221458026Y-186250471D02*
X221386597Y-186321900D01*
X221386597Y-186321900D02*
X221243740Y-186393328D01*
X221243740Y-186393328D02*
X220958026Y-186393328D01*
X220958026Y-186393328D02*
X220815168Y-186321900D01*
X222815169Y-186321900D02*
X222672311Y-186393328D01*
X222672311Y-186393328D02*
X222386597Y-186393328D01*
X222386597Y-186393328D02*
X222243740Y-186321900D01*
X222243740Y-186321900D02*
X222172311Y-186250471D01*
X222172311Y-186250471D02*
X222100883Y-186107614D01*
X222100883Y-186107614D02*
X222100883Y-185679042D01*
X222100883Y-185679042D02*
X222172311Y-185536185D01*
X222172311Y-185536185D02*
X222243740Y-185464757D01*
X222243740Y-185464757D02*
X222386597Y-185393328D01*
X222386597Y-185393328D02*
X222672311Y-185393328D01*
X222672311Y-185393328D02*
X222815169Y-185464757D01*
X223458025Y-186393328D02*
X223458025Y-184893328D01*
X223458025Y-185464757D02*
X223600883Y-185393328D01*
X223600883Y-185393328D02*
X223886597Y-185393328D01*
X223886597Y-185393328D02*
X224029454Y-185464757D01*
X224029454Y-185464757D02*
X224100883Y-185536185D01*
X224100883Y-185536185D02*
X224172311Y-185679042D01*
X224172311Y-185679042D02*
X224172311Y-186107614D01*
X224172311Y-186107614D02*
X224100883Y-186250471D01*
X224100883Y-186250471D02*
X224029454Y-186321900D01*
X224029454Y-186321900D02*
X223886597Y-186393328D01*
X223886597Y-186393328D02*
X223600883Y-186393328D01*
X223600883Y-186393328D02*
X223458025Y-186321900D01*
D10*
D11*
X177002200Y-181507200D02*
X285002200Y-181507200D01*
D10*
D11*
X178386598Y-183621900D02*
X178600884Y-183693328D01*
X178600884Y-183693328D02*
X178958026Y-183693328D01*
X178958026Y-183693328D02*
X179100884Y-183621900D01*
X179100884Y-183621900D02*
X179172312Y-183550471D01*
X179172312Y-183550471D02*
X179243741Y-183407614D01*
X179243741Y-183407614D02*
X179243741Y-183264757D01*
X179243741Y-183264757D02*
X179172312Y-183121900D01*
X179172312Y-183121900D02*
X179100884Y-183050471D01*
X179100884Y-183050471D02*
X178958026Y-182979042D01*
X178958026Y-182979042D02*
X178672312Y-182907614D01*
X178672312Y-182907614D02*
X178529455Y-182836185D01*
X178529455Y-182836185D02*
X178458026Y-182764757D01*
X178458026Y-182764757D02*
X178386598Y-182621900D01*
X178386598Y-182621900D02*
X178386598Y-182479042D01*
X178386598Y-182479042D02*
X178458026Y-182336185D01*
X178458026Y-182336185D02*
X178529455Y-182264757D01*
X178529455Y-182264757D02*
X178672312Y-182193328D01*
X178672312Y-182193328D02*
X179029455Y-182193328D01*
X179029455Y-182193328D02*
X179243741Y-182264757D01*
X179886597Y-183693328D02*
X179886597Y-182193328D01*
X180529455Y-183693328D02*
X180529455Y-182907614D01*
X180529455Y-182907614D02*
X180458026Y-182764757D01*
X180458026Y-182764757D02*
X180315169Y-182693328D01*
X180315169Y-182693328D02*
X180100883Y-182693328D01*
X180100883Y-182693328D02*
X179958026Y-182764757D01*
X179958026Y-182764757D02*
X179886597Y-182836185D01*
X181815169Y-183621900D02*
X181672312Y-183693328D01*
X181672312Y-183693328D02*
X181386598Y-183693328D01*
X181386598Y-183693328D02*
X181243740Y-183621900D01*
X181243740Y-183621900D02*
X181172312Y-183479042D01*
X181172312Y-183479042D02*
X181172312Y-182907614D01*
X181172312Y-182907614D02*
X181243740Y-182764757D01*
X181243740Y-182764757D02*
X181386598Y-182693328D01*
X181386598Y-182693328D02*
X181672312Y-182693328D01*
X181672312Y-182693328D02*
X181815169Y-182764757D01*
X181815169Y-182764757D02*
X181886598Y-182907614D01*
X181886598Y-182907614D02*
X181886598Y-183050471D01*
X181886598Y-183050471D02*
X181172312Y-183193328D01*
X183100883Y-183621900D02*
X182958026Y-183693328D01*
X182958026Y-183693328D02*
X182672312Y-183693328D01*
X182672312Y-183693328D02*
X182529454Y-183621900D01*
X182529454Y-183621900D02*
X182458026Y-183479042D01*
X182458026Y-183479042D02*
X182458026Y-182907614D01*
X182458026Y-182907614D02*
X182529454Y-182764757D01*
X182529454Y-182764757D02*
X182672312Y-182693328D01*
X182672312Y-182693328D02*
X182958026Y-182693328D01*
X182958026Y-182693328D02*
X183100883Y-182764757D01*
X183100883Y-182764757D02*
X183172312Y-182907614D01*
X183172312Y-182907614D02*
X183172312Y-183050471D01*
X183172312Y-183050471D02*
X182458026Y-183193328D01*
X183600883Y-182693328D02*
X184172311Y-182693328D01*
X183815168Y-182193328D02*
X183815168Y-183479042D01*
X183815168Y-183479042D02*
X183886597Y-183621900D01*
X183886597Y-183621900D02*
X184029454Y-183693328D01*
X184029454Y-183693328D02*
X184172311Y-183693328D01*
X184672311Y-183550471D02*
X184743740Y-183621900D01*
X184743740Y-183621900D02*
X184672311Y-183693328D01*
X184672311Y-183693328D02*
X184600883Y-183621900D01*
X184600883Y-183621900D02*
X184672311Y-183550471D01*
X184672311Y-183550471D02*
X184672311Y-183693328D01*
X184672311Y-182764757D02*
X184743740Y-182836185D01*
X184743740Y-182836185D02*
X184672311Y-182907614D01*
X184672311Y-182907614D02*
X184600883Y-182836185D01*
X184600883Y-182836185D02*
X184672311Y-182764757D01*
X184672311Y-182764757D02*
X184672311Y-182907614D01*
D10*
D12*
D10*
D11*
D10*
D11*
D10*
D11*
D10*
D11*
D10*
D11*
X197002200Y-191507200D02*
X197002200Y-194507200D01*
D10*
D11*
X261002200Y-191507200D02*
X261002200Y-198007200D01*
D12*
X186354510Y-108306080D02*
X186354510Y-106806080D01*
X186354510Y-106806080D02*
X186925939Y-106806080D01*
X186925939Y-106806080D02*
X187068796Y-106877509D01*
X187068796Y-106877509D02*
X187140225Y-106948937D01*
X187140225Y-106948937D02*
X187211653Y-107091794D01*
X187211653Y-107091794D02*
X187211653Y-107306080D01*
X187211653Y-107306080D02*
X187140225Y-107448937D01*
X187140225Y-107448937D02*
X187068796Y-107520366D01*
X187068796Y-107520366D02*
X186925939Y-107591794D01*
X186925939Y-107591794D02*
X186354510Y-107591794D01*
X187854510Y-108306080D02*
X187854510Y-107306080D01*
X187854510Y-107591794D02*
X187925939Y-107448937D01*
X187925939Y-107448937D02*
X187997368Y-107377509D01*
X187997368Y-107377509D02*
X188140225Y-107306080D01*
X188140225Y-107306080D02*
X188283082Y-107306080D01*
X188997367Y-108306080D02*
X188854510Y-108234652D01*
X188854510Y-108234652D02*
X188783081Y-108163223D01*
X188783081Y-108163223D02*
X188711653Y-108020366D01*
X188711653Y-108020366D02*
X188711653Y-107591794D01*
X188711653Y-107591794D02*
X188783081Y-107448937D01*
X188783081Y-107448937D02*
X188854510Y-107377509D01*
X188854510Y-107377509D02*
X188997367Y-107306080D01*
X188997367Y-107306080D02*
X189211653Y-107306080D01*
X189211653Y-107306080D02*
X189354510Y-107377509D01*
X189354510Y-107377509D02*
X189425939Y-107448937D01*
X189425939Y-107448937D02*
X189497367Y-107591794D01*
X189497367Y-107591794D02*
X189497367Y-108020366D01*
X189497367Y-108020366D02*
X189425939Y-108163223D01*
X189425939Y-108163223D02*
X189354510Y-108234652D01*
X189354510Y-108234652D02*
X189211653Y-108306080D01*
X189211653Y-108306080D02*
X188997367Y-108306080D01*
X189925939Y-107306080D02*
X190497367Y-107306080D01*
X190140224Y-106806080D02*
X190140224Y-108091794D01*
X190140224Y-108091794D02*
X190211653Y-108234652D01*
X190211653Y-108234652D02*
X190354510Y-108306080D01*
X190354510Y-108306080D02*
X190497367Y-108306080D01*
X191211653Y-108306080D02*
X191068796Y-108234652D01*
X191068796Y-108234652D02*
X190997367Y-108163223D01*
X190997367Y-108163223D02*
X190925939Y-108020366D01*
X190925939Y-108020366D02*
X190925939Y-107591794D01*
X190925939Y-107591794D02*
X190997367Y-107448937D01*
X190997367Y-107448937D02*
X191068796Y-107377509D01*
X191068796Y-107377509D02*
X191211653Y-107306080D01*
X191211653Y-107306080D02*
X191425939Y-107306080D01*
X191425939Y-107306080D02*
X191568796Y-107377509D01*
X191568796Y-107377509D02*
X191640225Y-107448937D01*
X191640225Y-107448937D02*
X191711653Y-107591794D01*
X191711653Y-107591794D02*
X191711653Y-108020366D01*
X191711653Y-108020366D02*
X191640225Y-108163223D01*
X191640225Y-108163223D02*
X191568796Y-108234652D01*
X191568796Y-108234652D02*
X191425939Y-108306080D01*
X191425939Y-108306080D02*
X191211653Y-108306080D01*
X192140225Y-107306080D02*
X192711653Y-107306080D01*
X192354510Y-106806080D02*
X192354510Y-108091794D01*
X192354510Y-108091794D02*
X192425939Y-108234652D01*
X192425939Y-108234652D02*
X192568796Y-108306080D01*
X192568796Y-108306080D02*
X192711653Y-108306080D01*
X193068796Y-107306080D02*
X193425939Y-108306080D01*
X193783082Y-107306080D02*
X193425939Y-108306080D01*
X193425939Y-108306080D02*
X193283082Y-108663223D01*
X193283082Y-108663223D02*
X193211653Y-108734652D01*
X193211653Y-108734652D02*
X193068796Y-108806080D01*
X194354510Y-107306080D02*
X194354510Y-108806080D01*
X194354510Y-107377509D02*
X194497368Y-107306080D01*
X194497368Y-107306080D02*
X194783082Y-107306080D01*
X194783082Y-107306080D02*
X194925939Y-107377509D01*
X194925939Y-107377509D02*
X194997368Y-107448937D01*
X194997368Y-107448937D02*
X195068796Y-107591794D01*
X195068796Y-107591794D02*
X195068796Y-108020366D01*
X195068796Y-108020366D02*
X194997368Y-108163223D01*
X194997368Y-108163223D02*
X194925939Y-108234652D01*
X194925939Y-108234652D02*
X194783082Y-108306080D01*
X194783082Y-108306080D02*
X194497368Y-108306080D01*
X194497368Y-108306080D02*
X194354510Y-108234652D01*
X196283082Y-108234652D02*
X196140225Y-108306080D01*
X196140225Y-108306080D02*
X195854511Y-108306080D01*
X195854511Y-108306080D02*
X195711653Y-108234652D01*
X195711653Y-108234652D02*
X195640225Y-108091794D01*
X195640225Y-108091794D02*
X195640225Y-107520366D01*
X195640225Y-107520366D02*
X195711653Y-107377509D01*
X195711653Y-107377509D02*
X195854511Y-107306080D01*
X195854511Y-107306080D02*
X196140225Y-107306080D01*
X196140225Y-107306080D02*
X196283082Y-107377509D01*
X196283082Y-107377509D02*
X196354511Y-107520366D01*
X196354511Y-107520366D02*
X196354511Y-107663223D01*
X196354511Y-107663223D02*
X195640225Y-107806080D01*
X198925939Y-108306080D02*
X198068796Y-108306080D01*
X198497367Y-108306080D02*
X198497367Y-106806080D01*
X198497367Y-106806080D02*
X198354510Y-107020366D01*
X198354510Y-107020366D02*
X198211653Y-107163223D01*
X198211653Y-107163223D02*
X198068796Y-107234652D01*
X186283082Y-109363853D02*
X186354510Y-109292425D01*
X186354510Y-109292425D02*
X186497368Y-109220996D01*
X186497368Y-109220996D02*
X186854510Y-109220996D01*
X186854510Y-109220996D02*
X186997368Y-109292425D01*
X186997368Y-109292425D02*
X187068796Y-109363853D01*
X187068796Y-109363853D02*
X187140225Y-109506710D01*
X187140225Y-109506710D02*
X187140225Y-109649568D01*
X187140225Y-109649568D02*
X187068796Y-109863853D01*
X187068796Y-109863853D02*
X186211653Y-110720996D01*
X186211653Y-110720996D02*
X187140225Y-110720996D01*
X188068796Y-109220996D02*
X188211653Y-109220996D01*
X188211653Y-109220996D02*
X188354510Y-109292425D01*
X188354510Y-109292425D02*
X188425939Y-109363853D01*
X188425939Y-109363853D02*
X188497367Y-109506710D01*
X188497367Y-109506710D02*
X188568796Y-109792425D01*
X188568796Y-109792425D02*
X188568796Y-110149568D01*
X188568796Y-110149568D02*
X188497367Y-110435282D01*
X188497367Y-110435282D02*
X188425939Y-110578139D01*
X188425939Y-110578139D02*
X188354510Y-110649568D01*
X188354510Y-110649568D02*
X188211653Y-110720996D01*
X188211653Y-110720996D02*
X188068796Y-110720996D01*
X188068796Y-110720996D02*
X187925939Y-110649568D01*
X187925939Y-110649568D02*
X187854510Y-110578139D01*
X187854510Y-110578139D02*
X187783081Y-110435282D01*
X187783081Y-110435282D02*
X187711653Y-110149568D01*
X187711653Y-110149568D02*
X187711653Y-109792425D01*
X187711653Y-109792425D02*
X187783081Y-109506710D01*
X187783081Y-109506710D02*
X187854510Y-109363853D01*
X187854510Y-109363853D02*
X187925939Y-109292425D01*
X187925939Y-109292425D02*
X188068796Y-109220996D01*
X189140224Y-109363853D02*
X189211652Y-109292425D01*
X189211652Y-109292425D02*
X189354510Y-109220996D01*
X189354510Y-109220996D02*
X189711652Y-109220996D01*
X189711652Y-109220996D02*
X189854510Y-109292425D01*
X189854510Y-109292425D02*
X189925938Y-109363853D01*
X189925938Y-109363853D02*
X189997367Y-109506710D01*
X189997367Y-109506710D02*
X189997367Y-109649568D01*
X189997367Y-109649568D02*
X189925938Y-109863853D01*
X189925938Y-109863853D02*
X189068795Y-110720996D01*
X189068795Y-110720996D02*
X189997367Y-110720996D01*
X191283081Y-109220996D02*
X190997366Y-109220996D01*
X190997366Y-109220996D02*
X190854509Y-109292425D01*
X190854509Y-109292425D02*
X190783081Y-109363853D01*
X190783081Y-109363853D02*
X190640223Y-109578139D01*
X190640223Y-109578139D02*
X190568795Y-109863853D01*
X190568795Y-109863853D02*
X190568795Y-110435282D01*
X190568795Y-110435282D02*
X190640223Y-110578139D01*
X190640223Y-110578139D02*
X190711652Y-110649568D01*
X190711652Y-110649568D02*
X190854509Y-110720996D01*
X190854509Y-110720996D02*
X191140223Y-110720996D01*
X191140223Y-110720996D02*
X191283081Y-110649568D01*
X191283081Y-110649568D02*
X191354509Y-110578139D01*
X191354509Y-110578139D02*
X191425938Y-110435282D01*
X191425938Y-110435282D02*
X191425938Y-110078139D01*
X191425938Y-110078139D02*
X191354509Y-109935282D01*
X191354509Y-109935282D02*
X191283081Y-109863853D01*
X191283081Y-109863853D02*
X191140223Y-109792425D01*
X191140223Y-109792425D02*
X190854509Y-109792425D01*
X190854509Y-109792425D02*
X190711652Y-109863853D01*
X190711652Y-109863853D02*
X190640223Y-109935282D01*
X190640223Y-109935282D02*
X190568795Y-110078139D01*
X192068794Y-110149568D02*
X193211652Y-110149568D01*
X194211652Y-109220996D02*
X194354509Y-109220996D01*
X194354509Y-109220996D02*
X194497366Y-109292425D01*
X194497366Y-109292425D02*
X194568795Y-109363853D01*
X194568795Y-109363853D02*
X194640223Y-109506710D01*
X194640223Y-109506710D02*
X194711652Y-109792425D01*
X194711652Y-109792425D02*
X194711652Y-110149568D01*
X194711652Y-110149568D02*
X194640223Y-110435282D01*
X194640223Y-110435282D02*
X194568795Y-110578139D01*
X194568795Y-110578139D02*
X194497366Y-110649568D01*
X194497366Y-110649568D02*
X194354509Y-110720996D01*
X194354509Y-110720996D02*
X194211652Y-110720996D01*
X194211652Y-110720996D02*
X194068795Y-110649568D01*
X194068795Y-110649568D02*
X193997366Y-110578139D01*
X193997366Y-110578139D02*
X193925937Y-110435282D01*
X193925937Y-110435282D02*
X193854509Y-110149568D01*
X193854509Y-110149568D02*
X193854509Y-109792425D01*
X193854509Y-109792425D02*
X193925937Y-109506710D01*
X193925937Y-109506710D02*
X193997366Y-109363853D01*
X193997366Y-109363853D02*
X194068795Y-109292425D01*
X194068795Y-109292425D02*
X194211652Y-109220996D01*
X195997366Y-109720996D02*
X195997366Y-110720996D01*
X195640223Y-109149568D02*
X195283080Y-110220996D01*
X195283080Y-110220996D02*
X196211651Y-110220996D01*
X196783079Y-110149568D02*
X197925937Y-110149568D01*
X199425937Y-110720996D02*
X198568794Y-110720996D01*
X198997365Y-110720996D02*
X198997365Y-109220996D01*
X198997365Y-109220996D02*
X198854508Y-109435282D01*
X198854508Y-109435282D02*
X198711651Y-109578139D01*
X198711651Y-109578139D02*
X198568794Y-109649568D01*
X200783079Y-109220996D02*
X200068793Y-109220996D01*
X200068793Y-109220996D02*
X199997365Y-109935282D01*
X199997365Y-109935282D02*
X200068793Y-109863853D01*
X200068793Y-109863853D02*
X200211651Y-109792425D01*
X200211651Y-109792425D02*
X200568793Y-109792425D01*
X200568793Y-109792425D02*
X200711651Y-109863853D01*
X200711651Y-109863853D02*
X200783079Y-109935282D01*
X200783079Y-109935282D02*
X200854508Y-110078139D01*
X200854508Y-110078139D02*
X200854508Y-110435282D01*
X200854508Y-110435282D02*
X200783079Y-110578139D01*
X200783079Y-110578139D02*
X200711651Y-110649568D01*
X200711651Y-110649568D02*
X200568793Y-110720996D01*
X200568793Y-110720996D02*
X200211651Y-110720996D01*
X200211651Y-110720996D02*
X200068793Y-110649568D01*
X200068793Y-110649568D02*
X199997365Y-110578139D01*
X186140225Y-111635912D02*
X186997368Y-111635912D01*
X186568796Y-113135912D02*
X186568796Y-111635912D01*
X187711653Y-113135912D02*
X187568796Y-113064484D01*
X187568796Y-113064484D02*
X187497367Y-112993055D01*
X187497367Y-112993055D02*
X187425939Y-112850198D01*
X187425939Y-112850198D02*
X187425939Y-112421626D01*
X187425939Y-112421626D02*
X187497367Y-112278769D01*
X187497367Y-112278769D02*
X187568796Y-112207341D01*
X187568796Y-112207341D02*
X187711653Y-112135912D01*
X187711653Y-112135912D02*
X187925939Y-112135912D01*
X187925939Y-112135912D02*
X188068796Y-112207341D01*
X188068796Y-112207341D02*
X188140225Y-112278769D01*
X188140225Y-112278769D02*
X188211653Y-112421626D01*
X188211653Y-112421626D02*
X188211653Y-112850198D01*
X188211653Y-112850198D02*
X188140225Y-112993055D01*
X188140225Y-112993055D02*
X188068796Y-113064484D01*
X188068796Y-113064484D02*
X187925939Y-113135912D01*
X187925939Y-113135912D02*
X187711653Y-113135912D01*
X188854510Y-112135912D02*
X188854510Y-113135912D01*
X188854510Y-112278769D02*
X188925939Y-112207341D01*
X188925939Y-112207341D02*
X189068796Y-112135912D01*
X189068796Y-112135912D02*
X189283082Y-112135912D01*
X189283082Y-112135912D02*
X189425939Y-112207341D01*
X189425939Y-112207341D02*
X189497368Y-112350198D01*
X189497368Y-112350198D02*
X189497368Y-113135912D01*
X190854511Y-112135912D02*
X190854511Y-113350198D01*
X190854511Y-113350198D02*
X190783082Y-113493055D01*
X190783082Y-113493055D02*
X190711653Y-113564484D01*
X190711653Y-113564484D02*
X190568796Y-113635912D01*
X190568796Y-113635912D02*
X190354511Y-113635912D01*
X190354511Y-113635912D02*
X190211653Y-113564484D01*
X190854511Y-113064484D02*
X190711653Y-113135912D01*
X190711653Y-113135912D02*
X190425939Y-113135912D01*
X190425939Y-113135912D02*
X190283082Y-113064484D01*
X190283082Y-113064484D02*
X190211653Y-112993055D01*
X190211653Y-112993055D02*
X190140225Y-112850198D01*
X190140225Y-112850198D02*
X190140225Y-112421626D01*
X190140225Y-112421626D02*
X190211653Y-112278769D01*
X190211653Y-112278769D02*
X190283082Y-112207341D01*
X190283082Y-112207341D02*
X190425939Y-112135912D01*
X190425939Y-112135912D02*
X190711653Y-112135912D01*
X190711653Y-112135912D02*
X190854511Y-112207341D01*
X191568796Y-112135912D02*
X191568796Y-113421626D01*
X191568796Y-113421626D02*
X191497368Y-113564484D01*
X191497368Y-113564484D02*
X191354511Y-113635912D01*
X191354511Y-113635912D02*
X191283082Y-113635912D01*
X191568796Y-111635912D02*
X191497368Y-111707341D01*
X191497368Y-111707341D02*
X191568796Y-111778769D01*
X191568796Y-111778769D02*
X191640225Y-111707341D01*
X191640225Y-111707341D02*
X191568796Y-111635912D01*
X191568796Y-111635912D02*
X191568796Y-111778769D01*
X192283082Y-113135912D02*
X192283082Y-112135912D01*
X192283082Y-111635912D02*
X192211654Y-111707341D01*
X192211654Y-111707341D02*
X192283082Y-111778769D01*
X192283082Y-111778769D02*
X192354511Y-111707341D01*
X192354511Y-111707341D02*
X192283082Y-111635912D01*
X192283082Y-111635912D02*
X192283082Y-111778769D01*
X194140225Y-111635912D02*
X194140225Y-112850198D01*
X194140225Y-112850198D02*
X194211654Y-112993055D01*
X194211654Y-112993055D02*
X194283083Y-113064484D01*
X194283083Y-113064484D02*
X194425940Y-113135912D01*
X194425940Y-113135912D02*
X194711654Y-113135912D01*
X194711654Y-113135912D02*
X194854511Y-113064484D01*
X194854511Y-113064484D02*
X194925940Y-112993055D01*
X194925940Y-112993055D02*
X194997368Y-112850198D01*
X194997368Y-112850198D02*
X194997368Y-111635912D01*
X195711654Y-112135912D02*
X195711654Y-113135912D01*
X195711654Y-112278769D02*
X195783083Y-112207341D01*
X195783083Y-112207341D02*
X195925940Y-112135912D01*
X195925940Y-112135912D02*
X196140226Y-112135912D01*
X196140226Y-112135912D02*
X196283083Y-112207341D01*
X196283083Y-112207341D02*
X196354512Y-112350198D01*
X196354512Y-112350198D02*
X196354512Y-113135912D01*
X197068797Y-113135912D02*
X197068797Y-112135912D01*
X197068797Y-111635912D02*
X196997369Y-111707341D01*
X196997369Y-111707341D02*
X197068797Y-111778769D01*
X197068797Y-111778769D02*
X197140226Y-111707341D01*
X197140226Y-111707341D02*
X197068797Y-111635912D01*
X197068797Y-111635912D02*
X197068797Y-111778769D01*
X197640226Y-112135912D02*
X197997369Y-113135912D01*
X197997369Y-113135912D02*
X198354512Y-112135912D01*
X199497369Y-113064484D02*
X199354512Y-113135912D01*
X199354512Y-113135912D02*
X199068798Y-113135912D01*
X199068798Y-113135912D02*
X198925940Y-113064484D01*
X198925940Y-113064484D02*
X198854512Y-112921626D01*
X198854512Y-112921626D02*
X198854512Y-112350198D01*
X198854512Y-112350198D02*
X198925940Y-112207341D01*
X198925940Y-112207341D02*
X199068798Y-112135912D01*
X199068798Y-112135912D02*
X199354512Y-112135912D01*
X199354512Y-112135912D02*
X199497369Y-112207341D01*
X199497369Y-112207341D02*
X199568798Y-112350198D01*
X199568798Y-112350198D02*
X199568798Y-112493055D01*
X199568798Y-112493055D02*
X198854512Y-112635912D01*
X200211654Y-113135912D02*
X200211654Y-112135912D01*
X200211654Y-112421626D02*
X200283083Y-112278769D01*
X200283083Y-112278769D02*
X200354512Y-112207341D01*
X200354512Y-112207341D02*
X200497369Y-112135912D01*
X200497369Y-112135912D02*
X200640226Y-112135912D01*
X201068797Y-113064484D02*
X201211654Y-113135912D01*
X201211654Y-113135912D02*
X201497368Y-113135912D01*
X201497368Y-113135912D02*
X201640225Y-113064484D01*
X201640225Y-113064484D02*
X201711654Y-112921626D01*
X201711654Y-112921626D02*
X201711654Y-112850198D01*
X201711654Y-112850198D02*
X201640225Y-112707341D01*
X201640225Y-112707341D02*
X201497368Y-112635912D01*
X201497368Y-112635912D02*
X201283083Y-112635912D01*
X201283083Y-112635912D02*
X201140225Y-112564484D01*
X201140225Y-112564484D02*
X201068797Y-112421626D01*
X201068797Y-112421626D02*
X201068797Y-112350198D01*
X201068797Y-112350198D02*
X201140225Y-112207341D01*
X201140225Y-112207341D02*
X201283083Y-112135912D01*
X201283083Y-112135912D02*
X201497368Y-112135912D01*
X201497368Y-112135912D02*
X201640225Y-112207341D01*
X202354511Y-113135912D02*
X202354511Y-112135912D01*
X202354511Y-111635912D02*
X202283083Y-111707341D01*
X202283083Y-111707341D02*
X202354511Y-111778769D01*
X202354511Y-111778769D02*
X202425940Y-111707341D01*
X202425940Y-111707341D02*
X202354511Y-111635912D01*
X202354511Y-111635912D02*
X202354511Y-111778769D01*
X202854512Y-112135912D02*
X203425940Y-112135912D01*
X203068797Y-111635912D02*
X203068797Y-112921626D01*
X203068797Y-112921626D02*
X203140226Y-113064484D01*
X203140226Y-113064484D02*
X203283083Y-113135912D01*
X203283083Y-113135912D02*
X203425940Y-113135912D01*
X203783083Y-112135912D02*
X204140226Y-113135912D01*
X204497369Y-112135912D02*
X204140226Y-113135912D01*
X204140226Y-113135912D02*
X203997369Y-113493055D01*
X203997369Y-113493055D02*
X203925940Y-113564484D01*
X203925940Y-113564484D02*
X203783083Y-113635912D01*
X186354510Y-115550828D02*
X186354510Y-114050828D01*
X186354510Y-114050828D02*
X186854510Y-115122257D01*
X186854510Y-115122257D02*
X187354510Y-114050828D01*
X187354510Y-114050828D02*
X187354510Y-115550828D01*
X188640225Y-115479400D02*
X188497368Y-115550828D01*
X188497368Y-115550828D02*
X188211654Y-115550828D01*
X188211654Y-115550828D02*
X188068796Y-115479400D01*
X188068796Y-115479400D02*
X187997368Y-115336542D01*
X187997368Y-115336542D02*
X187997368Y-114765114D01*
X187997368Y-114765114D02*
X188068796Y-114622257D01*
X188068796Y-114622257D02*
X188211654Y-114550828D01*
X188211654Y-114550828D02*
X188497368Y-114550828D01*
X188497368Y-114550828D02*
X188640225Y-114622257D01*
X188640225Y-114622257D02*
X188711654Y-114765114D01*
X188711654Y-114765114D02*
X188711654Y-114907971D01*
X188711654Y-114907971D02*
X187997368Y-115050828D01*
X188497368Y-113979400D02*
X188283082Y-114193685D01*
X189568796Y-115550828D02*
X189425939Y-115479400D01*
X189425939Y-115479400D02*
X189354510Y-115336542D01*
X189354510Y-115336542D02*
X189354510Y-114050828D01*
X189997367Y-114550828D02*
X190354510Y-115550828D01*
X190711653Y-114550828D02*
X190354510Y-115550828D01*
X190354510Y-115550828D02*
X190211653Y-115907971D01*
X190211653Y-115907971D02*
X190140224Y-115979400D01*
X190140224Y-115979400D02*
X189997367Y-116050828D01*
X193211653Y-114122257D02*
X193068796Y-114050828D01*
X193068796Y-114050828D02*
X192854510Y-114050828D01*
X192854510Y-114050828D02*
X192640224Y-114122257D01*
X192640224Y-114122257D02*
X192497367Y-114265114D01*
X192497367Y-114265114D02*
X192425938Y-114407971D01*
X192425938Y-114407971D02*
X192354510Y-114693685D01*
X192354510Y-114693685D02*
X192354510Y-114907971D01*
X192354510Y-114907971D02*
X192425938Y-115193685D01*
X192425938Y-115193685D02*
X192497367Y-115336542D01*
X192497367Y-115336542D02*
X192640224Y-115479400D01*
X192640224Y-115479400D02*
X192854510Y-115550828D01*
X192854510Y-115550828D02*
X192997367Y-115550828D01*
X192997367Y-115550828D02*
X193211653Y-115479400D01*
X193211653Y-115479400D02*
X193283081Y-115407971D01*
X193283081Y-115407971D02*
X193283081Y-114907971D01*
X193283081Y-114907971D02*
X192997367Y-114907971D01*
X193854510Y-115122257D02*
X194568796Y-115122257D01*
X193711653Y-115550828D02*
X194211653Y-114050828D01*
X194211653Y-114050828D02*
X194711653Y-115550828D01*
X195925938Y-115550828D02*
X195211652Y-115550828D01*
X195211652Y-115550828D02*
X195211652Y-114050828D01*
X196211653Y-114050828D02*
X196711653Y-115550828D01*
X196711653Y-115550828D02*
X197211653Y-114050828D01*
X197711652Y-114765114D02*
X198211652Y-114765114D01*
X198425938Y-115550828D02*
X197711652Y-115550828D01*
X197711652Y-115550828D02*
X197711652Y-114050828D01*
X197711652Y-114050828D02*
X198425938Y-114050828D01*
X198925938Y-114050828D02*
X199925938Y-114050828D01*
X199925938Y-114050828D02*
X198925938Y-115550828D01*
X198925938Y-115550828D02*
X199925938Y-115550828D01*
D10*
X99533333Y-98907419D02*
X99200000Y-98431228D01*
X98961905Y-98907419D02*
X98961905Y-97907419D01*
X98961905Y-97907419D02*
X99342857Y-97907419D01*
X99342857Y-97907419D02*
X99438095Y-97955038D01*
X99438095Y-97955038D02*
X99485714Y-98002657D01*
X99485714Y-98002657D02*
X99533333Y-98097895D01*
X99533333Y-98097895D02*
X99533333Y-98240752D01*
X99533333Y-98240752D02*
X99485714Y-98335990D01*
X99485714Y-98335990D02*
X99438095Y-98383609D01*
X99438095Y-98383609D02*
X99342857Y-98431228D01*
X99342857Y-98431228D02*
X98961905Y-98431228D01*
X99914286Y-98002657D02*
X99961905Y-97955038D01*
X99961905Y-97955038D02*
X100057143Y-97907419D01*
X100057143Y-97907419D02*
X100295238Y-97907419D01*
X100295238Y-97907419D02*
X100390476Y-97955038D01*
X100390476Y-97955038D02*
X100438095Y-98002657D01*
X100438095Y-98002657D02*
X100485714Y-98097895D01*
X100485714Y-98097895D02*
X100485714Y-98193133D01*
X100485714Y-98193133D02*
X100438095Y-98335990D01*
X100438095Y-98335990D02*
X99866667Y-98907419D01*
X99866667Y-98907419D02*
X100485714Y-98907419D01*
X183852580Y-53662857D02*
X184328771Y-53329524D01*
X183852580Y-53091429D02*
X184852580Y-53091429D01*
X184852580Y-53091429D02*
X184852580Y-53472381D01*
X184852580Y-53472381D02*
X184804961Y-53567619D01*
X184804961Y-53567619D02*
X184757342Y-53615238D01*
X184757342Y-53615238D02*
X184662104Y-53662857D01*
X184662104Y-53662857D02*
X184519247Y-53662857D01*
X184519247Y-53662857D02*
X184424009Y-53615238D01*
X184424009Y-53615238D02*
X184376390Y-53567619D01*
X184376390Y-53567619D02*
X184328771Y-53472381D01*
X184328771Y-53472381D02*
X184328771Y-53091429D01*
X183947819Y-54662857D02*
X183900200Y-54615238D01*
X183900200Y-54615238D02*
X183852580Y-54472381D01*
X183852580Y-54472381D02*
X183852580Y-54377143D01*
X183852580Y-54377143D02*
X183900200Y-54234286D01*
X183900200Y-54234286D02*
X183995438Y-54139048D01*
X183995438Y-54139048D02*
X184090676Y-54091429D01*
X184090676Y-54091429D02*
X184281152Y-54043810D01*
X184281152Y-54043810D02*
X184424009Y-54043810D01*
X184424009Y-54043810D02*
X184614485Y-54091429D01*
X184614485Y-54091429D02*
X184709723Y-54139048D01*
X184709723Y-54139048D02*
X184804961Y-54234286D01*
X184804961Y-54234286D02*
X184852580Y-54377143D01*
X184852580Y-54377143D02*
X184852580Y-54472381D01*
X184852580Y-54472381D02*
X184804961Y-54615238D01*
X184804961Y-54615238D02*
X184757342Y-54662857D01*
X184852580Y-54996191D02*
X183852580Y-55234286D01*
X183852580Y-55234286D02*
X184566866Y-55424762D01*
X184566866Y-55424762D02*
X183852580Y-55615238D01*
X183852580Y-55615238D02*
X184852580Y-55853334D01*
X184233533Y-56234286D02*
X184233533Y-56996191D01*
X183852580Y-57996190D02*
X183852580Y-57424762D01*
X183852580Y-57710476D02*
X184852580Y-57710476D01*
X184852580Y-57710476D02*
X184709723Y-57615238D01*
X184709723Y-57615238D02*
X184614485Y-57520000D01*
X184614485Y-57520000D02*
X184566866Y-57424762D01*
X192757693Y-59080038D02*
X192662455Y-59032419D01*
X192662455Y-59032419D02*
X192519598Y-59032419D01*
X192519598Y-59032419D02*
X192376741Y-59080038D01*
X192376741Y-59080038D02*
X192281503Y-59175276D01*
X192281503Y-59175276D02*
X192233884Y-59270514D01*
X192233884Y-59270514D02*
X192186265Y-59460990D01*
X192186265Y-59460990D02*
X192186265Y-59603847D01*
X192186265Y-59603847D02*
X192233884Y-59794323D01*
X192233884Y-59794323D02*
X192281503Y-59889561D01*
X192281503Y-59889561D02*
X192376741Y-59984800D01*
X192376741Y-59984800D02*
X192519598Y-60032419D01*
X192519598Y-60032419D02*
X192614836Y-60032419D01*
X192614836Y-60032419D02*
X192757693Y-59984800D01*
X192757693Y-59984800D02*
X192805312Y-59937180D01*
X192805312Y-59937180D02*
X192805312Y-59603847D01*
X192805312Y-59603847D02*
X192614836Y-59603847D01*
X193233884Y-60032419D02*
X193233884Y-59032419D01*
X193233884Y-59032419D02*
X193805312Y-60032419D01*
X193805312Y-60032419D02*
X193805312Y-59032419D01*
X194281503Y-60032419D02*
X194281503Y-59032419D01*
X194281503Y-59032419D02*
X194519598Y-59032419D01*
X194519598Y-59032419D02*
X194662455Y-59080038D01*
X194662455Y-59080038D02*
X194757693Y-59175276D01*
X194757693Y-59175276D02*
X194805312Y-59270514D01*
X194805312Y-59270514D02*
X194852931Y-59460990D01*
X194852931Y-59460990D02*
X194852931Y-59603847D01*
X194852931Y-59603847D02*
X194805312Y-59794323D01*
X194805312Y-59794323D02*
X194757693Y-59889561D01*
X194757693Y-59889561D02*
X194662455Y-59984800D01*
X194662455Y-59984800D02*
X194519598Y-60032419D01*
X194519598Y-60032419D02*
X194281503Y-60032419D01*
X192091027Y-53952419D02*
X192662455Y-53952419D01*
X192376741Y-54952419D02*
X192376741Y-53952419D01*
X192995789Y-54952419D02*
X192995789Y-54285752D01*
X192995789Y-54476228D02*
X193043408Y-54380990D01*
X193043408Y-54380990D02*
X193091027Y-54333371D01*
X193091027Y-54333371D02*
X193186265Y-54285752D01*
X193186265Y-54285752D02*
X193281503Y-54285752D01*
X193614837Y-54952419D02*
X193614837Y-54285752D01*
X193614837Y-53952419D02*
X193567218Y-54000038D01*
X193567218Y-54000038D02*
X193614837Y-54047657D01*
X193614837Y-54047657D02*
X193662456Y-54000038D01*
X193662456Y-54000038D02*
X193614837Y-53952419D01*
X193614837Y-53952419D02*
X193614837Y-54047657D01*
X194519598Y-54285752D02*
X194519598Y-55095276D01*
X194519598Y-55095276D02*
X194471979Y-55190514D01*
X194471979Y-55190514D02*
X194424360Y-55238133D01*
X194424360Y-55238133D02*
X194329122Y-55285752D01*
X194329122Y-55285752D02*
X194186265Y-55285752D01*
X194186265Y-55285752D02*
X194091027Y-55238133D01*
X194519598Y-54904800D02*
X194424360Y-54952419D01*
X194424360Y-54952419D02*
X194233884Y-54952419D01*
X194233884Y-54952419D02*
X194138646Y-54904800D01*
X194138646Y-54904800D02*
X194091027Y-54857180D01*
X194091027Y-54857180D02*
X194043408Y-54761942D01*
X194043408Y-54761942D02*
X194043408Y-54476228D01*
X194043408Y-54476228D02*
X194091027Y-54380990D01*
X194091027Y-54380990D02*
X194138646Y-54333371D01*
X194138646Y-54333371D02*
X194233884Y-54285752D01*
X194233884Y-54285752D02*
X194424360Y-54285752D01*
X194424360Y-54285752D02*
X194519598Y-54333371D01*
X192222306Y-51472419D02*
X192555639Y-52472419D01*
X192555639Y-52472419D02*
X192888972Y-51472419D01*
X193793734Y-52377180D02*
X193746115Y-52424800D01*
X193746115Y-52424800D02*
X193603258Y-52472419D01*
X193603258Y-52472419D02*
X193508020Y-52472419D01*
X193508020Y-52472419D02*
X193365163Y-52424800D01*
X193365163Y-52424800D02*
X193269925Y-52329561D01*
X193269925Y-52329561D02*
X193222306Y-52234323D01*
X193222306Y-52234323D02*
X193174687Y-52043847D01*
X193174687Y-52043847D02*
X193174687Y-51900990D01*
X193174687Y-51900990D02*
X193222306Y-51710514D01*
X193222306Y-51710514D02*
X193269925Y-51615276D01*
X193269925Y-51615276D02*
X193365163Y-51520038D01*
X193365163Y-51520038D02*
X193508020Y-51472419D01*
X193508020Y-51472419D02*
X193603258Y-51472419D01*
X193603258Y-51472419D02*
X193746115Y-51520038D01*
X193746115Y-51520038D02*
X193793734Y-51567657D01*
X194793734Y-52377180D02*
X194746115Y-52424800D01*
X194746115Y-52424800D02*
X194603258Y-52472419D01*
X194603258Y-52472419D02*
X194508020Y-52472419D01*
X194508020Y-52472419D02*
X194365163Y-52424800D01*
X194365163Y-52424800D02*
X194269925Y-52329561D01*
X194269925Y-52329561D02*
X194222306Y-52234323D01*
X194222306Y-52234323D02*
X194174687Y-52043847D01*
X194174687Y-52043847D02*
X194174687Y-51900990D01*
X194174687Y-51900990D02*
X194222306Y-51710514D01*
X194222306Y-51710514D02*
X194269925Y-51615276D01*
X194269925Y-51615276D02*
X194365163Y-51520038D01*
X194365163Y-51520038D02*
X194508020Y-51472419D01*
X194508020Y-51472419D02*
X194603258Y-51472419D01*
X194603258Y-51472419D02*
X194746115Y-51520038D01*
X194746115Y-51520038D02*
X194793734Y-51567657D01*
X192233884Y-56968609D02*
X192567217Y-56968609D01*
X192710074Y-57492419D02*
X192233884Y-57492419D01*
X192233884Y-57492419D02*
X192233884Y-56492419D01*
X192233884Y-56492419D02*
X192710074Y-56492419D01*
X193567217Y-57444800D02*
X193471979Y-57492419D01*
X193471979Y-57492419D02*
X193281503Y-57492419D01*
X193281503Y-57492419D02*
X193186265Y-57444800D01*
X193186265Y-57444800D02*
X193138646Y-57397180D01*
X193138646Y-57397180D02*
X193091027Y-57301942D01*
X193091027Y-57301942D02*
X193091027Y-57016228D01*
X193091027Y-57016228D02*
X193138646Y-56920990D01*
X193138646Y-56920990D02*
X193186265Y-56873371D01*
X193186265Y-56873371D02*
X193281503Y-56825752D01*
X193281503Y-56825752D02*
X193471979Y-56825752D01*
X193471979Y-56825752D02*
X193567217Y-56873371D01*
X193995789Y-57492419D02*
X193995789Y-56492419D01*
X194424360Y-57492419D02*
X194424360Y-56968609D01*
X194424360Y-56968609D02*
X194376741Y-56873371D01*
X194376741Y-56873371D02*
X194281503Y-56825752D01*
X194281503Y-56825752D02*
X194138646Y-56825752D01*
X194138646Y-56825752D02*
X194043408Y-56873371D01*
X194043408Y-56873371D02*
X193995789Y-56920990D01*
X195043408Y-57492419D02*
X194948170Y-57444800D01*
X194948170Y-57444800D02*
X194900551Y-57397180D01*
X194900551Y-57397180D02*
X194852932Y-57301942D01*
X194852932Y-57301942D02*
X194852932Y-57016228D01*
X194852932Y-57016228D02*
X194900551Y-56920990D01*
X194900551Y-56920990D02*
X194948170Y-56873371D01*
X194948170Y-56873371D02*
X195043408Y-56825752D01*
X195043408Y-56825752D02*
X195186265Y-56825752D01*
X195186265Y-56825752D02*
X195281503Y-56873371D01*
X195281503Y-56873371D02*
X195329122Y-56920990D01*
X195329122Y-56920990D02*
X195376741Y-57016228D01*
X195376741Y-57016228D02*
X195376741Y-57301942D01*
X195376741Y-57301942D02*
X195329122Y-57397180D01*
X195329122Y-57397180D02*
X195281503Y-57444800D01*
X195281503Y-57444800D02*
X195186265Y-57492419D01*
X195186265Y-57492419D02*
X195043408Y-57492419D01*
X184266390Y-78316666D02*
X184218771Y-78459523D01*
X184218771Y-78459523D02*
X184171152Y-78507142D01*
X184171152Y-78507142D02*
X184075914Y-78554761D01*
X184075914Y-78554761D02*
X183933057Y-78554761D01*
X183933057Y-78554761D02*
X183837819Y-78507142D01*
X183837819Y-78507142D02*
X183790200Y-78459523D01*
X183790200Y-78459523D02*
X183742580Y-78364285D01*
X183742580Y-78364285D02*
X183742580Y-77983333D01*
X183742580Y-77983333D02*
X184742580Y-77983333D01*
X184742580Y-77983333D02*
X184742580Y-78316666D01*
X184742580Y-78316666D02*
X184694961Y-78411904D01*
X184694961Y-78411904D02*
X184647342Y-78459523D01*
X184647342Y-78459523D02*
X184552104Y-78507142D01*
X184552104Y-78507142D02*
X184456866Y-78507142D01*
X184456866Y-78507142D02*
X184361628Y-78459523D01*
X184361628Y-78459523D02*
X184314009Y-78411904D01*
X184314009Y-78411904D02*
X184266390Y-78316666D01*
X184266390Y-78316666D02*
X184266390Y-77983333D01*
X184409247Y-79411904D02*
X183742580Y-79411904D01*
X184409247Y-78983333D02*
X183885438Y-78983333D01*
X183885438Y-78983333D02*
X183790200Y-79030952D01*
X183790200Y-79030952D02*
X183742580Y-79126190D01*
X183742580Y-79126190D02*
X183742580Y-79269047D01*
X183742580Y-79269047D02*
X183790200Y-79364285D01*
X183790200Y-79364285D02*
X183837819Y-79411904D01*
X184409247Y-79745238D02*
X184409247Y-80126190D01*
X184742580Y-79888095D02*
X183885438Y-79888095D01*
X183885438Y-79888095D02*
X183790200Y-79935714D01*
X183790200Y-79935714D02*
X183742580Y-80030952D01*
X183742580Y-80030952D02*
X183742580Y-80126190D01*
X184409247Y-80316667D02*
X184409247Y-80697619D01*
X184742580Y-80459524D02*
X183885438Y-80459524D01*
X183885438Y-80459524D02*
X183790200Y-80507143D01*
X183790200Y-80507143D02*
X183742580Y-80602381D01*
X183742580Y-80602381D02*
X183742580Y-80697619D01*
X183742580Y-81173810D02*
X183790200Y-81078572D01*
X183790200Y-81078572D02*
X183837819Y-81030953D01*
X183837819Y-81030953D02*
X183933057Y-80983334D01*
X183933057Y-80983334D02*
X184218771Y-80983334D01*
X184218771Y-80983334D02*
X184314009Y-81030953D01*
X184314009Y-81030953D02*
X184361628Y-81078572D01*
X184361628Y-81078572D02*
X184409247Y-81173810D01*
X184409247Y-81173810D02*
X184409247Y-81316667D01*
X184409247Y-81316667D02*
X184361628Y-81411905D01*
X184361628Y-81411905D02*
X184314009Y-81459524D01*
X184314009Y-81459524D02*
X184218771Y-81507143D01*
X184218771Y-81507143D02*
X183933057Y-81507143D01*
X183933057Y-81507143D02*
X183837819Y-81459524D01*
X183837819Y-81459524D02*
X183790200Y-81411905D01*
X183790200Y-81411905D02*
X183742580Y-81316667D01*
X183742580Y-81316667D02*
X183742580Y-81173810D01*
X184409247Y-81935715D02*
X183742580Y-81935715D01*
X184314009Y-81935715D02*
X184361628Y-81983334D01*
X184361628Y-81983334D02*
X184409247Y-82078572D01*
X184409247Y-82078572D02*
X184409247Y-82221429D01*
X184409247Y-82221429D02*
X184361628Y-82316667D01*
X184361628Y-82316667D02*
X184266390Y-82364286D01*
X184266390Y-82364286D02*
X183742580Y-82364286D01*
X184742580Y-82745239D02*
X184742580Y-83364286D01*
X184742580Y-83364286D02*
X184361628Y-83030953D01*
X184361628Y-83030953D02*
X184361628Y-83173810D01*
X184361628Y-83173810D02*
X184314009Y-83269048D01*
X184314009Y-83269048D02*
X184266390Y-83316667D01*
X184266390Y-83316667D02*
X184171152Y-83364286D01*
X184171152Y-83364286D02*
X183933057Y-83364286D01*
X183933057Y-83364286D02*
X183837819Y-83316667D01*
X183837819Y-83316667D02*
X183790200Y-83269048D01*
X183790200Y-83269048D02*
X183742580Y-83173810D01*
X183742580Y-83173810D02*
X183742580Y-82888096D01*
X183742580Y-82888096D02*
X183790200Y-82792858D01*
X183790200Y-82792858D02*
X183837819Y-82745239D01*
X192553884Y-81272419D02*
X192553884Y-80272419D01*
X192553884Y-80272419D02*
X192791979Y-80272419D01*
X192791979Y-80272419D02*
X192934836Y-80320038D01*
X192934836Y-80320038D02*
X193030074Y-80415276D01*
X193030074Y-80415276D02*
X193077693Y-80510514D01*
X193077693Y-80510514D02*
X193125312Y-80700990D01*
X193125312Y-80700990D02*
X193125312Y-80843847D01*
X193125312Y-80843847D02*
X193077693Y-81034323D01*
X193077693Y-81034323D02*
X193030074Y-81129561D01*
X193030074Y-81129561D02*
X192934836Y-81224800D01*
X192934836Y-81224800D02*
X192791979Y-81272419D01*
X192791979Y-81272419D02*
X192553884Y-81272419D01*
X191988070Y-77832419D02*
X192321403Y-78832419D01*
X192321403Y-78832419D02*
X192654736Y-77832419D01*
X193559498Y-78737180D02*
X193511879Y-78784800D01*
X193511879Y-78784800D02*
X193369022Y-78832419D01*
X193369022Y-78832419D02*
X193273784Y-78832419D01*
X193273784Y-78832419D02*
X193130927Y-78784800D01*
X193130927Y-78784800D02*
X193035689Y-78689561D01*
X193035689Y-78689561D02*
X192988070Y-78594323D01*
X192988070Y-78594323D02*
X192940451Y-78403847D01*
X192940451Y-78403847D02*
X192940451Y-78260990D01*
X192940451Y-78260990D02*
X192988070Y-78070514D01*
X192988070Y-78070514D02*
X193035689Y-77975276D01*
X193035689Y-77975276D02*
X193130927Y-77880038D01*
X193130927Y-77880038D02*
X193273784Y-77832419D01*
X193273784Y-77832419D02*
X193369022Y-77832419D01*
X193369022Y-77832419D02*
X193511879Y-77880038D01*
X193511879Y-77880038D02*
X193559498Y-77927657D01*
X194559498Y-78737180D02*
X194511879Y-78784800D01*
X194511879Y-78784800D02*
X194369022Y-78832419D01*
X194369022Y-78832419D02*
X194273784Y-78832419D01*
X194273784Y-78832419D02*
X194130927Y-78784800D01*
X194130927Y-78784800D02*
X194035689Y-78689561D01*
X194035689Y-78689561D02*
X193988070Y-78594323D01*
X193988070Y-78594323D02*
X193940451Y-78403847D01*
X193940451Y-78403847D02*
X193940451Y-78260990D01*
X193940451Y-78260990D02*
X193988070Y-78070514D01*
X193988070Y-78070514D02*
X194035689Y-77975276D01*
X194035689Y-77975276D02*
X194130927Y-77880038D01*
X194130927Y-77880038D02*
X194273784Y-77832419D01*
X194273784Y-77832419D02*
X194369022Y-77832419D01*
X194369022Y-77832419D02*
X194511879Y-77880038D01*
X194511879Y-77880038D02*
X194559498Y-77927657D01*
X192654736Y-82960038D02*
X192559498Y-82912419D01*
X192559498Y-82912419D02*
X192416641Y-82912419D01*
X192416641Y-82912419D02*
X192273784Y-82960038D01*
X192273784Y-82960038D02*
X192178546Y-83055276D01*
X192178546Y-83055276D02*
X192130927Y-83150514D01*
X192130927Y-83150514D02*
X192083308Y-83340990D01*
X192083308Y-83340990D02*
X192083308Y-83483847D01*
X192083308Y-83483847D02*
X192130927Y-83674323D01*
X192130927Y-83674323D02*
X192178546Y-83769561D01*
X192178546Y-83769561D02*
X192273784Y-83864800D01*
X192273784Y-83864800D02*
X192416641Y-83912419D01*
X192416641Y-83912419D02*
X192511879Y-83912419D01*
X192511879Y-83912419D02*
X192654736Y-83864800D01*
X192654736Y-83864800D02*
X192702355Y-83817180D01*
X192702355Y-83817180D02*
X192702355Y-83483847D01*
X192702355Y-83483847D02*
X192511879Y-83483847D01*
X193130927Y-83912419D02*
X193130927Y-82912419D01*
X193130927Y-82912419D02*
X193702355Y-83912419D01*
X193702355Y-83912419D02*
X193702355Y-82912419D01*
X194178546Y-83912419D02*
X194178546Y-82912419D01*
X194178546Y-82912419D02*
X194416641Y-82912419D01*
X194416641Y-82912419D02*
X194559498Y-82960038D01*
X194559498Y-82960038D02*
X194654736Y-83055276D01*
X194654736Y-83055276D02*
X194702355Y-83150514D01*
X194702355Y-83150514D02*
X194749974Y-83340990D01*
X194749974Y-83340990D02*
X194749974Y-83483847D01*
X194749974Y-83483847D02*
X194702355Y-83674323D01*
X194702355Y-83674323D02*
X194654736Y-83769561D01*
X194654736Y-83769561D02*
X194559498Y-83864800D01*
X194559498Y-83864800D02*
X194416641Y-83912419D01*
X194416641Y-83912419D02*
X194178546Y-83912419D01*
X115957419Y-90838094D02*
X114957419Y-90838094D01*
X114957419Y-90838094D02*
X114957419Y-90599999D01*
X114957419Y-90599999D02*
X115005038Y-90457142D01*
X115005038Y-90457142D02*
X115100276Y-90361904D01*
X115100276Y-90361904D02*
X115195514Y-90314285D01*
X115195514Y-90314285D02*
X115385990Y-90266666D01*
X115385990Y-90266666D02*
X115528847Y-90266666D01*
X115528847Y-90266666D02*
X115719323Y-90314285D01*
X115719323Y-90314285D02*
X115814561Y-90361904D01*
X115814561Y-90361904D02*
X115909800Y-90457142D01*
X115909800Y-90457142D02*
X115957419Y-90599999D01*
X115957419Y-90599999D02*
X115957419Y-90838094D01*
X115052657Y-89885713D02*
X115005038Y-89838094D01*
X115005038Y-89838094D02*
X114957419Y-89742856D01*
X114957419Y-89742856D02*
X114957419Y-89504761D01*
X114957419Y-89504761D02*
X115005038Y-89409523D01*
X115005038Y-89409523D02*
X115052657Y-89361904D01*
X115052657Y-89361904D02*
X115147895Y-89314285D01*
X115147895Y-89314285D02*
X115243133Y-89314285D01*
X115243133Y-89314285D02*
X115385990Y-89361904D01*
X115385990Y-89361904D02*
X115957419Y-89933332D01*
X115957419Y-89933332D02*
X115957419Y-89314285D01*
X111376704Y-88423734D02*
X111376704Y-87947544D01*
X111662419Y-88518972D02*
X110662419Y-88185639D01*
X110662419Y-88185639D02*
X111662419Y-87852306D01*
X111662419Y-92496115D02*
X110662419Y-92496115D01*
X111662419Y-91924687D02*
X111090990Y-92353258D01*
X110662419Y-91924687D02*
X111233847Y-92496115D01*
X206483333Y-98457419D02*
X206150000Y-97981228D01*
X205911905Y-98457419D02*
X205911905Y-97457419D01*
X205911905Y-97457419D02*
X206292857Y-97457419D01*
X206292857Y-97457419D02*
X206388095Y-97505038D01*
X206388095Y-97505038D02*
X206435714Y-97552657D01*
X206435714Y-97552657D02*
X206483333Y-97647895D01*
X206483333Y-97647895D02*
X206483333Y-97790752D01*
X206483333Y-97790752D02*
X206435714Y-97885990D01*
X206435714Y-97885990D02*
X206388095Y-97933609D01*
X206388095Y-97933609D02*
X206292857Y-97981228D01*
X206292857Y-97981228D02*
X205911905Y-97981228D01*
X207388095Y-97457419D02*
X206911905Y-97457419D01*
X206911905Y-97457419D02*
X206864286Y-97933609D01*
X206864286Y-97933609D02*
X206911905Y-97885990D01*
X206911905Y-97885990D02*
X207007143Y-97838371D01*
X207007143Y-97838371D02*
X207245238Y-97838371D01*
X207245238Y-97838371D02*
X207340476Y-97885990D01*
X207340476Y-97885990D02*
X207388095Y-97933609D01*
X207388095Y-97933609D02*
X207435714Y-98028847D01*
X207435714Y-98028847D02*
X207435714Y-98266942D01*
X207435714Y-98266942D02*
X207388095Y-98362180D01*
X207388095Y-98362180D02*
X207340476Y-98409800D01*
X207340476Y-98409800D02*
X207245238Y-98457419D01*
X207245238Y-98457419D02*
X207007143Y-98457419D01*
X207007143Y-98457419D02*
X206911905Y-98409800D01*
X206911905Y-98409800D02*
X206864286Y-98362180D01*
X184166390Y-89216666D02*
X184118771Y-89359523D01*
X184118771Y-89359523D02*
X184071152Y-89407142D01*
X184071152Y-89407142D02*
X183975914Y-89454761D01*
X183975914Y-89454761D02*
X183833057Y-89454761D01*
X183833057Y-89454761D02*
X183737819Y-89407142D01*
X183737819Y-89407142D02*
X183690200Y-89359523D01*
X183690200Y-89359523D02*
X183642580Y-89264285D01*
X183642580Y-89264285D02*
X183642580Y-88883333D01*
X183642580Y-88883333D02*
X184642580Y-88883333D01*
X184642580Y-88883333D02*
X184642580Y-89216666D01*
X184642580Y-89216666D02*
X184594961Y-89311904D01*
X184594961Y-89311904D02*
X184547342Y-89359523D01*
X184547342Y-89359523D02*
X184452104Y-89407142D01*
X184452104Y-89407142D02*
X184356866Y-89407142D01*
X184356866Y-89407142D02*
X184261628Y-89359523D01*
X184261628Y-89359523D02*
X184214009Y-89311904D01*
X184214009Y-89311904D02*
X184166390Y-89216666D01*
X184166390Y-89216666D02*
X184166390Y-88883333D01*
X184309247Y-90311904D02*
X183642580Y-90311904D01*
X184309247Y-89883333D02*
X183785438Y-89883333D01*
X183785438Y-89883333D02*
X183690200Y-89930952D01*
X183690200Y-89930952D02*
X183642580Y-90026190D01*
X183642580Y-90026190D02*
X183642580Y-90169047D01*
X183642580Y-90169047D02*
X183690200Y-90264285D01*
X183690200Y-90264285D02*
X183737819Y-90311904D01*
X184309247Y-90645238D02*
X184309247Y-91026190D01*
X184642580Y-90788095D02*
X183785438Y-90788095D01*
X183785438Y-90788095D02*
X183690200Y-90835714D01*
X183690200Y-90835714D02*
X183642580Y-90930952D01*
X183642580Y-90930952D02*
X183642580Y-91026190D01*
X184309247Y-91216667D02*
X184309247Y-91597619D01*
X184642580Y-91359524D02*
X183785438Y-91359524D01*
X183785438Y-91359524D02*
X183690200Y-91407143D01*
X183690200Y-91407143D02*
X183642580Y-91502381D01*
X183642580Y-91502381D02*
X183642580Y-91597619D01*
X183642580Y-92073810D02*
X183690200Y-91978572D01*
X183690200Y-91978572D02*
X183737819Y-91930953D01*
X183737819Y-91930953D02*
X183833057Y-91883334D01*
X183833057Y-91883334D02*
X184118771Y-91883334D01*
X184118771Y-91883334D02*
X184214009Y-91930953D01*
X184214009Y-91930953D02*
X184261628Y-91978572D01*
X184261628Y-91978572D02*
X184309247Y-92073810D01*
X184309247Y-92073810D02*
X184309247Y-92216667D01*
X184309247Y-92216667D02*
X184261628Y-92311905D01*
X184261628Y-92311905D02*
X184214009Y-92359524D01*
X184214009Y-92359524D02*
X184118771Y-92407143D01*
X184118771Y-92407143D02*
X183833057Y-92407143D01*
X183833057Y-92407143D02*
X183737819Y-92359524D01*
X183737819Y-92359524D02*
X183690200Y-92311905D01*
X183690200Y-92311905D02*
X183642580Y-92216667D01*
X183642580Y-92216667D02*
X183642580Y-92073810D01*
X184309247Y-92835715D02*
X183642580Y-92835715D01*
X184214009Y-92835715D02*
X184261628Y-92883334D01*
X184261628Y-92883334D02*
X184309247Y-92978572D01*
X184309247Y-92978572D02*
X184309247Y-93121429D01*
X184309247Y-93121429D02*
X184261628Y-93216667D01*
X184261628Y-93216667D02*
X184166390Y-93264286D01*
X184166390Y-93264286D02*
X183642580Y-93264286D01*
X183642580Y-94264286D02*
X183642580Y-93692858D01*
X183642580Y-93978572D02*
X184642580Y-93978572D01*
X184642580Y-93978572D02*
X184499723Y-93883334D01*
X184499723Y-93883334D02*
X184404485Y-93788096D01*
X184404485Y-93788096D02*
X184356866Y-93692858D01*
X191838070Y-88582419D02*
X192171403Y-89582419D01*
X192171403Y-89582419D02*
X192504736Y-88582419D01*
X193409498Y-89487180D02*
X193361879Y-89534800D01*
X193361879Y-89534800D02*
X193219022Y-89582419D01*
X193219022Y-89582419D02*
X193123784Y-89582419D01*
X193123784Y-89582419D02*
X192980927Y-89534800D01*
X192980927Y-89534800D02*
X192885689Y-89439561D01*
X192885689Y-89439561D02*
X192838070Y-89344323D01*
X192838070Y-89344323D02*
X192790451Y-89153847D01*
X192790451Y-89153847D02*
X192790451Y-89010990D01*
X192790451Y-89010990D02*
X192838070Y-88820514D01*
X192838070Y-88820514D02*
X192885689Y-88725276D01*
X192885689Y-88725276D02*
X192980927Y-88630038D01*
X192980927Y-88630038D02*
X193123784Y-88582419D01*
X193123784Y-88582419D02*
X193219022Y-88582419D01*
X193219022Y-88582419D02*
X193361879Y-88630038D01*
X193361879Y-88630038D02*
X193409498Y-88677657D01*
X194409498Y-89487180D02*
X194361879Y-89534800D01*
X194361879Y-89534800D02*
X194219022Y-89582419D01*
X194219022Y-89582419D02*
X194123784Y-89582419D01*
X194123784Y-89582419D02*
X193980927Y-89534800D01*
X193980927Y-89534800D02*
X193885689Y-89439561D01*
X193885689Y-89439561D02*
X193838070Y-89344323D01*
X193838070Y-89344323D02*
X193790451Y-89153847D01*
X193790451Y-89153847D02*
X193790451Y-89010990D01*
X193790451Y-89010990D02*
X193838070Y-88820514D01*
X193838070Y-88820514D02*
X193885689Y-88725276D01*
X193885689Y-88725276D02*
X193980927Y-88630038D01*
X193980927Y-88630038D02*
X194123784Y-88582419D01*
X194123784Y-88582419D02*
X194219022Y-88582419D01*
X194219022Y-88582419D02*
X194361879Y-88630038D01*
X194361879Y-88630038D02*
X194409498Y-88677657D01*
X192504736Y-93710038D02*
X192409498Y-93662419D01*
X192409498Y-93662419D02*
X192266641Y-93662419D01*
X192266641Y-93662419D02*
X192123784Y-93710038D01*
X192123784Y-93710038D02*
X192028546Y-93805276D01*
X192028546Y-93805276D02*
X191980927Y-93900514D01*
X191980927Y-93900514D02*
X191933308Y-94090990D01*
X191933308Y-94090990D02*
X191933308Y-94233847D01*
X191933308Y-94233847D02*
X191980927Y-94424323D01*
X191980927Y-94424323D02*
X192028546Y-94519561D01*
X192028546Y-94519561D02*
X192123784Y-94614800D01*
X192123784Y-94614800D02*
X192266641Y-94662419D01*
X192266641Y-94662419D02*
X192361879Y-94662419D01*
X192361879Y-94662419D02*
X192504736Y-94614800D01*
X192504736Y-94614800D02*
X192552355Y-94567180D01*
X192552355Y-94567180D02*
X192552355Y-94233847D01*
X192552355Y-94233847D02*
X192361879Y-94233847D01*
X192980927Y-94662419D02*
X192980927Y-93662419D01*
X192980927Y-93662419D02*
X193552355Y-94662419D01*
X193552355Y-94662419D02*
X193552355Y-93662419D01*
X194028546Y-94662419D02*
X194028546Y-93662419D01*
X194028546Y-93662419D02*
X194266641Y-93662419D01*
X194266641Y-93662419D02*
X194409498Y-93710038D01*
X194409498Y-93710038D02*
X194504736Y-93805276D01*
X194504736Y-93805276D02*
X194552355Y-93900514D01*
X194552355Y-93900514D02*
X194599974Y-94090990D01*
X194599974Y-94090990D02*
X194599974Y-94233847D01*
X194599974Y-94233847D02*
X194552355Y-94424323D01*
X194552355Y-94424323D02*
X194504736Y-94519561D01*
X194504736Y-94519561D02*
X194409498Y-94614800D01*
X194409498Y-94614800D02*
X194266641Y-94662419D01*
X194266641Y-94662419D02*
X194028546Y-94662419D01*
X192453884Y-91922419D02*
X192453884Y-90922419D01*
X192453884Y-90922419D02*
X192691979Y-90922419D01*
X192691979Y-90922419D02*
X192834836Y-90970038D01*
X192834836Y-90970038D02*
X192930074Y-91065276D01*
X192930074Y-91065276D02*
X192977693Y-91160514D01*
X192977693Y-91160514D02*
X193025312Y-91350990D01*
X193025312Y-91350990D02*
X193025312Y-91493847D01*
X193025312Y-91493847D02*
X192977693Y-91684323D01*
X192977693Y-91684323D02*
X192930074Y-91779561D01*
X192930074Y-91779561D02*
X192834836Y-91874800D01*
X192834836Y-91874800D02*
X192691979Y-91922419D01*
X192691979Y-91922419D02*
X192453884Y-91922419D01*
X99183333Y-113857419D02*
X98850000Y-113381228D01*
X98611905Y-113857419D02*
X98611905Y-112857419D01*
X98611905Y-112857419D02*
X98992857Y-112857419D01*
X98992857Y-112857419D02*
X99088095Y-112905038D01*
X99088095Y-112905038D02*
X99135714Y-112952657D01*
X99135714Y-112952657D02*
X99183333Y-113047895D01*
X99183333Y-113047895D02*
X99183333Y-113190752D01*
X99183333Y-113190752D02*
X99135714Y-113285990D01*
X99135714Y-113285990D02*
X99088095Y-113333609D01*
X99088095Y-113333609D02*
X98992857Y-113381228D01*
X98992857Y-113381228D02*
X98611905Y-113381228D01*
X99516667Y-112857419D02*
X100135714Y-112857419D01*
X100135714Y-112857419D02*
X99802381Y-113238371D01*
X99802381Y-113238371D02*
X99945238Y-113238371D01*
X99945238Y-113238371D02*
X100040476Y-113285990D01*
X100040476Y-113285990D02*
X100088095Y-113333609D01*
X100088095Y-113333609D02*
X100135714Y-113428847D01*
X100135714Y-113428847D02*
X100135714Y-113666942D01*
X100135714Y-113666942D02*
X100088095Y-113762180D01*
X100088095Y-113762180D02*
X100040476Y-113809800D01*
X100040476Y-113809800D02*
X99945238Y-113857419D01*
X99945238Y-113857419D02*
X99659524Y-113857419D01*
X99659524Y-113857419D02*
X99564286Y-113809800D01*
X99564286Y-113809800D02*
X99516667Y-113762180D01*
X183902580Y-66462857D02*
X184378771Y-66129524D01*
X183902580Y-65891429D02*
X184902580Y-65891429D01*
X184902580Y-65891429D02*
X184902580Y-66272381D01*
X184902580Y-66272381D02*
X184854961Y-66367619D01*
X184854961Y-66367619D02*
X184807342Y-66415238D01*
X184807342Y-66415238D02*
X184712104Y-66462857D01*
X184712104Y-66462857D02*
X184569247Y-66462857D01*
X184569247Y-66462857D02*
X184474009Y-66415238D01*
X184474009Y-66415238D02*
X184426390Y-66367619D01*
X184426390Y-66367619D02*
X184378771Y-66272381D01*
X184378771Y-66272381D02*
X184378771Y-65891429D01*
X183997819Y-67462857D02*
X183950200Y-67415238D01*
X183950200Y-67415238D02*
X183902580Y-67272381D01*
X183902580Y-67272381D02*
X183902580Y-67177143D01*
X183902580Y-67177143D02*
X183950200Y-67034286D01*
X183950200Y-67034286D02*
X184045438Y-66939048D01*
X184045438Y-66939048D02*
X184140676Y-66891429D01*
X184140676Y-66891429D02*
X184331152Y-66843810D01*
X184331152Y-66843810D02*
X184474009Y-66843810D01*
X184474009Y-66843810D02*
X184664485Y-66891429D01*
X184664485Y-66891429D02*
X184759723Y-66939048D01*
X184759723Y-66939048D02*
X184854961Y-67034286D01*
X184854961Y-67034286D02*
X184902580Y-67177143D01*
X184902580Y-67177143D02*
X184902580Y-67272381D01*
X184902580Y-67272381D02*
X184854961Y-67415238D01*
X184854961Y-67415238D02*
X184807342Y-67462857D01*
X184902580Y-67796191D02*
X183902580Y-68034286D01*
X183902580Y-68034286D02*
X184616866Y-68224762D01*
X184616866Y-68224762D02*
X183902580Y-68415238D01*
X183902580Y-68415238D02*
X184902580Y-68653334D01*
X184283533Y-69034286D02*
X184283533Y-69796191D01*
X184902580Y-70177143D02*
X184902580Y-70796190D01*
X184902580Y-70796190D02*
X184521628Y-70462857D01*
X184521628Y-70462857D02*
X184521628Y-70605714D01*
X184521628Y-70605714D02*
X184474009Y-70700952D01*
X184474009Y-70700952D02*
X184426390Y-70748571D01*
X184426390Y-70748571D02*
X184331152Y-70796190D01*
X184331152Y-70796190D02*
X184093057Y-70796190D01*
X184093057Y-70796190D02*
X183997819Y-70748571D01*
X183997819Y-70748571D02*
X183950200Y-70700952D01*
X183950200Y-70700952D02*
X183902580Y-70605714D01*
X183902580Y-70605714D02*
X183902580Y-70320000D01*
X183902580Y-70320000D02*
X183950200Y-70224762D01*
X183950200Y-70224762D02*
X183997819Y-70177143D01*
X192141027Y-66752419D02*
X192712455Y-66752419D01*
X192426741Y-67752419D02*
X192426741Y-66752419D01*
X193045789Y-67752419D02*
X193045789Y-67085752D01*
X193045789Y-67276228D02*
X193093408Y-67180990D01*
X193093408Y-67180990D02*
X193141027Y-67133371D01*
X193141027Y-67133371D02*
X193236265Y-67085752D01*
X193236265Y-67085752D02*
X193331503Y-67085752D01*
X193664837Y-67752419D02*
X193664837Y-67085752D01*
X193664837Y-66752419D02*
X193617218Y-66800038D01*
X193617218Y-66800038D02*
X193664837Y-66847657D01*
X193664837Y-66847657D02*
X193712456Y-66800038D01*
X193712456Y-66800038D02*
X193664837Y-66752419D01*
X193664837Y-66752419D02*
X193664837Y-66847657D01*
X194569598Y-67085752D02*
X194569598Y-67895276D01*
X194569598Y-67895276D02*
X194521979Y-67990514D01*
X194521979Y-67990514D02*
X194474360Y-68038133D01*
X194474360Y-68038133D02*
X194379122Y-68085752D01*
X194379122Y-68085752D02*
X194236265Y-68085752D01*
X194236265Y-68085752D02*
X194141027Y-68038133D01*
X194569598Y-67704800D02*
X194474360Y-67752419D01*
X194474360Y-67752419D02*
X194283884Y-67752419D01*
X194283884Y-67752419D02*
X194188646Y-67704800D01*
X194188646Y-67704800D02*
X194141027Y-67657180D01*
X194141027Y-67657180D02*
X194093408Y-67561942D01*
X194093408Y-67561942D02*
X194093408Y-67276228D01*
X194093408Y-67276228D02*
X194141027Y-67180990D01*
X194141027Y-67180990D02*
X194188646Y-67133371D01*
X194188646Y-67133371D02*
X194283884Y-67085752D01*
X194283884Y-67085752D02*
X194474360Y-67085752D01*
X194474360Y-67085752D02*
X194569598Y-67133371D01*
X192283884Y-69768609D02*
X192617217Y-69768609D01*
X192760074Y-70292419D02*
X192283884Y-70292419D01*
X192283884Y-70292419D02*
X192283884Y-69292419D01*
X192283884Y-69292419D02*
X192760074Y-69292419D01*
X193617217Y-70244800D02*
X193521979Y-70292419D01*
X193521979Y-70292419D02*
X193331503Y-70292419D01*
X193331503Y-70292419D02*
X193236265Y-70244800D01*
X193236265Y-70244800D02*
X193188646Y-70197180D01*
X193188646Y-70197180D02*
X193141027Y-70101942D01*
X193141027Y-70101942D02*
X193141027Y-69816228D01*
X193141027Y-69816228D02*
X193188646Y-69720990D01*
X193188646Y-69720990D02*
X193236265Y-69673371D01*
X193236265Y-69673371D02*
X193331503Y-69625752D01*
X193331503Y-69625752D02*
X193521979Y-69625752D01*
X193521979Y-69625752D02*
X193617217Y-69673371D01*
X194045789Y-70292419D02*
X194045789Y-69292419D01*
X194474360Y-70292419D02*
X194474360Y-69768609D01*
X194474360Y-69768609D02*
X194426741Y-69673371D01*
X194426741Y-69673371D02*
X194331503Y-69625752D01*
X194331503Y-69625752D02*
X194188646Y-69625752D01*
X194188646Y-69625752D02*
X194093408Y-69673371D01*
X194093408Y-69673371D02*
X194045789Y-69720990D01*
X195093408Y-70292419D02*
X194998170Y-70244800D01*
X194998170Y-70244800D02*
X194950551Y-70197180D01*
X194950551Y-70197180D02*
X194902932Y-70101942D01*
X194902932Y-70101942D02*
X194902932Y-69816228D01*
X194902932Y-69816228D02*
X194950551Y-69720990D01*
X194950551Y-69720990D02*
X194998170Y-69673371D01*
X194998170Y-69673371D02*
X195093408Y-69625752D01*
X195093408Y-69625752D02*
X195236265Y-69625752D01*
X195236265Y-69625752D02*
X195331503Y-69673371D01*
X195331503Y-69673371D02*
X195379122Y-69720990D01*
X195379122Y-69720990D02*
X195426741Y-69816228D01*
X195426741Y-69816228D02*
X195426741Y-70101942D01*
X195426741Y-70101942D02*
X195379122Y-70197180D01*
X195379122Y-70197180D02*
X195331503Y-70244800D01*
X195331503Y-70244800D02*
X195236265Y-70292419D01*
X195236265Y-70292419D02*
X195093408Y-70292419D01*
X193198496Y-64220038D02*
X193103258Y-64172419D01*
X193103258Y-64172419D02*
X192960401Y-64172419D01*
X192960401Y-64172419D02*
X192817544Y-64220038D01*
X192817544Y-64220038D02*
X192722306Y-64315276D01*
X192722306Y-64315276D02*
X192674687Y-64410514D01*
X192674687Y-64410514D02*
X192627068Y-64600990D01*
X192627068Y-64600990D02*
X192627068Y-64743847D01*
X192627068Y-64743847D02*
X192674687Y-64934323D01*
X192674687Y-64934323D02*
X192722306Y-65029561D01*
X192722306Y-65029561D02*
X192817544Y-65124800D01*
X192817544Y-65124800D02*
X192960401Y-65172419D01*
X192960401Y-65172419D02*
X193055639Y-65172419D01*
X193055639Y-65172419D02*
X193198496Y-65124800D01*
X193198496Y-65124800D02*
X193246115Y-65077180D01*
X193246115Y-65077180D02*
X193246115Y-64743847D01*
X193246115Y-64743847D02*
X193055639Y-64743847D01*
X193674687Y-65172419D02*
X193674687Y-64172419D01*
X193674687Y-64172419D02*
X194246115Y-65172419D01*
X194246115Y-65172419D02*
X194246115Y-64172419D01*
X194722306Y-65172419D02*
X194722306Y-64172419D01*
X194722306Y-64172419D02*
X194960401Y-64172419D01*
X194960401Y-64172419D02*
X195103258Y-64220038D01*
X195103258Y-64220038D02*
X195198496Y-64315276D01*
X195198496Y-64315276D02*
X195246115Y-64410514D01*
X195246115Y-64410514D02*
X195293734Y-64600990D01*
X195293734Y-64600990D02*
X195293734Y-64743847D01*
X195293734Y-64743847D02*
X195246115Y-64934323D01*
X195246115Y-64934323D02*
X195198496Y-65029561D01*
X195198496Y-65029561D02*
X195103258Y-65124800D01*
X195103258Y-65124800D02*
X194960401Y-65172419D01*
X194960401Y-65172419D02*
X194722306Y-65172419D01*
X192141027Y-71832419D02*
X192474360Y-72832419D01*
X192474360Y-72832419D02*
X192807693Y-71832419D01*
X193712455Y-72737180D02*
X193664836Y-72784800D01*
X193664836Y-72784800D02*
X193521979Y-72832419D01*
X193521979Y-72832419D02*
X193426741Y-72832419D01*
X193426741Y-72832419D02*
X193283884Y-72784800D01*
X193283884Y-72784800D02*
X193188646Y-72689561D01*
X193188646Y-72689561D02*
X193141027Y-72594323D01*
X193141027Y-72594323D02*
X193093408Y-72403847D01*
X193093408Y-72403847D02*
X193093408Y-72260990D01*
X193093408Y-72260990D02*
X193141027Y-72070514D01*
X193141027Y-72070514D02*
X193188646Y-71975276D01*
X193188646Y-71975276D02*
X193283884Y-71880038D01*
X193283884Y-71880038D02*
X193426741Y-71832419D01*
X193426741Y-71832419D02*
X193521979Y-71832419D01*
X193521979Y-71832419D02*
X193664836Y-71880038D01*
X193664836Y-71880038D02*
X193712455Y-71927657D01*
X194712455Y-72737180D02*
X194664836Y-72784800D01*
X194664836Y-72784800D02*
X194521979Y-72832419D01*
X194521979Y-72832419D02*
X194426741Y-72832419D01*
X194426741Y-72832419D02*
X194283884Y-72784800D01*
X194283884Y-72784800D02*
X194188646Y-72689561D01*
X194188646Y-72689561D02*
X194141027Y-72594323D01*
X194141027Y-72594323D02*
X194093408Y-72403847D01*
X194093408Y-72403847D02*
X194093408Y-72260990D01*
X194093408Y-72260990D02*
X194141027Y-72070514D01*
X194141027Y-72070514D02*
X194188646Y-71975276D01*
X194188646Y-71975276D02*
X194283884Y-71880038D01*
X194283884Y-71880038D02*
X194426741Y-71832419D01*
X194426741Y-71832419D02*
X194521979Y-71832419D01*
X194521979Y-71832419D02*
X194664836Y-71880038D01*
X194664836Y-71880038D02*
X194712455Y-71927657D01*
X103548496Y-46470038D02*
X103453258Y-46422419D01*
X103453258Y-46422419D02*
X103310401Y-46422419D01*
X103310401Y-46422419D02*
X103167544Y-46470038D01*
X103167544Y-46470038D02*
X103072306Y-46565276D01*
X103072306Y-46565276D02*
X103024687Y-46660514D01*
X103024687Y-46660514D02*
X102977068Y-46850990D01*
X102977068Y-46850990D02*
X102977068Y-46993847D01*
X102977068Y-46993847D02*
X103024687Y-47184323D01*
X103024687Y-47184323D02*
X103072306Y-47279561D01*
X103072306Y-47279561D02*
X103167544Y-47374800D01*
X103167544Y-47374800D02*
X103310401Y-47422419D01*
X103310401Y-47422419D02*
X103405639Y-47422419D01*
X103405639Y-47422419D02*
X103548496Y-47374800D01*
X103548496Y-47374800D02*
X103596115Y-47327180D01*
X103596115Y-47327180D02*
X103596115Y-46993847D01*
X103596115Y-46993847D02*
X103405639Y-46993847D01*
X104024687Y-47422419D02*
X104024687Y-46422419D01*
X104024687Y-46422419D02*
X104596115Y-47422419D01*
X104596115Y-47422419D02*
X104596115Y-46422419D01*
X105072306Y-47422419D02*
X105072306Y-46422419D01*
X105072306Y-46422419D02*
X105310401Y-46422419D01*
X105310401Y-46422419D02*
X105453258Y-46470038D01*
X105453258Y-46470038D02*
X105548496Y-46565276D01*
X105548496Y-46565276D02*
X105596115Y-46660514D01*
X105596115Y-46660514D02*
X105643734Y-46850990D01*
X105643734Y-46850990D02*
X105643734Y-46993847D01*
X105643734Y-46993847D02*
X105596115Y-47184323D01*
X105596115Y-47184323D02*
X105548496Y-47279561D01*
X105548496Y-47279561D02*
X105453258Y-47374800D01*
X105453258Y-47374800D02*
X105310401Y-47422419D01*
X105310401Y-47422419D02*
X105072306Y-47422419D01*
X102998496Y-59170038D02*
X102903258Y-59122419D01*
X102903258Y-59122419D02*
X102760401Y-59122419D01*
X102760401Y-59122419D02*
X102617544Y-59170038D01*
X102617544Y-59170038D02*
X102522306Y-59265276D01*
X102522306Y-59265276D02*
X102474687Y-59360514D01*
X102474687Y-59360514D02*
X102427068Y-59550990D01*
X102427068Y-59550990D02*
X102427068Y-59693847D01*
X102427068Y-59693847D02*
X102474687Y-59884323D01*
X102474687Y-59884323D02*
X102522306Y-59979561D01*
X102522306Y-59979561D02*
X102617544Y-60074800D01*
X102617544Y-60074800D02*
X102760401Y-60122419D01*
X102760401Y-60122419D02*
X102855639Y-60122419D01*
X102855639Y-60122419D02*
X102998496Y-60074800D01*
X102998496Y-60074800D02*
X103046115Y-60027180D01*
X103046115Y-60027180D02*
X103046115Y-59693847D01*
X103046115Y-59693847D02*
X102855639Y-59693847D01*
X103236592Y-60217657D02*
X103998496Y-60217657D01*
X104236592Y-60122419D02*
X104236592Y-59122419D01*
X104712782Y-60122419D02*
X104712782Y-59122419D01*
X104712782Y-59122419D02*
X105284210Y-60122419D01*
X105284210Y-60122419D02*
X105284210Y-59122419D01*
X105617544Y-59122419D02*
X106188972Y-59122419D01*
X105903258Y-60122419D02*
X105903258Y-59122419D01*
X101567544Y-57186704D02*
X102043734Y-57186704D01*
X101472306Y-57472419D02*
X101805639Y-56472419D01*
X101805639Y-56472419D02*
X102138972Y-57472419D01*
X102234211Y-57567657D02*
X102996115Y-57567657D01*
X103234211Y-57472419D02*
X103234211Y-56472419D01*
X103710401Y-57472419D02*
X103710401Y-56472419D01*
X103710401Y-56472419D02*
X104281829Y-57472419D01*
X104281829Y-57472419D02*
X104281829Y-56472419D01*
X104615163Y-56472419D02*
X105186591Y-56472419D01*
X104900877Y-57472419D02*
X104900877Y-56472419D01*
X106043734Y-57472419D02*
X105472306Y-57472419D01*
X105758020Y-57472419D02*
X105758020Y-56472419D01*
X105758020Y-56472419D02*
X105662782Y-56615276D01*
X105662782Y-56615276D02*
X105567544Y-56710514D01*
X105567544Y-56710514D02*
X105472306Y-56758133D01*
X103265163Y-52324800D02*
X103408020Y-52372419D01*
X103408020Y-52372419D02*
X103646115Y-52372419D01*
X103646115Y-52372419D02*
X103741353Y-52324800D01*
X103741353Y-52324800D02*
X103788972Y-52277180D01*
X103788972Y-52277180D02*
X103836591Y-52181942D01*
X103836591Y-52181942D02*
X103836591Y-52086704D01*
X103836591Y-52086704D02*
X103788972Y-51991466D01*
X103788972Y-51991466D02*
X103741353Y-51943847D01*
X103741353Y-51943847D02*
X103646115Y-51896228D01*
X103646115Y-51896228D02*
X103455639Y-51848609D01*
X103455639Y-51848609D02*
X103360401Y-51800990D01*
X103360401Y-51800990D02*
X103312782Y-51753371D01*
X103312782Y-51753371D02*
X103265163Y-51658133D01*
X103265163Y-51658133D02*
X103265163Y-51562895D01*
X103265163Y-51562895D02*
X103312782Y-51467657D01*
X103312782Y-51467657D02*
X103360401Y-51420038D01*
X103360401Y-51420038D02*
X103455639Y-51372419D01*
X103455639Y-51372419D02*
X103693734Y-51372419D01*
X103693734Y-51372419D02*
X103836591Y-51420038D01*
X104265163Y-52372419D02*
X104265163Y-51372419D01*
X104265163Y-51372419D02*
X104503258Y-51372419D01*
X104503258Y-51372419D02*
X104646115Y-51420038D01*
X104646115Y-51420038D02*
X104741353Y-51515276D01*
X104741353Y-51515276D02*
X104788972Y-51610514D01*
X104788972Y-51610514D02*
X104836591Y-51800990D01*
X104836591Y-51800990D02*
X104836591Y-51943847D01*
X104836591Y-51943847D02*
X104788972Y-52134323D01*
X104788972Y-52134323D02*
X104741353Y-52229561D01*
X104741353Y-52229561D02*
X104646115Y-52324800D01*
X104646115Y-52324800D02*
X104503258Y-52372419D01*
X104503258Y-52372419D02*
X104265163Y-52372419D01*
X105217544Y-52086704D02*
X105693734Y-52086704D01*
X105122306Y-52372419D02*
X105455639Y-51372419D01*
X105455639Y-51372419D02*
X105788972Y-52372419D01*
X103162782Y-49674800D02*
X103305639Y-49722419D01*
X103305639Y-49722419D02*
X103543734Y-49722419D01*
X103543734Y-49722419D02*
X103638972Y-49674800D01*
X103638972Y-49674800D02*
X103686591Y-49627180D01*
X103686591Y-49627180D02*
X103734210Y-49531942D01*
X103734210Y-49531942D02*
X103734210Y-49436704D01*
X103734210Y-49436704D02*
X103686591Y-49341466D01*
X103686591Y-49341466D02*
X103638972Y-49293847D01*
X103638972Y-49293847D02*
X103543734Y-49246228D01*
X103543734Y-49246228D02*
X103353258Y-49198609D01*
X103353258Y-49198609D02*
X103258020Y-49150990D01*
X103258020Y-49150990D02*
X103210401Y-49103371D01*
X103210401Y-49103371D02*
X103162782Y-49008133D01*
X103162782Y-49008133D02*
X103162782Y-48912895D01*
X103162782Y-48912895D02*
X103210401Y-48817657D01*
X103210401Y-48817657D02*
X103258020Y-48770038D01*
X103258020Y-48770038D02*
X103353258Y-48722419D01*
X103353258Y-48722419D02*
X103591353Y-48722419D01*
X103591353Y-48722419D02*
X103734210Y-48770038D01*
X104734210Y-49627180D02*
X104686591Y-49674800D01*
X104686591Y-49674800D02*
X104543734Y-49722419D01*
X104543734Y-49722419D02*
X104448496Y-49722419D01*
X104448496Y-49722419D02*
X104305639Y-49674800D01*
X104305639Y-49674800D02*
X104210401Y-49579561D01*
X104210401Y-49579561D02*
X104162782Y-49484323D01*
X104162782Y-49484323D02*
X104115163Y-49293847D01*
X104115163Y-49293847D02*
X104115163Y-49150990D01*
X104115163Y-49150990D02*
X104162782Y-48960514D01*
X104162782Y-48960514D02*
X104210401Y-48865276D01*
X104210401Y-48865276D02*
X104305639Y-48770038D01*
X104305639Y-48770038D02*
X104448496Y-48722419D01*
X104448496Y-48722419D02*
X104543734Y-48722419D01*
X104543734Y-48722419D02*
X104686591Y-48770038D01*
X104686591Y-48770038D02*
X104734210Y-48817657D01*
X105638972Y-49722419D02*
X105162782Y-49722419D01*
X105162782Y-49722419D02*
X105162782Y-48722419D01*
X102538973Y-43822419D02*
X103158020Y-43822419D01*
X103158020Y-43822419D02*
X102824687Y-44203371D01*
X102824687Y-44203371D02*
X102967544Y-44203371D01*
X102967544Y-44203371D02*
X103062782Y-44250990D01*
X103062782Y-44250990D02*
X103110401Y-44298609D01*
X103110401Y-44298609D02*
X103158020Y-44393847D01*
X103158020Y-44393847D02*
X103158020Y-44631942D01*
X103158020Y-44631942D02*
X103110401Y-44727180D01*
X103110401Y-44727180D02*
X103062782Y-44774800D01*
X103062782Y-44774800D02*
X102967544Y-44822419D01*
X102967544Y-44822419D02*
X102681830Y-44822419D01*
X102681830Y-44822419D02*
X102586592Y-44774800D01*
X102586592Y-44774800D02*
X102538973Y-44727180D01*
X103586592Y-44727180D02*
X103634211Y-44774800D01*
X103634211Y-44774800D02*
X103586592Y-44822419D01*
X103586592Y-44822419D02*
X103538973Y-44774800D01*
X103538973Y-44774800D02*
X103586592Y-44727180D01*
X103586592Y-44727180D02*
X103586592Y-44822419D01*
X103967544Y-43822419D02*
X104586591Y-43822419D01*
X104586591Y-43822419D02*
X104253258Y-44203371D01*
X104253258Y-44203371D02*
X104396115Y-44203371D01*
X104396115Y-44203371D02*
X104491353Y-44250990D01*
X104491353Y-44250990D02*
X104538972Y-44298609D01*
X104538972Y-44298609D02*
X104586591Y-44393847D01*
X104586591Y-44393847D02*
X104586591Y-44631942D01*
X104586591Y-44631942D02*
X104538972Y-44727180D01*
X104538972Y-44727180D02*
X104491353Y-44774800D01*
X104491353Y-44774800D02*
X104396115Y-44822419D01*
X104396115Y-44822419D02*
X104110401Y-44822419D01*
X104110401Y-44822419D02*
X104015163Y-44774800D01*
X104015163Y-44774800D02*
X103967544Y-44727180D01*
X104872306Y-43822419D02*
X105205639Y-44822419D01*
X105205639Y-44822419D02*
X105538972Y-43822419D01*
X100786592Y-41072419D02*
X101119925Y-42072419D01*
X101119925Y-42072419D02*
X101453258Y-41072419D01*
X102358020Y-41977180D02*
X102310401Y-42024800D01*
X102310401Y-42024800D02*
X102167544Y-42072419D01*
X102167544Y-42072419D02*
X102072306Y-42072419D01*
X102072306Y-42072419D02*
X101929449Y-42024800D01*
X101929449Y-42024800D02*
X101834211Y-41929561D01*
X101834211Y-41929561D02*
X101786592Y-41834323D01*
X101786592Y-41834323D02*
X101738973Y-41643847D01*
X101738973Y-41643847D02*
X101738973Y-41500990D01*
X101738973Y-41500990D02*
X101786592Y-41310514D01*
X101786592Y-41310514D02*
X101834211Y-41215276D01*
X101834211Y-41215276D02*
X101929449Y-41120038D01*
X101929449Y-41120038D02*
X102072306Y-41072419D01*
X102072306Y-41072419D02*
X102167544Y-41072419D01*
X102167544Y-41072419D02*
X102310401Y-41120038D01*
X102310401Y-41120038D02*
X102358020Y-41167657D01*
X103358020Y-41977180D02*
X103310401Y-42024800D01*
X103310401Y-42024800D02*
X103167544Y-42072419D01*
X103167544Y-42072419D02*
X103072306Y-42072419D01*
X103072306Y-42072419D02*
X102929449Y-42024800D01*
X102929449Y-42024800D02*
X102834211Y-41929561D01*
X102834211Y-41929561D02*
X102786592Y-41834323D01*
X102786592Y-41834323D02*
X102738973Y-41643847D01*
X102738973Y-41643847D02*
X102738973Y-41500990D01*
X102738973Y-41500990D02*
X102786592Y-41310514D01*
X102786592Y-41310514D02*
X102834211Y-41215276D01*
X102834211Y-41215276D02*
X102929449Y-41120038D01*
X102929449Y-41120038D02*
X103072306Y-41072419D01*
X103072306Y-41072419D02*
X103167544Y-41072419D01*
X103167544Y-41072419D02*
X103310401Y-41120038D01*
X103310401Y-41120038D02*
X103358020Y-41167657D01*
X103548497Y-42167657D02*
X104310401Y-42167657D01*
X104548497Y-42072419D02*
X104548497Y-41072419D01*
X105024687Y-42072419D02*
X105024687Y-41072419D01*
X105024687Y-41072419D02*
X105596115Y-42072419D01*
X105596115Y-42072419D02*
X105596115Y-41072419D01*
X100660401Y-54872419D02*
X100660401Y-53872419D01*
X100660401Y-53872419D02*
X100993734Y-54586704D01*
X100993734Y-54586704D02*
X101327067Y-53872419D01*
X101327067Y-53872419D02*
X101327067Y-54872419D01*
X101565163Y-54967657D02*
X102327067Y-54967657D01*
X102565163Y-54872419D02*
X102565163Y-53872419D01*
X102565163Y-53872419D02*
X102803258Y-53872419D01*
X102803258Y-53872419D02*
X102946115Y-53920038D01*
X102946115Y-53920038D02*
X103041353Y-54015276D01*
X103041353Y-54015276D02*
X103088972Y-54110514D01*
X103088972Y-54110514D02*
X103136591Y-54300990D01*
X103136591Y-54300990D02*
X103136591Y-54443847D01*
X103136591Y-54443847D02*
X103088972Y-54634323D01*
X103088972Y-54634323D02*
X103041353Y-54729561D01*
X103041353Y-54729561D02*
X102946115Y-54824800D01*
X102946115Y-54824800D02*
X102803258Y-54872419D01*
X102803258Y-54872419D02*
X102565163Y-54872419D01*
X104136591Y-54872419D02*
X103803258Y-54396228D01*
X103565163Y-54872419D02*
X103565163Y-53872419D01*
X103565163Y-53872419D02*
X103946115Y-53872419D01*
X103946115Y-53872419D02*
X104041353Y-53920038D01*
X104041353Y-53920038D02*
X104088972Y-53967657D01*
X104088972Y-53967657D02*
X104136591Y-54062895D01*
X104136591Y-54062895D02*
X104136591Y-54205752D01*
X104136591Y-54205752D02*
X104088972Y-54300990D01*
X104088972Y-54300990D02*
X104041353Y-54348609D01*
X104041353Y-54348609D02*
X103946115Y-54396228D01*
X103946115Y-54396228D02*
X103565163Y-54396228D01*
X104565163Y-54872419D02*
X104565163Y-53872419D01*
X104565163Y-53872419D02*
X104803258Y-53872419D01*
X104803258Y-53872419D02*
X104946115Y-53920038D01*
X104946115Y-53920038D02*
X105041353Y-54015276D01*
X105041353Y-54015276D02*
X105088972Y-54110514D01*
X105088972Y-54110514D02*
X105136591Y-54300990D01*
X105136591Y-54300990D02*
X105136591Y-54443847D01*
X105136591Y-54443847D02*
X105088972Y-54634323D01*
X105088972Y-54634323D02*
X105041353Y-54729561D01*
X105041353Y-54729561D02*
X104946115Y-54824800D01*
X104946115Y-54824800D02*
X104803258Y-54872419D01*
X104803258Y-54872419D02*
X104565163Y-54872419D01*
X105755639Y-54396228D02*
X105755639Y-54872419D01*
X105422306Y-53872419D02*
X105755639Y-54396228D01*
X105755639Y-54396228D02*
X106088972Y-53872419D01*
X99283333Y-83057419D02*
X98950000Y-82581228D01*
X98711905Y-83057419D02*
X98711905Y-82057419D01*
X98711905Y-82057419D02*
X99092857Y-82057419D01*
X99092857Y-82057419D02*
X99188095Y-82105038D01*
X99188095Y-82105038D02*
X99235714Y-82152657D01*
X99235714Y-82152657D02*
X99283333Y-82247895D01*
X99283333Y-82247895D02*
X99283333Y-82390752D01*
X99283333Y-82390752D02*
X99235714Y-82485990D01*
X99235714Y-82485990D02*
X99188095Y-82533609D01*
X99188095Y-82533609D02*
X99092857Y-82581228D01*
X99092857Y-82581228D02*
X98711905Y-82581228D01*
X100235714Y-83057419D02*
X99664286Y-83057419D01*
X99950000Y-83057419D02*
X99950000Y-82057419D01*
X99950000Y-82057419D02*
X99854762Y-82200276D01*
X99854762Y-82200276D02*
X99759524Y-82295514D01*
X99759524Y-82295514D02*
X99664286Y-82343133D01*
X206533333Y-87657419D02*
X206200000Y-87181228D01*
X205961905Y-87657419D02*
X205961905Y-86657419D01*
X205961905Y-86657419D02*
X206342857Y-86657419D01*
X206342857Y-86657419D02*
X206438095Y-86705038D01*
X206438095Y-86705038D02*
X206485714Y-86752657D01*
X206485714Y-86752657D02*
X206533333Y-86847895D01*
X206533333Y-86847895D02*
X206533333Y-86990752D01*
X206533333Y-86990752D02*
X206485714Y-87085990D01*
X206485714Y-87085990D02*
X206438095Y-87133609D01*
X206438095Y-87133609D02*
X206342857Y-87181228D01*
X206342857Y-87181228D02*
X205961905Y-87181228D01*
X207390476Y-86990752D02*
X207390476Y-87657419D01*
X207152381Y-86609800D02*
X206914286Y-87324085D01*
X206914286Y-87324085D02*
X207533333Y-87324085D01*
X115957419Y-106388094D02*
X114957419Y-106388094D01*
X114957419Y-106388094D02*
X114957419Y-106149999D01*
X114957419Y-106149999D02*
X115005038Y-106007142D01*
X115005038Y-106007142D02*
X115100276Y-105911904D01*
X115100276Y-105911904D02*
X115195514Y-105864285D01*
X115195514Y-105864285D02*
X115385990Y-105816666D01*
X115385990Y-105816666D02*
X115528847Y-105816666D01*
X115528847Y-105816666D02*
X115719323Y-105864285D01*
X115719323Y-105864285D02*
X115814561Y-105911904D01*
X115814561Y-105911904D02*
X115909800Y-106007142D01*
X115909800Y-106007142D02*
X115957419Y-106149999D01*
X115957419Y-106149999D02*
X115957419Y-106388094D01*
X114957419Y-105483332D02*
X114957419Y-104864285D01*
X114957419Y-104864285D02*
X115338371Y-105197618D01*
X115338371Y-105197618D02*
X115338371Y-105054761D01*
X115338371Y-105054761D02*
X115385990Y-104959523D01*
X115385990Y-104959523D02*
X115433609Y-104911904D01*
X115433609Y-104911904D02*
X115528847Y-104864285D01*
X115528847Y-104864285D02*
X115766942Y-104864285D01*
X115766942Y-104864285D02*
X115862180Y-104911904D01*
X115862180Y-104911904D02*
X115909800Y-104959523D01*
X115909800Y-104959523D02*
X115957419Y-105054761D01*
X115957419Y-105054761D02*
X115957419Y-105340475D01*
X115957419Y-105340475D02*
X115909800Y-105435713D01*
X115909800Y-105435713D02*
X115862180Y-105483332D01*
X111662419Y-107996115D02*
X110662419Y-107996115D01*
X111662419Y-107424687D02*
X111090990Y-107853258D01*
X110662419Y-107424687D02*
X111233847Y-107996115D01*
X111376704Y-103923734D02*
X111376704Y-103447544D01*
X111662419Y-104018972D02*
X110662419Y-103685639D01*
X110662419Y-103685639D02*
X111662419Y-103352306D01*
X115607419Y-75988094D02*
X114607419Y-75988094D01*
X114607419Y-75988094D02*
X114607419Y-75749999D01*
X114607419Y-75749999D02*
X114655038Y-75607142D01*
X114655038Y-75607142D02*
X114750276Y-75511904D01*
X114750276Y-75511904D02*
X114845514Y-75464285D01*
X114845514Y-75464285D02*
X115035990Y-75416666D01*
X115035990Y-75416666D02*
X115178847Y-75416666D01*
X115178847Y-75416666D02*
X115369323Y-75464285D01*
X115369323Y-75464285D02*
X115464561Y-75511904D01*
X115464561Y-75511904D02*
X115559800Y-75607142D01*
X115559800Y-75607142D02*
X115607419Y-75749999D01*
X115607419Y-75749999D02*
X115607419Y-75988094D01*
X115607419Y-74464285D02*
X115607419Y-75035713D01*
X115607419Y-74749999D02*
X114607419Y-74749999D01*
X114607419Y-74749999D02*
X114750276Y-74845237D01*
X114750276Y-74845237D02*
X114845514Y-74940475D01*
X114845514Y-74940475D02*
X114893133Y-75035713D01*
X111512419Y-77446115D02*
X110512419Y-77446115D01*
X111512419Y-76874687D02*
X110940990Y-77303258D01*
X110512419Y-76874687D02*
X111083847Y-77446115D01*
X111226704Y-73373734D02*
X111226704Y-72897544D01*
X111512419Y-73468972D02*
X110512419Y-73135639D01*
X110512419Y-73135639D02*
X111512419Y-72802306D01*
%TO.C,R2*%
X106100000Y-96290000D02*
X93400000Y-96290000D01*
X93400000Y-91210000D01*
X106100000Y-91210000D01*
X106100000Y-96290000D01*
%TO.C,RCW-1*%
X197010000Y-50440000D02*
X189390000Y-50440000D01*
X189390000Y-61060000D01*
X197010000Y-61060000D01*
X197010000Y-50440000D01*
%TO.C,Button3*%
X195312958Y-76760000D02*
X189287043Y-76760000D01*
X189287043Y-84840000D01*
X195312958Y-84840000D01*
X195312958Y-76760000D01*
%TO.C,D2*%
X108510000Y-96300000D02*
X113590000Y-96300000D01*
X113590000Y-83600000D01*
X108510000Y-83600000D01*
X108510000Y-96300000D01*
%TO.C,R5*%
X200050000Y-91610000D02*
X212750000Y-91610000D01*
X212750000Y-96690000D01*
X200050000Y-96690000D01*
X200050000Y-91610000D01*
%TO.C,Button1*%
X195162958Y-87510000D02*
X189137043Y-87510000D01*
X189137043Y-95590000D01*
X195162958Y-95590000D01*
X195162958Y-87510000D01*
%TO.C,R3*%
X106000000Y-111790000D02*
X93300000Y-111790000D01*
X93300000Y-106710000D01*
X106000000Y-106710000D01*
X106000000Y-111790000D01*
%TO.C,RCW-3*%
X197060000Y-63240000D02*
X189440000Y-63240000D01*
X189440000Y-73860000D01*
X197060000Y-73860000D01*
X197060000Y-63240000D01*
%TO.C,GY_1*%
X122850000Y-42700000D02*
G75*
G02*
X119850000Y-42700000I-1500000J0D01*
G01*
X119850000Y-42700000D02*
G75*
G02*
X122850000Y-42700000I1500000J0D01*
G01*
X106850000Y-40200000D02*
X123850000Y-40200000D01*
X123850000Y-61200000D01*
X106850000Y-61200000D01*
X106850000Y-40200000D01*
%TO.C,R1*%
X105950000Y-81240000D02*
X93250000Y-81240000D01*
X93250000Y-76160000D01*
X105950000Y-76160000D01*
X105950000Y-81240000D01*
%TO.C,R4*%
X212700000Y-85890000D02*
X200000000Y-85890000D01*
X200000000Y-80810000D01*
X212700000Y-80810000D01*
X212700000Y-85890000D01*
%TO.C,D3*%
X108510000Y-111800000D02*
X113590000Y-111800000D01*
X113590000Y-99100000D01*
X108510000Y-99100000D01*
X108510000Y-111800000D01*
%TO.C,D1*%
X108360000Y-81250000D02*
X113440000Y-81250000D01*
X113440000Y-68550000D01*
X108360000Y-68550000D01*
X108360000Y-81250000D01*
D14*
%TO.C,A1*%
X125030000Y-46710000D02*
X125030000Y-113010000D01*
X125030000Y-113010000D02*
X128210000Y-113010000D01*
X127700000Y-46710000D02*
X125030000Y-46710000D01*
X128210000Y-113010000D02*
X128210000Y-114910000D01*
X128210000Y-114910000D02*
X137350000Y-114910000D01*
X130240000Y-44170000D02*
X127700000Y-46710000D01*
X137350000Y-113010000D02*
X157420000Y-113010000D01*
X137350000Y-114910000D02*
X137350000Y-113010000D01*
X157420000Y-113010000D02*
X157420000Y-119360000D01*
X157420000Y-119360000D02*
X169100000Y-119360000D01*
X163010000Y-44170000D02*
X130240000Y-44170000D01*
X165550000Y-46710000D02*
X163010000Y-44170000D01*
X169100000Y-113010000D02*
X178630000Y-113010000D01*
X169100000Y-119360000D02*
X169100000Y-113010000D01*
X176980000Y-46710000D02*
X165550000Y-46710000D01*
X178630000Y-48360000D02*
X176980000Y-46710000D01*
X178630000Y-113010000D02*
X178630000Y-48360000D01*
%TD*%
M02*
