%TF.GenerationSoftware,KiCad,Pcbnew,8.0.1*%
%TF.CreationDate,2026-04-15T14:43:22+08:00*%
%TF.ProjectId,Measurement_Device_PCB,4d656173-7572-4656-9d65-6e745f446576,rev?*%
%TF.SameCoordinates,Original*%
%TF.FileFunction,Copper,L2,Bot*%
%TF.FilePolarity,Positive*%
%FSLAX46Y46*%
G04 Gerber Fmt 4.6, Leading zero omitted, Abs format (unit mm)*
G04 Created by KiCad (PCBNEW 8.0.1) date 2026-04-15 14:43:22*
%MOMM*%
%LPD*%
G01*
G04 APERTURE LIST*
%ADD10C,0.100000*%
%ADD11C,0.150000*%
%ADD12C,0.300000*%
%ADD13C,0.400000*%
%TA.AperFunction,ComponentPad*%
%ADD14C,1.524000*%
%TD*%
%TA.AperFunction,ComponentPad*%
%ADD15R,1.600000X1.600000*%
%TD*%
%TA.AperFunction,ComponentPad*%
%ADD16O,1.600000X1.600000*%
%TD*%
%TA.AperFunction,Conductor*%
%ADD17C,1.000000*%
%TD*%
G04 APERTURE END LIST*
D10*
D11*
X177002200Y-166007200D02*
X285002200Y-166007200D01*
X285002200Y-198007200D01*
X177002200Y-198007200D01*
X177002200Y-166007200D01*
D10*
D11*
X10000000Y-10000000D02*
X287002200Y-10000000D01*
X287002200Y-200007200D01*
X10000000Y-200007200D01*
X10000000Y-10000000D01*
D10*
D11*
X12000000Y-12000000D02*
X285002200Y-12000000D01*
X285002200Y-198007200D01*
X12000000Y-198007200D01*
X12000000Y-12000000D01*
D10*
D11*
X60000000Y-12000000D02*
X60000000Y-10000000D01*
D10*
D11*
X110000000Y-12000000D02*
X110000000Y-10000000D01*
D10*
D11*
X160000000Y-12000000D02*
X160000000Y-10000000D01*
D10*
D11*
X210000000Y-12000000D02*
X210000000Y-10000000D01*
D10*
D11*
X260000000Y-12000000D02*
X260000000Y-10000000D01*
D10*
D11*
X36089160Y-11593604D02*
X35346303Y-11593604D01*
X35717731Y-11593604D02*
X35717731Y-10293604D01*
X35717731Y-10293604D02*
X35593922Y-10479319D01*
X35593922Y-10479319D02*
X35470112Y-10603128D01*
X35470112Y-10603128D02*
X35346303Y-10665033D01*
D10*
D11*
X85346303Y-10417414D02*
X85408207Y-10355509D01*
X85408207Y-10355509D02*
X85532017Y-10293604D01*
X85532017Y-10293604D02*
X85841541Y-10293604D01*
X85841541Y-10293604D02*
X85965350Y-10355509D01*
X85965350Y-10355509D02*
X86027255Y-10417414D01*
X86027255Y-10417414D02*
X86089160Y-10541223D01*
X86089160Y-10541223D02*
X86089160Y-10665033D01*
X86089160Y-10665033D02*
X86027255Y-10850747D01*
X86027255Y-10850747D02*
X85284398Y-11593604D01*
X85284398Y-11593604D02*
X86089160Y-11593604D01*
D10*
D11*
X135284398Y-10293604D02*
X136089160Y-10293604D01*
X136089160Y-10293604D02*
X135655826Y-10788842D01*
X135655826Y-10788842D02*
X135841541Y-10788842D01*
X135841541Y-10788842D02*
X135965350Y-10850747D01*
X135965350Y-10850747D02*
X136027255Y-10912652D01*
X136027255Y-10912652D02*
X136089160Y-11036461D01*
X136089160Y-11036461D02*
X136089160Y-11345985D01*
X136089160Y-11345985D02*
X136027255Y-11469795D01*
X136027255Y-11469795D02*
X135965350Y-11531700D01*
X135965350Y-11531700D02*
X135841541Y-11593604D01*
X135841541Y-11593604D02*
X135470112Y-11593604D01*
X135470112Y-11593604D02*
X135346303Y-11531700D01*
X135346303Y-11531700D02*
X135284398Y-11469795D01*
D10*
D11*
X185965350Y-10726938D02*
X185965350Y-11593604D01*
X185655826Y-10231700D02*
X185346303Y-11160271D01*
X185346303Y-11160271D02*
X186151064Y-11160271D01*
D10*
D11*
X236027255Y-10293604D02*
X235408207Y-10293604D01*
X235408207Y-10293604D02*
X235346303Y-10912652D01*
X235346303Y-10912652D02*
X235408207Y-10850747D01*
X235408207Y-10850747D02*
X235532017Y-10788842D01*
X235532017Y-10788842D02*
X235841541Y-10788842D01*
X235841541Y-10788842D02*
X235965350Y-10850747D01*
X235965350Y-10850747D02*
X236027255Y-10912652D01*
X236027255Y-10912652D02*
X236089160Y-11036461D01*
X236089160Y-11036461D02*
X236089160Y-11345985D01*
X236089160Y-11345985D02*
X236027255Y-11469795D01*
X236027255Y-11469795D02*
X235965350Y-11531700D01*
X235965350Y-11531700D02*
X235841541Y-11593604D01*
X235841541Y-11593604D02*
X235532017Y-11593604D01*
X235532017Y-11593604D02*
X235408207Y-11531700D01*
X235408207Y-11531700D02*
X235346303Y-11469795D01*
D10*
D11*
X285965350Y-10293604D02*
X285717731Y-10293604D01*
X285717731Y-10293604D02*
X285593922Y-10355509D01*
X285593922Y-10355509D02*
X285532017Y-10417414D01*
X285532017Y-10417414D02*
X285408207Y-10603128D01*
X285408207Y-10603128D02*
X285346303Y-10850747D01*
X285346303Y-10850747D02*
X285346303Y-11345985D01*
X285346303Y-11345985D02*
X285408207Y-11469795D01*
X285408207Y-11469795D02*
X285470112Y-11531700D01*
X285470112Y-11531700D02*
X285593922Y-11593604D01*
X285593922Y-11593604D02*
X285841541Y-11593604D01*
X285841541Y-11593604D02*
X285965350Y-11531700D01*
X285965350Y-11531700D02*
X286027255Y-11469795D01*
X286027255Y-11469795D02*
X286089160Y-11345985D01*
X286089160Y-11345985D02*
X286089160Y-11036461D01*
X286089160Y-11036461D02*
X286027255Y-10912652D01*
X286027255Y-10912652D02*
X285965350Y-10850747D01*
X285965350Y-10850747D02*
X285841541Y-10788842D01*
X285841541Y-10788842D02*
X285593922Y-10788842D01*
X285593922Y-10788842D02*
X285470112Y-10850747D01*
X285470112Y-10850747D02*
X285408207Y-10912652D01*
X285408207Y-10912652D02*
X285346303Y-11036461D01*
D10*
D11*
X60000000Y-198007200D02*
X60000000Y-200007200D01*
D10*
D11*
X110000000Y-198007200D02*
X110000000Y-200007200D01*
D10*
D11*
X160000000Y-198007200D02*
X160000000Y-200007200D01*
D10*
D11*
X210000000Y-198007200D02*
X210000000Y-200007200D01*
D10*
D11*
X260000000Y-198007200D02*
X260000000Y-200007200D01*
D10*
D11*
X36089160Y-199600804D02*
X35346303Y-199600804D01*
X35717731Y-199600804D02*
X35717731Y-198300804D01*
X35717731Y-198300804D02*
X35593922Y-198486519D01*
X35593922Y-198486519D02*
X35470112Y-198610328D01*
X35470112Y-198610328D02*
X35346303Y-198672233D01*
D10*
D11*
X85346303Y-198424614D02*
X85408207Y-198362709D01*
X85408207Y-198362709D02*
X85532017Y-198300804D01*
X85532017Y-198300804D02*
X85841541Y-198300804D01*
X85841541Y-198300804D02*
X85965350Y-198362709D01*
X85965350Y-198362709D02*
X86027255Y-198424614D01*
X86027255Y-198424614D02*
X86089160Y-198548423D01*
X86089160Y-198548423D02*
X86089160Y-198672233D01*
X86089160Y-198672233D02*
X86027255Y-198857947D01*
X86027255Y-198857947D02*
X85284398Y-199600804D01*
X85284398Y-199600804D02*
X86089160Y-199600804D01*
D10*
D11*
X135284398Y-198300804D02*
X136089160Y-198300804D01*
X136089160Y-198300804D02*
X135655826Y-198796042D01*
X135655826Y-198796042D02*
X135841541Y-198796042D01*
X135841541Y-198796042D02*
X135965350Y-198857947D01*
X135965350Y-198857947D02*
X136027255Y-198919852D01*
X136027255Y-198919852D02*
X136089160Y-199043661D01*
X136089160Y-199043661D02*
X136089160Y-199353185D01*
X136089160Y-199353185D02*
X136027255Y-199476995D01*
X136027255Y-199476995D02*
X135965350Y-199538900D01*
X135965350Y-199538900D02*
X135841541Y-199600804D01*
X135841541Y-199600804D02*
X135470112Y-199600804D01*
X135470112Y-199600804D02*
X135346303Y-199538900D01*
X135346303Y-199538900D02*
X135284398Y-199476995D01*
D10*
D11*
X185965350Y-198734138D02*
X185965350Y-199600804D01*
X185655826Y-198238900D02*
X185346303Y-199167471D01*
X185346303Y-199167471D02*
X186151064Y-199167471D01*
D10*
D11*
X236027255Y-198300804D02*
X235408207Y-198300804D01*
X235408207Y-198300804D02*
X235346303Y-198919852D01*
X235346303Y-198919852D02*
X235408207Y-198857947D01*
X235408207Y-198857947D02*
X235532017Y-198796042D01*
X235532017Y-198796042D02*
X235841541Y-198796042D01*
X235841541Y-198796042D02*
X235965350Y-198857947D01*
X235965350Y-198857947D02*
X236027255Y-198919852D01*
X236027255Y-198919852D02*
X236089160Y-199043661D01*
X236089160Y-199043661D02*
X236089160Y-199353185D01*
X236089160Y-199353185D02*
X236027255Y-199476995D01*
X236027255Y-199476995D02*
X235965350Y-199538900D01*
X235965350Y-199538900D02*
X235841541Y-199600804D01*
X235841541Y-199600804D02*
X235532017Y-199600804D01*
X235532017Y-199600804D02*
X235408207Y-199538900D01*
X235408207Y-199538900D02*
X235346303Y-199476995D01*
D10*
D11*
X285965350Y-198300804D02*
X285717731Y-198300804D01*
X285717731Y-198300804D02*
X285593922Y-198362709D01*
X285593922Y-198362709D02*
X285532017Y-198424614D01*
X285532017Y-198424614D02*
X285408207Y-198610328D01*
X285408207Y-198610328D02*
X285346303Y-198857947D01*
X285346303Y-198857947D02*
X285346303Y-199353185D01*
X285346303Y-199353185D02*
X285408207Y-199476995D01*
X285408207Y-199476995D02*
X285470112Y-199538900D01*
X285470112Y-199538900D02*
X285593922Y-199600804D01*
X285593922Y-199600804D02*
X285841541Y-199600804D01*
X285841541Y-199600804D02*
X285965350Y-199538900D01*
X285965350Y-199538900D02*
X286027255Y-199476995D01*
X286027255Y-199476995D02*
X286089160Y-199353185D01*
X286089160Y-199353185D02*
X286089160Y-199043661D01*
X286089160Y-199043661D02*
X286027255Y-198919852D01*
X286027255Y-198919852D02*
X285965350Y-198857947D01*
X285965350Y-198857947D02*
X285841541Y-198796042D01*
X285841541Y-198796042D02*
X285593922Y-198796042D01*
X285593922Y-198796042D02*
X285470112Y-198857947D01*
X285470112Y-198857947D02*
X285408207Y-198919852D01*
X285408207Y-198919852D02*
X285346303Y-199043661D01*
D10*
D11*
X10000000Y-60000000D02*
X12000000Y-60000000D01*
D10*
D11*
X10000000Y-110000000D02*
X12000000Y-110000000D01*
D10*
D11*
X10000000Y-160000000D02*
X12000000Y-160000000D01*
D10*
D11*
X10690476Y-35222176D02*
X11309523Y-35222176D01*
X10566666Y-35593604D02*
X10999999Y-34293604D01*
X10999999Y-34293604D02*
X11433333Y-35593604D01*
D10*
D11*
X11092857Y-84912652D02*
X11278571Y-84974557D01*
X11278571Y-84974557D02*
X11340476Y-85036461D01*
X11340476Y-85036461D02*
X11402380Y-85160271D01*
X11402380Y-85160271D02*
X11402380Y-85345985D01*
X11402380Y-85345985D02*
X11340476Y-85469795D01*
X11340476Y-85469795D02*
X11278571Y-85531700D01*
X11278571Y-85531700D02*
X11154761Y-85593604D01*
X11154761Y-85593604D02*
X10659523Y-85593604D01*
X10659523Y-85593604D02*
X10659523Y-84293604D01*
X10659523Y-84293604D02*
X11092857Y-84293604D01*
X11092857Y-84293604D02*
X11216666Y-84355509D01*
X11216666Y-84355509D02*
X11278571Y-84417414D01*
X11278571Y-84417414D02*
X11340476Y-84541223D01*
X11340476Y-84541223D02*
X11340476Y-84665033D01*
X11340476Y-84665033D02*
X11278571Y-84788842D01*
X11278571Y-84788842D02*
X11216666Y-84850747D01*
X11216666Y-84850747D02*
X11092857Y-84912652D01*
X11092857Y-84912652D02*
X10659523Y-84912652D01*
D10*
D11*
X11402380Y-135469795D02*
X11340476Y-135531700D01*
X11340476Y-135531700D02*
X11154761Y-135593604D01*
X11154761Y-135593604D02*
X11030952Y-135593604D01*
X11030952Y-135593604D02*
X10845238Y-135531700D01*
X10845238Y-135531700D02*
X10721428Y-135407890D01*
X10721428Y-135407890D02*
X10659523Y-135284080D01*
X10659523Y-135284080D02*
X10597619Y-135036461D01*
X10597619Y-135036461D02*
X10597619Y-134850747D01*
X10597619Y-134850747D02*
X10659523Y-134603128D01*
X10659523Y-134603128D02*
X10721428Y-134479319D01*
X10721428Y-134479319D02*
X10845238Y-134355509D01*
X10845238Y-134355509D02*
X11030952Y-134293604D01*
X11030952Y-134293604D02*
X11154761Y-134293604D01*
X11154761Y-134293604D02*
X11340476Y-134355509D01*
X11340476Y-134355509D02*
X11402380Y-134417414D01*
D10*
D11*
X10659523Y-185593604D02*
X10659523Y-184293604D01*
X10659523Y-184293604D02*
X10969047Y-184293604D01*
X10969047Y-184293604D02*
X11154761Y-184355509D01*
X11154761Y-184355509D02*
X11278571Y-184479319D01*
X11278571Y-184479319D02*
X11340476Y-184603128D01*
X11340476Y-184603128D02*
X11402380Y-184850747D01*
X11402380Y-184850747D02*
X11402380Y-185036461D01*
X11402380Y-185036461D02*
X11340476Y-185284080D01*
X11340476Y-185284080D02*
X11278571Y-185407890D01*
X11278571Y-185407890D02*
X11154761Y-185531700D01*
X11154761Y-185531700D02*
X10969047Y-185593604D01*
X10969047Y-185593604D02*
X10659523Y-185593604D01*
D10*
D11*
X287002200Y-60000000D02*
X285002200Y-60000000D01*
D10*
D11*
X287002200Y-110000000D02*
X285002200Y-110000000D01*
D10*
D11*
X287002200Y-160000000D02*
X285002200Y-160000000D01*
D10*
D11*
X285692676Y-35222176D02*
X286311723Y-35222176D01*
X285568866Y-35593604D02*
X286002199Y-34293604D01*
X286002199Y-34293604D02*
X286435533Y-35593604D01*
D10*
D11*
X286095057Y-84912652D02*
X286280771Y-84974557D01*
X286280771Y-84974557D02*
X286342676Y-85036461D01*
X286342676Y-85036461D02*
X286404580Y-85160271D01*
X286404580Y-85160271D02*
X286404580Y-85345985D01*
X286404580Y-85345985D02*
X286342676Y-85469795D01*
X286342676Y-85469795D02*
X286280771Y-85531700D01*
X286280771Y-85531700D02*
X286156961Y-85593604D01*
X286156961Y-85593604D02*
X285661723Y-85593604D01*
X285661723Y-85593604D02*
X285661723Y-84293604D01*
X285661723Y-84293604D02*
X286095057Y-84293604D01*
X286095057Y-84293604D02*
X286218866Y-84355509D01*
X286218866Y-84355509D02*
X286280771Y-84417414D01*
X286280771Y-84417414D02*
X286342676Y-84541223D01*
X286342676Y-84541223D02*
X286342676Y-84665033D01*
X286342676Y-84665033D02*
X286280771Y-84788842D01*
X286280771Y-84788842D02*
X286218866Y-84850747D01*
X286218866Y-84850747D02*
X286095057Y-84912652D01*
X286095057Y-84912652D02*
X285661723Y-84912652D01*
D10*
D11*
X286404580Y-135469795D02*
X286342676Y-135531700D01*
X286342676Y-135531700D02*
X286156961Y-135593604D01*
X286156961Y-135593604D02*
X286033152Y-135593604D01*
X286033152Y-135593604D02*
X285847438Y-135531700D01*
X285847438Y-135531700D02*
X285723628Y-135407890D01*
X285723628Y-135407890D02*
X285661723Y-135284080D01*
X285661723Y-135284080D02*
X285599819Y-135036461D01*
X285599819Y-135036461D02*
X285599819Y-134850747D01*
X285599819Y-134850747D02*
X285661723Y-134603128D01*
X285661723Y-134603128D02*
X285723628Y-134479319D01*
X285723628Y-134479319D02*
X285847438Y-134355509D01*
X285847438Y-134355509D02*
X286033152Y-134293604D01*
X286033152Y-134293604D02*
X286156961Y-134293604D01*
X286156961Y-134293604D02*
X286342676Y-134355509D01*
X286342676Y-134355509D02*
X286404580Y-134417414D01*
D10*
D11*
X285661723Y-185593604D02*
X285661723Y-184293604D01*
X285661723Y-184293604D02*
X285971247Y-184293604D01*
X285971247Y-184293604D02*
X286156961Y-184355509D01*
X286156961Y-184355509D02*
X286280771Y-184479319D01*
X286280771Y-184479319D02*
X286342676Y-184603128D01*
X286342676Y-184603128D02*
X286404580Y-184850747D01*
X286404580Y-184850747D02*
X286404580Y-185036461D01*
X286404580Y-185036461D02*
X286342676Y-185284080D01*
X286342676Y-185284080D02*
X286280771Y-185407890D01*
X286280771Y-185407890D02*
X286156961Y-185531700D01*
X286156961Y-185531700D02*
X285971247Y-185593604D01*
X285971247Y-185593604D02*
X285661723Y-185593604D01*
D10*
D11*
X200458026Y-193793328D02*
X200458026Y-192293328D01*
X200458026Y-192293328D02*
X200815169Y-192293328D01*
X200815169Y-192293328D02*
X201029455Y-192364757D01*
X201029455Y-192364757D02*
X201172312Y-192507614D01*
X201172312Y-192507614D02*
X201243741Y-192650471D01*
X201243741Y-192650471D02*
X201315169Y-192936185D01*
X201315169Y-192936185D02*
X201315169Y-193150471D01*
X201315169Y-193150471D02*
X201243741Y-193436185D01*
X201243741Y-193436185D02*
X201172312Y-193579042D01*
X201172312Y-193579042D02*
X201029455Y-193721900D01*
X201029455Y-193721900D02*
X200815169Y-193793328D01*
X200815169Y-193793328D02*
X200458026Y-193793328D01*
X202600884Y-193793328D02*
X202600884Y-193007614D01*
X202600884Y-193007614D02*
X202529455Y-192864757D01*
X202529455Y-192864757D02*
X202386598Y-192793328D01*
X202386598Y-192793328D02*
X202100884Y-192793328D01*
X202100884Y-192793328D02*
X201958026Y-192864757D01*
X202600884Y-193721900D02*
X202458026Y-193793328D01*
X202458026Y-193793328D02*
X202100884Y-193793328D01*
X202100884Y-193793328D02*
X201958026Y-193721900D01*
X201958026Y-193721900D02*
X201886598Y-193579042D01*
X201886598Y-193579042D02*
X201886598Y-193436185D01*
X201886598Y-193436185D02*
X201958026Y-193293328D01*
X201958026Y-193293328D02*
X202100884Y-193221900D01*
X202100884Y-193221900D02*
X202458026Y-193221900D01*
X202458026Y-193221900D02*
X202600884Y-193150471D01*
X203100884Y-192793328D02*
X203672312Y-192793328D01*
X203315169Y-192293328D02*
X203315169Y-193579042D01*
X203315169Y-193579042D02*
X203386598Y-193721900D01*
X203386598Y-193721900D02*
X203529455Y-193793328D01*
X203529455Y-193793328D02*
X203672312Y-193793328D01*
X204743741Y-193721900D02*
X204600884Y-193793328D01*
X204600884Y-193793328D02*
X204315170Y-193793328D01*
X204315170Y-193793328D02*
X204172312Y-193721900D01*
X204172312Y-193721900D02*
X204100884Y-193579042D01*
X204100884Y-193579042D02*
X204100884Y-193007614D01*
X204100884Y-193007614D02*
X204172312Y-192864757D01*
X204172312Y-192864757D02*
X204315170Y-192793328D01*
X204315170Y-192793328D02*
X204600884Y-192793328D01*
X204600884Y-192793328D02*
X204743741Y-192864757D01*
X204743741Y-192864757D02*
X204815170Y-193007614D01*
X204815170Y-193007614D02*
X204815170Y-193150471D01*
X204815170Y-193150471D02*
X204100884Y-193293328D01*
X205458026Y-193650471D02*
X205529455Y-193721900D01*
X205529455Y-193721900D02*
X205458026Y-193793328D01*
X205458026Y-193793328D02*
X205386598Y-193721900D01*
X205386598Y-193721900D02*
X205458026Y-193650471D01*
X205458026Y-193650471D02*
X205458026Y-193793328D01*
X205458026Y-192864757D02*
X205529455Y-192936185D01*
X205529455Y-192936185D02*
X205458026Y-193007614D01*
X205458026Y-193007614D02*
X205386598Y-192936185D01*
X205386598Y-192936185D02*
X205458026Y-192864757D01*
X205458026Y-192864757D02*
X205458026Y-193007614D01*
D10*
D11*
X177002200Y-194507200D02*
X285002200Y-194507200D01*
D10*
D11*
X178458026Y-196593328D02*
X178458026Y-195093328D01*
X179315169Y-196593328D02*
X178672312Y-195736185D01*
X179315169Y-195093328D02*
X178458026Y-195950471D01*
X179958026Y-196593328D02*
X179958026Y-195593328D01*
X179958026Y-195093328D02*
X179886598Y-195164757D01*
X179886598Y-195164757D02*
X179958026Y-195236185D01*
X179958026Y-195236185D02*
X180029455Y-195164757D01*
X180029455Y-195164757D02*
X179958026Y-195093328D01*
X179958026Y-195093328D02*
X179958026Y-195236185D01*
X181529455Y-196450471D02*
X181458027Y-196521900D01*
X181458027Y-196521900D02*
X181243741Y-196593328D01*
X181243741Y-196593328D02*
X181100884Y-196593328D01*
X181100884Y-196593328D02*
X180886598Y-196521900D01*
X180886598Y-196521900D02*
X180743741Y-196379042D01*
X180743741Y-196379042D02*
X180672312Y-196236185D01*
X180672312Y-196236185D02*
X180600884Y-195950471D01*
X180600884Y-195950471D02*
X180600884Y-195736185D01*
X180600884Y-195736185D02*
X180672312Y-195450471D01*
X180672312Y-195450471D02*
X180743741Y-195307614D01*
X180743741Y-195307614D02*
X180886598Y-195164757D01*
X180886598Y-195164757D02*
X181100884Y-195093328D01*
X181100884Y-195093328D02*
X181243741Y-195093328D01*
X181243741Y-195093328D02*
X181458027Y-195164757D01*
X181458027Y-195164757D02*
X181529455Y-195236185D01*
X182815170Y-196593328D02*
X182815170Y-195807614D01*
X182815170Y-195807614D02*
X182743741Y-195664757D01*
X182743741Y-195664757D02*
X182600884Y-195593328D01*
X182600884Y-195593328D02*
X182315170Y-195593328D01*
X182315170Y-195593328D02*
X182172312Y-195664757D01*
X182815170Y-196521900D02*
X182672312Y-196593328D01*
X182672312Y-196593328D02*
X182315170Y-196593328D01*
X182315170Y-196593328D02*
X182172312Y-196521900D01*
X182172312Y-196521900D02*
X182100884Y-196379042D01*
X182100884Y-196379042D02*
X182100884Y-196236185D01*
X182100884Y-196236185D02*
X182172312Y-196093328D01*
X182172312Y-196093328D02*
X182315170Y-196021900D01*
X182315170Y-196021900D02*
X182672312Y-196021900D01*
X182672312Y-196021900D02*
X182815170Y-195950471D01*
X184172313Y-196593328D02*
X184172313Y-195093328D01*
X184172313Y-196521900D02*
X184029455Y-196593328D01*
X184029455Y-196593328D02*
X183743741Y-196593328D01*
X183743741Y-196593328D02*
X183600884Y-196521900D01*
X183600884Y-196521900D02*
X183529455Y-196450471D01*
X183529455Y-196450471D02*
X183458027Y-196307614D01*
X183458027Y-196307614D02*
X183458027Y-195879042D01*
X183458027Y-195879042D02*
X183529455Y-195736185D01*
X183529455Y-195736185D02*
X183600884Y-195664757D01*
X183600884Y-195664757D02*
X183743741Y-195593328D01*
X183743741Y-195593328D02*
X184029455Y-195593328D01*
X184029455Y-195593328D02*
X184172313Y-195664757D01*
X186029455Y-195807614D02*
X186529455Y-195807614D01*
X186743741Y-196593328D02*
X186029455Y-196593328D01*
X186029455Y-196593328D02*
X186029455Y-195093328D01*
X186029455Y-195093328D02*
X186743741Y-195093328D01*
X187386598Y-196450471D02*
X187458027Y-196521900D01*
X187458027Y-196521900D02*
X187386598Y-196593328D01*
X187386598Y-196593328D02*
X187315170Y-196521900D01*
X187315170Y-196521900D02*
X187386598Y-196450471D01*
X187386598Y-196450471D02*
X187386598Y-196593328D01*
X188100884Y-196593328D02*
X188100884Y-195093328D01*
X188100884Y-195093328D02*
X188458027Y-195093328D01*
X188458027Y-195093328D02*
X188672313Y-195164757D01*
X188672313Y-195164757D02*
X188815170Y-195307614D01*
X188815170Y-195307614D02*
X188886599Y-195450471D01*
X188886599Y-195450471D02*
X188958027Y-195736185D01*
X188958027Y-195736185D02*
X188958027Y-195950471D01*
X188958027Y-195950471D02*
X188886599Y-196236185D01*
X188886599Y-196236185D02*
X188815170Y-196379042D01*
X188815170Y-196379042D02*
X188672313Y-196521900D01*
X188672313Y-196521900D02*
X188458027Y-196593328D01*
X188458027Y-196593328D02*
X188100884Y-196593328D01*
X189600884Y-196450471D02*
X189672313Y-196521900D01*
X189672313Y-196521900D02*
X189600884Y-196593328D01*
X189600884Y-196593328D02*
X189529456Y-196521900D01*
X189529456Y-196521900D02*
X189600884Y-196450471D01*
X189600884Y-196450471D02*
X189600884Y-196593328D01*
X190243742Y-196164757D02*
X190958028Y-196164757D01*
X190100885Y-196593328D02*
X190600885Y-195093328D01*
X190600885Y-195093328D02*
X191100885Y-196593328D01*
X191600884Y-196450471D02*
X191672313Y-196521900D01*
X191672313Y-196521900D02*
X191600884Y-196593328D01*
X191600884Y-196593328D02*
X191529456Y-196521900D01*
X191529456Y-196521900D02*
X191600884Y-196450471D01*
X191600884Y-196450471D02*
X191600884Y-196593328D01*
X193672313Y-195736185D02*
X193529456Y-195664757D01*
X193529456Y-195664757D02*
X193458027Y-195593328D01*
X193458027Y-195593328D02*
X193386599Y-195450471D01*
X193386599Y-195450471D02*
X193386599Y-195379042D01*
X193386599Y-195379042D02*
X193458027Y-195236185D01*
X193458027Y-195236185D02*
X193529456Y-195164757D01*
X193529456Y-195164757D02*
X193672313Y-195093328D01*
X193672313Y-195093328D02*
X193958027Y-195093328D01*
X193958027Y-195093328D02*
X194100885Y-195164757D01*
X194100885Y-195164757D02*
X194172313Y-195236185D01*
X194172313Y-195236185D02*
X194243742Y-195379042D01*
X194243742Y-195379042D02*
X194243742Y-195450471D01*
X194243742Y-195450471D02*
X194172313Y-195593328D01*
X194172313Y-195593328D02*
X194100885Y-195664757D01*
X194100885Y-195664757D02*
X193958027Y-195736185D01*
X193958027Y-195736185D02*
X193672313Y-195736185D01*
X193672313Y-195736185D02*
X193529456Y-195807614D01*
X193529456Y-195807614D02*
X193458027Y-195879042D01*
X193458027Y-195879042D02*
X193386599Y-196021900D01*
X193386599Y-196021900D02*
X193386599Y-196307614D01*
X193386599Y-196307614D02*
X193458027Y-196450471D01*
X193458027Y-196450471D02*
X193529456Y-196521900D01*
X193529456Y-196521900D02*
X193672313Y-196593328D01*
X193672313Y-196593328D02*
X193958027Y-196593328D01*
X193958027Y-196593328D02*
X194100885Y-196521900D01*
X194100885Y-196521900D02*
X194172313Y-196450471D01*
X194172313Y-196450471D02*
X194243742Y-196307614D01*
X194243742Y-196307614D02*
X194243742Y-196021900D01*
X194243742Y-196021900D02*
X194172313Y-195879042D01*
X194172313Y-195879042D02*
X194100885Y-195807614D01*
X194100885Y-195807614D02*
X193958027Y-195736185D01*
X194886598Y-196450471D02*
X194958027Y-196521900D01*
X194958027Y-196521900D02*
X194886598Y-196593328D01*
X194886598Y-196593328D02*
X194815170Y-196521900D01*
X194815170Y-196521900D02*
X194886598Y-196450471D01*
X194886598Y-196450471D02*
X194886598Y-196593328D01*
X195886599Y-195093328D02*
X196029456Y-195093328D01*
X196029456Y-195093328D02*
X196172313Y-195164757D01*
X196172313Y-195164757D02*
X196243742Y-195236185D01*
X196243742Y-195236185D02*
X196315170Y-195379042D01*
X196315170Y-195379042D02*
X196386599Y-195664757D01*
X196386599Y-195664757D02*
X196386599Y-196021900D01*
X196386599Y-196021900D02*
X196315170Y-196307614D01*
X196315170Y-196307614D02*
X196243742Y-196450471D01*
X196243742Y-196450471D02*
X196172313Y-196521900D01*
X196172313Y-196521900D02*
X196029456Y-196593328D01*
X196029456Y-196593328D02*
X195886599Y-196593328D01*
X195886599Y-196593328D02*
X195743742Y-196521900D01*
X195743742Y-196521900D02*
X195672313Y-196450471D01*
X195672313Y-196450471D02*
X195600884Y-196307614D01*
X195600884Y-196307614D02*
X195529456Y-196021900D01*
X195529456Y-196021900D02*
X195529456Y-195664757D01*
X195529456Y-195664757D02*
X195600884Y-195379042D01*
X195600884Y-195379042D02*
X195672313Y-195236185D01*
X195672313Y-195236185D02*
X195743742Y-195164757D01*
X195743742Y-195164757D02*
X195886599Y-195093328D01*
X197029455Y-196450471D02*
X197100884Y-196521900D01*
X197100884Y-196521900D02*
X197029455Y-196593328D01*
X197029455Y-196593328D02*
X196958027Y-196521900D01*
X196958027Y-196521900D02*
X197029455Y-196450471D01*
X197029455Y-196450471D02*
X197029455Y-196593328D01*
X198529456Y-196593328D02*
X197672313Y-196593328D01*
X198100884Y-196593328D02*
X198100884Y-195093328D01*
X198100884Y-195093328D02*
X197958027Y-195307614D01*
X197958027Y-195307614D02*
X197815170Y-195450471D01*
X197815170Y-195450471D02*
X197672313Y-195521900D01*
D10*
D11*
X177002200Y-191507200D02*
X285002200Y-191507200D01*
D10*
D12*
X264413853Y-193785528D02*
X263913853Y-193071242D01*
X263556710Y-193785528D02*
X263556710Y-192285528D01*
X263556710Y-192285528D02*
X264128139Y-192285528D01*
X264128139Y-192285528D02*
X264270996Y-192356957D01*
X264270996Y-192356957D02*
X264342425Y-192428385D01*
X264342425Y-192428385D02*
X264413853Y-192571242D01*
X264413853Y-192571242D02*
X264413853Y-192785528D01*
X264413853Y-192785528D02*
X264342425Y-192928385D01*
X264342425Y-192928385D02*
X264270996Y-192999814D01*
X264270996Y-192999814D02*
X264128139Y-193071242D01*
X264128139Y-193071242D02*
X263556710Y-193071242D01*
X265628139Y-193714100D02*
X265485282Y-193785528D01*
X265485282Y-193785528D02*
X265199568Y-193785528D01*
X265199568Y-193785528D02*
X265056710Y-193714100D01*
X265056710Y-193714100D02*
X264985282Y-193571242D01*
X264985282Y-193571242D02*
X264985282Y-192999814D01*
X264985282Y-192999814D02*
X265056710Y-192856957D01*
X265056710Y-192856957D02*
X265199568Y-192785528D01*
X265199568Y-192785528D02*
X265485282Y-192785528D01*
X265485282Y-192785528D02*
X265628139Y-192856957D01*
X265628139Y-192856957D02*
X265699568Y-192999814D01*
X265699568Y-192999814D02*
X265699568Y-193142671D01*
X265699568Y-193142671D02*
X264985282Y-193285528D01*
X266199567Y-192785528D02*
X266556710Y-193785528D01*
X266556710Y-193785528D02*
X266913853Y-192785528D01*
X267485281Y-193642671D02*
X267556710Y-193714100D01*
X267556710Y-193714100D02*
X267485281Y-193785528D01*
X267485281Y-193785528D02*
X267413853Y-193714100D01*
X267413853Y-193714100D02*
X267485281Y-193642671D01*
X267485281Y-193642671D02*
X267485281Y-193785528D01*
X267485281Y-192856957D02*
X267556710Y-192928385D01*
X267556710Y-192928385D02*
X267485281Y-192999814D01*
X267485281Y-192999814D02*
X267413853Y-192928385D01*
X267413853Y-192928385D02*
X267485281Y-192856957D01*
X267485281Y-192856957D02*
X267485281Y-192999814D01*
D10*
D11*
X178386598Y-193721900D02*
X178600884Y-193793328D01*
X178600884Y-193793328D02*
X178958026Y-193793328D01*
X178958026Y-193793328D02*
X179100884Y-193721900D01*
X179100884Y-193721900D02*
X179172312Y-193650471D01*
X179172312Y-193650471D02*
X179243741Y-193507614D01*
X179243741Y-193507614D02*
X179243741Y-193364757D01*
X179243741Y-193364757D02*
X179172312Y-193221900D01*
X179172312Y-193221900D02*
X179100884Y-193150471D01*
X179100884Y-193150471D02*
X178958026Y-193079042D01*
X178958026Y-193079042D02*
X178672312Y-193007614D01*
X178672312Y-193007614D02*
X178529455Y-192936185D01*
X178529455Y-192936185D02*
X178458026Y-192864757D01*
X178458026Y-192864757D02*
X178386598Y-192721900D01*
X178386598Y-192721900D02*
X178386598Y-192579042D01*
X178386598Y-192579042D02*
X178458026Y-192436185D01*
X178458026Y-192436185D02*
X178529455Y-192364757D01*
X178529455Y-192364757D02*
X178672312Y-192293328D01*
X178672312Y-192293328D02*
X179029455Y-192293328D01*
X179029455Y-192293328D02*
X179243741Y-192364757D01*
X179886597Y-193793328D02*
X179886597Y-192793328D01*
X179886597Y-192293328D02*
X179815169Y-192364757D01*
X179815169Y-192364757D02*
X179886597Y-192436185D01*
X179886597Y-192436185D02*
X179958026Y-192364757D01*
X179958026Y-192364757D02*
X179886597Y-192293328D01*
X179886597Y-192293328D02*
X179886597Y-192436185D01*
X180458026Y-192793328D02*
X181243741Y-192793328D01*
X181243741Y-192793328D02*
X180458026Y-193793328D01*
X180458026Y-193793328D02*
X181243741Y-193793328D01*
X182386598Y-193721900D02*
X182243741Y-193793328D01*
X182243741Y-193793328D02*
X181958027Y-193793328D01*
X181958027Y-193793328D02*
X181815169Y-193721900D01*
X181815169Y-193721900D02*
X181743741Y-193579042D01*
X181743741Y-193579042D02*
X181743741Y-193007614D01*
X181743741Y-193007614D02*
X181815169Y-192864757D01*
X181815169Y-192864757D02*
X181958027Y-192793328D01*
X181958027Y-192793328D02*
X182243741Y-192793328D01*
X182243741Y-192793328D02*
X182386598Y-192864757D01*
X182386598Y-192864757D02*
X182458027Y-193007614D01*
X182458027Y-193007614D02*
X182458027Y-193150471D01*
X182458027Y-193150471D02*
X181743741Y-193293328D01*
X183100883Y-193650471D02*
X183172312Y-193721900D01*
X183172312Y-193721900D02*
X183100883Y-193793328D01*
X183100883Y-193793328D02*
X183029455Y-193721900D01*
X183029455Y-193721900D02*
X183100883Y-193650471D01*
X183100883Y-193650471D02*
X183100883Y-193793328D01*
X183100883Y-192864757D02*
X183172312Y-192936185D01*
X183172312Y-192936185D02*
X183100883Y-193007614D01*
X183100883Y-193007614D02*
X183029455Y-192936185D01*
X183029455Y-192936185D02*
X183100883Y-192864757D01*
X183100883Y-192864757D02*
X183100883Y-193007614D01*
X184886598Y-193364757D02*
X185600884Y-193364757D01*
X184743741Y-193793328D02*
X185243741Y-192293328D01*
X185243741Y-192293328D02*
X185743741Y-193793328D01*
X186886598Y-192793328D02*
X186886598Y-193793328D01*
X186529455Y-192221900D02*
X186172312Y-193293328D01*
X186172312Y-193293328D02*
X187100883Y-193293328D01*
D10*
D11*
X263458026Y-196593328D02*
X263458026Y-195093328D01*
X264815170Y-196593328D02*
X264815170Y-195093328D01*
X264815170Y-196521900D02*
X264672312Y-196593328D01*
X264672312Y-196593328D02*
X264386598Y-196593328D01*
X264386598Y-196593328D02*
X264243741Y-196521900D01*
X264243741Y-196521900D02*
X264172312Y-196450471D01*
X264172312Y-196450471D02*
X264100884Y-196307614D01*
X264100884Y-196307614D02*
X264100884Y-195879042D01*
X264100884Y-195879042D02*
X264172312Y-195736185D01*
X264172312Y-195736185D02*
X264243741Y-195664757D01*
X264243741Y-195664757D02*
X264386598Y-195593328D01*
X264386598Y-195593328D02*
X264672312Y-195593328D01*
X264672312Y-195593328D02*
X264815170Y-195664757D01*
X265529455Y-196450471D02*
X265600884Y-196521900D01*
X265600884Y-196521900D02*
X265529455Y-196593328D01*
X265529455Y-196593328D02*
X265458027Y-196521900D01*
X265458027Y-196521900D02*
X265529455Y-196450471D01*
X265529455Y-196450471D02*
X265529455Y-196593328D01*
X265529455Y-195664757D02*
X265600884Y-195736185D01*
X265600884Y-195736185D02*
X265529455Y-195807614D01*
X265529455Y-195807614D02*
X265458027Y-195736185D01*
X265458027Y-195736185D02*
X265529455Y-195664757D01*
X265529455Y-195664757D02*
X265529455Y-195807614D01*
X268172313Y-196593328D02*
X267315170Y-196593328D01*
X267743741Y-196593328D02*
X267743741Y-195093328D01*
X267743741Y-195093328D02*
X267600884Y-195307614D01*
X267600884Y-195307614D02*
X267458027Y-195450471D01*
X267458027Y-195450471D02*
X267315170Y-195521900D01*
X269886598Y-195021900D02*
X268600884Y-196950471D01*
X271172313Y-196593328D02*
X270315170Y-196593328D01*
X270743741Y-196593328D02*
X270743741Y-195093328D01*
X270743741Y-195093328D02*
X270600884Y-195307614D01*
X270600884Y-195307614D02*
X270458027Y-195450471D01*
X270458027Y-195450471D02*
X270315170Y-195521900D01*
D10*
D11*
X177002200Y-187507200D02*
X285002200Y-187507200D01*
D10*
D13*
X178693928Y-188211638D02*
X179836785Y-188211638D01*
X179015357Y-190211638D02*
X179265357Y-188211638D01*
X180253452Y-190211638D02*
X180420119Y-188878304D01*
X180503452Y-188211638D02*
X180396309Y-188306876D01*
X180396309Y-188306876D02*
X180479643Y-188402114D01*
X180479643Y-188402114D02*
X180586786Y-188306876D01*
X180586786Y-188306876D02*
X180503452Y-188211638D01*
X180503452Y-188211638D02*
X180479643Y-188402114D01*
X181086786Y-188878304D02*
X181848690Y-188878304D01*
X181455833Y-188211638D02*
X181241548Y-189925923D01*
X181241548Y-189925923D02*
X181312976Y-190116400D01*
X181312976Y-190116400D02*
X181491548Y-190211638D01*
X181491548Y-190211638D02*
X181682024Y-190211638D01*
X182634405Y-190211638D02*
X182455833Y-190116400D01*
X182455833Y-190116400D02*
X182384405Y-189925923D01*
X182384405Y-189925923D02*
X182598690Y-188211638D01*
X184170119Y-190116400D02*
X183967738Y-190211638D01*
X183967738Y-190211638D02*
X183586785Y-190211638D01*
X183586785Y-190211638D02*
X183408214Y-190116400D01*
X183408214Y-190116400D02*
X183336785Y-189925923D01*
X183336785Y-189925923D02*
X183432024Y-189164019D01*
X183432024Y-189164019D02*
X183551071Y-188973542D01*
X183551071Y-188973542D02*
X183753452Y-188878304D01*
X183753452Y-188878304D02*
X184134404Y-188878304D01*
X184134404Y-188878304D02*
X184312976Y-188973542D01*
X184312976Y-188973542D02*
X184384404Y-189164019D01*
X184384404Y-189164019D02*
X184360595Y-189354495D01*
X184360595Y-189354495D02*
X183384404Y-189544971D01*
X185134405Y-190021161D02*
X185217738Y-190116400D01*
X185217738Y-190116400D02*
X185110595Y-190211638D01*
X185110595Y-190211638D02*
X185027262Y-190116400D01*
X185027262Y-190116400D02*
X185134405Y-190021161D01*
X185134405Y-190021161D02*
X185110595Y-190211638D01*
X185265357Y-188973542D02*
X185348690Y-189068780D01*
X185348690Y-189068780D02*
X185241548Y-189164019D01*
X185241548Y-189164019D02*
X185158214Y-189068780D01*
X185158214Y-189068780D02*
X185265357Y-188973542D01*
X185265357Y-188973542D02*
X185241548Y-189164019D01*
D10*
D11*
X178958026Y-185607614D02*
X178458026Y-185607614D01*
X178458026Y-186393328D02*
X178458026Y-184893328D01*
X178458026Y-184893328D02*
X179172312Y-184893328D01*
X179743740Y-186393328D02*
X179743740Y-185393328D01*
X179743740Y-184893328D02*
X179672312Y-184964757D01*
X179672312Y-184964757D02*
X179743740Y-185036185D01*
X179743740Y-185036185D02*
X179815169Y-184964757D01*
X179815169Y-184964757D02*
X179743740Y-184893328D01*
X179743740Y-184893328D02*
X179743740Y-185036185D01*
X180672312Y-186393328D02*
X180529455Y-186321900D01*
X180529455Y-186321900D02*
X180458026Y-186179042D01*
X180458026Y-186179042D02*
X180458026Y-184893328D01*
X181815169Y-186321900D02*
X181672312Y-186393328D01*
X181672312Y-186393328D02*
X181386598Y-186393328D01*
X181386598Y-186393328D02*
X181243740Y-186321900D01*
X181243740Y-186321900D02*
X181172312Y-186179042D01*
X181172312Y-186179042D02*
X181172312Y-185607614D01*
X181172312Y-185607614D02*
X181243740Y-185464757D01*
X181243740Y-185464757D02*
X181386598Y-185393328D01*
X181386598Y-185393328D02*
X181672312Y-185393328D01*
X181672312Y-185393328D02*
X181815169Y-185464757D01*
X181815169Y-185464757D02*
X181886598Y-185607614D01*
X181886598Y-185607614D02*
X181886598Y-185750471D01*
X181886598Y-185750471D02*
X181172312Y-185893328D01*
X182529454Y-186250471D02*
X182600883Y-186321900D01*
X182600883Y-186321900D02*
X182529454Y-186393328D01*
X182529454Y-186393328D02*
X182458026Y-186321900D01*
X182458026Y-186321900D02*
X182529454Y-186250471D01*
X182529454Y-186250471D02*
X182529454Y-186393328D01*
X182529454Y-185464757D02*
X182600883Y-185536185D01*
X182600883Y-185536185D02*
X182529454Y-185607614D01*
X182529454Y-185607614D02*
X182458026Y-185536185D01*
X182458026Y-185536185D02*
X182529454Y-185464757D01*
X182529454Y-185464757D02*
X182529454Y-185607614D01*
X184386597Y-186393328D02*
X184386597Y-184893328D01*
X184386597Y-184893328D02*
X184886597Y-185964757D01*
X184886597Y-185964757D02*
X185386597Y-184893328D01*
X185386597Y-184893328D02*
X185386597Y-186393328D01*
X186672312Y-186321900D02*
X186529455Y-186393328D01*
X186529455Y-186393328D02*
X186243741Y-186393328D01*
X186243741Y-186393328D02*
X186100883Y-186321900D01*
X186100883Y-186321900D02*
X186029455Y-186179042D01*
X186029455Y-186179042D02*
X186029455Y-185607614D01*
X186029455Y-185607614D02*
X186100883Y-185464757D01*
X186100883Y-185464757D02*
X186243741Y-185393328D01*
X186243741Y-185393328D02*
X186529455Y-185393328D01*
X186529455Y-185393328D02*
X186672312Y-185464757D01*
X186672312Y-185464757D02*
X186743741Y-185607614D01*
X186743741Y-185607614D02*
X186743741Y-185750471D01*
X186743741Y-185750471D02*
X186029455Y-185893328D01*
X188029455Y-186393328D02*
X188029455Y-185607614D01*
X188029455Y-185607614D02*
X187958026Y-185464757D01*
X187958026Y-185464757D02*
X187815169Y-185393328D01*
X187815169Y-185393328D02*
X187529455Y-185393328D01*
X187529455Y-185393328D02*
X187386597Y-185464757D01*
X188029455Y-186321900D02*
X187886597Y-186393328D01*
X187886597Y-186393328D02*
X187529455Y-186393328D01*
X187529455Y-186393328D02*
X187386597Y-186321900D01*
X187386597Y-186321900D02*
X187315169Y-186179042D01*
X187315169Y-186179042D02*
X187315169Y-186036185D01*
X187315169Y-186036185D02*
X187386597Y-185893328D01*
X187386597Y-185893328D02*
X187529455Y-185821900D01*
X187529455Y-185821900D02*
X187886597Y-185821900D01*
X187886597Y-185821900D02*
X188029455Y-185750471D01*
X188672312Y-186321900D02*
X188815169Y-186393328D01*
X188815169Y-186393328D02*
X189100883Y-186393328D01*
X189100883Y-186393328D02*
X189243740Y-186321900D01*
X189243740Y-186321900D02*
X189315169Y-186179042D01*
X189315169Y-186179042D02*
X189315169Y-186107614D01*
X189315169Y-186107614D02*
X189243740Y-185964757D01*
X189243740Y-185964757D02*
X189100883Y-185893328D01*
X189100883Y-185893328D02*
X188886598Y-185893328D01*
X188886598Y-185893328D02*
X188743740Y-185821900D01*
X188743740Y-185821900D02*
X188672312Y-185679042D01*
X188672312Y-185679042D02*
X188672312Y-185607614D01*
X188672312Y-185607614D02*
X188743740Y-185464757D01*
X188743740Y-185464757D02*
X188886598Y-185393328D01*
X188886598Y-185393328D02*
X189100883Y-185393328D01*
X189100883Y-185393328D02*
X189243740Y-185464757D01*
X190600884Y-185393328D02*
X190600884Y-186393328D01*
X189958026Y-185393328D02*
X189958026Y-186179042D01*
X189958026Y-186179042D02*
X190029455Y-186321900D01*
X190029455Y-186321900D02*
X190172312Y-186393328D01*
X190172312Y-186393328D02*
X190386598Y-186393328D01*
X190386598Y-186393328D02*
X190529455Y-186321900D01*
X190529455Y-186321900D02*
X190600884Y-186250471D01*
X191315169Y-186393328D02*
X191315169Y-185393328D01*
X191315169Y-185679042D02*
X191386598Y-185536185D01*
X191386598Y-185536185D02*
X191458027Y-185464757D01*
X191458027Y-185464757D02*
X191600884Y-185393328D01*
X191600884Y-185393328D02*
X191743741Y-185393328D01*
X192815169Y-186321900D02*
X192672312Y-186393328D01*
X192672312Y-186393328D02*
X192386598Y-186393328D01*
X192386598Y-186393328D02*
X192243740Y-186321900D01*
X192243740Y-186321900D02*
X192172312Y-186179042D01*
X192172312Y-186179042D02*
X192172312Y-185607614D01*
X192172312Y-185607614D02*
X192243740Y-185464757D01*
X192243740Y-185464757D02*
X192386598Y-185393328D01*
X192386598Y-185393328D02*
X192672312Y-185393328D01*
X192672312Y-185393328D02*
X192815169Y-185464757D01*
X192815169Y-185464757D02*
X192886598Y-185607614D01*
X192886598Y-185607614D02*
X192886598Y-185750471D01*
X192886598Y-185750471D02*
X192172312Y-185893328D01*
X193529454Y-186393328D02*
X193529454Y-185393328D01*
X193529454Y-185536185D02*
X193600883Y-185464757D01*
X193600883Y-185464757D02*
X193743740Y-185393328D01*
X193743740Y-185393328D02*
X193958026Y-185393328D01*
X193958026Y-185393328D02*
X194100883Y-185464757D01*
X194100883Y-185464757D02*
X194172312Y-185607614D01*
X194172312Y-185607614D02*
X194172312Y-186393328D01*
X194172312Y-185607614D02*
X194243740Y-185464757D01*
X194243740Y-185464757D02*
X194386597Y-185393328D01*
X194386597Y-185393328D02*
X194600883Y-185393328D01*
X194600883Y-185393328D02*
X194743740Y-185464757D01*
X194743740Y-185464757D02*
X194815169Y-185607614D01*
X194815169Y-185607614D02*
X194815169Y-186393328D01*
X196100883Y-186321900D02*
X195958026Y-186393328D01*
X195958026Y-186393328D02*
X195672312Y-186393328D01*
X195672312Y-186393328D02*
X195529454Y-186321900D01*
X195529454Y-186321900D02*
X195458026Y-186179042D01*
X195458026Y-186179042D02*
X195458026Y-185607614D01*
X195458026Y-185607614D02*
X195529454Y-185464757D01*
X195529454Y-185464757D02*
X195672312Y-185393328D01*
X195672312Y-185393328D02*
X195958026Y-185393328D01*
X195958026Y-185393328D02*
X196100883Y-185464757D01*
X196100883Y-185464757D02*
X196172312Y-185607614D01*
X196172312Y-185607614D02*
X196172312Y-185750471D01*
X196172312Y-185750471D02*
X195458026Y-185893328D01*
X196815168Y-185393328D02*
X196815168Y-186393328D01*
X196815168Y-185536185D02*
X196886597Y-185464757D01*
X196886597Y-185464757D02*
X197029454Y-185393328D01*
X197029454Y-185393328D02*
X197243740Y-185393328D01*
X197243740Y-185393328D02*
X197386597Y-185464757D01*
X197386597Y-185464757D02*
X197458026Y-185607614D01*
X197458026Y-185607614D02*
X197458026Y-186393328D01*
X197958026Y-185393328D02*
X198529454Y-185393328D01*
X198172311Y-184893328D02*
X198172311Y-186179042D01*
X198172311Y-186179042D02*
X198243740Y-186321900D01*
X198243740Y-186321900D02*
X198386597Y-186393328D01*
X198386597Y-186393328D02*
X198529454Y-186393328D01*
X198672312Y-186536185D02*
X199815169Y-186536185D01*
X200172311Y-186393328D02*
X200172311Y-184893328D01*
X200172311Y-184893328D02*
X200529454Y-184893328D01*
X200529454Y-184893328D02*
X200743740Y-184964757D01*
X200743740Y-184964757D02*
X200886597Y-185107614D01*
X200886597Y-185107614D02*
X200958026Y-185250471D01*
X200958026Y-185250471D02*
X201029454Y-185536185D01*
X201029454Y-185536185D02*
X201029454Y-185750471D01*
X201029454Y-185750471D02*
X200958026Y-186036185D01*
X200958026Y-186036185D02*
X200886597Y-186179042D01*
X200886597Y-186179042D02*
X200743740Y-186321900D01*
X200743740Y-186321900D02*
X200529454Y-186393328D01*
X200529454Y-186393328D02*
X200172311Y-186393328D01*
X202243740Y-186321900D02*
X202100883Y-186393328D01*
X202100883Y-186393328D02*
X201815169Y-186393328D01*
X201815169Y-186393328D02*
X201672311Y-186321900D01*
X201672311Y-186321900D02*
X201600883Y-186179042D01*
X201600883Y-186179042D02*
X201600883Y-185607614D01*
X201600883Y-185607614D02*
X201672311Y-185464757D01*
X201672311Y-185464757D02*
X201815169Y-185393328D01*
X201815169Y-185393328D02*
X202100883Y-185393328D01*
X202100883Y-185393328D02*
X202243740Y-185464757D01*
X202243740Y-185464757D02*
X202315169Y-185607614D01*
X202315169Y-185607614D02*
X202315169Y-185750471D01*
X202315169Y-185750471D02*
X201600883Y-185893328D01*
X202815168Y-185393328D02*
X203172311Y-186393328D01*
X203172311Y-186393328D02*
X203529454Y-185393328D01*
X204100882Y-186393328D02*
X204100882Y-185393328D01*
X204100882Y-184893328D02*
X204029454Y-184964757D01*
X204029454Y-184964757D02*
X204100882Y-185036185D01*
X204100882Y-185036185D02*
X204172311Y-184964757D01*
X204172311Y-184964757D02*
X204100882Y-184893328D01*
X204100882Y-184893328D02*
X204100882Y-185036185D01*
X205458026Y-186321900D02*
X205315168Y-186393328D01*
X205315168Y-186393328D02*
X205029454Y-186393328D01*
X205029454Y-186393328D02*
X204886597Y-186321900D01*
X204886597Y-186321900D02*
X204815168Y-186250471D01*
X204815168Y-186250471D02*
X204743740Y-186107614D01*
X204743740Y-186107614D02*
X204743740Y-185679042D01*
X204743740Y-185679042D02*
X204815168Y-185536185D01*
X204815168Y-185536185D02*
X204886597Y-185464757D01*
X204886597Y-185464757D02*
X205029454Y-185393328D01*
X205029454Y-185393328D02*
X205315168Y-185393328D01*
X205315168Y-185393328D02*
X205458026Y-185464757D01*
X206672311Y-186321900D02*
X206529454Y-186393328D01*
X206529454Y-186393328D02*
X206243740Y-186393328D01*
X206243740Y-186393328D02*
X206100882Y-186321900D01*
X206100882Y-186321900D02*
X206029454Y-186179042D01*
X206029454Y-186179042D02*
X206029454Y-185607614D01*
X206029454Y-185607614D02*
X206100882Y-185464757D01*
X206100882Y-185464757D02*
X206243740Y-185393328D01*
X206243740Y-185393328D02*
X206529454Y-185393328D01*
X206529454Y-185393328D02*
X206672311Y-185464757D01*
X206672311Y-185464757D02*
X206743740Y-185607614D01*
X206743740Y-185607614D02*
X206743740Y-185750471D01*
X206743740Y-185750471D02*
X206029454Y-185893328D01*
X207029454Y-186536185D02*
X208172311Y-186536185D01*
X208529453Y-186393328D02*
X208529453Y-184893328D01*
X208529453Y-184893328D02*
X209100882Y-184893328D01*
X209100882Y-184893328D02*
X209243739Y-184964757D01*
X209243739Y-184964757D02*
X209315168Y-185036185D01*
X209315168Y-185036185D02*
X209386596Y-185179042D01*
X209386596Y-185179042D02*
X209386596Y-185393328D01*
X209386596Y-185393328D02*
X209315168Y-185536185D01*
X209315168Y-185536185D02*
X209243739Y-185607614D01*
X209243739Y-185607614D02*
X209100882Y-185679042D01*
X209100882Y-185679042D02*
X208529453Y-185679042D01*
X210886596Y-186250471D02*
X210815168Y-186321900D01*
X210815168Y-186321900D02*
X210600882Y-186393328D01*
X210600882Y-186393328D02*
X210458025Y-186393328D01*
X210458025Y-186393328D02*
X210243739Y-186321900D01*
X210243739Y-186321900D02*
X210100882Y-186179042D01*
X210100882Y-186179042D02*
X210029453Y-186036185D01*
X210029453Y-186036185D02*
X209958025Y-185750471D01*
X209958025Y-185750471D02*
X209958025Y-185536185D01*
X209958025Y-185536185D02*
X210029453Y-185250471D01*
X210029453Y-185250471D02*
X210100882Y-185107614D01*
X210100882Y-185107614D02*
X210243739Y-184964757D01*
X210243739Y-184964757D02*
X210458025Y-184893328D01*
X210458025Y-184893328D02*
X210600882Y-184893328D01*
X210600882Y-184893328D02*
X210815168Y-184964757D01*
X210815168Y-184964757D02*
X210886596Y-185036185D01*
X212029453Y-185607614D02*
X212243739Y-185679042D01*
X212243739Y-185679042D02*
X212315168Y-185750471D01*
X212315168Y-185750471D02*
X212386596Y-185893328D01*
X212386596Y-185893328D02*
X212386596Y-186107614D01*
X212386596Y-186107614D02*
X212315168Y-186250471D01*
X212315168Y-186250471D02*
X212243739Y-186321900D01*
X212243739Y-186321900D02*
X212100882Y-186393328D01*
X212100882Y-186393328D02*
X211529453Y-186393328D01*
X211529453Y-186393328D02*
X211529453Y-184893328D01*
X211529453Y-184893328D02*
X212029453Y-184893328D01*
X212029453Y-184893328D02*
X212172311Y-184964757D01*
X212172311Y-184964757D02*
X212243739Y-185036185D01*
X212243739Y-185036185D02*
X212315168Y-185179042D01*
X212315168Y-185179042D02*
X212315168Y-185321900D01*
X212315168Y-185321900D02*
X212243739Y-185464757D01*
X212243739Y-185464757D02*
X212172311Y-185536185D01*
X212172311Y-185536185D02*
X212029453Y-185607614D01*
X212029453Y-185607614D02*
X211529453Y-185607614D01*
X213029453Y-186250471D02*
X213100882Y-186321900D01*
X213100882Y-186321900D02*
X213029453Y-186393328D01*
X213029453Y-186393328D02*
X212958025Y-186321900D01*
X212958025Y-186321900D02*
X213029453Y-186250471D01*
X213029453Y-186250471D02*
X213029453Y-186393328D01*
X213743739Y-186393328D02*
X213743739Y-184893328D01*
X213886597Y-185821900D02*
X214315168Y-186393328D01*
X214315168Y-185393328D02*
X213743739Y-185964757D01*
X214958025Y-186393328D02*
X214958025Y-185393328D01*
X214958025Y-184893328D02*
X214886597Y-184964757D01*
X214886597Y-184964757D02*
X214958025Y-185036185D01*
X214958025Y-185036185D02*
X215029454Y-184964757D01*
X215029454Y-184964757D02*
X214958025Y-184893328D01*
X214958025Y-184893328D02*
X214958025Y-185036185D01*
X216315169Y-186321900D02*
X216172311Y-186393328D01*
X216172311Y-186393328D02*
X215886597Y-186393328D01*
X215886597Y-186393328D02*
X215743740Y-186321900D01*
X215743740Y-186321900D02*
X215672311Y-186250471D01*
X215672311Y-186250471D02*
X215600883Y-186107614D01*
X215600883Y-186107614D02*
X215600883Y-185679042D01*
X215600883Y-185679042D02*
X215672311Y-185536185D01*
X215672311Y-185536185D02*
X215743740Y-185464757D01*
X215743740Y-185464757D02*
X215886597Y-185393328D01*
X215886597Y-185393328D02*
X216172311Y-185393328D01*
X216172311Y-185393328D02*
X216315169Y-185464757D01*
X217600883Y-186393328D02*
X217600883Y-185607614D01*
X217600883Y-185607614D02*
X217529454Y-185464757D01*
X217529454Y-185464757D02*
X217386597Y-185393328D01*
X217386597Y-185393328D02*
X217100883Y-185393328D01*
X217100883Y-185393328D02*
X216958025Y-185464757D01*
X217600883Y-186321900D02*
X217458025Y-186393328D01*
X217458025Y-186393328D02*
X217100883Y-186393328D01*
X217100883Y-186393328D02*
X216958025Y-186321900D01*
X216958025Y-186321900D02*
X216886597Y-186179042D01*
X216886597Y-186179042D02*
X216886597Y-186036185D01*
X216886597Y-186036185D02*
X216958025Y-185893328D01*
X216958025Y-185893328D02*
X217100883Y-185821900D01*
X217100883Y-185821900D02*
X217458025Y-185821900D01*
X217458025Y-185821900D02*
X217600883Y-185750471D01*
X218958026Y-186393328D02*
X218958026Y-184893328D01*
X218958026Y-186321900D02*
X218815168Y-186393328D01*
X218815168Y-186393328D02*
X218529454Y-186393328D01*
X218529454Y-186393328D02*
X218386597Y-186321900D01*
X218386597Y-186321900D02*
X218315168Y-186250471D01*
X218315168Y-186250471D02*
X218243740Y-186107614D01*
X218243740Y-186107614D02*
X218243740Y-185679042D01*
X218243740Y-185679042D02*
X218315168Y-185536185D01*
X218315168Y-185536185D02*
X218386597Y-185464757D01*
X218386597Y-185464757D02*
X218529454Y-185393328D01*
X218529454Y-185393328D02*
X218815168Y-185393328D01*
X218815168Y-185393328D02*
X218958026Y-185464757D01*
X219315169Y-186536185D02*
X220458026Y-186536185D01*
X220815168Y-185393328D02*
X220815168Y-186893328D01*
X220815168Y-185464757D02*
X220958026Y-185393328D01*
X220958026Y-185393328D02*
X221243740Y-185393328D01*
X221243740Y-185393328D02*
X221386597Y-185464757D01*
X221386597Y-185464757D02*
X221458026Y-185536185D01*
X221458026Y-185536185D02*
X221529454Y-185679042D01*
X221529454Y-185679042D02*
X221529454Y-186107614D01*
X221529454Y-186107614D02*
X221458026Y-186250471D01*
X221458026Y-186250471D02*
X221386597Y-186321900D01*
X221386597Y-186321900D02*
X221243740Y-186393328D01*
X221243740Y-186393328D02*
X220958026Y-186393328D01*
X220958026Y-186393328D02*
X220815168Y-186321900D01*
X222815169Y-186321900D02*
X222672311Y-186393328D01*
X222672311Y-186393328D02*
X222386597Y-186393328D01*
X222386597Y-186393328D02*
X222243740Y-186321900D01*
X222243740Y-186321900D02*
X222172311Y-186250471D01*
X222172311Y-186250471D02*
X222100883Y-186107614D01*
X222100883Y-186107614D02*
X222100883Y-185679042D01*
X222100883Y-185679042D02*
X222172311Y-185536185D01*
X222172311Y-185536185D02*
X222243740Y-185464757D01*
X222243740Y-185464757D02*
X222386597Y-185393328D01*
X222386597Y-185393328D02*
X222672311Y-185393328D01*
X222672311Y-185393328D02*
X222815169Y-185464757D01*
X223458025Y-186393328D02*
X223458025Y-184893328D01*
X223458025Y-185464757D02*
X223600883Y-185393328D01*
X223600883Y-185393328D02*
X223886597Y-185393328D01*
X223886597Y-185393328D02*
X224029454Y-185464757D01*
X224029454Y-185464757D02*
X224100883Y-185536185D01*
X224100883Y-185536185D02*
X224172311Y-185679042D01*
X224172311Y-185679042D02*
X224172311Y-186107614D01*
X224172311Y-186107614D02*
X224100883Y-186250471D01*
X224100883Y-186250471D02*
X224029454Y-186321900D01*
X224029454Y-186321900D02*
X223886597Y-186393328D01*
X223886597Y-186393328D02*
X223600883Y-186393328D01*
X223600883Y-186393328D02*
X223458025Y-186321900D01*
D10*
D11*
X177002200Y-181507200D02*
X285002200Y-181507200D01*
D10*
D11*
X178386598Y-183621900D02*
X178600884Y-183693328D01*
X178600884Y-183693328D02*
X178958026Y-183693328D01*
X178958026Y-183693328D02*
X179100884Y-183621900D01*
X179100884Y-183621900D02*
X179172312Y-183550471D01*
X179172312Y-183550471D02*
X179243741Y-183407614D01*
X179243741Y-183407614D02*
X179243741Y-183264757D01*
X179243741Y-183264757D02*
X179172312Y-183121900D01*
X179172312Y-183121900D02*
X179100884Y-183050471D01*
X179100884Y-183050471D02*
X178958026Y-182979042D01*
X178958026Y-182979042D02*
X178672312Y-182907614D01*
X178672312Y-182907614D02*
X178529455Y-182836185D01*
X178529455Y-182836185D02*
X178458026Y-182764757D01*
X178458026Y-182764757D02*
X178386598Y-182621900D01*
X178386598Y-182621900D02*
X178386598Y-182479042D01*
X178386598Y-182479042D02*
X178458026Y-182336185D01*
X178458026Y-182336185D02*
X178529455Y-182264757D01*
X178529455Y-182264757D02*
X178672312Y-182193328D01*
X178672312Y-182193328D02*
X179029455Y-182193328D01*
X179029455Y-182193328D02*
X179243741Y-182264757D01*
X179886597Y-183693328D02*
X179886597Y-182193328D01*
X180529455Y-183693328D02*
X180529455Y-182907614D01*
X180529455Y-182907614D02*
X180458026Y-182764757D01*
X180458026Y-182764757D02*
X180315169Y-182693328D01*
X180315169Y-182693328D02*
X180100883Y-182693328D01*
X180100883Y-182693328D02*
X179958026Y-182764757D01*
X179958026Y-182764757D02*
X179886597Y-182836185D01*
X181815169Y-183621900D02*
X181672312Y-183693328D01*
X181672312Y-183693328D02*
X181386598Y-183693328D01*
X181386598Y-183693328D02*
X181243740Y-183621900D01*
X181243740Y-183621900D02*
X181172312Y-183479042D01*
X181172312Y-183479042D02*
X181172312Y-182907614D01*
X181172312Y-182907614D02*
X181243740Y-182764757D01*
X181243740Y-182764757D02*
X181386598Y-182693328D01*
X181386598Y-182693328D02*
X181672312Y-182693328D01*
X181672312Y-182693328D02*
X181815169Y-182764757D01*
X181815169Y-182764757D02*
X181886598Y-182907614D01*
X181886598Y-182907614D02*
X181886598Y-183050471D01*
X181886598Y-183050471D02*
X181172312Y-183193328D01*
X183100883Y-183621900D02*
X182958026Y-183693328D01*
X182958026Y-183693328D02*
X182672312Y-183693328D01*
X182672312Y-183693328D02*
X182529454Y-183621900D01*
X182529454Y-183621900D02*
X182458026Y-183479042D01*
X182458026Y-183479042D02*
X182458026Y-182907614D01*
X182458026Y-182907614D02*
X182529454Y-182764757D01*
X182529454Y-182764757D02*
X182672312Y-182693328D01*
X182672312Y-182693328D02*
X182958026Y-182693328D01*
X182958026Y-182693328D02*
X183100883Y-182764757D01*
X183100883Y-182764757D02*
X183172312Y-182907614D01*
X183172312Y-182907614D02*
X183172312Y-183050471D01*
X183172312Y-183050471D02*
X182458026Y-183193328D01*
X183600883Y-182693328D02*
X184172311Y-182693328D01*
X183815168Y-182193328D02*
X183815168Y-183479042D01*
X183815168Y-183479042D02*
X183886597Y-183621900D01*
X183886597Y-183621900D02*
X184029454Y-183693328D01*
X184029454Y-183693328D02*
X184172311Y-183693328D01*
X184672311Y-183550471D02*
X184743740Y-183621900D01*
X184743740Y-183621900D02*
X184672311Y-183693328D01*
X184672311Y-183693328D02*
X184600883Y-183621900D01*
X184600883Y-183621900D02*
X184672311Y-183550471D01*
X184672311Y-183550471D02*
X184672311Y-183693328D01*
X184672311Y-182764757D02*
X184743740Y-182836185D01*
X184743740Y-182836185D02*
X184672311Y-182907614D01*
X184672311Y-182907614D02*
X184600883Y-182836185D01*
X184600883Y-182836185D02*
X184672311Y-182764757D01*
X184672311Y-182764757D02*
X184672311Y-182907614D01*
D10*
D12*
D10*
D11*
D10*
D11*
D10*
D11*
D10*
D11*
D10*
D11*
X197002200Y-191507200D02*
X197002200Y-194507200D01*
D10*
D11*
X261002200Y-191507200D02*
X261002200Y-198007200D01*
D14*
%TO.P,R2,2*%
%TO.N,GND*%
X95940000Y-93750000D03*
%TO.P,R2,1*%
%TO.N,Net-(D2-K)*%
X103560000Y-93750000D03*
%TD*%
%TO.P,RCW-1,4,GND*%
%TO.N,GND*%
X190890000Y-59560000D03*
%TO.P,RCW-1,3,Echo*%
%TO.N,EchoL*%
X190890000Y-57020000D03*
%TO.P,RCW-1,2,Trig*%
%TO.N,TrigL*%
X190890000Y-54480000D03*
%TO.P,RCW-1,1,VCC*%
%TO.N,VCC*%
X190890000Y-51940000D03*
%TD*%
%TO.P,Button3,3,GND*%
%TO.N,Net-(Button3-GND)*%
X190787043Y-83340000D03*
%TO.P,Button3,2,D*%
%TO.N,BTNL*%
X190787043Y-80800000D03*
%TO.P,Button3,1,VCC*%
%TO.N,VCC*%
X190787043Y-78260000D03*
%TD*%
%TO.P,D2,2,A*%
%TO.N,LEDY*%
X111050000Y-86140000D03*
%TO.P,D2,1,K*%
%TO.N,Net-(D2-K)*%
X111050000Y-93760000D03*
%TD*%
%TO.P,R5,2*%
%TO.N,GND*%
X210210000Y-94150000D03*
%TO.P,R5,1*%
%TO.N,Net-(Button1-GND)*%
X202590000Y-94150000D03*
%TD*%
%TO.P,Button1,3,GND*%
%TO.N,Net-(Button1-GND)*%
X190637043Y-94090000D03*
%TO.P,Button1,2,D*%
%TO.N,BTNR*%
X190637043Y-91550000D03*
%TO.P,Button1,1,VCC*%
%TO.N,VCC*%
X190637043Y-89010000D03*
%TD*%
%TO.P,R3,2*%
%TO.N,GND*%
X95840000Y-109250000D03*
%TO.P,R3,1*%
%TO.N,Net-(D3-K)*%
X103460000Y-109250000D03*
%TD*%
%TO.P,RCW-3,4,VCC*%
%TO.N,VCC*%
X190940000Y-72360000D03*
%TO.P,RCW-3,3,Echo*%
%TO.N,EchoR*%
X190940000Y-69820000D03*
%TO.P,RCW-3,2,Trig*%
%TO.N,TrigR*%
X190940000Y-67280000D03*
%TO.P,RCW-3,1,GND*%
%TO.N,GND*%
X190940000Y-64740000D03*
%TD*%
%TO.P,GY_1,8,G_INT*%
%TO.N,unconnected-(GY_1-G_INT-Pad8)*%
X108350000Y-59590000D03*
%TO.P,GY_1,7,A_INT1*%
%TO.N,unconnected-(GY_1-A_INT1-Pad7)*%
X108350000Y-57050000D03*
%TO.P,GY_1,6,M_DRDY*%
%TO.N,unconnected-(GY_1-M_DRDY-Pad6)*%
X108350000Y-54510000D03*
%TO.P,GY_1,5,SDA*%
%TO.N,SDA*%
X108350000Y-51970000D03*
%TO.P,GY_1,4,SCL*%
%TO.N,SCL*%
X108350000Y-49430000D03*
%TO.P,GY_1,3,GND*%
%TO.N,GND*%
X108350000Y-46890000D03*
%TO.P,GY_1,2,3.3V*%
%TO.N,unconnected-(GY_1-3.3V-Pad2)*%
X108350000Y-44350000D03*
%TO.P,GY_1,1,VCC_IN*%
%TO.N,VCC*%
X108350000Y-41810000D03*
%TD*%
%TO.P,R1,2*%
%TO.N,GND*%
X95790000Y-78700000D03*
%TO.P,R1,1*%
%TO.N,Net-(D1-K)*%
X103410000Y-78700000D03*
%TD*%
%TO.P,R4,2*%
%TO.N,Net-(Button3-GND)*%
X202540000Y-83350000D03*
%TO.P,R4,1*%
%TO.N,GND*%
X210160000Y-83350000D03*
%TD*%
%TO.P,D3,2,A*%
%TO.N,LEDG*%
X111050000Y-101640000D03*
%TO.P,D3,1,K*%
%TO.N,Net-(D3-K)*%
X111050000Y-109260000D03*
%TD*%
%TO.P,D1,2,A*%
%TO.N,LEDR*%
X110900000Y-71090000D03*
%TO.P,D1,1,K*%
%TO.N,Net-(D1-K)*%
X110900000Y-78710000D03*
%TD*%
D15*
%TO.P,A1,1,NC*%
%TO.N,unconnected-(A1-NC-Pad1)*%
X127700000Y-84940000D03*
D16*
%TO.P,A1,2,IOREF*%
%TO.N,unconnected-(A1-IOREF-Pad2)*%
X127700000Y-82400000D03*
%TO.P,A1,3,~{RESET}*%
%TO.N,unconnected-(A1-~{RESET}-Pad3)*%
X127700000Y-79860000D03*
%TO.P,A1,4,3V3*%
%TO.N,unconnected-(A1-3V3-Pad4)*%
X127700000Y-77320000D03*
%TO.P,A1,5,+5V*%
%TO.N,VCC*%
X127700000Y-74780000D03*
%TO.P,A1,6,GND*%
%TO.N,unconnected-(A1-GND-Pad6)*%
X127700000Y-72240000D03*
%TO.P,A1,7,GND*%
%TO.N,GND*%
X127700000Y-69700000D03*
%TO.P,A1,8,VIN*%
%TO.N,unconnected-(A1-VIN-Pad8)*%
X127700000Y-67160000D03*
%TO.P,A1,9,A0*%
%TO.N,unconnected-(A1-A0-Pad9)*%
X127700000Y-62080000D03*
%TO.P,A1,10,A1*%
%TO.N,unconnected-(A1-A1-Pad10)*%
X127700000Y-59540000D03*
%TO.P,A1,11,A2*%
%TO.N,unconnected-(A1-A2-Pad11)*%
X127700000Y-57000000D03*
%TO.P,A1,12,A3*%
%TO.N,unconnected-(A1-A3-Pad12)*%
X127700000Y-54460000D03*
%TO.P,A1,13,SDA/A4*%
%TO.N,SDA*%
X127700000Y-51920000D03*
%TO.P,A1,14,SCL/A5*%
%TO.N,SCL*%
X127700000Y-49380000D03*
%TO.P,A1,15,D0/RX*%
%TO.N,unconnected-(A1-D0{slash}RX-Pad15)*%
X175960000Y-49380000D03*
%TO.P,A1,16,D1/TX*%
%TO.N,unconnected-(A1-D1{slash}TX-Pad16)*%
X175960000Y-51920000D03*
%TO.P,A1,17,D2*%
%TO.N,TrigL*%
X175960000Y-54460000D03*
%TO.P,A1,18,D3*%
%TO.N,EchoL*%
X175960000Y-57000000D03*
%TO.P,A1,19,D4*%
%TO.N,TrigR*%
X175960000Y-59540000D03*
%TO.P,A1,20,D5*%
%TO.N,EchoR*%
X175960000Y-62080000D03*
%TO.P,A1,21,D6*%
%TO.N,BTNL*%
X175960000Y-64620000D03*
%TO.P,A1,22,D7*%
%TO.N,BTNR*%
X175960000Y-67160000D03*
%TO.P,A1,23,D8*%
%TO.N,LEDR*%
X175960000Y-71220000D03*
%TO.P,A1,24,D9*%
%TO.N,LEDY*%
X175960000Y-73760000D03*
%TO.P,A1,25,D10*%
%TO.N,LEDG*%
X175960000Y-76300000D03*
%TO.P,A1,26,D11*%
%TO.N,unconnected-(A1-D11-Pad26)*%
X175960000Y-78840000D03*
%TO.P,A1,27,D12*%
%TO.N,unconnected-(A1-D12-Pad27)*%
X175960000Y-81380000D03*
%TO.P,A1,28,D13*%
%TO.N,unconnected-(A1-D13-Pad28)*%
X175960000Y-83920000D03*
%TO.P,A1,29,GND*%
%TO.N,unconnected-(A1-GND-Pad29)*%
X175960000Y-86460000D03*
%TO.P,A1,30,AREF*%
%TO.N,unconnected-(A1-AREF-Pad30)*%
X175960000Y-89000000D03*
%TO.P,A1,31,SDA/A4*%
%TO.N,unconnected-(A1-SDA{slash}A4-Pad31)*%
X175960000Y-91540000D03*
%TO.P,A1,32,SCL/A5*%
%TO.N,unconnected-(A1-SCL{slash}A5-Pad32)*%
X175960000Y-94080000D03*
%TD*%
D17*
%TO.N,VCC*%
X206550000Y-94700000D02*
X197000000Y-104250000D01*
X206550000Y-90850000D02*
X206550000Y-94700000D01*
X124630000Y-74780000D02*
X127700000Y-74780000D01*
X108900000Y-68600000D02*
X118450000Y-68600000D01*
X197000000Y-104250000D02*
X108850000Y-104250000D01*
X100600000Y-96000000D02*
X100600000Y-76900000D01*
X108850000Y-104250000D02*
X100600000Y-96000000D01*
X100600000Y-76900000D02*
X108900000Y-68600000D01*
X118450000Y-68600000D02*
X124630000Y-74780000D01*
X114650000Y-44950000D02*
X111510000Y-41810000D01*
X177250000Y-47000000D02*
X175200000Y-44950000D01*
X111510000Y-41810000D02*
X108350000Y-41810000D01*
X177800000Y-47500000D02*
X177300000Y-47000000D01*
X177300000Y-47000000D02*
X177250000Y-47000000D01*
X175200000Y-44950000D02*
X114650000Y-44950000D01*
%TO.N,LEDY*%
X168987056Y-73760000D02*
X175960000Y-73760000D01*
X127800000Y-93450000D02*
X149297056Y-93450000D01*
X120490000Y-86140000D02*
X127800000Y-93450000D01*
X149297056Y-93450000D02*
X168987056Y-73760000D01*
X111050000Y-86140000D02*
X120490000Y-86140000D01*
%TO.N,LEDG*%
X111050000Y-101640000D02*
X111050000Y-98800000D01*
X111050000Y-98800000D02*
X114600000Y-95250000D01*
X169650000Y-76300000D02*
X175960000Y-76300000D01*
X114600000Y-95250000D02*
X150700000Y-95250000D01*
X150700000Y-95250000D02*
X169650000Y-76300000D01*
%TO.N,LEDR*%
X125550000Y-87450000D02*
X125550000Y-79450000D01*
X129450000Y-91350000D02*
X125550000Y-87450000D01*
X117190000Y-71090000D02*
X110900000Y-71090000D01*
X148500000Y-91350000D02*
X129450000Y-91350000D01*
X125550000Y-79450000D02*
X117190000Y-71090000D01*
X175960000Y-71220000D02*
X168630000Y-71220000D01*
X168630000Y-71220000D02*
X148500000Y-91350000D01*
%TO.N,VCC*%
X172650000Y-49650000D02*
X174800000Y-47500000D01*
X172650000Y-64450000D02*
X172650000Y-49650000D01*
X162320000Y-74780000D02*
X172650000Y-64450000D01*
X127700000Y-74780000D02*
X162320000Y-74780000D01*
%TO.N,SDA*%
X108400000Y-51920000D02*
X108350000Y-51970000D01*
X127700000Y-51920000D02*
X108400000Y-51920000D01*
%TO.N,SCL*%
X127650000Y-49430000D02*
X127700000Y-49380000D01*
X108350000Y-49430000D02*
X127650000Y-49430000D01*
%TO.N,SDA*%
X127690000Y-51930000D02*
X127700000Y-51920000D01*
%TO.N,VCC*%
X174800000Y-47500000D02*
X177800000Y-47500000D01*
X177800000Y-47500000D02*
X182240000Y-51940000D01*
X182240000Y-51940000D02*
X190890000Y-51940000D01*
X190940000Y-78107043D02*
X190787043Y-78260000D01*
X190940000Y-72360000D02*
X190940000Y-78107043D01*
%TO.N,GND*%
X190940000Y-59610000D02*
X190890000Y-59560000D01*
%TO.N,SCL*%
X127600000Y-49480000D02*
X127700000Y-49380000D01*
%TO.N,TrigR*%
X175960000Y-59540000D02*
X179690000Y-59540000D01*
X187390000Y-67240000D02*
X190900000Y-67240000D01*
X179690000Y-59540000D02*
X187390000Y-67240000D01*
%TO.N,TrigL*%
X175960000Y-54460000D02*
X190870000Y-54460000D01*
X190870000Y-54460000D02*
X190890000Y-54480000D01*
%TO.N,EchoR*%
X178130000Y-62080000D02*
X185830000Y-69780000D01*
X185830000Y-69780000D02*
X190900000Y-69780000D01*
X175960000Y-62080000D02*
X178130000Y-62080000D01*
%TO.N,SDA*%
X127600000Y-52020000D02*
X127700000Y-51920000D01*
%TO.N,VCC*%
X206550000Y-90850000D02*
X204710000Y-89010000D01*
X204710000Y-89010000D02*
X190637043Y-89010000D01*
X206550000Y-90850000D02*
X206550000Y-80100000D01*
X204650000Y-78200000D02*
X204590000Y-78260000D01*
X206550000Y-80100000D02*
X204650000Y-78200000D01*
X204590000Y-78260000D02*
X190787043Y-78260000D01*
%TO.N,EchoL*%
X190870000Y-57000000D02*
X190890000Y-57020000D01*
X175960000Y-57000000D02*
X190870000Y-57000000D01*
%TO.N,BTNR*%
X185300000Y-74900000D02*
X185300000Y-89500000D01*
X187350000Y-91550000D02*
X190637043Y-91550000D01*
X185300000Y-89500000D02*
X187350000Y-91550000D01*
X175960000Y-67160000D02*
X177560000Y-67160000D01*
X177560000Y-67160000D02*
X185300000Y-74900000D01*
%TO.N,BTNL*%
X175960000Y-64620000D02*
X177420000Y-64620000D01*
X177420000Y-64620000D02*
X187050000Y-74250000D01*
X188100000Y-80850000D02*
X188150000Y-80800000D01*
X187050000Y-79800000D02*
X188100000Y-80850000D01*
X188150000Y-80800000D02*
X190787043Y-80800000D01*
X187050000Y-74250000D02*
X187050000Y-79800000D01*
%TO.N,Net-(Button1-GND)*%
X202530000Y-94090000D02*
X202590000Y-94150000D01*
X190637043Y-94090000D02*
X202530000Y-94090000D01*
%TO.N,Net-(Button3-GND)*%
X202530000Y-83340000D02*
X202540000Y-83350000D01*
X190787043Y-83340000D02*
X202530000Y-83340000D01*
%TO.N,Net-(D1-K)*%
X110900000Y-78710000D02*
X103420000Y-78710000D01*
X103420000Y-78710000D02*
X103410000Y-78700000D01*
%TO.N,Net-(D2-K)*%
X103560000Y-93750000D02*
X111040000Y-93750000D01*
X111040000Y-93750000D02*
X111050000Y-93760000D01*
%TO.N,Net-(D3-K)*%
X103470000Y-109260000D02*
X103460000Y-109250000D01*
X111050000Y-109260000D02*
X103470000Y-109260000D01*
%TD*%
%TA.AperFunction,Conductor*%
%TO.N,GND*%
G36*
X215142539Y-39020185D02*
G01*
X215188294Y-39072989D01*
X215199500Y-39124500D01*
X215199500Y-121125500D01*
X215179815Y-121192539D01*
X215127011Y-121238294D01*
X215075500Y-121249500D01*
X91024500Y-121249500D01*
X90957461Y-121229815D01*
X90911706Y-121177011D01*
X90900500Y-121125500D01*
X90900500Y-117271288D01*
X93199500Y-117271288D01*
X93231161Y-117511785D01*
X93293947Y-117746104D01*
X93386773Y-117970205D01*
X93386776Y-117970212D01*
X93508064Y-118180289D01*
X93508066Y-118180292D01*
X93508067Y-118180293D01*
X93655733Y-118372736D01*
X93655739Y-118372743D01*
X93827256Y-118544260D01*
X93827262Y-118544265D01*
X94019711Y-118691936D01*
X94229788Y-118813224D01*
X94453900Y-118906054D01*
X94688211Y-118968838D01*
X94868586Y-118992584D01*
X94928711Y-119000500D01*
X94928712Y-119000500D01*
X95171289Y-119000500D01*
X95219388Y-118994167D01*
X95411789Y-118968838D01*
X95646100Y-118906054D01*
X95870212Y-118813224D01*
X96080289Y-118691936D01*
X96272738Y-118544265D01*
X96444265Y-118372738D01*
X96591936Y-118180289D01*
X96713224Y-117970212D01*
X96806054Y-117746100D01*
X96868838Y-117511789D01*
X96900500Y-117271288D01*
X209299500Y-117271288D01*
X209331161Y-117511785D01*
X209393947Y-117746104D01*
X209486773Y-117970205D01*
X209486776Y-117970212D01*
X209608064Y-118180289D01*
X209608066Y-118180292D01*
X209608067Y-118180293D01*
X209755733Y-118372736D01*
X209755739Y-118372743D01*
X209927256Y-118544260D01*
X209927262Y-118544265D01*
X210119711Y-118691936D01*
X210329788Y-118813224D01*
X210553900Y-118906054D01*
X210788211Y-118968838D01*
X210968586Y-118992584D01*
X211028711Y-119000500D01*
X211028712Y-119000500D01*
X211271289Y-119000500D01*
X211319388Y-118994167D01*
X211511789Y-118968838D01*
X211746100Y-118906054D01*
X211970212Y-118813224D01*
X212180289Y-118691936D01*
X212372738Y-118544265D01*
X212544265Y-118372738D01*
X212691936Y-118180289D01*
X212813224Y-117970212D01*
X212906054Y-117746100D01*
X212968838Y-117511789D01*
X213000500Y-117271288D01*
X213000500Y-117028712D01*
X212968838Y-116788211D01*
X212906054Y-116553900D01*
X212813224Y-116329788D01*
X212691936Y-116119711D01*
X212544265Y-115927262D01*
X212544260Y-115927256D01*
X212372743Y-115755739D01*
X212372736Y-115755733D01*
X212180293Y-115608067D01*
X212180292Y-115608066D01*
X212180289Y-115608064D01*
X211970212Y-115486776D01*
X211970205Y-115486773D01*
X211746104Y-115393947D01*
X211511785Y-115331161D01*
X211271289Y-115299500D01*
X211271288Y-115299500D01*
X211028712Y-115299500D01*
X211028711Y-115299500D01*
X210788214Y-115331161D01*
X210553895Y-115393947D01*
X210329794Y-115486773D01*
X210329785Y-115486777D01*
X210119706Y-115608067D01*
X209927263Y-115755733D01*
X209927256Y-115755739D01*
X209755739Y-115927256D01*
X209755733Y-115927263D01*
X209608067Y-116119706D01*
X209486777Y-116329785D01*
X209486773Y-116329794D01*
X209393947Y-116553895D01*
X209331161Y-116788214D01*
X209299500Y-117028711D01*
X209299500Y-117271288D01*
X96900500Y-117271288D01*
X96900500Y-117028712D01*
X96868838Y-116788211D01*
X96806054Y-116553900D01*
X96713224Y-116329788D01*
X96591936Y-116119711D01*
X96444265Y-115927262D01*
X96444260Y-115927256D01*
X96272743Y-115755739D01*
X96272736Y-115755733D01*
X96080293Y-115608067D01*
X96080292Y-115608066D01*
X96080289Y-115608064D01*
X95870212Y-115486776D01*
X95870205Y-115486773D01*
X95646104Y-115393947D01*
X95411785Y-115331161D01*
X95171289Y-115299500D01*
X95171288Y-115299500D01*
X94928712Y-115299500D01*
X94928711Y-115299500D01*
X94688214Y-115331161D01*
X94453895Y-115393947D01*
X94229794Y-115486773D01*
X94229785Y-115486777D01*
X94019706Y-115608067D01*
X93827263Y-115755733D01*
X93827256Y-115755739D01*
X93655739Y-115927256D01*
X93655733Y-115927263D01*
X93508067Y-116119706D01*
X93386777Y-116329785D01*
X93386773Y-116329794D01*
X93293947Y-116553895D01*
X93231161Y-116788214D01*
X93199500Y-117028711D01*
X93199500Y-117271288D01*
X90900500Y-117271288D01*
X90900500Y-109250000D01*
X94573179Y-109250000D01*
X94592424Y-109469976D01*
X94592426Y-109469986D01*
X94649575Y-109683270D01*
X94649580Y-109683284D01*
X94742898Y-109883405D01*
X94742901Y-109883411D01*
X94788258Y-109948187D01*
X94788259Y-109948188D01*
X95459000Y-109277447D01*
X95459000Y-109300160D01*
X95484964Y-109397061D01*
X95535124Y-109483940D01*
X95606060Y-109554876D01*
X95692939Y-109605036D01*
X95789840Y-109631000D01*
X95812553Y-109631000D01*
X95141810Y-110301740D01*
X95206590Y-110347099D01*
X95206592Y-110347100D01*
X95406715Y-110440419D01*
X95406729Y-110440424D01*
X95620013Y-110497573D01*
X95620023Y-110497575D01*
X95839999Y-110516821D01*
X95840001Y-110516821D01*
X96059976Y-110497575D01*
X96059986Y-110497573D01*
X96273270Y-110440424D01*
X96273284Y-110440419D01*
X96473407Y-110347100D01*
X96473417Y-110347094D01*
X96538188Y-110301741D01*
X95867448Y-109631000D01*
X95890160Y-109631000D01*
X95987061Y-109605036D01*
X96073940Y-109554876D01*
X96144876Y-109483940D01*
X96195036Y-109397061D01*
X96221000Y-109300160D01*
X96221000Y-109277447D01*
X96891741Y-109948188D01*
X96937094Y-109883417D01*
X96937100Y-109883407D01*
X97030419Y-109683284D01*
X97030424Y-109683270D01*
X97087573Y-109469986D01*
X97087575Y-109469976D01*
X97106821Y-109250002D01*
X102192677Y-109250002D01*
X102211929Y-109470062D01*
X102211930Y-109470070D01*
X102269104Y-109683445D01*
X102269105Y-109683447D01*
X102269106Y-109683450D01*
X102273770Y-109693451D01*
X102362466Y-109883662D01*
X102362468Y-109883666D01*
X102489170Y-110064615D01*
X102489175Y-110064621D01*
X102645378Y-110220824D01*
X102645384Y-110220829D01*
X102826333Y-110347531D01*
X102826335Y-110347532D01*
X102826338Y-110347534D01*
X103026550Y-110440894D01*
X103239932Y-110498070D01*
X103397123Y-110511822D01*
X103459998Y-110517323D01*
X103460000Y-110517323D01*
X103460002Y-110517323D01*
X103515017Y-110512509D01*
X103680068Y-110498070D01*
X103893450Y-110440894D01*
X104093662Y-110347534D01*
X104185934Y-110282924D01*
X104252139Y-110260598D01*
X104257056Y-110260500D01*
X110238662Y-110260500D01*
X110305701Y-110280185D01*
X110309767Y-110282912D01*
X110416338Y-110357534D01*
X110616550Y-110450894D01*
X110829932Y-110508070D01*
X110987123Y-110521822D01*
X111049998Y-110527323D01*
X111050000Y-110527323D01*
X111050002Y-110527323D01*
X111105017Y-110522509D01*
X111270068Y-110508070D01*
X111483450Y-110450894D01*
X111683662Y-110357534D01*
X111864620Y-110230826D01*
X112020826Y-110074620D01*
X112147534Y-109893662D01*
X112240894Y-109693450D01*
X112298070Y-109480068D01*
X112317323Y-109260000D01*
X112316448Y-109250002D01*
X112298070Y-109039937D01*
X112298070Y-109039932D01*
X112240894Y-108826550D01*
X112147534Y-108626339D01*
X112020826Y-108445380D01*
X111864620Y-108289174D01*
X111864616Y-108289171D01*
X111864615Y-108289170D01*
X111683666Y-108162468D01*
X111683662Y-108162466D01*
X111662215Y-108152465D01*
X111483450Y-108069106D01*
X111483447Y-108069105D01*
X111483445Y-108069104D01*
X111270070Y-108011930D01*
X111270062Y-108011929D01*
X111050002Y-107992677D01*
X111049998Y-107992677D01*
X110829937Y-108011929D01*
X110829929Y-108011930D01*
X110616554Y-108069104D01*
X110616548Y-108069107D01*
X110416340Y-108162465D01*
X110416338Y-108162466D01*
X110365222Y-108198258D01*
X110309784Y-108237075D01*
X110243580Y-108259402D01*
X110238663Y-108259500D01*
X104285620Y-108259500D01*
X104218581Y-108239815D01*
X104214497Y-108237075D01*
X104093662Y-108152466D01*
X104093660Y-108152465D01*
X104071214Y-108141998D01*
X103893450Y-108059106D01*
X103893447Y-108059105D01*
X103893445Y-108059104D01*
X103680070Y-108001930D01*
X103680062Y-108001929D01*
X103460002Y-107982677D01*
X103459998Y-107982677D01*
X103239937Y-108001929D01*
X103239929Y-108001930D01*
X103026554Y-108059104D01*
X103026548Y-108059107D01*
X102826340Y-108152465D01*
X102826338Y-108152466D01*
X102645377Y-108279175D01*
X102489175Y-108435377D01*
X102362466Y-108616338D01*
X102362465Y-108616340D01*
X102269107Y-108816548D01*
X102269104Y-108816554D01*
X102211930Y-109029929D01*
X102211929Y-109029937D01*
X102192677Y-109249997D01*
X102192677Y-109250002D01*
X97106821Y-109250002D01*
X97106821Y-109250000D01*
X97106821Y-109249999D01*
X97087575Y-109030023D01*
X97087573Y-109030013D01*
X97030424Y-108816729D01*
X97030420Y-108816720D01*
X96937096Y-108616586D01*
X96891741Y-108551811D01*
X96891740Y-108551810D01*
X96221000Y-109222551D01*
X96221000Y-109199840D01*
X96195036Y-109102939D01*
X96144876Y-109016060D01*
X96073940Y-108945124D01*
X95987061Y-108894964D01*
X95890160Y-108869000D01*
X95867448Y-108869000D01*
X96538188Y-108198259D01*
X96538187Y-108198258D01*
X96473411Y-108152901D01*
X96473405Y-108152898D01*
X96273284Y-108059580D01*
X96273270Y-108059575D01*
X96059986Y-108002426D01*
X96059976Y-108002424D01*
X95840001Y-107983179D01*
X95839999Y-107983179D01*
X95620023Y-108002424D01*
X95620013Y-108002426D01*
X95406729Y-108059575D01*
X95406720Y-108059579D01*
X95206590Y-108152901D01*
X95141811Y-108198258D01*
X95812553Y-108869000D01*
X95789840Y-108869000D01*
X95692939Y-108894964D01*
X95606060Y-108945124D01*
X95535124Y-109016060D01*
X95484964Y-109102939D01*
X95459000Y-109199840D01*
X95459000Y-109222553D01*
X94788258Y-108551811D01*
X94742901Y-108616590D01*
X94649579Y-108816720D01*
X94649575Y-108816729D01*
X94592426Y-109030013D01*
X94592424Y-109030023D01*
X94573179Y-109249999D01*
X94573179Y-109250000D01*
X90900500Y-109250000D01*
X90900500Y-96098543D01*
X99599499Y-96098543D01*
X99637947Y-96291829D01*
X99637950Y-96291839D01*
X99713364Y-96473907D01*
X99713371Y-96473920D01*
X99822860Y-96637781D01*
X99822863Y-96637785D01*
X99966537Y-96781459D01*
X99966559Y-96781479D01*
X108069735Y-104884655D01*
X108069764Y-104884686D01*
X108212214Y-105027136D01*
X108212218Y-105027139D01*
X108376079Y-105136628D01*
X108376092Y-105136635D01*
X108504833Y-105189961D01*
X108547744Y-105207735D01*
X108558164Y-105212051D01*
X108654812Y-105231275D01*
X108703135Y-105240887D01*
X108751458Y-105250500D01*
X108751459Y-105250500D01*
X197098542Y-105250500D01*
X197117870Y-105246655D01*
X197195188Y-105231275D01*
X197291836Y-105212051D01*
X197345165Y-105189961D01*
X197473914Y-105136632D01*
X197637782Y-105027139D01*
X197777139Y-104887782D01*
X197777139Y-104887780D01*
X197787347Y-104877573D01*
X197787348Y-104877570D01*
X207327140Y-95337781D01*
X207436632Y-95173914D01*
X207512052Y-94991835D01*
X207550501Y-94798540D01*
X207550501Y-94601459D01*
X207550501Y-94596349D01*
X207550500Y-94596323D01*
X207550500Y-94150000D01*
X208943179Y-94150000D01*
X208962424Y-94369976D01*
X208962426Y-94369986D01*
X209019575Y-94583270D01*
X209019580Y-94583284D01*
X209112898Y-94783405D01*
X209112901Y-94783411D01*
X209158258Y-94848187D01*
X209158259Y-94848188D01*
X209829000Y-94177447D01*
X209829000Y-94200160D01*
X209854964Y-94297061D01*
X209905124Y-94383940D01*
X209976060Y-94454876D01*
X210062939Y-94505036D01*
X210159840Y-94531000D01*
X210182553Y-94531000D01*
X209511810Y-95201740D01*
X209576590Y-95247099D01*
X209576592Y-95247100D01*
X209776715Y-95340419D01*
X209776729Y-95340424D01*
X209990013Y-95397573D01*
X209990023Y-95397575D01*
X210209999Y-95416821D01*
X210210001Y-95416821D01*
X210429976Y-95397575D01*
X210429986Y-95397573D01*
X210643270Y-95340424D01*
X210643284Y-95340419D01*
X210843407Y-95247100D01*
X210843417Y-95247094D01*
X210908188Y-95201741D01*
X210237448Y-94531000D01*
X210260160Y-94531000D01*
X210357061Y-94505036D01*
X210443940Y-94454876D01*
X210514876Y-94383940D01*
X210565036Y-94297061D01*
X210591000Y-94200160D01*
X210591000Y-94177447D01*
X211261741Y-94848188D01*
X211307094Y-94783417D01*
X211307100Y-94783407D01*
X211400419Y-94583284D01*
X211400424Y-94583270D01*
X211457573Y-94369986D01*
X211457575Y-94369976D01*
X211476821Y-94150000D01*
X211476821Y-94149999D01*
X211457575Y-93930023D01*
X211457573Y-93930013D01*
X211400424Y-93716729D01*
X211400420Y-93716720D01*
X211307096Y-93516586D01*
X211261741Y-93451811D01*
X211261740Y-93451810D01*
X210591000Y-94122551D01*
X210591000Y-94099840D01*
X210565036Y-94002939D01*
X210514876Y-93916060D01*
X210443940Y-93845124D01*
X210357061Y-93794964D01*
X210260160Y-93769000D01*
X210237448Y-93769000D01*
X210908188Y-93098259D01*
X210908187Y-93098258D01*
X210843411Y-93052901D01*
X210843405Y-93052898D01*
X210643284Y-92959580D01*
X210643270Y-92959575D01*
X210429986Y-92902426D01*
X210429976Y-92902424D01*
X210210001Y-92883179D01*
X210209999Y-92883179D01*
X209990023Y-92902424D01*
X209990013Y-92902426D01*
X209776729Y-92959575D01*
X209776720Y-92959579D01*
X209576590Y-93052901D01*
X209511811Y-93098258D01*
X210182553Y-93769000D01*
X210159840Y-93769000D01*
X210062939Y-93794964D01*
X209976060Y-93845124D01*
X209905124Y-93916060D01*
X209854964Y-94002939D01*
X209829000Y-94099840D01*
X209829000Y-94122553D01*
X209158258Y-93451811D01*
X209112901Y-93516590D01*
X209019579Y-93716720D01*
X209019575Y-93716729D01*
X208962426Y-93930013D01*
X208962424Y-93930023D01*
X208943179Y-94149999D01*
X208943179Y-94150000D01*
X207550500Y-94150000D01*
X207550500Y-83350000D01*
X208893179Y-83350000D01*
X208912424Y-83569976D01*
X208912426Y-83569986D01*
X208969575Y-83783270D01*
X208969580Y-83783284D01*
X209062898Y-83983405D01*
X209062901Y-83983411D01*
X209108258Y-84048187D01*
X209108259Y-84048188D01*
X209779000Y-83377447D01*
X209779000Y-83400160D01*
X209804964Y-83497061D01*
X209855124Y-83583940D01*
X209926060Y-83654876D01*
X210012939Y-83705036D01*
X210109840Y-83731000D01*
X210132553Y-83731000D01*
X209461810Y-84401740D01*
X209526590Y-84447099D01*
X209526592Y-84447100D01*
X209726715Y-84540419D01*
X209726729Y-84540424D01*
X209940013Y-84597573D01*
X209940023Y-84597575D01*
X210159999Y-84616821D01*
X210160001Y-84616821D01*
X210379976Y-84597575D01*
X210379986Y-84597573D01*
X210593270Y-84540424D01*
X210593284Y-84540419D01*
X210793407Y-84447100D01*
X210793417Y-84447094D01*
X210858188Y-84401741D01*
X210187448Y-83731000D01*
X210210160Y-83731000D01*
X210307061Y-83705036D01*
X210393940Y-83654876D01*
X210464876Y-83583940D01*
X210515036Y-83497061D01*
X210541000Y-83400160D01*
X210541000Y-83377447D01*
X211211741Y-84048188D01*
X211257094Y-83983417D01*
X211257100Y-83983407D01*
X211350419Y-83783284D01*
X211350424Y-83783270D01*
X211407573Y-83569986D01*
X211407575Y-83569976D01*
X211426821Y-83350000D01*
X211426821Y-83349999D01*
X211407575Y-83130023D01*
X211407573Y-83130013D01*
X211350424Y-82916729D01*
X211350420Y-82916720D01*
X211257096Y-82716586D01*
X211211741Y-82651811D01*
X211211740Y-82651810D01*
X210541000Y-83322551D01*
X210541000Y-83299840D01*
X210515036Y-83202939D01*
X210464876Y-83116060D01*
X210393940Y-83045124D01*
X210307061Y-82994964D01*
X210210160Y-82969000D01*
X210187448Y-82969000D01*
X210858188Y-82298259D01*
X210858187Y-82298258D01*
X210793411Y-82252901D01*
X210793405Y-82252898D01*
X210593284Y-82159580D01*
X210593270Y-82159575D01*
X210379986Y-82102426D01*
X210379976Y-82102424D01*
X210160001Y-82083179D01*
X210159999Y-82083179D01*
X209940023Y-82102424D01*
X209940013Y-82102426D01*
X209726729Y-82159575D01*
X209726720Y-82159579D01*
X209526590Y-82252901D01*
X209461811Y-82298258D01*
X210132553Y-82969000D01*
X210109840Y-82969000D01*
X210012939Y-82994964D01*
X209926060Y-83045124D01*
X209855124Y-83116060D01*
X209804964Y-83202939D01*
X209779000Y-83299840D01*
X209779000Y-83322552D01*
X209108258Y-82651811D01*
X209062901Y-82716590D01*
X208969579Y-82916720D01*
X208969575Y-82916729D01*
X208912426Y-83130013D01*
X208912424Y-83130023D01*
X208893179Y-83349999D01*
X208893179Y-83350000D01*
X207550500Y-83350000D01*
X207550500Y-80001456D01*
X207522362Y-79860000D01*
X207518393Y-79840047D01*
X207512051Y-79808164D01*
X207468269Y-79702466D01*
X207468268Y-79702464D01*
X207436635Y-79626093D01*
X207436634Y-79626092D01*
X207436632Y-79626086D01*
X207347529Y-79492734D01*
X207347529Y-79492733D01*
X207327141Y-79462220D01*
X207327135Y-79462213D01*
X205287784Y-77422863D01*
X205287780Y-77422860D01*
X205123920Y-77313372D01*
X205123910Y-77313367D01*
X204941836Y-77237949D01*
X204941828Y-77237947D01*
X204748543Y-77199500D01*
X204748540Y-77199500D01*
X204551460Y-77199500D01*
X204551457Y-77199500D01*
X204358171Y-77237947D01*
X204358163Y-77237949D01*
X204339323Y-77245753D01*
X204328922Y-77250061D01*
X204281471Y-77259500D01*
X192064500Y-77259500D01*
X191997461Y-77239815D01*
X191951706Y-77187011D01*
X191940500Y-77135500D01*
X191940500Y-73171337D01*
X191960185Y-73104298D01*
X191962896Y-73100254D01*
X192037534Y-72993662D01*
X192130894Y-72793450D01*
X192188070Y-72580068D01*
X192207323Y-72360000D01*
X192205404Y-72338070D01*
X192198296Y-72256819D01*
X192188070Y-72139932D01*
X192130894Y-71926550D01*
X192037534Y-71726339D01*
X191974180Y-71635859D01*
X191910827Y-71545381D01*
X191888891Y-71523445D01*
X191754620Y-71389174D01*
X191754616Y-71389171D01*
X191754615Y-71389170D01*
X191573666Y-71262468D01*
X191573658Y-71262464D01*
X191444811Y-71202382D01*
X191392371Y-71156210D01*
X191373219Y-71089017D01*
X191393435Y-71022135D01*
X191444811Y-70977618D01*
X191494677Y-70954365D01*
X191573662Y-70917534D01*
X191754620Y-70790826D01*
X191910826Y-70634620D01*
X192037534Y-70453662D01*
X192130894Y-70253450D01*
X192188070Y-70040068D01*
X192205269Y-69843477D01*
X192207323Y-69820002D01*
X192207323Y-69819997D01*
X192200103Y-69737474D01*
X192188070Y-69599932D01*
X192130894Y-69386550D01*
X192037534Y-69186339D01*
X191974180Y-69095859D01*
X191910827Y-69005381D01*
X191910826Y-69005380D01*
X191754620Y-68849174D01*
X191754616Y-68849171D01*
X191754615Y-68849170D01*
X191573666Y-68722468D01*
X191573658Y-68722464D01*
X191444811Y-68662382D01*
X191392371Y-68616210D01*
X191373219Y-68549017D01*
X191393435Y-68482135D01*
X191444811Y-68437618D01*
X191462668Y-68429291D01*
X191573662Y-68377534D01*
X191754620Y-68250826D01*
X191910826Y-68094620D01*
X192037534Y-67913662D01*
X192130894Y-67713450D01*
X192188070Y-67500068D01*
X192207323Y-67280000D01*
X192188070Y-67059932D01*
X192130894Y-66846550D01*
X192037534Y-66646339D01*
X191974180Y-66555859D01*
X191910827Y-66465381D01*
X191910826Y-66465380D01*
X191754620Y-66309174D01*
X191754616Y-66309171D01*
X191754615Y-66309170D01*
X191573666Y-66182468D01*
X191573662Y-66182466D01*
X191444218Y-66122105D01*
X191391779Y-66075932D01*
X191372627Y-66008739D01*
X191392843Y-65941858D01*
X191444219Y-65897340D01*
X191573416Y-65837095D01*
X191573417Y-65837094D01*
X191638188Y-65791741D01*
X190967448Y-65121000D01*
X190990160Y-65121000D01*
X191087061Y-65095036D01*
X191173940Y-65044876D01*
X191244876Y-64973940D01*
X191295036Y-64887061D01*
X191321000Y-64790160D01*
X191321000Y-64767447D01*
X191991741Y-65438188D01*
X192037094Y-65373417D01*
X192037100Y-65373407D01*
X192130419Y-65173284D01*
X192130424Y-65173270D01*
X192187573Y-64959986D01*
X192187575Y-64959976D01*
X192206821Y-64740000D01*
X192206821Y-64739999D01*
X192187575Y-64520023D01*
X192187573Y-64520013D01*
X192130424Y-64306729D01*
X192130420Y-64306720D01*
X192037096Y-64106586D01*
X191991741Y-64041811D01*
X191991740Y-64041810D01*
X191321000Y-64712551D01*
X191321000Y-64689840D01*
X191295036Y-64592939D01*
X191244876Y-64506060D01*
X191173940Y-64435124D01*
X191087061Y-64384964D01*
X190990160Y-64359000D01*
X190967448Y-64359000D01*
X191638188Y-63688259D01*
X191638187Y-63688258D01*
X191573411Y-63642901D01*
X191573405Y-63642898D01*
X191373284Y-63549580D01*
X191373270Y-63549575D01*
X191159986Y-63492426D01*
X191159976Y-63492424D01*
X190940001Y-63473179D01*
X190939999Y-63473179D01*
X190720023Y-63492424D01*
X190720013Y-63492426D01*
X190506729Y-63549575D01*
X190506720Y-63549579D01*
X190306590Y-63642901D01*
X190241811Y-63688258D01*
X190912553Y-64359000D01*
X190889840Y-64359000D01*
X190792939Y-64384964D01*
X190706060Y-64435124D01*
X190635124Y-64506060D01*
X190584964Y-64592939D01*
X190559000Y-64689840D01*
X190559000Y-64712553D01*
X189888258Y-64041811D01*
X189842901Y-64106590D01*
X189749579Y-64306720D01*
X189749575Y-64306729D01*
X189692426Y-64520013D01*
X189692424Y-64520023D01*
X189673179Y-64739999D01*
X189673179Y-64740000D01*
X189692424Y-64959976D01*
X189692426Y-64959986D01*
X189749575Y-65173270D01*
X189749580Y-65173284D01*
X189842898Y-65373405D01*
X189842901Y-65373411D01*
X189888258Y-65438187D01*
X189888259Y-65438188D01*
X190559000Y-64767447D01*
X190559000Y-64790160D01*
X190584964Y-64887061D01*
X190635124Y-64973940D01*
X190706060Y-65044876D01*
X190792939Y-65095036D01*
X190889840Y-65121000D01*
X190912553Y-65121000D01*
X190241810Y-65791740D01*
X190306589Y-65837098D01*
X190435781Y-65897342D01*
X190488220Y-65943514D01*
X190507372Y-66010708D01*
X190487156Y-66077589D01*
X190435781Y-66122106D01*
X190306340Y-66182465D01*
X190306338Y-66182466D01*
X190256912Y-66217075D01*
X190190705Y-66239402D01*
X190185789Y-66239500D01*
X187855783Y-66239500D01*
X187788744Y-66219815D01*
X187768102Y-66203181D01*
X180474209Y-58909289D01*
X180474206Y-58909285D01*
X180474206Y-58909286D01*
X180467139Y-58902219D01*
X180467139Y-58902218D01*
X180327782Y-58762861D01*
X180327781Y-58762860D01*
X180327780Y-58762859D01*
X180163920Y-58653371D01*
X180163911Y-58653366D01*
X180081353Y-58619170D01*
X180035165Y-58600038D01*
X179981836Y-58577949D01*
X179981832Y-58577948D01*
X179981828Y-58577946D01*
X179885188Y-58558724D01*
X179788544Y-58539500D01*
X179788541Y-58539500D01*
X176837588Y-58539500D01*
X176770549Y-58519815D01*
X176766465Y-58517075D01*
X176753874Y-58508259D01*
X176612734Y-58409432D01*
X176554724Y-58382381D01*
X176502285Y-58336210D01*
X176483133Y-58269017D01*
X176503348Y-58202135D01*
X176554725Y-58157618D01*
X176612734Y-58130568D01*
X176766465Y-58022924D01*
X176832671Y-58000598D01*
X176837588Y-58000500D01*
X190050099Y-58000500D01*
X190117138Y-58020185D01*
X190121222Y-58022925D01*
X190256333Y-58117531D01*
X190256335Y-58117532D01*
X190256338Y-58117534D01*
X190320676Y-58147535D01*
X190385781Y-58177894D01*
X190438220Y-58224066D01*
X190457372Y-58291260D01*
X190437156Y-58358141D01*
X190385781Y-58402658D01*
X190256590Y-58462901D01*
X190191811Y-58508258D01*
X190862553Y-59179000D01*
X190839840Y-59179000D01*
X190742939Y-59204964D01*
X190656060Y-59255124D01*
X190585124Y-59326060D01*
X190534964Y-59412939D01*
X190509000Y-59509840D01*
X190509000Y-59532553D01*
X189838258Y-58861811D01*
X189792901Y-58926590D01*
X189699579Y-59126720D01*
X189699575Y-59126729D01*
X189642426Y-59340013D01*
X189642424Y-59340023D01*
X189623179Y-59559999D01*
X189623179Y-59560000D01*
X189642424Y-59779976D01*
X189642426Y-59779986D01*
X189699575Y-59993270D01*
X189699580Y-59993284D01*
X189792898Y-60193405D01*
X189792901Y-60193411D01*
X189838258Y-60258187D01*
X189838259Y-60258188D01*
X190509000Y-59587447D01*
X190509000Y-59610160D01*
X190534964Y-59707061D01*
X190585124Y-59793940D01*
X190656060Y-59864876D01*
X190742939Y-59915036D01*
X190839840Y-59941000D01*
X190862553Y-59941000D01*
X190191810Y-60611740D01*
X190256590Y-60657099D01*
X190256592Y-60657100D01*
X190456715Y-60750419D01*
X190456729Y-60750424D01*
X190670013Y-60807573D01*
X190670023Y-60807575D01*
X190889999Y-60826821D01*
X190890001Y-60826821D01*
X191109976Y-60807575D01*
X191109986Y-60807573D01*
X191323270Y-60750424D01*
X191323284Y-60750419D01*
X191523407Y-60657100D01*
X191523417Y-60657094D01*
X191588188Y-60611741D01*
X190917448Y-59941000D01*
X190940160Y-59941000D01*
X191037061Y-59915036D01*
X191123940Y-59864876D01*
X191194876Y-59793940D01*
X191245036Y-59707061D01*
X191271000Y-59610160D01*
X191271000Y-59587447D01*
X191941741Y-60258188D01*
X191987094Y-60193417D01*
X191987100Y-60193407D01*
X192080419Y-59993284D01*
X192080424Y-59993270D01*
X192137573Y-59779986D01*
X192137575Y-59779976D01*
X192156821Y-59560000D01*
X192156821Y-59559999D01*
X192137575Y-59340023D01*
X192137573Y-59340013D01*
X192080424Y-59126729D01*
X192080420Y-59126720D01*
X191987096Y-58926586D01*
X191941741Y-58861811D01*
X191941740Y-58861810D01*
X191271000Y-59532551D01*
X191271000Y-59509840D01*
X191245036Y-59412939D01*
X191194876Y-59326060D01*
X191123940Y-59255124D01*
X191037061Y-59204964D01*
X190940160Y-59179000D01*
X190917448Y-59179000D01*
X191588188Y-58508259D01*
X191588187Y-58508258D01*
X191523411Y-58462901D01*
X191523405Y-58462898D01*
X191394219Y-58402658D01*
X191341779Y-58356486D01*
X191322627Y-58289293D01*
X191342843Y-58222411D01*
X191394219Y-58177894D01*
X191437701Y-58157618D01*
X191523662Y-58117534D01*
X191704620Y-57990826D01*
X191860826Y-57834620D01*
X191987534Y-57653662D01*
X192080894Y-57453450D01*
X192138070Y-57240068D01*
X192157323Y-57020000D01*
X192155573Y-57000001D01*
X192140695Y-56829937D01*
X192138070Y-56799932D01*
X192080894Y-56586550D01*
X191987534Y-56386339D01*
X191860826Y-56205380D01*
X191704620Y-56049174D01*
X191704616Y-56049171D01*
X191704615Y-56049170D01*
X191523666Y-55922468D01*
X191523658Y-55922464D01*
X191394811Y-55862382D01*
X191342371Y-55816210D01*
X191323219Y-55749017D01*
X191343435Y-55682135D01*
X191394811Y-55637618D01*
X191437701Y-55617618D01*
X191523662Y-55577534D01*
X191704620Y-55450826D01*
X191860826Y-55294620D01*
X191987534Y-55113662D01*
X192080894Y-54913450D01*
X192138070Y-54700068D01*
X192157323Y-54480000D01*
X192155573Y-54460001D01*
X192140695Y-54289937D01*
X192138070Y-54259932D01*
X192080894Y-54046550D01*
X191987534Y-53846339D01*
X191860826Y-53665380D01*
X191704620Y-53509174D01*
X191704616Y-53509171D01*
X191704615Y-53509170D01*
X191523666Y-53382468D01*
X191523658Y-53382464D01*
X191394811Y-53322382D01*
X191342371Y-53276210D01*
X191323219Y-53209017D01*
X191343435Y-53142135D01*
X191394811Y-53097618D01*
X191437701Y-53077618D01*
X191523662Y-53037534D01*
X191704620Y-52910826D01*
X191860826Y-52754620D01*
X191987534Y-52573662D01*
X192080894Y-52373450D01*
X192138070Y-52160068D01*
X192157323Y-51940000D01*
X192155573Y-51920001D01*
X192140695Y-51749937D01*
X192138070Y-51719932D01*
X192080894Y-51506550D01*
X191987534Y-51306339D01*
X191860826Y-51125380D01*
X191704620Y-50969174D01*
X191704616Y-50969171D01*
X191704615Y-50969170D01*
X191523666Y-50842468D01*
X191523662Y-50842466D01*
X191459146Y-50812382D01*
X191323450Y-50749106D01*
X191323447Y-50749105D01*
X191323445Y-50749104D01*
X191110070Y-50691930D01*
X191110062Y-50691929D01*
X190890002Y-50672677D01*
X190889998Y-50672677D01*
X190669937Y-50691929D01*
X190669929Y-50691930D01*
X190456554Y-50749104D01*
X190456548Y-50749107D01*
X190256340Y-50842465D01*
X190256338Y-50842466D01*
X190213494Y-50872466D01*
X190149784Y-50917075D01*
X190083580Y-50939402D01*
X190078663Y-50939500D01*
X182705782Y-50939500D01*
X182638743Y-50919815D01*
X182618101Y-50903181D01*
X178581479Y-46866559D01*
X178581459Y-46866537D01*
X178434686Y-46719764D01*
X178434655Y-46719735D01*
X178081479Y-46366559D01*
X178081459Y-46366537D01*
X177937782Y-46222860D01*
X177797248Y-46128959D01*
X177778458Y-46113538D01*
X175981479Y-44316559D01*
X175981459Y-44316537D01*
X175837785Y-44172863D01*
X175837781Y-44172860D01*
X175673920Y-44063371D01*
X175673911Y-44063366D01*
X175601315Y-44033296D01*
X175545165Y-44010038D01*
X175491836Y-43987949D01*
X175491832Y-43987948D01*
X175491828Y-43987946D01*
X175395188Y-43968724D01*
X175298544Y-43949500D01*
X175298541Y-43949500D01*
X115115783Y-43949500D01*
X115048744Y-43929815D01*
X115028102Y-43913181D01*
X114286209Y-43171288D01*
X209299500Y-43171288D01*
X209331161Y-43411785D01*
X209393947Y-43646104D01*
X209423040Y-43716340D01*
X209486776Y-43870212D01*
X209608064Y-44080289D01*
X209608066Y-44080292D01*
X209608067Y-44080293D01*
X209755733Y-44272736D01*
X209755739Y-44272743D01*
X209927256Y-44444260D01*
X209927262Y-44444265D01*
X210119711Y-44591936D01*
X210329788Y-44713224D01*
X210553900Y-44806054D01*
X210788211Y-44868838D01*
X210968586Y-44892584D01*
X211028711Y-44900500D01*
X211028712Y-44900500D01*
X211271289Y-44900500D01*
X211319388Y-44894167D01*
X211511789Y-44868838D01*
X211746100Y-44806054D01*
X211970212Y-44713224D01*
X212180289Y-44591936D01*
X212372738Y-44444265D01*
X212544265Y-44272738D01*
X212691936Y-44080289D01*
X212813224Y-43870212D01*
X212906054Y-43646100D01*
X212968838Y-43411789D01*
X213000500Y-43171288D01*
X213000500Y-42928712D01*
X212968838Y-42688211D01*
X212906054Y-42453900D01*
X212813224Y-42229788D01*
X212691936Y-42019711D01*
X212544265Y-41827262D01*
X212544260Y-41827256D01*
X212372743Y-41655739D01*
X212372736Y-41655733D01*
X212180293Y-41508067D01*
X212180292Y-41508066D01*
X212180289Y-41508064D01*
X211970212Y-41386776D01*
X211945534Y-41376554D01*
X211746104Y-41293947D01*
X211511785Y-41231161D01*
X211271289Y-41199500D01*
X211271288Y-41199500D01*
X211028712Y-41199500D01*
X211028711Y-41199500D01*
X210788214Y-41231161D01*
X210553895Y-41293947D01*
X210329794Y-41386773D01*
X210329785Y-41386777D01*
X210119706Y-41508067D01*
X209927263Y-41655733D01*
X209927256Y-41655739D01*
X209755739Y-41827256D01*
X209755733Y-41827263D01*
X209608067Y-42019706D01*
X209486777Y-42229785D01*
X209486773Y-42229794D01*
X209393947Y-42453895D01*
X209331161Y-42688214D01*
X209299500Y-42928711D01*
X209299500Y-43171288D01*
X114286209Y-43171288D01*
X112294209Y-41179289D01*
X112294206Y-41179285D01*
X112294206Y-41179286D01*
X112287139Y-41172219D01*
X112287139Y-41172218D01*
X112147782Y-41032861D01*
X112147781Y-41032860D01*
X112147780Y-41032859D01*
X111983920Y-40923371D01*
X111983911Y-40923366D01*
X111911315Y-40893296D01*
X111855165Y-40870038D01*
X111801836Y-40847949D01*
X111801832Y-40847948D01*
X111801828Y-40847946D01*
X111705188Y-40828724D01*
X111608544Y-40809500D01*
X111608541Y-40809500D01*
X109161338Y-40809500D01*
X109094299Y-40789815D01*
X109090232Y-40787087D01*
X108983662Y-40712466D01*
X108783450Y-40619106D01*
X108783447Y-40619105D01*
X108783445Y-40619104D01*
X108570070Y-40561930D01*
X108570062Y-40561929D01*
X108350002Y-40542677D01*
X108349998Y-40542677D01*
X108129937Y-40561929D01*
X108129929Y-40561930D01*
X107916554Y-40619104D01*
X107916548Y-40619107D01*
X107716340Y-40712465D01*
X107716338Y-40712466D01*
X107535377Y-40839175D01*
X107379175Y-40995377D01*
X107252466Y-41176338D01*
X107252465Y-41176340D01*
X107159107Y-41376548D01*
X107159104Y-41376554D01*
X107101930Y-41589929D01*
X107101929Y-41589937D01*
X107082677Y-41809997D01*
X107082677Y-41810002D01*
X107101929Y-42030062D01*
X107101930Y-42030070D01*
X107159104Y-42243445D01*
X107159105Y-42243447D01*
X107159106Y-42243450D01*
X107252466Y-42443662D01*
X107252468Y-42443666D01*
X107379170Y-42624615D01*
X107379175Y-42624621D01*
X107535378Y-42780824D01*
X107535384Y-42780829D01*
X107716333Y-42907531D01*
X107716335Y-42907532D01*
X107716338Y-42907534D01*
X107761755Y-42928712D01*
X107845189Y-42967618D01*
X107897628Y-43013790D01*
X107916780Y-43080984D01*
X107896564Y-43147865D01*
X107845189Y-43192382D01*
X107716340Y-43252465D01*
X107716338Y-43252466D01*
X107535377Y-43379175D01*
X107379175Y-43535377D01*
X107252466Y-43716338D01*
X107252465Y-43716340D01*
X107159107Y-43916548D01*
X107159104Y-43916554D01*
X107101930Y-44129929D01*
X107101929Y-44129937D01*
X107082677Y-44349997D01*
X107082677Y-44350002D01*
X107101929Y-44570062D01*
X107101930Y-44570070D01*
X107159104Y-44783445D01*
X107159105Y-44783447D01*
X107159106Y-44783450D01*
X107198923Y-44868838D01*
X107252466Y-44983662D01*
X107252468Y-44983666D01*
X107379170Y-45164615D01*
X107379175Y-45164621D01*
X107535378Y-45320824D01*
X107535384Y-45320829D01*
X107716333Y-45447531D01*
X107716335Y-45447532D01*
X107716338Y-45447534D01*
X107845781Y-45507894D01*
X107898220Y-45554066D01*
X107917372Y-45621260D01*
X107897156Y-45688141D01*
X107845781Y-45732658D01*
X107716590Y-45792901D01*
X107651811Y-45838258D01*
X108322553Y-46509000D01*
X108299840Y-46509000D01*
X108202939Y-46534964D01*
X108116060Y-46585124D01*
X108045124Y-46656060D01*
X107994964Y-46742939D01*
X107969000Y-46839840D01*
X107969000Y-46862553D01*
X107298258Y-46191811D01*
X107252901Y-46256590D01*
X107159579Y-46456720D01*
X107159575Y-46456729D01*
X107102426Y-46670013D01*
X107102424Y-46670023D01*
X107083179Y-46889999D01*
X107083179Y-46890000D01*
X107102424Y-47109976D01*
X107102426Y-47109986D01*
X107159575Y-47323270D01*
X107159580Y-47323284D01*
X107252898Y-47523405D01*
X107252901Y-47523411D01*
X107298258Y-47588187D01*
X107298259Y-47588188D01*
X107969000Y-46917447D01*
X107969000Y-46940160D01*
X107994964Y-47037061D01*
X108045124Y-47123940D01*
X108116060Y-47194876D01*
X108202939Y-47245036D01*
X108299840Y-47271000D01*
X108322553Y-47271000D01*
X107651810Y-47941740D01*
X107716589Y-47987098D01*
X107845781Y-48047342D01*
X107898220Y-48093514D01*
X107917372Y-48160708D01*
X107897156Y-48227589D01*
X107845781Y-48272106D01*
X107716340Y-48332465D01*
X107716338Y-48332466D01*
X107535377Y-48459175D01*
X107379175Y-48615377D01*
X107252466Y-48796338D01*
X107252465Y-48796340D01*
X107159107Y-48996548D01*
X107159104Y-48996554D01*
X107101930Y-49209929D01*
X107101929Y-49209937D01*
X107082677Y-49429997D01*
X107082677Y-49430002D01*
X107101929Y-49650062D01*
X107101930Y-49650070D01*
X107159104Y-49863445D01*
X107159105Y-49863447D01*
X107159106Y-49863450D01*
X107235883Y-50028100D01*
X107252466Y-50063662D01*
X107252468Y-50063666D01*
X107379170Y-50244615D01*
X107379175Y-50244621D01*
X107535378Y-50400824D01*
X107535384Y-50400829D01*
X107716333Y-50527531D01*
X107716335Y-50527532D01*
X107716338Y-50527534D01*
X107833431Y-50582135D01*
X107845189Y-50587618D01*
X107897628Y-50633790D01*
X107916780Y-50700984D01*
X107896564Y-50767865D01*
X107845189Y-50812382D01*
X107716340Y-50872465D01*
X107716338Y-50872466D01*
X107535377Y-50999175D01*
X107379175Y-51155377D01*
X107252466Y-51336338D01*
X107252465Y-51336340D01*
X107159107Y-51536548D01*
X107159104Y-51536554D01*
X107101930Y-51749929D01*
X107101929Y-51749937D01*
X107082677Y-51969997D01*
X107082677Y-51970002D01*
X107101929Y-52190062D01*
X107101930Y-52190070D01*
X107159104Y-52403445D01*
X107159105Y-52403447D01*
X107159106Y-52403450D01*
X107238043Y-52572732D01*
X107252466Y-52603662D01*
X107252468Y-52603666D01*
X107379170Y-52784615D01*
X107379175Y-52784621D01*
X107535378Y-52940824D01*
X107535384Y-52940829D01*
X107716333Y-53067531D01*
X107716335Y-53067532D01*
X107716338Y-53067534D01*
X107780854Y-53097618D01*
X107845189Y-53127618D01*
X107897628Y-53173790D01*
X107916780Y-53240984D01*
X107896564Y-53307865D01*
X107845189Y-53352382D01*
X107716340Y-53412465D01*
X107716338Y-53412466D01*
X107535377Y-53539175D01*
X107379175Y-53695377D01*
X107252466Y-53876338D01*
X107252465Y-53876340D01*
X107159107Y-54076548D01*
X107159104Y-54076554D01*
X107101930Y-54289929D01*
X107101929Y-54289937D01*
X107082677Y-54509997D01*
X107082677Y-54510002D01*
X107101929Y-54730062D01*
X107101930Y-54730070D01*
X107159104Y-54943445D01*
X107159105Y-54943447D01*
X107159106Y-54943450D01*
X107238043Y-55112732D01*
X107252466Y-55143662D01*
X107252468Y-55143666D01*
X107379170Y-55324615D01*
X107379175Y-55324621D01*
X107535378Y-55480824D01*
X107535384Y-55480829D01*
X107716333Y-55607531D01*
X107716335Y-55607532D01*
X107716338Y-55607534D01*
X107780854Y-55637618D01*
X107845189Y-55667618D01*
X107897628Y-55713790D01*
X107916780Y-55780984D01*
X107896564Y-55847865D01*
X107845189Y-55892382D01*
X107716340Y-55952465D01*
X107716338Y-55952466D01*
X107535377Y-56079175D01*
X107379175Y-56235377D01*
X107252466Y-56416338D01*
X107252465Y-56416340D01*
X107159107Y-56616548D01*
X107159104Y-56616554D01*
X107101930Y-56829929D01*
X107101929Y-56829937D01*
X107082677Y-57049997D01*
X107082677Y-57050002D01*
X107101929Y-57270062D01*
X107101930Y-57270070D01*
X107159104Y-57483445D01*
X107159105Y-57483447D01*
X107159106Y-57483450D01*
X107238043Y-57652732D01*
X107252466Y-57683662D01*
X107252468Y-57683666D01*
X107379170Y-57864615D01*
X107379175Y-57864621D01*
X107535378Y-58020824D01*
X107535384Y-58020829D01*
X107716333Y-58147531D01*
X107716335Y-58147532D01*
X107716338Y-58147534D01*
X107781446Y-58177894D01*
X107845189Y-58207618D01*
X107897628Y-58253790D01*
X107916780Y-58320984D01*
X107896564Y-58387865D01*
X107845189Y-58432382D01*
X107716340Y-58492465D01*
X107716338Y-58492466D01*
X107535377Y-58619175D01*
X107379175Y-58775377D01*
X107252466Y-58956338D01*
X107252465Y-58956340D01*
X107159107Y-59156548D01*
X107159104Y-59156554D01*
X107101930Y-59369929D01*
X107101929Y-59369937D01*
X107082677Y-59589997D01*
X107082677Y-59590002D01*
X107101929Y-59810062D01*
X107101930Y-59810070D01*
X107159104Y-60023445D01*
X107159105Y-60023447D01*
X107159106Y-60023450D01*
X107238043Y-60192732D01*
X107252466Y-60223662D01*
X107252468Y-60223666D01*
X107379170Y-60404615D01*
X107379175Y-60404621D01*
X107535378Y-60560824D01*
X107535384Y-60560829D01*
X107716333Y-60687531D01*
X107716335Y-60687532D01*
X107716338Y-60687534D01*
X107916550Y-60780894D01*
X108129932Y-60838070D01*
X108287123Y-60851822D01*
X108349998Y-60857323D01*
X108350000Y-60857323D01*
X108350002Y-60857323D01*
X108405017Y-60852509D01*
X108570068Y-60838070D01*
X108783450Y-60780894D01*
X108983662Y-60687534D01*
X109164620Y-60560826D01*
X109320826Y-60404620D01*
X109447534Y-60223662D01*
X109540894Y-60023450D01*
X109598070Y-59810068D01*
X109617323Y-59590000D01*
X109614698Y-59560000D01*
X109610103Y-59507474D01*
X109598070Y-59369932D01*
X109540894Y-59156550D01*
X109447534Y-58956339D01*
X109320826Y-58775380D01*
X109164620Y-58619174D01*
X109164616Y-58619171D01*
X109164615Y-58619170D01*
X108983666Y-58492468D01*
X108983658Y-58492464D01*
X108854811Y-58432382D01*
X108802371Y-58386210D01*
X108783219Y-58319017D01*
X108803435Y-58252135D01*
X108854811Y-58207618D01*
X108918554Y-58177894D01*
X108983662Y-58147534D01*
X109164620Y-58020826D01*
X109320826Y-57864620D01*
X109447534Y-57683662D01*
X109540894Y-57483450D01*
X109598070Y-57270068D01*
X109617323Y-57050000D01*
X109614698Y-57020000D01*
X109598070Y-56829937D01*
X109598070Y-56829932D01*
X109540894Y-56616550D01*
X109447534Y-56416339D01*
X109320826Y-56235380D01*
X109164620Y-56079174D01*
X109164616Y-56079171D01*
X109164615Y-56079170D01*
X108983666Y-55952468D01*
X108983658Y-55952464D01*
X108854811Y-55892382D01*
X108802371Y-55846210D01*
X108783219Y-55779017D01*
X108803435Y-55712135D01*
X108854811Y-55667618D01*
X108919146Y-55637618D01*
X108983662Y-55607534D01*
X109164620Y-55480826D01*
X109320826Y-55324620D01*
X109447534Y-55143662D01*
X109540894Y-54943450D01*
X109598070Y-54730068D01*
X109617323Y-54510000D01*
X109614698Y-54480000D01*
X109598070Y-54289937D01*
X109598070Y-54289932D01*
X109540894Y-54076550D01*
X109447534Y-53876339D01*
X109320826Y-53695380D01*
X109164620Y-53539174D01*
X109164616Y-53539171D01*
X109164615Y-53539170D01*
X108983666Y-53412468D01*
X108983658Y-53412464D01*
X108854811Y-53352382D01*
X108802371Y-53306210D01*
X108783219Y-53239017D01*
X108803435Y-53172135D01*
X108854811Y-53127618D01*
X108919146Y-53097618D01*
X108983662Y-53067534D01*
X109035808Y-53031020D01*
X109161623Y-52942925D01*
X109227829Y-52920598D01*
X109232746Y-52920500D01*
X126822412Y-52920500D01*
X126889451Y-52940185D01*
X126893523Y-52942917D01*
X127047266Y-53050568D01*
X127083652Y-53067535D01*
X127105275Y-53077618D01*
X127157714Y-53123791D01*
X127176866Y-53190984D01*
X127156650Y-53257865D01*
X127105275Y-53302381D01*
X127093516Y-53307865D01*
X127047267Y-53329431D01*
X127047265Y-53329432D01*
X126860858Y-53459954D01*
X126699954Y-53620858D01*
X126569432Y-53807265D01*
X126569431Y-53807267D01*
X126473261Y-54013502D01*
X126473258Y-54013511D01*
X126414366Y-54233302D01*
X126414364Y-54233313D01*
X126394532Y-54459998D01*
X126394532Y-54460001D01*
X126414364Y-54686686D01*
X126414366Y-54686697D01*
X126473258Y-54906488D01*
X126473261Y-54906497D01*
X126569431Y-55112732D01*
X126569432Y-55112734D01*
X126699954Y-55299141D01*
X126860858Y-55460045D01*
X126860861Y-55460047D01*
X127047266Y-55590568D01*
X127083652Y-55607535D01*
X127105275Y-55617618D01*
X127157714Y-55663791D01*
X127176866Y-55730984D01*
X127156650Y-55797865D01*
X127105275Y-55842381D01*
X127093516Y-55847865D01*
X127047267Y-55869431D01*
X127047265Y-55869432D01*
X126860858Y-55999954D01*
X126699954Y-56160858D01*
X126569432Y-56347265D01*
X126569431Y-56347267D01*
X126473261Y-56553502D01*
X126473258Y-56553511D01*
X126414366Y-56773302D01*
X126414364Y-56773313D01*
X126394532Y-56999998D01*
X126394532Y-57000001D01*
X126414364Y-57226686D01*
X126414366Y-57226697D01*
X126473258Y-57446488D01*
X126473261Y-57446497D01*
X126569431Y-57652732D01*
X126569432Y-57652734D01*
X126699954Y-57839141D01*
X126860858Y-58000045D01*
X126860861Y-58000047D01*
X127047266Y-58130568D01*
X127083652Y-58147535D01*
X127105275Y-58157618D01*
X127157714Y-58203791D01*
X127176866Y-58270984D01*
X127156650Y-58337865D01*
X127105275Y-58382381D01*
X127093516Y-58387865D01*
X127047267Y-58409431D01*
X127047265Y-58409432D01*
X126860858Y-58539954D01*
X126699954Y-58700858D01*
X126569432Y-58887265D01*
X126569431Y-58887267D01*
X126473261Y-59093502D01*
X126473258Y-59093511D01*
X126414366Y-59313302D01*
X126414364Y-59313313D01*
X126394532Y-59539998D01*
X126394532Y-59540001D01*
X126414364Y-59766686D01*
X126414366Y-59766697D01*
X126473258Y-59986488D01*
X126473261Y-59986497D01*
X126569431Y-60192732D01*
X126569432Y-60192734D01*
X126699954Y-60379141D01*
X126860858Y-60540045D01*
X126860861Y-60540047D01*
X127047266Y-60670568D01*
X127105275Y-60697618D01*
X127157714Y-60743791D01*
X127176866Y-60810984D01*
X127156650Y-60877865D01*
X127105275Y-60922382D01*
X127047267Y-60949431D01*
X127047265Y-60949432D01*
X126860858Y-61079954D01*
X126699954Y-61240858D01*
X126569432Y-61427265D01*
X126569431Y-61427267D01*
X126473261Y-61633502D01*
X126473258Y-61633511D01*
X126414366Y-61853302D01*
X126414364Y-61853313D01*
X126394532Y-62079998D01*
X126394532Y-62080001D01*
X126414364Y-62306686D01*
X126414366Y-62306697D01*
X126473258Y-62526488D01*
X126473261Y-62526497D01*
X126569431Y-62732732D01*
X126569432Y-62732734D01*
X126699954Y-62919141D01*
X126860858Y-63080045D01*
X126860861Y-63080047D01*
X127047266Y-63210568D01*
X127253504Y-63306739D01*
X127473308Y-63365635D01*
X127635230Y-63379801D01*
X127699998Y-63385468D01*
X127700000Y-63385468D01*
X127700002Y-63385468D01*
X127756673Y-63380509D01*
X127926692Y-63365635D01*
X128146496Y-63306739D01*
X128352734Y-63210568D01*
X128539139Y-63080047D01*
X128700047Y-62919139D01*
X128830568Y-62732734D01*
X128926739Y-62526496D01*
X128985635Y-62306692D01*
X129005468Y-62080000D01*
X128985635Y-61853308D01*
X128926739Y-61633504D01*
X128830568Y-61427266D01*
X128700047Y-61240861D01*
X128700045Y-61240858D01*
X128539141Y-61079954D01*
X128352734Y-60949432D01*
X128352728Y-60949429D01*
X128294725Y-60922382D01*
X128242285Y-60876210D01*
X128223133Y-60809017D01*
X128243348Y-60742135D01*
X128294725Y-60697618D01*
X128352734Y-60670568D01*
X128539139Y-60540047D01*
X128700047Y-60379139D01*
X128830568Y-60192734D01*
X128926739Y-59986496D01*
X128985635Y-59766692D01*
X129005468Y-59540000D01*
X128985635Y-59313308D01*
X128926739Y-59093504D01*
X128830568Y-58887266D01*
X128700047Y-58700861D01*
X128700045Y-58700858D01*
X128539141Y-58539954D01*
X128352734Y-58409432D01*
X128352728Y-58409429D01*
X128325038Y-58396517D01*
X128294724Y-58382381D01*
X128242285Y-58336210D01*
X128223133Y-58269017D01*
X128243348Y-58202135D01*
X128294725Y-58157618D01*
X128352734Y-58130568D01*
X128539139Y-58000047D01*
X128700047Y-57839139D01*
X128830568Y-57652734D01*
X128926739Y-57446496D01*
X128985635Y-57226692D01*
X129003718Y-57020000D01*
X129005468Y-57000001D01*
X129005468Y-56999998D01*
X128990589Y-56829932D01*
X128985635Y-56773308D01*
X128926739Y-56553504D01*
X128830568Y-56347266D01*
X128700047Y-56160861D01*
X128700045Y-56160858D01*
X128539141Y-55999954D01*
X128352734Y-55869432D01*
X128352728Y-55869429D01*
X128325038Y-55856517D01*
X128294724Y-55842381D01*
X128242285Y-55796210D01*
X128223133Y-55729017D01*
X128243348Y-55662135D01*
X128294725Y-55617618D01*
X128352734Y-55590568D01*
X128539139Y-55460047D01*
X128700047Y-55299139D01*
X128830568Y-55112734D01*
X128926739Y-54906496D01*
X128985635Y-54686692D01*
X129003718Y-54480000D01*
X129005468Y-54460001D01*
X129005468Y-54459998D01*
X128990589Y-54289932D01*
X128985635Y-54233308D01*
X128926739Y-54013504D01*
X128830568Y-53807266D01*
X128700047Y-53620861D01*
X128700045Y-53620858D01*
X128539141Y-53459954D01*
X128352734Y-53329432D01*
X128352728Y-53329429D01*
X128325038Y-53316517D01*
X128294724Y-53302381D01*
X128242285Y-53256210D01*
X128223133Y-53189017D01*
X128243348Y-53122135D01*
X128294725Y-53077618D01*
X128352734Y-53050568D01*
X128539139Y-52920047D01*
X128700047Y-52759139D01*
X128830568Y-52572734D01*
X128926739Y-52366496D01*
X128985635Y-52146692D01*
X129003718Y-51940000D01*
X129005468Y-51920001D01*
X129005468Y-51919998D01*
X128990589Y-51749932D01*
X128985635Y-51693308D01*
X128926739Y-51473504D01*
X128830568Y-51267266D01*
X128700047Y-51080861D01*
X128700045Y-51080858D01*
X128539141Y-50919954D01*
X128352734Y-50789432D01*
X128352728Y-50789429D01*
X128325038Y-50776517D01*
X128294724Y-50762381D01*
X128242285Y-50716210D01*
X128223133Y-50649017D01*
X128243348Y-50582135D01*
X128294725Y-50537618D01*
X128352734Y-50510568D01*
X128539139Y-50380047D01*
X128700047Y-50219139D01*
X128830568Y-50032734D01*
X128926739Y-49826496D01*
X128985635Y-49606692D01*
X129005468Y-49380000D01*
X128985635Y-49153308D01*
X128926739Y-48933504D01*
X128830568Y-48727266D01*
X128732839Y-48587693D01*
X128700045Y-48540858D01*
X128539141Y-48379954D01*
X128352734Y-48249432D01*
X128352732Y-48249431D01*
X128146497Y-48153261D01*
X128146488Y-48153258D01*
X127926697Y-48094366D01*
X127926693Y-48094365D01*
X127926692Y-48094365D01*
X127926691Y-48094364D01*
X127926686Y-48094364D01*
X127700002Y-48074532D01*
X127699998Y-48074532D01*
X127473313Y-48094364D01*
X127473302Y-48094366D01*
X127253511Y-48153258D01*
X127253502Y-48153261D01*
X127047267Y-48249431D01*
X127047265Y-48249432D01*
X126860858Y-48379954D01*
X126847632Y-48393181D01*
X126786309Y-48426666D01*
X126759951Y-48429500D01*
X109161338Y-48429500D01*
X109094299Y-48409815D01*
X109090232Y-48407087D01*
X108983662Y-48332466D01*
X108983663Y-48332466D01*
X108983661Y-48332465D01*
X108854218Y-48272105D01*
X108801779Y-48225932D01*
X108782627Y-48158739D01*
X108802843Y-48091858D01*
X108854219Y-48047340D01*
X108983416Y-47987095D01*
X108983417Y-47987094D01*
X109048188Y-47941741D01*
X108377448Y-47271000D01*
X108400160Y-47271000D01*
X108497061Y-47245036D01*
X108583940Y-47194876D01*
X108654876Y-47123940D01*
X108705036Y-47037061D01*
X108731000Y-46940160D01*
X108731000Y-46917447D01*
X109401741Y-47588188D01*
X109447094Y-47523417D01*
X109447100Y-47523407D01*
X109540419Y-47323284D01*
X109540424Y-47323270D01*
X109597573Y-47109986D01*
X109597575Y-47109976D01*
X109616821Y-46890000D01*
X109616821Y-46889999D01*
X109597575Y-46670023D01*
X109597573Y-46670013D01*
X109540424Y-46456729D01*
X109540420Y-46456720D01*
X109447096Y-46256586D01*
X109401741Y-46191811D01*
X109401740Y-46191810D01*
X108731000Y-46862551D01*
X108731000Y-46839840D01*
X108705036Y-46742939D01*
X108654876Y-46656060D01*
X108583940Y-46585124D01*
X108497061Y-46534964D01*
X108400160Y-46509000D01*
X108377448Y-46509000D01*
X109048188Y-45838259D01*
X109048187Y-45838258D01*
X108983411Y-45792901D01*
X108983405Y-45792898D01*
X108854219Y-45732658D01*
X108801779Y-45686486D01*
X108782627Y-45619293D01*
X108802843Y-45552411D01*
X108854219Y-45507894D01*
X108983662Y-45447534D01*
X109164620Y-45320826D01*
X109320826Y-45164620D01*
X109447534Y-44983662D01*
X109540894Y-44783450D01*
X109598070Y-44570068D01*
X109617323Y-44350000D01*
X109614397Y-44316559D01*
X109601826Y-44172863D01*
X109598070Y-44129932D01*
X109540894Y-43916550D01*
X109447534Y-43716339D01*
X109320826Y-43535380D01*
X109164620Y-43379174D01*
X109164616Y-43379171D01*
X109164615Y-43379170D01*
X108983666Y-43252468D01*
X108983658Y-43252464D01*
X108854811Y-43192382D01*
X108802371Y-43146210D01*
X108783219Y-43079017D01*
X108803435Y-43012135D01*
X108854811Y-42967618D01*
X108860802Y-42964824D01*
X108983662Y-42907534D01*
X109090215Y-42832924D01*
X109156421Y-42810598D01*
X109161338Y-42810500D01*
X111044218Y-42810500D01*
X111111257Y-42830185D01*
X111131899Y-42846819D01*
X114012215Y-45727137D01*
X114012219Y-45727140D01*
X114176079Y-45836628D01*
X114176085Y-45836631D01*
X114176086Y-45836632D01*
X114358165Y-45912052D01*
X114551455Y-45950500D01*
X114551458Y-45950501D01*
X114551460Y-45950501D01*
X114754655Y-45950501D01*
X114754675Y-45950500D01*
X174734218Y-45950500D01*
X174801257Y-45970185D01*
X174821899Y-45986819D01*
X175122899Y-46287819D01*
X175156384Y-46349142D01*
X175151400Y-46418834D01*
X175109528Y-46474767D01*
X175044064Y-46499184D01*
X175035218Y-46499500D01*
X174701455Y-46499500D01*
X174604812Y-46518724D01*
X174508167Y-46537947D01*
X174508161Y-46537949D01*
X174454834Y-46560037D01*
X174454834Y-46560038D01*
X174409315Y-46578892D01*
X174326089Y-46613366D01*
X174326079Y-46613371D01*
X174162219Y-46722859D01*
X174092540Y-46792538D01*
X174022861Y-46862218D01*
X174022858Y-46862221D01*
X172012221Y-48872858D01*
X172012218Y-48872861D01*
X171951577Y-48933502D01*
X171872859Y-49012219D01*
X171763371Y-49176079D01*
X171763364Y-49176092D01*
X171687950Y-49358160D01*
X171687947Y-49358170D01*
X171649500Y-49551456D01*
X171649500Y-63984218D01*
X171629815Y-64051257D01*
X171613181Y-64071899D01*
X161941899Y-73743181D01*
X161880576Y-73776666D01*
X161854218Y-73779500D01*
X128577588Y-73779500D01*
X128510549Y-73759815D01*
X128506465Y-73757075D01*
X128486622Y-73743181D01*
X128352734Y-73649432D01*
X128294724Y-73622381D01*
X128242285Y-73576210D01*
X128223133Y-73509017D01*
X128243348Y-73442135D01*
X128294725Y-73397618D01*
X128352734Y-73370568D01*
X128539139Y-73240047D01*
X128700047Y-73079139D01*
X128830568Y-72892734D01*
X128926739Y-72686496D01*
X128985635Y-72466692D01*
X129005468Y-72240000D01*
X128985635Y-72013308D01*
X128926739Y-71793504D01*
X128830568Y-71587266D01*
X128700047Y-71400861D01*
X128700045Y-71400858D01*
X128539141Y-71239954D01*
X128352734Y-71109432D01*
X128352732Y-71109431D01*
X128313172Y-71090984D01*
X128294132Y-71082105D01*
X128241694Y-71035934D01*
X128222542Y-70968740D01*
X128242758Y-70901859D01*
X128294134Y-70857341D01*
X128352484Y-70830132D01*
X128538820Y-70699657D01*
X128699657Y-70538820D01*
X128830134Y-70352482D01*
X128926265Y-70146326D01*
X128926269Y-70146317D01*
X128978872Y-69950000D01*
X128133012Y-69950000D01*
X128165925Y-69892993D01*
X128200000Y-69765826D01*
X128200000Y-69634174D01*
X128165925Y-69507007D01*
X128133012Y-69450000D01*
X128978872Y-69450000D01*
X128978872Y-69449999D01*
X128926269Y-69253682D01*
X128926265Y-69253673D01*
X128830134Y-69047517D01*
X128699657Y-68861179D01*
X128538820Y-68700342D01*
X128352482Y-68569865D01*
X128294133Y-68542657D01*
X128241694Y-68496484D01*
X128222542Y-68429291D01*
X128242758Y-68362410D01*
X128294129Y-68317895D01*
X128352734Y-68290568D01*
X128539139Y-68160047D01*
X128700047Y-67999139D01*
X128830568Y-67812734D01*
X128926739Y-67606496D01*
X128985635Y-67386692D01*
X129005468Y-67160000D01*
X128985635Y-66933308D01*
X128926739Y-66713504D01*
X128830568Y-66507266D01*
X128700047Y-66320861D01*
X128700045Y-66320858D01*
X128539141Y-66159954D01*
X128352734Y-66029432D01*
X128352732Y-66029431D01*
X128146497Y-65933261D01*
X128146488Y-65933258D01*
X127926697Y-65874366D01*
X127926693Y-65874365D01*
X127926692Y-65874365D01*
X127926691Y-65874364D01*
X127926686Y-65874364D01*
X127700002Y-65854532D01*
X127699998Y-65854532D01*
X127473313Y-65874364D01*
X127473302Y-65874366D01*
X127253511Y-65933258D01*
X127253502Y-65933261D01*
X127047267Y-66029431D01*
X127047265Y-66029432D01*
X126860858Y-66159954D01*
X126699954Y-66320858D01*
X126569432Y-66507265D01*
X126569431Y-66507267D01*
X126473261Y-66713502D01*
X126473258Y-66713511D01*
X126414366Y-66933302D01*
X126414364Y-66933313D01*
X126394532Y-67159998D01*
X126394532Y-67160001D01*
X126414364Y-67386686D01*
X126414366Y-67386697D01*
X126473258Y-67606488D01*
X126473261Y-67606497D01*
X126569431Y-67812732D01*
X126569432Y-67812734D01*
X126699954Y-67999141D01*
X126860858Y-68160045D01*
X126860861Y-68160047D01*
X127047266Y-68290568D01*
X127105865Y-68317893D01*
X127158305Y-68364065D01*
X127177457Y-68431258D01*
X127157242Y-68498139D01*
X127105867Y-68542657D01*
X127047515Y-68569867D01*
X126861179Y-68700342D01*
X126700342Y-68861179D01*
X126569865Y-69047517D01*
X126473734Y-69253673D01*
X126473730Y-69253682D01*
X126421127Y-69449999D01*
X126421128Y-69450000D01*
X127266988Y-69450000D01*
X127234075Y-69507007D01*
X127200000Y-69634174D01*
X127200000Y-69765826D01*
X127234075Y-69892993D01*
X127266988Y-69950000D01*
X126421128Y-69950000D01*
X126473730Y-70146317D01*
X126473734Y-70146326D01*
X126569865Y-70352482D01*
X126700342Y-70538820D01*
X126861179Y-70699657D01*
X127047518Y-70830134D01*
X127047520Y-70830135D01*
X127105865Y-70857342D01*
X127158305Y-70903514D01*
X127177457Y-70970707D01*
X127157242Y-71037589D01*
X127105867Y-71082105D01*
X127086828Y-71090984D01*
X127047264Y-71109433D01*
X126860858Y-71239954D01*
X126699954Y-71400858D01*
X126569432Y-71587265D01*
X126569431Y-71587267D01*
X126473261Y-71793502D01*
X126473258Y-71793511D01*
X126414366Y-72013302D01*
X126414364Y-72013313D01*
X126394532Y-72239998D01*
X126394532Y-72240001D01*
X126414364Y-72466686D01*
X126414366Y-72466697D01*
X126473258Y-72686488D01*
X126473261Y-72686497D01*
X126569431Y-72892732D01*
X126569432Y-72892734D01*
X126699954Y-73079141D01*
X126860858Y-73240045D01*
X126860861Y-73240047D01*
X127047266Y-73370568D01*
X127105275Y-73397618D01*
X127157714Y-73443791D01*
X127176866Y-73510984D01*
X127156650Y-73577865D01*
X127105275Y-73622382D01*
X127047267Y-73649431D01*
X127047265Y-73649432D01*
X126944595Y-73721322D01*
X126913378Y-73743181D01*
X126893535Y-73757075D01*
X126827329Y-73779402D01*
X126822412Y-73779500D01*
X125095782Y-73779500D01*
X125028743Y-73759815D01*
X125008101Y-73743181D01*
X119231479Y-67966559D01*
X119231459Y-67966537D01*
X119087785Y-67822863D01*
X119087781Y-67822860D01*
X118923920Y-67713371D01*
X118923911Y-67713366D01*
X118851315Y-67683296D01*
X118795165Y-67660038D01*
X118741836Y-67637949D01*
X118741832Y-67637948D01*
X118741828Y-67637946D01*
X118645188Y-67618724D01*
X118548544Y-67599500D01*
X118548541Y-67599500D01*
X109004675Y-67599500D01*
X109004655Y-67599499D01*
X108998541Y-67599499D01*
X108801460Y-67599499D01*
X108801457Y-67599499D01*
X108608172Y-67637946D01*
X108608164Y-67637948D01*
X108426088Y-67713366D01*
X108426079Y-67713371D01*
X108262219Y-67822859D01*
X108262215Y-67822862D01*
X101933624Y-74151455D01*
X99962220Y-76122859D01*
X99962218Y-76122861D01*
X99922697Y-76162382D01*
X99822859Y-76262219D01*
X99713371Y-76426080D01*
X99713369Y-76426084D01*
X99713368Y-76426086D01*
X99690680Y-76480861D01*
X99644714Y-76591834D01*
X99644713Y-76591837D01*
X99637948Y-76608167D01*
X99637947Y-76608171D01*
X99599500Y-76801454D01*
X99599500Y-76801459D01*
X99599500Y-96098541D01*
X99599500Y-96098543D01*
X99599499Y-96098543D01*
X90900500Y-96098543D01*
X90900500Y-93750000D01*
X94673179Y-93750000D01*
X94692424Y-93969976D01*
X94692426Y-93969986D01*
X94749575Y-94183270D01*
X94749580Y-94183284D01*
X94842898Y-94383405D01*
X94842901Y-94383411D01*
X94888258Y-94448187D01*
X94888259Y-94448188D01*
X95559000Y-93777447D01*
X95559000Y-93800160D01*
X95584964Y-93897061D01*
X95635124Y-93983940D01*
X95706060Y-94054876D01*
X95792939Y-94105036D01*
X95889840Y-94131000D01*
X95912553Y-94131000D01*
X95241810Y-94801740D01*
X95306590Y-94847099D01*
X95306592Y-94847100D01*
X95506715Y-94940419D01*
X95506729Y-94940424D01*
X95720013Y-94997573D01*
X95720023Y-94997575D01*
X95939999Y-95016821D01*
X95940001Y-95016821D01*
X96159976Y-94997575D01*
X96159986Y-94997573D01*
X96373270Y-94940424D01*
X96373284Y-94940419D01*
X96573407Y-94847100D01*
X96573417Y-94847094D01*
X96638188Y-94801741D01*
X95967448Y-94131000D01*
X95990160Y-94131000D01*
X96087061Y-94105036D01*
X96173940Y-94054876D01*
X96244876Y-93983940D01*
X96295036Y-93897061D01*
X96321000Y-93800160D01*
X96321000Y-93777447D01*
X96991741Y-94448188D01*
X97037094Y-94383417D01*
X97037100Y-94383407D01*
X97130419Y-94183284D01*
X97130424Y-94183270D01*
X97187573Y-93969986D01*
X97187575Y-93969976D01*
X97206821Y-93750000D01*
X97206821Y-93749999D01*
X97187575Y-93530023D01*
X97187573Y-93530013D01*
X97130424Y-93316729D01*
X97130420Y-93316720D01*
X97037096Y-93116586D01*
X96991741Y-93051811D01*
X96991740Y-93051810D01*
X96321000Y-93722551D01*
X96321000Y-93699840D01*
X96295036Y-93602939D01*
X96244876Y-93516060D01*
X96173940Y-93445124D01*
X96087061Y-93394964D01*
X95990160Y-93369000D01*
X95967448Y-93369000D01*
X96638188Y-92698259D01*
X96638187Y-92698258D01*
X96573411Y-92652901D01*
X96573405Y-92652898D01*
X96373284Y-92559580D01*
X96373270Y-92559575D01*
X96159986Y-92502426D01*
X96159976Y-92502424D01*
X95940001Y-92483179D01*
X95939999Y-92483179D01*
X95720023Y-92502424D01*
X95720013Y-92502426D01*
X95506729Y-92559575D01*
X95506720Y-92559579D01*
X95306590Y-92652901D01*
X95241811Y-92698258D01*
X95912553Y-93369000D01*
X95889840Y-93369000D01*
X95792939Y-93394964D01*
X95706060Y-93445124D01*
X95635124Y-93516060D01*
X95584964Y-93602939D01*
X95559000Y-93699840D01*
X95559000Y-93722553D01*
X94888258Y-93051811D01*
X94842901Y-93116590D01*
X94749579Y-93316720D01*
X94749575Y-93316729D01*
X94692426Y-93530013D01*
X94692424Y-93530023D01*
X94673179Y-93749999D01*
X94673179Y-93750000D01*
X90900500Y-93750000D01*
X90900500Y-78700000D01*
X94523179Y-78700000D01*
X94542424Y-78919976D01*
X94542426Y-78919986D01*
X94599575Y-79133270D01*
X94599580Y-79133284D01*
X94692898Y-79333405D01*
X94692901Y-79333411D01*
X94738258Y-79398187D01*
X94738259Y-79398188D01*
X95409000Y-78727447D01*
X95409000Y-78750160D01*
X95434964Y-78847061D01*
X95485124Y-78933940D01*
X95556060Y-79004876D01*
X95642939Y-79055036D01*
X95739840Y-79081000D01*
X95762553Y-79081000D01*
X95091810Y-79751740D01*
X95156590Y-79797099D01*
X95156592Y-79797100D01*
X95356715Y-79890419D01*
X95356729Y-79890424D01*
X95570013Y-79947573D01*
X95570023Y-79947575D01*
X95789999Y-79966821D01*
X95790001Y-79966821D01*
X96009976Y-79947575D01*
X96009986Y-79947573D01*
X96223270Y-79890424D01*
X96223284Y-79890419D01*
X96423407Y-79797100D01*
X96423417Y-79797094D01*
X96488188Y-79751741D01*
X95817448Y-79081000D01*
X95840160Y-79081000D01*
X95937061Y-79055036D01*
X96023940Y-79004876D01*
X96094876Y-78933940D01*
X96145036Y-78847061D01*
X96171000Y-78750160D01*
X96171000Y-78727447D01*
X96841741Y-79398188D01*
X96887094Y-79333417D01*
X96887100Y-79333407D01*
X96980419Y-79133284D01*
X96980424Y-79133270D01*
X97037573Y-78919986D01*
X97037575Y-78919976D01*
X97056821Y-78700000D01*
X97056821Y-78699999D01*
X97037575Y-78480023D01*
X97037573Y-78480013D01*
X96980424Y-78266729D01*
X96980420Y-78266720D01*
X96887096Y-78066586D01*
X96841741Y-78001811D01*
X96841740Y-78001810D01*
X96171000Y-78672551D01*
X96171000Y-78649840D01*
X96145036Y-78552939D01*
X96094876Y-78466060D01*
X96023940Y-78395124D01*
X95937061Y-78344964D01*
X95840160Y-78319000D01*
X95817448Y-78319000D01*
X96488188Y-77648259D01*
X96488187Y-77648258D01*
X96423411Y-77602901D01*
X96423405Y-77602898D01*
X96223284Y-77509580D01*
X96223270Y-77509575D01*
X96009986Y-77452426D01*
X96009976Y-77452424D01*
X95790001Y-77433179D01*
X95789999Y-77433179D01*
X95570023Y-77452424D01*
X95570013Y-77452426D01*
X95356729Y-77509575D01*
X95356720Y-77509579D01*
X95156590Y-77602901D01*
X95091811Y-77648258D01*
X95762553Y-78319000D01*
X95739840Y-78319000D01*
X95642939Y-78344964D01*
X95556060Y-78395124D01*
X95485124Y-78466060D01*
X95434964Y-78552939D01*
X95409000Y-78649840D01*
X95409000Y-78672553D01*
X94738258Y-78001811D01*
X94692901Y-78066590D01*
X94599579Y-78266720D01*
X94599575Y-78266729D01*
X94542426Y-78480013D01*
X94542424Y-78480023D01*
X94523179Y-78699999D01*
X94523179Y-78700000D01*
X90900500Y-78700000D01*
X90900500Y-43171288D01*
X93199500Y-43171288D01*
X93231161Y-43411785D01*
X93293947Y-43646104D01*
X93323040Y-43716340D01*
X93386776Y-43870212D01*
X93508064Y-44080289D01*
X93508066Y-44080292D01*
X93508067Y-44080293D01*
X93655733Y-44272736D01*
X93655739Y-44272743D01*
X93827256Y-44444260D01*
X93827262Y-44444265D01*
X94019711Y-44591936D01*
X94229788Y-44713224D01*
X94453900Y-44806054D01*
X94688211Y-44868838D01*
X94868586Y-44892584D01*
X94928711Y-44900500D01*
X94928712Y-44900500D01*
X95171289Y-44900500D01*
X95219388Y-44894167D01*
X95411789Y-44868838D01*
X95646100Y-44806054D01*
X95870212Y-44713224D01*
X96080289Y-44591936D01*
X96272738Y-44444265D01*
X96444265Y-44272738D01*
X96591936Y-44080289D01*
X96713224Y-43870212D01*
X96806054Y-43646100D01*
X96868838Y-43411789D01*
X96900500Y-43171288D01*
X96900500Y-42928712D01*
X96868838Y-42688211D01*
X96806054Y-42453900D01*
X96713224Y-42229788D01*
X96591936Y-42019711D01*
X96444265Y-41827262D01*
X96444260Y-41827256D01*
X96272743Y-41655739D01*
X96272736Y-41655733D01*
X96080293Y-41508067D01*
X96080292Y-41508066D01*
X96080289Y-41508064D01*
X95870212Y-41386776D01*
X95845534Y-41376554D01*
X95646104Y-41293947D01*
X95411785Y-41231161D01*
X95171289Y-41199500D01*
X95171288Y-41199500D01*
X94928712Y-41199500D01*
X94928711Y-41199500D01*
X94688214Y-41231161D01*
X94453895Y-41293947D01*
X94229794Y-41386773D01*
X94229785Y-41386777D01*
X94019706Y-41508067D01*
X93827263Y-41655733D01*
X93827256Y-41655739D01*
X93655739Y-41827256D01*
X93655733Y-41827263D01*
X93508067Y-42019706D01*
X93386777Y-42229785D01*
X93386773Y-42229794D01*
X93293947Y-42453895D01*
X93231161Y-42688214D01*
X93199500Y-42928711D01*
X93199500Y-43171288D01*
X90900500Y-43171288D01*
X90900500Y-39124500D01*
X90920185Y-39057461D01*
X90972989Y-39011706D01*
X91024500Y-39000500D01*
X215075500Y-39000500D01*
X215142539Y-39020185D01*
G37*
%TD.AperFunction*%
%TD*%
M02*
