M48
; DRILL file {KiCad 8.0.1} date 2026-04-15T14:43:35+0800
; FORMAT={-:-/ absolute / inch / decimal}
; #@! TF.CreationDate,2026-04-15T14:43:35+08:00
; #@! TF.GenerationSoftware,Kicad,Pcbnew,8.0.1
; #@! TF.FileFunction,Plated,1,2,PTH
FMAT,2
INCH
; #@! TA.AperFunction,Plated,PTH,ComponentDrill
T1C0.0300
; #@! TA.AperFunction,Plated,PTH,ComponentDrill
T2C0.0394
%
G90
G05
T1
X3.7713Y-3.0984
X3.7732Y-4.3012
X3.7772Y-3.6909
X4.0713Y-3.0984
X4.0732Y-4.3012
X4.0772Y-3.6909
X4.2657Y-1.6461
X4.2657Y-1.7461
X4.2657Y-1.8461
X4.2657Y-1.9461
X4.2657Y-2.0461
X4.2657Y-2.1461
X4.2657Y-2.2461
X4.2657Y-2.3461
X4.3661Y-2.7988
X4.3661Y-3.0988
X4.372Y-3.3913
X4.372Y-3.6913
X4.372Y-4.0016
X4.372Y-4.3016
X7.5054Y-3.5043
X7.5054Y-3.6043
X7.5054Y-3.7043
X7.5113Y-3.0811
X7.5113Y-3.1811
X7.5113Y-3.2811
X7.5154Y-2.0449
X7.5154Y-2.1449
X7.5154Y-2.2449
X7.5154Y-2.3449
X7.5173Y-2.5488
X7.5173Y-2.6488
X7.5173Y-2.7488
X7.5173Y-2.8488
X7.974Y-3.2815
X7.976Y-3.7067
X8.274Y-3.2815
X8.276Y-3.7067
T2
X5.0276Y-1.9441
X5.0276Y-2.0441
X5.0276Y-2.1441
X5.0276Y-2.2441
X5.0276Y-2.3441
X5.0276Y-2.4441
X5.0276Y-2.6441
X5.0276Y-2.7441
X5.0276Y-2.8441
X5.0276Y-2.9441
X5.0276Y-3.0441
X5.0276Y-3.1441
X5.0276Y-3.2441
X5.0276Y-3.3441
X6.9276Y-1.9441
X6.9276Y-2.0441
X6.9276Y-2.1441
X6.9276Y-2.2441
X6.9276Y-2.3441
X6.9276Y-2.4441
X6.9276Y-2.5441
X6.9276Y-2.6441
X6.9276Y-2.8039
X6.9276Y-2.9039
X6.9276Y-3.0039
X6.9276Y-3.1039
X6.9276Y-3.2039
X6.9276Y-3.3039
X6.9276Y-3.4039
X6.9276Y-3.5039
X6.9276Y-3.6039
X6.9276Y-3.7039
M30
