M48
;GenerationSoftware,Autodesk,EAGLE,9.6.2*%
;CreationDate,2025-05-23T13:34:33Z*%
FMAT,2
ICI,OFF
METRIC,TZ,000.000
T3C0.800
T2C1.016
T1C3.200
%
G90
M71
T1
X5000Y-85000
X50000Y-85000
X50000Y-5000
X5000Y-5000
T2
X26416Y-46482
X26416Y-43942
X26416Y-41402
X26416Y-38862
X26416Y-36322
X26416Y-33782
X26416Y-49022
X26416Y-51562
X26416Y-54102
X26416Y-56642
X26416Y-59182
X26416Y-61722
X26416Y-64262
X26416Y-31242
X26416Y-28702
X41656Y-46482
X41656Y-49022
X41656Y-51562
X41656Y-54102
X41656Y-56642
X41656Y-59182
X41656Y-43942
X41656Y-41402
X41656Y-38862
X41656Y-36322
X41656Y-33782
X41656Y-31242
X41656Y-28702
X41656Y-61722
X41656Y-64262
X14986Y-60452
X14986Y-57912
X14986Y-68072
X14986Y-65532
X14986Y-76962
X14986Y-74422
X14986Y-38862
X14986Y-36322
X14986Y-33782
X14986Y-31242
X14986Y-52832
X14986Y-50292
X14986Y-47752
X14986Y-45212
T3
X26479Y-21082
X29019Y-21082
X31559Y-21082
X34100Y-21082
X36640Y-21082
X39180Y-21082
X29019Y-5842
X31559Y-5842
X34100Y-5842
X36640Y-5842
M30