G04 EAGLE Gerber RS-274X export*
G75*
%MOMM*%
%FSLAX34Y34*%
%LPD*%
%INBottom Copper*%
%IPPOS*%
%AMOC8*
5,1,8,0,0,1.08239X$1,22.5*%
G01*
%ADD10R,1.208000X1.208000*%
%ADD11C,1.208000*%
%ADD12R,1.408000X1.408000*%
%ADD13C,1.408000*%
%ADD14P,1.429621X8X22.500000*%
%ADD15P,1.814519X8X22.500000*%
%ADD16P,1.814519X8X202.500000*%
%ADD17R,1.108000X1.108000*%
%ADD18C,1.108000*%
%ADD19C,1.665000*%
%ADD20C,3.810000*%
%ADD21C,0.250000*%

G36*
X538568Y10168D02*
X538568Y10168D01*
X538616Y10167D01*
X538689Y10188D01*
X538763Y10200D01*
X538806Y10223D01*
X538852Y10237D01*
X538914Y10280D01*
X538981Y10316D01*
X539014Y10350D01*
X539053Y10378D01*
X539098Y10439D01*
X539150Y10494D01*
X539170Y10537D01*
X539199Y10576D01*
X539222Y10648D01*
X539254Y10717D01*
X539259Y10765D01*
X539274Y10810D01*
X539273Y10886D01*
X539281Y10961D01*
X539271Y11008D01*
X539270Y11056D01*
X539245Y11128D01*
X539229Y11202D01*
X539204Y11243D01*
X539188Y11288D01*
X539141Y11348D01*
X539102Y11413D01*
X539066Y11444D01*
X539036Y11482D01*
X538933Y11558D01*
X538916Y11573D01*
X538909Y11575D01*
X538901Y11581D01*
X538411Y11864D01*
X531864Y18411D01*
X527235Y26428D01*
X524839Y35371D01*
X524839Y44629D01*
X527235Y53572D01*
X531864Y61589D01*
X538411Y68136D01*
X546428Y72765D01*
X555371Y75161D01*
X564629Y75161D01*
X573572Y72765D01*
X581589Y68136D01*
X588136Y61589D01*
X588419Y61099D01*
X588449Y61062D01*
X588472Y61019D01*
X588527Y60967D01*
X588575Y60908D01*
X588615Y60883D01*
X588650Y60850D01*
X588719Y60818D01*
X588783Y60778D01*
X588829Y60766D01*
X588873Y60746D01*
X588948Y60738D01*
X589022Y60720D01*
X589070Y60724D01*
X589117Y60719D01*
X589192Y60735D01*
X589267Y60742D01*
X589311Y60761D01*
X589358Y60771D01*
X589423Y60810D01*
X589492Y60841D01*
X589528Y60873D01*
X589569Y60898D01*
X589618Y60955D01*
X589674Y61006D01*
X589698Y61048D01*
X589729Y61084D01*
X589757Y61155D01*
X589794Y61221D01*
X589803Y61268D01*
X589821Y61313D01*
X589835Y61441D01*
X589839Y61463D01*
X589838Y61469D01*
X589839Y61479D01*
X589839Y1038521D01*
X589832Y1038568D01*
X589833Y1038616D01*
X589812Y1038689D01*
X589800Y1038763D01*
X589777Y1038806D01*
X589763Y1038852D01*
X589720Y1038914D01*
X589684Y1038981D01*
X589650Y1039014D01*
X589622Y1039053D01*
X589561Y1039098D01*
X589506Y1039150D01*
X589463Y1039170D01*
X589424Y1039199D01*
X589352Y1039222D01*
X589283Y1039254D01*
X589235Y1039259D01*
X589190Y1039274D01*
X589114Y1039273D01*
X589039Y1039281D01*
X588992Y1039271D01*
X588944Y1039270D01*
X588872Y1039245D01*
X588798Y1039229D01*
X588757Y1039204D01*
X588712Y1039188D01*
X588652Y1039141D01*
X588587Y1039102D01*
X588556Y1039066D01*
X588518Y1039036D01*
X588442Y1038933D01*
X588427Y1038916D01*
X588425Y1038909D01*
X588419Y1038901D01*
X588136Y1038411D01*
X581589Y1031864D01*
X573572Y1027235D01*
X564629Y1024839D01*
X555371Y1024839D01*
X546428Y1027235D01*
X538411Y1031864D01*
X531864Y1038411D01*
X527235Y1046428D01*
X524839Y1055371D01*
X524839Y1064629D01*
X527235Y1073572D01*
X531864Y1081589D01*
X538411Y1088136D01*
X538901Y1088419D01*
X538938Y1088449D01*
X538981Y1088472D01*
X539033Y1088527D01*
X539092Y1088575D01*
X539117Y1088615D01*
X539150Y1088650D01*
X539182Y1088719D01*
X539222Y1088783D01*
X539234Y1088829D01*
X539254Y1088873D01*
X539262Y1088948D01*
X539280Y1089022D01*
X539276Y1089070D01*
X539281Y1089117D01*
X539265Y1089192D01*
X539258Y1089267D01*
X539239Y1089311D01*
X539229Y1089358D01*
X539190Y1089423D01*
X539159Y1089492D01*
X539127Y1089528D01*
X539102Y1089569D01*
X539045Y1089618D01*
X538994Y1089674D01*
X538952Y1089698D01*
X538916Y1089729D01*
X538845Y1089757D01*
X538779Y1089794D01*
X538732Y1089803D01*
X538687Y1089821D01*
X538559Y1089835D01*
X538537Y1089839D01*
X538531Y1089838D01*
X538521Y1089839D01*
X61479Y1089839D01*
X61432Y1089832D01*
X61384Y1089833D01*
X61311Y1089812D01*
X61237Y1089800D01*
X61194Y1089777D01*
X61148Y1089763D01*
X61086Y1089720D01*
X61019Y1089684D01*
X60986Y1089650D01*
X60947Y1089622D01*
X60902Y1089561D01*
X60850Y1089506D01*
X60830Y1089463D01*
X60801Y1089424D01*
X60778Y1089352D01*
X60746Y1089283D01*
X60741Y1089235D01*
X60726Y1089190D01*
X60727Y1089114D01*
X60719Y1089039D01*
X60729Y1088992D01*
X60730Y1088944D01*
X60755Y1088872D01*
X60771Y1088798D01*
X60796Y1088757D01*
X60812Y1088712D01*
X60859Y1088652D01*
X60898Y1088587D01*
X60934Y1088556D01*
X60964Y1088518D01*
X61067Y1088442D01*
X61084Y1088427D01*
X61091Y1088425D01*
X61099Y1088419D01*
X61589Y1088136D01*
X68136Y1081589D01*
X72765Y1073572D01*
X75161Y1064629D01*
X75161Y1055371D01*
X72765Y1046428D01*
X68136Y1038411D01*
X61589Y1031864D01*
X53572Y1027235D01*
X44629Y1024839D01*
X35371Y1024839D01*
X26428Y1027235D01*
X18411Y1031864D01*
X11864Y1038411D01*
X11581Y1038901D01*
X11551Y1038938D01*
X11528Y1038981D01*
X11473Y1039033D01*
X11425Y1039092D01*
X11385Y1039117D01*
X11350Y1039150D01*
X11281Y1039182D01*
X11217Y1039222D01*
X11171Y1039234D01*
X11127Y1039254D01*
X11052Y1039262D01*
X10978Y1039280D01*
X10930Y1039276D01*
X10883Y1039281D01*
X10808Y1039265D01*
X10733Y1039258D01*
X10689Y1039239D01*
X10642Y1039229D01*
X10577Y1039190D01*
X10508Y1039159D01*
X10472Y1039127D01*
X10431Y1039102D01*
X10382Y1039045D01*
X10326Y1038994D01*
X10302Y1038952D01*
X10271Y1038916D01*
X10243Y1038845D01*
X10206Y1038779D01*
X10197Y1038732D01*
X10179Y1038687D01*
X10165Y1038559D01*
X10161Y1038537D01*
X10162Y1038531D01*
X10161Y1038521D01*
X10161Y61479D01*
X10168Y61432D01*
X10167Y61384D01*
X10188Y61311D01*
X10200Y61237D01*
X10223Y61194D01*
X10237Y61148D01*
X10280Y61086D01*
X10316Y61019D01*
X10350Y60986D01*
X10378Y60947D01*
X10439Y60902D01*
X10494Y60850D01*
X10537Y60830D01*
X10576Y60801D01*
X10648Y60778D01*
X10717Y60746D01*
X10765Y60741D01*
X10810Y60726D01*
X10886Y60727D01*
X10961Y60719D01*
X11008Y60729D01*
X11056Y60730D01*
X11128Y60755D01*
X11202Y60771D01*
X11243Y60796D01*
X11288Y60812D01*
X11348Y60859D01*
X11413Y60898D01*
X11444Y60934D01*
X11482Y60964D01*
X11558Y61067D01*
X11573Y61084D01*
X11575Y61091D01*
X11581Y61099D01*
X11864Y61589D01*
X18411Y68136D01*
X26428Y72765D01*
X35371Y75161D01*
X44629Y75161D01*
X53572Y72765D01*
X61589Y68136D01*
X68136Y61589D01*
X72765Y53572D01*
X75161Y44629D01*
X75161Y35371D01*
X72765Y26428D01*
X68136Y18411D01*
X61589Y11864D01*
X61099Y11581D01*
X61062Y11551D01*
X61019Y11528D01*
X60967Y11473D01*
X60908Y11425D01*
X60883Y11385D01*
X60850Y11350D01*
X60818Y11281D01*
X60778Y11217D01*
X60766Y11171D01*
X60746Y11127D01*
X60738Y11052D01*
X60720Y10978D01*
X60724Y10930D01*
X60719Y10883D01*
X60735Y10808D01*
X60742Y10733D01*
X60761Y10689D01*
X60771Y10642D01*
X60810Y10577D01*
X60841Y10508D01*
X60873Y10472D01*
X60898Y10431D01*
X60955Y10382D01*
X61006Y10326D01*
X61048Y10302D01*
X61084Y10271D01*
X61155Y10243D01*
X61221Y10206D01*
X61268Y10197D01*
X61313Y10179D01*
X61441Y10165D01*
X61463Y10161D01*
X61469Y10162D01*
X61479Y10161D01*
X538521Y10161D01*
X538568Y10168D01*
G37*
%LPC*%
G36*
X130931Y36595D02*
X130931Y36595D01*
X30245Y137281D01*
X30245Y540958D01*
X30231Y541048D01*
X30223Y541139D01*
X30211Y541169D01*
X30206Y541201D01*
X30163Y541282D01*
X30127Y541366D01*
X30101Y541398D01*
X30090Y541418D01*
X30067Y541441D01*
X30022Y541497D01*
X27643Y543876D01*
X25997Y547850D01*
X25997Y552150D01*
X27643Y556124D01*
X30022Y558503D01*
X30067Y558566D01*
X30094Y558594D01*
X30099Y558605D01*
X30135Y558647D01*
X30147Y558677D01*
X30166Y558703D01*
X30193Y558790D01*
X30227Y558875D01*
X30231Y558916D01*
X30238Y558938D01*
X30237Y558970D01*
X30245Y559042D01*
X30245Y943489D01*
X52191Y965435D01*
X149739Y965435D01*
X171685Y943489D01*
X171685Y942201D01*
X171704Y942086D01*
X171721Y941970D01*
X171723Y941964D01*
X171724Y941958D01*
X171779Y941855D01*
X171832Y941750D01*
X171837Y941746D01*
X171840Y941740D01*
X171924Y941660D01*
X172008Y941578D01*
X172014Y941575D01*
X172018Y941571D01*
X172035Y941563D01*
X172155Y941497D01*
X174489Y940530D01*
X177260Y937759D01*
X178760Y934139D01*
X178760Y930221D01*
X177260Y926601D01*
X174489Y923830D01*
X170869Y922330D01*
X166951Y922330D01*
X163331Y923830D01*
X160560Y926601D01*
X159060Y930221D01*
X159060Y934139D01*
X160560Y937759D01*
X163331Y940530D01*
X164728Y941109D01*
X164767Y941133D01*
X164810Y941149D01*
X164871Y941198D01*
X164937Y941239D01*
X164967Y941274D01*
X165002Y941303D01*
X165044Y941368D01*
X165094Y941428D01*
X165111Y941471D01*
X165135Y941510D01*
X165154Y941585D01*
X165182Y941658D01*
X165184Y941704D01*
X165195Y941748D01*
X165189Y941826D01*
X165193Y941904D01*
X165180Y941948D01*
X165176Y941993D01*
X165146Y942065D01*
X165124Y942140D01*
X165098Y942178D01*
X165080Y942220D01*
X164995Y942326D01*
X164984Y942342D01*
X164980Y942345D01*
X164975Y942351D01*
X147664Y959662D01*
X147590Y959715D01*
X147520Y959775D01*
X147490Y959787D01*
X147464Y959806D01*
X147377Y959833D01*
X147292Y959867D01*
X147251Y959871D01*
X147229Y959878D01*
X147197Y959877D01*
X147125Y959885D01*
X134267Y959885D01*
X134196Y959874D01*
X134124Y959872D01*
X134075Y959854D01*
X134024Y959846D01*
X133960Y959812D01*
X133893Y959787D01*
X133852Y959755D01*
X133806Y959730D01*
X133757Y959678D01*
X133701Y959634D01*
X133673Y959590D01*
X133637Y959552D01*
X133607Y959487D01*
X133568Y959427D01*
X133555Y959376D01*
X133533Y959329D01*
X133526Y959258D01*
X133508Y959188D01*
X133512Y959136D01*
X133506Y959085D01*
X133522Y959014D01*
X133527Y958943D01*
X133548Y958895D01*
X133559Y958844D01*
X133595Y958783D01*
X133624Y958717D01*
X133668Y958661D01*
X133685Y958633D01*
X133703Y958618D01*
X133728Y958586D01*
X133808Y958506D01*
X146285Y946029D01*
X146285Y942201D01*
X146304Y942086D01*
X146321Y941970D01*
X146323Y941964D01*
X146324Y941958D01*
X146379Y941855D01*
X146432Y941750D01*
X146437Y941746D01*
X146440Y941740D01*
X146524Y941660D01*
X146608Y941578D01*
X146614Y941575D01*
X146618Y941571D01*
X146635Y941563D01*
X146755Y941497D01*
X149089Y940530D01*
X151860Y937759D01*
X153360Y934139D01*
X153360Y930221D01*
X151860Y926601D01*
X149089Y923830D01*
X145469Y922330D01*
X141551Y922330D01*
X137931Y923830D01*
X135160Y926601D01*
X133660Y930221D01*
X133660Y934139D01*
X135160Y937759D01*
X137931Y940530D01*
X140265Y941497D01*
X140365Y941559D01*
X140465Y941619D01*
X140469Y941624D01*
X140474Y941627D01*
X140549Y941717D01*
X140625Y941806D01*
X140627Y941812D01*
X140631Y941816D01*
X140673Y941924D01*
X140717Y942034D01*
X140718Y942041D01*
X140719Y942046D01*
X140720Y942064D01*
X140735Y942201D01*
X140735Y943415D01*
X140721Y943505D01*
X140713Y943596D01*
X140701Y943626D01*
X140696Y943658D01*
X140653Y943739D01*
X140617Y943823D01*
X140591Y943855D01*
X140580Y943875D01*
X140557Y943898D01*
X140512Y943954D01*
X129884Y954582D01*
X129810Y954635D01*
X129740Y954695D01*
X129710Y954707D01*
X129684Y954726D01*
X129597Y954753D01*
X129512Y954787D01*
X129471Y954791D01*
X129449Y954798D01*
X129417Y954797D01*
X129345Y954805D01*
X56075Y954805D01*
X55985Y954791D01*
X55894Y954783D01*
X55864Y954771D01*
X55832Y954766D01*
X55751Y954723D01*
X55667Y954687D01*
X55635Y954661D01*
X55615Y954650D01*
X55592Y954627D01*
X55536Y954582D01*
X41098Y940144D01*
X41049Y940076D01*
X41048Y940075D01*
X41048Y940074D01*
X41045Y940070D01*
X40985Y940000D01*
X40973Y939970D01*
X40954Y939944D01*
X40927Y939857D01*
X40893Y939772D01*
X40889Y939731D01*
X40882Y939709D01*
X40883Y939677D01*
X40875Y939605D01*
X40875Y773077D01*
X40886Y773006D01*
X40888Y772934D01*
X40906Y772885D01*
X40914Y772834D01*
X40948Y772771D01*
X40973Y772703D01*
X41005Y772663D01*
X41030Y772616D01*
X41082Y772567D01*
X41126Y772511D01*
X41170Y772483D01*
X41208Y772447D01*
X41273Y772417D01*
X41333Y772378D01*
X41384Y772365D01*
X41431Y772343D01*
X41502Y772336D01*
X41572Y772318D01*
X41624Y772322D01*
X41675Y772316D01*
X41746Y772332D01*
X41817Y772337D01*
X41865Y772358D01*
X41916Y772369D01*
X41977Y772405D01*
X42043Y772434D01*
X42099Y772478D01*
X42127Y772495D01*
X42142Y772513D01*
X42174Y772538D01*
X71932Y802296D01*
X73781Y804145D01*
X265783Y804145D01*
X265854Y804156D01*
X265926Y804158D01*
X265975Y804176D01*
X266026Y804184D01*
X266089Y804218D01*
X266157Y804243D01*
X266197Y804275D01*
X266244Y804300D01*
X266293Y804352D01*
X266349Y804396D01*
X266377Y804440D01*
X266413Y804478D01*
X266443Y804543D01*
X266482Y804603D01*
X266495Y804654D01*
X266517Y804701D01*
X266524Y804772D01*
X266542Y804842D01*
X266538Y804894D01*
X266544Y804945D01*
X266528Y805016D01*
X266523Y805087D01*
X266502Y805135D01*
X266491Y805186D01*
X266455Y805247D01*
X266426Y805313D01*
X266382Y805369D01*
X266365Y805397D01*
X266347Y805412D01*
X266322Y805444D01*
X242335Y829431D01*
X242335Y922159D01*
X242333Y922171D01*
X242334Y922178D01*
X242326Y922214D01*
X242316Y922274D01*
X242299Y922390D01*
X242297Y922396D01*
X242296Y922402D01*
X242241Y922505D01*
X242188Y922610D01*
X242183Y922614D01*
X242180Y922620D01*
X242096Y922699D01*
X242012Y922782D01*
X242006Y922785D01*
X242002Y922789D01*
X241985Y922797D01*
X241865Y922863D01*
X239531Y923830D01*
X236760Y926601D01*
X235260Y930221D01*
X235260Y934139D01*
X236760Y937759D01*
X239531Y940530D01*
X243151Y942030D01*
X247069Y942030D01*
X250689Y940530D01*
X253460Y937759D01*
X254960Y934139D01*
X254960Y930221D01*
X253460Y926601D01*
X250689Y923830D01*
X248355Y922863D01*
X248255Y922801D01*
X248155Y922741D01*
X248151Y922736D01*
X248146Y922733D01*
X248071Y922643D01*
X247995Y922554D01*
X247993Y922548D01*
X247989Y922544D01*
X247947Y922436D01*
X247903Y922326D01*
X247902Y922319D01*
X247901Y922314D01*
X247900Y922296D01*
X247885Y922159D01*
X247885Y832045D01*
X247899Y831955D01*
X247907Y831864D01*
X247919Y831834D01*
X247924Y831802D01*
X247967Y831721D01*
X248003Y831637D01*
X248029Y831605D01*
X248040Y831585D01*
X248063Y831562D01*
X248108Y831506D01*
X277786Y801828D01*
X277860Y801775D01*
X277930Y801715D01*
X277960Y801703D01*
X277986Y801684D01*
X278073Y801657D01*
X278158Y801623D01*
X278199Y801619D01*
X278221Y801612D01*
X278253Y801613D01*
X278325Y801605D01*
X463429Y801605D01*
X538136Y726898D01*
X538216Y726818D01*
X538274Y726776D01*
X538326Y726727D01*
X538373Y726705D01*
X538415Y726675D01*
X538484Y726654D01*
X538549Y726623D01*
X538601Y726618D01*
X538650Y726602D01*
X538722Y726604D01*
X538793Y726596D01*
X538844Y726607D01*
X538896Y726609D01*
X538964Y726633D01*
X539034Y726649D01*
X539078Y726675D01*
X539127Y726693D01*
X539183Y726738D01*
X539245Y726775D01*
X539279Y726814D01*
X539319Y726847D01*
X539358Y726907D01*
X539405Y726962D01*
X539424Y727010D01*
X539452Y727054D01*
X539470Y727123D01*
X539497Y727190D01*
X539505Y727261D01*
X539513Y727292D01*
X539511Y727316D01*
X539515Y727357D01*
X539515Y755455D01*
X539514Y755463D01*
X539514Y755464D01*
X539513Y755471D01*
X539501Y755545D01*
X539493Y755636D01*
X539481Y755666D01*
X539476Y755698D01*
X539433Y755779D01*
X539397Y755863D01*
X539371Y755895D01*
X539360Y755915D01*
X539337Y755938D01*
X539292Y755994D01*
X430359Y864927D01*
X430280Y864983D01*
X430205Y865045D01*
X430181Y865055D01*
X430160Y865070D01*
X430067Y865099D01*
X429976Y865134D01*
X429950Y865135D01*
X429925Y865142D01*
X429827Y865140D01*
X429730Y865144D01*
X429705Y865137D01*
X429679Y865136D01*
X429587Y865103D01*
X429494Y865076D01*
X429472Y865061D01*
X429448Y865052D01*
X429371Y864991D01*
X429292Y864935D01*
X429276Y864914D01*
X429256Y864898D01*
X429203Y864816D01*
X429145Y864738D01*
X429137Y864713D01*
X429123Y864691D01*
X429099Y864597D01*
X429069Y864504D01*
X429069Y864478D01*
X429063Y864453D01*
X429070Y864356D01*
X429071Y864258D01*
X429080Y864227D01*
X429082Y864207D01*
X429095Y864177D01*
X429118Y864097D01*
X430785Y860073D01*
X430785Y851887D01*
X427652Y844325D01*
X421865Y838538D01*
X414303Y835405D01*
X406117Y835405D01*
X398555Y838538D01*
X392768Y844325D01*
X389635Y851887D01*
X389635Y860073D01*
X392768Y867635D01*
X398555Y873422D01*
X401400Y874601D01*
X401483Y874652D01*
X401569Y874698D01*
X401587Y874717D01*
X401609Y874730D01*
X401671Y874805D01*
X401738Y874876D01*
X401749Y874900D01*
X401766Y874920D01*
X401801Y875011D01*
X401842Y875099D01*
X401845Y875125D01*
X401854Y875149D01*
X401858Y875247D01*
X401869Y875343D01*
X401863Y875369D01*
X401865Y875395D01*
X401837Y875489D01*
X401817Y875584D01*
X401803Y875606D01*
X401796Y875631D01*
X401740Y875711D01*
X401691Y875795D01*
X401671Y875812D01*
X401656Y875833D01*
X401578Y875892D01*
X401504Y875955D01*
X401479Y875965D01*
X401458Y875980D01*
X401366Y876010D01*
X401275Y876047D01*
X401243Y876050D01*
X401224Y876056D01*
X401191Y876056D01*
X401109Y876065D01*
X310001Y876065D01*
X267735Y918331D01*
X267735Y922159D01*
X267733Y922171D01*
X267734Y922178D01*
X267726Y922214D01*
X267716Y922274D01*
X267699Y922390D01*
X267697Y922396D01*
X267696Y922402D01*
X267641Y922505D01*
X267588Y922610D01*
X267583Y922614D01*
X267580Y922620D01*
X267496Y922699D01*
X267412Y922782D01*
X267406Y922785D01*
X267402Y922789D01*
X267385Y922797D01*
X267265Y922863D01*
X264931Y923830D01*
X262160Y926601D01*
X260660Y930221D01*
X260660Y934139D01*
X262160Y937759D01*
X264931Y940530D01*
X268551Y942030D01*
X272469Y942030D01*
X276089Y940530D01*
X278860Y937759D01*
X280360Y934139D01*
X280360Y930221D01*
X278860Y926601D01*
X276089Y923830D01*
X273755Y922863D01*
X273655Y922801D01*
X273555Y922741D01*
X273551Y922736D01*
X273546Y922733D01*
X273471Y922643D01*
X273395Y922554D01*
X273393Y922548D01*
X273389Y922544D01*
X273347Y922436D01*
X273303Y922326D01*
X273302Y922319D01*
X273301Y922314D01*
X273300Y922296D01*
X273285Y922159D01*
X273285Y920945D01*
X273299Y920855D01*
X273307Y920764D01*
X273319Y920734D01*
X273324Y920702D01*
X273367Y920621D01*
X273403Y920537D01*
X273429Y920505D01*
X273440Y920485D01*
X273463Y920462D01*
X273508Y920406D01*
X312076Y881838D01*
X312150Y881785D01*
X312220Y881725D01*
X312250Y881713D01*
X312276Y881694D01*
X312363Y881667D01*
X312448Y881633D01*
X312489Y881629D01*
X312511Y881622D01*
X312543Y881623D01*
X312615Y881615D01*
X330553Y881615D01*
X330624Y881626D01*
X330696Y881628D01*
X330745Y881646D01*
X330796Y881654D01*
X330860Y881688D01*
X330927Y881713D01*
X330968Y881745D01*
X331014Y881770D01*
X331063Y881822D01*
X331119Y881866D01*
X331147Y881910D01*
X331183Y881948D01*
X331213Y882013D01*
X331252Y882073D01*
X331265Y882124D01*
X331287Y882171D01*
X331294Y882242D01*
X331312Y882312D01*
X331308Y882364D01*
X331314Y882415D01*
X331298Y882486D01*
X331293Y882557D01*
X331272Y882605D01*
X331261Y882656D01*
X331225Y882717D01*
X331196Y882783D01*
X331152Y882839D01*
X331135Y882867D01*
X331117Y882882D01*
X331092Y882914D01*
X331012Y882994D01*
X293135Y920871D01*
X293135Y922159D01*
X293133Y922171D01*
X293134Y922178D01*
X293126Y922214D01*
X293116Y922274D01*
X293099Y922390D01*
X293097Y922396D01*
X293096Y922402D01*
X293041Y922505D01*
X292988Y922610D01*
X292983Y922614D01*
X292980Y922620D01*
X292896Y922699D01*
X292812Y922782D01*
X292806Y922785D01*
X292802Y922789D01*
X292785Y922797D01*
X292665Y922863D01*
X290331Y923830D01*
X287560Y926601D01*
X286060Y930221D01*
X286060Y934139D01*
X287560Y937759D01*
X290331Y940530D01*
X293951Y942030D01*
X297869Y942030D01*
X301489Y940530D01*
X304260Y937759D01*
X305760Y934139D01*
X305760Y930221D01*
X304260Y926601D01*
X301489Y923830D01*
X300092Y923251D01*
X300053Y923227D01*
X300010Y923211D01*
X299949Y923162D01*
X299883Y923121D01*
X299853Y923086D01*
X299818Y923057D01*
X299776Y922992D01*
X299726Y922932D01*
X299709Y922889D01*
X299685Y922850D01*
X299666Y922775D01*
X299638Y922702D01*
X299636Y922656D01*
X299625Y922612D01*
X299631Y922534D01*
X299627Y922456D01*
X299640Y922412D01*
X299644Y922367D01*
X299674Y922295D01*
X299696Y922220D01*
X299722Y922182D01*
X299740Y922140D01*
X299825Y922034D01*
X299836Y922018D01*
X299840Y922015D01*
X299845Y922009D01*
X334936Y886918D01*
X335010Y886865D01*
X335080Y886805D01*
X335110Y886793D01*
X335136Y886774D01*
X335223Y886747D01*
X335308Y886713D01*
X335349Y886709D01*
X335371Y886702D01*
X335403Y886703D01*
X335475Y886695D01*
X422789Y886695D01*
X550145Y759339D01*
X550145Y158871D01*
X526929Y135655D01*
X122041Y135655D01*
X42174Y215522D01*
X42116Y215563D01*
X42064Y215613D01*
X42017Y215635D01*
X41975Y215665D01*
X41906Y215686D01*
X41841Y215717D01*
X41789Y215722D01*
X41739Y215738D01*
X41668Y215736D01*
X41597Y215744D01*
X41546Y215733D01*
X41494Y215731D01*
X41426Y215707D01*
X41356Y215691D01*
X41312Y215665D01*
X41263Y215647D01*
X41207Y215602D01*
X41145Y215565D01*
X41111Y215526D01*
X41071Y215493D01*
X41032Y215433D01*
X40985Y215378D01*
X40966Y215330D01*
X40938Y215286D01*
X40920Y215217D01*
X40893Y215150D01*
X40885Y215079D01*
X40877Y215048D01*
X40879Y215024D01*
X40875Y214983D01*
X40875Y142435D01*
X40889Y142345D01*
X40897Y142254D01*
X40909Y142224D01*
X40914Y142192D01*
X40957Y142111D01*
X40993Y142027D01*
X41019Y141995D01*
X41030Y141975D01*
X41053Y141952D01*
X41098Y141896D01*
X110676Y72318D01*
X110734Y72277D01*
X110786Y72227D01*
X110833Y72205D01*
X110875Y72175D01*
X110944Y72154D01*
X111009Y72123D01*
X111061Y72118D01*
X111111Y72102D01*
X111182Y72104D01*
X111253Y72096D01*
X111304Y72107D01*
X111356Y72109D01*
X111424Y72133D01*
X111494Y72149D01*
X111538Y72175D01*
X111587Y72193D01*
X111643Y72238D01*
X111705Y72275D01*
X111739Y72314D01*
X111779Y72347D01*
X111818Y72407D01*
X111865Y72462D01*
X111884Y72510D01*
X111912Y72554D01*
X111930Y72623D01*
X111957Y72690D01*
X111965Y72761D01*
X111973Y72792D01*
X111971Y72816D01*
X111975Y72857D01*
X111975Y85412D01*
X112868Y86305D01*
X126212Y86305D01*
X127105Y85412D01*
X127105Y72068D01*
X126212Y71175D01*
X113657Y71175D01*
X113586Y71164D01*
X113514Y71162D01*
X113465Y71144D01*
X113414Y71136D01*
X113351Y71102D01*
X113283Y71077D01*
X113242Y71045D01*
X113196Y71020D01*
X113147Y70969D01*
X113091Y70924D01*
X113063Y70880D01*
X113027Y70842D01*
X112997Y70777D01*
X112958Y70717D01*
X112945Y70666D01*
X112923Y70619D01*
X112916Y70548D01*
X112898Y70478D01*
X112902Y70426D01*
X112896Y70375D01*
X112912Y70304D01*
X112917Y70233D01*
X112938Y70185D01*
X112949Y70134D01*
X112985Y70073D01*
X113014Y70007D01*
X113058Y69951D01*
X113075Y69923D01*
X113093Y69908D01*
X113118Y69876D01*
X135546Y47448D01*
X135620Y47395D01*
X135690Y47335D01*
X135720Y47323D01*
X135746Y47304D01*
X135833Y47277D01*
X135918Y47243D01*
X135959Y47239D01*
X135981Y47232D01*
X136013Y47233D01*
X136085Y47225D01*
X194115Y47225D01*
X194205Y47239D01*
X194296Y47247D01*
X194326Y47259D01*
X194358Y47264D01*
X194439Y47307D01*
X194523Y47343D01*
X194555Y47369D01*
X194575Y47380D01*
X194598Y47403D01*
X194654Y47448D01*
X197662Y50456D01*
X197715Y50530D01*
X197775Y50600D01*
X197787Y50630D01*
X197806Y50656D01*
X197833Y50743D01*
X197867Y50828D01*
X197871Y50869D01*
X197878Y50891D01*
X197877Y50923D01*
X197885Y50995D01*
X197885Y119259D01*
X199733Y121108D01*
X199734Y121108D01*
X205282Y126656D01*
X207131Y128505D01*
X286899Y128505D01*
X293605Y121799D01*
X293605Y116331D01*
X293624Y116216D01*
X293641Y116100D01*
X293643Y116095D01*
X293644Y116088D01*
X293699Y115986D01*
X293752Y115881D01*
X293757Y115877D01*
X293760Y115871D01*
X293844Y115791D01*
X293928Y115709D01*
X293934Y115705D01*
X293938Y115702D01*
X293955Y115694D01*
X294075Y115628D01*
X295082Y115211D01*
X297491Y112802D01*
X298795Y109654D01*
X298795Y106246D01*
X297491Y103098D01*
X295082Y100689D01*
X291934Y99385D01*
X288526Y99385D01*
X285378Y100689D01*
X282969Y103098D01*
X281665Y106246D01*
X281665Y109654D01*
X282969Y112802D01*
X285378Y115211D01*
X287585Y116125D01*
X287685Y116186D01*
X287785Y116246D01*
X287789Y116251D01*
X287794Y116255D01*
X287869Y116345D01*
X287945Y116433D01*
X287947Y116439D01*
X287951Y116444D01*
X287993Y116552D01*
X288037Y116662D01*
X288038Y116669D01*
X288039Y116674D01*
X288040Y116692D01*
X288055Y116828D01*
X288055Y119185D01*
X288041Y119275D01*
X288033Y119366D01*
X288021Y119396D01*
X288016Y119428D01*
X287973Y119509D01*
X287937Y119593D01*
X287911Y119625D01*
X287900Y119645D01*
X287877Y119668D01*
X287832Y119724D01*
X284824Y122732D01*
X284750Y122785D01*
X284680Y122845D01*
X284650Y122857D01*
X284624Y122876D01*
X284537Y122903D01*
X284452Y122937D01*
X284411Y122941D01*
X284389Y122948D01*
X284357Y122947D01*
X284285Y122955D01*
X209745Y122955D01*
X209655Y122941D01*
X209564Y122933D01*
X209534Y122921D01*
X209502Y122916D01*
X209421Y122873D01*
X209337Y122837D01*
X209305Y122811D01*
X209285Y122800D01*
X209262Y122777D01*
X209206Y122732D01*
X203658Y117184D01*
X203605Y117110D01*
X203545Y117040D01*
X203533Y117010D01*
X203514Y116984D01*
X203487Y116897D01*
X203453Y116812D01*
X203449Y116771D01*
X203442Y116749D01*
X203443Y116717D01*
X203435Y116645D01*
X203435Y48381D01*
X201587Y46532D01*
X201586Y46532D01*
X198498Y43444D01*
X198457Y43386D01*
X198407Y43334D01*
X198385Y43287D01*
X198355Y43245D01*
X198334Y43176D01*
X198303Y43111D01*
X198298Y43059D01*
X198282Y43009D01*
X198284Y42938D01*
X198276Y42867D01*
X198287Y42816D01*
X198289Y42764D01*
X198313Y42696D01*
X198329Y42626D01*
X198355Y42582D01*
X198373Y42533D01*
X198418Y42477D01*
X198455Y42415D01*
X198494Y42381D01*
X198527Y42341D01*
X198587Y42302D01*
X198642Y42255D01*
X198690Y42236D01*
X198734Y42208D01*
X198803Y42190D01*
X198870Y42163D01*
X198941Y42155D01*
X198972Y42147D01*
X198996Y42149D01*
X199037Y42145D01*
X241105Y42145D01*
X241195Y42159D01*
X241286Y42167D01*
X241316Y42179D01*
X241348Y42184D01*
X241429Y42227D01*
X241513Y42263D01*
X241545Y42289D01*
X241565Y42300D01*
X241588Y42323D01*
X241644Y42368D01*
X262232Y62956D01*
X262285Y63030D01*
X262345Y63100D01*
X262357Y63130D01*
X262376Y63156D01*
X262403Y63243D01*
X262437Y63328D01*
X262441Y63369D01*
X262448Y63391D01*
X262447Y63423D01*
X262455Y63495D01*
X262455Y99320D01*
X262436Y99435D01*
X262419Y99551D01*
X262417Y99557D01*
X262416Y99563D01*
X262361Y99666D01*
X262308Y99770D01*
X262303Y99775D01*
X262300Y99780D01*
X262216Y99860D01*
X262132Y99943D01*
X262126Y99946D01*
X262122Y99950D01*
X262105Y99958D01*
X261985Y100024D01*
X260378Y100689D01*
X257969Y103098D01*
X256665Y106246D01*
X256665Y109654D01*
X257969Y112802D01*
X260378Y115211D01*
X263526Y116515D01*
X266934Y116515D01*
X270082Y115211D01*
X272491Y112802D01*
X273795Y109654D01*
X273795Y106246D01*
X272491Y103098D01*
X270082Y100689D01*
X268475Y100024D01*
X268375Y99962D01*
X268275Y99902D01*
X268271Y99897D01*
X268266Y99894D01*
X268191Y99804D01*
X268115Y99715D01*
X268113Y99709D01*
X268109Y99704D01*
X268067Y99596D01*
X268023Y99487D01*
X268022Y99479D01*
X268021Y99475D01*
X268020Y99457D01*
X268005Y99320D01*
X268005Y60881D01*
X243719Y36595D01*
X130931Y36595D01*
G37*
%LPD*%
G36*
X516785Y160269D02*
X516785Y160269D01*
X516876Y160277D01*
X516906Y160289D01*
X516938Y160294D01*
X517019Y160337D01*
X517103Y160373D01*
X517135Y160399D01*
X517155Y160410D01*
X517178Y160433D01*
X517234Y160478D01*
X524052Y167296D01*
X524105Y167370D01*
X524165Y167440D01*
X524177Y167470D01*
X524196Y167496D01*
X524223Y167583D01*
X524257Y167668D01*
X524261Y167709D01*
X524268Y167731D01*
X524267Y167763D01*
X524275Y167835D01*
X524275Y719895D01*
X524261Y719985D01*
X524253Y720076D01*
X524241Y720106D01*
X524236Y720138D01*
X524193Y720219D01*
X524157Y720303D01*
X524131Y720335D01*
X524120Y720355D01*
X524097Y720378D01*
X524052Y720434D01*
X482944Y761542D01*
X482870Y761595D01*
X482800Y761655D01*
X482770Y761667D01*
X482744Y761686D01*
X482657Y761713D01*
X482572Y761747D01*
X482531Y761751D01*
X482509Y761758D01*
X482477Y761757D01*
X482405Y761765D01*
X349371Y761765D01*
X343935Y767201D01*
X343935Y769759D01*
X343916Y769874D01*
X343899Y769990D01*
X343897Y769996D01*
X343896Y770002D01*
X343841Y770105D01*
X343788Y770210D01*
X343783Y770214D01*
X343780Y770220D01*
X343696Y770299D01*
X343612Y770382D01*
X343606Y770385D01*
X343602Y770389D01*
X343585Y770397D01*
X343465Y770463D01*
X341131Y771430D01*
X338360Y774201D01*
X336860Y777821D01*
X336860Y781739D01*
X338360Y785359D01*
X341131Y788130D01*
X344751Y789630D01*
X348669Y789630D01*
X352289Y788130D01*
X355060Y785359D01*
X356560Y781739D01*
X356560Y777821D01*
X355060Y774201D01*
X352289Y771430D01*
X349994Y770479D01*
X349955Y770455D01*
X349912Y770439D01*
X349851Y770390D01*
X349785Y770349D01*
X349755Y770314D01*
X349720Y770285D01*
X349678Y770220D01*
X349628Y770160D01*
X349611Y770117D01*
X349587Y770078D01*
X349568Y770003D01*
X349540Y769930D01*
X349538Y769884D01*
X349527Y769840D01*
X349533Y769762D01*
X349529Y769684D01*
X349542Y769640D01*
X349546Y769595D01*
X349576Y769523D01*
X349598Y769448D01*
X349624Y769410D01*
X349642Y769368D01*
X349727Y769262D01*
X349738Y769246D01*
X349742Y769243D01*
X349747Y769237D01*
X351446Y767538D01*
X351520Y767485D01*
X351590Y767425D01*
X351620Y767413D01*
X351646Y767394D01*
X351733Y767367D01*
X351818Y767333D01*
X351859Y767329D01*
X351881Y767322D01*
X351913Y767323D01*
X351985Y767315D01*
X481683Y767315D01*
X481754Y767326D01*
X481826Y767328D01*
X481875Y767346D01*
X481926Y767354D01*
X481989Y767388D01*
X482057Y767413D01*
X482097Y767445D01*
X482144Y767470D01*
X482193Y767522D01*
X482249Y767566D01*
X482277Y767610D01*
X482313Y767648D01*
X482343Y767713D01*
X482382Y767773D01*
X482395Y767824D01*
X482417Y767871D01*
X482424Y767942D01*
X482442Y768012D01*
X482438Y768064D01*
X482444Y768115D01*
X482428Y768186D01*
X482423Y768257D01*
X482402Y768305D01*
X482391Y768356D01*
X482355Y768417D01*
X482326Y768483D01*
X482282Y768539D01*
X482265Y768567D01*
X482247Y768582D01*
X482222Y768614D01*
X460084Y790752D01*
X460010Y790805D01*
X459940Y790865D01*
X459910Y790877D01*
X459884Y790896D01*
X459797Y790923D01*
X459712Y790957D01*
X459671Y790961D01*
X459649Y790968D01*
X459617Y790967D01*
X459545Y790975D01*
X425448Y790975D01*
X425352Y790960D01*
X425255Y790950D01*
X425231Y790940D01*
X425205Y790936D01*
X425119Y790890D01*
X425030Y790850D01*
X425011Y790833D01*
X424988Y790820D01*
X424921Y790750D01*
X424849Y790684D01*
X424836Y790661D01*
X424818Y790642D01*
X424777Y790554D01*
X424730Y790468D01*
X424726Y790443D01*
X424715Y790419D01*
X424704Y790322D01*
X424687Y790226D01*
X424690Y790200D01*
X424688Y790175D01*
X424708Y790079D01*
X424722Y789983D01*
X424734Y789960D01*
X424740Y789934D01*
X424790Y789851D01*
X424834Y789764D01*
X424853Y789745D01*
X424866Y789723D01*
X424940Y789660D01*
X425010Y789592D01*
X425038Y789576D01*
X425053Y789563D01*
X425084Y789551D01*
X425157Y789511D01*
X428489Y788130D01*
X431260Y785359D01*
X432760Y781739D01*
X432760Y777821D01*
X431260Y774201D01*
X428489Y771430D01*
X424869Y769930D01*
X420951Y769930D01*
X417331Y771430D01*
X414560Y774201D01*
X413060Y777821D01*
X413060Y781739D01*
X414560Y785359D01*
X417331Y788130D01*
X420663Y789511D01*
X420746Y789562D01*
X420832Y789608D01*
X420850Y789627D01*
X420873Y789640D01*
X420935Y789715D01*
X421002Y789786D01*
X421013Y789810D01*
X421029Y789830D01*
X421064Y789921D01*
X421105Y790009D01*
X421108Y790035D01*
X421118Y790059D01*
X421122Y790157D01*
X421132Y790253D01*
X421127Y790279D01*
X421128Y790305D01*
X421101Y790399D01*
X421080Y790494D01*
X421067Y790516D01*
X421059Y790541D01*
X421004Y790621D01*
X420954Y790705D01*
X420934Y790722D01*
X420919Y790743D01*
X420841Y790802D01*
X420767Y790865D01*
X420743Y790875D01*
X420722Y790890D01*
X420629Y790920D01*
X420539Y790957D01*
X420506Y790960D01*
X420488Y790966D01*
X420455Y790966D01*
X420372Y790975D01*
X400048Y790975D01*
X399952Y790960D01*
X399855Y790950D01*
X399831Y790940D01*
X399805Y790936D01*
X399719Y790890D01*
X399630Y790850D01*
X399611Y790833D01*
X399588Y790820D01*
X399521Y790750D01*
X399449Y790684D01*
X399436Y790661D01*
X399418Y790642D01*
X399377Y790554D01*
X399330Y790468D01*
X399326Y790443D01*
X399315Y790419D01*
X399304Y790322D01*
X399287Y790226D01*
X399290Y790200D01*
X399288Y790175D01*
X399308Y790079D01*
X399322Y789983D01*
X399334Y789960D01*
X399340Y789934D01*
X399390Y789851D01*
X399434Y789764D01*
X399453Y789745D01*
X399466Y789723D01*
X399540Y789660D01*
X399610Y789592D01*
X399638Y789576D01*
X399653Y789563D01*
X399684Y789551D01*
X399757Y789511D01*
X403089Y788130D01*
X405860Y785359D01*
X407360Y781739D01*
X407360Y777821D01*
X405860Y774201D01*
X403089Y771430D01*
X399469Y769930D01*
X395551Y769930D01*
X391931Y771430D01*
X389160Y774201D01*
X387660Y777821D01*
X387660Y781739D01*
X389160Y785359D01*
X391931Y788130D01*
X395263Y789511D01*
X395346Y789562D01*
X395432Y789608D01*
X395450Y789627D01*
X395473Y789640D01*
X395535Y789715D01*
X395602Y789786D01*
X395613Y789810D01*
X395629Y789830D01*
X395664Y789921D01*
X395705Y790009D01*
X395708Y790035D01*
X395718Y790059D01*
X395722Y790157D01*
X395732Y790253D01*
X395727Y790279D01*
X395728Y790305D01*
X395701Y790399D01*
X395680Y790494D01*
X395667Y790516D01*
X395659Y790541D01*
X395604Y790621D01*
X395554Y790705D01*
X395534Y790722D01*
X395519Y790743D01*
X395441Y790802D01*
X395367Y790865D01*
X395343Y790875D01*
X395322Y790890D01*
X395229Y790920D01*
X395139Y790957D01*
X395106Y790960D01*
X395088Y790966D01*
X395055Y790966D01*
X394972Y790975D01*
X383735Y790975D01*
X383645Y790961D01*
X383554Y790953D01*
X383524Y790941D01*
X383492Y790936D01*
X383411Y790893D01*
X383327Y790857D01*
X383295Y790831D01*
X383275Y790820D01*
X383252Y790797D01*
X383196Y790752D01*
X379670Y787226D01*
X379658Y787210D01*
X379643Y787197D01*
X379587Y787110D01*
X379527Y787026D01*
X379521Y787007D01*
X379510Y786990D01*
X379485Y786890D01*
X379454Y786791D01*
X379455Y786771D01*
X379450Y786752D01*
X379458Y786649D01*
X379461Y786545D01*
X379467Y786527D01*
X379469Y786507D01*
X379509Y786412D01*
X379545Y786314D01*
X379558Y786299D01*
X379565Y786280D01*
X379670Y786149D01*
X380460Y785359D01*
X381960Y781739D01*
X381960Y777821D01*
X380460Y774201D01*
X377689Y771430D01*
X374069Y769930D01*
X370151Y769930D01*
X366531Y771430D01*
X363760Y774201D01*
X362260Y777821D01*
X362260Y781739D01*
X363760Y785359D01*
X366531Y788130D01*
X370151Y789630D01*
X373910Y789630D01*
X374000Y789644D01*
X374091Y789652D01*
X374121Y789664D01*
X374153Y789669D01*
X374234Y789712D01*
X374318Y789748D01*
X374350Y789774D01*
X374370Y789785D01*
X374393Y789808D01*
X374449Y789853D01*
X379352Y794756D01*
X379393Y794814D01*
X379443Y794866D01*
X379465Y794913D01*
X379495Y794955D01*
X379516Y795024D01*
X379547Y795089D01*
X379552Y795141D01*
X379568Y795191D01*
X379566Y795262D01*
X379574Y795333D01*
X379563Y795384D01*
X379561Y795436D01*
X379537Y795504D01*
X379521Y795574D01*
X379495Y795618D01*
X379477Y795667D01*
X379432Y795723D01*
X379395Y795785D01*
X379356Y795819D01*
X379323Y795859D01*
X379263Y795898D01*
X379208Y795945D01*
X379160Y795964D01*
X379116Y795992D01*
X379047Y796010D01*
X378980Y796037D01*
X378909Y796045D01*
X378878Y796053D01*
X378854Y796051D01*
X378813Y796055D01*
X279047Y796055D01*
X278976Y796044D01*
X278904Y796042D01*
X278855Y796024D01*
X278804Y796016D01*
X278741Y795982D01*
X278673Y795957D01*
X278632Y795925D01*
X278586Y795900D01*
X278537Y795849D01*
X278481Y795804D01*
X278453Y795760D01*
X278417Y795722D01*
X278387Y795657D01*
X278348Y795597D01*
X278335Y795546D01*
X278313Y795499D01*
X278306Y795428D01*
X278288Y795358D01*
X278292Y795306D01*
X278286Y795255D01*
X278302Y795184D01*
X278307Y795113D01*
X278328Y795065D01*
X278339Y795014D01*
X278375Y794953D01*
X278404Y794887D01*
X278448Y794831D01*
X278465Y794803D01*
X278483Y794788D01*
X278508Y794756D01*
X284136Y789128D01*
X285985Y787279D01*
X285985Y785384D01*
X286000Y785288D01*
X286010Y785191D01*
X286020Y785167D01*
X286024Y785141D01*
X286070Y785055D01*
X286110Y784966D01*
X286127Y784947D01*
X286140Y784924D01*
X286210Y784857D01*
X286276Y784785D01*
X286299Y784772D01*
X286318Y784754D01*
X286406Y784713D01*
X286492Y784666D01*
X286517Y784662D01*
X286541Y784651D01*
X286638Y784640D01*
X286734Y784623D01*
X286760Y784627D01*
X286785Y784624D01*
X286880Y784644D01*
X286977Y784658D01*
X287000Y784670D01*
X287026Y784676D01*
X287109Y784726D01*
X287196Y784770D01*
X287215Y784789D01*
X287237Y784802D01*
X287300Y784876D01*
X287368Y784946D01*
X287384Y784974D01*
X287397Y784989D01*
X287409Y785020D01*
X287449Y785093D01*
X287560Y785359D01*
X290331Y788130D01*
X293951Y789630D01*
X297869Y789630D01*
X301489Y788130D01*
X304260Y785359D01*
X305760Y781739D01*
X305760Y777821D01*
X304260Y774201D01*
X301489Y771430D01*
X299155Y770463D01*
X299055Y770401D01*
X298955Y770341D01*
X298951Y770336D01*
X298946Y770333D01*
X298871Y770243D01*
X298795Y770154D01*
X298793Y770148D01*
X298789Y770144D01*
X298747Y770036D01*
X298703Y769926D01*
X298702Y769919D01*
X298701Y769914D01*
X298700Y769896D01*
X298685Y769759D01*
X298685Y758385D01*
X298699Y758295D01*
X298707Y758204D01*
X298719Y758174D01*
X298724Y758142D01*
X298767Y758061D01*
X298803Y757977D01*
X298829Y757945D01*
X298840Y757925D01*
X298863Y757902D01*
X298908Y757846D01*
X317236Y739518D01*
X317294Y739477D01*
X317346Y739427D01*
X317393Y739405D01*
X317435Y739375D01*
X317504Y739354D01*
X317569Y739323D01*
X317621Y739318D01*
X317671Y739302D01*
X317742Y739304D01*
X317813Y739296D01*
X317864Y739307D01*
X317916Y739309D01*
X317984Y739333D01*
X318054Y739349D01*
X318099Y739375D01*
X318147Y739393D01*
X318203Y739438D01*
X318265Y739475D01*
X318299Y739514D01*
X318339Y739547D01*
X318378Y739607D01*
X318425Y739662D01*
X318444Y739710D01*
X318472Y739754D01*
X318490Y739823D01*
X318517Y739890D01*
X318525Y739961D01*
X318533Y739992D01*
X318531Y740016D01*
X318535Y740057D01*
X318535Y769759D01*
X318516Y769874D01*
X318499Y769990D01*
X318497Y769996D01*
X318496Y770002D01*
X318441Y770105D01*
X318388Y770210D01*
X318383Y770214D01*
X318380Y770220D01*
X318296Y770299D01*
X318212Y770382D01*
X318206Y770385D01*
X318202Y770389D01*
X318185Y770397D01*
X318065Y770463D01*
X315731Y771430D01*
X312960Y774201D01*
X311460Y777821D01*
X311460Y781739D01*
X312960Y785359D01*
X315731Y788130D01*
X319351Y789630D01*
X323269Y789630D01*
X326889Y788130D01*
X329660Y785359D01*
X331160Y781739D01*
X331160Y777821D01*
X329660Y774201D01*
X326889Y771430D01*
X324555Y770463D01*
X324455Y770401D01*
X324355Y770341D01*
X324351Y770336D01*
X324346Y770333D01*
X324271Y770243D01*
X324195Y770154D01*
X324193Y770148D01*
X324189Y770144D01*
X324147Y770036D01*
X324103Y769926D01*
X324102Y769919D01*
X324101Y769914D01*
X324100Y769896D01*
X324085Y769759D01*
X324085Y739335D01*
X324099Y739245D01*
X324107Y739154D01*
X324119Y739124D01*
X324124Y739092D01*
X324167Y739011D01*
X324203Y738927D01*
X324229Y738895D01*
X324240Y738875D01*
X324263Y738852D01*
X324308Y738796D01*
X370496Y692608D01*
X370570Y692555D01*
X370640Y692495D01*
X370670Y692483D01*
X370696Y692464D01*
X370783Y692437D01*
X370868Y692403D01*
X370909Y692399D01*
X370931Y692392D01*
X370963Y692393D01*
X371035Y692385D01*
X490099Y692385D01*
X504425Y678059D01*
X504425Y574831D01*
X485598Y556004D01*
X485545Y555930D01*
X485485Y555860D01*
X485473Y555830D01*
X485454Y555804D01*
X485427Y555717D01*
X485393Y555632D01*
X485389Y555591D01*
X485382Y555569D01*
X485383Y555537D01*
X485375Y555465D01*
X485375Y528730D01*
X485394Y528615D01*
X485411Y528499D01*
X485413Y528493D01*
X485414Y528487D01*
X485469Y528385D01*
X485522Y528280D01*
X485527Y528275D01*
X485530Y528270D01*
X485614Y528189D01*
X485698Y528107D01*
X485704Y528104D01*
X485708Y528100D01*
X485725Y528092D01*
X485845Y528026D01*
X487452Y527361D01*
X489861Y524952D01*
X491165Y521804D01*
X491165Y518396D01*
X489861Y515248D01*
X487452Y512839D01*
X484304Y511535D01*
X480896Y511535D01*
X477748Y512839D01*
X475339Y515248D01*
X474139Y518145D01*
X474088Y518228D01*
X474042Y518314D01*
X474024Y518332D01*
X474010Y518354D01*
X473934Y518417D01*
X473864Y518483D01*
X473840Y518494D01*
X473820Y518511D01*
X473729Y518546D01*
X473641Y518587D01*
X473615Y518590D01*
X473591Y518599D01*
X473493Y518603D01*
X473397Y518614D01*
X473371Y518609D01*
X473345Y518610D01*
X473251Y518583D01*
X473156Y518562D01*
X473134Y518548D01*
X473109Y518541D01*
X473029Y518486D01*
X472945Y518436D01*
X472928Y518416D01*
X472907Y518401D01*
X472848Y518323D01*
X472785Y518249D01*
X472775Y518225D01*
X472760Y518204D01*
X472730Y518111D01*
X472693Y518021D01*
X472690Y517988D01*
X472684Y517970D01*
X472684Y517937D01*
X472675Y517854D01*
X472675Y500375D01*
X472676Y500368D01*
X472676Y500366D01*
X472677Y500360D01*
X472689Y500285D01*
X472697Y500194D01*
X472709Y500164D01*
X472714Y500132D01*
X472757Y500052D01*
X472793Y499967D01*
X472819Y499935D01*
X472830Y499915D01*
X472853Y499892D01*
X472898Y499836D01*
X473785Y498949D01*
X473822Y498923D01*
X473853Y498889D01*
X473921Y498851D01*
X473984Y498806D01*
X474028Y498792D01*
X474069Y498770D01*
X474145Y498756D01*
X474220Y498733D01*
X474265Y498735D01*
X474311Y498726D01*
X474388Y498738D01*
X474465Y498740D01*
X474509Y498756D01*
X474554Y498762D01*
X474623Y498797D01*
X474696Y498824D01*
X474732Y498853D01*
X474773Y498874D01*
X474828Y498929D01*
X474888Y498978D01*
X474913Y499017D01*
X474945Y499049D01*
X475011Y499169D01*
X475021Y499185D01*
X475023Y499190D01*
X475026Y499196D01*
X475339Y499952D01*
X477748Y502361D01*
X480896Y503665D01*
X484304Y503665D01*
X487452Y502361D01*
X489861Y499952D01*
X491165Y496804D01*
X491165Y493396D01*
X489861Y490248D01*
X487452Y487839D01*
X484304Y486535D01*
X480896Y486535D01*
X477748Y487839D01*
X475339Y490248D01*
X474674Y491855D01*
X474612Y491955D01*
X474552Y492055D01*
X474547Y492059D01*
X474544Y492064D01*
X474454Y492139D01*
X474365Y492215D01*
X474359Y492217D01*
X474354Y492221D01*
X474246Y492263D01*
X474137Y492307D01*
X474129Y492308D01*
X474125Y492309D01*
X474107Y492310D01*
X473970Y492325D01*
X472561Y492325D01*
X467125Y497761D01*
X467125Y552329D01*
X493572Y578776D01*
X493625Y578850D01*
X493685Y578920D01*
X493697Y578950D01*
X493716Y578976D01*
X493743Y579063D01*
X493777Y579148D01*
X493781Y579189D01*
X493788Y579211D01*
X493787Y579243D01*
X493795Y579315D01*
X493795Y674175D01*
X493781Y674265D01*
X493773Y674356D01*
X493761Y674386D01*
X493756Y674418D01*
X493713Y674499D01*
X493677Y674583D01*
X493651Y674615D01*
X493640Y674635D01*
X493617Y674658D01*
X493572Y674714D01*
X491808Y676478D01*
X491729Y676535D01*
X491654Y676597D01*
X491629Y676606D01*
X491608Y676622D01*
X491515Y676650D01*
X491424Y676685D01*
X491398Y676686D01*
X491373Y676694D01*
X491276Y676691D01*
X491178Y676696D01*
X491153Y676688D01*
X491127Y676688D01*
X491036Y676654D01*
X490942Y676627D01*
X490921Y676612D01*
X490896Y676603D01*
X490820Y676542D01*
X490740Y676487D01*
X490725Y676466D01*
X490704Y676449D01*
X490651Y676367D01*
X490593Y676289D01*
X490585Y676265D01*
X490571Y676243D01*
X490547Y676148D01*
X490517Y676056D01*
X490517Y676029D01*
X490511Y676004D01*
X490519Y675907D01*
X490520Y675810D01*
X490529Y675778D01*
X490530Y675759D01*
X490543Y675729D01*
X490566Y675648D01*
X491165Y674204D01*
X491165Y670796D01*
X489861Y667648D01*
X487452Y665239D01*
X484304Y663935D01*
X480896Y663935D01*
X477748Y665239D01*
X475339Y667648D01*
X474674Y669255D01*
X474612Y669355D01*
X474552Y669455D01*
X474547Y669459D01*
X474544Y669464D01*
X474454Y669539D01*
X474365Y669615D01*
X474359Y669617D01*
X474354Y669621D01*
X474246Y669663D01*
X474137Y669707D01*
X474129Y669708D01*
X474125Y669709D01*
X474107Y669710D01*
X473970Y669725D01*
X283457Y669725D01*
X283386Y669714D01*
X283314Y669712D01*
X283265Y669694D01*
X283214Y669686D01*
X283151Y669652D01*
X283083Y669627D01*
X283043Y669595D01*
X282996Y669570D01*
X282947Y669518D01*
X282891Y669474D01*
X282863Y669430D01*
X282827Y669392D01*
X282797Y669327D01*
X282758Y669267D01*
X282745Y669216D01*
X282723Y669169D01*
X282716Y669098D01*
X282698Y669028D01*
X282702Y668976D01*
X282696Y668925D01*
X282712Y668854D01*
X282717Y668783D01*
X282738Y668735D01*
X282749Y668684D01*
X282785Y668623D01*
X282814Y668557D01*
X282858Y668501D01*
X282875Y668473D01*
X282893Y668458D01*
X282918Y668426D01*
X300846Y650498D01*
X300920Y650445D01*
X300990Y650385D01*
X301020Y650373D01*
X301046Y650354D01*
X301133Y650327D01*
X301218Y650293D01*
X301259Y650289D01*
X301281Y650282D01*
X301313Y650283D01*
X301385Y650275D01*
X473970Y650275D01*
X474085Y650294D01*
X474201Y650311D01*
X474207Y650313D01*
X474213Y650314D01*
X474316Y650369D01*
X474420Y650422D01*
X474425Y650427D01*
X474430Y650430D01*
X474510Y650514D01*
X474593Y650598D01*
X474596Y650604D01*
X474600Y650608D01*
X474608Y650625D01*
X474674Y650745D01*
X475339Y652352D01*
X477748Y654761D01*
X480896Y656065D01*
X484304Y656065D01*
X487452Y654761D01*
X489861Y652352D01*
X491165Y649204D01*
X491165Y645796D01*
X489861Y642648D01*
X487452Y640239D01*
X484304Y638935D01*
X480896Y638935D01*
X477748Y640239D01*
X475339Y642648D01*
X474674Y644255D01*
X474612Y644355D01*
X474552Y644455D01*
X474547Y644459D01*
X474544Y644464D01*
X474454Y644539D01*
X474365Y644615D01*
X474359Y644617D01*
X474354Y644621D01*
X474246Y644663D01*
X474137Y644707D01*
X474129Y644708D01*
X474125Y644709D01*
X474107Y644710D01*
X473970Y644725D01*
X298771Y644725D01*
X191535Y751961D01*
X191535Y769759D01*
X191516Y769874D01*
X191499Y769990D01*
X191497Y769996D01*
X191496Y770002D01*
X191441Y770105D01*
X191388Y770210D01*
X191383Y770214D01*
X191380Y770220D01*
X191296Y770299D01*
X191212Y770382D01*
X191206Y770385D01*
X191202Y770389D01*
X191185Y770397D01*
X191065Y770463D01*
X188731Y771430D01*
X185960Y774201D01*
X184460Y777821D01*
X184460Y781739D01*
X185960Y785359D01*
X188731Y788130D01*
X192351Y789630D01*
X196269Y789630D01*
X199889Y788130D01*
X202660Y785359D01*
X204160Y781739D01*
X204160Y777821D01*
X202660Y774201D01*
X199889Y771430D01*
X197555Y770463D01*
X197455Y770401D01*
X197355Y770341D01*
X197351Y770336D01*
X197346Y770333D01*
X197271Y770243D01*
X197195Y770154D01*
X197193Y770148D01*
X197189Y770144D01*
X197147Y770036D01*
X197103Y769926D01*
X197102Y769919D01*
X197101Y769914D01*
X197100Y769896D01*
X197085Y769759D01*
X197085Y754575D01*
X197099Y754485D01*
X197107Y754394D01*
X197119Y754364D01*
X197124Y754332D01*
X197167Y754251D01*
X197203Y754167D01*
X197229Y754135D01*
X197240Y754115D01*
X197263Y754092D01*
X197308Y754036D01*
X215636Y735708D01*
X215694Y735667D01*
X215746Y735617D01*
X215793Y735595D01*
X215835Y735565D01*
X215904Y735544D01*
X215969Y735513D01*
X216021Y735508D01*
X216071Y735492D01*
X216142Y735494D01*
X216213Y735486D01*
X216264Y735497D01*
X216316Y735499D01*
X216384Y735523D01*
X216454Y735539D01*
X216499Y735565D01*
X216547Y735583D01*
X216603Y735628D01*
X216665Y735665D01*
X216699Y735704D01*
X216739Y735737D01*
X216778Y735797D01*
X216825Y735852D01*
X216844Y735900D01*
X216872Y735944D01*
X216890Y736013D01*
X216917Y736080D01*
X216925Y736151D01*
X216933Y736182D01*
X216931Y736206D01*
X216935Y736247D01*
X216935Y769759D01*
X216916Y769874D01*
X216899Y769990D01*
X216897Y769996D01*
X216896Y770002D01*
X216841Y770105D01*
X216788Y770210D01*
X216783Y770214D01*
X216780Y770220D01*
X216696Y770299D01*
X216612Y770382D01*
X216606Y770385D01*
X216602Y770389D01*
X216585Y770397D01*
X216465Y770463D01*
X214131Y771430D01*
X211360Y774201D01*
X209860Y777821D01*
X209860Y781739D01*
X211360Y785359D01*
X214131Y788130D01*
X217751Y789630D01*
X221669Y789630D01*
X225289Y788130D01*
X228060Y785359D01*
X229560Y781739D01*
X229560Y777821D01*
X228060Y774201D01*
X225289Y771430D01*
X222955Y770463D01*
X222855Y770401D01*
X222755Y770341D01*
X222751Y770336D01*
X222746Y770333D01*
X222671Y770243D01*
X222595Y770154D01*
X222593Y770148D01*
X222589Y770144D01*
X222547Y770036D01*
X222503Y769926D01*
X222502Y769919D01*
X222501Y769914D01*
X222500Y769896D01*
X222485Y769759D01*
X222485Y735525D01*
X222499Y735435D01*
X222507Y735344D01*
X222519Y735314D01*
X222524Y735282D01*
X222567Y735201D01*
X222603Y735117D01*
X222629Y735085D01*
X222640Y735065D01*
X222663Y735042D01*
X222708Y734986D01*
X282196Y675498D01*
X282270Y675445D01*
X282340Y675385D01*
X282370Y675373D01*
X282396Y675354D01*
X282483Y675327D01*
X282568Y675293D01*
X282609Y675289D01*
X282631Y675282D01*
X282663Y675283D01*
X282735Y675275D01*
X473970Y675275D01*
X474085Y675294D01*
X474201Y675311D01*
X474207Y675313D01*
X474213Y675314D01*
X474316Y675369D01*
X474420Y675422D01*
X474425Y675427D01*
X474430Y675430D01*
X474510Y675514D01*
X474593Y675598D01*
X474596Y675604D01*
X474600Y675608D01*
X474608Y675625D01*
X474674Y675745D01*
X475339Y677352D01*
X477748Y679761D01*
X479028Y680291D01*
X479111Y680342D01*
X479197Y680388D01*
X479215Y680407D01*
X479237Y680420D01*
X479299Y680495D01*
X479366Y680566D01*
X479377Y680590D01*
X479394Y680610D01*
X479429Y680701D01*
X479470Y680789D01*
X479472Y680815D01*
X479482Y680839D01*
X479486Y680937D01*
X479497Y681033D01*
X479491Y681059D01*
X479492Y681085D01*
X479465Y681179D01*
X479444Y681274D01*
X479431Y681296D01*
X479424Y681321D01*
X479368Y681401D01*
X479318Y681485D01*
X479298Y681502D01*
X479283Y681523D01*
X479205Y681582D01*
X479131Y681645D01*
X479107Y681655D01*
X479086Y681670D01*
X478994Y681700D01*
X478903Y681737D01*
X478871Y681740D01*
X478852Y681746D01*
X478819Y681746D01*
X478736Y681755D01*
X367151Y681755D01*
X293135Y755771D01*
X293135Y769759D01*
X293116Y769874D01*
X293099Y769990D01*
X293097Y769996D01*
X293096Y770002D01*
X293041Y770105D01*
X292988Y770210D01*
X292983Y770214D01*
X292980Y770220D01*
X292896Y770299D01*
X292812Y770382D01*
X292806Y770385D01*
X292802Y770389D01*
X292785Y770397D01*
X292665Y770463D01*
X290331Y771430D01*
X287560Y774201D01*
X287449Y774467D01*
X287398Y774550D01*
X287352Y774636D01*
X287333Y774654D01*
X287320Y774676D01*
X287245Y774739D01*
X287174Y774806D01*
X287150Y774817D01*
X287130Y774833D01*
X287039Y774868D01*
X286951Y774909D01*
X286925Y774912D01*
X286901Y774922D01*
X286803Y774926D01*
X286707Y774936D01*
X286681Y774931D01*
X286655Y774932D01*
X286561Y774905D01*
X286466Y774884D01*
X286444Y774871D01*
X286419Y774863D01*
X286339Y774808D01*
X286255Y774758D01*
X286238Y774738D01*
X286217Y774723D01*
X286158Y774645D01*
X286095Y774571D01*
X286085Y774547D01*
X286070Y774526D01*
X286040Y774433D01*
X286003Y774343D01*
X286000Y774310D01*
X285994Y774292D01*
X285994Y774259D01*
X285985Y774176D01*
X285985Y768471D01*
X280549Y763035D01*
X246501Y763035D01*
X242335Y767201D01*
X242335Y769759D01*
X242316Y769874D01*
X242299Y769990D01*
X242297Y769996D01*
X242296Y770002D01*
X242241Y770105D01*
X242188Y770210D01*
X242183Y770214D01*
X242180Y770220D01*
X242096Y770299D01*
X242012Y770382D01*
X242006Y770385D01*
X242002Y770389D01*
X241985Y770397D01*
X241865Y770463D01*
X239531Y771430D01*
X236760Y774201D01*
X235260Y777821D01*
X235260Y781739D01*
X236760Y785359D01*
X239531Y788130D01*
X243151Y789630D01*
X247069Y789630D01*
X250689Y788130D01*
X253460Y785359D01*
X254960Y781739D01*
X254960Y777821D01*
X253460Y774201D01*
X250689Y771430D01*
X248394Y770479D01*
X248355Y770455D01*
X248312Y770439D01*
X248251Y770390D01*
X248185Y770349D01*
X248155Y770314D01*
X248120Y770285D01*
X248078Y770220D01*
X248028Y770160D01*
X248011Y770117D01*
X247987Y770078D01*
X247968Y770003D01*
X247940Y769930D01*
X247938Y769884D01*
X247927Y769840D01*
X247933Y769762D01*
X247929Y769684D01*
X247942Y769640D01*
X247946Y769595D01*
X247976Y769523D01*
X247998Y769448D01*
X248024Y769410D01*
X248042Y769368D01*
X248127Y769262D01*
X248138Y769246D01*
X248142Y769243D01*
X248147Y769237D01*
X248576Y768808D01*
X248650Y768755D01*
X248720Y768695D01*
X248750Y768683D01*
X248776Y768664D01*
X248863Y768637D01*
X248948Y768603D01*
X248989Y768599D01*
X249011Y768592D01*
X249043Y768593D01*
X249115Y768585D01*
X267972Y768585D01*
X268068Y768600D01*
X268165Y768610D01*
X268189Y768620D01*
X268215Y768624D01*
X268301Y768670D01*
X268390Y768710D01*
X268409Y768727D01*
X268432Y768740D01*
X268499Y768810D01*
X268571Y768876D01*
X268584Y768899D01*
X268602Y768918D01*
X268643Y769006D01*
X268690Y769092D01*
X268694Y769117D01*
X268705Y769141D01*
X268716Y769238D01*
X268733Y769334D01*
X268729Y769360D01*
X268732Y769385D01*
X268712Y769481D01*
X268698Y769577D01*
X268686Y769600D01*
X268680Y769626D01*
X268630Y769709D01*
X268586Y769796D01*
X268567Y769815D01*
X268554Y769837D01*
X268480Y769900D01*
X268410Y769968D01*
X268382Y769984D01*
X268367Y769997D01*
X268336Y770009D01*
X268263Y770049D01*
X264931Y771430D01*
X262160Y774201D01*
X260660Y777821D01*
X260660Y781739D01*
X262160Y785359D01*
X264931Y788130D01*
X267226Y789081D01*
X267265Y789105D01*
X267308Y789121D01*
X267369Y789170D01*
X267435Y789211D01*
X267465Y789246D01*
X267500Y789275D01*
X267542Y789340D01*
X267592Y789400D01*
X267609Y789443D01*
X267633Y789482D01*
X267652Y789557D01*
X267680Y789630D01*
X267682Y789676D01*
X267693Y789720D01*
X267687Y789798D01*
X267691Y789876D01*
X267678Y789920D01*
X267674Y789965D01*
X267644Y790037D01*
X267622Y790112D01*
X267596Y790150D01*
X267578Y790192D01*
X267493Y790298D01*
X267482Y790314D01*
X267478Y790317D01*
X267473Y790323D01*
X264504Y793292D01*
X264430Y793345D01*
X264360Y793405D01*
X264330Y793417D01*
X264304Y793436D01*
X264217Y793463D01*
X264132Y793497D01*
X264091Y793501D01*
X264069Y793508D01*
X264037Y793507D01*
X263965Y793515D01*
X77879Y793515D01*
X77789Y793501D01*
X77698Y793493D01*
X77668Y793481D01*
X77636Y793476D01*
X77555Y793433D01*
X77471Y793397D01*
X77439Y793371D01*
X77419Y793360D01*
X77396Y793337D01*
X77340Y793292D01*
X56746Y772698D01*
X56705Y772640D01*
X56655Y772588D01*
X56633Y772541D01*
X56603Y772499D01*
X56582Y772430D01*
X56551Y772365D01*
X56546Y772313D01*
X56530Y772263D01*
X56532Y772192D01*
X56524Y772121D01*
X56535Y772070D01*
X56537Y772018D01*
X56561Y771950D01*
X56577Y771880D01*
X56603Y771835D01*
X56621Y771787D01*
X56666Y771731D01*
X56703Y771669D01*
X56742Y771635D01*
X56775Y771595D01*
X56835Y771556D01*
X56890Y771509D01*
X56938Y771490D01*
X56982Y771462D01*
X57051Y771444D01*
X57118Y771417D01*
X57189Y771409D01*
X57220Y771401D01*
X57244Y771403D01*
X57285Y771399D01*
X61787Y771399D01*
X66549Y766637D01*
X66549Y759903D01*
X61787Y755141D01*
X55053Y755141D01*
X52548Y757646D01*
X52490Y757688D01*
X52438Y757737D01*
X52391Y757759D01*
X52349Y757790D01*
X52280Y757811D01*
X52215Y757841D01*
X52163Y757847D01*
X52113Y757862D01*
X52042Y757860D01*
X51971Y757868D01*
X51920Y757857D01*
X51868Y757856D01*
X51800Y757831D01*
X51730Y757816D01*
X51685Y757789D01*
X51637Y757771D01*
X51581Y757726D01*
X51519Y757689D01*
X51485Y757650D01*
X51445Y757617D01*
X51406Y757557D01*
X51359Y757503D01*
X51340Y757454D01*
X51312Y757410D01*
X51294Y757341D01*
X51267Y757274D01*
X51259Y757203D01*
X51251Y757172D01*
X51253Y757149D01*
X51249Y757108D01*
X51249Y580371D01*
X51263Y580281D01*
X51271Y580190D01*
X51283Y580160D01*
X51288Y580128D01*
X51331Y580047D01*
X51367Y579963D01*
X51393Y579931D01*
X51404Y579911D01*
X51427Y579888D01*
X51472Y579832D01*
X60616Y570688D01*
X60690Y570635D01*
X60760Y570575D01*
X60790Y570563D01*
X60816Y570544D01*
X60903Y570517D01*
X60988Y570483D01*
X61029Y570479D01*
X61051Y570472D01*
X61083Y570473D01*
X61155Y570465D01*
X126879Y570465D01*
X132315Y565029D01*
X132315Y472561D01*
X127479Y467725D01*
X122930Y467725D01*
X122815Y467706D01*
X122699Y467689D01*
X122693Y467687D01*
X122687Y467686D01*
X122584Y467631D01*
X122480Y467578D01*
X122475Y467573D01*
X122470Y467570D01*
X122390Y467486D01*
X122307Y467402D01*
X122304Y467396D01*
X122300Y467392D01*
X122292Y467375D01*
X122226Y467255D01*
X121561Y465648D01*
X119152Y463239D01*
X116004Y461935D01*
X112596Y461935D01*
X109448Y463239D01*
X107039Y465648D01*
X105735Y468796D01*
X105735Y472204D01*
X107039Y475352D01*
X109448Y477761D01*
X112596Y479065D01*
X116004Y479065D01*
X119152Y477761D01*
X121561Y475352D01*
X122226Y473745D01*
X122288Y473645D01*
X122348Y473545D01*
X122353Y473541D01*
X122356Y473536D01*
X122446Y473461D01*
X122535Y473385D01*
X122541Y473383D01*
X122546Y473379D01*
X122654Y473337D01*
X122763Y473293D01*
X122771Y473292D01*
X122775Y473291D01*
X122793Y473290D01*
X122930Y473275D01*
X124865Y473275D01*
X124955Y473289D01*
X125046Y473297D01*
X125076Y473309D01*
X125108Y473314D01*
X125189Y473357D01*
X125273Y473393D01*
X125305Y473419D01*
X125325Y473430D01*
X125348Y473453D01*
X125404Y473498D01*
X126542Y474636D01*
X126595Y474710D01*
X126655Y474780D01*
X126667Y474810D01*
X126686Y474836D01*
X126713Y474923D01*
X126747Y475008D01*
X126751Y475049D01*
X126758Y475071D01*
X126757Y475103D01*
X126765Y475175D01*
X126765Y562415D01*
X126751Y562505D01*
X126743Y562596D01*
X126731Y562626D01*
X126726Y562658D01*
X126683Y562739D01*
X126647Y562823D01*
X126621Y562855D01*
X126610Y562875D01*
X126587Y562898D01*
X126542Y562954D01*
X124804Y564692D01*
X124730Y564745D01*
X124660Y564805D01*
X124630Y564817D01*
X124604Y564836D01*
X124517Y564863D01*
X124432Y564897D01*
X124391Y564901D01*
X124369Y564908D01*
X124337Y564907D01*
X124265Y564915D01*
X58541Y564915D01*
X47548Y575908D01*
X47254Y576202D01*
X47196Y576244D01*
X47144Y576293D01*
X47097Y576315D01*
X47055Y576345D01*
X46986Y576366D01*
X46921Y576397D01*
X46869Y576402D01*
X46819Y576418D01*
X46748Y576416D01*
X46677Y576424D01*
X46626Y576413D01*
X46574Y576411D01*
X46506Y576387D01*
X46436Y576371D01*
X46391Y576345D01*
X46343Y576327D01*
X46287Y576282D01*
X46225Y576245D01*
X46191Y576206D01*
X46151Y576173D01*
X46112Y576113D01*
X46065Y576058D01*
X46046Y576010D01*
X46018Y575966D01*
X46000Y575897D01*
X45973Y575830D01*
X45965Y575759D01*
X45957Y575728D01*
X45959Y575704D01*
X45955Y575663D01*
X45955Y562842D01*
X45969Y562752D01*
X45977Y562661D01*
X45989Y562631D01*
X45994Y562599D01*
X46037Y562518D01*
X46073Y562434D01*
X46099Y562402D01*
X46110Y562382D01*
X46133Y562359D01*
X46139Y562352D01*
X46148Y562337D01*
X46157Y562329D01*
X46178Y562303D01*
X49209Y559272D01*
X52357Y556124D01*
X54003Y552150D01*
X54003Y547850D01*
X52357Y543876D01*
X49209Y540728D01*
X46178Y537697D01*
X46125Y537623D01*
X46065Y537553D01*
X46053Y537523D01*
X46034Y537497D01*
X46007Y537410D01*
X45973Y537325D01*
X45969Y537284D01*
X45962Y537262D01*
X45963Y537230D01*
X45955Y537158D01*
X45955Y510735D01*
X45969Y510645D01*
X45977Y510554D01*
X45989Y510524D01*
X45994Y510492D01*
X46037Y510411D01*
X46073Y510327D01*
X46099Y510295D01*
X46110Y510275D01*
X46133Y510252D01*
X46178Y510196D01*
X57876Y498498D01*
X57950Y498445D01*
X58020Y498385D01*
X58050Y498373D01*
X58076Y498354D01*
X58163Y498327D01*
X58248Y498293D01*
X58289Y498289D01*
X58311Y498282D01*
X58343Y498283D01*
X58415Y498275D01*
X105670Y498275D01*
X105785Y498294D01*
X105901Y498311D01*
X105907Y498313D01*
X105913Y498314D01*
X106016Y498369D01*
X106120Y498422D01*
X106125Y498427D01*
X106130Y498430D01*
X106210Y498514D01*
X106293Y498598D01*
X106296Y498604D01*
X106300Y498608D01*
X106308Y498625D01*
X106374Y498745D01*
X107039Y500352D01*
X109448Y502761D01*
X112596Y504065D01*
X116004Y504065D01*
X119152Y502761D01*
X121561Y500352D01*
X122865Y497204D01*
X122865Y493796D01*
X121561Y490648D01*
X119152Y488239D01*
X116004Y486935D01*
X112596Y486935D01*
X109448Y488239D01*
X107039Y490648D01*
X106374Y492255D01*
X106312Y492355D01*
X106252Y492455D01*
X106247Y492459D01*
X106244Y492464D01*
X106154Y492539D01*
X106065Y492615D01*
X106059Y492617D01*
X106054Y492621D01*
X105946Y492663D01*
X105837Y492707D01*
X105829Y492708D01*
X105825Y492709D01*
X105807Y492710D01*
X105670Y492725D01*
X55801Y492725D01*
X42254Y506272D01*
X42174Y506352D01*
X42116Y506394D01*
X42064Y506443D01*
X42017Y506465D01*
X41975Y506495D01*
X41906Y506516D01*
X41841Y506547D01*
X41789Y506552D01*
X41740Y506568D01*
X41668Y506566D01*
X41597Y506574D01*
X41546Y506563D01*
X41494Y506561D01*
X41426Y506537D01*
X41356Y506521D01*
X41312Y506495D01*
X41263Y506477D01*
X41207Y506432D01*
X41145Y506395D01*
X41111Y506356D01*
X41071Y506323D01*
X41032Y506263D01*
X40985Y506208D01*
X40966Y506160D01*
X40938Y506116D01*
X40920Y506047D01*
X40893Y505980D01*
X40885Y505909D01*
X40877Y505878D01*
X40879Y505854D01*
X40875Y505813D01*
X40875Y420017D01*
X40886Y419946D01*
X40888Y419874D01*
X40906Y419825D01*
X40914Y419774D01*
X40948Y419711D01*
X40973Y419643D01*
X41005Y419603D01*
X41030Y419556D01*
X41082Y419507D01*
X41126Y419451D01*
X41170Y419423D01*
X41208Y419387D01*
X41273Y419357D01*
X41333Y419318D01*
X41384Y419305D01*
X41431Y419283D01*
X41502Y419276D01*
X41572Y419258D01*
X41624Y419262D01*
X41675Y419256D01*
X41746Y419272D01*
X41817Y419277D01*
X41865Y419298D01*
X41916Y419309D01*
X41977Y419345D01*
X42043Y419374D01*
X42099Y419418D01*
X42127Y419435D01*
X42142Y419453D01*
X42174Y419478D01*
X55422Y432726D01*
X57271Y434575D01*
X166744Y434575D01*
X166858Y434593D01*
X166975Y434611D01*
X166980Y434613D01*
X166987Y434614D01*
X167090Y434669D01*
X167194Y434722D01*
X167198Y434727D01*
X167204Y434730D01*
X167285Y434815D01*
X167366Y434898D01*
X167370Y434904D01*
X167373Y434908D01*
X167381Y434925D01*
X167447Y435045D01*
X167761Y435802D01*
X169748Y437789D01*
X172345Y438865D01*
X175155Y438865D01*
X177752Y437789D01*
X179739Y435802D01*
X180815Y433205D01*
X180815Y430395D01*
X179739Y427798D01*
X177752Y425811D01*
X175155Y424735D01*
X172345Y424735D01*
X169748Y425811D01*
X167761Y427798D01*
X167447Y428555D01*
X167386Y428655D01*
X167326Y428755D01*
X167321Y428759D01*
X167318Y428764D01*
X167228Y428839D01*
X167139Y428915D01*
X167133Y428917D01*
X167128Y428921D01*
X167019Y428963D01*
X166911Y429007D01*
X166903Y429008D01*
X166899Y429009D01*
X166880Y429010D01*
X166744Y429025D01*
X163237Y429025D01*
X163166Y429014D01*
X163094Y429012D01*
X163045Y428994D01*
X162994Y428986D01*
X162930Y428952D01*
X162863Y428927D01*
X162822Y428895D01*
X162776Y428870D01*
X162727Y428818D01*
X162671Y428774D01*
X162643Y428730D01*
X162607Y428692D01*
X162577Y428627D01*
X162538Y428567D01*
X162525Y428516D01*
X162503Y428469D01*
X162496Y428398D01*
X162478Y428328D01*
X162482Y428276D01*
X162476Y428225D01*
X162492Y428154D01*
X162497Y428083D01*
X162518Y428035D01*
X162529Y427984D01*
X162565Y427923D01*
X162594Y427857D01*
X162638Y427801D01*
X162655Y427773D01*
X162673Y427758D01*
X162698Y427726D01*
X162778Y427646D01*
X176525Y413899D01*
X176525Y413406D01*
X176543Y413292D01*
X176561Y413175D01*
X176563Y413170D01*
X176564Y413163D01*
X176619Y413060D01*
X176672Y412956D01*
X176677Y412952D01*
X176680Y412946D01*
X176765Y412865D01*
X176848Y412784D01*
X176854Y412780D01*
X176858Y412777D01*
X176875Y412769D01*
X176995Y412703D01*
X177752Y412389D01*
X179739Y410402D01*
X180815Y407805D01*
X180815Y404995D01*
X179739Y402398D01*
X177752Y400411D01*
X175155Y399335D01*
X172607Y399335D01*
X172536Y399324D01*
X172464Y399322D01*
X172415Y399304D01*
X172364Y399296D01*
X172301Y399262D01*
X172233Y399237D01*
X172193Y399205D01*
X172146Y399180D01*
X172097Y399128D01*
X172041Y399084D01*
X172013Y399040D01*
X171977Y399002D01*
X171947Y398937D01*
X171908Y398877D01*
X171895Y398826D01*
X171873Y398779D01*
X171866Y398708D01*
X171848Y398638D01*
X171852Y398586D01*
X171846Y398535D01*
X171862Y398464D01*
X171867Y398393D01*
X171888Y398345D01*
X171899Y398294D01*
X171935Y398233D01*
X171964Y398167D01*
X172008Y398111D01*
X172025Y398083D01*
X172043Y398068D01*
X172068Y398036D01*
X176525Y393579D01*
X176525Y388006D01*
X176543Y387892D01*
X176561Y387775D01*
X176563Y387770D01*
X176564Y387763D01*
X176619Y387660D01*
X176672Y387556D01*
X176677Y387552D01*
X176680Y387546D01*
X176765Y387465D01*
X176848Y387384D01*
X176854Y387380D01*
X176858Y387377D01*
X176875Y387369D01*
X176995Y387303D01*
X177752Y386989D01*
X179739Y385002D01*
X180815Y382405D01*
X180815Y379595D01*
X179739Y376998D01*
X177752Y375011D01*
X175155Y373935D01*
X172345Y373935D01*
X169748Y375011D01*
X167761Y376998D01*
X166685Y379595D01*
X166685Y382405D01*
X167761Y385002D01*
X169748Y386989D01*
X170505Y387303D01*
X170605Y387364D01*
X170705Y387424D01*
X170709Y387429D01*
X170714Y387432D01*
X170789Y387522D01*
X170865Y387611D01*
X170867Y387617D01*
X170871Y387622D01*
X170913Y387731D01*
X170957Y387839D01*
X170958Y387847D01*
X170959Y387851D01*
X170960Y387870D01*
X170975Y388006D01*
X170975Y390965D01*
X170961Y391055D01*
X170953Y391146D01*
X170941Y391176D01*
X170936Y391208D01*
X170893Y391289D01*
X170857Y391373D01*
X170831Y391405D01*
X170820Y391425D01*
X170797Y391448D01*
X170752Y391504D01*
X143614Y418642D01*
X143540Y418695D01*
X143470Y418755D01*
X143440Y418767D01*
X143414Y418786D01*
X143327Y418813D01*
X143242Y418847D01*
X143201Y418851D01*
X143179Y418858D01*
X143147Y418857D01*
X143075Y418865D01*
X62425Y418865D01*
X62335Y418851D01*
X62244Y418843D01*
X62214Y418831D01*
X62182Y418826D01*
X62101Y418783D01*
X62017Y418747D01*
X61985Y418721D01*
X61965Y418710D01*
X61942Y418687D01*
X61886Y418642D01*
X56338Y413094D01*
X56285Y413020D01*
X56225Y412950D01*
X56213Y412920D01*
X56194Y412894D01*
X56167Y412807D01*
X56133Y412722D01*
X56129Y412681D01*
X56122Y412659D01*
X56123Y412627D01*
X56115Y412555D01*
X56115Y222445D01*
X56129Y222355D01*
X56137Y222264D01*
X56149Y222234D01*
X56154Y222202D01*
X56197Y222121D01*
X56233Y222037D01*
X56259Y222005D01*
X56270Y221985D01*
X56293Y221962D01*
X56338Y221906D01*
X108956Y169288D01*
X109014Y169247D01*
X109066Y169197D01*
X109113Y169175D01*
X109155Y169145D01*
X109224Y169124D01*
X109289Y169093D01*
X109341Y169088D01*
X109391Y169072D01*
X109462Y169074D01*
X109533Y169066D01*
X109584Y169077D01*
X109636Y169079D01*
X109704Y169103D01*
X109774Y169119D01*
X109818Y169145D01*
X109867Y169163D01*
X109923Y169208D01*
X109985Y169245D01*
X110019Y169284D01*
X110059Y169317D01*
X110098Y169377D01*
X110145Y169432D01*
X110164Y169480D01*
X110192Y169524D01*
X110210Y169593D01*
X110237Y169660D01*
X110245Y169731D01*
X110253Y169762D01*
X110251Y169786D01*
X110255Y169827D01*
X110255Y309470D01*
X110236Y309585D01*
X110219Y309701D01*
X110217Y309707D01*
X110216Y309713D01*
X110161Y309816D01*
X110108Y309920D01*
X110103Y309925D01*
X110100Y309930D01*
X110016Y310010D01*
X109932Y310093D01*
X109926Y310096D01*
X109922Y310100D01*
X109905Y310108D01*
X109785Y310174D01*
X108178Y310839D01*
X105769Y313248D01*
X104465Y316396D01*
X104465Y319804D01*
X105769Y322952D01*
X108178Y325361D01*
X111326Y326665D01*
X114734Y326665D01*
X117882Y325361D01*
X120291Y322952D01*
X121595Y319804D01*
X121595Y316396D01*
X120291Y313248D01*
X117882Y310839D01*
X116275Y310174D01*
X116175Y310112D01*
X116075Y310052D01*
X116071Y310047D01*
X116066Y310044D01*
X115991Y309954D01*
X115915Y309865D01*
X115913Y309859D01*
X115909Y309854D01*
X115867Y309746D01*
X115823Y309637D01*
X115822Y309629D01*
X115821Y309625D01*
X115820Y309607D01*
X115805Y309470D01*
X115805Y169105D01*
X115819Y169015D01*
X115827Y168924D01*
X115839Y168894D01*
X115844Y168862D01*
X115887Y168781D01*
X115923Y168697D01*
X115949Y168665D01*
X115960Y168645D01*
X115983Y168622D01*
X116028Y168566D01*
X122926Y161668D01*
X122984Y161626D01*
X123036Y161577D01*
X123083Y161555D01*
X123125Y161525D01*
X123194Y161504D01*
X123259Y161473D01*
X123311Y161468D01*
X123361Y161452D01*
X123432Y161454D01*
X123503Y161446D01*
X123554Y161457D01*
X123606Y161459D01*
X123674Y161483D01*
X123744Y161499D01*
X123789Y161525D01*
X123837Y161543D01*
X123893Y161588D01*
X123955Y161625D01*
X123989Y161664D01*
X124029Y161697D01*
X124068Y161757D01*
X124115Y161812D01*
X124134Y161860D01*
X124162Y161904D01*
X124180Y161973D01*
X124207Y162040D01*
X124215Y162111D01*
X124223Y162142D01*
X124221Y162166D01*
X124225Y162207D01*
X124225Y338895D01*
X124211Y338985D01*
X124203Y339076D01*
X124191Y339106D01*
X124186Y339138D01*
X124143Y339219D01*
X124107Y339303D01*
X124081Y339335D01*
X124070Y339355D01*
X124047Y339378D01*
X124002Y339434D01*
X123334Y340102D01*
X123260Y340155D01*
X123190Y340215D01*
X123160Y340227D01*
X123134Y340246D01*
X123047Y340273D01*
X122962Y340307D01*
X122921Y340311D01*
X122899Y340318D01*
X122867Y340317D01*
X122795Y340325D01*
X121660Y340325D01*
X121545Y340306D01*
X121429Y340289D01*
X121423Y340287D01*
X121417Y340286D01*
X121314Y340231D01*
X121210Y340178D01*
X121205Y340173D01*
X121200Y340170D01*
X121120Y340086D01*
X121037Y340002D01*
X121034Y339996D01*
X121030Y339992D01*
X121022Y339975D01*
X120956Y339855D01*
X120291Y338248D01*
X117882Y335839D01*
X114734Y334535D01*
X111326Y334535D01*
X108178Y335839D01*
X105769Y338248D01*
X104465Y341396D01*
X104465Y344804D01*
X105769Y347952D01*
X108178Y350361D01*
X111326Y351665D01*
X114734Y351665D01*
X117882Y350361D01*
X120291Y347952D01*
X120956Y346345D01*
X121018Y346245D01*
X121078Y346145D01*
X121083Y346141D01*
X121086Y346136D01*
X121176Y346061D01*
X121265Y345985D01*
X121271Y345983D01*
X121276Y345979D01*
X121384Y345937D01*
X121493Y345893D01*
X121501Y345892D01*
X121505Y345891D01*
X121523Y345890D01*
X121660Y345875D01*
X125409Y345875D01*
X127258Y344027D01*
X127258Y344026D01*
X127926Y343358D01*
X129775Y341509D01*
X129775Y161485D01*
X129789Y161395D01*
X129797Y161304D01*
X129809Y161274D01*
X129814Y161242D01*
X129857Y161161D01*
X129893Y161077D01*
X129919Y161045D01*
X129930Y161025D01*
X129953Y161002D01*
X129998Y160946D01*
X130466Y160478D01*
X130540Y160425D01*
X130610Y160365D01*
X130640Y160353D01*
X130666Y160334D01*
X130753Y160307D01*
X130838Y160273D01*
X130879Y160269D01*
X130901Y160262D01*
X130933Y160263D01*
X131005Y160255D01*
X516695Y160255D01*
X516785Y160269D01*
G37*
%LPC*%
G36*
X112596Y613065D02*
X112596Y613065D01*
X109448Y614369D01*
X107039Y616778D01*
X105735Y619926D01*
X105735Y623334D01*
X107039Y626482D01*
X109448Y628891D01*
X112596Y630195D01*
X116004Y630195D01*
X119152Y628891D01*
X121561Y626482D01*
X122226Y624875D01*
X122288Y624775D01*
X122348Y624675D01*
X122353Y624671D01*
X122356Y624666D01*
X122446Y624591D01*
X122535Y624515D01*
X122541Y624513D01*
X122546Y624509D01*
X122654Y624467D01*
X122763Y624423D01*
X122771Y624422D01*
X122775Y624421D01*
X122793Y624420D01*
X122930Y624405D01*
X126135Y624405D01*
X126225Y624419D01*
X126316Y624427D01*
X126346Y624439D01*
X126378Y624444D01*
X126459Y624487D01*
X126543Y624523D01*
X126575Y624549D01*
X126595Y624560D01*
X126618Y624583D01*
X126674Y624628D01*
X127812Y625766D01*
X127865Y625840D01*
X127925Y625910D01*
X127937Y625940D01*
X127956Y625966D01*
X127983Y626053D01*
X128017Y626138D01*
X128021Y626179D01*
X128028Y626201D01*
X128027Y626233D01*
X128035Y626305D01*
X128035Y730129D01*
X165912Y768006D01*
X165965Y768080D01*
X166025Y768150D01*
X166037Y768180D01*
X166056Y768206D01*
X166083Y768293D01*
X166117Y768378D01*
X166121Y768419D01*
X166128Y768441D01*
X166127Y768473D01*
X166135Y768545D01*
X166135Y769759D01*
X166116Y769874D01*
X166099Y769990D01*
X166097Y769996D01*
X166096Y770002D01*
X166041Y770105D01*
X165988Y770210D01*
X165983Y770214D01*
X165980Y770220D01*
X165896Y770299D01*
X165812Y770382D01*
X165806Y770385D01*
X165802Y770389D01*
X165785Y770397D01*
X165665Y770463D01*
X163331Y771430D01*
X160560Y774201D01*
X159060Y777821D01*
X159060Y781739D01*
X160560Y785359D01*
X163331Y788130D01*
X166951Y789630D01*
X170869Y789630D01*
X174489Y788130D01*
X177260Y785359D01*
X178760Y781739D01*
X178760Y777821D01*
X177260Y774201D01*
X174489Y771430D01*
X172155Y770463D01*
X172055Y770401D01*
X171955Y770341D01*
X171951Y770336D01*
X171946Y770333D01*
X171871Y770243D01*
X171795Y770154D01*
X171793Y770148D01*
X171789Y770144D01*
X171747Y770036D01*
X171703Y769926D01*
X171702Y769919D01*
X171701Y769914D01*
X171700Y769896D01*
X171685Y769759D01*
X171685Y765931D01*
X133808Y728054D01*
X133755Y727980D01*
X133695Y727910D01*
X133683Y727880D01*
X133664Y727854D01*
X133637Y727767D01*
X133603Y727682D01*
X133599Y727641D01*
X133592Y727619D01*
X133593Y727587D01*
X133585Y727515D01*
X133585Y623691D01*
X128749Y618855D01*
X122930Y618855D01*
X122815Y618836D01*
X122699Y618819D01*
X122693Y618817D01*
X122687Y618816D01*
X122584Y618761D01*
X122480Y618708D01*
X122475Y618703D01*
X122470Y618700D01*
X122390Y618616D01*
X122307Y618532D01*
X122304Y618526D01*
X122300Y618522D01*
X122292Y618505D01*
X122226Y618385D01*
X121561Y616778D01*
X119152Y614369D01*
X116004Y613065D01*
X112596Y613065D01*
G37*
%LPD*%
%LPC*%
G36*
X112596Y638065D02*
X112596Y638065D01*
X109448Y639369D01*
X107039Y641778D01*
X106374Y643385D01*
X106312Y643485D01*
X106252Y643585D01*
X106247Y643589D01*
X106244Y643594D01*
X106154Y643669D01*
X106065Y643745D01*
X106059Y643747D01*
X106054Y643751D01*
X105946Y643793D01*
X105837Y643837D01*
X105829Y643838D01*
X105825Y643839D01*
X105807Y643840D01*
X105670Y643855D01*
X100251Y643855D01*
X93745Y650361D01*
X93745Y745369D01*
X130931Y782555D01*
X133489Y782555D01*
X133604Y782574D01*
X133720Y782591D01*
X133726Y782593D01*
X133732Y782594D01*
X133835Y782649D01*
X133940Y782702D01*
X133944Y782707D01*
X133950Y782710D01*
X134029Y782794D01*
X134112Y782878D01*
X134115Y782884D01*
X134119Y782888D01*
X134127Y782905D01*
X134193Y783025D01*
X135160Y785359D01*
X137931Y788130D01*
X141551Y789630D01*
X145469Y789630D01*
X149089Y788130D01*
X151860Y785359D01*
X153360Y781739D01*
X153360Y777821D01*
X151860Y774201D01*
X149089Y771430D01*
X145469Y769930D01*
X141551Y769930D01*
X137931Y771430D01*
X135160Y774201D01*
X134209Y776496D01*
X134185Y776535D01*
X134169Y776578D01*
X134120Y776639D01*
X134079Y776705D01*
X134044Y776735D01*
X134015Y776770D01*
X133950Y776812D01*
X133890Y776862D01*
X133847Y776879D01*
X133808Y776903D01*
X133733Y776922D01*
X133660Y776950D01*
X133614Y776952D01*
X133570Y776963D01*
X133492Y776957D01*
X133414Y776961D01*
X133370Y776948D01*
X133325Y776944D01*
X133253Y776914D01*
X133178Y776892D01*
X133140Y776866D01*
X133098Y776848D01*
X132992Y776763D01*
X132976Y776752D01*
X132973Y776748D01*
X132967Y776743D01*
X99518Y743294D01*
X99465Y743220D01*
X99405Y743150D01*
X99393Y743120D01*
X99374Y743094D01*
X99347Y743007D01*
X99313Y742922D01*
X99309Y742881D01*
X99302Y742859D01*
X99303Y742827D01*
X99295Y742755D01*
X99295Y652975D01*
X99309Y652885D01*
X99317Y652794D01*
X99329Y652764D01*
X99334Y652732D01*
X99377Y652651D01*
X99413Y652567D01*
X99439Y652535D01*
X99450Y652515D01*
X99473Y652492D01*
X99518Y652436D01*
X102326Y649628D01*
X102400Y649575D01*
X102470Y649515D01*
X102500Y649503D01*
X102526Y649484D01*
X102613Y649457D01*
X102698Y649423D01*
X102739Y649419D01*
X102761Y649412D01*
X102793Y649413D01*
X102865Y649405D01*
X105670Y649405D01*
X105785Y649424D01*
X105901Y649441D01*
X105907Y649443D01*
X105913Y649444D01*
X106016Y649499D01*
X106120Y649552D01*
X106125Y649557D01*
X106130Y649560D01*
X106210Y649644D01*
X106293Y649728D01*
X106296Y649734D01*
X106300Y649738D01*
X106308Y649755D01*
X106374Y649875D01*
X107039Y651482D01*
X109448Y653891D01*
X112596Y655195D01*
X116004Y655195D01*
X119152Y653891D01*
X121561Y651482D01*
X122865Y648334D01*
X122865Y644926D01*
X121561Y641778D01*
X119152Y639369D01*
X116004Y638065D01*
X112596Y638065D01*
G37*
%LPD*%
%LPC*%
G36*
X152117Y835405D02*
X152117Y835405D01*
X144555Y838538D01*
X138768Y844325D01*
X135635Y851887D01*
X135635Y860073D01*
X138768Y867635D01*
X144555Y873422D01*
X152117Y876555D01*
X160303Y876555D01*
X167865Y873422D01*
X173652Y867635D01*
X176785Y860073D01*
X176785Y851887D01*
X173652Y844325D01*
X167865Y838538D01*
X160303Y835405D01*
X152117Y835405D01*
G37*
%LPD*%
%LPC*%
G36*
X297850Y25997D02*
X297850Y25997D01*
X293876Y27643D01*
X287643Y33876D01*
X285997Y37850D01*
X285997Y42150D01*
X287643Y46124D01*
X293876Y52357D01*
X297850Y54003D01*
X302150Y54003D01*
X306124Y52357D01*
X312357Y46124D01*
X314003Y42150D01*
X314003Y37850D01*
X312357Y33876D01*
X306124Y27643D01*
X302150Y25997D01*
X297850Y25997D01*
G37*
%LPD*%
%LPC*%
G36*
X359116Y438403D02*
X359116Y438403D01*
X353313Y444206D01*
X353313Y452414D01*
X359116Y458217D01*
X367324Y458217D01*
X373127Y452414D01*
X373127Y444206D01*
X367324Y438403D01*
X359116Y438403D01*
G37*
%LPD*%
%LPC*%
G36*
X359116Y390143D02*
X359116Y390143D01*
X353313Y395946D01*
X353313Y404154D01*
X359116Y409957D01*
X367324Y409957D01*
X373127Y404154D01*
X373127Y395946D01*
X367324Y390143D01*
X359116Y390143D01*
G37*
%LPD*%
%LPC*%
G36*
X257516Y390143D02*
X257516Y390143D01*
X251713Y395946D01*
X251713Y404154D01*
X257516Y409957D01*
X265724Y409957D01*
X271527Y404154D01*
X271527Y395946D01*
X265724Y390143D01*
X257516Y390143D01*
G37*
%LPD*%
%LPC*%
G36*
X359116Y486663D02*
X359116Y486663D01*
X353313Y492466D01*
X353313Y500674D01*
X359116Y506477D01*
X367324Y506477D01*
X373127Y500674D01*
X373127Y492466D01*
X367324Y486663D01*
X359116Y486663D01*
G37*
%LPD*%
%LPC*%
G36*
X257516Y486663D02*
X257516Y486663D01*
X251713Y492466D01*
X251713Y500674D01*
X257516Y506477D01*
X265724Y506477D01*
X271527Y500674D01*
X271527Y492466D01*
X265724Y486663D01*
X257516Y486663D01*
G37*
%LPD*%
%LPC*%
G36*
X257516Y438403D02*
X257516Y438403D01*
X251713Y444206D01*
X251713Y452414D01*
X257516Y458217D01*
X265724Y458217D01*
X271527Y452414D01*
X271527Y444206D01*
X265724Y438403D01*
X257516Y438403D01*
G37*
%LPD*%
%LPC*%
G36*
X172426Y223773D02*
X172426Y223773D01*
X166623Y229576D01*
X166623Y237784D01*
X172426Y243587D01*
X180634Y243587D01*
X186437Y237784D01*
X186437Y229576D01*
X180634Y223773D01*
X172426Y223773D01*
G37*
%LPD*%
%LPC*%
G36*
X274026Y223773D02*
X274026Y223773D01*
X268223Y229576D01*
X268223Y237784D01*
X274026Y243587D01*
X282234Y243587D01*
X288037Y237784D01*
X288037Y229576D01*
X282234Y223773D01*
X274026Y223773D01*
G37*
%LPD*%
%LPC*%
G36*
X310856Y223773D02*
X310856Y223773D01*
X305053Y229576D01*
X305053Y237784D01*
X310856Y243587D01*
X319064Y243587D01*
X324867Y237784D01*
X324867Y229576D01*
X319064Y223773D01*
X310856Y223773D01*
G37*
%LPD*%
%LPC*%
G36*
X412456Y223773D02*
X412456Y223773D01*
X406653Y229576D01*
X406653Y237784D01*
X412456Y243587D01*
X420664Y243587D01*
X426467Y237784D01*
X426467Y229576D01*
X420664Y223773D01*
X412456Y223773D01*
G37*
%LPD*%
%LPC*%
G36*
X217751Y922330D02*
X217751Y922330D01*
X214131Y923830D01*
X211360Y926601D01*
X209860Y930221D01*
X209860Y934139D01*
X211360Y937759D01*
X214131Y940530D01*
X217751Y942030D01*
X221669Y942030D01*
X225289Y940530D01*
X228060Y937759D01*
X229560Y934139D01*
X229560Y930221D01*
X228060Y926601D01*
X225289Y923830D01*
X221669Y922330D01*
X217751Y922330D01*
G37*
%LPD*%
%LPC*%
G36*
X344751Y922330D02*
X344751Y922330D01*
X341131Y923830D01*
X338360Y926601D01*
X336860Y930221D01*
X336860Y934139D01*
X338360Y937759D01*
X341131Y940530D01*
X344751Y942030D01*
X348669Y942030D01*
X352289Y940530D01*
X355060Y937759D01*
X356560Y934139D01*
X356560Y930221D01*
X355060Y926601D01*
X352289Y923830D01*
X348669Y922330D01*
X344751Y922330D01*
G37*
%LPD*%
%LPC*%
G36*
X420951Y922330D02*
X420951Y922330D01*
X417331Y923830D01*
X414560Y926601D01*
X413060Y930221D01*
X413060Y934139D01*
X414560Y937759D01*
X417331Y940530D01*
X420951Y942030D01*
X424869Y942030D01*
X428489Y940530D01*
X431260Y937759D01*
X432760Y934139D01*
X432760Y930221D01*
X431260Y926601D01*
X428489Y923830D01*
X424869Y922330D01*
X420951Y922330D01*
G37*
%LPD*%
%LPC*%
G36*
X370151Y922330D02*
X370151Y922330D01*
X366531Y923830D01*
X363760Y926601D01*
X362260Y930221D01*
X362260Y934139D01*
X363760Y937759D01*
X366531Y940530D01*
X370151Y942030D01*
X374069Y942030D01*
X377689Y940530D01*
X380460Y937759D01*
X381960Y934139D01*
X381960Y930221D01*
X380460Y926601D01*
X377689Y923830D01*
X374069Y922330D01*
X370151Y922330D01*
G37*
%LPD*%
%LPC*%
G36*
X192351Y922330D02*
X192351Y922330D01*
X188731Y923830D01*
X185960Y926601D01*
X184460Y930221D01*
X184460Y934139D01*
X185960Y937759D01*
X188731Y940530D01*
X192351Y942030D01*
X196269Y942030D01*
X199889Y940530D01*
X202660Y937759D01*
X204160Y934139D01*
X204160Y930221D01*
X202660Y926601D01*
X199889Y923830D01*
X196269Y922330D01*
X192351Y922330D01*
G37*
%LPD*%
%LPC*%
G36*
X319351Y922330D02*
X319351Y922330D01*
X315731Y923830D01*
X312960Y926601D01*
X311460Y930221D01*
X311460Y934139D01*
X312960Y937759D01*
X315731Y940530D01*
X319351Y942030D01*
X323269Y942030D01*
X326889Y940530D01*
X329660Y937759D01*
X331160Y934139D01*
X331160Y930221D01*
X329660Y926601D01*
X326889Y923830D01*
X323269Y922330D01*
X319351Y922330D01*
G37*
%LPD*%
%LPC*%
G36*
X480896Y334135D02*
X480896Y334135D01*
X477748Y335439D01*
X475339Y337848D01*
X474035Y340996D01*
X474035Y344404D01*
X475339Y347552D01*
X477748Y349961D01*
X480896Y351265D01*
X484304Y351265D01*
X487452Y349961D01*
X489861Y347552D01*
X491165Y344404D01*
X491165Y340996D01*
X489861Y337848D01*
X487452Y335439D01*
X484304Y334135D01*
X480896Y334135D01*
G37*
%LPD*%
%LPC*%
G36*
X480896Y309135D02*
X480896Y309135D01*
X477748Y310439D01*
X475339Y312848D01*
X474035Y315996D01*
X474035Y319404D01*
X475339Y322552D01*
X477748Y324961D01*
X480896Y326265D01*
X484304Y326265D01*
X487452Y324961D01*
X489861Y322552D01*
X491165Y319404D01*
X491165Y315996D01*
X489861Y312848D01*
X487452Y310439D01*
X484304Y309135D01*
X480896Y309135D01*
G37*
%LPD*%
%LPC*%
G36*
X112596Y663065D02*
X112596Y663065D01*
X109448Y664369D01*
X107039Y666778D01*
X105735Y669926D01*
X105735Y673334D01*
X107039Y676482D01*
X109448Y678891D01*
X112596Y680195D01*
X116004Y680195D01*
X119152Y678891D01*
X121561Y676482D01*
X122865Y673334D01*
X122865Y669926D01*
X121561Y666778D01*
X119152Y664369D01*
X116004Y663065D01*
X112596Y663065D01*
G37*
%LPD*%
%LPC*%
G36*
X480896Y461535D02*
X480896Y461535D01*
X477748Y462839D01*
X475339Y465248D01*
X474035Y468396D01*
X474035Y471804D01*
X475339Y474952D01*
X477748Y477361D01*
X480896Y478665D01*
X484304Y478665D01*
X487452Y477361D01*
X489861Y474952D01*
X491165Y471804D01*
X491165Y468396D01*
X489861Y465248D01*
X487452Y462839D01*
X484304Y461535D01*
X480896Y461535D01*
G37*
%LPD*%
%LPC*%
G36*
X238526Y99385D02*
X238526Y99385D01*
X235378Y100689D01*
X232969Y103098D01*
X231665Y106246D01*
X231665Y109654D01*
X232969Y112802D01*
X235378Y115211D01*
X238526Y116515D01*
X241934Y116515D01*
X245082Y115211D01*
X247491Y112802D01*
X248795Y109654D01*
X248795Y106246D01*
X247491Y103098D01*
X245082Y100689D01*
X241934Y99385D01*
X238526Y99385D01*
G37*
%LPD*%
%LPC*%
G36*
X480896Y613935D02*
X480896Y613935D01*
X477748Y615239D01*
X475339Y617648D01*
X474035Y620796D01*
X474035Y624204D01*
X475339Y627352D01*
X477748Y629761D01*
X480896Y631065D01*
X484304Y631065D01*
X487452Y629761D01*
X489861Y627352D01*
X491165Y624204D01*
X491165Y620796D01*
X489861Y617648D01*
X487452Y615239D01*
X484304Y613935D01*
X480896Y613935D01*
G37*
%LPD*%
%LPC*%
G36*
X112596Y511935D02*
X112596Y511935D01*
X109448Y513239D01*
X107039Y515648D01*
X105735Y518796D01*
X105735Y522204D01*
X107039Y525352D01*
X109448Y527761D01*
X112596Y529065D01*
X116004Y529065D01*
X119152Y527761D01*
X121561Y525352D01*
X122865Y522204D01*
X122865Y518796D01*
X121561Y515648D01*
X119152Y513239D01*
X116004Y511935D01*
X112596Y511935D01*
G37*
%LPD*%
%LPC*%
G36*
X111326Y359535D02*
X111326Y359535D01*
X108178Y360839D01*
X105769Y363248D01*
X104465Y366396D01*
X104465Y369804D01*
X105769Y372952D01*
X108178Y375361D01*
X111326Y376665D01*
X114734Y376665D01*
X117882Y375361D01*
X120291Y372952D01*
X121595Y369804D01*
X121595Y366396D01*
X120291Y363248D01*
X117882Y360839D01*
X114734Y359535D01*
X111326Y359535D01*
G37*
%LPD*%
%LPC*%
G36*
X329966Y983305D02*
X329966Y983305D01*
X326818Y984609D01*
X324409Y987018D01*
X323105Y990166D01*
X323105Y993574D01*
X324409Y996722D01*
X326818Y999131D01*
X329966Y1000435D01*
X333374Y1000435D01*
X336522Y999131D01*
X338931Y996722D01*
X340235Y993574D01*
X340235Y990166D01*
X338931Y987018D01*
X336522Y984609D01*
X333374Y983305D01*
X329966Y983305D01*
G37*
%LPD*%
%LPC*%
G36*
X354966Y983305D02*
X354966Y983305D01*
X351818Y984609D01*
X349409Y987018D01*
X348105Y990166D01*
X348105Y993574D01*
X349409Y996722D01*
X351818Y999131D01*
X354966Y1000435D01*
X358374Y1000435D01*
X361522Y999131D01*
X363931Y996722D01*
X365235Y993574D01*
X365235Y990166D01*
X363931Y987018D01*
X361522Y984609D01*
X358374Y983305D01*
X354966Y983305D01*
G37*
%LPD*%
%LPC*%
G36*
X304966Y983305D02*
X304966Y983305D01*
X301818Y984609D01*
X299409Y987018D01*
X298105Y990166D01*
X298105Y993574D01*
X299409Y996722D01*
X301818Y999131D01*
X304966Y1000435D01*
X308374Y1000435D01*
X311522Y999131D01*
X313931Y996722D01*
X315235Y993574D01*
X315235Y990166D01*
X313931Y987018D01*
X311522Y984609D01*
X308374Y983305D01*
X304966Y983305D01*
G37*
%LPD*%
%LPC*%
G36*
X480896Y359135D02*
X480896Y359135D01*
X477748Y360439D01*
X475339Y362848D01*
X474035Y365996D01*
X474035Y369404D01*
X475339Y372552D01*
X477748Y374961D01*
X480896Y376265D01*
X484304Y376265D01*
X487452Y374961D01*
X489861Y372552D01*
X491165Y369404D01*
X491165Y365996D01*
X489861Y362848D01*
X487452Y360439D01*
X484304Y359135D01*
X480896Y359135D01*
G37*
%LPD*%
%LPC*%
G36*
X206528Y1014785D02*
X206528Y1014785D01*
X205635Y1015678D01*
X205635Y1029022D01*
X206528Y1029915D01*
X219872Y1029915D01*
X220765Y1029022D01*
X220765Y1015678D01*
X219872Y1014785D01*
X206528Y1014785D01*
G37*
%LPD*%
%LPC*%
G36*
X505138Y96735D02*
X505138Y96735D01*
X504245Y97628D01*
X504245Y110972D01*
X505138Y111865D01*
X518482Y111865D01*
X519375Y110972D01*
X519375Y97628D01*
X518482Y96735D01*
X505138Y96735D01*
G37*
%LPD*%
%LPC*%
G36*
X75878Y225955D02*
X75878Y225955D01*
X74985Y226848D01*
X74985Y240192D01*
X75878Y241085D01*
X89222Y241085D01*
X90115Y240192D01*
X90115Y226848D01*
X89222Y225955D01*
X75878Y225955D01*
G37*
%LPD*%
%LPC*%
G36*
X77148Y139595D02*
X77148Y139595D01*
X76255Y140488D01*
X76255Y153832D01*
X77148Y154725D01*
X90492Y154725D01*
X91385Y153832D01*
X91385Y140488D01*
X90492Y139595D01*
X77148Y139595D01*
G37*
%LPD*%
%LPC*%
G36*
X505138Y198335D02*
X505138Y198335D01*
X504245Y199228D01*
X504245Y212572D01*
X505138Y213465D01*
X518482Y213465D01*
X519375Y212572D01*
X519375Y199228D01*
X518482Y198335D01*
X505138Y198335D01*
G37*
%LPD*%
%LPC*%
G36*
X55053Y906271D02*
X55053Y906271D01*
X50291Y911033D01*
X50291Y917767D01*
X55053Y922529D01*
X61787Y922529D01*
X66549Y917767D01*
X66549Y911033D01*
X61787Y906271D01*
X55053Y906271D01*
G37*
%LPD*%
%LPC*%
G36*
X53783Y831341D02*
X53783Y831341D01*
X49021Y836103D01*
X49021Y842837D01*
X53783Y847599D01*
X60517Y847599D01*
X65279Y842837D01*
X65279Y836103D01*
X60517Y831341D01*
X53783Y831341D01*
G37*
%LPD*%
%LPC*%
G36*
X167578Y627935D02*
X167578Y627935D01*
X166685Y628828D01*
X166685Y641172D01*
X167578Y642065D01*
X179922Y642065D01*
X180815Y641172D01*
X180815Y628828D01*
X179922Y627935D01*
X167578Y627935D01*
G37*
%LPD*%
%LPC*%
G36*
X417578Y627935D02*
X417578Y627935D01*
X416685Y628828D01*
X416685Y641172D01*
X417578Y642065D01*
X429922Y642065D01*
X430815Y641172D01*
X430815Y628828D01*
X429922Y627935D01*
X417578Y627935D01*
G37*
%LPD*%
%LPC*%
G36*
X422345Y272335D02*
X422345Y272335D01*
X419748Y273411D01*
X417761Y275398D01*
X416685Y277995D01*
X416685Y280805D01*
X417761Y283402D01*
X419748Y285389D01*
X422345Y286465D01*
X425155Y286465D01*
X427752Y285389D01*
X429739Y283402D01*
X430815Y280805D01*
X430815Y277995D01*
X429739Y275398D01*
X427752Y273411D01*
X425155Y272335D01*
X422345Y272335D01*
G37*
%LPD*%
%LPC*%
G36*
X422345Y526335D02*
X422345Y526335D01*
X419748Y527411D01*
X417761Y529398D01*
X416685Y531995D01*
X416685Y534805D01*
X417761Y537402D01*
X419748Y539389D01*
X422345Y540465D01*
X425155Y540465D01*
X427752Y539389D01*
X429739Y537402D01*
X430815Y534805D01*
X430815Y531995D01*
X429739Y529398D01*
X427752Y527411D01*
X425155Y526335D01*
X422345Y526335D01*
G37*
%LPD*%
%LPC*%
G36*
X172345Y272335D02*
X172345Y272335D01*
X169748Y273411D01*
X167761Y275398D01*
X166685Y277995D01*
X166685Y280805D01*
X167761Y283402D01*
X169748Y285389D01*
X172345Y286465D01*
X175155Y286465D01*
X177752Y285389D01*
X179739Y283402D01*
X180815Y280805D01*
X180815Y277995D01*
X179739Y275398D01*
X177752Y273411D01*
X175155Y272335D01*
X172345Y272335D01*
G37*
%LPD*%
%LPC*%
G36*
X422345Y475535D02*
X422345Y475535D01*
X419748Y476611D01*
X417761Y478598D01*
X416685Y481195D01*
X416685Y484005D01*
X417761Y486602D01*
X419748Y488589D01*
X422345Y489665D01*
X425155Y489665D01*
X427752Y488589D01*
X429739Y486602D01*
X430815Y484005D01*
X430815Y481195D01*
X429739Y478598D01*
X427752Y476611D01*
X425155Y475535D01*
X422345Y475535D01*
G37*
%LPD*%
%LPC*%
G36*
X172345Y450135D02*
X172345Y450135D01*
X169748Y451211D01*
X167761Y453198D01*
X166685Y455795D01*
X166685Y458605D01*
X167761Y461202D01*
X169748Y463189D01*
X172345Y464265D01*
X175155Y464265D01*
X177752Y463189D01*
X179739Y461202D01*
X180815Y458605D01*
X180815Y455795D01*
X179739Y453198D01*
X177752Y451211D01*
X175155Y450135D01*
X172345Y450135D01*
G37*
%LPD*%
%LPC*%
G36*
X172345Y348535D02*
X172345Y348535D01*
X169748Y349611D01*
X167761Y351598D01*
X166685Y354195D01*
X166685Y357005D01*
X167761Y359602D01*
X169748Y361589D01*
X172345Y362665D01*
X175155Y362665D01*
X177752Y361589D01*
X179739Y359602D01*
X180815Y357005D01*
X180815Y354195D01*
X179739Y351598D01*
X177752Y349611D01*
X175155Y348535D01*
X172345Y348535D01*
G37*
%LPD*%
%LPC*%
G36*
X422345Y348535D02*
X422345Y348535D01*
X419748Y349611D01*
X417761Y351598D01*
X416685Y354195D01*
X416685Y357005D01*
X417761Y359602D01*
X419748Y361589D01*
X422345Y362665D01*
X425155Y362665D01*
X427752Y361589D01*
X429739Y359602D01*
X430815Y357005D01*
X430815Y354195D01*
X429739Y351598D01*
X427752Y349611D01*
X425155Y348535D01*
X422345Y348535D01*
G37*
%LPD*%
%LPC*%
G36*
X172345Y577135D02*
X172345Y577135D01*
X169748Y578211D01*
X167761Y580198D01*
X166685Y582795D01*
X166685Y585605D01*
X167761Y588202D01*
X169748Y590189D01*
X172345Y591265D01*
X175155Y591265D01*
X177752Y590189D01*
X179739Y588202D01*
X180815Y585605D01*
X180815Y582795D01*
X179739Y580198D01*
X177752Y578211D01*
X175155Y577135D01*
X172345Y577135D01*
G37*
%LPD*%
%LPC*%
G36*
X422345Y399335D02*
X422345Y399335D01*
X419748Y400411D01*
X417761Y402398D01*
X416685Y404995D01*
X416685Y407805D01*
X417761Y410402D01*
X419748Y412389D01*
X422345Y413465D01*
X425155Y413465D01*
X427752Y412389D01*
X429739Y410402D01*
X430815Y407805D01*
X430815Y404995D01*
X429739Y402398D01*
X427752Y400411D01*
X425155Y399335D01*
X422345Y399335D01*
G37*
%LPD*%
%LPC*%
G36*
X172345Y602535D02*
X172345Y602535D01*
X169748Y603611D01*
X167761Y605598D01*
X166685Y608195D01*
X166685Y611005D01*
X167761Y613602D01*
X169748Y615589D01*
X172345Y616665D01*
X175155Y616665D01*
X177752Y615589D01*
X179739Y613602D01*
X180815Y611005D01*
X180815Y608195D01*
X179739Y605598D01*
X177752Y603611D01*
X175155Y602535D01*
X172345Y602535D01*
G37*
%LPD*%
%LPC*%
G36*
X422345Y602535D02*
X422345Y602535D01*
X419748Y603611D01*
X417761Y605598D01*
X416685Y608195D01*
X416685Y611005D01*
X417761Y613602D01*
X419748Y615589D01*
X422345Y616665D01*
X425155Y616665D01*
X427752Y615589D01*
X429739Y613602D01*
X430815Y611005D01*
X430815Y608195D01*
X429739Y605598D01*
X427752Y603611D01*
X425155Y602535D01*
X422345Y602535D01*
G37*
%LPD*%
%LPC*%
G36*
X172345Y475535D02*
X172345Y475535D01*
X169748Y476611D01*
X167761Y478598D01*
X166685Y481195D01*
X166685Y484005D01*
X167761Y486602D01*
X169748Y488589D01*
X172345Y489665D01*
X175155Y489665D01*
X177752Y488589D01*
X179739Y486602D01*
X180815Y484005D01*
X180815Y481195D01*
X179739Y478598D01*
X177752Y476611D01*
X175155Y475535D01*
X172345Y475535D01*
G37*
%LPD*%
%LPC*%
G36*
X422345Y450135D02*
X422345Y450135D01*
X419748Y451211D01*
X417761Y453198D01*
X416685Y455795D01*
X416685Y458605D01*
X417761Y461202D01*
X419748Y463189D01*
X422345Y464265D01*
X425155Y464265D01*
X427752Y463189D01*
X429739Y461202D01*
X430815Y458605D01*
X430815Y455795D01*
X429739Y453198D01*
X427752Y451211D01*
X425155Y450135D01*
X422345Y450135D01*
G37*
%LPD*%
%LPC*%
G36*
X422345Y577135D02*
X422345Y577135D01*
X419748Y578211D01*
X417761Y580198D01*
X416685Y582795D01*
X416685Y585605D01*
X417761Y588202D01*
X419748Y590189D01*
X422345Y591265D01*
X425155Y591265D01*
X427752Y590189D01*
X429739Y588202D01*
X430815Y585605D01*
X430815Y582795D01*
X429739Y580198D01*
X427752Y578211D01*
X425155Y577135D01*
X422345Y577135D01*
G37*
%LPD*%
%LPC*%
G36*
X422345Y551735D02*
X422345Y551735D01*
X419748Y552811D01*
X417761Y554798D01*
X416685Y557395D01*
X416685Y560205D01*
X417761Y562802D01*
X419748Y564789D01*
X422345Y565865D01*
X425155Y565865D01*
X427752Y564789D01*
X429739Y562802D01*
X430815Y560205D01*
X430815Y557395D01*
X429739Y554798D01*
X427752Y552811D01*
X425155Y551735D01*
X422345Y551735D01*
G37*
%LPD*%
%LPC*%
G36*
X172345Y551735D02*
X172345Y551735D01*
X169748Y552811D01*
X167761Y554798D01*
X166685Y557395D01*
X166685Y560205D01*
X167761Y562802D01*
X169748Y564789D01*
X172345Y565865D01*
X175155Y565865D01*
X177752Y564789D01*
X179739Y562802D01*
X180815Y560205D01*
X180815Y557395D01*
X179739Y554798D01*
X177752Y552811D01*
X175155Y551735D01*
X172345Y551735D01*
G37*
%LPD*%
%LPC*%
G36*
X422345Y424735D02*
X422345Y424735D01*
X419748Y425811D01*
X417761Y427798D01*
X416685Y430395D01*
X416685Y433205D01*
X417761Y435802D01*
X419748Y437789D01*
X422345Y438865D01*
X425155Y438865D01*
X427752Y437789D01*
X429739Y435802D01*
X430815Y433205D01*
X430815Y430395D01*
X429739Y427798D01*
X427752Y425811D01*
X425155Y424735D01*
X422345Y424735D01*
G37*
%LPD*%
%LPC*%
G36*
X422345Y323135D02*
X422345Y323135D01*
X419748Y324211D01*
X417761Y326198D01*
X416685Y328795D01*
X416685Y331605D01*
X417761Y334202D01*
X419748Y336189D01*
X422345Y337265D01*
X425155Y337265D01*
X427752Y336189D01*
X429739Y334202D01*
X430815Y331605D01*
X430815Y328795D01*
X429739Y326198D01*
X427752Y324211D01*
X425155Y323135D01*
X422345Y323135D01*
G37*
%LPD*%
%LPC*%
G36*
X172345Y500935D02*
X172345Y500935D01*
X169748Y502011D01*
X167761Y503998D01*
X166685Y506595D01*
X166685Y509405D01*
X167761Y512002D01*
X169748Y513989D01*
X172345Y515065D01*
X175155Y515065D01*
X177752Y513989D01*
X179739Y512002D01*
X180815Y509405D01*
X180815Y506595D01*
X179739Y503998D01*
X177752Y502011D01*
X175155Y500935D01*
X172345Y500935D01*
G37*
%LPD*%
%LPC*%
G36*
X422345Y373935D02*
X422345Y373935D01*
X419748Y375011D01*
X417761Y376998D01*
X416685Y379595D01*
X416685Y382405D01*
X417761Y385002D01*
X419748Y386989D01*
X422345Y388065D01*
X425155Y388065D01*
X427752Y386989D01*
X429739Y385002D01*
X430815Y382405D01*
X430815Y379595D01*
X429739Y376998D01*
X427752Y375011D01*
X425155Y373935D01*
X422345Y373935D01*
G37*
%LPD*%
%LPC*%
G36*
X422345Y500935D02*
X422345Y500935D01*
X419748Y502011D01*
X417761Y503998D01*
X416685Y506595D01*
X416685Y509405D01*
X417761Y512002D01*
X419748Y513989D01*
X422345Y515065D01*
X425155Y515065D01*
X427752Y513989D01*
X429739Y512002D01*
X430815Y509405D01*
X430815Y506595D01*
X429739Y503998D01*
X427752Y502011D01*
X425155Y500935D01*
X422345Y500935D01*
G37*
%LPD*%
%LPC*%
G36*
X172345Y526335D02*
X172345Y526335D01*
X169748Y527411D01*
X167761Y529398D01*
X166685Y531995D01*
X166685Y534805D01*
X167761Y537402D01*
X169748Y539389D01*
X172345Y540465D01*
X175155Y540465D01*
X177752Y539389D01*
X179739Y537402D01*
X180815Y534805D01*
X180815Y531995D01*
X179739Y529398D01*
X177752Y527411D01*
X175155Y526335D01*
X172345Y526335D01*
G37*
%LPD*%
%LPC*%
G36*
X172345Y323135D02*
X172345Y323135D01*
X169748Y324211D01*
X167761Y326198D01*
X166685Y328795D01*
X166685Y331605D01*
X167761Y334202D01*
X169748Y336189D01*
X172345Y337265D01*
X175155Y337265D01*
X177752Y336189D01*
X179739Y334202D01*
X180815Y331605D01*
X180815Y328795D01*
X179739Y326198D01*
X177752Y324211D01*
X175155Y323135D01*
X172345Y323135D01*
G37*
%LPD*%
%LPC*%
G36*
X484123Y294223D02*
X484123Y294223D01*
X484123Y302281D01*
X489974Y302281D01*
X490621Y302108D01*
X491200Y301773D01*
X491673Y301300D01*
X492008Y300721D01*
X492181Y300074D01*
X492181Y294223D01*
X484123Y294223D01*
G37*
%LPD*%
%LPC*%
G36*
X484123Y446623D02*
X484123Y446623D01*
X484123Y454681D01*
X489974Y454681D01*
X490621Y454508D01*
X491200Y454173D01*
X491673Y453700D01*
X492008Y453121D01*
X492181Y452474D01*
X492181Y446623D01*
X484123Y446623D01*
G37*
%LPD*%
%LPC*%
G36*
X484123Y599023D02*
X484123Y599023D01*
X484123Y607081D01*
X489974Y607081D01*
X490621Y606908D01*
X491200Y606573D01*
X491673Y606100D01*
X492008Y605521D01*
X492181Y604874D01*
X492181Y599023D01*
X484123Y599023D01*
G37*
%LPD*%
%LPC*%
G36*
X383193Y993393D02*
X383193Y993393D01*
X383193Y1001451D01*
X389044Y1001451D01*
X389691Y1001278D01*
X390270Y1000943D01*
X390743Y1000470D01*
X391078Y999891D01*
X391251Y999244D01*
X391251Y993393D01*
X383193Y993393D01*
G37*
%LPD*%
%LPC*%
G36*
X114553Y394623D02*
X114553Y394623D01*
X114553Y402681D01*
X120404Y402681D01*
X121051Y402508D01*
X121630Y402173D01*
X122103Y401700D01*
X122438Y401121D01*
X122611Y400474D01*
X122611Y394623D01*
X114553Y394623D01*
G37*
%LPD*%
%LPC*%
G36*
X115823Y547023D02*
X115823Y547023D01*
X115823Y555081D01*
X121674Y555081D01*
X122321Y554908D01*
X122900Y554573D01*
X123373Y554100D01*
X123708Y553521D01*
X123881Y552874D01*
X123881Y547023D01*
X115823Y547023D01*
G37*
%LPD*%
%LPC*%
G36*
X115823Y698153D02*
X115823Y698153D01*
X115823Y706211D01*
X121674Y706211D01*
X122321Y706038D01*
X122900Y705703D01*
X123373Y705230D01*
X123708Y704651D01*
X123881Y704004D01*
X123881Y698153D01*
X115823Y698153D01*
G37*
%LPD*%
%LPC*%
G36*
X216753Y109473D02*
X216753Y109473D01*
X216753Y117531D01*
X222604Y117531D01*
X223251Y117358D01*
X223830Y117023D01*
X224303Y116550D01*
X224638Y115971D01*
X224811Y115324D01*
X224811Y109473D01*
X216753Y109473D01*
G37*
%LPD*%
%LPC*%
G36*
X372089Y993393D02*
X372089Y993393D01*
X372089Y999244D01*
X372262Y999891D01*
X372597Y1000470D01*
X373070Y1000943D01*
X373649Y1001278D01*
X374296Y1001451D01*
X380147Y1001451D01*
X380147Y993393D01*
X372089Y993393D01*
G37*
%LPD*%
%LPC*%
G36*
X205649Y109473D02*
X205649Y109473D01*
X205649Y115324D01*
X205822Y115971D01*
X206157Y116550D01*
X206630Y117023D01*
X207209Y117358D01*
X207856Y117531D01*
X213707Y117531D01*
X213707Y109473D01*
X205649Y109473D01*
G37*
%LPD*%
%LPC*%
G36*
X484123Y283119D02*
X484123Y283119D01*
X484123Y291177D01*
X492181Y291177D01*
X492181Y285326D01*
X492008Y284679D01*
X491673Y284100D01*
X491200Y283627D01*
X490621Y283292D01*
X489974Y283119D01*
X484123Y283119D01*
G37*
%LPD*%
%LPC*%
G36*
X473019Y294223D02*
X473019Y294223D01*
X473019Y300074D01*
X473192Y300721D01*
X473527Y301300D01*
X474000Y301773D01*
X474579Y302108D01*
X475226Y302281D01*
X481077Y302281D01*
X481077Y294223D01*
X473019Y294223D01*
G37*
%LPD*%
%LPC*%
G36*
X473019Y599023D02*
X473019Y599023D01*
X473019Y604874D01*
X473192Y605521D01*
X473527Y606100D01*
X474000Y606573D01*
X474579Y606908D01*
X475226Y607081D01*
X481077Y607081D01*
X481077Y599023D01*
X473019Y599023D01*
G37*
%LPD*%
%LPC*%
G36*
X484123Y587919D02*
X484123Y587919D01*
X484123Y595977D01*
X492181Y595977D01*
X492181Y590126D01*
X492008Y589479D01*
X491673Y588900D01*
X491200Y588427D01*
X490621Y588092D01*
X489974Y587919D01*
X484123Y587919D01*
G37*
%LPD*%
%LPC*%
G36*
X115823Y687049D02*
X115823Y687049D01*
X115823Y695107D01*
X123881Y695107D01*
X123881Y689256D01*
X123708Y688609D01*
X123373Y688030D01*
X122900Y687557D01*
X122321Y687222D01*
X121674Y687049D01*
X115823Y687049D01*
G37*
%LPD*%
%LPC*%
G36*
X103449Y394623D02*
X103449Y394623D01*
X103449Y400474D01*
X103622Y401121D01*
X103957Y401700D01*
X104430Y402173D01*
X105009Y402508D01*
X105656Y402681D01*
X111507Y402681D01*
X111507Y394623D01*
X103449Y394623D01*
G37*
%LPD*%
%LPC*%
G36*
X383193Y982289D02*
X383193Y982289D01*
X383193Y990347D01*
X391251Y990347D01*
X391251Y984496D01*
X391078Y983849D01*
X390743Y983270D01*
X390270Y982797D01*
X389691Y982462D01*
X389044Y982289D01*
X383193Y982289D01*
G37*
%LPD*%
%LPC*%
G36*
X104719Y698153D02*
X104719Y698153D01*
X104719Y704004D01*
X104892Y704651D01*
X105227Y705230D01*
X105700Y705703D01*
X106279Y706038D01*
X106926Y706211D01*
X112777Y706211D01*
X112777Y698153D01*
X104719Y698153D01*
G37*
%LPD*%
%LPC*%
G36*
X104719Y547023D02*
X104719Y547023D01*
X104719Y552874D01*
X104892Y553521D01*
X105227Y554100D01*
X105700Y554573D01*
X106279Y554908D01*
X106926Y555081D01*
X112777Y555081D01*
X112777Y547023D01*
X104719Y547023D01*
G37*
%LPD*%
%LPC*%
G36*
X216753Y98369D02*
X216753Y98369D01*
X216753Y106427D01*
X224811Y106427D01*
X224811Y100576D01*
X224638Y99929D01*
X224303Y99350D01*
X223830Y98877D01*
X223251Y98542D01*
X222604Y98369D01*
X216753Y98369D01*
G37*
%LPD*%
%LPC*%
G36*
X114553Y383519D02*
X114553Y383519D01*
X114553Y391577D01*
X122611Y391577D01*
X122611Y385726D01*
X122438Y385079D01*
X122103Y384500D01*
X121630Y384027D01*
X121051Y383692D01*
X120404Y383519D01*
X114553Y383519D01*
G37*
%LPD*%
%LPC*%
G36*
X473019Y446623D02*
X473019Y446623D01*
X473019Y452474D01*
X473192Y453121D01*
X473527Y453700D01*
X474000Y454173D01*
X474579Y454508D01*
X475226Y454681D01*
X481077Y454681D01*
X481077Y446623D01*
X473019Y446623D01*
G37*
%LPD*%
%LPC*%
G36*
X115823Y535919D02*
X115823Y535919D01*
X115823Y543977D01*
X123881Y543977D01*
X123881Y538126D01*
X123708Y537479D01*
X123373Y536900D01*
X122900Y536427D01*
X122321Y536092D01*
X121674Y535919D01*
X115823Y535919D01*
G37*
%LPD*%
%LPC*%
G36*
X484123Y435519D02*
X484123Y435519D01*
X484123Y443577D01*
X492181Y443577D01*
X492181Y437726D01*
X492008Y437079D01*
X491673Y436500D01*
X491200Y436027D01*
X490621Y435692D01*
X489974Y435519D01*
X484123Y435519D01*
G37*
%LPD*%
%LPC*%
G36*
X105656Y383519D02*
X105656Y383519D01*
X105009Y383692D01*
X104430Y384027D01*
X103957Y384500D01*
X103622Y385079D01*
X103449Y385726D01*
X103449Y391577D01*
X111507Y391577D01*
X111507Y383519D01*
X105656Y383519D01*
G37*
%LPD*%
%LPC*%
G36*
X106926Y687049D02*
X106926Y687049D01*
X106279Y687222D01*
X105700Y687557D01*
X105227Y688030D01*
X104892Y688609D01*
X104719Y689256D01*
X104719Y695107D01*
X112777Y695107D01*
X112777Y687049D01*
X106926Y687049D01*
G37*
%LPD*%
%LPC*%
G36*
X106926Y535919D02*
X106926Y535919D01*
X106279Y536092D01*
X105700Y536427D01*
X105227Y536900D01*
X104892Y537479D01*
X104719Y538126D01*
X104719Y543977D01*
X112777Y543977D01*
X112777Y535919D01*
X106926Y535919D01*
G37*
%LPD*%
%LPC*%
G36*
X475226Y587919D02*
X475226Y587919D01*
X474579Y588092D01*
X474000Y588427D01*
X473527Y588900D01*
X473192Y589479D01*
X473019Y590126D01*
X473019Y595977D01*
X481077Y595977D01*
X481077Y587919D01*
X475226Y587919D01*
G37*
%LPD*%
%LPC*%
G36*
X475226Y283119D02*
X475226Y283119D01*
X474579Y283292D01*
X474000Y283627D01*
X473527Y284100D01*
X473192Y284679D01*
X473019Y285326D01*
X473019Y291177D01*
X481077Y291177D01*
X481077Y283119D01*
X475226Y283119D01*
G37*
%LPD*%
%LPC*%
G36*
X475226Y435519D02*
X475226Y435519D01*
X474579Y435692D01*
X474000Y436027D01*
X473527Y436500D01*
X473192Y437079D01*
X473019Y437726D01*
X473019Y443577D01*
X481077Y443577D01*
X481077Y435519D01*
X475226Y435519D01*
G37*
%LPD*%
%LPC*%
G36*
X374296Y982289D02*
X374296Y982289D01*
X373649Y982462D01*
X373070Y982797D01*
X372597Y983270D01*
X372262Y983849D01*
X372089Y984496D01*
X372089Y990347D01*
X380147Y990347D01*
X380147Y982289D01*
X374296Y982289D01*
G37*
%LPD*%
%LPC*%
G36*
X207856Y98369D02*
X207856Y98369D01*
X207209Y98542D01*
X206630Y98877D01*
X206157Y99350D01*
X205822Y99929D01*
X205649Y100576D01*
X205649Y106427D01*
X213707Y106427D01*
X213707Y98369D01*
X207856Y98369D01*
G37*
%LPD*%
%LPC*%
G36*
X399033Y933703D02*
X399033Y933703D01*
X399033Y942940D01*
X400054Y942778D01*
X401681Y942250D01*
X403205Y941473D01*
X404589Y940468D01*
X405798Y939259D01*
X406803Y937875D01*
X407580Y936351D01*
X408108Y934724D01*
X408270Y933703D01*
X399033Y933703D01*
G37*
%LPD*%
%LPC*%
G36*
X386750Y933703D02*
X386750Y933703D01*
X386912Y934724D01*
X387440Y936351D01*
X388217Y937875D01*
X389222Y939259D01*
X390431Y940468D01*
X391815Y941473D01*
X393339Y942250D01*
X394966Y942778D01*
X395987Y942940D01*
X395987Y933703D01*
X386750Y933703D01*
G37*
%LPD*%
%LPC*%
G36*
X399033Y930657D02*
X399033Y930657D01*
X408270Y930657D01*
X408108Y929636D01*
X407580Y928009D01*
X406803Y926485D01*
X405798Y925101D01*
X404589Y923892D01*
X403205Y922887D01*
X401681Y922110D01*
X400054Y921582D01*
X399033Y921420D01*
X399033Y930657D01*
G37*
%LPD*%
%LPC*%
G36*
X394966Y921582D02*
X394966Y921582D01*
X393339Y922110D01*
X391815Y922887D01*
X390431Y923892D01*
X389222Y925101D01*
X388217Y926485D01*
X387440Y928009D01*
X386912Y929636D01*
X386750Y930657D01*
X395987Y930657D01*
X395987Y921420D01*
X394966Y921582D01*
G37*
%LPD*%
%LPC*%
G36*
X85343Y915923D02*
X85343Y915923D01*
X85343Y923545D01*
X87608Y923545D01*
X92965Y918188D01*
X92965Y915923D01*
X85343Y915923D01*
G37*
%LPD*%
%LPC*%
G36*
X84073Y840993D02*
X84073Y840993D01*
X84073Y848615D01*
X86338Y848615D01*
X91695Y843258D01*
X91695Y840993D01*
X84073Y840993D01*
G37*
%LPD*%
%LPC*%
G36*
X85343Y764793D02*
X85343Y764793D01*
X85343Y772415D01*
X87608Y772415D01*
X92965Y767058D01*
X92965Y764793D01*
X85343Y764793D01*
G37*
%LPD*%
%LPC*%
G36*
X73405Y840993D02*
X73405Y840993D01*
X73405Y843258D01*
X78762Y848615D01*
X81027Y848615D01*
X81027Y840993D01*
X73405Y840993D01*
G37*
%LPD*%
%LPC*%
G36*
X74675Y915923D02*
X74675Y915923D01*
X74675Y918188D01*
X80032Y923545D01*
X82297Y923545D01*
X82297Y915923D01*
X74675Y915923D01*
G37*
%LPD*%
%LPC*%
G36*
X74675Y764793D02*
X74675Y764793D01*
X74675Y767058D01*
X80032Y772415D01*
X82297Y772415D01*
X82297Y764793D01*
X74675Y764793D01*
G37*
%LPD*%
%LPC*%
G36*
X84073Y830325D02*
X84073Y830325D01*
X84073Y837947D01*
X91695Y837947D01*
X91695Y835682D01*
X86338Y830325D01*
X84073Y830325D01*
G37*
%LPD*%
%LPC*%
G36*
X85343Y905255D02*
X85343Y905255D01*
X85343Y912877D01*
X92965Y912877D01*
X92965Y910612D01*
X87608Y905255D01*
X85343Y905255D01*
G37*
%LPD*%
%LPC*%
G36*
X85343Y754125D02*
X85343Y754125D01*
X85343Y761747D01*
X92965Y761747D01*
X92965Y759482D01*
X87608Y754125D01*
X85343Y754125D01*
G37*
%LPD*%
%LPC*%
G36*
X80032Y754125D02*
X80032Y754125D01*
X74675Y759482D01*
X74675Y761747D01*
X82297Y761747D01*
X82297Y754125D01*
X80032Y754125D01*
G37*
%LPD*%
%LPC*%
G36*
X80032Y905255D02*
X80032Y905255D01*
X74675Y910612D01*
X74675Y912877D01*
X82297Y912877D01*
X82297Y905255D01*
X80032Y905255D01*
G37*
%LPD*%
%LPC*%
G36*
X78762Y830325D02*
X78762Y830325D01*
X73405Y835682D01*
X73405Y837947D01*
X81027Y837947D01*
X81027Y830325D01*
X78762Y830325D01*
G37*
%LPD*%
%LPC*%
G36*
X513333Y125823D02*
X513333Y125823D01*
X513333Y132746D01*
X514313Y132551D01*
X515875Y131904D01*
X517280Y130965D01*
X518475Y129770D01*
X519414Y128365D01*
X520061Y126803D01*
X520256Y125823D01*
X513333Y125823D01*
G37*
%LPD*%
%LPC*%
G36*
X194723Y1023873D02*
X194723Y1023873D01*
X194723Y1030796D01*
X195703Y1030601D01*
X197265Y1029954D01*
X198670Y1029015D01*
X199865Y1027820D01*
X200804Y1026415D01*
X201451Y1024853D01*
X201646Y1023873D01*
X194723Y1023873D01*
G37*
%LPD*%
%LPC*%
G36*
X513333Y227423D02*
X513333Y227423D01*
X513333Y234346D01*
X514313Y234151D01*
X515875Y233504D01*
X517280Y232565D01*
X518475Y231370D01*
X519414Y229965D01*
X520061Y228403D01*
X520256Y227423D01*
X513333Y227423D01*
G37*
%LPD*%
%LPC*%
G36*
X84073Y215043D02*
X84073Y215043D01*
X84073Y221966D01*
X85053Y221771D01*
X86615Y221124D01*
X88020Y220185D01*
X89215Y218990D01*
X90154Y217585D01*
X90801Y216023D01*
X90996Y215043D01*
X84073Y215043D01*
G37*
%LPD*%
%LPC*%
G36*
X85343Y128683D02*
X85343Y128683D01*
X85343Y135606D01*
X86323Y135411D01*
X87885Y134764D01*
X89290Y133825D01*
X90485Y132630D01*
X91424Y131225D01*
X92071Y129663D01*
X92266Y128683D01*
X85343Y128683D01*
G37*
%LPD*%
%LPC*%
G36*
X141063Y80263D02*
X141063Y80263D01*
X141063Y87186D01*
X142043Y86991D01*
X143605Y86344D01*
X145010Y85405D01*
X146205Y84210D01*
X147144Y82805D01*
X147791Y81243D01*
X147986Y80263D01*
X141063Y80263D01*
G37*
%LPD*%
%LPC*%
G36*
X131094Y80263D02*
X131094Y80263D01*
X131289Y81243D01*
X131936Y82805D01*
X131941Y82813D01*
X132875Y84210D01*
X134070Y85405D01*
X135475Y86344D01*
X137037Y86991D01*
X138017Y87186D01*
X138017Y80263D01*
X131094Y80263D01*
G37*
%LPD*%
%LPC*%
G36*
X194723Y1020827D02*
X194723Y1020827D01*
X201646Y1020827D01*
X201451Y1019847D01*
X200804Y1018285D01*
X199865Y1016880D01*
X198670Y1015685D01*
X197265Y1014746D01*
X195703Y1014099D01*
X194723Y1013904D01*
X194723Y1020827D01*
G37*
%LPD*%
%LPC*%
G36*
X84073Y211997D02*
X84073Y211997D01*
X90996Y211997D01*
X90801Y211017D01*
X90154Y209455D01*
X89215Y208050D01*
X88020Y206855D01*
X86615Y205916D01*
X85053Y205269D01*
X84073Y205074D01*
X84073Y211997D01*
G37*
%LPD*%
%LPC*%
G36*
X184754Y1023873D02*
X184754Y1023873D01*
X184949Y1024853D01*
X185596Y1026415D01*
X186535Y1027820D01*
X187730Y1029015D01*
X189135Y1029954D01*
X190697Y1030601D01*
X191677Y1030796D01*
X191677Y1023873D01*
X184754Y1023873D01*
G37*
%LPD*%
%LPC*%
G36*
X513333Y122777D02*
X513333Y122777D01*
X520256Y122777D01*
X520061Y121797D01*
X519414Y120235D01*
X518475Y118830D01*
X517280Y117635D01*
X515875Y116696D01*
X514313Y116049D01*
X513333Y115854D01*
X513333Y122777D01*
G37*
%LPD*%
%LPC*%
G36*
X85343Y125637D02*
X85343Y125637D01*
X92266Y125637D01*
X92071Y124657D01*
X91424Y123095D01*
X90485Y121690D01*
X89290Y120495D01*
X87885Y119556D01*
X86323Y118909D01*
X85343Y118714D01*
X85343Y125637D01*
G37*
%LPD*%
%LPC*%
G36*
X503364Y227423D02*
X503364Y227423D01*
X503559Y228403D01*
X504206Y229965D01*
X505145Y231370D01*
X506340Y232565D01*
X507745Y233504D01*
X509307Y234151D01*
X510287Y234346D01*
X510287Y227423D01*
X503364Y227423D01*
G37*
%LPD*%
%LPC*%
G36*
X503364Y125823D02*
X503364Y125823D01*
X503559Y126803D01*
X504206Y128365D01*
X505145Y129770D01*
X506340Y130965D01*
X507745Y131904D01*
X509307Y132551D01*
X510287Y132746D01*
X510287Y125823D01*
X503364Y125823D01*
G37*
%LPD*%
%LPC*%
G36*
X513333Y224377D02*
X513333Y224377D01*
X520256Y224377D01*
X520061Y223397D01*
X519414Y221835D01*
X518475Y220430D01*
X517280Y219235D01*
X515875Y218296D01*
X514313Y217649D01*
X513333Y217454D01*
X513333Y224377D01*
G37*
%LPD*%
%LPC*%
G36*
X74104Y215043D02*
X74104Y215043D01*
X74299Y216023D01*
X74946Y217585D01*
X75885Y218990D01*
X77080Y220185D01*
X78485Y221124D01*
X80047Y221771D01*
X81027Y221966D01*
X81027Y215043D01*
X74104Y215043D01*
G37*
%LPD*%
%LPC*%
G36*
X75374Y128683D02*
X75374Y128683D01*
X75569Y129663D01*
X76216Y131225D01*
X77155Y132630D01*
X78350Y133825D01*
X79755Y134764D01*
X81317Y135411D01*
X82297Y135606D01*
X82297Y128683D01*
X75374Y128683D01*
G37*
%LPD*%
%LPC*%
G36*
X141063Y77217D02*
X141063Y77217D01*
X147986Y77217D01*
X147791Y76237D01*
X147144Y74675D01*
X146205Y73270D01*
X145010Y72075D01*
X143605Y71136D01*
X142043Y70489D01*
X141063Y70294D01*
X141063Y77217D01*
G37*
%LPD*%
%LPC*%
G36*
X190697Y1014099D02*
X190697Y1014099D01*
X189135Y1014746D01*
X187730Y1015685D01*
X186535Y1016880D01*
X185596Y1018285D01*
X184949Y1019847D01*
X184754Y1020827D01*
X191677Y1020827D01*
X191677Y1013904D01*
X190697Y1014099D01*
G37*
%LPD*%
%LPC*%
G36*
X80047Y205269D02*
X80047Y205269D01*
X78485Y205916D01*
X77080Y206855D01*
X75885Y208050D01*
X74946Y209455D01*
X74299Y211017D01*
X74104Y211997D01*
X81027Y211997D01*
X81027Y205074D01*
X80047Y205269D01*
G37*
%LPD*%
%LPC*%
G36*
X509307Y116049D02*
X509307Y116049D01*
X507745Y116696D01*
X506340Y117635D01*
X505145Y118830D01*
X504206Y120235D01*
X503559Y121797D01*
X503364Y122777D01*
X510287Y122777D01*
X510287Y115854D01*
X509307Y116049D01*
G37*
%LPD*%
%LPC*%
G36*
X81317Y118909D02*
X81317Y118909D01*
X79755Y119556D01*
X78350Y120495D01*
X77155Y121690D01*
X76216Y123095D01*
X75569Y124657D01*
X75374Y125637D01*
X82297Y125637D01*
X82297Y118714D01*
X81317Y118909D01*
G37*
%LPD*%
%LPC*%
G36*
X509307Y217649D02*
X509307Y217649D01*
X507745Y218296D01*
X506340Y219235D01*
X505145Y220430D01*
X504206Y221835D01*
X503559Y223397D01*
X503364Y224377D01*
X510287Y224377D01*
X510287Y217454D01*
X509307Y217649D01*
G37*
%LPD*%
%LPC*%
G36*
X137037Y70489D02*
X137037Y70489D01*
X135475Y71136D01*
X134070Y72075D01*
X132875Y73270D01*
X131936Y74675D01*
X131289Y76237D01*
X131094Y77217D01*
X138017Y77217D01*
X138017Y70294D01*
X137037Y70489D01*
G37*
%LPD*%
%LPC*%
G36*
X425249Y306299D02*
X425249Y306299D01*
X425249Y312741D01*
X426107Y312570D01*
X427578Y311961D01*
X428901Y311077D01*
X430027Y309951D01*
X430911Y308628D01*
X431520Y307157D01*
X431691Y306299D01*
X425249Y306299D01*
G37*
%LPD*%
%LPC*%
G36*
X175249Y306299D02*
X175249Y306299D01*
X175249Y312741D01*
X176107Y312570D01*
X177578Y311961D01*
X178901Y311077D01*
X180027Y309951D01*
X180911Y308628D01*
X181520Y307157D01*
X181691Y306299D01*
X175249Y306299D01*
G37*
%LPD*%
%LPC*%
G36*
X175249Y303301D02*
X175249Y303301D01*
X181691Y303301D01*
X181520Y302443D01*
X180911Y300972D01*
X180027Y299649D01*
X178901Y298523D01*
X177578Y297639D01*
X176107Y297030D01*
X175249Y296859D01*
X175249Y303301D01*
G37*
%LPD*%
%LPC*%
G36*
X165809Y306299D02*
X165809Y306299D01*
X165980Y307157D01*
X166589Y308628D01*
X167473Y309951D01*
X168599Y311077D01*
X169922Y311961D01*
X171393Y312570D01*
X172251Y312741D01*
X172251Y306299D01*
X165809Y306299D01*
G37*
%LPD*%
%LPC*%
G36*
X425249Y303301D02*
X425249Y303301D01*
X431691Y303301D01*
X431520Y302443D01*
X430911Y300972D01*
X430027Y299649D01*
X428901Y298523D01*
X427578Y297639D01*
X426107Y297030D01*
X425249Y296859D01*
X425249Y303301D01*
G37*
%LPD*%
%LPC*%
G36*
X415809Y306299D02*
X415809Y306299D01*
X415980Y307157D01*
X416589Y308628D01*
X417473Y309951D01*
X418599Y311077D01*
X419922Y311961D01*
X421393Y312570D01*
X422251Y312741D01*
X422251Y306299D01*
X415809Y306299D01*
G37*
%LPD*%
%LPC*%
G36*
X171393Y297030D02*
X171393Y297030D01*
X169922Y297639D01*
X168599Y298523D01*
X167473Y299649D01*
X166589Y300972D01*
X165980Y302443D01*
X165809Y303301D01*
X172251Y303301D01*
X172251Y296859D01*
X171393Y297030D01*
G37*
%LPD*%
%LPC*%
G36*
X421393Y297030D02*
X421393Y297030D01*
X419922Y297639D01*
X418599Y298523D01*
X417473Y299649D01*
X416589Y300972D01*
X415980Y302443D01*
X415809Y303301D01*
X422251Y303301D01*
X422251Y296859D01*
X421393Y297030D01*
G37*
%LPD*%
%LPC*%
G36*
X114299Y696629D02*
X114299Y696629D01*
X114299Y696631D01*
X114301Y696631D01*
X114301Y696629D01*
X114299Y696629D01*
G37*
%LPD*%
%LPC*%
G36*
X482599Y597499D02*
X482599Y597499D01*
X482599Y597501D01*
X482601Y597501D01*
X482601Y597499D01*
X482599Y597499D01*
G37*
%LPD*%
%LPC*%
G36*
X511809Y124299D02*
X511809Y124299D01*
X511809Y124301D01*
X511811Y124301D01*
X511811Y124299D01*
X511809Y124299D01*
G37*
%LPD*%
%LPC*%
G36*
X482599Y445099D02*
X482599Y445099D01*
X482599Y445101D01*
X482601Y445101D01*
X482601Y445099D01*
X482599Y445099D01*
G37*
%LPD*%
%LPC*%
G36*
X113029Y393099D02*
X113029Y393099D01*
X113029Y393101D01*
X113031Y393101D01*
X113031Y393099D01*
X113029Y393099D01*
G37*
%LPD*%
%LPC*%
G36*
X193199Y1022349D02*
X193199Y1022349D01*
X193199Y1022351D01*
X193201Y1022351D01*
X193201Y1022349D01*
X193199Y1022349D01*
G37*
%LPD*%
%LPC*%
G36*
X482599Y292699D02*
X482599Y292699D01*
X482599Y292701D01*
X482601Y292701D01*
X482601Y292699D01*
X482599Y292699D01*
G37*
%LPD*%
%LPC*%
G36*
X381669Y991869D02*
X381669Y991869D01*
X381669Y991871D01*
X381671Y991871D01*
X381671Y991869D01*
X381669Y991869D01*
G37*
%LPD*%
%LPC*%
G36*
X82549Y839469D02*
X82549Y839469D01*
X82549Y839471D01*
X82551Y839471D01*
X82551Y839469D01*
X82549Y839469D01*
G37*
%LPD*%
%LPC*%
G36*
X215229Y107949D02*
X215229Y107949D01*
X215229Y107951D01*
X215231Y107951D01*
X215231Y107949D01*
X215229Y107949D01*
G37*
%LPD*%
%LPC*%
G36*
X83819Y763269D02*
X83819Y763269D01*
X83819Y763271D01*
X83821Y763271D01*
X83821Y763269D01*
X83819Y763269D01*
G37*
%LPD*%
%LPC*%
G36*
X397509Y932179D02*
X397509Y932179D01*
X397509Y932181D01*
X397511Y932181D01*
X397511Y932179D01*
X397509Y932179D01*
G37*
%LPD*%
%LPC*%
G36*
X82549Y213519D02*
X82549Y213519D01*
X82549Y213521D01*
X82551Y213521D01*
X82551Y213519D01*
X82549Y213519D01*
G37*
%LPD*%
%LPC*%
G36*
X83819Y914399D02*
X83819Y914399D01*
X83819Y914401D01*
X83821Y914401D01*
X83821Y914399D01*
X83819Y914399D01*
G37*
%LPD*%
%LPC*%
G36*
X139539Y78739D02*
X139539Y78739D01*
X139539Y78741D01*
X139541Y78741D01*
X139541Y78739D01*
X139539Y78739D01*
G37*
%LPD*%
%LPC*%
G36*
X114299Y545499D02*
X114299Y545499D01*
X114299Y545501D01*
X114301Y545501D01*
X114301Y545499D01*
X114299Y545499D01*
G37*
%LPD*%
%LPC*%
G36*
X83819Y127159D02*
X83819Y127159D01*
X83819Y127161D01*
X83821Y127161D01*
X83821Y127159D01*
X83819Y127159D01*
G37*
%LPD*%
%LPC*%
G36*
X511809Y225899D02*
X511809Y225899D01*
X511809Y225901D01*
X511811Y225901D01*
X511811Y225899D01*
X511809Y225899D01*
G37*
%LPD*%
D10*
X511810Y205900D03*
D11*
X511810Y225900D03*
D12*
X482600Y597500D03*
D13*
X482600Y622500D03*
X482600Y647500D03*
X482600Y672500D03*
D12*
X114300Y545500D03*
D13*
X114300Y520500D03*
X114300Y495500D03*
X114300Y470500D03*
D12*
X482600Y445100D03*
D13*
X482600Y470100D03*
X482600Y495100D03*
X482600Y520100D03*
D12*
X113030Y393100D03*
D13*
X113030Y368100D03*
X113030Y343100D03*
X113030Y318100D03*
D12*
X482600Y292700D03*
D13*
X482600Y317700D03*
X482600Y342700D03*
X482600Y367700D03*
D10*
X82550Y233520D03*
D11*
X82550Y213520D03*
D10*
X83820Y147160D03*
D11*
X83820Y127160D03*
D10*
X511810Y104300D03*
D11*
X511810Y124300D03*
D10*
X213200Y1022350D03*
D11*
X193200Y1022350D03*
D10*
X119540Y78740D03*
D11*
X139540Y78740D03*
D12*
X381670Y991870D03*
D13*
X356670Y991870D03*
X331670Y991870D03*
X306670Y991870D03*
D12*
X215230Y107950D03*
D13*
X240230Y107950D03*
X265230Y107950D03*
X290230Y107950D03*
D12*
X114300Y696630D03*
D13*
X114300Y671630D03*
X114300Y646630D03*
X114300Y621630D03*
D14*
X58420Y763270D03*
X83820Y763270D03*
X58420Y914400D03*
X83820Y914400D03*
X57150Y839470D03*
X82550Y839470D03*
D15*
X314960Y233680D03*
X416560Y233680D03*
D16*
X278130Y233680D03*
X176530Y233680D03*
X363220Y400050D03*
X261620Y400050D03*
X363220Y496570D03*
X261620Y496570D03*
X363220Y448310D03*
X261620Y448310D03*
D17*
X173750Y635000D03*
X423750Y635000D03*
D18*
X173750Y609600D03*
X173750Y584200D03*
X173750Y558800D03*
X173750Y533400D03*
X173750Y508000D03*
X173750Y482600D03*
X173750Y457200D03*
X173750Y431800D03*
X173750Y406400D03*
X173750Y381000D03*
X173750Y355600D03*
X173750Y330200D03*
X173750Y304800D03*
X173750Y279400D03*
X423750Y609600D03*
X423750Y584200D03*
X423750Y558800D03*
X423750Y533400D03*
X423750Y508000D03*
X423750Y482600D03*
X423750Y457200D03*
X423750Y431800D03*
X423750Y406400D03*
X423750Y381000D03*
X423750Y355600D03*
X423750Y330200D03*
X423750Y304800D03*
X423750Y279400D03*
D19*
X422910Y932180D03*
X397510Y932180D03*
X372110Y932180D03*
X346710Y932180D03*
X321310Y932180D03*
X295910Y932180D03*
X270510Y932180D03*
X245110Y932180D03*
X219710Y932180D03*
X194310Y932180D03*
X168910Y932180D03*
X143510Y932180D03*
X143510Y779780D03*
X168910Y779780D03*
X194310Y779780D03*
X219710Y779780D03*
X245110Y779780D03*
X270510Y779780D03*
X295910Y779780D03*
X321310Y779780D03*
X346710Y779780D03*
X372110Y779780D03*
X397510Y779780D03*
X422910Y779780D03*
D20*
X410210Y855980D03*
X156210Y855980D03*
D21*
X270510Y919480D02*
X270510Y932180D01*
X270510Y919480D02*
X311150Y878840D01*
X420370Y878840D01*
X542290Y756920D01*
X542290Y161290D01*
X48260Y219710D02*
X48260Y415290D01*
X59690Y426720D01*
X159780Y426720D02*
X173750Y412750D01*
X173750Y406400D01*
X159780Y426720D02*
X59690Y426720D01*
X48260Y219710D02*
X125516Y142454D01*
X523454Y142454D01*
X542290Y161290D01*
X245110Y830580D02*
X245110Y932180D01*
X276860Y798830D02*
X462280Y798830D01*
X537210Y723900D01*
X537210Y161949D02*
X522581Y147320D01*
X127000Y147320D01*
X53340Y220980D01*
X53340Y414020D02*
X60960Y421640D01*
X144540Y421640D01*
X173750Y392430D02*
X173750Y381000D01*
X173750Y392430D02*
X144540Y421640D01*
X276860Y798830D02*
X245110Y830580D01*
X537210Y723900D02*
X537210Y161949D01*
X53340Y220980D02*
X53340Y414020D01*
X334010Y883920D02*
X295910Y922020D01*
X295910Y932180D01*
X334010Y883920D02*
X421640Y883920D01*
X547370Y758190D01*
X547370Y160020D01*
X525780Y138430D01*
X43180Y218440D02*
X43180Y416560D01*
X58420Y431800D01*
X173750Y431800D01*
X123190Y138430D02*
X525780Y138430D01*
X123190Y138430D02*
X43180Y218440D01*
X168910Y932180D02*
X168910Y942340D01*
X148590Y962660D01*
X53340Y962660D02*
X33020Y942340D01*
X33020Y138430D01*
X265230Y107950D02*
X265230Y62030D01*
X148590Y962660D02*
X53340Y962660D01*
X33020Y138430D02*
X132080Y39370D01*
X242570Y39370D01*
X265230Y62030D01*
X143510Y932180D02*
X143510Y944880D01*
X130810Y957580D01*
X54610Y957580D01*
X38100Y941070D01*
X38100Y140970D02*
X134620Y44450D01*
X195580Y44450D01*
X200660Y49530D01*
X200660Y118110D02*
X208280Y125730D01*
X285750Y125730D01*
X290830Y120650D01*
X290830Y108550D01*
X290230Y107950D01*
X38100Y140970D02*
X38100Y941070D01*
X200660Y118110D02*
X200660Y49530D01*
X143510Y779780D02*
X132080Y779780D01*
X114300Y646630D02*
X101400Y646630D01*
X96520Y744220D02*
X132080Y779780D01*
X96520Y744220D02*
X96520Y651510D01*
X101400Y646630D01*
X168910Y767080D02*
X168910Y779780D01*
X127600Y621630D02*
X114300Y621630D01*
X130810Y728980D02*
X168910Y767080D01*
X130810Y728980D02*
X130810Y624840D01*
X127600Y621630D01*
X194310Y753110D02*
X194310Y779780D01*
X194310Y753110D02*
X299920Y647500D01*
X482600Y647500D01*
X482600Y672500D02*
X281270Y672500D01*
X219710Y734060D02*
X219710Y779780D01*
X219710Y734060D02*
X281270Y672500D01*
X114300Y495500D02*
X56950Y495500D01*
X43180Y509270D01*
X43180Y769620D01*
X74930Y801370D01*
X267970Y801370D01*
X283210Y769620D02*
X279400Y765810D01*
X247650Y765810D01*
X245110Y768350D01*
X245110Y779780D01*
X267970Y801370D02*
X283210Y786130D01*
X283210Y769620D01*
X126330Y470500D02*
X114300Y470500D01*
X126330Y470500D02*
X129540Y473710D01*
X129540Y563880D01*
X125730Y567690D02*
X59690Y567690D01*
X48474Y578906D01*
X48474Y768350D01*
X76414Y796290D01*
X270510Y791210D02*
X270510Y779780D01*
X125730Y567690D02*
X129540Y563880D01*
X76414Y796290D02*
X265430Y796290D01*
X270510Y791210D01*
X473710Y495100D02*
X482600Y495100D01*
X473710Y495100D02*
X469900Y498910D01*
X496570Y577850D02*
X496570Y675640D01*
X487680Y684530D01*
X295910Y756920D02*
X295910Y779780D01*
X469900Y551180D02*
X469900Y498910D01*
X469900Y551180D02*
X496570Y577850D01*
X487680Y684530D02*
X368300Y684530D01*
X295910Y756920D01*
X482600Y556930D02*
X501650Y575980D01*
X482600Y556930D02*
X482600Y520100D01*
X501650Y575980D02*
X501650Y676910D01*
X488950Y689610D01*
X321310Y737870D02*
X321310Y779780D01*
X369570Y689610D02*
X488950Y689610D01*
X369570Y689610D02*
X321310Y737870D01*
X124260Y343100D02*
X113030Y343100D01*
X127000Y340360D02*
X127000Y160020D01*
X129540Y157480D01*
X518160Y157480D01*
X527050Y166370D01*
X483870Y764540D02*
X350520Y764540D01*
X346710Y768350D01*
X346710Y779780D01*
X124260Y343100D02*
X127000Y340360D01*
X527050Y166370D02*
X527050Y721360D01*
X483870Y764540D01*
X113030Y318100D02*
X113030Y167640D01*
X520700Y152400D02*
X532130Y163830D01*
X532130Y722630D01*
X461010Y793750D01*
X382270Y793750D01*
X372110Y783590D01*
X372110Y779780D01*
X113030Y167640D02*
X128270Y152400D01*
X520700Y152400D01*
M02*
