G04 EAGLE Gerber RS-274X export*
G75*
%MOMM*%
%FSLAX34Y34*%
%LPD*%
%INBottom Copper*%
%IPPOS*%
%AMOC8*
5,1,8,0,0,1.08239X$1,22.5*%
G01*
%ADD10C,1.524000*%
%ADD11C,1.524000*%
%ADD12R,1.600000X2.000000*%
%ADD13C,1.397000*%
%ADD14C,1.016000*%

G36*
X550155Y-905070D02*
X550155Y-905070D01*
X550310Y-905070D01*
X550472Y-905050D01*
X550636Y-905039D01*
X550788Y-905010D01*
X550942Y-904991D01*
X551101Y-904951D01*
X551262Y-904920D01*
X551409Y-904872D01*
X551559Y-904834D01*
X551712Y-904774D01*
X551868Y-904723D01*
X552008Y-904658D01*
X552152Y-904601D01*
X552296Y-904522D01*
X552444Y-904452D01*
X552575Y-904370D01*
X552711Y-904295D01*
X552844Y-904199D01*
X552983Y-904111D01*
X553102Y-904013D01*
X553228Y-903922D01*
X553347Y-903810D01*
X553474Y-903706D01*
X553580Y-903593D01*
X553693Y-903487D01*
X553798Y-903361D01*
X553910Y-903242D01*
X554002Y-903116D01*
X554101Y-902997D01*
X554189Y-902859D01*
X554285Y-902727D01*
X554360Y-902591D01*
X554444Y-902460D01*
X554514Y-902312D01*
X554593Y-902169D01*
X554650Y-902025D01*
X554717Y-901885D01*
X554768Y-901729D01*
X554828Y-901576D01*
X554867Y-901426D01*
X554916Y-901279D01*
X554947Y-901118D01*
X554988Y-900960D01*
X555007Y-900806D01*
X555037Y-900654D01*
X555047Y-900495D01*
X555069Y-900328D01*
X555069Y-900159D01*
X555079Y-900000D01*
X555079Y0D01*
X555070Y155D01*
X555070Y310D01*
X555050Y472D01*
X555039Y636D01*
X555010Y788D01*
X554991Y942D01*
X554951Y1101D01*
X554920Y1262D01*
X554872Y1409D01*
X554834Y1559D01*
X554774Y1712D01*
X554723Y1868D01*
X554658Y2008D01*
X554601Y2152D01*
X554522Y2296D01*
X554452Y2444D01*
X554370Y2575D01*
X554295Y2711D01*
X554199Y2844D01*
X554111Y2983D01*
X554013Y3102D01*
X553922Y3228D01*
X553810Y3347D01*
X553706Y3474D01*
X553593Y3580D01*
X553487Y3693D01*
X553361Y3798D01*
X553242Y3910D01*
X553116Y4002D01*
X552997Y4101D01*
X552859Y4189D01*
X552727Y4285D01*
X552591Y4360D01*
X552460Y4444D01*
X552312Y4514D01*
X552169Y4593D01*
X552025Y4650D01*
X551885Y4717D01*
X551729Y4768D01*
X551576Y4828D01*
X551426Y4867D01*
X551279Y4916D01*
X551118Y4947D01*
X550960Y4988D01*
X550806Y5007D01*
X550654Y5037D01*
X550495Y5047D01*
X550328Y5069D01*
X550159Y5069D01*
X550000Y5079D01*
X0Y5079D01*
X-155Y5070D01*
X-310Y5070D01*
X-472Y5050D01*
X-636Y5039D01*
X-788Y5010D01*
X-942Y4991D01*
X-1101Y4951D01*
X-1262Y4920D01*
X-1409Y4872D01*
X-1559Y4834D01*
X-1712Y4774D01*
X-1868Y4723D01*
X-2008Y4658D01*
X-2152Y4601D01*
X-2296Y4522D01*
X-2444Y4452D01*
X-2575Y4370D01*
X-2711Y4295D01*
X-2844Y4199D01*
X-2983Y4111D01*
X-3102Y4013D01*
X-3228Y3922D01*
X-3347Y3810D01*
X-3474Y3706D01*
X-3580Y3593D01*
X-3693Y3487D01*
X-3798Y3361D01*
X-3910Y3242D01*
X-4002Y3116D01*
X-4101Y2997D01*
X-4189Y2859D01*
X-4285Y2727D01*
X-4360Y2591D01*
X-4444Y2460D01*
X-4514Y2312D01*
X-4593Y2169D01*
X-4650Y2025D01*
X-4717Y1885D01*
X-4768Y1729D01*
X-4828Y1576D01*
X-4867Y1426D01*
X-4916Y1279D01*
X-4947Y1118D01*
X-4988Y960D01*
X-5007Y806D01*
X-5037Y654D01*
X-5047Y495D01*
X-5069Y328D01*
X-5069Y159D01*
X-5079Y0D01*
X-5079Y-900000D01*
X-5070Y-900155D01*
X-5070Y-900310D01*
X-5050Y-900472D01*
X-5039Y-900636D01*
X-5010Y-900788D01*
X-4991Y-900942D01*
X-4951Y-901101D01*
X-4920Y-901262D01*
X-4872Y-901409D01*
X-4834Y-901559D01*
X-4774Y-901712D01*
X-4723Y-901868D01*
X-4658Y-902008D01*
X-4601Y-902152D01*
X-4522Y-902296D01*
X-4452Y-902444D01*
X-4370Y-902575D01*
X-4295Y-902711D01*
X-4199Y-902844D01*
X-4111Y-902983D01*
X-4013Y-903102D01*
X-3922Y-903228D01*
X-3810Y-903347D01*
X-3706Y-903474D01*
X-3593Y-903580D01*
X-3487Y-903693D01*
X-3361Y-903798D01*
X-3242Y-903910D01*
X-3116Y-904002D01*
X-2997Y-904101D01*
X-2859Y-904189D01*
X-2727Y-904285D01*
X-2591Y-904360D01*
X-2460Y-904444D01*
X-2312Y-904514D01*
X-2169Y-904593D01*
X-2025Y-904650D01*
X-1885Y-904717D01*
X-1729Y-904768D01*
X-1576Y-904828D01*
X-1426Y-904867D01*
X-1279Y-904916D01*
X-1118Y-904947D01*
X-960Y-904988D01*
X-806Y-905007D01*
X-654Y-905037D01*
X-495Y-905047D01*
X-328Y-905069D01*
X-159Y-905069D01*
X0Y-905079D01*
X550000Y-905079D01*
X550155Y-905070D01*
G37*
%LPC*%
G36*
X240947Y-861917D02*
X240947Y-861917D01*
X238706Y-860989D01*
X236603Y-858885D01*
X236576Y-858848D01*
X236437Y-858699D01*
X236304Y-858543D01*
X236220Y-858466D01*
X236142Y-858383D01*
X235984Y-858252D01*
X235833Y-858114D01*
X235740Y-858048D01*
X235652Y-857975D01*
X235479Y-857865D01*
X235312Y-857747D01*
X235211Y-857694D01*
X235115Y-857632D01*
X234930Y-857545D01*
X234749Y-857449D01*
X234643Y-857408D01*
X234539Y-857359D01*
X234344Y-857295D01*
X234154Y-857223D01*
X234042Y-857196D01*
X233934Y-857160D01*
X233733Y-857121D01*
X233534Y-857073D01*
X233421Y-857061D01*
X233308Y-857039D01*
X233112Y-857026D01*
X232901Y-857003D01*
X232775Y-857004D01*
X232655Y-856997D01*
X142557Y-856997D01*
X138449Y-855295D01*
X79425Y-796271D01*
X77723Y-792163D01*
X77723Y-650557D01*
X79425Y-646449D01*
X131206Y-594668D01*
X131308Y-594551D01*
X131418Y-594442D01*
X131519Y-594313D01*
X131627Y-594190D01*
X131714Y-594062D01*
X131810Y-593939D01*
X131894Y-593798D01*
X131986Y-593663D01*
X132056Y-593525D01*
X132135Y-593392D01*
X132201Y-593241D01*
X132275Y-593095D01*
X132328Y-592949D01*
X132390Y-592807D01*
X132436Y-592650D01*
X132491Y-592496D01*
X132525Y-592345D01*
X132569Y-592196D01*
X132595Y-592034D01*
X132631Y-591874D01*
X132645Y-591720D01*
X132670Y-591567D01*
X132676Y-591403D01*
X132691Y-591240D01*
X132686Y-591085D01*
X132692Y-590930D01*
X132677Y-590767D01*
X132672Y-590603D01*
X132648Y-590450D01*
X132633Y-590296D01*
X132598Y-590135D01*
X132573Y-589974D01*
X132530Y-589825D01*
X132496Y-589674D01*
X132441Y-589519D01*
X132396Y-589362D01*
X132334Y-589219D01*
X132282Y-589073D01*
X132208Y-588927D01*
X132143Y-588777D01*
X132065Y-588643D01*
X131995Y-588505D01*
X131903Y-588369D01*
X131820Y-588228D01*
X131725Y-588105D01*
X131639Y-587977D01*
X131533Y-587857D01*
X131430Y-587724D01*
X131311Y-587604D01*
X131206Y-587484D01*
X130612Y-586890D01*
X128523Y-581848D01*
X128523Y-576392D01*
X130612Y-571350D01*
X134470Y-567492D01*
X139512Y-565403D01*
X160208Y-565403D01*
X165407Y-567557D01*
X165437Y-567567D01*
X165466Y-567581D01*
X165739Y-567670D01*
X166010Y-567763D01*
X166041Y-567770D01*
X166072Y-567780D01*
X166353Y-567834D01*
X166634Y-567892D01*
X166666Y-567895D01*
X166697Y-567901D01*
X166948Y-567917D01*
X167269Y-567943D01*
X167311Y-567941D01*
X167351Y-567943D01*
X202883Y-567943D01*
X206991Y-569645D01*
X216502Y-579156D01*
X216557Y-579204D01*
X216606Y-579257D01*
X216796Y-579415D01*
X216980Y-579577D01*
X217040Y-579618D01*
X217096Y-579665D01*
X217303Y-579797D01*
X217507Y-579935D01*
X217572Y-579968D01*
X217633Y-580008D01*
X217855Y-580113D01*
X218074Y-580225D01*
X218143Y-580249D01*
X218209Y-580281D01*
X218443Y-580357D01*
X218674Y-580441D01*
X218745Y-580457D01*
X218814Y-580480D01*
X219055Y-580526D01*
X219295Y-580580D01*
X219368Y-580587D01*
X219440Y-580601D01*
X219671Y-580616D01*
X219930Y-580641D01*
X220013Y-580638D01*
X220093Y-580643D01*
X224915Y-580643D01*
X225151Y-580628D01*
X225388Y-580621D01*
X225469Y-580608D01*
X225550Y-580603D01*
X225783Y-580559D01*
X226017Y-580522D01*
X226096Y-580499D01*
X226176Y-580484D01*
X226401Y-580411D01*
X226629Y-580345D01*
X226704Y-580313D01*
X226782Y-580287D01*
X226997Y-580187D01*
X227214Y-580093D01*
X227285Y-580051D01*
X227359Y-580016D01*
X227559Y-579890D01*
X227763Y-579769D01*
X227828Y-579719D01*
X227897Y-579675D01*
X228080Y-579525D01*
X228267Y-579380D01*
X228325Y-579322D01*
X228388Y-579270D01*
X228550Y-579097D01*
X228718Y-578930D01*
X228769Y-578865D01*
X228825Y-578806D01*
X228964Y-578614D01*
X229110Y-578427D01*
X229152Y-578357D01*
X229200Y-578291D01*
X229314Y-578083D01*
X229435Y-577880D01*
X229468Y-577804D01*
X229508Y-577733D01*
X229595Y-577513D01*
X229690Y-577295D01*
X229713Y-577217D01*
X229743Y-577140D01*
X229802Y-576911D01*
X229869Y-576684D01*
X229882Y-576603D01*
X229902Y-576524D01*
X229932Y-576289D01*
X229970Y-576055D01*
X229973Y-575973D01*
X229983Y-575892D01*
X229984Y-575655D01*
X229992Y-575418D01*
X229984Y-575337D01*
X229984Y-575254D01*
X229955Y-575019D01*
X229934Y-574784D01*
X229916Y-574704D01*
X229906Y-574622D01*
X229847Y-574392D01*
X229796Y-574162D01*
X229769Y-574084D01*
X229749Y-574005D01*
X229662Y-573784D01*
X229582Y-573561D01*
X229545Y-573488D01*
X229515Y-573412D01*
X229401Y-573203D01*
X229295Y-572993D01*
X229249Y-572925D01*
X229210Y-572853D01*
X229071Y-572661D01*
X228939Y-572465D01*
X228885Y-572404D01*
X228837Y-572336D01*
X228659Y-572146D01*
X228506Y-571972D01*
X174970Y-518436D01*
X174851Y-518331D01*
X174738Y-518219D01*
X174612Y-518120D01*
X174492Y-518015D01*
X174361Y-517925D01*
X174235Y-517828D01*
X174097Y-517746D01*
X173965Y-517656D01*
X173824Y-517584D01*
X173687Y-517503D01*
X173540Y-517440D01*
X173397Y-517367D01*
X173248Y-517313D01*
X173102Y-517250D01*
X172949Y-517205D01*
X172798Y-517151D01*
X172643Y-517116D01*
X172491Y-517072D01*
X172333Y-517046D01*
X172176Y-517011D01*
X172018Y-516996D01*
X171861Y-516971D01*
X171701Y-516966D01*
X171542Y-516951D01*
X171383Y-516956D01*
X171225Y-516951D01*
X171065Y-516965D01*
X170905Y-516970D01*
X170748Y-516995D01*
X170590Y-517010D01*
X170434Y-517044D01*
X170276Y-517069D01*
X170123Y-517113D01*
X169968Y-517148D01*
X169818Y-517202D01*
X169664Y-517246D01*
X169518Y-517309D01*
X169368Y-517363D01*
X169226Y-517435D01*
X169079Y-517499D01*
X168942Y-517579D01*
X168800Y-517651D01*
X168668Y-517741D01*
X168530Y-517822D01*
X168404Y-517919D01*
X168273Y-518008D01*
X168152Y-518114D01*
X168026Y-518212D01*
X167913Y-518324D01*
X167794Y-518428D01*
X167688Y-518548D01*
X167574Y-518661D01*
X167477Y-518787D01*
X167372Y-518905D01*
X167281Y-519038D01*
X167183Y-519164D01*
X167102Y-519301D01*
X167012Y-519432D01*
X166939Y-519574D01*
X166857Y-519712D01*
X166794Y-519857D01*
X166722Y-519999D01*
X166667Y-520149D01*
X166603Y-520296D01*
X166558Y-520448D01*
X166504Y-520598D01*
X166469Y-520754D01*
X166424Y-520907D01*
X166399Y-521064D01*
X166364Y-521219D01*
X166348Y-521378D01*
X166323Y-521537D01*
X166317Y-521695D01*
X166302Y-521853D01*
X166306Y-522013D01*
X166301Y-522173D01*
X166315Y-522331D01*
X166320Y-522490D01*
X166344Y-522648D01*
X166359Y-522808D01*
X166393Y-522963D01*
X166418Y-523120D01*
X166452Y-523241D01*
X149860Y-523241D01*
X133424Y-523241D01*
X133550Y-522995D01*
X134504Y-521681D01*
X134567Y-521610D01*
X134677Y-521500D01*
X134778Y-521371D01*
X134886Y-521248D01*
X134973Y-521120D01*
X135068Y-520998D01*
X135152Y-520857D01*
X135244Y-520722D01*
X135314Y-520583D01*
X135394Y-520450D01*
X135459Y-520300D01*
X135533Y-520154D01*
X135586Y-520008D01*
X135648Y-519866D01*
X135694Y-519709D01*
X135750Y-519555D01*
X135784Y-519403D01*
X135827Y-519254D01*
X135853Y-519093D01*
X135889Y-518933D01*
X135904Y-518779D01*
X135928Y-518625D01*
X135934Y-518462D01*
X135950Y-518299D01*
X135945Y-518144D01*
X135950Y-517989D01*
X135935Y-517826D01*
X135930Y-517662D01*
X135906Y-517509D01*
X135892Y-517354D01*
X135857Y-517194D01*
X135831Y-517032D01*
X135788Y-516884D01*
X135755Y-516732D01*
X135700Y-516578D01*
X135654Y-516420D01*
X135593Y-516278D01*
X135541Y-516132D01*
X135467Y-515986D01*
X135402Y-515835D01*
X135323Y-515702D01*
X135253Y-515563D01*
X135162Y-515428D01*
X135079Y-515286D01*
X134984Y-515164D01*
X134897Y-515035D01*
X134792Y-514915D01*
X134689Y-514782D01*
X134570Y-514663D01*
X134465Y-514543D01*
X130612Y-510690D01*
X128523Y-505648D01*
X128523Y-500192D01*
X130612Y-495150D01*
X131950Y-493812D01*
X132052Y-493695D01*
X132162Y-493586D01*
X132263Y-493457D01*
X132371Y-493334D01*
X132459Y-493206D01*
X132554Y-493083D01*
X132637Y-492942D01*
X132730Y-492807D01*
X132800Y-492669D01*
X132879Y-492536D01*
X132945Y-492385D01*
X133019Y-492239D01*
X133072Y-492094D01*
X133134Y-491951D01*
X133180Y-491794D01*
X133235Y-491640D01*
X133269Y-491489D01*
X133313Y-491340D01*
X133339Y-491178D01*
X133375Y-491018D01*
X133389Y-490864D01*
X133414Y-490711D01*
X133420Y-490547D01*
X133435Y-490384D01*
X133430Y-490229D01*
X133436Y-490074D01*
X133421Y-489911D01*
X133416Y-489747D01*
X133392Y-489594D01*
X133377Y-489440D01*
X133342Y-489280D01*
X133317Y-489118D01*
X133274Y-488969D01*
X133240Y-488818D01*
X133185Y-488663D01*
X133140Y-488506D01*
X133078Y-488363D01*
X133026Y-488217D01*
X132952Y-488071D01*
X132887Y-487921D01*
X132809Y-487787D01*
X132739Y-487649D01*
X132647Y-487513D01*
X132564Y-487372D01*
X132469Y-487249D01*
X132383Y-487121D01*
X132277Y-487001D01*
X132174Y-486868D01*
X132055Y-486748D01*
X131950Y-486628D01*
X130612Y-485290D01*
X128523Y-480248D01*
X128523Y-474792D01*
X130376Y-470320D01*
X130439Y-470135D01*
X130511Y-469952D01*
X130542Y-469833D01*
X130582Y-469717D01*
X130622Y-469525D01*
X130671Y-469336D01*
X130686Y-469214D01*
X130711Y-469093D01*
X130727Y-468898D01*
X130752Y-468704D01*
X130752Y-468581D01*
X130762Y-468458D01*
X130752Y-468262D01*
X130753Y-468066D01*
X130738Y-467944D01*
X130732Y-467822D01*
X130698Y-467629D01*
X130674Y-467434D01*
X130644Y-467315D01*
X130623Y-467194D01*
X130565Y-467007D01*
X130517Y-466817D01*
X130472Y-466702D01*
X130436Y-466585D01*
X130356Y-466406D01*
X130284Y-466224D01*
X130225Y-466116D01*
X130174Y-466004D01*
X130072Y-465837D01*
X129978Y-465665D01*
X129906Y-465565D01*
X129842Y-465460D01*
X129720Y-465307D01*
X129605Y-465148D01*
X129521Y-465059D01*
X129444Y-464962D01*
X129304Y-464826D01*
X129170Y-464683D01*
X129076Y-464604D01*
X128987Y-464518D01*
X128831Y-464400D01*
X128680Y-464275D01*
X128577Y-464209D01*
X128478Y-464135D01*
X128308Y-464038D01*
X128143Y-463932D01*
X128032Y-463880D01*
X127925Y-463819D01*
X127745Y-463743D01*
X127568Y-463659D01*
X127451Y-463621D01*
X127337Y-463574D01*
X127148Y-463522D01*
X126962Y-463460D01*
X126842Y-463437D01*
X126723Y-463404D01*
X126529Y-463376D01*
X126337Y-463339D01*
X126217Y-463331D01*
X126092Y-463313D01*
X125880Y-463309D01*
X125683Y-463297D01*
X96837Y-463297D01*
X92729Y-461595D01*
X51485Y-420351D01*
X49783Y-416243D01*
X49783Y-348297D01*
X51485Y-344189D01*
X92729Y-302945D01*
X96837Y-301243D01*
X132369Y-301243D01*
X132401Y-301241D01*
X132433Y-301243D01*
X132719Y-301221D01*
X133005Y-301203D01*
X133036Y-301197D01*
X133068Y-301195D01*
X133350Y-301138D01*
X133631Y-301084D01*
X133661Y-301074D01*
X133693Y-301068D01*
X133931Y-300987D01*
X134237Y-300887D01*
X134275Y-300870D01*
X134313Y-300857D01*
X135548Y-300345D01*
X135650Y-300295D01*
X135756Y-300253D01*
X135936Y-300155D01*
X136120Y-300065D01*
X136215Y-300002D01*
X136315Y-299948D01*
X136481Y-299828D01*
X136652Y-299715D01*
X136739Y-299641D01*
X136832Y-299574D01*
X136981Y-299435D01*
X137137Y-299302D01*
X137214Y-299217D01*
X137297Y-299140D01*
X137428Y-298982D01*
X137566Y-298831D01*
X137632Y-298737D01*
X137705Y-298650D01*
X137815Y-298477D01*
X137933Y-298310D01*
X137986Y-298209D01*
X138048Y-298113D01*
X138135Y-297928D01*
X138231Y-297747D01*
X138272Y-297640D01*
X138321Y-297537D01*
X138385Y-297342D01*
X138457Y-297151D01*
X138484Y-297040D01*
X138520Y-296932D01*
X138559Y-296731D01*
X138607Y-296532D01*
X138619Y-296419D01*
X138641Y-296306D01*
X138654Y-296109D01*
X138677Y-295898D01*
X138675Y-295773D01*
X138683Y-295653D01*
X138683Y-259397D01*
X140385Y-255289D01*
X181629Y-214045D01*
X185737Y-212343D01*
X246634Y-212343D01*
X246789Y-212334D01*
X246944Y-212334D01*
X247106Y-212314D01*
X247270Y-212303D01*
X247422Y-212274D01*
X247576Y-212255D01*
X247735Y-212215D01*
X247896Y-212184D01*
X248043Y-212136D01*
X248193Y-212098D01*
X248346Y-212038D01*
X248502Y-211987D01*
X248642Y-211922D01*
X248786Y-211865D01*
X248930Y-211786D01*
X249078Y-211716D01*
X249209Y-211634D01*
X249345Y-211559D01*
X249478Y-211463D01*
X249617Y-211375D01*
X249736Y-211277D01*
X249862Y-211186D01*
X249981Y-211074D01*
X250108Y-210970D01*
X250214Y-210857D01*
X250327Y-210751D01*
X250432Y-210625D01*
X250544Y-210506D01*
X250636Y-210380D01*
X250735Y-210261D01*
X250823Y-210123D01*
X250919Y-209991D01*
X250994Y-209855D01*
X251078Y-209724D01*
X251148Y-209576D01*
X251227Y-209433D01*
X251284Y-209289D01*
X251351Y-209149D01*
X251402Y-208993D01*
X251462Y-208840D01*
X251474Y-208795D01*
X253705Y-203410D01*
X257385Y-199730D01*
X262193Y-197738D01*
X267397Y-197738D01*
X272205Y-199730D01*
X273903Y-201428D01*
X274020Y-201531D01*
X274129Y-201640D01*
X274258Y-201741D01*
X274381Y-201849D01*
X274509Y-201937D01*
X274632Y-202032D01*
X274773Y-202116D01*
X274908Y-202208D01*
X275046Y-202278D01*
X275179Y-202357D01*
X275330Y-202423D01*
X275476Y-202497D01*
X275621Y-202550D01*
X275764Y-202612D01*
X275921Y-202658D01*
X276075Y-202713D01*
X276226Y-202747D01*
X276375Y-202791D01*
X276537Y-202817D01*
X276697Y-202853D01*
X276851Y-202867D01*
X277004Y-202892D01*
X277168Y-202898D01*
X277331Y-202913D01*
X277486Y-202908D01*
X277641Y-202914D01*
X277804Y-202899D01*
X277968Y-202894D01*
X278121Y-202870D01*
X278275Y-202855D01*
X278435Y-202820D01*
X278597Y-202795D01*
X278746Y-202752D01*
X278897Y-202718D01*
X279052Y-202663D01*
X279209Y-202618D01*
X279352Y-202556D01*
X279498Y-202504D01*
X279644Y-202430D01*
X279794Y-202365D01*
X279928Y-202287D01*
X280066Y-202217D01*
X280202Y-202125D01*
X280343Y-202042D01*
X280466Y-201947D01*
X280594Y-201861D01*
X280714Y-201755D01*
X280847Y-201652D01*
X280967Y-201533D01*
X281087Y-201428D01*
X282785Y-199730D01*
X287593Y-197738D01*
X292797Y-197738D01*
X297605Y-199730D01*
X301818Y-203943D01*
X301934Y-204045D01*
X302044Y-204155D01*
X302173Y-204256D01*
X302296Y-204364D01*
X302424Y-204451D01*
X302546Y-204546D01*
X302687Y-204630D01*
X302823Y-204722D01*
X302961Y-204793D01*
X303094Y-204872D01*
X303244Y-204937D01*
X303390Y-205012D01*
X303536Y-205064D01*
X303678Y-205126D01*
X303836Y-205172D01*
X303990Y-205228D01*
X304141Y-205262D01*
X304290Y-205305D01*
X304451Y-205331D01*
X304611Y-205367D01*
X304766Y-205382D01*
X304919Y-205406D01*
X305082Y-205412D01*
X305246Y-205428D01*
X305400Y-205423D01*
X305555Y-205428D01*
X305719Y-205413D01*
X305882Y-205408D01*
X306036Y-205384D01*
X306190Y-205370D01*
X306350Y-205335D01*
X306512Y-205309D01*
X306661Y-205266D01*
X306812Y-205233D01*
X306966Y-205178D01*
X307124Y-205132D01*
X307266Y-205071D01*
X307412Y-205019D01*
X307558Y-204945D01*
X307709Y-204880D01*
X307843Y-204801D01*
X307981Y-204731D01*
X308116Y-204640D01*
X308258Y-204556D01*
X308380Y-204462D01*
X308509Y-204375D01*
X308629Y-204270D01*
X308762Y-204167D01*
X308881Y-204048D01*
X309001Y-203942D01*
X309389Y-203554D01*
X309911Y-203175D01*
X309912Y-203175D01*
X310516Y-202736D01*
X310516Y-210820D01*
X310516Y-222223D01*
X310405Y-222375D01*
X310259Y-222562D01*
X310217Y-222632D01*
X310169Y-222698D01*
X310055Y-222906D01*
X309934Y-223109D01*
X309901Y-223185D01*
X309861Y-223256D01*
X309774Y-223477D01*
X309679Y-223694D01*
X309656Y-223772D01*
X309626Y-223849D01*
X309567Y-224078D01*
X309500Y-224305D01*
X309487Y-224386D01*
X309467Y-224465D01*
X309437Y-224701D01*
X309399Y-224934D01*
X309396Y-225016D01*
X309386Y-225097D01*
X309385Y-225334D01*
X309377Y-225571D01*
X309385Y-225652D01*
X309385Y-225735D01*
X309414Y-225969D01*
X309435Y-226205D01*
X309453Y-226285D01*
X309463Y-226367D01*
X309522Y-226596D01*
X309573Y-226827D01*
X309600Y-226905D01*
X309620Y-226984D01*
X309707Y-227205D01*
X309787Y-227428D01*
X309824Y-227501D01*
X309854Y-227577D01*
X309967Y-227785D01*
X310074Y-227996D01*
X310120Y-228064D01*
X310159Y-228136D01*
X310298Y-228328D01*
X310430Y-228524D01*
X310483Y-228585D01*
X310532Y-228653D01*
X310710Y-228843D01*
X310863Y-229017D01*
X312449Y-230603D01*
X312450Y-230603D01*
X320577Y-238730D01*
X320577Y-238731D01*
X324435Y-242589D01*
X326137Y-246697D01*
X326137Y-331087D01*
X326141Y-331159D01*
X326139Y-331232D01*
X326161Y-331477D01*
X326177Y-331722D01*
X326190Y-331794D01*
X326197Y-331867D01*
X326250Y-332107D01*
X326296Y-332348D01*
X326319Y-332418D01*
X326334Y-332489D01*
X326417Y-332720D01*
X326493Y-332954D01*
X326524Y-333020D01*
X326548Y-333089D01*
X326659Y-333308D01*
X326764Y-333531D01*
X326803Y-333593D01*
X326836Y-333658D01*
X326973Y-333861D01*
X327105Y-334069D01*
X327151Y-334125D01*
X327192Y-334186D01*
X327304Y-334313D01*
X327332Y-334352D01*
X327387Y-334411D01*
X327510Y-334560D01*
X327571Y-334618D01*
X327624Y-334678D01*
X343502Y-350556D01*
X343557Y-350604D01*
X343606Y-350657D01*
X343796Y-350815D01*
X343980Y-350977D01*
X344040Y-351018D01*
X344096Y-351065D01*
X344303Y-351197D01*
X344507Y-351335D01*
X344572Y-351368D01*
X344633Y-351408D01*
X344855Y-351513D01*
X345074Y-351625D01*
X345143Y-351649D01*
X345209Y-351681D01*
X345443Y-351757D01*
X345674Y-351841D01*
X345745Y-351857D01*
X345814Y-351880D01*
X346055Y-351926D01*
X346295Y-351980D01*
X346368Y-351987D01*
X346440Y-352001D01*
X346671Y-352016D01*
X346930Y-352041D01*
X347013Y-352038D01*
X347093Y-352043D01*
X400003Y-352043D01*
X400198Y-352031D01*
X400394Y-352028D01*
X400516Y-352011D01*
X400639Y-352003D01*
X400831Y-351967D01*
X401025Y-351939D01*
X401144Y-351907D01*
X401265Y-351884D01*
X401451Y-351824D01*
X401640Y-351772D01*
X401754Y-351725D01*
X401871Y-351687D01*
X402048Y-351604D01*
X402229Y-351529D01*
X402336Y-351469D01*
X402447Y-351416D01*
X402613Y-351311D01*
X402783Y-351215D01*
X402882Y-351141D01*
X402986Y-351075D01*
X403137Y-350951D01*
X403293Y-350833D01*
X403382Y-350748D01*
X403477Y-350670D01*
X403611Y-350527D01*
X403752Y-350391D01*
X403829Y-350295D01*
X403913Y-350206D01*
X404029Y-350047D01*
X404151Y-349895D01*
X404216Y-349790D01*
X404288Y-349691D01*
X404383Y-349519D01*
X404486Y-349352D01*
X404537Y-349240D01*
X404596Y-349133D01*
X404668Y-348950D01*
X404749Y-348772D01*
X404786Y-348655D01*
X404831Y-348540D01*
X404880Y-348351D01*
X404938Y-348164D01*
X404960Y-348043D01*
X404991Y-347924D01*
X405016Y-347729D01*
X405050Y-347536D01*
X405056Y-347414D01*
X405072Y-347292D01*
X405072Y-347095D01*
X405082Y-346900D01*
X405073Y-346778D01*
X405073Y-346654D01*
X405049Y-346460D01*
X405034Y-346265D01*
X405009Y-346144D01*
X404994Y-346022D01*
X404946Y-345832D01*
X404907Y-345640D01*
X404868Y-345527D01*
X404837Y-345405D01*
X404759Y-345207D01*
X404696Y-345020D01*
X402843Y-340548D01*
X402843Y-335092D01*
X404932Y-330050D01*
X408784Y-326197D01*
X408887Y-326081D01*
X408997Y-325972D01*
X409097Y-325842D01*
X409206Y-325719D01*
X409293Y-325591D01*
X409388Y-325469D01*
X409472Y-325328D01*
X409564Y-325192D01*
X409634Y-325054D01*
X409714Y-324921D01*
X409779Y-324771D01*
X409854Y-324625D01*
X409906Y-324479D01*
X409968Y-324337D01*
X410014Y-324180D01*
X410070Y-324025D01*
X410104Y-323874D01*
X410147Y-323726D01*
X410173Y-323564D01*
X410209Y-323404D01*
X410224Y-323249D01*
X410248Y-323097D01*
X410254Y-322932D01*
X410270Y-322769D01*
X410265Y-322615D01*
X410270Y-322460D01*
X410255Y-322296D01*
X410250Y-322133D01*
X410226Y-321980D01*
X410212Y-321825D01*
X410177Y-321665D01*
X410151Y-321503D01*
X410108Y-321354D01*
X410075Y-321203D01*
X410020Y-321049D01*
X409974Y-320891D01*
X409913Y-320749D01*
X409861Y-320603D01*
X409787Y-320457D01*
X409722Y-320306D01*
X409643Y-320172D01*
X409573Y-320034D01*
X409482Y-319899D01*
X409398Y-319757D01*
X409303Y-319634D01*
X409217Y-319506D01*
X409112Y-319387D01*
X409009Y-319253D01*
X408890Y-319134D01*
X408825Y-319060D01*
X407870Y-317745D01*
X407744Y-317499D01*
X416560Y-317499D01*
X425376Y-317499D01*
X425250Y-317745D01*
X424296Y-319059D01*
X424233Y-319130D01*
X424123Y-319240D01*
X424023Y-319369D01*
X423914Y-319492D01*
X423827Y-319620D01*
X423732Y-319742D01*
X423648Y-319883D01*
X423556Y-320019D01*
X423486Y-320157D01*
X423406Y-320290D01*
X423341Y-320440D01*
X423266Y-320586D01*
X423214Y-320732D01*
X423152Y-320874D01*
X423106Y-321032D01*
X423050Y-321186D01*
X423016Y-321337D01*
X422973Y-321486D01*
X422947Y-321647D01*
X422911Y-321807D01*
X422896Y-321962D01*
X422872Y-322115D01*
X422866Y-322279D01*
X422850Y-322442D01*
X422855Y-322596D01*
X422850Y-322751D01*
X422865Y-322915D01*
X422870Y-323078D01*
X422894Y-323232D01*
X422908Y-323386D01*
X422943Y-323546D01*
X422969Y-323708D01*
X423012Y-323857D01*
X423045Y-324008D01*
X423100Y-324162D01*
X423146Y-324320D01*
X423207Y-324463D01*
X423259Y-324608D01*
X423333Y-324754D01*
X423398Y-324905D01*
X423477Y-325039D01*
X423547Y-325177D01*
X423638Y-325312D01*
X423722Y-325454D01*
X423817Y-325577D01*
X423903Y-325705D01*
X424008Y-325824D01*
X424111Y-325958D01*
X424230Y-326078D01*
X424336Y-326197D01*
X428188Y-330050D01*
X430277Y-335092D01*
X430277Y-340548D01*
X428188Y-345590D01*
X426850Y-346928D01*
X426748Y-347045D01*
X426638Y-347154D01*
X426537Y-347283D01*
X426429Y-347406D01*
X426341Y-347534D01*
X426246Y-347657D01*
X426163Y-347798D01*
X426070Y-347933D01*
X426000Y-348071D01*
X425921Y-348204D01*
X425855Y-348354D01*
X425781Y-348501D01*
X425728Y-348647D01*
X425666Y-348789D01*
X425620Y-348946D01*
X425565Y-349100D01*
X425531Y-349251D01*
X425487Y-349400D01*
X425461Y-349562D01*
X425425Y-349722D01*
X425411Y-349876D01*
X425386Y-350029D01*
X425380Y-350193D01*
X425365Y-350356D01*
X425370Y-350511D01*
X425364Y-350666D01*
X425379Y-350829D01*
X425384Y-350993D01*
X425408Y-351146D01*
X425423Y-351300D01*
X425458Y-351460D01*
X425483Y-351622D01*
X425526Y-351771D01*
X425560Y-351922D01*
X425615Y-352077D01*
X425660Y-352234D01*
X425722Y-352377D01*
X425774Y-352523D01*
X425848Y-352669D01*
X425913Y-352819D01*
X425991Y-352953D01*
X426061Y-353091D01*
X426153Y-353227D01*
X426236Y-353368D01*
X426331Y-353491D01*
X426418Y-353619D01*
X426523Y-353739D01*
X426626Y-353872D01*
X426745Y-353992D01*
X426850Y-354112D01*
X428188Y-355450D01*
X430277Y-360492D01*
X430277Y-365948D01*
X428188Y-370990D01*
X426850Y-372328D01*
X426748Y-372445D01*
X426638Y-372554D01*
X426537Y-372683D01*
X426429Y-372806D01*
X426341Y-372934D01*
X426246Y-373057D01*
X426163Y-373198D01*
X426070Y-373333D01*
X426000Y-373471D01*
X425921Y-373604D01*
X425855Y-373754D01*
X425781Y-373901D01*
X425728Y-374047D01*
X425666Y-374189D01*
X425620Y-374346D01*
X425565Y-374500D01*
X425531Y-374651D01*
X425487Y-374800D01*
X425461Y-374962D01*
X425425Y-375122D01*
X425411Y-375276D01*
X425386Y-375429D01*
X425380Y-375593D01*
X425365Y-375756D01*
X425370Y-375911D01*
X425364Y-376066D01*
X425379Y-376229D01*
X425384Y-376393D01*
X425408Y-376546D01*
X425423Y-376700D01*
X425458Y-376860D01*
X425483Y-377022D01*
X425526Y-377171D01*
X425560Y-377322D01*
X425615Y-377477D01*
X425660Y-377634D01*
X425722Y-377777D01*
X425774Y-377923D01*
X425848Y-378069D01*
X425913Y-378219D01*
X425991Y-378353D01*
X426061Y-378491D01*
X426153Y-378627D01*
X426236Y-378768D01*
X426331Y-378891D01*
X426418Y-379019D01*
X426523Y-379139D01*
X426626Y-379272D01*
X426745Y-379392D01*
X426850Y-379512D01*
X428188Y-380850D01*
X430277Y-385892D01*
X430277Y-391348D01*
X428188Y-396390D01*
X426850Y-397728D01*
X426748Y-397845D01*
X426638Y-397954D01*
X426537Y-398083D01*
X426429Y-398206D01*
X426341Y-398334D01*
X426246Y-398457D01*
X426163Y-398598D01*
X426070Y-398733D01*
X426000Y-398871D01*
X425921Y-399004D01*
X425855Y-399154D01*
X425781Y-399301D01*
X425728Y-399447D01*
X425666Y-399589D01*
X425620Y-399746D01*
X425565Y-399900D01*
X425531Y-400051D01*
X425487Y-400200D01*
X425461Y-400362D01*
X425425Y-400522D01*
X425411Y-400676D01*
X425386Y-400829D01*
X425380Y-400993D01*
X425365Y-401156D01*
X425370Y-401311D01*
X425364Y-401466D01*
X425379Y-401629D01*
X425384Y-401793D01*
X425408Y-401946D01*
X425423Y-402100D01*
X425458Y-402260D01*
X425483Y-402422D01*
X425526Y-402571D01*
X425560Y-402722D01*
X425615Y-402877D01*
X425660Y-403034D01*
X425722Y-403177D01*
X425774Y-403323D01*
X425848Y-403469D01*
X425913Y-403619D01*
X425991Y-403753D01*
X426061Y-403891D01*
X426153Y-404027D01*
X426236Y-404168D01*
X426331Y-404291D01*
X426418Y-404419D01*
X426523Y-404539D01*
X426626Y-404672D01*
X426745Y-404792D01*
X426850Y-404912D01*
X428188Y-406250D01*
X430277Y-411292D01*
X430277Y-416748D01*
X428424Y-421220D01*
X428361Y-421406D01*
X428289Y-421588D01*
X428258Y-421707D01*
X428218Y-421823D01*
X428178Y-422015D01*
X428129Y-422204D01*
X428114Y-422326D01*
X428089Y-422447D01*
X428073Y-422642D01*
X428048Y-422836D01*
X428048Y-422960D01*
X428038Y-423082D01*
X428048Y-423278D01*
X428047Y-423474D01*
X428062Y-423596D01*
X428068Y-423718D01*
X428102Y-423911D01*
X428126Y-424106D01*
X428156Y-424225D01*
X428177Y-424346D01*
X428235Y-424533D01*
X428283Y-424723D01*
X428328Y-424838D01*
X428364Y-424955D01*
X428445Y-425134D01*
X428516Y-425316D01*
X428575Y-425424D01*
X428626Y-425536D01*
X428728Y-425703D01*
X428822Y-425875D01*
X428894Y-425975D01*
X428958Y-426080D01*
X429080Y-426233D01*
X429195Y-426392D01*
X429279Y-426481D01*
X429356Y-426578D01*
X429496Y-426714D01*
X429630Y-426857D01*
X429725Y-426936D01*
X429813Y-427022D01*
X429969Y-427139D01*
X430120Y-427265D01*
X430224Y-427331D01*
X430322Y-427405D01*
X430492Y-427502D01*
X430657Y-427608D01*
X430768Y-427660D01*
X430875Y-427721D01*
X431055Y-427797D01*
X431232Y-427881D01*
X431349Y-427919D01*
X431463Y-427966D01*
X431652Y-428018D01*
X431838Y-428080D01*
X431958Y-428103D01*
X432077Y-428136D01*
X432271Y-428164D01*
X432463Y-428201D01*
X432583Y-428209D01*
X432708Y-428227D01*
X432920Y-428231D01*
X433117Y-428243D01*
X460627Y-428243D01*
X460699Y-428239D01*
X460772Y-428241D01*
X461017Y-428219D01*
X461262Y-428203D01*
X461334Y-428190D01*
X461407Y-428183D01*
X461647Y-428130D01*
X461888Y-428084D01*
X461958Y-428061D01*
X462029Y-428046D01*
X462260Y-427963D01*
X462494Y-427887D01*
X462560Y-427856D01*
X462629Y-427832D01*
X462848Y-427721D01*
X463071Y-427616D01*
X463133Y-427577D01*
X463198Y-427544D01*
X463401Y-427407D01*
X463609Y-427275D01*
X463665Y-427229D01*
X463726Y-427188D01*
X463900Y-427035D01*
X464100Y-426870D01*
X464158Y-426809D01*
X464218Y-426756D01*
X467396Y-423578D01*
X467444Y-423523D01*
X467497Y-423474D01*
X467655Y-423284D01*
X467817Y-423100D01*
X467858Y-423040D01*
X467905Y-422984D01*
X468037Y-422777D01*
X468175Y-422573D01*
X468208Y-422508D01*
X468248Y-422447D01*
X468353Y-422225D01*
X468465Y-422006D01*
X468489Y-421937D01*
X468521Y-421871D01*
X468597Y-421637D01*
X468681Y-421406D01*
X468697Y-421335D01*
X468720Y-421266D01*
X468766Y-421025D01*
X468820Y-420785D01*
X468827Y-420712D01*
X468841Y-420640D01*
X468856Y-420409D01*
X468881Y-420150D01*
X468878Y-420067D01*
X468883Y-419987D01*
X468883Y-217553D01*
X468879Y-217481D01*
X468881Y-217408D01*
X468859Y-217163D01*
X468843Y-216918D01*
X468830Y-216846D01*
X468823Y-216773D01*
X468770Y-216533D01*
X468724Y-216292D01*
X468701Y-216222D01*
X468686Y-216151D01*
X468603Y-215920D01*
X468527Y-215686D01*
X468496Y-215620D01*
X468472Y-215551D01*
X468361Y-215332D01*
X468256Y-215109D01*
X468217Y-215047D01*
X468184Y-214982D01*
X468047Y-214779D01*
X467915Y-214571D01*
X467869Y-214515D01*
X467828Y-214454D01*
X467675Y-214280D01*
X467510Y-214080D01*
X467449Y-214022D01*
X467396Y-213962D01*
X451518Y-198084D01*
X451463Y-198036D01*
X451414Y-197983D01*
X451224Y-197825D01*
X451040Y-197663D01*
X450980Y-197622D01*
X450924Y-197575D01*
X450717Y-197443D01*
X450513Y-197305D01*
X450448Y-197272D01*
X450387Y-197232D01*
X450165Y-197127D01*
X449946Y-197015D01*
X449877Y-196991D01*
X449811Y-196959D01*
X449577Y-196883D01*
X449346Y-196799D01*
X449275Y-196783D01*
X449206Y-196760D01*
X448965Y-196714D01*
X448725Y-196660D01*
X448652Y-196653D01*
X448580Y-196639D01*
X448349Y-196624D01*
X448090Y-196599D01*
X448007Y-196602D01*
X447927Y-196597D01*
X407665Y-196597D01*
X407469Y-196609D01*
X407273Y-196612D01*
X407152Y-196629D01*
X407029Y-196637D01*
X406836Y-196673D01*
X406643Y-196701D01*
X406524Y-196733D01*
X406403Y-196756D01*
X406217Y-196816D01*
X406028Y-196868D01*
X405914Y-196915D01*
X405797Y-196953D01*
X405620Y-197036D01*
X405439Y-197111D01*
X405332Y-197171D01*
X405220Y-197224D01*
X405055Y-197328D01*
X404885Y-197425D01*
X404786Y-197499D01*
X404682Y-197565D01*
X404531Y-197689D01*
X404374Y-197807D01*
X404286Y-197892D01*
X404191Y-197970D01*
X404057Y-198113D01*
X403916Y-198249D01*
X403839Y-198345D01*
X403754Y-198434D01*
X403639Y-198593D01*
X403516Y-198745D01*
X403452Y-198850D01*
X403379Y-198949D01*
X403285Y-199121D01*
X403182Y-199288D01*
X403131Y-199400D01*
X403072Y-199507D01*
X402999Y-199689D01*
X402918Y-199868D01*
X402882Y-199985D01*
X402836Y-200100D01*
X402787Y-200289D01*
X402729Y-200476D01*
X402708Y-200597D01*
X402677Y-200716D01*
X402652Y-200911D01*
X402618Y-201103D01*
X402612Y-201226D01*
X402596Y-201348D01*
X402596Y-201545D01*
X402586Y-201740D01*
X402595Y-201862D01*
X402595Y-201986D01*
X402619Y-202180D01*
X402634Y-202375D01*
X402658Y-202496D01*
X402674Y-202618D01*
X402722Y-202808D01*
X402761Y-202999D01*
X402800Y-203114D01*
X402831Y-203235D01*
X402909Y-203433D01*
X402972Y-203620D01*
X404877Y-208218D01*
X404877Y-213422D01*
X402885Y-218230D01*
X399205Y-221910D01*
X394397Y-223902D01*
X389193Y-223902D01*
X384385Y-221910D01*
X382687Y-220212D01*
X382570Y-220110D01*
X382461Y-220000D01*
X382332Y-219899D01*
X382209Y-219791D01*
X382081Y-219703D01*
X381958Y-219608D01*
X381817Y-219524D01*
X381682Y-219432D01*
X381544Y-219362D01*
X381411Y-219283D01*
X381260Y-219217D01*
X381114Y-219143D01*
X380968Y-219090D01*
X380826Y-219028D01*
X380669Y-218982D01*
X380515Y-218927D01*
X380364Y-218893D01*
X380215Y-218849D01*
X380053Y-218823D01*
X379893Y-218787D01*
X379739Y-218773D01*
X379586Y-218748D01*
X379422Y-218742D01*
X379259Y-218727D01*
X379104Y-218732D01*
X378949Y-218726D01*
X378786Y-218741D01*
X378622Y-218746D01*
X378469Y-218770D01*
X378315Y-218785D01*
X378155Y-218820D01*
X377993Y-218845D01*
X377844Y-218888D01*
X377693Y-218922D01*
X377538Y-218977D01*
X377381Y-219022D01*
X377238Y-219084D01*
X377092Y-219136D01*
X376946Y-219210D01*
X376796Y-219275D01*
X376662Y-219353D01*
X376524Y-219423D01*
X376388Y-219515D01*
X376247Y-219598D01*
X376124Y-219693D01*
X375996Y-219780D01*
X375876Y-219885D01*
X375743Y-219988D01*
X375623Y-220107D01*
X375503Y-220212D01*
X373805Y-221910D01*
X368997Y-223902D01*
X363793Y-223902D01*
X358985Y-221910D01*
X357287Y-220212D01*
X357170Y-220110D01*
X357061Y-220000D01*
X356932Y-219899D01*
X356809Y-219791D01*
X356681Y-219703D01*
X356558Y-219608D01*
X356417Y-219524D01*
X356282Y-219432D01*
X356144Y-219362D01*
X356011Y-219283D01*
X355860Y-219217D01*
X355714Y-219143D01*
X355568Y-219090D01*
X355426Y-219028D01*
X355269Y-218982D01*
X355115Y-218927D01*
X354964Y-218893D01*
X354815Y-218849D01*
X354653Y-218823D01*
X354493Y-218787D01*
X354339Y-218773D01*
X354186Y-218748D01*
X354022Y-218742D01*
X353859Y-218727D01*
X353704Y-218732D01*
X353549Y-218726D01*
X353386Y-218741D01*
X353222Y-218746D01*
X353069Y-218770D01*
X352915Y-218785D01*
X352755Y-218820D01*
X352593Y-218845D01*
X352444Y-218888D01*
X352293Y-218922D01*
X352138Y-218977D01*
X351981Y-219022D01*
X351838Y-219084D01*
X351692Y-219136D01*
X351546Y-219210D01*
X351396Y-219275D01*
X351262Y-219353D01*
X351124Y-219423D01*
X350988Y-219515D01*
X350847Y-219598D01*
X350724Y-219693D01*
X350596Y-219780D01*
X350476Y-219885D01*
X350343Y-219988D01*
X350223Y-220107D01*
X350103Y-220212D01*
X348405Y-221910D01*
X343597Y-223902D01*
X338393Y-223902D01*
X333585Y-221910D01*
X329372Y-217697D01*
X329256Y-217595D01*
X329146Y-217485D01*
X329017Y-217384D01*
X328894Y-217276D01*
X328766Y-217189D01*
X328644Y-217094D01*
X328503Y-217010D01*
X328367Y-216918D01*
X328229Y-216847D01*
X328096Y-216768D01*
X327946Y-216703D01*
X327800Y-216628D01*
X327654Y-216576D01*
X327512Y-216514D01*
X327354Y-216468D01*
X327200Y-216412D01*
X327049Y-216378D01*
X326900Y-216335D01*
X326739Y-216309D01*
X326579Y-216273D01*
X326424Y-216258D01*
X326271Y-216234D01*
X326108Y-216228D01*
X325944Y-216212D01*
X325790Y-216217D01*
X325635Y-216212D01*
X325471Y-216227D01*
X325308Y-216232D01*
X325154Y-216256D01*
X325000Y-216270D01*
X324840Y-216305D01*
X324678Y-216331D01*
X324529Y-216374D01*
X324378Y-216407D01*
X324224Y-216462D01*
X324066Y-216508D01*
X323924Y-216569D01*
X323778Y-216621D01*
X323632Y-216695D01*
X323481Y-216760D01*
X323347Y-216839D01*
X323209Y-216909D01*
X323074Y-217000D01*
X322932Y-217084D01*
X322810Y-217178D01*
X322681Y-217265D01*
X322561Y-217370D01*
X322428Y-217473D01*
X322309Y-217592D01*
X322189Y-217698D01*
X321801Y-218086D01*
X320674Y-218904D01*
X320674Y-210820D01*
X320674Y-202736D01*
X321753Y-203520D01*
X321886Y-203604D01*
X322013Y-203696D01*
X322154Y-203774D01*
X322291Y-203861D01*
X322433Y-203928D01*
X322570Y-204004D01*
X322721Y-204064D01*
X322868Y-204133D01*
X323017Y-204181D01*
X323163Y-204239D01*
X323319Y-204280D01*
X323474Y-204330D01*
X323628Y-204359D01*
X323779Y-204399D01*
X323940Y-204419D01*
X324099Y-204450D01*
X324256Y-204460D01*
X324411Y-204479D01*
X324574Y-204480D01*
X324735Y-204490D01*
X324892Y-204480D01*
X325049Y-204481D01*
X325210Y-204461D01*
X325371Y-204451D01*
X325525Y-204421D01*
X325681Y-204402D01*
X325838Y-204362D01*
X325997Y-204332D01*
X326147Y-204283D01*
X326298Y-204245D01*
X326449Y-204186D01*
X326603Y-204136D01*
X326745Y-204069D01*
X326891Y-204012D01*
X327034Y-203934D01*
X327180Y-203865D01*
X327312Y-203781D01*
X327450Y-203706D01*
X327582Y-203611D01*
X327719Y-203524D01*
X327839Y-203425D01*
X327967Y-203333D01*
X328085Y-203222D01*
X328210Y-203119D01*
X328318Y-203005D01*
X328432Y-202898D01*
X328536Y-202773D01*
X328647Y-202655D01*
X328740Y-202528D01*
X328840Y-202408D01*
X328927Y-202271D01*
X329022Y-202140D01*
X329098Y-202003D01*
X329183Y-201871D01*
X329252Y-201724D01*
X329330Y-201583D01*
X329388Y-201437D01*
X329456Y-201295D01*
X329506Y-201141D01*
X329566Y-200991D01*
X329606Y-200839D01*
X329655Y-200690D01*
X329685Y-200531D01*
X329726Y-200374D01*
X329746Y-200219D01*
X329776Y-200065D01*
X329786Y-199907D01*
X329807Y-199742D01*
X329808Y-199572D01*
X329818Y-199411D01*
X329818Y-195897D01*
X331520Y-191789D01*
X372764Y-150545D01*
X376872Y-148843D01*
X469583Y-148843D01*
X473691Y-150545D01*
X514935Y-191789D01*
X516637Y-195897D01*
X516637Y-441643D01*
X514935Y-445751D01*
X486391Y-474295D01*
X482283Y-475997D01*
X433117Y-475997D01*
X432922Y-476009D01*
X432726Y-476012D01*
X432604Y-476029D01*
X432481Y-476037D01*
X432289Y-476073D01*
X432095Y-476101D01*
X431976Y-476133D01*
X431855Y-476156D01*
X431669Y-476216D01*
X431480Y-476268D01*
X431366Y-476315D01*
X431249Y-476353D01*
X431072Y-476436D01*
X430891Y-476511D01*
X430784Y-476571D01*
X430673Y-476624D01*
X430507Y-476729D01*
X430337Y-476825D01*
X430238Y-476899D01*
X430134Y-476965D01*
X429983Y-477089D01*
X429827Y-477207D01*
X429738Y-477292D01*
X429643Y-477370D01*
X429509Y-477513D01*
X429368Y-477649D01*
X429291Y-477745D01*
X429207Y-477834D01*
X429091Y-477993D01*
X428969Y-478145D01*
X428904Y-478250D01*
X428832Y-478349D01*
X428737Y-478521D01*
X428634Y-478688D01*
X428583Y-478800D01*
X428524Y-478907D01*
X428452Y-479090D01*
X428371Y-479268D01*
X428334Y-479385D01*
X428289Y-479500D01*
X428240Y-479689D01*
X428182Y-479876D01*
X428160Y-479997D01*
X428129Y-480116D01*
X428104Y-480311D01*
X428070Y-480504D01*
X428064Y-480626D01*
X428048Y-480748D01*
X428048Y-480945D01*
X428038Y-481140D01*
X428047Y-481262D01*
X428047Y-481386D01*
X428071Y-481580D01*
X428086Y-481775D01*
X428111Y-481896D01*
X428126Y-482018D01*
X428174Y-482208D01*
X428213Y-482400D01*
X428252Y-482513D01*
X428283Y-482635D01*
X428361Y-482833D01*
X428424Y-483020D01*
X430277Y-487492D01*
X430277Y-492948D01*
X428188Y-497990D01*
X426850Y-499328D01*
X426748Y-499445D01*
X426638Y-499554D01*
X426537Y-499683D01*
X426429Y-499806D01*
X426341Y-499934D01*
X426246Y-500057D01*
X426163Y-500198D01*
X426070Y-500333D01*
X426000Y-500471D01*
X425921Y-500604D01*
X425855Y-500755D01*
X425781Y-500901D01*
X425728Y-501046D01*
X425666Y-501189D01*
X425620Y-501346D01*
X425565Y-501500D01*
X425531Y-501651D01*
X425487Y-501800D01*
X425461Y-501962D01*
X425425Y-502122D01*
X425411Y-502276D01*
X425386Y-502429D01*
X425380Y-502593D01*
X425365Y-502756D01*
X425370Y-502911D01*
X425364Y-503066D01*
X425379Y-503229D01*
X425384Y-503393D01*
X425408Y-503546D01*
X425423Y-503700D01*
X425458Y-503860D01*
X425483Y-504022D01*
X425526Y-504171D01*
X425560Y-504322D01*
X425615Y-504477D01*
X425660Y-504634D01*
X425722Y-504777D01*
X425774Y-504923D01*
X425848Y-505069D01*
X425913Y-505219D01*
X425991Y-505353D01*
X426061Y-505491D01*
X426153Y-505627D01*
X426236Y-505768D01*
X426331Y-505891D01*
X426417Y-506019D01*
X426523Y-506139D01*
X426626Y-506272D01*
X426745Y-506392D01*
X426850Y-506512D01*
X428188Y-507850D01*
X430277Y-512892D01*
X430277Y-518348D01*
X428188Y-523390D01*
X426850Y-524728D01*
X426748Y-524845D01*
X426638Y-524954D01*
X426537Y-525083D01*
X426429Y-525206D01*
X426341Y-525334D01*
X426246Y-525457D01*
X426163Y-525598D01*
X426070Y-525733D01*
X426000Y-525871D01*
X425921Y-526004D01*
X425855Y-526155D01*
X425781Y-526301D01*
X425728Y-526446D01*
X425666Y-526589D01*
X425620Y-526746D01*
X425565Y-526900D01*
X425531Y-527051D01*
X425487Y-527200D01*
X425461Y-527362D01*
X425425Y-527522D01*
X425411Y-527676D01*
X425386Y-527829D01*
X425380Y-527993D01*
X425365Y-528156D01*
X425370Y-528311D01*
X425364Y-528466D01*
X425379Y-528629D01*
X425384Y-528793D01*
X425408Y-528946D01*
X425423Y-529100D01*
X425458Y-529260D01*
X425483Y-529422D01*
X425526Y-529571D01*
X425560Y-529722D01*
X425615Y-529877D01*
X425660Y-530034D01*
X425722Y-530177D01*
X425774Y-530323D01*
X425848Y-530469D01*
X425913Y-530619D01*
X425991Y-530753D01*
X426061Y-530891D01*
X426153Y-531027D01*
X426236Y-531168D01*
X426331Y-531291D01*
X426417Y-531419D01*
X426523Y-531539D01*
X426626Y-531672D01*
X426745Y-531792D01*
X426850Y-531912D01*
X428188Y-533250D01*
X430277Y-538292D01*
X430277Y-543748D01*
X428188Y-548790D01*
X426850Y-550128D01*
X426748Y-550245D01*
X426638Y-550354D01*
X426537Y-550483D01*
X426429Y-550606D01*
X426341Y-550734D01*
X426246Y-550857D01*
X426163Y-550998D01*
X426070Y-551133D01*
X426000Y-551271D01*
X425921Y-551404D01*
X425855Y-551555D01*
X425781Y-551701D01*
X425728Y-551846D01*
X425666Y-551989D01*
X425620Y-552146D01*
X425565Y-552300D01*
X425531Y-552451D01*
X425487Y-552600D01*
X425461Y-552762D01*
X425425Y-552922D01*
X425411Y-553076D01*
X425386Y-553229D01*
X425380Y-553393D01*
X425365Y-553556D01*
X425370Y-553711D01*
X425364Y-553866D01*
X425379Y-554029D01*
X425384Y-554193D01*
X425408Y-554346D01*
X425423Y-554500D01*
X425458Y-554660D01*
X425483Y-554822D01*
X425526Y-554971D01*
X425560Y-555122D01*
X425615Y-555277D01*
X425660Y-555434D01*
X425722Y-555577D01*
X425774Y-555723D01*
X425848Y-555869D01*
X425913Y-556019D01*
X425991Y-556153D01*
X426061Y-556291D01*
X426153Y-556427D01*
X426236Y-556568D01*
X426331Y-556691D01*
X426417Y-556819D01*
X426523Y-556939D01*
X426626Y-557072D01*
X426745Y-557192D01*
X426850Y-557312D01*
X428188Y-558650D01*
X430277Y-563692D01*
X430277Y-569148D01*
X428188Y-574190D01*
X426850Y-575528D01*
X426748Y-575645D01*
X426638Y-575754D01*
X426537Y-575883D01*
X426429Y-576006D01*
X426341Y-576134D01*
X426246Y-576257D01*
X426163Y-576398D01*
X426070Y-576533D01*
X426000Y-576671D01*
X425921Y-576804D01*
X425855Y-576955D01*
X425781Y-577101D01*
X425728Y-577246D01*
X425666Y-577389D01*
X425620Y-577546D01*
X425565Y-577700D01*
X425531Y-577851D01*
X425487Y-578000D01*
X425461Y-578162D01*
X425425Y-578322D01*
X425411Y-578476D01*
X425386Y-578629D01*
X425380Y-578793D01*
X425365Y-578956D01*
X425370Y-579111D01*
X425364Y-579266D01*
X425379Y-579429D01*
X425384Y-579593D01*
X425408Y-579746D01*
X425423Y-579900D01*
X425458Y-580060D01*
X425483Y-580222D01*
X425526Y-580371D01*
X425560Y-580522D01*
X425615Y-580677D01*
X425660Y-580834D01*
X425722Y-580977D01*
X425774Y-581123D01*
X425848Y-581269D01*
X425913Y-581419D01*
X425991Y-581553D01*
X426061Y-581691D01*
X426153Y-581827D01*
X426236Y-581968D01*
X426331Y-582091D01*
X426417Y-582219D01*
X426523Y-582339D01*
X426626Y-582472D01*
X426745Y-582592D01*
X426850Y-582712D01*
X428188Y-584050D01*
X430277Y-589092D01*
X430277Y-594548D01*
X428188Y-599590D01*
X426850Y-600928D01*
X426748Y-601045D01*
X426638Y-601154D01*
X426537Y-601283D01*
X426429Y-601406D01*
X426341Y-601534D01*
X426246Y-601657D01*
X426163Y-601798D01*
X426070Y-601933D01*
X426000Y-602071D01*
X425921Y-602204D01*
X425855Y-602354D01*
X425781Y-602501D01*
X425728Y-602647D01*
X425666Y-602789D01*
X425620Y-602946D01*
X425565Y-603100D01*
X425531Y-603251D01*
X425487Y-603400D01*
X425461Y-603562D01*
X425425Y-603722D01*
X425411Y-603876D01*
X425386Y-604029D01*
X425380Y-604193D01*
X425365Y-604356D01*
X425370Y-604511D01*
X425364Y-604666D01*
X425379Y-604829D01*
X425384Y-604993D01*
X425408Y-605146D01*
X425423Y-605300D01*
X425458Y-605460D01*
X425483Y-605622D01*
X425526Y-605771D01*
X425560Y-605922D01*
X425615Y-606077D01*
X425660Y-606234D01*
X425722Y-606377D01*
X425774Y-606523D01*
X425848Y-606669D01*
X425913Y-606819D01*
X425991Y-606953D01*
X426061Y-607091D01*
X426153Y-607227D01*
X426236Y-607368D01*
X426331Y-607491D01*
X426418Y-607619D01*
X426523Y-607739D01*
X426626Y-607872D01*
X426745Y-607992D01*
X426850Y-608112D01*
X428188Y-609450D01*
X430277Y-614492D01*
X430277Y-619948D01*
X428188Y-624990D01*
X426850Y-626328D01*
X426748Y-626445D01*
X426638Y-626554D01*
X426537Y-626683D01*
X426429Y-626806D01*
X426341Y-626934D01*
X426246Y-627057D01*
X426163Y-627198D01*
X426070Y-627333D01*
X426000Y-627471D01*
X425921Y-627604D01*
X425855Y-627755D01*
X425781Y-627901D01*
X425728Y-628046D01*
X425666Y-628189D01*
X425620Y-628346D01*
X425565Y-628500D01*
X425531Y-628651D01*
X425487Y-628800D01*
X425461Y-628962D01*
X425425Y-629122D01*
X425411Y-629276D01*
X425386Y-629429D01*
X425380Y-629593D01*
X425365Y-629756D01*
X425370Y-629911D01*
X425364Y-630066D01*
X425379Y-630229D01*
X425384Y-630393D01*
X425408Y-630546D01*
X425423Y-630700D01*
X425458Y-630860D01*
X425483Y-631022D01*
X425526Y-631171D01*
X425560Y-631322D01*
X425615Y-631477D01*
X425660Y-631634D01*
X425722Y-631777D01*
X425774Y-631923D01*
X425848Y-632069D01*
X425913Y-632219D01*
X425991Y-632353D01*
X426061Y-632491D01*
X426153Y-632627D01*
X426236Y-632768D01*
X426331Y-632891D01*
X426417Y-633019D01*
X426523Y-633139D01*
X426626Y-633272D01*
X426745Y-633392D01*
X426850Y-633512D01*
X428188Y-634850D01*
X430277Y-639892D01*
X430277Y-645348D01*
X428188Y-650390D01*
X424330Y-654248D01*
X419288Y-656337D01*
X413832Y-656337D01*
X408790Y-654248D01*
X404932Y-650390D01*
X402843Y-645348D01*
X402843Y-639892D01*
X404932Y-634850D01*
X406270Y-633512D01*
X406372Y-633395D01*
X406482Y-633286D01*
X406583Y-633157D01*
X406691Y-633034D01*
X406779Y-632906D01*
X406874Y-632783D01*
X406957Y-632642D01*
X407050Y-632507D01*
X407120Y-632369D01*
X407199Y-632236D01*
X407265Y-632086D01*
X407339Y-631939D01*
X407392Y-631793D01*
X407454Y-631651D01*
X407500Y-631494D01*
X407555Y-631340D01*
X407589Y-631189D01*
X407633Y-631040D01*
X407659Y-630878D01*
X407695Y-630718D01*
X407709Y-630564D01*
X407734Y-630411D01*
X407740Y-630247D01*
X407755Y-630084D01*
X407750Y-629929D01*
X407756Y-629774D01*
X407741Y-629611D01*
X407736Y-629447D01*
X407712Y-629294D01*
X407697Y-629140D01*
X407662Y-628980D01*
X407637Y-628818D01*
X407594Y-628669D01*
X407560Y-628518D01*
X407505Y-628363D01*
X407460Y-628206D01*
X407398Y-628063D01*
X407346Y-627917D01*
X407272Y-627771D01*
X407207Y-627621D01*
X407129Y-627487D01*
X407059Y-627349D01*
X406967Y-627213D01*
X406884Y-627072D01*
X406789Y-626949D01*
X406702Y-626821D01*
X406597Y-626701D01*
X406494Y-626568D01*
X406375Y-626448D01*
X406270Y-626328D01*
X404932Y-624990D01*
X402843Y-619948D01*
X402843Y-614492D01*
X404932Y-609450D01*
X406270Y-608112D01*
X406372Y-607995D01*
X406482Y-607886D01*
X406583Y-607757D01*
X406691Y-607634D01*
X406779Y-607506D01*
X406874Y-607383D01*
X406957Y-607242D01*
X407050Y-607107D01*
X407120Y-606969D01*
X407199Y-606836D01*
X407265Y-606685D01*
X407339Y-606539D01*
X407392Y-606394D01*
X407454Y-606251D01*
X407500Y-606094D01*
X407555Y-605940D01*
X407589Y-605789D01*
X407633Y-605640D01*
X407659Y-605478D01*
X407695Y-605318D01*
X407709Y-605164D01*
X407734Y-605011D01*
X407740Y-604847D01*
X407755Y-604684D01*
X407750Y-604529D01*
X407756Y-604374D01*
X407741Y-604211D01*
X407736Y-604047D01*
X407712Y-603894D01*
X407697Y-603740D01*
X407662Y-603580D01*
X407637Y-603418D01*
X407594Y-603269D01*
X407560Y-603118D01*
X407505Y-602963D01*
X407460Y-602806D01*
X407398Y-602663D01*
X407346Y-602517D01*
X407272Y-602371D01*
X407207Y-602221D01*
X407129Y-602087D01*
X407059Y-601949D01*
X406967Y-601813D01*
X406884Y-601672D01*
X406789Y-601549D01*
X406703Y-601421D01*
X406597Y-601301D01*
X406494Y-601168D01*
X406375Y-601048D01*
X406270Y-600928D01*
X404932Y-599590D01*
X402843Y-594548D01*
X402843Y-589092D01*
X404932Y-584050D01*
X406270Y-582712D01*
X406372Y-582595D01*
X406482Y-582486D01*
X406583Y-582357D01*
X406691Y-582234D01*
X406779Y-582106D01*
X406874Y-581983D01*
X406957Y-581842D01*
X407050Y-581707D01*
X407120Y-581569D01*
X407199Y-581436D01*
X407265Y-581286D01*
X407339Y-581139D01*
X407392Y-580993D01*
X407454Y-580851D01*
X407500Y-580694D01*
X407555Y-580540D01*
X407589Y-580389D01*
X407633Y-580240D01*
X407659Y-580078D01*
X407695Y-579918D01*
X407709Y-579764D01*
X407734Y-579611D01*
X407740Y-579447D01*
X407755Y-579284D01*
X407750Y-579129D01*
X407756Y-578974D01*
X407741Y-578811D01*
X407736Y-578647D01*
X407712Y-578494D01*
X407697Y-578340D01*
X407662Y-578180D01*
X407637Y-578018D01*
X407594Y-577869D01*
X407560Y-577718D01*
X407505Y-577563D01*
X407460Y-577406D01*
X407398Y-577263D01*
X407346Y-577117D01*
X407272Y-576971D01*
X407207Y-576821D01*
X407129Y-576687D01*
X407059Y-576549D01*
X406967Y-576413D01*
X406884Y-576272D01*
X406789Y-576149D01*
X406702Y-576021D01*
X406597Y-575901D01*
X406494Y-575768D01*
X406375Y-575648D01*
X406270Y-575528D01*
X404932Y-574190D01*
X402843Y-569148D01*
X402843Y-563692D01*
X404932Y-558650D01*
X406270Y-557312D01*
X406372Y-557195D01*
X406482Y-557086D01*
X406583Y-556957D01*
X406691Y-556834D01*
X406779Y-556706D01*
X406874Y-556583D01*
X406957Y-556442D01*
X407050Y-556307D01*
X407120Y-556169D01*
X407199Y-556036D01*
X407265Y-555886D01*
X407339Y-555739D01*
X407392Y-555593D01*
X407454Y-555451D01*
X407500Y-555294D01*
X407555Y-555140D01*
X407589Y-554989D01*
X407633Y-554840D01*
X407659Y-554678D01*
X407695Y-554518D01*
X407709Y-554364D01*
X407734Y-554211D01*
X407740Y-554047D01*
X407755Y-553884D01*
X407750Y-553729D01*
X407756Y-553574D01*
X407741Y-553411D01*
X407736Y-553247D01*
X407712Y-553094D01*
X407697Y-552940D01*
X407662Y-552780D01*
X407637Y-552618D01*
X407594Y-552469D01*
X407560Y-552318D01*
X407505Y-552163D01*
X407460Y-552006D01*
X407398Y-551863D01*
X407346Y-551717D01*
X407272Y-551571D01*
X407207Y-551421D01*
X407129Y-551287D01*
X407059Y-551149D01*
X406967Y-551013D01*
X406884Y-550872D01*
X406789Y-550749D01*
X406702Y-550621D01*
X406597Y-550501D01*
X406494Y-550368D01*
X406375Y-550248D01*
X406270Y-550128D01*
X404932Y-548790D01*
X402843Y-543748D01*
X402843Y-538292D01*
X404932Y-533250D01*
X406270Y-531912D01*
X406372Y-531795D01*
X406482Y-531686D01*
X406583Y-531557D01*
X406691Y-531434D01*
X406779Y-531306D01*
X406874Y-531183D01*
X406957Y-531042D01*
X407050Y-530907D01*
X407120Y-530769D01*
X407199Y-530636D01*
X407265Y-530486D01*
X407339Y-530339D01*
X407392Y-530193D01*
X407454Y-530051D01*
X407500Y-529894D01*
X407555Y-529740D01*
X407589Y-529589D01*
X407633Y-529440D01*
X407659Y-529278D01*
X407695Y-529118D01*
X407709Y-528964D01*
X407734Y-528811D01*
X407740Y-528647D01*
X407755Y-528484D01*
X407750Y-528329D01*
X407756Y-528174D01*
X407741Y-528011D01*
X407736Y-527847D01*
X407712Y-527694D01*
X407697Y-527540D01*
X407662Y-527380D01*
X407637Y-527218D01*
X407594Y-527069D01*
X407560Y-526918D01*
X407505Y-526763D01*
X407460Y-526606D01*
X407398Y-526463D01*
X407346Y-526317D01*
X407272Y-526171D01*
X407207Y-526021D01*
X407129Y-525887D01*
X407059Y-525749D01*
X406967Y-525613D01*
X406884Y-525472D01*
X406789Y-525349D01*
X406702Y-525221D01*
X406597Y-525101D01*
X406494Y-524968D01*
X406375Y-524848D01*
X406270Y-524728D01*
X404932Y-523390D01*
X402843Y-518348D01*
X402843Y-512892D01*
X404932Y-507850D01*
X406270Y-506512D01*
X406372Y-506395D01*
X406482Y-506286D01*
X406583Y-506157D01*
X406691Y-506034D01*
X406779Y-505906D01*
X406874Y-505783D01*
X406957Y-505642D01*
X407050Y-505507D01*
X407120Y-505369D01*
X407199Y-505236D01*
X407265Y-505086D01*
X407339Y-504939D01*
X407392Y-504793D01*
X407454Y-504651D01*
X407500Y-504494D01*
X407555Y-504340D01*
X407589Y-504189D01*
X407633Y-504040D01*
X407659Y-503878D01*
X407695Y-503718D01*
X407709Y-503564D01*
X407734Y-503411D01*
X407740Y-503247D01*
X407755Y-503084D01*
X407750Y-502929D01*
X407756Y-502774D01*
X407741Y-502611D01*
X407736Y-502447D01*
X407712Y-502294D01*
X407697Y-502140D01*
X407662Y-501980D01*
X407637Y-501818D01*
X407594Y-501669D01*
X407560Y-501518D01*
X407505Y-501363D01*
X407460Y-501206D01*
X407398Y-501063D01*
X407346Y-500917D01*
X407272Y-500771D01*
X407207Y-500621D01*
X407129Y-500487D01*
X407059Y-500349D01*
X406967Y-500213D01*
X406884Y-500072D01*
X406789Y-499949D01*
X406702Y-499821D01*
X406597Y-499701D01*
X406494Y-499568D01*
X406375Y-499448D01*
X406270Y-499328D01*
X404932Y-497990D01*
X402843Y-492948D01*
X402843Y-487492D01*
X404932Y-482450D01*
X406270Y-481112D01*
X406372Y-480995D01*
X406482Y-480886D01*
X406583Y-480757D01*
X406691Y-480634D01*
X406779Y-480506D01*
X406874Y-480383D01*
X406957Y-480242D01*
X407050Y-480107D01*
X407120Y-479969D01*
X407199Y-479836D01*
X407265Y-479686D01*
X407339Y-479539D01*
X407392Y-479393D01*
X407454Y-479251D01*
X407500Y-479094D01*
X407555Y-478940D01*
X407589Y-478789D01*
X407633Y-478640D01*
X407659Y-478478D01*
X407695Y-478318D01*
X407709Y-478164D01*
X407734Y-478011D01*
X407740Y-477847D01*
X407755Y-477684D01*
X407750Y-477529D01*
X407756Y-477374D01*
X407741Y-477211D01*
X407736Y-477047D01*
X407712Y-476894D01*
X407697Y-476740D01*
X407662Y-476580D01*
X407637Y-476418D01*
X407594Y-476269D01*
X407560Y-476118D01*
X407505Y-475963D01*
X407460Y-475806D01*
X407398Y-475663D01*
X407346Y-475517D01*
X407272Y-475371D01*
X407207Y-475221D01*
X407129Y-475087D01*
X407059Y-474949D01*
X406967Y-474813D01*
X406884Y-474672D01*
X406789Y-474549D01*
X406702Y-474421D01*
X406597Y-474301D01*
X406494Y-474168D01*
X406375Y-474048D01*
X406270Y-473928D01*
X404932Y-472590D01*
X402843Y-467548D01*
X402843Y-462092D01*
X404932Y-457050D01*
X406270Y-455712D01*
X406372Y-455595D01*
X406482Y-455486D01*
X406583Y-455357D01*
X406691Y-455234D01*
X406779Y-455106D01*
X406874Y-454983D01*
X406957Y-454842D01*
X407050Y-454707D01*
X407120Y-454569D01*
X407199Y-454436D01*
X407265Y-454285D01*
X407339Y-454139D01*
X407392Y-453994D01*
X407454Y-453851D01*
X407500Y-453694D01*
X407555Y-453540D01*
X407589Y-453389D01*
X407633Y-453240D01*
X407659Y-453078D01*
X407695Y-452918D01*
X407709Y-452764D01*
X407734Y-452611D01*
X407740Y-452447D01*
X407755Y-452284D01*
X407750Y-452129D01*
X407756Y-451974D01*
X407741Y-451811D01*
X407736Y-451647D01*
X407712Y-451494D01*
X407697Y-451340D01*
X407662Y-451180D01*
X407637Y-451018D01*
X407594Y-450869D01*
X407560Y-450718D01*
X407505Y-450563D01*
X407460Y-450406D01*
X407398Y-450263D01*
X407346Y-450117D01*
X407272Y-449971D01*
X407207Y-449821D01*
X407129Y-449687D01*
X407059Y-449549D01*
X406967Y-449413D01*
X406884Y-449272D01*
X406789Y-449149D01*
X406703Y-449021D01*
X406597Y-448901D01*
X406494Y-448768D01*
X406375Y-448648D01*
X406270Y-448528D01*
X404932Y-447190D01*
X402843Y-442148D01*
X402843Y-436692D01*
X404932Y-431650D01*
X406270Y-430312D01*
X406372Y-430195D01*
X406482Y-430086D01*
X406583Y-429957D01*
X406691Y-429834D01*
X406779Y-429706D01*
X406874Y-429583D01*
X406957Y-429442D01*
X407050Y-429307D01*
X407120Y-429169D01*
X407199Y-429036D01*
X407265Y-428885D01*
X407339Y-428739D01*
X407392Y-428594D01*
X407454Y-428451D01*
X407500Y-428294D01*
X407555Y-428140D01*
X407589Y-427989D01*
X407633Y-427840D01*
X407659Y-427678D01*
X407695Y-427518D01*
X407709Y-427364D01*
X407734Y-427211D01*
X407740Y-427047D01*
X407755Y-426884D01*
X407750Y-426729D01*
X407756Y-426574D01*
X407741Y-426411D01*
X407736Y-426247D01*
X407712Y-426094D01*
X407697Y-425940D01*
X407662Y-425780D01*
X407637Y-425618D01*
X407594Y-425469D01*
X407560Y-425318D01*
X407505Y-425163D01*
X407460Y-425006D01*
X407398Y-424863D01*
X407346Y-424717D01*
X407272Y-424571D01*
X407207Y-424421D01*
X407129Y-424287D01*
X407059Y-424149D01*
X406967Y-424013D01*
X406884Y-423872D01*
X406789Y-423749D01*
X406703Y-423621D01*
X406597Y-423501D01*
X406494Y-423368D01*
X406375Y-423248D01*
X406270Y-423128D01*
X404932Y-421790D01*
X402843Y-416748D01*
X402843Y-411292D01*
X404932Y-406250D01*
X406270Y-404912D01*
X406372Y-404795D01*
X406482Y-404686D01*
X406583Y-404557D01*
X406691Y-404434D01*
X406779Y-404306D01*
X406874Y-404183D01*
X406957Y-404042D01*
X407050Y-403907D01*
X407120Y-403769D01*
X407199Y-403636D01*
X407265Y-403485D01*
X407339Y-403339D01*
X407392Y-403194D01*
X407454Y-403051D01*
X407500Y-402894D01*
X407555Y-402740D01*
X407589Y-402589D01*
X407633Y-402440D01*
X407659Y-402278D01*
X407695Y-402118D01*
X407709Y-401964D01*
X407734Y-401811D01*
X407740Y-401647D01*
X407755Y-401484D01*
X407750Y-401329D01*
X407756Y-401174D01*
X407741Y-401011D01*
X407736Y-400847D01*
X407712Y-400694D01*
X407697Y-400540D01*
X407662Y-400380D01*
X407637Y-400218D01*
X407594Y-400069D01*
X407560Y-399918D01*
X407505Y-399763D01*
X407460Y-399606D01*
X407398Y-399463D01*
X407346Y-399317D01*
X407272Y-399171D01*
X407207Y-399021D01*
X407129Y-398887D01*
X407059Y-398749D01*
X406967Y-398613D01*
X406884Y-398472D01*
X406789Y-398349D01*
X406703Y-398221D01*
X406597Y-398101D01*
X406494Y-397968D01*
X406375Y-397848D01*
X406270Y-397728D01*
X404932Y-396390D01*
X402843Y-391348D01*
X402843Y-385892D01*
X404696Y-381420D01*
X404759Y-381235D01*
X404831Y-381052D01*
X404862Y-380933D01*
X404902Y-380817D01*
X404942Y-380625D01*
X404991Y-380436D01*
X405006Y-380314D01*
X405031Y-380193D01*
X405047Y-379998D01*
X405072Y-379804D01*
X405072Y-379681D01*
X405082Y-379558D01*
X405072Y-379362D01*
X405073Y-379166D01*
X405058Y-379044D01*
X405052Y-378922D01*
X405018Y-378729D01*
X404994Y-378534D01*
X404964Y-378415D01*
X404943Y-378294D01*
X404885Y-378107D01*
X404837Y-377917D01*
X404792Y-377802D01*
X404756Y-377685D01*
X404676Y-377506D01*
X404604Y-377324D01*
X404545Y-377216D01*
X404494Y-377104D01*
X404392Y-376937D01*
X404298Y-376765D01*
X404226Y-376665D01*
X404162Y-376560D01*
X404040Y-376407D01*
X403925Y-376248D01*
X403841Y-376159D01*
X403764Y-376062D01*
X403624Y-375926D01*
X403490Y-375783D01*
X403396Y-375704D01*
X403307Y-375618D01*
X403151Y-375500D01*
X403000Y-375375D01*
X402897Y-375309D01*
X402798Y-375235D01*
X402628Y-375138D01*
X402463Y-375032D01*
X402352Y-374980D01*
X402245Y-374919D01*
X402065Y-374843D01*
X401888Y-374759D01*
X401771Y-374721D01*
X401657Y-374674D01*
X401468Y-374622D01*
X401282Y-374560D01*
X401162Y-374537D01*
X401043Y-374504D01*
X400849Y-374476D01*
X400657Y-374439D01*
X400537Y-374431D01*
X400412Y-374413D01*
X400200Y-374409D01*
X400003Y-374397D01*
X338137Y-374397D01*
X334029Y-372695D01*
X305485Y-344151D01*
X303783Y-340043D01*
X303783Y-255653D01*
X303779Y-255581D01*
X303781Y-255508D01*
X303759Y-255263D01*
X303743Y-255018D01*
X303730Y-254946D01*
X303723Y-254873D01*
X303670Y-254633D01*
X303624Y-254392D01*
X303601Y-254322D01*
X303586Y-254251D01*
X303503Y-254020D01*
X303427Y-253786D01*
X303396Y-253719D01*
X303372Y-253651D01*
X303261Y-253432D01*
X303156Y-253209D01*
X303117Y-253147D01*
X303084Y-253082D01*
X302947Y-252879D01*
X302815Y-252671D01*
X302769Y-252615D01*
X302728Y-252554D01*
X302575Y-252380D01*
X302410Y-252180D01*
X302349Y-252122D01*
X302296Y-252062D01*
X299118Y-248884D01*
X299063Y-248836D01*
X299014Y-248783D01*
X298824Y-248625D01*
X298640Y-248463D01*
X298580Y-248422D01*
X298524Y-248375D01*
X298317Y-248243D01*
X298113Y-248105D01*
X298048Y-248072D01*
X297987Y-248032D01*
X297765Y-247927D01*
X297546Y-247815D01*
X297477Y-247791D01*
X297411Y-247759D01*
X297177Y-247683D01*
X296946Y-247599D01*
X296875Y-247583D01*
X296806Y-247560D01*
X296565Y-247514D01*
X296325Y-247460D01*
X296252Y-247453D01*
X296180Y-247439D01*
X295949Y-247424D01*
X295690Y-247399D01*
X295607Y-247402D01*
X295527Y-247397D01*
X274637Y-247397D01*
X270529Y-245695D01*
X261018Y-236184D01*
X260963Y-236136D01*
X260914Y-236083D01*
X260724Y-235925D01*
X260540Y-235763D01*
X260480Y-235722D01*
X260424Y-235675D01*
X260217Y-235543D01*
X260013Y-235405D01*
X259948Y-235372D01*
X259887Y-235332D01*
X259665Y-235227D01*
X259446Y-235115D01*
X259377Y-235091D01*
X259311Y-235059D01*
X259077Y-234983D01*
X258846Y-234899D01*
X258775Y-234883D01*
X258706Y-234860D01*
X258465Y-234814D01*
X258225Y-234760D01*
X258152Y-234753D01*
X258080Y-234739D01*
X257849Y-234724D01*
X257590Y-234699D01*
X257507Y-234702D01*
X257427Y-234697D01*
X194693Y-234697D01*
X194621Y-234701D01*
X194548Y-234699D01*
X194303Y-234721D01*
X194058Y-234737D01*
X193986Y-234750D01*
X193913Y-234757D01*
X193673Y-234810D01*
X193432Y-234856D01*
X193362Y-234879D01*
X193291Y-234894D01*
X193060Y-234977D01*
X192826Y-235053D01*
X192760Y-235084D01*
X192691Y-235108D01*
X192472Y-235219D01*
X192249Y-235324D01*
X192187Y-235363D01*
X192122Y-235396D01*
X191919Y-235533D01*
X191711Y-235665D01*
X191655Y-235711D01*
X191594Y-235752D01*
X191420Y-235905D01*
X191220Y-236070D01*
X191162Y-236131D01*
X191102Y-236184D01*
X162524Y-264762D01*
X162476Y-264817D01*
X162423Y-264866D01*
X162265Y-265056D01*
X162103Y-265240D01*
X162062Y-265300D01*
X162015Y-265356D01*
X161883Y-265563D01*
X161745Y-265767D01*
X161712Y-265832D01*
X161672Y-265893D01*
X161567Y-266115D01*
X161455Y-266334D01*
X161431Y-266403D01*
X161399Y-266469D01*
X161323Y-266703D01*
X161239Y-266934D01*
X161223Y-267005D01*
X161200Y-267074D01*
X161154Y-267315D01*
X161100Y-267555D01*
X161093Y-267628D01*
X161079Y-267700D01*
X161064Y-267931D01*
X161039Y-268190D01*
X161042Y-268273D01*
X161037Y-268353D01*
X161037Y-295653D01*
X161044Y-295766D01*
X161042Y-295880D01*
X161064Y-296084D01*
X161077Y-296288D01*
X161098Y-296400D01*
X161110Y-296514D01*
X161158Y-296713D01*
X161196Y-296914D01*
X161231Y-297023D01*
X161257Y-297134D01*
X161329Y-297325D01*
X161393Y-297520D01*
X161441Y-297624D01*
X161481Y-297730D01*
X161576Y-297911D01*
X161664Y-298097D01*
X161725Y-298193D01*
X161778Y-298294D01*
X161895Y-298462D01*
X162005Y-298635D01*
X162077Y-298723D01*
X162143Y-298816D01*
X162280Y-298968D01*
X162410Y-299126D01*
X162493Y-299204D01*
X162570Y-299289D01*
X162725Y-299423D01*
X162874Y-299563D01*
X162966Y-299630D01*
X163053Y-299704D01*
X163224Y-299818D01*
X163389Y-299938D01*
X163489Y-299993D01*
X163584Y-300056D01*
X163761Y-300143D01*
X163947Y-300246D01*
X164064Y-300292D01*
X164172Y-300345D01*
X165250Y-300792D01*
X169108Y-304650D01*
X171197Y-309692D01*
X171197Y-315148D01*
X169108Y-320190D01*
X167770Y-321528D01*
X167668Y-321645D01*
X167558Y-321754D01*
X167457Y-321883D01*
X167349Y-322006D01*
X167261Y-322134D01*
X167166Y-322257D01*
X167083Y-322398D01*
X166990Y-322533D01*
X166920Y-322671D01*
X166841Y-322804D01*
X166775Y-322954D01*
X166701Y-323101D01*
X166648Y-323247D01*
X166586Y-323389D01*
X166540Y-323546D01*
X166485Y-323700D01*
X166451Y-323851D01*
X166407Y-324000D01*
X166381Y-324162D01*
X166345Y-324322D01*
X166331Y-324476D01*
X166306Y-324629D01*
X166300Y-324793D01*
X166285Y-324956D01*
X166290Y-325111D01*
X166284Y-325266D01*
X166299Y-325429D01*
X166304Y-325593D01*
X166328Y-325746D01*
X166343Y-325900D01*
X166378Y-326060D01*
X166403Y-326222D01*
X166446Y-326371D01*
X166480Y-326522D01*
X166535Y-326677D01*
X166580Y-326834D01*
X166642Y-326977D01*
X166694Y-327123D01*
X166768Y-327269D01*
X166833Y-327419D01*
X166911Y-327553D01*
X166981Y-327691D01*
X167073Y-327827D01*
X167156Y-327968D01*
X167251Y-328091D01*
X167338Y-328219D01*
X167443Y-328339D01*
X167546Y-328472D01*
X167665Y-328592D01*
X167770Y-328712D01*
X169108Y-330050D01*
X171197Y-335092D01*
X171197Y-340548D01*
X169108Y-345590D01*
X167770Y-346928D01*
X167668Y-347045D01*
X167558Y-347154D01*
X167457Y-347283D01*
X167349Y-347406D01*
X167261Y-347534D01*
X167166Y-347657D01*
X167083Y-347798D01*
X166990Y-347933D01*
X166920Y-348071D01*
X166841Y-348204D01*
X166775Y-348354D01*
X166701Y-348501D01*
X166648Y-348647D01*
X166586Y-348789D01*
X166540Y-348946D01*
X166485Y-349100D01*
X166451Y-349251D01*
X166407Y-349400D01*
X166381Y-349562D01*
X166345Y-349722D01*
X166331Y-349876D01*
X166306Y-350029D01*
X166300Y-350193D01*
X166285Y-350356D01*
X166290Y-350511D01*
X166284Y-350666D01*
X166299Y-350829D01*
X166304Y-350993D01*
X166328Y-351146D01*
X166343Y-351300D01*
X166378Y-351460D01*
X166403Y-351622D01*
X166446Y-351771D01*
X166480Y-351922D01*
X166535Y-352077D01*
X166580Y-352234D01*
X166642Y-352377D01*
X166694Y-352523D01*
X166768Y-352669D01*
X166833Y-352819D01*
X166911Y-352953D01*
X166981Y-353091D01*
X167073Y-353227D01*
X167156Y-353368D01*
X167251Y-353491D01*
X167338Y-353619D01*
X167443Y-353739D01*
X167546Y-353872D01*
X167665Y-353992D01*
X167770Y-354112D01*
X169108Y-355450D01*
X171197Y-360492D01*
X171197Y-365948D01*
X169108Y-370990D01*
X165255Y-374843D01*
X165153Y-374959D01*
X165043Y-375069D01*
X164942Y-375198D01*
X164834Y-375321D01*
X164747Y-375449D01*
X164652Y-375571D01*
X164568Y-375712D01*
X164476Y-375848D01*
X164405Y-375986D01*
X164326Y-376119D01*
X164261Y-376269D01*
X164186Y-376415D01*
X164134Y-376561D01*
X164072Y-376703D01*
X164026Y-376860D01*
X163970Y-377015D01*
X163936Y-377166D01*
X163893Y-377315D01*
X163867Y-377476D01*
X163831Y-377636D01*
X163816Y-377791D01*
X163792Y-377944D01*
X163786Y-378108D01*
X163770Y-378271D01*
X163775Y-378425D01*
X163770Y-378581D01*
X163785Y-378744D01*
X163790Y-378907D01*
X163814Y-379061D01*
X163828Y-379215D01*
X163863Y-379375D01*
X163889Y-379537D01*
X163932Y-379686D01*
X163965Y-379837D01*
X164020Y-379991D01*
X164066Y-380149D01*
X164127Y-380291D01*
X164179Y-380437D01*
X164253Y-380583D01*
X164318Y-380734D01*
X164397Y-380868D01*
X164467Y-381006D01*
X164558Y-381142D01*
X164642Y-381283D01*
X164736Y-381405D01*
X164823Y-381534D01*
X164928Y-381654D01*
X165031Y-381787D01*
X165151Y-381907D01*
X165215Y-381980D01*
X166170Y-383295D01*
X166296Y-383541D01*
X149860Y-383541D01*
X149706Y-383550D01*
X149551Y-383550D01*
X149388Y-383570D01*
X149224Y-383581D01*
X149073Y-383609D01*
X148919Y-383629D01*
X148759Y-383669D01*
X148599Y-383700D01*
X148451Y-383748D01*
X148301Y-383786D01*
X148149Y-383846D01*
X147993Y-383896D01*
X147852Y-383962D01*
X147708Y-384019D01*
X147564Y-384098D01*
X147416Y-384167D01*
X147285Y-384250D01*
X147149Y-384325D01*
X147016Y-384421D01*
X146878Y-384508D01*
X146758Y-384607D01*
X146633Y-384698D01*
X146513Y-384810D01*
X146387Y-384914D01*
X146280Y-385027D01*
X146167Y-385133D01*
X146062Y-385259D01*
X145950Y-385378D01*
X145859Y-385504D01*
X145760Y-385623D01*
X145671Y-385761D01*
X145575Y-385893D01*
X145500Y-386029D01*
X145417Y-386160D01*
X145346Y-386308D01*
X145267Y-386451D01*
X145210Y-386595D01*
X145144Y-386735D01*
X145092Y-386891D01*
X145032Y-387043D01*
X144993Y-387193D01*
X144945Y-387341D01*
X144914Y-387501D01*
X144873Y-387660D01*
X144853Y-387814D01*
X144823Y-387966D01*
X144813Y-388125D01*
X144792Y-388292D01*
X144791Y-388461D01*
X144781Y-388620D01*
X144791Y-388775D01*
X144791Y-388929D01*
X144791Y-388930D01*
X144811Y-389093D01*
X144821Y-389256D01*
X144850Y-389408D01*
X144869Y-389562D01*
X144910Y-389721D01*
X144940Y-389882D01*
X144988Y-390029D01*
X145026Y-390179D01*
X145086Y-390332D01*
X145137Y-390488D01*
X145203Y-390628D01*
X145260Y-390772D01*
X145338Y-390916D01*
X145408Y-391065D01*
X145491Y-391195D01*
X145565Y-391331D01*
X145661Y-391464D01*
X145749Y-391603D01*
X145848Y-391722D01*
X145938Y-391848D01*
X146050Y-391967D01*
X146155Y-392094D01*
X146268Y-392200D01*
X146373Y-392313D01*
X146499Y-392418D01*
X146619Y-392531D01*
X146744Y-392622D01*
X146863Y-392721D01*
X147001Y-392809D01*
X147134Y-392906D01*
X147269Y-392980D01*
X147400Y-393064D01*
X147548Y-393134D01*
X147692Y-393213D01*
X147836Y-393270D01*
X147976Y-393337D01*
X148132Y-393388D01*
X148284Y-393449D01*
X148434Y-393487D01*
X148581Y-393536D01*
X148742Y-393567D01*
X148901Y-393608D01*
X149054Y-393628D01*
X149206Y-393657D01*
X149365Y-393667D01*
X149533Y-393689D01*
X149701Y-393689D01*
X149860Y-393699D01*
X166296Y-393699D01*
X166170Y-393945D01*
X165565Y-394778D01*
X165481Y-394911D01*
X165389Y-395038D01*
X165310Y-395179D01*
X165224Y-395316D01*
X165157Y-395458D01*
X165081Y-395595D01*
X165021Y-395746D01*
X164952Y-395893D01*
X164904Y-396042D01*
X164846Y-396188D01*
X164805Y-396345D01*
X164755Y-396499D01*
X164726Y-396653D01*
X164686Y-396804D01*
X164666Y-396965D01*
X164635Y-397125D01*
X164625Y-397281D01*
X164605Y-397436D01*
X164605Y-397599D01*
X164595Y-397760D01*
X164605Y-397917D01*
X164604Y-398074D01*
X164624Y-398234D01*
X164634Y-398396D01*
X164664Y-398550D01*
X164683Y-398706D01*
X164723Y-398863D01*
X164753Y-399022D01*
X164801Y-399171D01*
X164840Y-399323D01*
X164900Y-399474D01*
X164949Y-399628D01*
X165016Y-399770D01*
X165073Y-399916D01*
X165151Y-400059D01*
X165220Y-400205D01*
X165304Y-400337D01*
X165379Y-400475D01*
X165474Y-400607D01*
X165561Y-400744D01*
X165660Y-400865D01*
X165752Y-400992D01*
X165863Y-401110D01*
X165966Y-401235D01*
X166080Y-401343D01*
X166187Y-401457D01*
X166312Y-401561D01*
X166430Y-401672D01*
X166556Y-401764D01*
X166677Y-401865D01*
X166813Y-401952D01*
X166945Y-402048D01*
X167082Y-402123D01*
X167214Y-402208D01*
X167361Y-402277D01*
X167502Y-402356D01*
X167648Y-402413D01*
X167790Y-402481D01*
X167944Y-402531D01*
X168094Y-402591D01*
X168246Y-402631D01*
X168395Y-402680D01*
X168554Y-402710D01*
X168711Y-402751D01*
X168866Y-402771D01*
X169020Y-402801D01*
X169178Y-402811D01*
X169343Y-402832D01*
X169513Y-402833D01*
X169674Y-402843D01*
X177483Y-402843D01*
X181591Y-404545D01*
X185450Y-408403D01*
X241772Y-464726D01*
X241950Y-464882D01*
X242122Y-465045D01*
X242189Y-465093D01*
X242250Y-465148D01*
X242446Y-465281D01*
X242638Y-465420D01*
X242709Y-465460D01*
X242777Y-465506D01*
X242989Y-465614D01*
X243195Y-465728D01*
X243272Y-465758D01*
X243345Y-465795D01*
X243568Y-465876D01*
X243788Y-465963D01*
X243867Y-465984D01*
X243944Y-466011D01*
X244175Y-466063D01*
X244404Y-466122D01*
X244486Y-466133D01*
X244566Y-466151D01*
X244801Y-466173D01*
X245036Y-466203D01*
X245119Y-466203D01*
X245200Y-466211D01*
X245436Y-466204D01*
X245674Y-466204D01*
X245755Y-466194D01*
X245837Y-466192D01*
X246071Y-466155D01*
X246306Y-466126D01*
X246385Y-466105D01*
X246466Y-466093D01*
X246694Y-466027D01*
X246923Y-465969D01*
X246999Y-465939D01*
X247078Y-465916D01*
X247296Y-465822D01*
X247516Y-465735D01*
X247588Y-465696D01*
X247663Y-465664D01*
X247867Y-465543D01*
X248075Y-465430D01*
X248142Y-465382D01*
X248212Y-465340D01*
X248400Y-465195D01*
X248592Y-465057D01*
X248651Y-465001D01*
X248716Y-464950D01*
X248884Y-464783D01*
X249057Y-464622D01*
X249110Y-464558D01*
X249168Y-464501D01*
X249313Y-464314D01*
X249465Y-464132D01*
X249509Y-464063D01*
X249559Y-463998D01*
X249680Y-463794D01*
X249808Y-463595D01*
X249843Y-463521D01*
X249885Y-463450D01*
X249979Y-463234D01*
X250081Y-463019D01*
X250106Y-462941D01*
X250139Y-462866D01*
X250179Y-462729D01*
X252532Y-457050D01*
X253870Y-455712D01*
X253972Y-455595D01*
X254082Y-455486D01*
X254183Y-455357D01*
X254291Y-455234D01*
X254379Y-455106D01*
X254474Y-454983D01*
X254557Y-454842D01*
X254650Y-454707D01*
X254720Y-454569D01*
X254799Y-454436D01*
X254865Y-454285D01*
X254939Y-454139D01*
X254992Y-453994D01*
X255054Y-453851D01*
X255100Y-453694D01*
X255155Y-453540D01*
X255189Y-453389D01*
X255233Y-453240D01*
X255259Y-453078D01*
X255295Y-452918D01*
X255309Y-452764D01*
X255334Y-452611D01*
X255340Y-452447D01*
X255355Y-452284D01*
X255350Y-452129D01*
X255356Y-451974D01*
X255341Y-451811D01*
X255336Y-451647D01*
X255312Y-451494D01*
X255297Y-451340D01*
X255262Y-451180D01*
X255237Y-451018D01*
X255194Y-450869D01*
X255160Y-450718D01*
X255105Y-450563D01*
X255060Y-450406D01*
X254998Y-450263D01*
X254946Y-450117D01*
X254872Y-449971D01*
X254807Y-449821D01*
X254729Y-449687D01*
X254659Y-449549D01*
X254567Y-449413D01*
X254484Y-449272D01*
X254389Y-449149D01*
X254303Y-449021D01*
X254197Y-448901D01*
X254094Y-448768D01*
X253975Y-448648D01*
X253870Y-448528D01*
X252532Y-447190D01*
X250443Y-442148D01*
X250443Y-436692D01*
X252532Y-431650D01*
X253870Y-430312D01*
X253972Y-430195D01*
X254082Y-430086D01*
X254183Y-429957D01*
X254291Y-429834D01*
X254379Y-429706D01*
X254474Y-429583D01*
X254557Y-429442D01*
X254650Y-429307D01*
X254720Y-429169D01*
X254799Y-429036D01*
X254865Y-428885D01*
X254939Y-428739D01*
X254992Y-428594D01*
X255054Y-428451D01*
X255100Y-428294D01*
X255155Y-428140D01*
X255189Y-427989D01*
X255233Y-427840D01*
X255259Y-427678D01*
X255295Y-427518D01*
X255309Y-427364D01*
X255334Y-427211D01*
X255340Y-427047D01*
X255355Y-426884D01*
X255350Y-426729D01*
X255356Y-426574D01*
X255341Y-426411D01*
X255336Y-426247D01*
X255312Y-426094D01*
X255297Y-425940D01*
X255262Y-425780D01*
X255237Y-425618D01*
X255194Y-425469D01*
X255160Y-425318D01*
X255105Y-425163D01*
X255060Y-425006D01*
X254998Y-424863D01*
X254946Y-424717D01*
X254872Y-424571D01*
X254807Y-424421D01*
X254729Y-424287D01*
X254659Y-424149D01*
X254567Y-424013D01*
X254484Y-423872D01*
X254389Y-423749D01*
X254303Y-423621D01*
X254197Y-423501D01*
X254094Y-423368D01*
X253975Y-423248D01*
X253870Y-423128D01*
X252532Y-421790D01*
X250443Y-416748D01*
X250443Y-411292D01*
X252532Y-406250D01*
X253870Y-404912D01*
X253972Y-404795D01*
X254082Y-404686D01*
X254183Y-404557D01*
X254291Y-404434D01*
X254379Y-404306D01*
X254474Y-404183D01*
X254557Y-404042D01*
X254650Y-403907D01*
X254720Y-403769D01*
X254799Y-403636D01*
X254865Y-403485D01*
X254939Y-403339D01*
X254992Y-403194D01*
X255054Y-403051D01*
X255100Y-402894D01*
X255155Y-402740D01*
X255189Y-402589D01*
X255233Y-402440D01*
X255259Y-402278D01*
X255295Y-402118D01*
X255309Y-401964D01*
X255334Y-401811D01*
X255340Y-401647D01*
X255355Y-401484D01*
X255350Y-401329D01*
X255356Y-401174D01*
X255341Y-401011D01*
X255336Y-400847D01*
X255312Y-400694D01*
X255297Y-400540D01*
X255262Y-400380D01*
X255237Y-400218D01*
X255194Y-400069D01*
X255160Y-399918D01*
X255105Y-399763D01*
X255060Y-399606D01*
X254998Y-399463D01*
X254946Y-399317D01*
X254872Y-399171D01*
X254807Y-399021D01*
X254729Y-398887D01*
X254659Y-398749D01*
X254567Y-398613D01*
X254484Y-398472D01*
X254389Y-398349D01*
X254303Y-398221D01*
X254197Y-398101D01*
X254094Y-397968D01*
X253975Y-397848D01*
X253870Y-397728D01*
X252532Y-396390D01*
X250443Y-391348D01*
X250443Y-385892D01*
X252532Y-380850D01*
X256385Y-376997D01*
X256487Y-376881D01*
X256597Y-376771D01*
X256698Y-376642D01*
X256806Y-376519D01*
X256893Y-376391D01*
X256988Y-376269D01*
X257072Y-376128D01*
X257164Y-375992D01*
X257235Y-375854D01*
X257314Y-375721D01*
X257379Y-375571D01*
X257454Y-375425D01*
X257506Y-375279D01*
X257568Y-375137D01*
X257614Y-374980D01*
X257670Y-374825D01*
X257704Y-374674D01*
X257747Y-374525D01*
X257773Y-374364D01*
X257809Y-374204D01*
X257824Y-374049D01*
X257848Y-373896D01*
X257854Y-373732D01*
X257870Y-373569D01*
X257865Y-373415D01*
X257870Y-373259D01*
X257855Y-373096D01*
X257850Y-372933D01*
X257826Y-372779D01*
X257812Y-372625D01*
X257777Y-372465D01*
X257751Y-372303D01*
X257708Y-372154D01*
X257675Y-372003D01*
X257620Y-371849D01*
X257574Y-371691D01*
X257513Y-371549D01*
X257461Y-371403D01*
X257387Y-371257D01*
X257322Y-371106D01*
X257243Y-370972D01*
X257173Y-370834D01*
X257082Y-370698D01*
X256998Y-370557D01*
X256904Y-370435D01*
X256817Y-370306D01*
X256712Y-370186D01*
X256609Y-370053D01*
X256489Y-369933D01*
X256425Y-369860D01*
X255470Y-368545D01*
X255344Y-368299D01*
X264160Y-368299D01*
X272976Y-368299D01*
X272850Y-368545D01*
X271896Y-369859D01*
X271833Y-369930D01*
X271723Y-370040D01*
X271622Y-370169D01*
X271514Y-370292D01*
X271427Y-370420D01*
X271332Y-370542D01*
X271248Y-370683D01*
X271156Y-370818D01*
X271086Y-370957D01*
X271006Y-371090D01*
X270941Y-371240D01*
X270867Y-371386D01*
X270814Y-371532D01*
X270752Y-371674D01*
X270706Y-371831D01*
X270650Y-371985D01*
X270616Y-372137D01*
X270573Y-372286D01*
X270547Y-372447D01*
X270511Y-372607D01*
X270496Y-372761D01*
X270472Y-372915D01*
X270466Y-373079D01*
X270450Y-373241D01*
X270455Y-373396D01*
X270450Y-373551D01*
X270465Y-373714D01*
X270470Y-373878D01*
X270494Y-374031D01*
X270508Y-374186D01*
X270543Y-374346D01*
X270569Y-374508D01*
X270612Y-374657D01*
X270645Y-374808D01*
X270700Y-374962D01*
X270746Y-375120D01*
X270807Y-375262D01*
X270859Y-375408D01*
X270933Y-375554D01*
X270998Y-375705D01*
X271077Y-375838D01*
X271147Y-375977D01*
X271238Y-376112D01*
X271321Y-376254D01*
X271416Y-376376D01*
X271503Y-376505D01*
X271608Y-376625D01*
X271711Y-376758D01*
X271830Y-376877D01*
X271935Y-376997D01*
X275788Y-380850D01*
X277877Y-385892D01*
X277877Y-391348D01*
X275788Y-396390D01*
X274450Y-397728D01*
X274348Y-397845D01*
X274238Y-397954D01*
X274137Y-398083D01*
X274029Y-398206D01*
X273941Y-398334D01*
X273846Y-398457D01*
X273763Y-398598D01*
X273670Y-398733D01*
X273600Y-398871D01*
X273521Y-399004D01*
X273455Y-399154D01*
X273381Y-399301D01*
X273328Y-399447D01*
X273266Y-399589D01*
X273220Y-399746D01*
X273165Y-399900D01*
X273131Y-400051D01*
X273087Y-400200D01*
X273061Y-400362D01*
X273025Y-400522D01*
X273011Y-400676D01*
X272986Y-400829D01*
X272980Y-400993D01*
X272965Y-401156D01*
X272970Y-401311D01*
X272964Y-401466D01*
X272979Y-401629D01*
X272984Y-401793D01*
X273008Y-401946D01*
X273023Y-402100D01*
X273058Y-402260D01*
X273083Y-402422D01*
X273126Y-402571D01*
X273160Y-402722D01*
X273215Y-402877D01*
X273260Y-403034D01*
X273322Y-403177D01*
X273374Y-403323D01*
X273448Y-403469D01*
X273513Y-403619D01*
X273591Y-403753D01*
X273661Y-403891D01*
X273753Y-404027D01*
X273836Y-404168D01*
X273931Y-404291D01*
X274018Y-404419D01*
X274123Y-404539D01*
X274226Y-404672D01*
X274345Y-404792D01*
X274450Y-404912D01*
X275788Y-406250D01*
X277877Y-411292D01*
X277877Y-416748D01*
X275788Y-421790D01*
X274450Y-423128D01*
X274348Y-423245D01*
X274238Y-423354D01*
X274137Y-423483D01*
X274029Y-423606D01*
X273941Y-423734D01*
X273846Y-423857D01*
X273763Y-423998D01*
X273670Y-424133D01*
X273600Y-424271D01*
X273521Y-424404D01*
X273455Y-424554D01*
X273381Y-424701D01*
X273328Y-424847D01*
X273266Y-424989D01*
X273220Y-425146D01*
X273165Y-425300D01*
X273131Y-425451D01*
X273087Y-425600D01*
X273061Y-425762D01*
X273025Y-425922D01*
X273011Y-426076D01*
X272986Y-426229D01*
X272980Y-426393D01*
X272965Y-426556D01*
X272970Y-426711D01*
X272964Y-426866D01*
X272979Y-427029D01*
X272984Y-427193D01*
X273008Y-427346D01*
X273023Y-427500D01*
X273058Y-427660D01*
X273083Y-427822D01*
X273126Y-427971D01*
X273160Y-428122D01*
X273215Y-428277D01*
X273260Y-428434D01*
X273322Y-428577D01*
X273374Y-428723D01*
X273448Y-428869D01*
X273513Y-429019D01*
X273591Y-429153D01*
X273661Y-429291D01*
X273753Y-429427D01*
X273836Y-429568D01*
X273931Y-429691D01*
X274018Y-429819D01*
X274123Y-429939D01*
X274226Y-430072D01*
X274345Y-430192D01*
X274450Y-430312D01*
X275788Y-431650D01*
X277877Y-436692D01*
X277877Y-442148D01*
X275788Y-447190D01*
X274450Y-448528D01*
X274348Y-448645D01*
X274238Y-448754D01*
X274137Y-448883D01*
X274029Y-449006D01*
X273941Y-449134D01*
X273846Y-449257D01*
X273763Y-449398D01*
X273670Y-449533D01*
X273600Y-449671D01*
X273521Y-449804D01*
X273455Y-449954D01*
X273381Y-450101D01*
X273328Y-450247D01*
X273266Y-450389D01*
X273220Y-450546D01*
X273165Y-450700D01*
X273131Y-450851D01*
X273087Y-451000D01*
X273061Y-451162D01*
X273025Y-451322D01*
X273011Y-451476D01*
X272986Y-451629D01*
X272980Y-451793D01*
X272965Y-451956D01*
X272970Y-452111D01*
X272964Y-452266D01*
X272979Y-452429D01*
X272984Y-452593D01*
X273008Y-452746D01*
X273023Y-452900D01*
X273058Y-453060D01*
X273083Y-453222D01*
X273126Y-453371D01*
X273160Y-453522D01*
X273215Y-453677D01*
X273260Y-453834D01*
X273322Y-453977D01*
X273374Y-454123D01*
X273448Y-454269D01*
X273513Y-454419D01*
X273591Y-454553D01*
X273661Y-454691D01*
X273753Y-454827D01*
X273836Y-454968D01*
X273931Y-455091D01*
X274018Y-455219D01*
X274123Y-455339D01*
X274226Y-455472D01*
X274345Y-455592D01*
X274450Y-455712D01*
X275788Y-457050D01*
X277877Y-462092D01*
X277877Y-467548D01*
X275788Y-472590D01*
X274450Y-473928D01*
X274348Y-474045D01*
X274238Y-474154D01*
X274137Y-474283D01*
X274029Y-474406D01*
X273941Y-474534D01*
X273846Y-474657D01*
X273763Y-474798D01*
X273670Y-474933D01*
X273600Y-475071D01*
X273521Y-475204D01*
X273455Y-475355D01*
X273381Y-475501D01*
X273328Y-475646D01*
X273266Y-475789D01*
X273220Y-475946D01*
X273165Y-476100D01*
X273131Y-476251D01*
X273087Y-476400D01*
X273061Y-476562D01*
X273025Y-476722D01*
X273011Y-476876D01*
X272986Y-477029D01*
X272980Y-477193D01*
X272965Y-477356D01*
X272970Y-477511D01*
X272964Y-477666D01*
X272979Y-477829D01*
X272984Y-477993D01*
X273008Y-478146D01*
X273023Y-478300D01*
X273058Y-478460D01*
X273083Y-478622D01*
X273126Y-478771D01*
X273160Y-478922D01*
X273215Y-479077D01*
X273260Y-479234D01*
X273322Y-479377D01*
X273374Y-479523D01*
X273448Y-479669D01*
X273513Y-479819D01*
X273591Y-479953D01*
X273661Y-480091D01*
X273753Y-480227D01*
X273836Y-480368D01*
X273931Y-480491D01*
X274017Y-480619D01*
X274123Y-480739D01*
X274226Y-480872D01*
X274345Y-480992D01*
X274450Y-481112D01*
X275788Y-482450D01*
X277877Y-487492D01*
X277877Y-492948D01*
X275788Y-497990D01*
X274450Y-499328D01*
X274348Y-499445D01*
X274238Y-499554D01*
X274137Y-499683D01*
X274029Y-499806D01*
X273941Y-499934D01*
X273846Y-500057D01*
X273763Y-500198D01*
X273670Y-500333D01*
X273600Y-500471D01*
X273521Y-500604D01*
X273455Y-500755D01*
X273381Y-500901D01*
X273328Y-501046D01*
X273266Y-501189D01*
X273220Y-501346D01*
X273165Y-501500D01*
X273131Y-501651D01*
X273087Y-501800D01*
X273061Y-501962D01*
X273025Y-502122D01*
X273011Y-502276D01*
X272986Y-502429D01*
X272980Y-502593D01*
X272965Y-502756D01*
X272970Y-502911D01*
X272964Y-503066D01*
X272979Y-503229D01*
X272984Y-503393D01*
X273008Y-503546D01*
X273023Y-503700D01*
X273058Y-503860D01*
X273083Y-504022D01*
X273126Y-504171D01*
X273160Y-504322D01*
X273215Y-504477D01*
X273260Y-504634D01*
X273322Y-504777D01*
X273374Y-504923D01*
X273448Y-505069D01*
X273513Y-505219D01*
X273591Y-505353D01*
X273661Y-505491D01*
X273753Y-505627D01*
X273836Y-505768D01*
X273931Y-505891D01*
X274017Y-506019D01*
X274123Y-506139D01*
X274226Y-506272D01*
X274345Y-506392D01*
X274450Y-506512D01*
X275788Y-507850D01*
X277877Y-512892D01*
X277877Y-518348D01*
X275788Y-523390D01*
X274450Y-524728D01*
X274348Y-524845D01*
X274238Y-524954D01*
X274137Y-525083D01*
X274029Y-525206D01*
X273941Y-525334D01*
X273846Y-525457D01*
X273763Y-525598D01*
X273670Y-525733D01*
X273600Y-525871D01*
X273521Y-526004D01*
X273455Y-526155D01*
X273381Y-526301D01*
X273328Y-526446D01*
X273266Y-526589D01*
X273220Y-526746D01*
X273165Y-526900D01*
X273131Y-527051D01*
X273087Y-527200D01*
X273061Y-527362D01*
X273025Y-527522D01*
X273011Y-527676D01*
X272986Y-527829D01*
X272980Y-527993D01*
X272965Y-528156D01*
X272970Y-528311D01*
X272964Y-528466D01*
X272979Y-528629D01*
X272984Y-528793D01*
X273008Y-528946D01*
X273023Y-529100D01*
X273058Y-529260D01*
X273083Y-529422D01*
X273126Y-529571D01*
X273160Y-529722D01*
X273215Y-529877D01*
X273260Y-530034D01*
X273322Y-530177D01*
X273374Y-530323D01*
X273448Y-530469D01*
X273513Y-530619D01*
X273591Y-530753D01*
X273661Y-530891D01*
X273753Y-531027D01*
X273836Y-531168D01*
X273931Y-531291D01*
X274017Y-531419D01*
X274123Y-531539D01*
X274226Y-531672D01*
X274345Y-531792D01*
X274450Y-531912D01*
X275788Y-533250D01*
X277877Y-538292D01*
X277877Y-543748D01*
X275788Y-548790D01*
X274450Y-550128D01*
X274348Y-550245D01*
X274238Y-550354D01*
X274137Y-550483D01*
X274029Y-550606D01*
X273941Y-550734D01*
X273846Y-550857D01*
X273763Y-550998D01*
X273670Y-551133D01*
X273600Y-551271D01*
X273521Y-551404D01*
X273455Y-551555D01*
X273381Y-551701D01*
X273328Y-551846D01*
X273266Y-551989D01*
X273220Y-552146D01*
X273165Y-552300D01*
X273131Y-552451D01*
X273087Y-552600D01*
X273061Y-552762D01*
X273025Y-552922D01*
X273011Y-553076D01*
X272986Y-553229D01*
X272980Y-553393D01*
X272965Y-553556D01*
X272970Y-553711D01*
X272964Y-553866D01*
X272979Y-554029D01*
X272984Y-554193D01*
X273008Y-554346D01*
X273023Y-554500D01*
X273058Y-554660D01*
X273083Y-554822D01*
X273126Y-554971D01*
X273160Y-555122D01*
X273215Y-555277D01*
X273260Y-555434D01*
X273322Y-555577D01*
X273374Y-555723D01*
X273448Y-555869D01*
X273513Y-556019D01*
X273591Y-556153D01*
X273661Y-556291D01*
X273753Y-556427D01*
X273836Y-556568D01*
X273931Y-556691D01*
X274017Y-556819D01*
X274123Y-556939D01*
X274226Y-557072D01*
X274345Y-557192D01*
X274450Y-557312D01*
X275788Y-558650D01*
X277877Y-563692D01*
X277877Y-569148D01*
X275788Y-574190D01*
X274450Y-575528D01*
X274348Y-575645D01*
X274238Y-575754D01*
X274137Y-575883D01*
X274029Y-576006D01*
X273941Y-576134D01*
X273846Y-576257D01*
X273763Y-576398D01*
X273670Y-576533D01*
X273600Y-576671D01*
X273521Y-576804D01*
X273455Y-576955D01*
X273381Y-577101D01*
X273328Y-577246D01*
X273266Y-577389D01*
X273220Y-577546D01*
X273165Y-577700D01*
X273131Y-577851D01*
X273087Y-578000D01*
X273061Y-578162D01*
X273025Y-578322D01*
X273011Y-578476D01*
X272986Y-578629D01*
X272980Y-578793D01*
X272965Y-578956D01*
X272970Y-579111D01*
X272964Y-579266D01*
X272979Y-579429D01*
X272984Y-579593D01*
X273008Y-579746D01*
X273023Y-579900D01*
X273058Y-580060D01*
X273083Y-580222D01*
X273126Y-580371D01*
X273160Y-580522D01*
X273215Y-580677D01*
X273260Y-580834D01*
X273322Y-580977D01*
X273374Y-581123D01*
X273448Y-581269D01*
X273513Y-581419D01*
X273591Y-581553D01*
X273661Y-581691D01*
X273753Y-581827D01*
X273836Y-581968D01*
X273931Y-582091D01*
X274017Y-582219D01*
X274123Y-582339D01*
X274226Y-582472D01*
X274345Y-582592D01*
X274450Y-582712D01*
X275788Y-584050D01*
X277877Y-589092D01*
X277877Y-594548D01*
X275788Y-599590D01*
X274450Y-600928D01*
X274348Y-601045D01*
X274238Y-601154D01*
X274137Y-601283D01*
X274029Y-601406D01*
X273941Y-601534D01*
X273846Y-601657D01*
X273763Y-601798D01*
X273670Y-601933D01*
X273600Y-602071D01*
X273521Y-602204D01*
X273455Y-602355D01*
X273381Y-602501D01*
X273328Y-602646D01*
X273266Y-602789D01*
X273220Y-602946D01*
X273165Y-603100D01*
X273131Y-603251D01*
X273087Y-603400D01*
X273061Y-603562D01*
X273025Y-603722D01*
X273011Y-603876D01*
X272986Y-604029D01*
X272980Y-604193D01*
X272965Y-604356D01*
X272970Y-604511D01*
X272964Y-604666D01*
X272979Y-604829D01*
X272984Y-604993D01*
X273008Y-605146D01*
X273023Y-605300D01*
X273058Y-605460D01*
X273083Y-605622D01*
X273126Y-605771D01*
X273160Y-605922D01*
X273215Y-606077D01*
X273260Y-606234D01*
X273322Y-606377D01*
X273374Y-606523D01*
X273448Y-606669D01*
X273513Y-606819D01*
X273591Y-606953D01*
X273661Y-607091D01*
X273753Y-607227D01*
X273836Y-607368D01*
X273931Y-607491D01*
X274017Y-607619D01*
X274123Y-607739D01*
X274226Y-607872D01*
X274345Y-607992D01*
X274450Y-608112D01*
X275788Y-609450D01*
X277877Y-614492D01*
X277877Y-619948D01*
X275788Y-624990D01*
X274450Y-626328D01*
X274348Y-626445D01*
X274238Y-626554D01*
X274137Y-626683D01*
X274029Y-626806D01*
X273941Y-626934D01*
X273846Y-627057D01*
X273763Y-627198D01*
X273670Y-627333D01*
X273600Y-627471D01*
X273521Y-627604D01*
X273455Y-627755D01*
X273381Y-627901D01*
X273328Y-628046D01*
X273266Y-628189D01*
X273220Y-628346D01*
X273165Y-628500D01*
X273131Y-628651D01*
X273087Y-628800D01*
X273061Y-628962D01*
X273025Y-629122D01*
X273011Y-629276D01*
X272986Y-629429D01*
X272980Y-629593D01*
X272965Y-629756D01*
X272970Y-629911D01*
X272964Y-630066D01*
X272979Y-630229D01*
X272984Y-630393D01*
X273008Y-630546D01*
X273023Y-630700D01*
X273058Y-630860D01*
X273083Y-631022D01*
X273126Y-631171D01*
X273160Y-631322D01*
X273215Y-631477D01*
X273260Y-631634D01*
X273322Y-631777D01*
X273374Y-631923D01*
X273448Y-632069D01*
X273513Y-632219D01*
X273591Y-632353D01*
X273661Y-632491D01*
X273753Y-632627D01*
X273836Y-632768D01*
X273931Y-632891D01*
X274017Y-633019D01*
X274123Y-633139D01*
X274226Y-633272D01*
X274345Y-633392D01*
X274450Y-633512D01*
X275788Y-634850D01*
X277877Y-639892D01*
X277877Y-645348D01*
X275788Y-650390D01*
X271930Y-654248D01*
X266888Y-656337D01*
X261432Y-656337D01*
X256233Y-654183D01*
X256203Y-654173D01*
X256174Y-654159D01*
X255901Y-654070D01*
X255630Y-653977D01*
X255599Y-653970D01*
X255568Y-653960D01*
X255287Y-653906D01*
X255006Y-653848D01*
X254974Y-653845D01*
X254943Y-653839D01*
X254692Y-653823D01*
X254371Y-653797D01*
X254329Y-653799D01*
X254289Y-653797D01*
X232793Y-653797D01*
X232721Y-653801D01*
X232648Y-653799D01*
X232403Y-653821D01*
X232158Y-653837D01*
X232086Y-653850D01*
X232013Y-653857D01*
X231773Y-653910D01*
X231532Y-653956D01*
X231462Y-653979D01*
X231391Y-653994D01*
X231160Y-654077D01*
X230926Y-654153D01*
X230860Y-654184D01*
X230791Y-654208D01*
X230572Y-654319D01*
X230349Y-654424D01*
X230287Y-654463D01*
X230222Y-654496D01*
X230019Y-654633D01*
X229811Y-654765D01*
X229755Y-654811D01*
X229694Y-654852D01*
X229520Y-655005D01*
X229320Y-655170D01*
X229262Y-655231D01*
X229202Y-655284D01*
X226024Y-658462D01*
X225976Y-658517D01*
X225923Y-658566D01*
X225765Y-658756D01*
X225603Y-658940D01*
X225562Y-659000D01*
X225515Y-659056D01*
X225383Y-659264D01*
X225245Y-659467D01*
X225212Y-659532D01*
X225172Y-659593D01*
X225067Y-659815D01*
X224955Y-660034D01*
X224931Y-660103D01*
X224899Y-660169D01*
X224823Y-660403D01*
X224739Y-660634D01*
X224723Y-660705D01*
X224700Y-660774D01*
X224654Y-661015D01*
X224600Y-661255D01*
X224593Y-661328D01*
X224579Y-661400D01*
X224564Y-661631D01*
X224539Y-661890D01*
X224542Y-661973D01*
X224537Y-662053D01*
X224537Y-721043D01*
X222835Y-725151D01*
X218977Y-729009D01*
X218977Y-729010D01*
X198214Y-749772D01*
X198058Y-749950D01*
X197895Y-750122D01*
X197847Y-750189D01*
X197792Y-750250D01*
X197660Y-750446D01*
X197520Y-750638D01*
X197480Y-750709D01*
X197434Y-750777D01*
X197327Y-750988D01*
X197212Y-751195D01*
X197182Y-751272D01*
X197145Y-751345D01*
X197064Y-751568D01*
X196977Y-751788D01*
X196956Y-751867D01*
X196929Y-751944D01*
X196877Y-752175D01*
X196818Y-752404D01*
X196807Y-752486D01*
X196789Y-752566D01*
X196767Y-752801D01*
X196737Y-753036D01*
X196737Y-753119D01*
X196729Y-753200D01*
X196736Y-753436D01*
X196736Y-753674D01*
X196746Y-753755D01*
X196748Y-753837D01*
X196785Y-754071D01*
X196814Y-754306D01*
X196835Y-754385D01*
X196847Y-754466D01*
X196913Y-754694D01*
X196971Y-754923D01*
X197001Y-754999D01*
X197024Y-755078D01*
X197118Y-755296D01*
X197205Y-755516D01*
X197244Y-755588D01*
X197276Y-755663D01*
X197397Y-755867D01*
X197510Y-756075D01*
X197558Y-756142D01*
X197600Y-756212D01*
X197745Y-756400D01*
X197883Y-756592D01*
X197939Y-756651D01*
X197990Y-756716D01*
X198157Y-756884D01*
X198318Y-757057D01*
X198382Y-757110D01*
X198439Y-757168D01*
X198626Y-757313D01*
X198808Y-757465D01*
X198877Y-757509D01*
X198942Y-757559D01*
X199146Y-757680D01*
X199345Y-757808D01*
X199419Y-757843D01*
X199490Y-757885D01*
X199706Y-757979D01*
X199921Y-758081D01*
X199999Y-758106D01*
X200074Y-758139D01*
X200301Y-758206D01*
X200526Y-758280D01*
X200607Y-758295D01*
X200685Y-758318D01*
X200919Y-758356D01*
X201152Y-758401D01*
X201232Y-758406D01*
X201314Y-758419D01*
X201574Y-758428D01*
X201805Y-758443D01*
X232655Y-758443D01*
X232768Y-758436D01*
X232883Y-758438D01*
X233086Y-758416D01*
X233290Y-758403D01*
X233403Y-758382D01*
X233516Y-758370D01*
X233715Y-758322D01*
X233916Y-758284D01*
X234025Y-758249D01*
X234136Y-758222D01*
X234327Y-758151D01*
X234522Y-758087D01*
X234626Y-758039D01*
X234733Y-757999D01*
X234914Y-757904D01*
X235099Y-757816D01*
X235195Y-757755D01*
X235297Y-757702D01*
X235464Y-757585D01*
X235637Y-757475D01*
X235725Y-757402D01*
X235819Y-757337D01*
X235970Y-757200D01*
X236128Y-757070D01*
X236207Y-756986D01*
X236291Y-756910D01*
X236425Y-756755D01*
X236565Y-756606D01*
X236599Y-756559D01*
X238706Y-754451D01*
X240947Y-753523D01*
X259373Y-753523D01*
X261614Y-754451D01*
X263427Y-756265D01*
X263513Y-756340D01*
X263592Y-756422D01*
X263751Y-756551D01*
X263905Y-756686D01*
X263999Y-756751D01*
X264088Y-756822D01*
X264263Y-756929D01*
X264432Y-757045D01*
X264533Y-757096D01*
X264631Y-757156D01*
X264817Y-757241D01*
X264999Y-757334D01*
X265107Y-757373D01*
X265211Y-757420D01*
X265406Y-757481D01*
X265599Y-757550D01*
X265710Y-757575D01*
X265819Y-757609D01*
X266020Y-757645D01*
X266220Y-757690D01*
X266334Y-757700D01*
X266446Y-757720D01*
X266651Y-757731D01*
X266855Y-757750D01*
X266969Y-757747D01*
X267083Y-757752D01*
X267287Y-757737D01*
X267492Y-757731D01*
X267604Y-757713D01*
X267718Y-757704D01*
X267919Y-757663D01*
X268121Y-757632D01*
X268230Y-757600D01*
X268342Y-757577D01*
X268529Y-757514D01*
X268733Y-757455D01*
X268849Y-757405D01*
X268963Y-757366D01*
X269419Y-757177D01*
X269910Y-757079D01*
X273081Y-757079D01*
X273081Y-769620D01*
X273081Y-782161D01*
X269910Y-782161D01*
X269419Y-782063D01*
X268963Y-781874D01*
X268855Y-781837D01*
X268750Y-781792D01*
X268554Y-781734D01*
X268360Y-781668D01*
X268248Y-781644D01*
X268139Y-781612D01*
X267936Y-781580D01*
X267736Y-781538D01*
X267622Y-781529D01*
X267510Y-781511D01*
X267305Y-781504D01*
X267101Y-781488D01*
X266987Y-781493D01*
X266873Y-781489D01*
X266669Y-781508D01*
X266464Y-781518D01*
X266352Y-781537D01*
X266238Y-781548D01*
X266038Y-781592D01*
X265837Y-781627D01*
X265728Y-781660D01*
X265616Y-781685D01*
X265423Y-781754D01*
X265227Y-781814D01*
X265124Y-781860D01*
X265016Y-781899D01*
X264833Y-781991D01*
X264647Y-782075D01*
X264549Y-782135D01*
X264447Y-782186D01*
X264278Y-782301D01*
X264103Y-782408D01*
X264014Y-782479D01*
X263919Y-782543D01*
X263771Y-782672D01*
X263605Y-782805D01*
X263517Y-782896D01*
X263427Y-782975D01*
X261324Y-785078D01*
X261221Y-785195D01*
X261111Y-785304D01*
X261011Y-785433D01*
X260902Y-785556D01*
X260815Y-785684D01*
X260720Y-785807D01*
X260636Y-785948D01*
X260544Y-786083D01*
X260474Y-786221D01*
X260395Y-786354D01*
X260329Y-786505D01*
X260255Y-786651D01*
X260202Y-786797D01*
X260140Y-786939D01*
X260094Y-787096D01*
X260038Y-787250D01*
X260005Y-787401D01*
X259961Y-787550D01*
X259935Y-787712D01*
X259899Y-787872D01*
X259884Y-788026D01*
X259860Y-788179D01*
X259854Y-788343D01*
X259839Y-788506D01*
X259843Y-788661D01*
X259838Y-788816D01*
X259853Y-788979D01*
X259858Y-789143D01*
X259882Y-789296D01*
X259896Y-789450D01*
X259932Y-789610D01*
X259957Y-789772D01*
X260000Y-789921D01*
X260033Y-790072D01*
X260088Y-790227D01*
X260134Y-790384D01*
X260195Y-790527D01*
X260247Y-790673D01*
X260321Y-790819D01*
X260386Y-790970D01*
X260465Y-791103D01*
X260535Y-791241D01*
X260626Y-791377D01*
X260710Y-791518D01*
X260805Y-791641D01*
X260891Y-791769D01*
X260996Y-791889D01*
X261100Y-792022D01*
X261219Y-792142D01*
X261324Y-792262D01*
X263427Y-794365D01*
X263512Y-794440D01*
X263592Y-794522D01*
X263751Y-794651D01*
X263905Y-794786D01*
X263999Y-794850D01*
X264088Y-794922D01*
X264262Y-795029D01*
X264432Y-795145D01*
X264533Y-795196D01*
X264630Y-795256D01*
X264817Y-795341D01*
X264999Y-795434D01*
X265107Y-795473D01*
X265210Y-795520D01*
X265406Y-795581D01*
X265599Y-795650D01*
X265710Y-795675D01*
X265819Y-795709D01*
X266021Y-795745D01*
X266220Y-795790D01*
X266334Y-795800D01*
X266446Y-795820D01*
X266651Y-795831D01*
X266855Y-795850D01*
X266969Y-795847D01*
X267082Y-795852D01*
X267287Y-795837D01*
X267492Y-795831D01*
X267604Y-795813D01*
X267718Y-795804D01*
X267918Y-795763D01*
X268121Y-795732D01*
X268230Y-795700D01*
X268342Y-795677D01*
X268529Y-795614D01*
X268733Y-795555D01*
X268848Y-795505D01*
X268962Y-795466D01*
X269419Y-795277D01*
X269910Y-795179D01*
X273081Y-795179D01*
X273081Y-807720D01*
X273081Y-820261D01*
X269910Y-820261D01*
X269419Y-820163D01*
X268963Y-819974D01*
X268855Y-819937D01*
X268750Y-819892D01*
X268554Y-819834D01*
X268360Y-819768D01*
X268248Y-819744D01*
X268139Y-819712D01*
X267936Y-819680D01*
X267736Y-819638D01*
X267622Y-819629D01*
X267510Y-819611D01*
X267305Y-819604D01*
X267101Y-819588D01*
X266987Y-819593D01*
X266873Y-819589D01*
X266669Y-819608D01*
X266464Y-819618D01*
X266352Y-819637D01*
X266238Y-819648D01*
X266038Y-819692D01*
X265837Y-819727D01*
X265727Y-819760D01*
X265616Y-819785D01*
X265423Y-819854D01*
X265227Y-819914D01*
X265123Y-819961D01*
X265016Y-819999D01*
X264834Y-820091D01*
X264647Y-820175D01*
X264549Y-820235D01*
X264447Y-820286D01*
X264278Y-820401D01*
X264103Y-820508D01*
X264014Y-820579D01*
X263919Y-820643D01*
X263771Y-820772D01*
X263605Y-820905D01*
X263517Y-820996D01*
X263427Y-821075D01*
X261324Y-823178D01*
X261221Y-823295D01*
X261111Y-823404D01*
X261011Y-823533D01*
X260902Y-823656D01*
X260815Y-823784D01*
X260720Y-823907D01*
X260636Y-824048D01*
X260544Y-824183D01*
X260474Y-824321D01*
X260395Y-824454D01*
X260329Y-824604D01*
X260255Y-824751D01*
X260202Y-824897D01*
X260140Y-825039D01*
X260094Y-825196D01*
X260038Y-825350D01*
X260005Y-825501D01*
X259961Y-825650D01*
X259935Y-825812D01*
X259899Y-825972D01*
X259884Y-826126D01*
X259860Y-826279D01*
X259854Y-826443D01*
X259839Y-826606D01*
X259843Y-826761D01*
X259838Y-826916D01*
X259853Y-827079D01*
X259858Y-827243D01*
X259882Y-827396D01*
X259896Y-827550D01*
X259932Y-827710D01*
X259957Y-827872D01*
X260000Y-828021D01*
X260033Y-828172D01*
X260088Y-828326D01*
X260134Y-828484D01*
X260196Y-828627D01*
X260247Y-828773D01*
X260321Y-828919D01*
X260386Y-829069D01*
X260465Y-829203D01*
X260535Y-829341D01*
X260626Y-829477D01*
X260710Y-829618D01*
X260805Y-829741D01*
X260891Y-829869D01*
X260996Y-829989D01*
X261099Y-830122D01*
X261219Y-830242D01*
X261324Y-830362D01*
X263427Y-832465D01*
X263513Y-832540D01*
X263592Y-832622D01*
X263751Y-832751D01*
X263905Y-832886D01*
X263999Y-832950D01*
X264088Y-833022D01*
X264263Y-833130D01*
X264432Y-833245D01*
X264533Y-833296D01*
X264630Y-833356D01*
X264817Y-833441D01*
X264999Y-833534D01*
X265107Y-833573D01*
X265210Y-833620D01*
X265406Y-833681D01*
X265599Y-833750D01*
X265710Y-833775D01*
X265819Y-833809D01*
X266020Y-833845D01*
X266220Y-833890D01*
X266334Y-833900D01*
X266446Y-833920D01*
X266651Y-833931D01*
X266855Y-833950D01*
X266969Y-833947D01*
X267082Y-833952D01*
X267287Y-833937D01*
X267492Y-833931D01*
X267604Y-833913D01*
X267718Y-833904D01*
X267919Y-833863D01*
X268121Y-833832D01*
X268231Y-833800D01*
X268342Y-833777D01*
X268528Y-833714D01*
X268733Y-833655D01*
X268849Y-833605D01*
X268962Y-833566D01*
X269419Y-833377D01*
X269910Y-833279D01*
X273081Y-833279D01*
X273081Y-845820D01*
X273081Y-858361D01*
X269910Y-858361D01*
X269419Y-858263D01*
X268962Y-858074D01*
X268854Y-858037D01*
X268750Y-857992D01*
X268553Y-857934D01*
X268360Y-857868D01*
X268248Y-857844D01*
X268139Y-857812D01*
X267936Y-857780D01*
X267736Y-857738D01*
X267622Y-857729D01*
X267510Y-857711D01*
X267305Y-857704D01*
X267101Y-857688D01*
X266987Y-857693D01*
X266873Y-857689D01*
X266669Y-857708D01*
X266464Y-857718D01*
X266352Y-857737D01*
X266238Y-857748D01*
X266038Y-857792D01*
X265836Y-857827D01*
X265727Y-857860D01*
X265616Y-857885D01*
X265423Y-857954D01*
X265227Y-858014D01*
X265123Y-858061D01*
X265016Y-858099D01*
X264833Y-858191D01*
X264646Y-858275D01*
X264549Y-858335D01*
X264447Y-858386D01*
X264278Y-858501D01*
X264103Y-858608D01*
X264014Y-858679D01*
X263919Y-858743D01*
X263771Y-858873D01*
X263605Y-859005D01*
X263517Y-859096D01*
X263427Y-859175D01*
X261614Y-860989D01*
X259373Y-861917D01*
X240947Y-861917D01*
G37*
%LPD*%
%LPC*%
G36*
X287593Y-71502D02*
X287593Y-71502D01*
X282785Y-69510D01*
X279105Y-65830D01*
X277113Y-61022D01*
X277113Y-55818D01*
X279105Y-51010D01*
X282785Y-47330D01*
X287593Y-45338D01*
X292797Y-45338D01*
X297605Y-47330D01*
X299303Y-49028D01*
X299420Y-49131D01*
X299529Y-49240D01*
X299658Y-49341D01*
X299781Y-49449D01*
X299909Y-49537D01*
X300032Y-49632D01*
X300173Y-49716D01*
X300308Y-49808D01*
X300446Y-49878D01*
X300579Y-49957D01*
X300730Y-50023D01*
X300876Y-50097D01*
X301021Y-50150D01*
X301164Y-50212D01*
X301321Y-50258D01*
X301475Y-50313D01*
X301626Y-50347D01*
X301775Y-50391D01*
X301937Y-50417D01*
X302097Y-50453D01*
X302251Y-50467D01*
X302404Y-50492D01*
X302568Y-50498D01*
X302731Y-50513D01*
X302886Y-50508D01*
X303041Y-50514D01*
X303204Y-50499D01*
X303368Y-50494D01*
X303521Y-50470D01*
X303675Y-50455D01*
X303835Y-50420D01*
X303997Y-50395D01*
X304146Y-50352D01*
X304297Y-50318D01*
X304452Y-50263D01*
X304609Y-50218D01*
X304752Y-50156D01*
X304898Y-50104D01*
X305044Y-50030D01*
X305194Y-49965D01*
X305328Y-49887D01*
X305466Y-49817D01*
X305602Y-49725D01*
X305743Y-49642D01*
X305866Y-49547D01*
X305994Y-49461D01*
X306114Y-49355D01*
X306247Y-49252D01*
X306367Y-49133D01*
X306487Y-49028D01*
X308185Y-47330D01*
X312993Y-45338D01*
X318197Y-45338D01*
X323005Y-47330D01*
X324703Y-49028D01*
X324820Y-49131D01*
X324929Y-49240D01*
X325058Y-49341D01*
X325181Y-49449D01*
X325309Y-49537D01*
X325432Y-49632D01*
X325573Y-49716D01*
X325708Y-49808D01*
X325846Y-49878D01*
X325979Y-49957D01*
X326130Y-50023D01*
X326276Y-50097D01*
X326421Y-50150D01*
X326564Y-50212D01*
X326721Y-50258D01*
X326875Y-50313D01*
X327026Y-50347D01*
X327175Y-50391D01*
X327337Y-50417D01*
X327497Y-50453D01*
X327651Y-50467D01*
X327804Y-50492D01*
X327968Y-50498D01*
X328131Y-50513D01*
X328286Y-50508D01*
X328441Y-50514D01*
X328604Y-50499D01*
X328768Y-50494D01*
X328921Y-50470D01*
X329075Y-50455D01*
X329235Y-50420D01*
X329397Y-50395D01*
X329546Y-50352D01*
X329697Y-50318D01*
X329852Y-50263D01*
X330009Y-50218D01*
X330152Y-50156D01*
X330298Y-50104D01*
X330444Y-50030D01*
X330594Y-49965D01*
X330728Y-49887D01*
X330866Y-49817D01*
X331002Y-49725D01*
X331143Y-49642D01*
X331266Y-49547D01*
X331394Y-49461D01*
X331514Y-49355D01*
X331647Y-49252D01*
X331767Y-49133D01*
X331887Y-49028D01*
X333585Y-47330D01*
X338393Y-45338D01*
X343597Y-45338D01*
X348405Y-47330D01*
X350103Y-49028D01*
X350220Y-49131D01*
X350329Y-49240D01*
X350458Y-49341D01*
X350581Y-49449D01*
X350709Y-49537D01*
X350832Y-49632D01*
X350973Y-49716D01*
X351108Y-49808D01*
X351246Y-49878D01*
X351379Y-49957D01*
X351530Y-50023D01*
X351676Y-50097D01*
X351821Y-50150D01*
X351964Y-50212D01*
X352121Y-50258D01*
X352275Y-50313D01*
X352426Y-50347D01*
X352575Y-50391D01*
X352737Y-50417D01*
X352897Y-50453D01*
X353051Y-50467D01*
X353204Y-50492D01*
X353368Y-50498D01*
X353531Y-50513D01*
X353686Y-50508D01*
X353841Y-50514D01*
X354004Y-50499D01*
X354168Y-50494D01*
X354321Y-50470D01*
X354475Y-50455D01*
X354635Y-50420D01*
X354797Y-50395D01*
X354946Y-50352D01*
X355097Y-50318D01*
X355252Y-50263D01*
X355409Y-50218D01*
X355552Y-50156D01*
X355698Y-50104D01*
X355844Y-50030D01*
X355994Y-49965D01*
X356128Y-49887D01*
X356266Y-49817D01*
X356402Y-49725D01*
X356543Y-49642D01*
X356666Y-49547D01*
X356794Y-49461D01*
X356914Y-49355D01*
X357047Y-49252D01*
X357167Y-49133D01*
X357287Y-49028D01*
X358985Y-47330D01*
X363793Y-45338D01*
X368997Y-45338D01*
X373805Y-47330D01*
X377485Y-51010D01*
X379477Y-55818D01*
X379477Y-61022D01*
X377485Y-65830D01*
X373805Y-69510D01*
X368997Y-71502D01*
X363793Y-71502D01*
X358985Y-69510D01*
X357287Y-67812D01*
X357170Y-67710D01*
X357061Y-67600D01*
X356932Y-67499D01*
X356809Y-67391D01*
X356681Y-67303D01*
X356558Y-67208D01*
X356417Y-67124D01*
X356282Y-67032D01*
X356144Y-66962D01*
X356011Y-66883D01*
X355860Y-66817D01*
X355714Y-66743D01*
X355568Y-66690D01*
X355426Y-66628D01*
X355269Y-66582D01*
X355115Y-66527D01*
X354964Y-66493D01*
X354815Y-66449D01*
X354653Y-66423D01*
X354493Y-66387D01*
X354339Y-66373D01*
X354186Y-66348D01*
X354022Y-66342D01*
X353859Y-66327D01*
X353704Y-66332D01*
X353549Y-66326D01*
X353386Y-66341D01*
X353222Y-66346D01*
X353069Y-66370D01*
X352915Y-66385D01*
X352755Y-66420D01*
X352593Y-66445D01*
X352444Y-66488D01*
X352293Y-66522D01*
X352138Y-66577D01*
X351981Y-66622D01*
X351838Y-66684D01*
X351692Y-66736D01*
X351546Y-66810D01*
X351396Y-66875D01*
X351262Y-66953D01*
X351124Y-67023D01*
X350988Y-67115D01*
X350847Y-67198D01*
X350724Y-67293D01*
X350596Y-67380D01*
X350476Y-67485D01*
X350343Y-67588D01*
X350223Y-67707D01*
X350103Y-67812D01*
X348405Y-69510D01*
X343597Y-71502D01*
X338393Y-71502D01*
X333585Y-69510D01*
X331887Y-67812D01*
X331770Y-67710D01*
X331661Y-67600D01*
X331532Y-67499D01*
X331409Y-67391D01*
X331281Y-67303D01*
X331158Y-67208D01*
X331017Y-67124D01*
X330882Y-67032D01*
X330744Y-66962D01*
X330611Y-66883D01*
X330460Y-66817D01*
X330314Y-66743D01*
X330168Y-66690D01*
X330026Y-66628D01*
X329869Y-66582D01*
X329715Y-66527D01*
X329564Y-66493D01*
X329415Y-66449D01*
X329253Y-66423D01*
X329093Y-66387D01*
X328939Y-66373D01*
X328786Y-66348D01*
X328622Y-66342D01*
X328459Y-66327D01*
X328304Y-66332D01*
X328149Y-66326D01*
X327986Y-66341D01*
X327822Y-66346D01*
X327669Y-66370D01*
X327515Y-66385D01*
X327355Y-66420D01*
X327193Y-66445D01*
X327044Y-66488D01*
X326893Y-66522D01*
X326738Y-66577D01*
X326581Y-66622D01*
X326438Y-66684D01*
X326292Y-66736D01*
X326146Y-66810D01*
X325996Y-66875D01*
X325862Y-66953D01*
X325724Y-67023D01*
X325588Y-67115D01*
X325447Y-67198D01*
X325324Y-67293D01*
X325196Y-67380D01*
X325076Y-67485D01*
X324943Y-67588D01*
X324823Y-67707D01*
X324703Y-67812D01*
X323005Y-69510D01*
X318197Y-71502D01*
X312993Y-71502D01*
X308185Y-69510D01*
X306487Y-67812D01*
X306370Y-67710D01*
X306261Y-67600D01*
X306132Y-67499D01*
X306009Y-67391D01*
X305881Y-67303D01*
X305758Y-67208D01*
X305617Y-67124D01*
X305482Y-67032D01*
X305344Y-66962D01*
X305211Y-66883D01*
X305060Y-66817D01*
X304914Y-66743D01*
X304768Y-66690D01*
X304626Y-66628D01*
X304469Y-66582D01*
X304315Y-66527D01*
X304164Y-66493D01*
X304015Y-66449D01*
X303853Y-66423D01*
X303693Y-66387D01*
X303539Y-66373D01*
X303386Y-66348D01*
X303222Y-66342D01*
X303059Y-66327D01*
X302904Y-66332D01*
X302749Y-66326D01*
X302586Y-66341D01*
X302422Y-66346D01*
X302269Y-66370D01*
X302115Y-66385D01*
X301955Y-66420D01*
X301793Y-66445D01*
X301644Y-66488D01*
X301493Y-66522D01*
X301338Y-66577D01*
X301181Y-66622D01*
X301038Y-66684D01*
X300892Y-66736D01*
X300746Y-66810D01*
X300596Y-66875D01*
X300462Y-66953D01*
X300324Y-67023D01*
X300188Y-67115D01*
X300047Y-67198D01*
X299924Y-67293D01*
X299796Y-67380D01*
X299676Y-67485D01*
X299543Y-67588D01*
X299423Y-67707D01*
X299303Y-67812D01*
X297605Y-69510D01*
X292797Y-71502D01*
X287593Y-71502D01*
G37*
%LPD*%
%LPC*%
G36*
X264160Y-358141D02*
X264160Y-358141D01*
X255344Y-358141D01*
X255470Y-357895D01*
X256424Y-356581D01*
X256487Y-356510D01*
X256597Y-356400D01*
X256698Y-356271D01*
X256806Y-356148D01*
X256893Y-356020D01*
X256988Y-355898D01*
X257072Y-355757D01*
X257164Y-355622D01*
X257234Y-355483D01*
X257314Y-355350D01*
X257379Y-355200D01*
X257453Y-355054D01*
X257506Y-354908D01*
X257568Y-354766D01*
X257614Y-354609D01*
X257670Y-354455D01*
X257704Y-354303D01*
X257747Y-354154D01*
X257773Y-353993D01*
X257809Y-353833D01*
X257824Y-353679D01*
X257848Y-353525D01*
X257854Y-353362D01*
X257870Y-353199D01*
X257865Y-353044D01*
X257870Y-352889D01*
X257855Y-352726D01*
X257850Y-352562D01*
X257826Y-352409D01*
X257812Y-352254D01*
X257777Y-352094D01*
X257751Y-351932D01*
X257708Y-351783D01*
X257675Y-351632D01*
X257620Y-351478D01*
X257574Y-351320D01*
X257513Y-351178D01*
X257461Y-351032D01*
X257387Y-350886D01*
X257322Y-350735D01*
X257243Y-350602D01*
X257173Y-350463D01*
X257082Y-350328D01*
X256999Y-350186D01*
X256904Y-350064D01*
X256817Y-349935D01*
X256712Y-349815D01*
X256609Y-349682D01*
X256490Y-349563D01*
X256385Y-349443D01*
X252532Y-345590D01*
X250443Y-340548D01*
X250443Y-335092D01*
X252532Y-330050D01*
X253870Y-328712D01*
X253972Y-328595D01*
X254082Y-328486D01*
X254183Y-328357D01*
X254291Y-328234D01*
X254379Y-328106D01*
X254474Y-327983D01*
X254557Y-327842D01*
X254650Y-327707D01*
X254720Y-327569D01*
X254799Y-327436D01*
X254865Y-327285D01*
X254939Y-327139D01*
X254992Y-326994D01*
X255054Y-326851D01*
X255100Y-326694D01*
X255155Y-326540D01*
X255189Y-326389D01*
X255233Y-326240D01*
X255259Y-326078D01*
X255295Y-325918D01*
X255309Y-325764D01*
X255334Y-325611D01*
X255340Y-325447D01*
X255355Y-325284D01*
X255350Y-325129D01*
X255356Y-324974D01*
X255341Y-324811D01*
X255336Y-324647D01*
X255312Y-324494D01*
X255297Y-324340D01*
X255262Y-324180D01*
X255237Y-324018D01*
X255194Y-323869D01*
X255160Y-323718D01*
X255105Y-323563D01*
X255060Y-323406D01*
X254998Y-323263D01*
X254946Y-323117D01*
X254872Y-322971D01*
X254807Y-322821D01*
X254729Y-322687D01*
X254659Y-322549D01*
X254567Y-322413D01*
X254484Y-322272D01*
X254389Y-322149D01*
X254303Y-322021D01*
X254197Y-321901D01*
X254094Y-321768D01*
X253975Y-321648D01*
X253870Y-321528D01*
X252532Y-320190D01*
X250443Y-315148D01*
X250443Y-309692D01*
X252532Y-304650D01*
X253870Y-303312D01*
X253972Y-303195D01*
X254082Y-303086D01*
X254183Y-302957D01*
X254291Y-302834D01*
X254379Y-302706D01*
X254474Y-302583D01*
X254557Y-302442D01*
X254650Y-302307D01*
X254720Y-302169D01*
X254799Y-302036D01*
X254865Y-301885D01*
X254939Y-301739D01*
X254992Y-301594D01*
X255054Y-301451D01*
X255100Y-301294D01*
X255155Y-301140D01*
X255189Y-300989D01*
X255233Y-300840D01*
X255259Y-300678D01*
X255295Y-300518D01*
X255309Y-300364D01*
X255334Y-300211D01*
X255340Y-300047D01*
X255355Y-299884D01*
X255350Y-299729D01*
X255356Y-299574D01*
X255341Y-299411D01*
X255336Y-299247D01*
X255312Y-299094D01*
X255297Y-298940D01*
X255262Y-298780D01*
X255237Y-298618D01*
X255194Y-298469D01*
X255160Y-298318D01*
X255105Y-298163D01*
X255060Y-298006D01*
X254998Y-297863D01*
X254946Y-297717D01*
X254872Y-297571D01*
X254807Y-297421D01*
X254729Y-297287D01*
X254659Y-297149D01*
X254567Y-297013D01*
X254484Y-296872D01*
X254389Y-296749D01*
X254303Y-296621D01*
X254197Y-296501D01*
X254094Y-296368D01*
X253975Y-296248D01*
X253870Y-296128D01*
X252532Y-294790D01*
X250443Y-289748D01*
X250443Y-284292D01*
X252532Y-279250D01*
X256390Y-275392D01*
X261432Y-273303D01*
X266888Y-273303D01*
X271930Y-275392D01*
X275788Y-279250D01*
X277877Y-284292D01*
X277877Y-289748D01*
X275788Y-294790D01*
X274450Y-296128D01*
X274348Y-296245D01*
X274238Y-296354D01*
X274137Y-296483D01*
X274029Y-296606D01*
X273941Y-296734D01*
X273846Y-296857D01*
X273763Y-296998D01*
X273670Y-297133D01*
X273600Y-297271D01*
X273521Y-297404D01*
X273455Y-297554D01*
X273381Y-297701D01*
X273328Y-297847D01*
X273266Y-297989D01*
X273220Y-298146D01*
X273165Y-298300D01*
X273131Y-298451D01*
X273087Y-298600D01*
X273061Y-298762D01*
X273025Y-298922D01*
X273011Y-299076D01*
X272986Y-299229D01*
X272980Y-299393D01*
X272965Y-299556D01*
X272970Y-299711D01*
X272964Y-299866D01*
X272979Y-300029D01*
X272984Y-300193D01*
X273008Y-300346D01*
X273023Y-300500D01*
X273058Y-300660D01*
X273083Y-300822D01*
X273126Y-300971D01*
X273160Y-301122D01*
X273215Y-301277D01*
X273260Y-301434D01*
X273322Y-301577D01*
X273374Y-301723D01*
X273448Y-301869D01*
X273513Y-302019D01*
X273591Y-302153D01*
X273661Y-302291D01*
X273753Y-302427D01*
X273836Y-302568D01*
X273931Y-302691D01*
X274018Y-302819D01*
X274123Y-302939D01*
X274226Y-303072D01*
X274345Y-303192D01*
X274450Y-303312D01*
X275788Y-304650D01*
X277877Y-309692D01*
X277877Y-315148D01*
X275788Y-320190D01*
X274450Y-321528D01*
X274348Y-321645D01*
X274238Y-321754D01*
X274137Y-321883D01*
X274029Y-322006D01*
X273941Y-322134D01*
X273846Y-322257D01*
X273763Y-322398D01*
X273670Y-322533D01*
X273600Y-322671D01*
X273521Y-322804D01*
X273455Y-322954D01*
X273381Y-323101D01*
X273328Y-323247D01*
X273266Y-323389D01*
X273220Y-323546D01*
X273165Y-323700D01*
X273131Y-323851D01*
X273087Y-324000D01*
X273061Y-324162D01*
X273025Y-324322D01*
X273011Y-324476D01*
X272986Y-324629D01*
X272980Y-324793D01*
X272965Y-324956D01*
X272970Y-325111D01*
X272964Y-325266D01*
X272979Y-325429D01*
X272984Y-325593D01*
X273008Y-325746D01*
X273023Y-325900D01*
X273058Y-326060D01*
X273083Y-326222D01*
X273126Y-326371D01*
X273160Y-326522D01*
X273215Y-326677D01*
X273260Y-326834D01*
X273322Y-326977D01*
X273374Y-327123D01*
X273448Y-327269D01*
X273513Y-327419D01*
X273591Y-327553D01*
X273661Y-327691D01*
X273753Y-327827D01*
X273836Y-327968D01*
X273931Y-328091D01*
X274018Y-328219D01*
X274123Y-328339D01*
X274226Y-328472D01*
X274345Y-328592D01*
X274450Y-328712D01*
X275788Y-330050D01*
X277877Y-335092D01*
X277877Y-340548D01*
X275788Y-345590D01*
X271935Y-349443D01*
X271833Y-349559D01*
X271723Y-349669D01*
X271622Y-349798D01*
X271514Y-349921D01*
X271427Y-350049D01*
X271332Y-350171D01*
X271248Y-350312D01*
X271156Y-350448D01*
X271085Y-350586D01*
X271006Y-350719D01*
X270941Y-350869D01*
X270866Y-351015D01*
X270814Y-351161D01*
X270752Y-351303D01*
X270706Y-351460D01*
X270650Y-351615D01*
X270616Y-351766D01*
X270573Y-351915D01*
X270547Y-352077D01*
X270511Y-352236D01*
X270496Y-352391D01*
X270472Y-352544D01*
X270466Y-352708D01*
X270450Y-352871D01*
X270455Y-353025D01*
X270450Y-353181D01*
X270465Y-353344D01*
X270470Y-353507D01*
X270494Y-353661D01*
X270508Y-353815D01*
X270543Y-353975D01*
X270569Y-354137D01*
X270612Y-354286D01*
X270645Y-354437D01*
X270700Y-354591D01*
X270746Y-354749D01*
X270807Y-354891D01*
X270859Y-355037D01*
X270933Y-355183D01*
X270998Y-355334D01*
X271077Y-355468D01*
X271147Y-355606D01*
X271238Y-355742D01*
X271322Y-355883D01*
X271416Y-356005D01*
X271503Y-356134D01*
X271608Y-356254D01*
X271711Y-356387D01*
X271831Y-356507D01*
X271895Y-356580D01*
X272850Y-357895D01*
X272976Y-358141D01*
X264160Y-358141D01*
X264160Y-358141D01*
G37*
%LPD*%
%LPC*%
G36*
X497091Y-72097D02*
X497091Y-72097D01*
X491471Y-70591D01*
X486432Y-67682D01*
X482318Y-63568D01*
X479409Y-58529D01*
X477903Y-52909D01*
X477903Y-47091D01*
X479409Y-41471D01*
X482318Y-36432D01*
X486432Y-32318D01*
X491471Y-29409D01*
X497091Y-27903D01*
X502909Y-27903D01*
X508529Y-29409D01*
X513568Y-32318D01*
X517682Y-36432D01*
X520591Y-41471D01*
X522097Y-47091D01*
X522097Y-52909D01*
X520591Y-58529D01*
X517682Y-63568D01*
X513568Y-67682D01*
X508529Y-70591D01*
X502909Y-72097D01*
X497091Y-72097D01*
G37*
%LPD*%
%LPC*%
G36*
X47091Y-72097D02*
X47091Y-72097D01*
X41471Y-70591D01*
X36432Y-67682D01*
X32318Y-63568D01*
X29409Y-58529D01*
X27903Y-52909D01*
X27903Y-47091D01*
X29409Y-41471D01*
X32318Y-36432D01*
X36432Y-32318D01*
X41471Y-29409D01*
X47091Y-27903D01*
X52909Y-27903D01*
X58529Y-29409D01*
X63568Y-32318D01*
X67682Y-36432D01*
X70591Y-41471D01*
X72097Y-47091D01*
X72097Y-52909D01*
X70591Y-58529D01*
X67682Y-63568D01*
X63568Y-67682D01*
X58529Y-70591D01*
X52909Y-72097D01*
X47091Y-72097D01*
G37*
%LPD*%
%LPC*%
G36*
X497091Y-872097D02*
X497091Y-872097D01*
X491471Y-870591D01*
X486432Y-867682D01*
X482318Y-863568D01*
X479409Y-858529D01*
X477903Y-852909D01*
X477903Y-847091D01*
X479409Y-841471D01*
X482318Y-836432D01*
X486432Y-832318D01*
X491471Y-829409D01*
X497091Y-827903D01*
X502909Y-827903D01*
X508529Y-829409D01*
X513568Y-832318D01*
X517682Y-836432D01*
X520591Y-841471D01*
X522097Y-847091D01*
X522097Y-852909D01*
X520591Y-858529D01*
X517682Y-863568D01*
X513568Y-867682D01*
X508529Y-870591D01*
X502909Y-872097D01*
X497091Y-872097D01*
G37*
%LPD*%
%LPC*%
G36*
X47091Y-872097D02*
X47091Y-872097D01*
X41471Y-870591D01*
X36432Y-867682D01*
X32318Y-863568D01*
X29409Y-858529D01*
X27903Y-852909D01*
X27903Y-847091D01*
X29409Y-841471D01*
X32318Y-836432D01*
X36432Y-832318D01*
X41471Y-829409D01*
X47091Y-827903D01*
X52909Y-827903D01*
X58529Y-829409D01*
X63568Y-832318D01*
X67682Y-836432D01*
X70591Y-841471D01*
X72097Y-847091D01*
X72097Y-852909D01*
X70591Y-858529D01*
X67682Y-863568D01*
X63568Y-867682D01*
X58529Y-870591D01*
X52909Y-872097D01*
X47091Y-872097D01*
G37*
%LPD*%
%LPC*%
G36*
X416560Y-307341D02*
X416560Y-307341D01*
X407744Y-307341D01*
X407870Y-307095D01*
X408824Y-305781D01*
X408887Y-305710D01*
X408997Y-305600D01*
X409098Y-305471D01*
X409206Y-305348D01*
X409293Y-305220D01*
X409388Y-305098D01*
X409472Y-304957D01*
X409564Y-304822D01*
X409634Y-304683D01*
X409714Y-304550D01*
X409779Y-304400D01*
X409853Y-304254D01*
X409906Y-304108D01*
X409968Y-303966D01*
X410014Y-303809D01*
X410070Y-303655D01*
X410104Y-303503D01*
X410147Y-303354D01*
X410173Y-303193D01*
X410209Y-303033D01*
X410224Y-302879D01*
X410248Y-302725D01*
X410254Y-302562D01*
X410270Y-302399D01*
X410265Y-302244D01*
X410270Y-302089D01*
X410255Y-301926D01*
X410250Y-301762D01*
X410226Y-301609D01*
X410212Y-301454D01*
X410177Y-301294D01*
X410151Y-301132D01*
X410108Y-300983D01*
X410075Y-300832D01*
X410020Y-300678D01*
X409974Y-300520D01*
X409913Y-300378D01*
X409861Y-300232D01*
X409787Y-300086D01*
X409722Y-299935D01*
X409643Y-299802D01*
X409573Y-299663D01*
X409482Y-299528D01*
X409399Y-299386D01*
X409304Y-299264D01*
X409217Y-299135D01*
X409112Y-299015D01*
X409009Y-298882D01*
X408890Y-298763D01*
X408785Y-298643D01*
X404932Y-294790D01*
X402843Y-289748D01*
X402843Y-284292D01*
X404932Y-279250D01*
X408790Y-275392D01*
X413832Y-273303D01*
X419288Y-273303D01*
X424330Y-275392D01*
X428188Y-279250D01*
X430277Y-284292D01*
X430277Y-289748D01*
X428188Y-294790D01*
X424335Y-298643D01*
X424233Y-298759D01*
X424123Y-298869D01*
X424022Y-298998D01*
X423914Y-299121D01*
X423827Y-299249D01*
X423732Y-299371D01*
X423648Y-299512D01*
X423556Y-299648D01*
X423485Y-299786D01*
X423406Y-299919D01*
X423341Y-300069D01*
X423266Y-300215D01*
X423214Y-300361D01*
X423152Y-300503D01*
X423106Y-300660D01*
X423050Y-300815D01*
X423016Y-300966D01*
X422973Y-301115D01*
X422947Y-301276D01*
X422911Y-301436D01*
X422896Y-301591D01*
X422872Y-301744D01*
X422866Y-301908D01*
X422850Y-302071D01*
X422855Y-302225D01*
X422850Y-302381D01*
X422865Y-302544D01*
X422870Y-302707D01*
X422894Y-302861D01*
X422908Y-303015D01*
X422943Y-303175D01*
X422969Y-303337D01*
X423012Y-303486D01*
X423045Y-303637D01*
X423100Y-303791D01*
X423146Y-303949D01*
X423207Y-304091D01*
X423259Y-304237D01*
X423333Y-304383D01*
X423398Y-304534D01*
X423477Y-304668D01*
X423547Y-304806D01*
X423638Y-304942D01*
X423722Y-305083D01*
X423816Y-305205D01*
X423903Y-305334D01*
X424008Y-305454D01*
X424111Y-305587D01*
X424231Y-305707D01*
X424295Y-305780D01*
X425250Y-307095D01*
X425376Y-307341D01*
X416560Y-307341D01*
X416560Y-307341D01*
G37*
%LPD*%
%LPC*%
G36*
X154939Y-538481D02*
X154939Y-538481D01*
X154939Y-533399D01*
X166296Y-533399D01*
X166170Y-533645D01*
X165230Y-534939D01*
X164099Y-536070D01*
X162805Y-537010D01*
X161380Y-537736D01*
X159859Y-538231D01*
X158280Y-538481D01*
X154939Y-538481D01*
G37*
%LPD*%
%LPC*%
G36*
X141440Y-538481D02*
X141440Y-538481D01*
X139861Y-538231D01*
X138340Y-537736D01*
X136915Y-537010D01*
X135621Y-536070D01*
X134490Y-534939D01*
X133550Y-533645D01*
X133424Y-533399D01*
X144781Y-533399D01*
X144781Y-538481D01*
X141440Y-538481D01*
G37*
%LPD*%
%LPC*%
G36*
X283239Y-782161D02*
X283239Y-782161D01*
X283239Y-774699D01*
X288701Y-774699D01*
X288701Y-779870D01*
X288603Y-780361D01*
X288412Y-780823D01*
X288133Y-781240D01*
X287780Y-781593D01*
X287363Y-781872D01*
X286901Y-782063D01*
X286410Y-782161D01*
X283239Y-782161D01*
G37*
%LPD*%
%LPC*%
G36*
X283239Y-820261D02*
X283239Y-820261D01*
X283239Y-812799D01*
X288701Y-812799D01*
X288701Y-817970D01*
X288603Y-818461D01*
X288412Y-818923D01*
X288133Y-819340D01*
X287780Y-819693D01*
X287363Y-819972D01*
X286901Y-820163D01*
X286410Y-820261D01*
X283239Y-820261D01*
G37*
%LPD*%
%LPC*%
G36*
X283239Y-858361D02*
X283239Y-858361D01*
X283239Y-850899D01*
X288701Y-850899D01*
X288701Y-856070D01*
X288603Y-856561D01*
X288412Y-857023D01*
X288133Y-857440D01*
X287780Y-857793D01*
X287363Y-858072D01*
X286901Y-858263D01*
X286410Y-858361D01*
X283239Y-858361D01*
G37*
%LPD*%
%LPC*%
G36*
X283239Y-764541D02*
X283239Y-764541D01*
X283239Y-757079D01*
X286410Y-757079D01*
X286901Y-757177D01*
X287363Y-757368D01*
X287780Y-757647D01*
X288133Y-758000D01*
X288412Y-758417D01*
X288603Y-758879D01*
X288701Y-759370D01*
X288701Y-764541D01*
X283239Y-764541D01*
G37*
%LPD*%
%LPC*%
G36*
X283239Y-802641D02*
X283239Y-802641D01*
X283239Y-795179D01*
X286410Y-795179D01*
X286901Y-795277D01*
X287363Y-795468D01*
X287780Y-795747D01*
X288133Y-796100D01*
X288412Y-796517D01*
X288603Y-796979D01*
X288701Y-797470D01*
X288701Y-802641D01*
X283239Y-802641D01*
G37*
%LPD*%
%LPC*%
G36*
X283239Y-840741D02*
X283239Y-840741D01*
X283239Y-833279D01*
X286410Y-833279D01*
X286901Y-833377D01*
X287363Y-833568D01*
X287780Y-833847D01*
X288133Y-834200D01*
X288412Y-834617D01*
X288603Y-835079D01*
X288701Y-835570D01*
X288701Y-840741D01*
X283239Y-840741D01*
G37*
%LPD*%
D10*
X264160Y-464820D03*
X264160Y-439420D03*
X264160Y-414020D03*
X264160Y-388620D03*
X264160Y-363220D03*
X264160Y-337820D03*
X264160Y-490220D03*
X264160Y-515620D03*
X264160Y-541020D03*
X264160Y-566420D03*
X264160Y-591820D03*
X264160Y-617220D03*
X264160Y-642620D03*
X264160Y-312420D03*
X264160Y-287020D03*
X416560Y-464820D03*
X416560Y-490220D03*
X416560Y-515620D03*
X416560Y-541020D03*
X416560Y-566420D03*
X416560Y-591820D03*
X416560Y-439420D03*
X416560Y-414020D03*
X416560Y-388620D03*
X416560Y-363220D03*
X416560Y-337820D03*
X416560Y-312420D03*
X416560Y-287020D03*
X416560Y-617220D03*
X416560Y-642620D03*
D11*
X157480Y-604520D02*
X142240Y-604520D01*
X142240Y-579120D02*
X157480Y-579120D01*
X157480Y-680720D02*
X142240Y-680720D01*
X142240Y-655320D02*
X157480Y-655320D01*
X157480Y-769620D02*
X142240Y-769620D01*
X142240Y-744220D02*
X157480Y-744220D01*
X157480Y-388620D02*
X142240Y-388620D01*
X142240Y-363220D02*
X157480Y-363220D01*
X157480Y-337820D02*
X142240Y-337820D01*
X142240Y-312420D02*
X157480Y-312420D01*
X157480Y-528320D02*
X142240Y-528320D01*
X142240Y-502920D02*
X157480Y-502920D01*
X157480Y-477520D02*
X142240Y-477520D01*
X142240Y-452120D02*
X157480Y-452120D01*
D12*
X278160Y-845820D03*
X250160Y-845820D03*
X278160Y-807720D03*
X250160Y-807720D03*
X278160Y-769620D03*
X250160Y-769620D03*
D13*
X264795Y-210820D03*
X290195Y-210820D03*
X315595Y-210820D03*
X340995Y-210820D03*
X366395Y-210820D03*
X391795Y-210820D03*
X290195Y-58420D03*
X315595Y-58420D03*
X340995Y-58420D03*
X366395Y-58420D03*
D14*
X366395Y-203200D02*
X366395Y-210820D01*
X366395Y-203200D02*
X384175Y-185420D01*
X454660Y-185420D01*
X480060Y-210820D01*
X480060Y-426720D01*
X467360Y-439420D01*
X416560Y-439420D01*
X340995Y-210820D02*
X340995Y-198120D01*
X379095Y-160020D01*
X467360Y-160020D01*
X505460Y-198120D01*
X505460Y-439420D01*
X480060Y-464820D01*
X416560Y-464820D01*
X187960Y-744220D02*
X149860Y-744220D01*
X187960Y-744220D02*
X213360Y-718820D01*
X213360Y-655320D01*
X226060Y-642620D01*
X264160Y-642620D01*
X175260Y-655320D02*
X149860Y-655320D01*
X175260Y-655320D02*
X213360Y-617220D01*
X264160Y-617220D01*
X200660Y-579120D02*
X149860Y-579120D01*
X200660Y-579120D02*
X213360Y-591820D01*
X264160Y-591820D01*
X243840Y-541020D02*
X180340Y-477520D01*
X243840Y-541020D02*
X264160Y-541020D01*
X180340Y-477520D02*
X149860Y-477520D01*
X251460Y-490220D02*
X264160Y-490220D01*
X251460Y-490220D02*
X175260Y-414020D01*
X137160Y-414020D01*
X111760Y-388620D01*
X111760Y-375920D01*
X124460Y-363220D01*
X149860Y-363220D01*
X165340Y-433324D02*
X114540Y-433324D01*
X84836Y-403620D01*
X84836Y-363460D01*
X112000Y-336296D01*
X148336Y-336296D02*
X149860Y-337820D01*
X148336Y-336296D02*
X112000Y-336296D01*
X247636Y-515620D02*
X264160Y-515620D01*
X247636Y-515620D02*
X165340Y-433324D01*
X149860Y-312420D02*
X149860Y-261620D01*
X187960Y-223520D01*
X264160Y-223520D01*
X264795Y-224155D02*
X264795Y-210820D01*
X264795Y-224155D02*
X276860Y-236220D01*
X302260Y-236220D01*
X314960Y-248920D01*
X314960Y-337820D01*
X340360Y-363220D02*
X416560Y-363220D01*
X340360Y-363220D02*
X314960Y-337820D01*
X60960Y-350520D02*
X60960Y-414020D01*
X60960Y-350520D02*
X99060Y-312420D01*
X104140Y-312420D01*
X149860Y-312420D01*
X60960Y-414020D02*
X99060Y-452120D01*
X149860Y-452120D01*
X149860Y-680720D02*
X129540Y-680720D01*
X111760Y-698500D01*
X111760Y-782320D01*
X137160Y-807720D01*
X250160Y-807720D01*
X149860Y-604520D02*
X137160Y-604520D01*
X88900Y-652780D01*
X88900Y-789940D01*
X144780Y-845820D01*
X250160Y-845820D01*
X250160Y-769620D02*
X149860Y-769620D01*
X238760Y-566420D02*
X264160Y-566420D01*
X238760Y-566420D02*
X175260Y-502920D01*
X149860Y-502920D01*
M02*
