G04 EAGLE Gerber RS-274X export*
G75*
%MOMM*%
%FSLAX34Y34*%
%LPD*%
%INSilkscreen Top*%
%IPPOS*%
%AMOC8*
5,1,8,0,0,1.08239X$1,22.5*%
G01*
%ADD10C,0.152400*%
%ADD11C,0.101600*%
%ADD12C,0.127000*%
%ADD13C,0.254000*%
%ADD14C,0.177800*%


D10*
X319504Y-756017D02*
X322213Y-756017D01*
X322213Y-765048D01*
X316794Y-765048D01*
X316676Y-765046D01*
X316558Y-765040D01*
X316440Y-765031D01*
X316323Y-765017D01*
X316206Y-765000D01*
X316089Y-764979D01*
X315974Y-764954D01*
X315859Y-764925D01*
X315745Y-764892D01*
X315633Y-764856D01*
X315522Y-764816D01*
X315412Y-764773D01*
X315303Y-764726D01*
X315196Y-764676D01*
X315091Y-764621D01*
X314988Y-764564D01*
X314887Y-764503D01*
X314787Y-764439D01*
X314690Y-764372D01*
X314595Y-764302D01*
X314503Y-764228D01*
X314412Y-764152D01*
X314325Y-764072D01*
X314240Y-763990D01*
X314158Y-763905D01*
X314078Y-763818D01*
X314002Y-763727D01*
X313928Y-763635D01*
X313858Y-763540D01*
X313791Y-763443D01*
X313727Y-763343D01*
X313666Y-763242D01*
X313609Y-763139D01*
X313554Y-763034D01*
X313504Y-762927D01*
X313457Y-762818D01*
X313414Y-762708D01*
X313374Y-762597D01*
X313338Y-762485D01*
X313305Y-762371D01*
X313276Y-762256D01*
X313251Y-762141D01*
X313230Y-762024D01*
X313213Y-761907D01*
X313199Y-761790D01*
X313190Y-761672D01*
X313184Y-761554D01*
X313182Y-761436D01*
X313182Y-752404D01*
X313184Y-752286D01*
X313190Y-752168D01*
X313199Y-752050D01*
X313213Y-751932D01*
X313230Y-751815D01*
X313251Y-751699D01*
X313276Y-751584D01*
X313305Y-751469D01*
X313338Y-751355D01*
X313374Y-751243D01*
X313414Y-751131D01*
X313457Y-751021D01*
X313504Y-750913D01*
X313555Y-750806D01*
X313609Y-750701D01*
X313666Y-750598D01*
X313727Y-750496D01*
X313791Y-750397D01*
X313858Y-750300D01*
X313929Y-750205D01*
X314002Y-750112D01*
X314079Y-750022D01*
X314158Y-749934D01*
X314240Y-749849D01*
X314325Y-749767D01*
X314413Y-749688D01*
X314503Y-749611D01*
X314596Y-749538D01*
X314690Y-749467D01*
X314788Y-749400D01*
X314887Y-749336D01*
X314988Y-749275D01*
X315092Y-749218D01*
X315197Y-749164D01*
X315304Y-749113D01*
X315412Y-749066D01*
X315522Y-749023D01*
X315634Y-748983D01*
X315746Y-748947D01*
X315860Y-748914D01*
X315975Y-748885D01*
X316090Y-748860D01*
X316206Y-748839D01*
X316323Y-748822D01*
X316441Y-748808D01*
X316559Y-748799D01*
X316677Y-748793D01*
X316795Y-748791D01*
X316794Y-748792D02*
X322213Y-748792D01*
X333850Y-748792D02*
X328431Y-765048D01*
X339269Y-765048D02*
X333850Y-748792D01*
X337914Y-760984D02*
X329786Y-760984D01*
X345516Y-765048D02*
X345516Y-748792D01*
X345516Y-765048D02*
X352741Y-765048D01*
X363028Y-765048D02*
X357610Y-748792D01*
X368447Y-748792D02*
X363028Y-765048D01*
X374695Y-765048D02*
X381920Y-765048D01*
X374695Y-765048D02*
X374695Y-748792D01*
X381920Y-748792D01*
X380113Y-756017D02*
X374695Y-756017D01*
X387170Y-748792D02*
X396201Y-748792D01*
X387170Y-765048D01*
X396201Y-765048D01*
X410756Y-758726D02*
X421593Y-758726D01*
X437329Y-765048D02*
X437329Y-748792D01*
X442747Y-757823D01*
X448166Y-748792D01*
X448166Y-765048D01*
X458375Y-758726D02*
X462439Y-758726D01*
X458375Y-758726D02*
X458263Y-758728D01*
X458152Y-758734D01*
X458041Y-758744D01*
X457930Y-758757D01*
X457820Y-758775D01*
X457711Y-758797D01*
X457602Y-758822D01*
X457494Y-758851D01*
X457388Y-758884D01*
X457282Y-758921D01*
X457178Y-758961D01*
X457076Y-759005D01*
X456975Y-759053D01*
X456876Y-759104D01*
X456778Y-759159D01*
X456683Y-759217D01*
X456590Y-759278D01*
X456499Y-759343D01*
X456410Y-759411D01*
X456324Y-759482D01*
X456241Y-759555D01*
X456160Y-759632D01*
X456081Y-759712D01*
X456006Y-759794D01*
X455934Y-759879D01*
X455864Y-759966D01*
X455798Y-760056D01*
X455735Y-760148D01*
X455675Y-760243D01*
X455619Y-760339D01*
X455566Y-760437D01*
X455517Y-760537D01*
X455471Y-760639D01*
X455429Y-760742D01*
X455390Y-760847D01*
X455355Y-760953D01*
X455324Y-761060D01*
X455297Y-761168D01*
X455273Y-761277D01*
X455254Y-761387D01*
X455238Y-761497D01*
X455226Y-761608D01*
X455218Y-761720D01*
X455214Y-761831D01*
X455214Y-761943D01*
X455218Y-762054D01*
X455226Y-762166D01*
X455238Y-762277D01*
X455254Y-762387D01*
X455273Y-762497D01*
X455297Y-762606D01*
X455324Y-762714D01*
X455355Y-762821D01*
X455390Y-762927D01*
X455429Y-763032D01*
X455471Y-763135D01*
X455517Y-763237D01*
X455566Y-763337D01*
X455619Y-763435D01*
X455675Y-763531D01*
X455735Y-763626D01*
X455798Y-763718D01*
X455864Y-763808D01*
X455934Y-763895D01*
X456006Y-763980D01*
X456081Y-764062D01*
X456160Y-764142D01*
X456241Y-764219D01*
X456324Y-764292D01*
X456410Y-764363D01*
X456499Y-764431D01*
X456590Y-764496D01*
X456683Y-764557D01*
X456778Y-764615D01*
X456876Y-764670D01*
X456975Y-764721D01*
X457076Y-764769D01*
X457178Y-764813D01*
X457282Y-764853D01*
X457388Y-764890D01*
X457494Y-764923D01*
X457602Y-764952D01*
X457711Y-764977D01*
X457820Y-764999D01*
X457930Y-765017D01*
X458041Y-765030D01*
X458152Y-765040D01*
X458263Y-765046D01*
X458375Y-765048D01*
X462439Y-765048D01*
X462439Y-756920D01*
X462438Y-756920D02*
X462436Y-756819D01*
X462430Y-756718D01*
X462421Y-756617D01*
X462408Y-756516D01*
X462391Y-756416D01*
X462370Y-756317D01*
X462346Y-756219D01*
X462318Y-756122D01*
X462286Y-756025D01*
X462251Y-755930D01*
X462212Y-755837D01*
X462170Y-755745D01*
X462124Y-755654D01*
X462075Y-755566D01*
X462023Y-755479D01*
X461967Y-755394D01*
X461909Y-755311D01*
X461847Y-755231D01*
X461782Y-755153D01*
X461715Y-755077D01*
X461645Y-755004D01*
X461572Y-754934D01*
X461496Y-754867D01*
X461418Y-754802D01*
X461338Y-754740D01*
X461255Y-754682D01*
X461170Y-754626D01*
X461084Y-754574D01*
X460995Y-754525D01*
X460904Y-754479D01*
X460812Y-754437D01*
X460719Y-754398D01*
X460624Y-754363D01*
X460527Y-754331D01*
X460430Y-754303D01*
X460332Y-754279D01*
X460233Y-754258D01*
X460133Y-754241D01*
X460032Y-754228D01*
X459931Y-754219D01*
X459830Y-754213D01*
X459729Y-754211D01*
X456117Y-754211D01*
X469320Y-754211D02*
X469320Y-765048D01*
X468869Y-749695D02*
X468869Y-748792D01*
X469772Y-748792D01*
X469772Y-749695D01*
X468869Y-749695D01*
X480714Y-748792D02*
X480839Y-748794D01*
X480964Y-748800D01*
X481089Y-748809D01*
X481213Y-748823D01*
X481337Y-748840D01*
X481461Y-748861D01*
X481583Y-748886D01*
X481705Y-748915D01*
X481826Y-748947D01*
X481946Y-748983D01*
X482065Y-749023D01*
X482182Y-749066D01*
X482298Y-749113D01*
X482413Y-749164D01*
X482525Y-749218D01*
X482637Y-749276D01*
X482746Y-749336D01*
X482853Y-749401D01*
X482959Y-749468D01*
X483062Y-749539D01*
X483163Y-749613D01*
X483262Y-749690D01*
X483358Y-749770D01*
X483452Y-749853D01*
X483543Y-749938D01*
X483632Y-750027D01*
X483717Y-750118D01*
X483800Y-750212D01*
X483880Y-750308D01*
X483957Y-750407D01*
X484031Y-750508D01*
X484102Y-750611D01*
X484169Y-750717D01*
X484234Y-750824D01*
X484294Y-750933D01*
X484352Y-751045D01*
X484406Y-751157D01*
X484457Y-751272D01*
X484504Y-751388D01*
X484547Y-751505D01*
X484587Y-751624D01*
X484623Y-751744D01*
X484655Y-751865D01*
X484684Y-751987D01*
X484709Y-752109D01*
X484730Y-752233D01*
X484747Y-752357D01*
X484761Y-752481D01*
X484770Y-752606D01*
X484776Y-752731D01*
X484778Y-752856D01*
X480714Y-748792D02*
X480571Y-748794D01*
X480429Y-748800D01*
X480286Y-748810D01*
X480144Y-748823D01*
X480003Y-748841D01*
X479861Y-748862D01*
X479721Y-748887D01*
X479581Y-748916D01*
X479442Y-748949D01*
X479304Y-748986D01*
X479167Y-749026D01*
X479032Y-749070D01*
X478897Y-749118D01*
X478764Y-749170D01*
X478632Y-749225D01*
X478502Y-749284D01*
X478374Y-749346D01*
X478247Y-749412D01*
X478122Y-749481D01*
X477999Y-749553D01*
X477878Y-749629D01*
X477760Y-749708D01*
X477643Y-749791D01*
X477529Y-749876D01*
X477417Y-749965D01*
X477308Y-750056D01*
X477201Y-750151D01*
X477096Y-750248D01*
X476995Y-750349D01*
X476896Y-750452D01*
X476800Y-750557D01*
X476707Y-750666D01*
X476617Y-750777D01*
X476530Y-750890D01*
X476446Y-751005D01*
X476366Y-751123D01*
X476288Y-751243D01*
X476214Y-751365D01*
X476144Y-751489D01*
X476076Y-751615D01*
X476013Y-751743D01*
X475952Y-751872D01*
X475895Y-752003D01*
X475842Y-752135D01*
X475793Y-752269D01*
X475747Y-752404D01*
X483423Y-756017D02*
X483517Y-755925D01*
X483607Y-755831D01*
X483695Y-755734D01*
X483780Y-755634D01*
X483862Y-755532D01*
X483940Y-755427D01*
X484016Y-755320D01*
X484088Y-755211D01*
X484157Y-755100D01*
X484223Y-754986D01*
X484285Y-754871D01*
X484344Y-754754D01*
X484399Y-754635D01*
X484450Y-754515D01*
X484498Y-754393D01*
X484543Y-754270D01*
X484583Y-754146D01*
X484620Y-754020D01*
X484653Y-753893D01*
X484682Y-753766D01*
X484708Y-753637D01*
X484729Y-753508D01*
X484747Y-753378D01*
X484760Y-753248D01*
X484770Y-753118D01*
X484776Y-752987D01*
X484778Y-752856D01*
X483423Y-756017D02*
X475747Y-765048D01*
X484778Y-765048D01*
X491378Y-756920D02*
X491382Y-756600D01*
X491393Y-756281D01*
X491412Y-755961D01*
X491439Y-755643D01*
X491473Y-755325D01*
X491515Y-755008D01*
X491565Y-754692D01*
X491622Y-754377D01*
X491686Y-754064D01*
X491758Y-753752D01*
X491837Y-753442D01*
X491924Y-753135D01*
X492018Y-752829D01*
X492119Y-752526D01*
X492228Y-752225D01*
X492343Y-751927D01*
X492466Y-751631D01*
X492596Y-751339D01*
X492733Y-751050D01*
X492734Y-751049D02*
X492773Y-750941D01*
X492816Y-750834D01*
X492862Y-750729D01*
X492912Y-750626D01*
X492966Y-750524D01*
X493023Y-750424D01*
X493084Y-750326D01*
X493148Y-750230D01*
X493215Y-750137D01*
X493285Y-750046D01*
X493359Y-749957D01*
X493435Y-749871D01*
X493515Y-749788D01*
X493597Y-749707D01*
X493682Y-749629D01*
X493769Y-749555D01*
X493860Y-749483D01*
X493952Y-749414D01*
X494047Y-749349D01*
X494144Y-749287D01*
X494243Y-749228D01*
X494344Y-749173D01*
X494447Y-749122D01*
X494552Y-749074D01*
X494658Y-749029D01*
X494765Y-748988D01*
X494874Y-748951D01*
X494985Y-748918D01*
X495096Y-748889D01*
X495208Y-748863D01*
X495321Y-748841D01*
X495435Y-748824D01*
X495549Y-748810D01*
X495664Y-748800D01*
X495779Y-748794D01*
X495894Y-748792D01*
X496009Y-748794D01*
X496124Y-748800D01*
X496239Y-748810D01*
X496353Y-748824D01*
X496467Y-748841D01*
X496580Y-748863D01*
X496692Y-748889D01*
X496804Y-748918D01*
X496914Y-748951D01*
X497023Y-748988D01*
X497131Y-749029D01*
X497237Y-749074D01*
X497342Y-749122D01*
X497444Y-749173D01*
X497546Y-749229D01*
X497645Y-749287D01*
X497742Y-749349D01*
X497837Y-749415D01*
X497929Y-749483D01*
X498019Y-749555D01*
X498107Y-749629D01*
X498192Y-749707D01*
X498274Y-749788D01*
X498353Y-749871D01*
X498430Y-749957D01*
X498503Y-750046D01*
X498574Y-750137D01*
X498641Y-750231D01*
X498705Y-750326D01*
X498766Y-750424D01*
X498823Y-750524D01*
X498876Y-750626D01*
X498927Y-750730D01*
X498973Y-750835D01*
X499016Y-750942D01*
X499055Y-751050D01*
X499054Y-751050D02*
X499191Y-751339D01*
X499321Y-751631D01*
X499444Y-751927D01*
X499559Y-752225D01*
X499668Y-752526D01*
X499769Y-752829D01*
X499863Y-753135D01*
X499950Y-753442D01*
X500029Y-753752D01*
X500101Y-754064D01*
X500165Y-754377D01*
X500222Y-754692D01*
X500272Y-755008D01*
X500314Y-755325D01*
X500348Y-755643D01*
X500375Y-755961D01*
X500394Y-756281D01*
X500405Y-756600D01*
X500409Y-756920D01*
X491378Y-756920D02*
X491382Y-757240D01*
X491393Y-757559D01*
X491412Y-757879D01*
X491439Y-758197D01*
X491473Y-758515D01*
X491515Y-758832D01*
X491565Y-759148D01*
X491622Y-759463D01*
X491686Y-759776D01*
X491758Y-760088D01*
X491837Y-760398D01*
X491924Y-760705D01*
X492018Y-761011D01*
X492119Y-761314D01*
X492228Y-761615D01*
X492343Y-761913D01*
X492466Y-762209D01*
X492596Y-762501D01*
X492733Y-762790D01*
X492733Y-762791D02*
X492772Y-762899D01*
X492815Y-763006D01*
X492861Y-763111D01*
X492912Y-763215D01*
X492965Y-763317D01*
X493022Y-763417D01*
X493083Y-763515D01*
X493147Y-763610D01*
X493214Y-763704D01*
X493285Y-763795D01*
X493358Y-763884D01*
X493435Y-763970D01*
X493514Y-764053D01*
X493596Y-764134D01*
X493681Y-764212D01*
X493769Y-764286D01*
X493859Y-764358D01*
X493952Y-764427D01*
X494046Y-764492D01*
X494143Y-764554D01*
X494243Y-764612D01*
X494344Y-764668D01*
X494446Y-764719D01*
X494551Y-764767D01*
X494657Y-764812D01*
X494765Y-764853D01*
X494874Y-764890D01*
X494984Y-764923D01*
X495096Y-764952D01*
X495208Y-764978D01*
X495321Y-765000D01*
X495435Y-765017D01*
X495549Y-765031D01*
X495664Y-765041D01*
X495779Y-765047D01*
X495894Y-765049D01*
X499054Y-762790D02*
X499191Y-762501D01*
X499321Y-762209D01*
X499444Y-761913D01*
X499559Y-761615D01*
X499668Y-761314D01*
X499769Y-761011D01*
X499863Y-760705D01*
X499950Y-760398D01*
X500029Y-760088D01*
X500101Y-759776D01*
X500165Y-759463D01*
X500222Y-759148D01*
X500272Y-758832D01*
X500314Y-758515D01*
X500348Y-758197D01*
X500375Y-757879D01*
X500394Y-757559D01*
X500405Y-757240D01*
X500409Y-756920D01*
X499055Y-762790D02*
X499016Y-762898D01*
X498973Y-763005D01*
X498927Y-763110D01*
X498876Y-763214D01*
X498823Y-763316D01*
X498766Y-763416D01*
X498705Y-763514D01*
X498641Y-763609D01*
X498574Y-763703D01*
X498503Y-763794D01*
X498430Y-763883D01*
X498353Y-763969D01*
X498274Y-764052D01*
X498192Y-764133D01*
X498107Y-764211D01*
X498019Y-764285D01*
X497929Y-764357D01*
X497836Y-764426D01*
X497742Y-764491D01*
X497645Y-764553D01*
X497545Y-764611D01*
X497444Y-764667D01*
X497341Y-764718D01*
X497237Y-764766D01*
X497131Y-764811D01*
X497023Y-764852D01*
X496914Y-764889D01*
X496804Y-764922D01*
X496692Y-764951D01*
X496580Y-764977D01*
X496467Y-764999D01*
X496353Y-765016D01*
X496239Y-765030D01*
X496124Y-765040D01*
X496009Y-765046D01*
X495894Y-765048D01*
X492281Y-761436D02*
X499506Y-752404D01*
X511976Y-748792D02*
X512101Y-748794D01*
X512226Y-748800D01*
X512351Y-748809D01*
X512475Y-748823D01*
X512599Y-748840D01*
X512723Y-748861D01*
X512845Y-748886D01*
X512967Y-748915D01*
X513088Y-748947D01*
X513208Y-748983D01*
X513327Y-749023D01*
X513444Y-749066D01*
X513560Y-749113D01*
X513675Y-749164D01*
X513787Y-749218D01*
X513899Y-749276D01*
X514008Y-749336D01*
X514115Y-749401D01*
X514221Y-749468D01*
X514324Y-749539D01*
X514425Y-749613D01*
X514524Y-749690D01*
X514620Y-749770D01*
X514714Y-749853D01*
X514805Y-749938D01*
X514894Y-750027D01*
X514979Y-750118D01*
X515062Y-750212D01*
X515142Y-750308D01*
X515219Y-750407D01*
X515293Y-750508D01*
X515364Y-750611D01*
X515431Y-750717D01*
X515496Y-750824D01*
X515556Y-750933D01*
X515614Y-751045D01*
X515668Y-751157D01*
X515719Y-751272D01*
X515766Y-751388D01*
X515809Y-751505D01*
X515849Y-751624D01*
X515885Y-751744D01*
X515917Y-751865D01*
X515946Y-751987D01*
X515971Y-752109D01*
X515992Y-752233D01*
X516009Y-752357D01*
X516023Y-752481D01*
X516032Y-752606D01*
X516038Y-752731D01*
X516040Y-752856D01*
X511976Y-748792D02*
X511833Y-748794D01*
X511691Y-748800D01*
X511548Y-748810D01*
X511406Y-748823D01*
X511265Y-748841D01*
X511123Y-748862D01*
X510983Y-748887D01*
X510843Y-748916D01*
X510704Y-748949D01*
X510566Y-748986D01*
X510429Y-749026D01*
X510294Y-749070D01*
X510159Y-749118D01*
X510026Y-749170D01*
X509894Y-749225D01*
X509764Y-749284D01*
X509636Y-749346D01*
X509509Y-749412D01*
X509384Y-749481D01*
X509261Y-749553D01*
X509140Y-749629D01*
X509022Y-749708D01*
X508905Y-749791D01*
X508791Y-749876D01*
X508679Y-749965D01*
X508570Y-750056D01*
X508463Y-750151D01*
X508358Y-750248D01*
X508257Y-750349D01*
X508158Y-750452D01*
X508062Y-750557D01*
X507969Y-750666D01*
X507879Y-750777D01*
X507792Y-750890D01*
X507708Y-751005D01*
X507628Y-751123D01*
X507550Y-751243D01*
X507476Y-751365D01*
X507406Y-751489D01*
X507338Y-751615D01*
X507275Y-751743D01*
X507214Y-751872D01*
X507157Y-752003D01*
X507104Y-752135D01*
X507055Y-752269D01*
X507009Y-752404D01*
X514685Y-756017D02*
X514779Y-755925D01*
X514869Y-755831D01*
X514957Y-755734D01*
X515042Y-755634D01*
X515124Y-755532D01*
X515202Y-755427D01*
X515278Y-755320D01*
X515350Y-755211D01*
X515419Y-755100D01*
X515485Y-754986D01*
X515547Y-754871D01*
X515606Y-754754D01*
X515661Y-754635D01*
X515712Y-754515D01*
X515760Y-754393D01*
X515805Y-754270D01*
X515845Y-754146D01*
X515882Y-754020D01*
X515915Y-753893D01*
X515944Y-753766D01*
X515970Y-753637D01*
X515991Y-753508D01*
X516009Y-753378D01*
X516022Y-753248D01*
X516032Y-753118D01*
X516038Y-752987D01*
X516040Y-752856D01*
X514686Y-756017D02*
X507009Y-765048D01*
X516040Y-765048D01*
X522640Y-765048D02*
X528059Y-765048D01*
X528177Y-765046D01*
X528295Y-765040D01*
X528413Y-765031D01*
X528530Y-765017D01*
X528647Y-765000D01*
X528764Y-764979D01*
X528879Y-764954D01*
X528994Y-764925D01*
X529108Y-764892D01*
X529220Y-764856D01*
X529331Y-764816D01*
X529441Y-764773D01*
X529550Y-764726D01*
X529657Y-764676D01*
X529762Y-764621D01*
X529865Y-764564D01*
X529966Y-764503D01*
X530066Y-764439D01*
X530163Y-764372D01*
X530258Y-764302D01*
X530350Y-764228D01*
X530441Y-764152D01*
X530528Y-764072D01*
X530613Y-763990D01*
X530695Y-763905D01*
X530775Y-763818D01*
X530851Y-763727D01*
X530925Y-763635D01*
X530995Y-763540D01*
X531062Y-763443D01*
X531126Y-763343D01*
X531187Y-763242D01*
X531244Y-763139D01*
X531299Y-763034D01*
X531349Y-762927D01*
X531396Y-762818D01*
X531439Y-762708D01*
X531479Y-762597D01*
X531515Y-762485D01*
X531548Y-762371D01*
X531577Y-762256D01*
X531602Y-762141D01*
X531623Y-762024D01*
X531640Y-761907D01*
X531654Y-761790D01*
X531663Y-761672D01*
X531669Y-761554D01*
X531671Y-761436D01*
X531672Y-761436D02*
X531672Y-759629D01*
X531671Y-759629D02*
X531669Y-759511D01*
X531663Y-759393D01*
X531654Y-759275D01*
X531640Y-759158D01*
X531623Y-759041D01*
X531602Y-758924D01*
X531577Y-758809D01*
X531548Y-758694D01*
X531515Y-758580D01*
X531479Y-758468D01*
X531439Y-758357D01*
X531396Y-758247D01*
X531349Y-758138D01*
X531299Y-758031D01*
X531244Y-757926D01*
X531187Y-757823D01*
X531126Y-757722D01*
X531062Y-757622D01*
X530995Y-757525D01*
X530925Y-757430D01*
X530851Y-757338D01*
X530775Y-757247D01*
X530695Y-757160D01*
X530613Y-757075D01*
X530528Y-756993D01*
X530441Y-756913D01*
X530350Y-756837D01*
X530258Y-756763D01*
X530163Y-756693D01*
X530066Y-756626D01*
X529966Y-756562D01*
X529865Y-756501D01*
X529762Y-756444D01*
X529657Y-756389D01*
X529550Y-756339D01*
X529441Y-756292D01*
X529331Y-756249D01*
X529220Y-756209D01*
X529108Y-756173D01*
X528994Y-756140D01*
X528879Y-756111D01*
X528764Y-756086D01*
X528647Y-756065D01*
X528530Y-756048D01*
X528413Y-756034D01*
X528295Y-756025D01*
X528177Y-756019D01*
X528059Y-756017D01*
X522640Y-756017D01*
X522640Y-748792D01*
X531672Y-748792D01*
X391507Y-775462D02*
X391507Y-791718D01*
X398732Y-791718D01*
X405892Y-791718D02*
X405892Y-775462D01*
X404086Y-791718D02*
X407698Y-791718D01*
X407698Y-775462D02*
X404086Y-775462D01*
X418779Y-791718D02*
X418897Y-791716D01*
X419015Y-791710D01*
X419133Y-791701D01*
X419250Y-791687D01*
X419367Y-791670D01*
X419484Y-791649D01*
X419599Y-791624D01*
X419714Y-791595D01*
X419828Y-791562D01*
X419940Y-791526D01*
X420051Y-791486D01*
X420161Y-791443D01*
X420270Y-791396D01*
X420377Y-791346D01*
X420482Y-791291D01*
X420585Y-791234D01*
X420686Y-791173D01*
X420786Y-791109D01*
X420883Y-791042D01*
X420978Y-790972D01*
X421070Y-790898D01*
X421161Y-790822D01*
X421248Y-790742D01*
X421333Y-790660D01*
X421415Y-790575D01*
X421495Y-790488D01*
X421571Y-790397D01*
X421645Y-790305D01*
X421715Y-790210D01*
X421782Y-790113D01*
X421846Y-790013D01*
X421907Y-789912D01*
X421964Y-789809D01*
X422019Y-789704D01*
X422069Y-789597D01*
X422116Y-789488D01*
X422159Y-789378D01*
X422199Y-789267D01*
X422235Y-789155D01*
X422268Y-789041D01*
X422297Y-788926D01*
X422322Y-788811D01*
X422343Y-788694D01*
X422360Y-788577D01*
X422374Y-788460D01*
X422383Y-788342D01*
X422389Y-788224D01*
X422391Y-788106D01*
X418779Y-791718D02*
X418596Y-791716D01*
X418414Y-791709D01*
X418232Y-791698D01*
X418050Y-791683D01*
X417868Y-791663D01*
X417687Y-791640D01*
X417507Y-791611D01*
X417327Y-791579D01*
X417148Y-791542D01*
X416971Y-791501D01*
X416794Y-791455D01*
X416618Y-791406D01*
X416444Y-791352D01*
X416270Y-791294D01*
X416099Y-791232D01*
X415929Y-791166D01*
X415760Y-791095D01*
X415593Y-791021D01*
X415428Y-790943D01*
X415265Y-790861D01*
X415104Y-790775D01*
X414945Y-790685D01*
X414788Y-790591D01*
X414634Y-790494D01*
X414482Y-790393D01*
X414332Y-790288D01*
X414185Y-790180D01*
X414041Y-790069D01*
X413899Y-789954D01*
X413760Y-789835D01*
X413624Y-789713D01*
X413491Y-789588D01*
X413361Y-789460D01*
X413813Y-779074D02*
X413815Y-778956D01*
X413821Y-778838D01*
X413830Y-778720D01*
X413844Y-778603D01*
X413861Y-778486D01*
X413882Y-778369D01*
X413907Y-778254D01*
X413936Y-778139D01*
X413969Y-778025D01*
X414005Y-777913D01*
X414045Y-777802D01*
X414088Y-777692D01*
X414135Y-777583D01*
X414185Y-777476D01*
X414240Y-777371D01*
X414297Y-777268D01*
X414358Y-777167D01*
X414422Y-777067D01*
X414489Y-776970D01*
X414559Y-776875D01*
X414633Y-776783D01*
X414709Y-776692D01*
X414789Y-776605D01*
X414871Y-776520D01*
X414956Y-776438D01*
X415043Y-776358D01*
X415134Y-776282D01*
X415226Y-776208D01*
X415321Y-776138D01*
X415418Y-776071D01*
X415518Y-776007D01*
X415619Y-775946D01*
X415722Y-775889D01*
X415827Y-775834D01*
X415934Y-775784D01*
X416043Y-775737D01*
X416153Y-775694D01*
X416264Y-775654D01*
X416376Y-775618D01*
X416490Y-775585D01*
X416605Y-775556D01*
X416720Y-775531D01*
X416837Y-775510D01*
X416954Y-775493D01*
X417071Y-775479D01*
X417189Y-775470D01*
X417307Y-775464D01*
X417425Y-775462D01*
X417586Y-775464D01*
X417748Y-775470D01*
X417909Y-775479D01*
X418070Y-775493D01*
X418230Y-775510D01*
X418390Y-775531D01*
X418550Y-775556D01*
X418709Y-775585D01*
X418867Y-775617D01*
X419024Y-775653D01*
X419180Y-775693D01*
X419336Y-775737D01*
X419490Y-775785D01*
X419643Y-775836D01*
X419795Y-775890D01*
X419946Y-775949D01*
X420095Y-776010D01*
X420242Y-776076D01*
X420388Y-776145D01*
X420533Y-776217D01*
X420675Y-776293D01*
X420816Y-776372D01*
X420955Y-776454D01*
X421091Y-776540D01*
X421226Y-776629D01*
X421359Y-776721D01*
X421489Y-776817D01*
X415618Y-782235D02*
X415517Y-782173D01*
X415417Y-782108D01*
X415320Y-782039D01*
X415225Y-781967D01*
X415132Y-781893D01*
X415042Y-781815D01*
X414954Y-781734D01*
X414869Y-781651D01*
X414787Y-781565D01*
X414708Y-781476D01*
X414631Y-781385D01*
X414558Y-781291D01*
X414487Y-781195D01*
X414420Y-781097D01*
X414356Y-780997D01*
X414295Y-780894D01*
X414238Y-780790D01*
X414184Y-780684D01*
X414134Y-780576D01*
X414087Y-780467D01*
X414043Y-780356D01*
X414003Y-780244D01*
X413967Y-780130D01*
X413935Y-780016D01*
X413906Y-779900D01*
X413881Y-779784D01*
X413860Y-779667D01*
X413843Y-779549D01*
X413829Y-779431D01*
X413820Y-779312D01*
X413814Y-779193D01*
X413812Y-779074D01*
X420586Y-784945D02*
X420687Y-785007D01*
X420787Y-785072D01*
X420884Y-785141D01*
X420979Y-785213D01*
X421072Y-785287D01*
X421162Y-785365D01*
X421250Y-785446D01*
X421335Y-785529D01*
X421417Y-785615D01*
X421496Y-785704D01*
X421573Y-785795D01*
X421646Y-785889D01*
X421717Y-785985D01*
X421784Y-786083D01*
X421848Y-786183D01*
X421909Y-786286D01*
X421966Y-786390D01*
X422020Y-786496D01*
X422070Y-786604D01*
X422117Y-786713D01*
X422161Y-786824D01*
X422201Y-786936D01*
X422237Y-787050D01*
X422269Y-787164D01*
X422298Y-787280D01*
X422323Y-787396D01*
X422344Y-787513D01*
X422361Y-787631D01*
X422375Y-787749D01*
X422384Y-787868D01*
X422390Y-787987D01*
X422392Y-788106D01*
X420585Y-784945D02*
X415618Y-782235D01*
X427568Y-775462D02*
X432986Y-791718D01*
X438405Y-775462D01*
X366678Y-802132D02*
X366678Y-818388D01*
X366678Y-802132D02*
X371194Y-802132D01*
X371327Y-802134D01*
X371459Y-802140D01*
X371591Y-802150D01*
X371723Y-802163D01*
X371855Y-802181D01*
X371985Y-802202D01*
X372116Y-802227D01*
X372245Y-802256D01*
X372373Y-802289D01*
X372501Y-802325D01*
X372627Y-802365D01*
X372752Y-802409D01*
X372876Y-802457D01*
X372998Y-802508D01*
X373119Y-802563D01*
X373238Y-802621D01*
X373356Y-802683D01*
X373471Y-802748D01*
X373585Y-802817D01*
X373696Y-802888D01*
X373805Y-802964D01*
X373912Y-803042D01*
X374017Y-803123D01*
X374119Y-803208D01*
X374219Y-803295D01*
X374316Y-803385D01*
X374411Y-803478D01*
X374502Y-803574D01*
X374591Y-803672D01*
X374677Y-803773D01*
X374760Y-803877D01*
X374840Y-803983D01*
X374916Y-804091D01*
X374990Y-804201D01*
X375060Y-804314D01*
X375127Y-804428D01*
X375190Y-804545D01*
X375250Y-804663D01*
X375307Y-804783D01*
X375360Y-804905D01*
X375409Y-805028D01*
X375455Y-805152D01*
X375497Y-805278D01*
X375535Y-805405D01*
X375570Y-805533D01*
X375601Y-805662D01*
X375628Y-805791D01*
X375651Y-805922D01*
X375671Y-806053D01*
X375686Y-806185D01*
X375698Y-806317D01*
X375706Y-806449D01*
X375710Y-806582D01*
X375710Y-806714D01*
X375706Y-806847D01*
X375698Y-806979D01*
X375686Y-807111D01*
X375671Y-807243D01*
X375651Y-807374D01*
X375628Y-807505D01*
X375601Y-807634D01*
X375570Y-807763D01*
X375535Y-807891D01*
X375497Y-808018D01*
X375455Y-808144D01*
X375409Y-808268D01*
X375360Y-808391D01*
X375307Y-808513D01*
X375250Y-808633D01*
X375190Y-808751D01*
X375127Y-808868D01*
X375060Y-808982D01*
X374990Y-809095D01*
X374916Y-809205D01*
X374840Y-809313D01*
X374760Y-809419D01*
X374677Y-809523D01*
X374591Y-809624D01*
X374502Y-809722D01*
X374411Y-809818D01*
X374316Y-809911D01*
X374219Y-810001D01*
X374119Y-810088D01*
X374017Y-810173D01*
X373912Y-810254D01*
X373805Y-810332D01*
X373696Y-810408D01*
X373585Y-810479D01*
X373471Y-810548D01*
X373356Y-810613D01*
X373238Y-810675D01*
X373119Y-810733D01*
X372998Y-810788D01*
X372876Y-810839D01*
X372752Y-810887D01*
X372627Y-810931D01*
X372501Y-810971D01*
X372373Y-811007D01*
X372245Y-811040D01*
X372116Y-811069D01*
X371985Y-811094D01*
X371855Y-811115D01*
X371723Y-811133D01*
X371591Y-811146D01*
X371459Y-811156D01*
X371327Y-811162D01*
X371194Y-811164D01*
X371194Y-811163D02*
X366678Y-811163D01*
X382044Y-807551D02*
X382044Y-818388D01*
X382044Y-807551D02*
X387463Y-807551D01*
X387463Y-809357D01*
X392380Y-811163D02*
X392380Y-814776D01*
X392381Y-811163D02*
X392383Y-811044D01*
X392389Y-810924D01*
X392399Y-810805D01*
X392413Y-810687D01*
X392430Y-810568D01*
X392452Y-810451D01*
X392477Y-810334D01*
X392507Y-810219D01*
X392540Y-810104D01*
X392577Y-809990D01*
X392617Y-809878D01*
X392662Y-809767D01*
X392710Y-809658D01*
X392761Y-809550D01*
X392816Y-809444D01*
X392875Y-809340D01*
X392937Y-809238D01*
X393002Y-809138D01*
X393071Y-809040D01*
X393143Y-808944D01*
X393218Y-808851D01*
X393295Y-808761D01*
X393376Y-808673D01*
X393460Y-808588D01*
X393547Y-808506D01*
X393636Y-808426D01*
X393728Y-808350D01*
X393822Y-808276D01*
X393919Y-808206D01*
X394017Y-808139D01*
X394118Y-808075D01*
X394222Y-808015D01*
X394327Y-807958D01*
X394434Y-807905D01*
X394542Y-807855D01*
X394652Y-807809D01*
X394764Y-807767D01*
X394877Y-807728D01*
X394991Y-807693D01*
X395106Y-807662D01*
X395223Y-807634D01*
X395340Y-807611D01*
X395457Y-807591D01*
X395576Y-807575D01*
X395695Y-807563D01*
X395814Y-807555D01*
X395933Y-807551D01*
X396053Y-807551D01*
X396172Y-807555D01*
X396291Y-807563D01*
X396410Y-807575D01*
X396529Y-807591D01*
X396646Y-807611D01*
X396763Y-807634D01*
X396880Y-807662D01*
X396995Y-807693D01*
X397109Y-807728D01*
X397222Y-807767D01*
X397334Y-807809D01*
X397444Y-807855D01*
X397552Y-807905D01*
X397659Y-807958D01*
X397764Y-808015D01*
X397868Y-808075D01*
X397969Y-808139D01*
X398067Y-808206D01*
X398164Y-808276D01*
X398258Y-808350D01*
X398350Y-808426D01*
X398439Y-808506D01*
X398526Y-808588D01*
X398610Y-808673D01*
X398691Y-808761D01*
X398768Y-808851D01*
X398843Y-808944D01*
X398915Y-809040D01*
X398984Y-809138D01*
X399049Y-809238D01*
X399111Y-809340D01*
X399170Y-809444D01*
X399225Y-809550D01*
X399276Y-809658D01*
X399324Y-809767D01*
X399369Y-809878D01*
X399409Y-809990D01*
X399446Y-810104D01*
X399479Y-810219D01*
X399509Y-810334D01*
X399534Y-810451D01*
X399556Y-810568D01*
X399573Y-810687D01*
X399587Y-810805D01*
X399597Y-810924D01*
X399603Y-811044D01*
X399605Y-811163D01*
X399605Y-814776D01*
X399603Y-814895D01*
X399597Y-815015D01*
X399587Y-815134D01*
X399573Y-815252D01*
X399556Y-815371D01*
X399534Y-815488D01*
X399509Y-815605D01*
X399479Y-815720D01*
X399446Y-815835D01*
X399409Y-815949D01*
X399369Y-816061D01*
X399324Y-816172D01*
X399276Y-816281D01*
X399225Y-816389D01*
X399170Y-816495D01*
X399111Y-816599D01*
X399049Y-816701D01*
X398984Y-816801D01*
X398915Y-816899D01*
X398843Y-816995D01*
X398768Y-817088D01*
X398691Y-817178D01*
X398610Y-817266D01*
X398526Y-817351D01*
X398439Y-817433D01*
X398350Y-817513D01*
X398258Y-817589D01*
X398164Y-817663D01*
X398067Y-817733D01*
X397969Y-817800D01*
X397868Y-817864D01*
X397764Y-817924D01*
X397659Y-817981D01*
X397552Y-818034D01*
X397444Y-818084D01*
X397334Y-818130D01*
X397222Y-818172D01*
X397109Y-818211D01*
X396995Y-818246D01*
X396880Y-818277D01*
X396763Y-818305D01*
X396646Y-818328D01*
X396529Y-818348D01*
X396410Y-818364D01*
X396291Y-818376D01*
X396172Y-818384D01*
X396053Y-818388D01*
X395933Y-818388D01*
X395814Y-818384D01*
X395695Y-818376D01*
X395576Y-818364D01*
X395457Y-818348D01*
X395340Y-818328D01*
X395223Y-818305D01*
X395106Y-818277D01*
X394991Y-818246D01*
X394877Y-818211D01*
X394764Y-818172D01*
X394652Y-818130D01*
X394542Y-818084D01*
X394434Y-818034D01*
X394327Y-817981D01*
X394222Y-817924D01*
X394118Y-817864D01*
X394017Y-817800D01*
X393919Y-817733D01*
X393822Y-817663D01*
X393728Y-817589D01*
X393636Y-817513D01*
X393547Y-817433D01*
X393460Y-817351D01*
X393376Y-817266D01*
X393295Y-817178D01*
X393218Y-817088D01*
X393143Y-816995D01*
X393071Y-816899D01*
X393002Y-816801D01*
X392937Y-816701D01*
X392875Y-816599D01*
X392816Y-816495D01*
X392761Y-816389D01*
X392710Y-816281D01*
X392662Y-816172D01*
X392617Y-816061D01*
X392577Y-815949D01*
X392540Y-815835D01*
X392507Y-815720D01*
X392477Y-815605D01*
X392452Y-815488D01*
X392430Y-815371D01*
X392413Y-815252D01*
X392399Y-815134D01*
X392389Y-815015D01*
X392383Y-814895D01*
X392381Y-814776D01*
X404630Y-807551D02*
X410049Y-807551D01*
X406436Y-802132D02*
X406436Y-815679D01*
X406438Y-815780D01*
X406444Y-815881D01*
X406453Y-815982D01*
X406466Y-816083D01*
X406483Y-816183D01*
X406504Y-816282D01*
X406528Y-816380D01*
X406556Y-816477D01*
X406588Y-816574D01*
X406623Y-816669D01*
X406662Y-816762D01*
X406704Y-816854D01*
X406750Y-816945D01*
X406799Y-817034D01*
X406851Y-817120D01*
X406907Y-817205D01*
X406965Y-817288D01*
X407027Y-817368D01*
X407092Y-817446D01*
X407159Y-817522D01*
X407229Y-817595D01*
X407302Y-817665D01*
X407378Y-817732D01*
X407456Y-817797D01*
X407536Y-817859D01*
X407619Y-817917D01*
X407704Y-817973D01*
X407791Y-818025D01*
X407879Y-818074D01*
X407970Y-818120D01*
X408062Y-818162D01*
X408155Y-818201D01*
X408250Y-818236D01*
X408347Y-818268D01*
X408444Y-818296D01*
X408542Y-818320D01*
X408641Y-818341D01*
X408741Y-818358D01*
X408842Y-818371D01*
X408943Y-818380D01*
X409044Y-818386D01*
X409145Y-818388D01*
X410049Y-818388D01*
X415827Y-814776D02*
X415827Y-811163D01*
X415829Y-811044D01*
X415835Y-810924D01*
X415845Y-810805D01*
X415859Y-810687D01*
X415876Y-810568D01*
X415898Y-810451D01*
X415923Y-810334D01*
X415953Y-810219D01*
X415986Y-810104D01*
X416023Y-809990D01*
X416063Y-809878D01*
X416108Y-809767D01*
X416156Y-809658D01*
X416207Y-809550D01*
X416262Y-809444D01*
X416321Y-809340D01*
X416383Y-809238D01*
X416448Y-809138D01*
X416517Y-809040D01*
X416589Y-808944D01*
X416664Y-808851D01*
X416741Y-808761D01*
X416822Y-808673D01*
X416906Y-808588D01*
X416993Y-808506D01*
X417082Y-808426D01*
X417174Y-808350D01*
X417268Y-808276D01*
X417365Y-808206D01*
X417463Y-808139D01*
X417564Y-808075D01*
X417668Y-808015D01*
X417773Y-807958D01*
X417880Y-807905D01*
X417988Y-807855D01*
X418098Y-807809D01*
X418210Y-807767D01*
X418323Y-807728D01*
X418437Y-807693D01*
X418552Y-807662D01*
X418669Y-807634D01*
X418786Y-807611D01*
X418903Y-807591D01*
X419022Y-807575D01*
X419141Y-807563D01*
X419260Y-807555D01*
X419379Y-807551D01*
X419499Y-807551D01*
X419618Y-807555D01*
X419737Y-807563D01*
X419856Y-807575D01*
X419975Y-807591D01*
X420092Y-807611D01*
X420209Y-807634D01*
X420326Y-807662D01*
X420441Y-807693D01*
X420555Y-807728D01*
X420668Y-807767D01*
X420780Y-807809D01*
X420890Y-807855D01*
X420998Y-807905D01*
X421105Y-807958D01*
X421210Y-808015D01*
X421314Y-808075D01*
X421415Y-808139D01*
X421513Y-808206D01*
X421610Y-808276D01*
X421704Y-808350D01*
X421796Y-808426D01*
X421885Y-808506D01*
X421972Y-808588D01*
X422056Y-808673D01*
X422137Y-808761D01*
X422214Y-808851D01*
X422289Y-808944D01*
X422361Y-809040D01*
X422430Y-809138D01*
X422495Y-809238D01*
X422557Y-809340D01*
X422616Y-809444D01*
X422671Y-809550D01*
X422722Y-809658D01*
X422770Y-809767D01*
X422815Y-809878D01*
X422855Y-809990D01*
X422892Y-810104D01*
X422925Y-810219D01*
X422955Y-810334D01*
X422980Y-810451D01*
X423002Y-810568D01*
X423019Y-810687D01*
X423033Y-810805D01*
X423043Y-810924D01*
X423049Y-811044D01*
X423051Y-811163D01*
X423052Y-811163D02*
X423052Y-814776D01*
X423051Y-814776D02*
X423049Y-814895D01*
X423043Y-815015D01*
X423033Y-815134D01*
X423019Y-815252D01*
X423002Y-815371D01*
X422980Y-815488D01*
X422955Y-815605D01*
X422925Y-815720D01*
X422892Y-815835D01*
X422855Y-815949D01*
X422815Y-816061D01*
X422770Y-816172D01*
X422722Y-816281D01*
X422671Y-816389D01*
X422616Y-816495D01*
X422557Y-816599D01*
X422495Y-816701D01*
X422430Y-816801D01*
X422361Y-816899D01*
X422289Y-816995D01*
X422214Y-817088D01*
X422137Y-817178D01*
X422056Y-817266D01*
X421972Y-817351D01*
X421885Y-817433D01*
X421796Y-817513D01*
X421704Y-817589D01*
X421610Y-817663D01*
X421513Y-817733D01*
X421415Y-817800D01*
X421314Y-817864D01*
X421210Y-817924D01*
X421105Y-817981D01*
X420998Y-818034D01*
X420890Y-818084D01*
X420780Y-818130D01*
X420668Y-818172D01*
X420555Y-818211D01*
X420441Y-818246D01*
X420326Y-818277D01*
X420209Y-818305D01*
X420092Y-818328D01*
X419975Y-818348D01*
X419856Y-818364D01*
X419737Y-818376D01*
X419618Y-818384D01*
X419499Y-818388D01*
X419379Y-818388D01*
X419260Y-818384D01*
X419141Y-818376D01*
X419022Y-818364D01*
X418903Y-818348D01*
X418786Y-818328D01*
X418669Y-818305D01*
X418552Y-818277D01*
X418437Y-818246D01*
X418323Y-818211D01*
X418210Y-818172D01*
X418098Y-818130D01*
X417988Y-818084D01*
X417880Y-818034D01*
X417773Y-817981D01*
X417668Y-817924D01*
X417564Y-817864D01*
X417463Y-817800D01*
X417365Y-817733D01*
X417268Y-817663D01*
X417174Y-817589D01*
X417082Y-817513D01*
X416993Y-817433D01*
X416906Y-817351D01*
X416822Y-817266D01*
X416741Y-817178D01*
X416664Y-817088D01*
X416589Y-816995D01*
X416517Y-816899D01*
X416448Y-816801D01*
X416383Y-816701D01*
X416321Y-816599D01*
X416262Y-816495D01*
X416207Y-816389D01*
X416156Y-816281D01*
X416108Y-816172D01*
X416063Y-816061D01*
X416023Y-815949D01*
X415986Y-815835D01*
X415953Y-815720D01*
X415923Y-815605D01*
X415898Y-815488D01*
X415876Y-815371D01*
X415859Y-815252D01*
X415845Y-815134D01*
X415835Y-815015D01*
X415829Y-814895D01*
X415827Y-814776D01*
X439239Y-818388D02*
X439239Y-802132D01*
X437433Y-818388D02*
X441045Y-818388D01*
X441045Y-802132D02*
X437433Y-802132D01*
X446325Y-802132D02*
X451744Y-818388D01*
X457162Y-802132D01*
X462859Y-805744D02*
X467375Y-802132D01*
X467375Y-818388D01*
X462859Y-818388D02*
X471891Y-818388D01*
D11*
X192363Y-659892D02*
X188468Y-648208D01*
X196257Y-648208D02*
X192363Y-659892D01*
X203110Y-659892D02*
X205707Y-659892D01*
X203110Y-659892D02*
X203011Y-659890D01*
X202911Y-659884D01*
X202812Y-659875D01*
X202714Y-659862D01*
X202616Y-659845D01*
X202518Y-659824D01*
X202422Y-659799D01*
X202327Y-659771D01*
X202233Y-659739D01*
X202140Y-659704D01*
X202048Y-659665D01*
X201958Y-659622D01*
X201870Y-659577D01*
X201783Y-659527D01*
X201699Y-659475D01*
X201616Y-659419D01*
X201536Y-659361D01*
X201458Y-659299D01*
X201383Y-659234D01*
X201310Y-659166D01*
X201240Y-659096D01*
X201172Y-659023D01*
X201107Y-658948D01*
X201045Y-658870D01*
X200987Y-658790D01*
X200931Y-658707D01*
X200879Y-658623D01*
X200829Y-658536D01*
X200784Y-658448D01*
X200741Y-658358D01*
X200702Y-658266D01*
X200667Y-658173D01*
X200635Y-658079D01*
X200607Y-657984D01*
X200582Y-657888D01*
X200561Y-657790D01*
X200544Y-657692D01*
X200531Y-657594D01*
X200522Y-657495D01*
X200516Y-657395D01*
X200514Y-657296D01*
X200514Y-650804D01*
X200513Y-650804D02*
X200515Y-650705D01*
X200521Y-650605D01*
X200530Y-650506D01*
X200543Y-650408D01*
X200561Y-650310D01*
X200581Y-650212D01*
X200606Y-650116D01*
X200634Y-650020D01*
X200666Y-649926D01*
X200701Y-649833D01*
X200740Y-649742D01*
X200783Y-649652D01*
X200828Y-649563D01*
X200878Y-649477D01*
X200930Y-649392D01*
X200986Y-649310D01*
X201045Y-649230D01*
X201106Y-649152D01*
X201171Y-649076D01*
X201239Y-649003D01*
X201309Y-648933D01*
X201382Y-648865D01*
X201458Y-648800D01*
X201536Y-648739D01*
X201616Y-648680D01*
X201698Y-648624D01*
X201783Y-648572D01*
X201869Y-648523D01*
X201958Y-648477D01*
X202048Y-648434D01*
X202139Y-648395D01*
X202232Y-648360D01*
X202326Y-648328D01*
X202422Y-648300D01*
X202518Y-648275D01*
X202616Y-648255D01*
X202714Y-648237D01*
X202812Y-648224D01*
X202911Y-648215D01*
X203010Y-648209D01*
X203110Y-648207D01*
X203110Y-648208D02*
X205707Y-648208D01*
X212635Y-659892D02*
X215232Y-659892D01*
X212635Y-659892D02*
X212536Y-659890D01*
X212436Y-659884D01*
X212337Y-659875D01*
X212239Y-659862D01*
X212141Y-659845D01*
X212043Y-659824D01*
X211947Y-659799D01*
X211852Y-659771D01*
X211758Y-659739D01*
X211665Y-659704D01*
X211573Y-659665D01*
X211483Y-659622D01*
X211395Y-659577D01*
X211308Y-659527D01*
X211224Y-659475D01*
X211141Y-659419D01*
X211061Y-659361D01*
X210983Y-659299D01*
X210908Y-659234D01*
X210835Y-659166D01*
X210765Y-659096D01*
X210697Y-659023D01*
X210632Y-658948D01*
X210570Y-658870D01*
X210512Y-658790D01*
X210456Y-658707D01*
X210404Y-658623D01*
X210354Y-658536D01*
X210309Y-658448D01*
X210266Y-658358D01*
X210227Y-658266D01*
X210192Y-658173D01*
X210160Y-658079D01*
X210132Y-657984D01*
X210107Y-657888D01*
X210086Y-657790D01*
X210069Y-657692D01*
X210056Y-657594D01*
X210047Y-657495D01*
X210041Y-657395D01*
X210039Y-657296D01*
X210039Y-650804D01*
X210038Y-650804D02*
X210040Y-650705D01*
X210046Y-650605D01*
X210055Y-650506D01*
X210068Y-650408D01*
X210086Y-650310D01*
X210106Y-650212D01*
X210131Y-650116D01*
X210159Y-650020D01*
X210191Y-649926D01*
X210226Y-649833D01*
X210265Y-649742D01*
X210308Y-649652D01*
X210353Y-649563D01*
X210403Y-649477D01*
X210455Y-649392D01*
X210511Y-649310D01*
X210570Y-649230D01*
X210631Y-649152D01*
X210696Y-649076D01*
X210764Y-649003D01*
X210834Y-648933D01*
X210907Y-648865D01*
X210983Y-648800D01*
X211061Y-648739D01*
X211141Y-648680D01*
X211223Y-648624D01*
X211308Y-648572D01*
X211394Y-648523D01*
X211483Y-648477D01*
X211573Y-648434D01*
X211664Y-648395D01*
X211757Y-648360D01*
X211851Y-648328D01*
X211947Y-648300D01*
X212043Y-648275D01*
X212141Y-648255D01*
X212239Y-648237D01*
X212337Y-648224D01*
X212436Y-648215D01*
X212535Y-648209D01*
X212635Y-648207D01*
X212635Y-648208D02*
X215232Y-648208D01*
X188468Y-737108D02*
X192363Y-748792D01*
X196257Y-737108D01*
X203110Y-748792D02*
X205707Y-748792D01*
X203110Y-748792D02*
X203011Y-748790D01*
X202911Y-748784D01*
X202812Y-748775D01*
X202714Y-748762D01*
X202616Y-748745D01*
X202518Y-748724D01*
X202422Y-748699D01*
X202327Y-748671D01*
X202233Y-748639D01*
X202140Y-748604D01*
X202048Y-748565D01*
X201958Y-748522D01*
X201870Y-748477D01*
X201783Y-748427D01*
X201699Y-748375D01*
X201616Y-748319D01*
X201536Y-748261D01*
X201458Y-748199D01*
X201383Y-748134D01*
X201310Y-748066D01*
X201240Y-747996D01*
X201172Y-747923D01*
X201107Y-747848D01*
X201045Y-747770D01*
X200987Y-747690D01*
X200931Y-747607D01*
X200879Y-747523D01*
X200829Y-747436D01*
X200784Y-747348D01*
X200741Y-747258D01*
X200702Y-747166D01*
X200667Y-747073D01*
X200635Y-746979D01*
X200607Y-746884D01*
X200582Y-746788D01*
X200561Y-746690D01*
X200544Y-746592D01*
X200531Y-746494D01*
X200522Y-746395D01*
X200516Y-746295D01*
X200514Y-746196D01*
X200514Y-739704D01*
X200513Y-739704D02*
X200515Y-739605D01*
X200521Y-739505D01*
X200530Y-739406D01*
X200543Y-739308D01*
X200561Y-739210D01*
X200581Y-739112D01*
X200606Y-739016D01*
X200634Y-738920D01*
X200666Y-738826D01*
X200701Y-738733D01*
X200740Y-738642D01*
X200783Y-738552D01*
X200828Y-738463D01*
X200878Y-738377D01*
X200930Y-738292D01*
X200986Y-738210D01*
X201045Y-738130D01*
X201106Y-738052D01*
X201171Y-737976D01*
X201239Y-737903D01*
X201309Y-737833D01*
X201382Y-737765D01*
X201458Y-737700D01*
X201536Y-737639D01*
X201616Y-737580D01*
X201698Y-737524D01*
X201783Y-737472D01*
X201869Y-737423D01*
X201958Y-737377D01*
X202048Y-737334D01*
X202139Y-737295D01*
X202232Y-737260D01*
X202326Y-737228D01*
X202422Y-737200D01*
X202518Y-737175D01*
X202616Y-737155D01*
X202714Y-737137D01*
X202812Y-737124D01*
X202911Y-737115D01*
X203010Y-737109D01*
X203110Y-737107D01*
X203110Y-737108D02*
X205707Y-737108D01*
X212635Y-748792D02*
X215232Y-748792D01*
X212635Y-748792D02*
X212536Y-748790D01*
X212436Y-748784D01*
X212337Y-748775D01*
X212239Y-748762D01*
X212141Y-748745D01*
X212043Y-748724D01*
X211947Y-748699D01*
X211852Y-748671D01*
X211758Y-748639D01*
X211665Y-748604D01*
X211573Y-748565D01*
X211483Y-748522D01*
X211395Y-748477D01*
X211308Y-748427D01*
X211224Y-748375D01*
X211141Y-748319D01*
X211061Y-748261D01*
X210983Y-748199D01*
X210908Y-748134D01*
X210835Y-748066D01*
X210765Y-747996D01*
X210697Y-747923D01*
X210632Y-747848D01*
X210570Y-747770D01*
X210512Y-747690D01*
X210456Y-747607D01*
X210404Y-747523D01*
X210354Y-747436D01*
X210309Y-747348D01*
X210266Y-747258D01*
X210227Y-747166D01*
X210192Y-747073D01*
X210160Y-746979D01*
X210132Y-746884D01*
X210107Y-746788D01*
X210086Y-746690D01*
X210069Y-746592D01*
X210056Y-746494D01*
X210047Y-746395D01*
X210041Y-746295D01*
X210039Y-746196D01*
X210039Y-739704D01*
X210038Y-739704D02*
X210040Y-739605D01*
X210046Y-739505D01*
X210055Y-739406D01*
X210068Y-739308D01*
X210086Y-739210D01*
X210106Y-739112D01*
X210131Y-739016D01*
X210159Y-738920D01*
X210191Y-738826D01*
X210226Y-738733D01*
X210265Y-738642D01*
X210308Y-738552D01*
X210353Y-738463D01*
X210403Y-738377D01*
X210455Y-738292D01*
X210511Y-738210D01*
X210570Y-738130D01*
X210631Y-738052D01*
X210696Y-737976D01*
X210764Y-737903D01*
X210834Y-737833D01*
X210907Y-737765D01*
X210983Y-737700D01*
X211061Y-737639D01*
X211141Y-737580D01*
X211223Y-737524D01*
X211308Y-737472D01*
X211394Y-737423D01*
X211483Y-737377D01*
X211573Y-737334D01*
X211664Y-737295D01*
X211757Y-737260D01*
X211851Y-737228D01*
X211947Y-737200D01*
X212043Y-737175D01*
X212141Y-737155D01*
X212239Y-737137D01*
X212337Y-737124D01*
X212436Y-737115D01*
X212535Y-737109D01*
X212635Y-737107D01*
X212635Y-737108D02*
X215232Y-737108D01*
X192363Y-583692D02*
X188468Y-572008D01*
X196257Y-572008D02*
X192363Y-583692D01*
X203110Y-583692D02*
X205707Y-583692D01*
X203110Y-583692D02*
X203011Y-583690D01*
X202911Y-583684D01*
X202812Y-583675D01*
X202714Y-583662D01*
X202616Y-583645D01*
X202518Y-583624D01*
X202422Y-583599D01*
X202327Y-583571D01*
X202233Y-583539D01*
X202140Y-583504D01*
X202048Y-583465D01*
X201958Y-583422D01*
X201870Y-583377D01*
X201783Y-583327D01*
X201699Y-583275D01*
X201616Y-583219D01*
X201536Y-583161D01*
X201458Y-583099D01*
X201383Y-583034D01*
X201310Y-582966D01*
X201240Y-582896D01*
X201172Y-582823D01*
X201107Y-582748D01*
X201045Y-582670D01*
X200987Y-582590D01*
X200931Y-582507D01*
X200879Y-582423D01*
X200829Y-582336D01*
X200784Y-582248D01*
X200741Y-582158D01*
X200702Y-582066D01*
X200667Y-581973D01*
X200635Y-581879D01*
X200607Y-581784D01*
X200582Y-581688D01*
X200561Y-581590D01*
X200544Y-581492D01*
X200531Y-581394D01*
X200522Y-581295D01*
X200516Y-581195D01*
X200514Y-581096D01*
X200514Y-574604D01*
X200513Y-574604D02*
X200515Y-574505D01*
X200521Y-574405D01*
X200530Y-574306D01*
X200543Y-574208D01*
X200561Y-574110D01*
X200581Y-574012D01*
X200606Y-573916D01*
X200634Y-573820D01*
X200666Y-573726D01*
X200701Y-573633D01*
X200740Y-573542D01*
X200783Y-573452D01*
X200828Y-573363D01*
X200878Y-573277D01*
X200930Y-573192D01*
X200986Y-573110D01*
X201045Y-573030D01*
X201106Y-572952D01*
X201171Y-572876D01*
X201239Y-572803D01*
X201309Y-572733D01*
X201382Y-572665D01*
X201458Y-572600D01*
X201536Y-572539D01*
X201616Y-572480D01*
X201698Y-572424D01*
X201783Y-572372D01*
X201869Y-572323D01*
X201958Y-572277D01*
X202048Y-572234D01*
X202139Y-572195D01*
X202232Y-572160D01*
X202326Y-572128D01*
X202422Y-572100D01*
X202518Y-572075D01*
X202616Y-572055D01*
X202714Y-572037D01*
X202812Y-572024D01*
X202911Y-572015D01*
X203010Y-572009D01*
X203110Y-572007D01*
X203110Y-572008D02*
X205707Y-572008D01*
X212635Y-583692D02*
X215232Y-583692D01*
X212635Y-583692D02*
X212536Y-583690D01*
X212436Y-583684D01*
X212337Y-583675D01*
X212239Y-583662D01*
X212141Y-583645D01*
X212043Y-583624D01*
X211947Y-583599D01*
X211852Y-583571D01*
X211758Y-583539D01*
X211665Y-583504D01*
X211573Y-583465D01*
X211483Y-583422D01*
X211395Y-583377D01*
X211308Y-583327D01*
X211224Y-583275D01*
X211141Y-583219D01*
X211061Y-583161D01*
X210983Y-583099D01*
X210908Y-583034D01*
X210835Y-582966D01*
X210765Y-582896D01*
X210697Y-582823D01*
X210632Y-582748D01*
X210570Y-582670D01*
X210512Y-582590D01*
X210456Y-582507D01*
X210404Y-582423D01*
X210354Y-582336D01*
X210309Y-582248D01*
X210266Y-582158D01*
X210227Y-582066D01*
X210192Y-581973D01*
X210160Y-581879D01*
X210132Y-581784D01*
X210107Y-581688D01*
X210086Y-581590D01*
X210069Y-581492D01*
X210056Y-581394D01*
X210047Y-581295D01*
X210041Y-581195D01*
X210039Y-581096D01*
X210039Y-574604D01*
X210038Y-574604D02*
X210040Y-574505D01*
X210046Y-574405D01*
X210055Y-574306D01*
X210068Y-574208D01*
X210086Y-574110D01*
X210106Y-574012D01*
X210131Y-573916D01*
X210159Y-573820D01*
X210191Y-573726D01*
X210226Y-573633D01*
X210265Y-573542D01*
X210308Y-573452D01*
X210353Y-573363D01*
X210403Y-573277D01*
X210455Y-573192D01*
X210511Y-573110D01*
X210570Y-573030D01*
X210631Y-572952D01*
X210696Y-572876D01*
X210764Y-572803D01*
X210834Y-572733D01*
X210907Y-572665D01*
X210983Y-572600D01*
X211061Y-572539D01*
X211141Y-572480D01*
X211223Y-572424D01*
X211308Y-572372D01*
X211394Y-572323D01*
X211483Y-572277D01*
X211573Y-572234D01*
X211664Y-572195D01*
X211757Y-572160D01*
X211851Y-572128D01*
X211947Y-572100D01*
X212043Y-572075D01*
X212141Y-572055D01*
X212239Y-572037D01*
X212337Y-572024D01*
X212436Y-572015D01*
X212535Y-572009D01*
X212635Y-572007D01*
X212635Y-572008D02*
X215232Y-572008D01*
X189823Y-316992D02*
X185928Y-305308D01*
X193717Y-305308D02*
X189823Y-316992D01*
X200570Y-316992D02*
X203167Y-316992D01*
X200570Y-316992D02*
X200471Y-316990D01*
X200371Y-316984D01*
X200272Y-316975D01*
X200174Y-316962D01*
X200076Y-316945D01*
X199978Y-316924D01*
X199882Y-316899D01*
X199787Y-316871D01*
X199693Y-316839D01*
X199600Y-316804D01*
X199508Y-316765D01*
X199418Y-316722D01*
X199330Y-316677D01*
X199243Y-316627D01*
X199159Y-316575D01*
X199076Y-316519D01*
X198996Y-316461D01*
X198918Y-316399D01*
X198843Y-316334D01*
X198770Y-316266D01*
X198700Y-316196D01*
X198632Y-316123D01*
X198567Y-316048D01*
X198505Y-315970D01*
X198447Y-315890D01*
X198391Y-315807D01*
X198339Y-315723D01*
X198289Y-315636D01*
X198244Y-315548D01*
X198201Y-315458D01*
X198162Y-315366D01*
X198127Y-315273D01*
X198095Y-315179D01*
X198067Y-315084D01*
X198042Y-314988D01*
X198021Y-314890D01*
X198004Y-314792D01*
X197991Y-314694D01*
X197982Y-314595D01*
X197976Y-314495D01*
X197974Y-314396D01*
X197974Y-307904D01*
X197973Y-307904D02*
X197975Y-307805D01*
X197981Y-307705D01*
X197990Y-307606D01*
X198003Y-307508D01*
X198021Y-307410D01*
X198041Y-307312D01*
X198066Y-307216D01*
X198094Y-307120D01*
X198126Y-307026D01*
X198161Y-306933D01*
X198200Y-306842D01*
X198243Y-306752D01*
X198288Y-306663D01*
X198338Y-306577D01*
X198390Y-306492D01*
X198446Y-306410D01*
X198505Y-306330D01*
X198566Y-306252D01*
X198631Y-306176D01*
X198699Y-306103D01*
X198769Y-306033D01*
X198842Y-305965D01*
X198918Y-305900D01*
X198996Y-305839D01*
X199076Y-305780D01*
X199158Y-305724D01*
X199243Y-305672D01*
X199329Y-305623D01*
X199418Y-305577D01*
X199508Y-305534D01*
X199599Y-305495D01*
X199692Y-305460D01*
X199786Y-305428D01*
X199882Y-305400D01*
X199978Y-305375D01*
X200076Y-305355D01*
X200174Y-305337D01*
X200272Y-305324D01*
X200371Y-305315D01*
X200470Y-305309D01*
X200570Y-305307D01*
X200570Y-305308D02*
X203167Y-305308D01*
X210095Y-316992D02*
X212692Y-316992D01*
X210095Y-316992D02*
X209996Y-316990D01*
X209896Y-316984D01*
X209797Y-316975D01*
X209699Y-316962D01*
X209601Y-316945D01*
X209503Y-316924D01*
X209407Y-316899D01*
X209312Y-316871D01*
X209218Y-316839D01*
X209125Y-316804D01*
X209033Y-316765D01*
X208943Y-316722D01*
X208855Y-316677D01*
X208768Y-316627D01*
X208684Y-316575D01*
X208601Y-316519D01*
X208521Y-316461D01*
X208443Y-316399D01*
X208368Y-316334D01*
X208295Y-316266D01*
X208225Y-316196D01*
X208157Y-316123D01*
X208092Y-316048D01*
X208030Y-315970D01*
X207972Y-315890D01*
X207916Y-315807D01*
X207864Y-315723D01*
X207814Y-315636D01*
X207769Y-315548D01*
X207726Y-315458D01*
X207687Y-315366D01*
X207652Y-315273D01*
X207620Y-315179D01*
X207592Y-315084D01*
X207567Y-314988D01*
X207546Y-314890D01*
X207529Y-314792D01*
X207516Y-314694D01*
X207507Y-314595D01*
X207501Y-314495D01*
X207499Y-314396D01*
X207499Y-307904D01*
X207498Y-307904D02*
X207500Y-307805D01*
X207506Y-307705D01*
X207515Y-307606D01*
X207528Y-307508D01*
X207546Y-307410D01*
X207566Y-307312D01*
X207591Y-307216D01*
X207619Y-307120D01*
X207651Y-307026D01*
X207686Y-306933D01*
X207725Y-306842D01*
X207768Y-306752D01*
X207813Y-306663D01*
X207863Y-306577D01*
X207915Y-306492D01*
X207971Y-306410D01*
X208030Y-306330D01*
X208091Y-306252D01*
X208156Y-306176D01*
X208224Y-306103D01*
X208294Y-306033D01*
X208367Y-305965D01*
X208443Y-305900D01*
X208521Y-305839D01*
X208601Y-305780D01*
X208683Y-305724D01*
X208768Y-305672D01*
X208854Y-305623D01*
X208943Y-305577D01*
X209033Y-305534D01*
X209124Y-305495D01*
X209217Y-305460D01*
X209311Y-305428D01*
X209407Y-305400D01*
X209503Y-305375D01*
X209601Y-305355D01*
X209699Y-305337D01*
X209797Y-305324D01*
X209896Y-305315D01*
X209995Y-305309D01*
X210095Y-305307D01*
X210095Y-305308D02*
X212692Y-305308D01*
X188468Y-447548D02*
X192363Y-459232D01*
X196257Y-447548D01*
X203110Y-459232D02*
X205707Y-459232D01*
X203110Y-459232D02*
X203011Y-459230D01*
X202911Y-459224D01*
X202812Y-459215D01*
X202714Y-459202D01*
X202616Y-459185D01*
X202518Y-459164D01*
X202422Y-459139D01*
X202327Y-459111D01*
X202233Y-459079D01*
X202140Y-459044D01*
X202048Y-459005D01*
X201958Y-458962D01*
X201870Y-458917D01*
X201783Y-458867D01*
X201699Y-458815D01*
X201616Y-458759D01*
X201536Y-458701D01*
X201458Y-458639D01*
X201383Y-458574D01*
X201310Y-458506D01*
X201240Y-458436D01*
X201172Y-458363D01*
X201107Y-458288D01*
X201045Y-458210D01*
X200987Y-458130D01*
X200931Y-458047D01*
X200879Y-457963D01*
X200829Y-457876D01*
X200784Y-457788D01*
X200741Y-457698D01*
X200702Y-457606D01*
X200667Y-457513D01*
X200635Y-457419D01*
X200607Y-457324D01*
X200582Y-457228D01*
X200561Y-457130D01*
X200544Y-457032D01*
X200531Y-456934D01*
X200522Y-456835D01*
X200516Y-456735D01*
X200514Y-456636D01*
X200514Y-450144D01*
X200513Y-450144D02*
X200515Y-450045D01*
X200521Y-449945D01*
X200530Y-449846D01*
X200543Y-449748D01*
X200561Y-449650D01*
X200581Y-449552D01*
X200606Y-449456D01*
X200634Y-449360D01*
X200666Y-449266D01*
X200701Y-449173D01*
X200740Y-449082D01*
X200783Y-448992D01*
X200828Y-448903D01*
X200878Y-448817D01*
X200930Y-448732D01*
X200986Y-448650D01*
X201045Y-448570D01*
X201106Y-448492D01*
X201171Y-448416D01*
X201239Y-448343D01*
X201309Y-448273D01*
X201382Y-448205D01*
X201458Y-448140D01*
X201536Y-448079D01*
X201616Y-448020D01*
X201698Y-447964D01*
X201783Y-447912D01*
X201869Y-447863D01*
X201958Y-447817D01*
X202048Y-447774D01*
X202139Y-447735D01*
X202232Y-447700D01*
X202326Y-447668D01*
X202422Y-447640D01*
X202518Y-447615D01*
X202616Y-447595D01*
X202714Y-447577D01*
X202812Y-447564D01*
X202911Y-447555D01*
X203010Y-447549D01*
X203110Y-447547D01*
X203110Y-447548D02*
X205707Y-447548D01*
X212635Y-459232D02*
X215232Y-459232D01*
X212635Y-459232D02*
X212536Y-459230D01*
X212436Y-459224D01*
X212337Y-459215D01*
X212239Y-459202D01*
X212141Y-459185D01*
X212043Y-459164D01*
X211947Y-459139D01*
X211852Y-459111D01*
X211758Y-459079D01*
X211665Y-459044D01*
X211573Y-459005D01*
X211483Y-458962D01*
X211395Y-458917D01*
X211308Y-458867D01*
X211224Y-458815D01*
X211141Y-458759D01*
X211061Y-458701D01*
X210983Y-458639D01*
X210908Y-458574D01*
X210835Y-458506D01*
X210765Y-458436D01*
X210697Y-458363D01*
X210632Y-458288D01*
X210570Y-458210D01*
X210512Y-458130D01*
X210456Y-458047D01*
X210404Y-457963D01*
X210354Y-457876D01*
X210309Y-457788D01*
X210266Y-457698D01*
X210227Y-457606D01*
X210192Y-457513D01*
X210160Y-457419D01*
X210132Y-457324D01*
X210107Y-457228D01*
X210086Y-457130D01*
X210069Y-457032D01*
X210056Y-456934D01*
X210047Y-456835D01*
X210041Y-456735D01*
X210039Y-456636D01*
X210039Y-450144D01*
X210038Y-450144D02*
X210040Y-450045D01*
X210046Y-449945D01*
X210055Y-449846D01*
X210068Y-449748D01*
X210086Y-449650D01*
X210106Y-449552D01*
X210131Y-449456D01*
X210159Y-449360D01*
X210191Y-449266D01*
X210226Y-449173D01*
X210265Y-449082D01*
X210308Y-448992D01*
X210353Y-448903D01*
X210403Y-448817D01*
X210455Y-448732D01*
X210511Y-448650D01*
X210570Y-448570D01*
X210631Y-448492D01*
X210696Y-448416D01*
X210764Y-448343D01*
X210834Y-448273D01*
X210907Y-448205D01*
X210983Y-448140D01*
X211061Y-448079D01*
X211141Y-448020D01*
X211223Y-447964D01*
X211308Y-447912D01*
X211394Y-447863D01*
X211483Y-447817D01*
X211573Y-447774D01*
X211664Y-447735D01*
X211757Y-447700D01*
X211851Y-447668D01*
X211947Y-447640D01*
X212043Y-447615D01*
X212141Y-447595D01*
X212239Y-447577D01*
X212337Y-447564D01*
X212436Y-447555D01*
X212535Y-447549D01*
X212635Y-447547D01*
X212635Y-447548D02*
X215232Y-447548D01*
X192419Y-386701D02*
X190472Y-386701D01*
X192419Y-386701D02*
X192419Y-393192D01*
X188524Y-393192D01*
X188425Y-393190D01*
X188325Y-393184D01*
X188226Y-393175D01*
X188128Y-393162D01*
X188030Y-393145D01*
X187932Y-393124D01*
X187836Y-393099D01*
X187741Y-393071D01*
X187647Y-393039D01*
X187554Y-393004D01*
X187462Y-392965D01*
X187372Y-392922D01*
X187284Y-392877D01*
X187197Y-392827D01*
X187113Y-392775D01*
X187030Y-392719D01*
X186950Y-392661D01*
X186872Y-392599D01*
X186797Y-392534D01*
X186724Y-392466D01*
X186654Y-392396D01*
X186586Y-392323D01*
X186521Y-392248D01*
X186459Y-392170D01*
X186401Y-392090D01*
X186345Y-392007D01*
X186293Y-391923D01*
X186243Y-391836D01*
X186198Y-391748D01*
X186155Y-391658D01*
X186116Y-391566D01*
X186081Y-391473D01*
X186049Y-391379D01*
X186021Y-391284D01*
X185996Y-391188D01*
X185975Y-391090D01*
X185958Y-390992D01*
X185945Y-390894D01*
X185936Y-390795D01*
X185930Y-390695D01*
X185928Y-390596D01*
X185928Y-384104D01*
X185930Y-384005D01*
X185936Y-383905D01*
X185945Y-383806D01*
X185958Y-383708D01*
X185976Y-383610D01*
X185996Y-383512D01*
X186021Y-383416D01*
X186049Y-383320D01*
X186081Y-383226D01*
X186116Y-383133D01*
X186155Y-383042D01*
X186198Y-382952D01*
X186243Y-382863D01*
X186293Y-382777D01*
X186345Y-382692D01*
X186401Y-382610D01*
X186460Y-382530D01*
X186521Y-382452D01*
X186586Y-382376D01*
X186654Y-382303D01*
X186724Y-382233D01*
X186797Y-382165D01*
X186873Y-382100D01*
X186951Y-382039D01*
X187031Y-381980D01*
X187113Y-381924D01*
X187198Y-381872D01*
X187284Y-381823D01*
X187373Y-381777D01*
X187463Y-381734D01*
X187554Y-381695D01*
X187647Y-381660D01*
X187741Y-381628D01*
X187837Y-381600D01*
X187933Y-381575D01*
X188031Y-381555D01*
X188129Y-381537D01*
X188227Y-381524D01*
X188326Y-381515D01*
X188425Y-381509D01*
X188525Y-381507D01*
X188524Y-381508D02*
X192419Y-381508D01*
X198120Y-381508D02*
X198120Y-393192D01*
X204611Y-393192D02*
X198120Y-381508D01*
X204611Y-381508D02*
X204611Y-393192D01*
X210312Y-393192D02*
X210312Y-381508D01*
X213557Y-381508D01*
X213670Y-381510D01*
X213783Y-381516D01*
X213896Y-381526D01*
X214009Y-381540D01*
X214121Y-381557D01*
X214232Y-381579D01*
X214342Y-381604D01*
X214452Y-381634D01*
X214560Y-381667D01*
X214667Y-381704D01*
X214773Y-381744D01*
X214877Y-381789D01*
X214980Y-381837D01*
X215081Y-381888D01*
X215180Y-381943D01*
X215277Y-382001D01*
X215372Y-382063D01*
X215465Y-382128D01*
X215555Y-382196D01*
X215643Y-382267D01*
X215729Y-382342D01*
X215812Y-382419D01*
X215892Y-382499D01*
X215969Y-382582D01*
X216044Y-382668D01*
X216115Y-382756D01*
X216183Y-382846D01*
X216248Y-382939D01*
X216310Y-383034D01*
X216368Y-383131D01*
X216423Y-383230D01*
X216474Y-383331D01*
X216522Y-383434D01*
X216567Y-383538D01*
X216607Y-383644D01*
X216644Y-383751D01*
X216677Y-383859D01*
X216707Y-383969D01*
X216732Y-384079D01*
X216754Y-384190D01*
X216771Y-384302D01*
X216785Y-384415D01*
X216795Y-384528D01*
X216801Y-384641D01*
X216803Y-384754D01*
X216803Y-389946D01*
X216804Y-389946D02*
X216802Y-390059D01*
X216796Y-390172D01*
X216786Y-390285D01*
X216772Y-390398D01*
X216755Y-390510D01*
X216733Y-390621D01*
X216708Y-390731D01*
X216678Y-390841D01*
X216645Y-390949D01*
X216608Y-391056D01*
X216568Y-391162D01*
X216523Y-391266D01*
X216475Y-391369D01*
X216424Y-391470D01*
X216369Y-391569D01*
X216311Y-391666D01*
X216249Y-391761D01*
X216184Y-391854D01*
X216116Y-391944D01*
X216045Y-392032D01*
X215970Y-392118D01*
X215893Y-392201D01*
X215813Y-392281D01*
X215730Y-392358D01*
X215644Y-392433D01*
X215556Y-392504D01*
X215466Y-392572D01*
X215373Y-392637D01*
X215278Y-392699D01*
X215181Y-392757D01*
X215082Y-392812D01*
X214981Y-392863D01*
X214878Y-392911D01*
X214774Y-392956D01*
X214668Y-392996D01*
X214561Y-393033D01*
X214453Y-393066D01*
X214343Y-393096D01*
X214233Y-393121D01*
X214122Y-393143D01*
X214010Y-393160D01*
X213897Y-393174D01*
X213784Y-393184D01*
X213671Y-393190D01*
X213558Y-393192D01*
X213557Y-393192D02*
X210312Y-393192D01*
X194959Y-526401D02*
X193012Y-526401D01*
X194959Y-526401D02*
X194959Y-532892D01*
X191064Y-532892D01*
X190965Y-532890D01*
X190865Y-532884D01*
X190766Y-532875D01*
X190668Y-532862D01*
X190570Y-532845D01*
X190472Y-532824D01*
X190376Y-532799D01*
X190281Y-532771D01*
X190187Y-532739D01*
X190094Y-532704D01*
X190002Y-532665D01*
X189912Y-532622D01*
X189824Y-532577D01*
X189737Y-532527D01*
X189653Y-532475D01*
X189570Y-532419D01*
X189490Y-532361D01*
X189412Y-532299D01*
X189337Y-532234D01*
X189264Y-532166D01*
X189194Y-532096D01*
X189126Y-532023D01*
X189061Y-531948D01*
X188999Y-531870D01*
X188941Y-531790D01*
X188885Y-531707D01*
X188833Y-531623D01*
X188783Y-531536D01*
X188738Y-531448D01*
X188695Y-531358D01*
X188656Y-531266D01*
X188621Y-531173D01*
X188589Y-531079D01*
X188561Y-530984D01*
X188536Y-530888D01*
X188515Y-530790D01*
X188498Y-530692D01*
X188485Y-530594D01*
X188476Y-530495D01*
X188470Y-530395D01*
X188468Y-530296D01*
X188468Y-523804D01*
X188470Y-523705D01*
X188476Y-523605D01*
X188485Y-523506D01*
X188498Y-523408D01*
X188516Y-523310D01*
X188536Y-523212D01*
X188561Y-523116D01*
X188589Y-523020D01*
X188621Y-522926D01*
X188656Y-522833D01*
X188695Y-522742D01*
X188738Y-522652D01*
X188783Y-522563D01*
X188833Y-522477D01*
X188885Y-522392D01*
X188941Y-522310D01*
X189000Y-522230D01*
X189061Y-522152D01*
X189126Y-522076D01*
X189194Y-522003D01*
X189264Y-521933D01*
X189337Y-521865D01*
X189413Y-521800D01*
X189491Y-521739D01*
X189571Y-521680D01*
X189653Y-521624D01*
X189738Y-521572D01*
X189824Y-521523D01*
X189913Y-521477D01*
X190003Y-521434D01*
X190094Y-521395D01*
X190187Y-521360D01*
X190281Y-521328D01*
X190377Y-521300D01*
X190473Y-521275D01*
X190571Y-521255D01*
X190669Y-521237D01*
X190767Y-521224D01*
X190866Y-521215D01*
X190965Y-521209D01*
X191065Y-521207D01*
X191064Y-521208D02*
X194959Y-521208D01*
X200660Y-521208D02*
X200660Y-532892D01*
X207151Y-532892D02*
X200660Y-521208D01*
X207151Y-521208D02*
X207151Y-532892D01*
X212852Y-532892D02*
X212852Y-521208D01*
X216097Y-521208D01*
X216210Y-521210D01*
X216323Y-521216D01*
X216436Y-521226D01*
X216549Y-521240D01*
X216661Y-521257D01*
X216772Y-521279D01*
X216882Y-521304D01*
X216992Y-521334D01*
X217100Y-521367D01*
X217207Y-521404D01*
X217313Y-521444D01*
X217417Y-521489D01*
X217520Y-521537D01*
X217621Y-521588D01*
X217720Y-521643D01*
X217817Y-521701D01*
X217912Y-521763D01*
X218005Y-521828D01*
X218095Y-521896D01*
X218183Y-521967D01*
X218269Y-522042D01*
X218352Y-522119D01*
X218432Y-522199D01*
X218509Y-522282D01*
X218584Y-522368D01*
X218655Y-522456D01*
X218723Y-522546D01*
X218788Y-522639D01*
X218850Y-522734D01*
X218908Y-522831D01*
X218963Y-522930D01*
X219014Y-523031D01*
X219062Y-523134D01*
X219107Y-523238D01*
X219147Y-523344D01*
X219184Y-523451D01*
X219217Y-523559D01*
X219247Y-523669D01*
X219272Y-523779D01*
X219294Y-523890D01*
X219311Y-524002D01*
X219325Y-524115D01*
X219335Y-524228D01*
X219341Y-524341D01*
X219343Y-524454D01*
X219343Y-529646D01*
X219344Y-529646D02*
X219342Y-529759D01*
X219336Y-529872D01*
X219326Y-529985D01*
X219312Y-530098D01*
X219295Y-530210D01*
X219273Y-530321D01*
X219248Y-530431D01*
X219218Y-530541D01*
X219185Y-530649D01*
X219148Y-530756D01*
X219108Y-530862D01*
X219063Y-530966D01*
X219015Y-531069D01*
X218964Y-531170D01*
X218909Y-531269D01*
X218851Y-531366D01*
X218789Y-531461D01*
X218724Y-531554D01*
X218656Y-531644D01*
X218585Y-531732D01*
X218510Y-531818D01*
X218433Y-531901D01*
X218353Y-531981D01*
X218270Y-532058D01*
X218184Y-532133D01*
X218096Y-532204D01*
X218006Y-532272D01*
X217913Y-532337D01*
X217818Y-532399D01*
X217721Y-532457D01*
X217622Y-532512D01*
X217521Y-532563D01*
X217418Y-532611D01*
X217314Y-532656D01*
X217208Y-532696D01*
X217101Y-532733D01*
X216993Y-532766D01*
X216883Y-532796D01*
X216773Y-532821D01*
X216662Y-532843D01*
X216550Y-532860D01*
X216437Y-532874D01*
X216324Y-532884D01*
X216211Y-532890D01*
X216098Y-532892D01*
X216097Y-532892D02*
X212852Y-532892D01*
X194959Y-602601D02*
X193012Y-602601D01*
X194959Y-602601D02*
X194959Y-609092D01*
X191064Y-609092D01*
X190965Y-609090D01*
X190865Y-609084D01*
X190766Y-609075D01*
X190668Y-609062D01*
X190570Y-609045D01*
X190472Y-609024D01*
X190376Y-608999D01*
X190281Y-608971D01*
X190187Y-608939D01*
X190094Y-608904D01*
X190002Y-608865D01*
X189912Y-608822D01*
X189824Y-608777D01*
X189737Y-608727D01*
X189653Y-608675D01*
X189570Y-608619D01*
X189490Y-608561D01*
X189412Y-608499D01*
X189337Y-608434D01*
X189264Y-608366D01*
X189194Y-608296D01*
X189126Y-608223D01*
X189061Y-608148D01*
X188999Y-608070D01*
X188941Y-607990D01*
X188885Y-607907D01*
X188833Y-607823D01*
X188783Y-607736D01*
X188738Y-607648D01*
X188695Y-607558D01*
X188656Y-607466D01*
X188621Y-607373D01*
X188589Y-607279D01*
X188561Y-607184D01*
X188536Y-607088D01*
X188515Y-606990D01*
X188498Y-606892D01*
X188485Y-606794D01*
X188476Y-606695D01*
X188470Y-606595D01*
X188468Y-606496D01*
X188468Y-600004D01*
X188470Y-599905D01*
X188476Y-599805D01*
X188485Y-599706D01*
X188498Y-599608D01*
X188516Y-599510D01*
X188536Y-599412D01*
X188561Y-599316D01*
X188589Y-599220D01*
X188621Y-599126D01*
X188656Y-599033D01*
X188695Y-598942D01*
X188738Y-598852D01*
X188783Y-598763D01*
X188833Y-598677D01*
X188885Y-598592D01*
X188941Y-598510D01*
X189000Y-598430D01*
X189061Y-598352D01*
X189126Y-598276D01*
X189194Y-598203D01*
X189264Y-598133D01*
X189337Y-598065D01*
X189413Y-598000D01*
X189491Y-597939D01*
X189571Y-597880D01*
X189653Y-597824D01*
X189738Y-597772D01*
X189824Y-597723D01*
X189913Y-597677D01*
X190003Y-597634D01*
X190094Y-597595D01*
X190187Y-597560D01*
X190281Y-597528D01*
X190377Y-597500D01*
X190473Y-597475D01*
X190571Y-597455D01*
X190669Y-597437D01*
X190767Y-597424D01*
X190866Y-597415D01*
X190965Y-597409D01*
X191065Y-597407D01*
X191064Y-597408D02*
X194959Y-597408D01*
X200660Y-597408D02*
X200660Y-609092D01*
X207151Y-609092D02*
X200660Y-597408D01*
X207151Y-597408D02*
X207151Y-609092D01*
X212852Y-609092D02*
X212852Y-597408D01*
X216097Y-597408D01*
X216210Y-597410D01*
X216323Y-597416D01*
X216436Y-597426D01*
X216549Y-597440D01*
X216661Y-597457D01*
X216772Y-597479D01*
X216882Y-597504D01*
X216992Y-597534D01*
X217100Y-597567D01*
X217207Y-597604D01*
X217313Y-597644D01*
X217417Y-597689D01*
X217520Y-597737D01*
X217621Y-597788D01*
X217720Y-597843D01*
X217817Y-597901D01*
X217912Y-597963D01*
X218005Y-598028D01*
X218095Y-598096D01*
X218183Y-598167D01*
X218269Y-598242D01*
X218352Y-598319D01*
X218432Y-598399D01*
X218509Y-598482D01*
X218584Y-598568D01*
X218655Y-598656D01*
X218723Y-598746D01*
X218788Y-598839D01*
X218850Y-598934D01*
X218908Y-599031D01*
X218963Y-599130D01*
X219014Y-599231D01*
X219062Y-599334D01*
X219107Y-599438D01*
X219147Y-599544D01*
X219184Y-599651D01*
X219217Y-599759D01*
X219247Y-599869D01*
X219272Y-599979D01*
X219294Y-600090D01*
X219311Y-600202D01*
X219325Y-600315D01*
X219335Y-600428D01*
X219341Y-600541D01*
X219343Y-600654D01*
X219343Y-605846D01*
X219344Y-605846D02*
X219342Y-605959D01*
X219336Y-606072D01*
X219326Y-606185D01*
X219312Y-606298D01*
X219295Y-606410D01*
X219273Y-606521D01*
X219248Y-606631D01*
X219218Y-606741D01*
X219185Y-606849D01*
X219148Y-606956D01*
X219108Y-607062D01*
X219063Y-607166D01*
X219015Y-607269D01*
X218964Y-607370D01*
X218909Y-607469D01*
X218851Y-607566D01*
X218789Y-607661D01*
X218724Y-607754D01*
X218656Y-607844D01*
X218585Y-607932D01*
X218510Y-608018D01*
X218433Y-608101D01*
X218353Y-608181D01*
X218270Y-608258D01*
X218184Y-608333D01*
X218096Y-608404D01*
X218006Y-608472D01*
X217913Y-608537D01*
X217818Y-608599D01*
X217721Y-608657D01*
X217622Y-608712D01*
X217521Y-608763D01*
X217418Y-608811D01*
X217314Y-608856D01*
X217208Y-608896D01*
X217101Y-608933D01*
X216993Y-608966D01*
X216883Y-608996D01*
X216773Y-609021D01*
X216662Y-609043D01*
X216550Y-609060D01*
X216437Y-609074D01*
X216324Y-609084D01*
X216211Y-609090D01*
X216098Y-609092D01*
X216097Y-609092D02*
X212852Y-609092D01*
X194959Y-767701D02*
X193012Y-767701D01*
X194959Y-767701D02*
X194959Y-774192D01*
X191064Y-774192D01*
X190965Y-774190D01*
X190865Y-774184D01*
X190766Y-774175D01*
X190668Y-774162D01*
X190570Y-774145D01*
X190472Y-774124D01*
X190376Y-774099D01*
X190281Y-774071D01*
X190187Y-774039D01*
X190094Y-774004D01*
X190002Y-773965D01*
X189912Y-773922D01*
X189824Y-773877D01*
X189737Y-773827D01*
X189653Y-773775D01*
X189570Y-773719D01*
X189490Y-773661D01*
X189412Y-773599D01*
X189337Y-773534D01*
X189264Y-773466D01*
X189194Y-773396D01*
X189126Y-773323D01*
X189061Y-773248D01*
X188999Y-773170D01*
X188941Y-773090D01*
X188885Y-773007D01*
X188833Y-772923D01*
X188783Y-772836D01*
X188738Y-772748D01*
X188695Y-772658D01*
X188656Y-772566D01*
X188621Y-772473D01*
X188589Y-772379D01*
X188561Y-772284D01*
X188536Y-772188D01*
X188515Y-772090D01*
X188498Y-771992D01*
X188485Y-771894D01*
X188476Y-771795D01*
X188470Y-771695D01*
X188468Y-771596D01*
X188468Y-765104D01*
X188470Y-765005D01*
X188476Y-764905D01*
X188485Y-764806D01*
X188498Y-764708D01*
X188516Y-764610D01*
X188536Y-764512D01*
X188561Y-764416D01*
X188589Y-764320D01*
X188621Y-764226D01*
X188656Y-764133D01*
X188695Y-764042D01*
X188738Y-763952D01*
X188783Y-763863D01*
X188833Y-763777D01*
X188885Y-763692D01*
X188941Y-763610D01*
X189000Y-763530D01*
X189061Y-763452D01*
X189126Y-763376D01*
X189194Y-763303D01*
X189264Y-763233D01*
X189337Y-763165D01*
X189413Y-763100D01*
X189491Y-763039D01*
X189571Y-762980D01*
X189653Y-762924D01*
X189738Y-762872D01*
X189824Y-762823D01*
X189913Y-762777D01*
X190003Y-762734D01*
X190094Y-762695D01*
X190187Y-762660D01*
X190281Y-762628D01*
X190377Y-762600D01*
X190473Y-762575D01*
X190571Y-762555D01*
X190669Y-762537D01*
X190767Y-762524D01*
X190866Y-762515D01*
X190965Y-762509D01*
X191065Y-762507D01*
X191064Y-762508D02*
X194959Y-762508D01*
X200660Y-762508D02*
X200660Y-774192D01*
X207151Y-774192D02*
X200660Y-762508D01*
X207151Y-762508D02*
X207151Y-774192D01*
X212852Y-774192D02*
X212852Y-762508D01*
X216097Y-762508D01*
X216210Y-762510D01*
X216323Y-762516D01*
X216436Y-762526D01*
X216549Y-762540D01*
X216661Y-762557D01*
X216772Y-762579D01*
X216882Y-762604D01*
X216992Y-762634D01*
X217100Y-762667D01*
X217207Y-762704D01*
X217313Y-762744D01*
X217417Y-762789D01*
X217520Y-762837D01*
X217621Y-762888D01*
X217720Y-762943D01*
X217817Y-763001D01*
X217912Y-763063D01*
X218005Y-763128D01*
X218095Y-763196D01*
X218183Y-763267D01*
X218269Y-763342D01*
X218352Y-763419D01*
X218432Y-763499D01*
X218509Y-763582D01*
X218584Y-763668D01*
X218655Y-763756D01*
X218723Y-763846D01*
X218788Y-763939D01*
X218850Y-764034D01*
X218908Y-764131D01*
X218963Y-764230D01*
X219014Y-764331D01*
X219062Y-764434D01*
X219107Y-764538D01*
X219147Y-764644D01*
X219184Y-764751D01*
X219217Y-764859D01*
X219247Y-764969D01*
X219272Y-765079D01*
X219294Y-765190D01*
X219311Y-765302D01*
X219325Y-765415D01*
X219335Y-765528D01*
X219341Y-765641D01*
X219343Y-765754D01*
X219343Y-770946D01*
X219344Y-770946D02*
X219342Y-771059D01*
X219336Y-771172D01*
X219326Y-771285D01*
X219312Y-771398D01*
X219295Y-771510D01*
X219273Y-771621D01*
X219248Y-771731D01*
X219218Y-771841D01*
X219185Y-771949D01*
X219148Y-772056D01*
X219108Y-772162D01*
X219063Y-772266D01*
X219015Y-772369D01*
X218964Y-772470D01*
X218909Y-772569D01*
X218851Y-772666D01*
X218789Y-772761D01*
X218724Y-772854D01*
X218656Y-772944D01*
X218585Y-773032D01*
X218510Y-773118D01*
X218433Y-773201D01*
X218353Y-773281D01*
X218270Y-773358D01*
X218184Y-773433D01*
X218096Y-773504D01*
X218006Y-773572D01*
X217913Y-773637D01*
X217818Y-773699D01*
X217721Y-773757D01*
X217622Y-773812D01*
X217521Y-773863D01*
X217418Y-773911D01*
X217314Y-773956D01*
X217208Y-773996D01*
X217101Y-774033D01*
X216993Y-774066D01*
X216883Y-774096D01*
X216773Y-774121D01*
X216662Y-774143D01*
X216550Y-774160D01*
X216437Y-774174D01*
X216324Y-774184D01*
X216211Y-774190D01*
X216098Y-774192D01*
X216097Y-774192D02*
X212852Y-774192D01*
X315581Y-190528D02*
X315581Y-188581D01*
X322072Y-188581D01*
X322072Y-192476D01*
X322070Y-192575D01*
X322064Y-192675D01*
X322055Y-192774D01*
X322042Y-192872D01*
X322025Y-192970D01*
X322004Y-193068D01*
X321979Y-193164D01*
X321951Y-193259D01*
X321919Y-193353D01*
X321884Y-193446D01*
X321845Y-193538D01*
X321802Y-193628D01*
X321757Y-193716D01*
X321707Y-193803D01*
X321655Y-193887D01*
X321599Y-193970D01*
X321541Y-194050D01*
X321479Y-194128D01*
X321414Y-194203D01*
X321346Y-194276D01*
X321276Y-194346D01*
X321203Y-194414D01*
X321128Y-194479D01*
X321050Y-194541D01*
X320970Y-194599D01*
X320887Y-194655D01*
X320803Y-194707D01*
X320716Y-194757D01*
X320628Y-194802D01*
X320538Y-194845D01*
X320446Y-194884D01*
X320353Y-194919D01*
X320259Y-194951D01*
X320164Y-194979D01*
X320068Y-195004D01*
X319970Y-195025D01*
X319872Y-195042D01*
X319774Y-195055D01*
X319675Y-195064D01*
X319575Y-195070D01*
X319476Y-195072D01*
X312984Y-195072D01*
X312984Y-195073D02*
X312885Y-195071D01*
X312785Y-195065D01*
X312686Y-195056D01*
X312588Y-195043D01*
X312490Y-195025D01*
X312392Y-195005D01*
X312296Y-194980D01*
X312200Y-194952D01*
X312106Y-194920D01*
X312013Y-194885D01*
X311922Y-194846D01*
X311832Y-194803D01*
X311743Y-194758D01*
X311657Y-194708D01*
X311572Y-194656D01*
X311490Y-194600D01*
X311410Y-194541D01*
X311332Y-194480D01*
X311256Y-194415D01*
X311183Y-194347D01*
X311113Y-194277D01*
X311045Y-194204D01*
X310980Y-194128D01*
X310919Y-194050D01*
X310860Y-193970D01*
X310804Y-193888D01*
X310752Y-193803D01*
X310703Y-193717D01*
X310657Y-193628D01*
X310614Y-193538D01*
X310575Y-193447D01*
X310540Y-193354D01*
X310508Y-193260D01*
X310480Y-193164D01*
X310455Y-193068D01*
X310435Y-192970D01*
X310417Y-192872D01*
X310404Y-192774D01*
X310395Y-192675D01*
X310389Y-192576D01*
X310387Y-192476D01*
X310388Y-192476D02*
X310388Y-188581D01*
X310388Y-182880D02*
X322072Y-182880D01*
X322072Y-176389D02*
X310388Y-182880D01*
X310388Y-176389D02*
X322072Y-176389D01*
X322072Y-170688D02*
X310388Y-170688D01*
X310388Y-167443D01*
X310390Y-167330D01*
X310396Y-167217D01*
X310406Y-167104D01*
X310420Y-166991D01*
X310437Y-166879D01*
X310459Y-166768D01*
X310484Y-166658D01*
X310514Y-166548D01*
X310547Y-166440D01*
X310584Y-166333D01*
X310624Y-166227D01*
X310669Y-166123D01*
X310717Y-166020D01*
X310768Y-165919D01*
X310823Y-165820D01*
X310881Y-165723D01*
X310943Y-165628D01*
X311008Y-165535D01*
X311076Y-165445D01*
X311147Y-165357D01*
X311222Y-165271D01*
X311299Y-165188D01*
X311379Y-165108D01*
X311462Y-165031D01*
X311548Y-164956D01*
X311636Y-164885D01*
X311726Y-164817D01*
X311819Y-164752D01*
X311914Y-164690D01*
X312011Y-164632D01*
X312110Y-164577D01*
X312211Y-164526D01*
X312314Y-164478D01*
X312418Y-164433D01*
X312524Y-164393D01*
X312631Y-164356D01*
X312739Y-164323D01*
X312849Y-164293D01*
X312959Y-164268D01*
X313070Y-164246D01*
X313182Y-164229D01*
X313295Y-164215D01*
X313408Y-164205D01*
X313521Y-164199D01*
X313634Y-164197D01*
X318826Y-164197D01*
X318939Y-164199D01*
X319052Y-164205D01*
X319165Y-164215D01*
X319278Y-164229D01*
X319390Y-164246D01*
X319501Y-164268D01*
X319611Y-164293D01*
X319721Y-164323D01*
X319829Y-164356D01*
X319936Y-164393D01*
X320042Y-164433D01*
X320146Y-164478D01*
X320249Y-164526D01*
X320350Y-164577D01*
X320449Y-164632D01*
X320546Y-164690D01*
X320641Y-164752D01*
X320734Y-164817D01*
X320824Y-164885D01*
X320912Y-164956D01*
X320998Y-165031D01*
X321081Y-165108D01*
X321161Y-165188D01*
X321238Y-165271D01*
X321313Y-165357D01*
X321384Y-165445D01*
X321452Y-165535D01*
X321517Y-165628D01*
X321579Y-165723D01*
X321637Y-165820D01*
X321692Y-165919D01*
X321743Y-166020D01*
X321791Y-166123D01*
X321836Y-166227D01*
X321876Y-166333D01*
X321913Y-166440D01*
X321946Y-166548D01*
X321976Y-166658D01*
X322001Y-166768D01*
X322023Y-166879D01*
X322040Y-166991D01*
X322054Y-167104D01*
X322064Y-167217D01*
X322070Y-167330D01*
X322072Y-167443D01*
X322072Y-170688D01*
X273812Y-191177D02*
X262128Y-195072D01*
X262128Y-187283D02*
X273812Y-191177D01*
X273812Y-180430D02*
X273812Y-177833D01*
X273812Y-180430D02*
X273810Y-180529D01*
X273804Y-180629D01*
X273795Y-180728D01*
X273782Y-180826D01*
X273765Y-180924D01*
X273744Y-181022D01*
X273719Y-181118D01*
X273691Y-181213D01*
X273659Y-181307D01*
X273624Y-181400D01*
X273585Y-181492D01*
X273542Y-181582D01*
X273497Y-181670D01*
X273447Y-181757D01*
X273395Y-181841D01*
X273339Y-181924D01*
X273281Y-182004D01*
X273219Y-182082D01*
X273154Y-182157D01*
X273086Y-182230D01*
X273016Y-182300D01*
X272943Y-182368D01*
X272868Y-182433D01*
X272790Y-182495D01*
X272710Y-182553D01*
X272627Y-182609D01*
X272543Y-182661D01*
X272456Y-182711D01*
X272368Y-182756D01*
X272278Y-182799D01*
X272186Y-182838D01*
X272093Y-182873D01*
X271999Y-182905D01*
X271904Y-182933D01*
X271808Y-182958D01*
X271710Y-182979D01*
X271612Y-182996D01*
X271514Y-183009D01*
X271415Y-183018D01*
X271315Y-183024D01*
X271216Y-183026D01*
X264724Y-183026D01*
X264724Y-183027D02*
X264625Y-183025D01*
X264525Y-183019D01*
X264426Y-183010D01*
X264328Y-182997D01*
X264230Y-182979D01*
X264132Y-182959D01*
X264036Y-182934D01*
X263940Y-182906D01*
X263846Y-182874D01*
X263753Y-182839D01*
X263662Y-182800D01*
X263572Y-182757D01*
X263483Y-182712D01*
X263397Y-182662D01*
X263312Y-182610D01*
X263230Y-182554D01*
X263150Y-182495D01*
X263072Y-182434D01*
X262996Y-182369D01*
X262923Y-182301D01*
X262853Y-182231D01*
X262785Y-182158D01*
X262720Y-182082D01*
X262659Y-182004D01*
X262600Y-181924D01*
X262544Y-181842D01*
X262492Y-181757D01*
X262443Y-181671D01*
X262397Y-181582D01*
X262354Y-181492D01*
X262315Y-181401D01*
X262280Y-181308D01*
X262248Y-181214D01*
X262220Y-181118D01*
X262195Y-181022D01*
X262175Y-180924D01*
X262157Y-180826D01*
X262144Y-180728D01*
X262135Y-180629D01*
X262129Y-180530D01*
X262127Y-180430D01*
X262128Y-180430D02*
X262128Y-177833D01*
X273812Y-170905D02*
X273812Y-168308D01*
X273812Y-170905D02*
X273810Y-171004D01*
X273804Y-171104D01*
X273795Y-171203D01*
X273782Y-171301D01*
X273765Y-171399D01*
X273744Y-171497D01*
X273719Y-171593D01*
X273691Y-171688D01*
X273659Y-171782D01*
X273624Y-171875D01*
X273585Y-171967D01*
X273542Y-172057D01*
X273497Y-172145D01*
X273447Y-172232D01*
X273395Y-172316D01*
X273339Y-172399D01*
X273281Y-172479D01*
X273219Y-172557D01*
X273154Y-172632D01*
X273086Y-172705D01*
X273016Y-172775D01*
X272943Y-172843D01*
X272868Y-172908D01*
X272790Y-172970D01*
X272710Y-173028D01*
X272627Y-173084D01*
X272543Y-173136D01*
X272456Y-173186D01*
X272368Y-173231D01*
X272278Y-173274D01*
X272186Y-173313D01*
X272093Y-173348D01*
X271999Y-173380D01*
X271904Y-173408D01*
X271808Y-173433D01*
X271710Y-173454D01*
X271612Y-173471D01*
X271514Y-173484D01*
X271415Y-173493D01*
X271315Y-173499D01*
X271216Y-173501D01*
X264724Y-173501D01*
X264724Y-173502D02*
X264625Y-173500D01*
X264525Y-173494D01*
X264426Y-173485D01*
X264328Y-173472D01*
X264230Y-173454D01*
X264132Y-173434D01*
X264036Y-173409D01*
X263940Y-173381D01*
X263846Y-173349D01*
X263753Y-173314D01*
X263662Y-173275D01*
X263572Y-173232D01*
X263483Y-173187D01*
X263397Y-173137D01*
X263312Y-173085D01*
X263230Y-173029D01*
X263150Y-172970D01*
X263072Y-172909D01*
X262996Y-172844D01*
X262923Y-172776D01*
X262853Y-172706D01*
X262785Y-172633D01*
X262720Y-172557D01*
X262659Y-172479D01*
X262600Y-172399D01*
X262544Y-172317D01*
X262492Y-172232D01*
X262443Y-172146D01*
X262397Y-172057D01*
X262354Y-171967D01*
X262315Y-171876D01*
X262280Y-171783D01*
X262248Y-171689D01*
X262220Y-171593D01*
X262195Y-171497D01*
X262175Y-171399D01*
X262157Y-171301D01*
X262144Y-171203D01*
X262135Y-171104D01*
X262129Y-171005D01*
X262127Y-170905D01*
X262128Y-170905D02*
X262128Y-168308D01*
X347416Y-188581D02*
X347515Y-188583D01*
X347615Y-188589D01*
X347714Y-188598D01*
X347812Y-188611D01*
X347910Y-188628D01*
X348008Y-188649D01*
X348104Y-188674D01*
X348199Y-188702D01*
X348293Y-188734D01*
X348386Y-188769D01*
X348478Y-188808D01*
X348568Y-188851D01*
X348656Y-188896D01*
X348743Y-188946D01*
X348827Y-188998D01*
X348910Y-189054D01*
X348990Y-189112D01*
X349068Y-189174D01*
X349143Y-189239D01*
X349216Y-189307D01*
X349286Y-189377D01*
X349354Y-189450D01*
X349419Y-189525D01*
X349481Y-189603D01*
X349539Y-189683D01*
X349595Y-189766D01*
X349647Y-189850D01*
X349697Y-189937D01*
X349742Y-190025D01*
X349785Y-190115D01*
X349824Y-190207D01*
X349859Y-190300D01*
X349891Y-190394D01*
X349919Y-190489D01*
X349944Y-190585D01*
X349965Y-190683D01*
X349982Y-190781D01*
X349995Y-190879D01*
X350004Y-190978D01*
X350010Y-191078D01*
X350012Y-191177D01*
X350010Y-191321D01*
X350004Y-191466D01*
X349995Y-191610D01*
X349982Y-191753D01*
X349965Y-191897D01*
X349944Y-192040D01*
X349919Y-192182D01*
X349891Y-192323D01*
X349859Y-192464D01*
X349823Y-192604D01*
X349784Y-192743D01*
X349741Y-192881D01*
X349694Y-193017D01*
X349644Y-193153D01*
X349590Y-193287D01*
X349533Y-193419D01*
X349472Y-193550D01*
X349408Y-193679D01*
X349340Y-193807D01*
X349269Y-193933D01*
X349195Y-194057D01*
X349118Y-194178D01*
X349037Y-194298D01*
X348954Y-194416D01*
X348867Y-194531D01*
X348777Y-194644D01*
X348684Y-194755D01*
X348589Y-194863D01*
X348490Y-194969D01*
X348389Y-195072D01*
X340924Y-194748D02*
X340825Y-194746D01*
X340725Y-194740D01*
X340626Y-194731D01*
X340528Y-194718D01*
X340430Y-194700D01*
X340332Y-194680D01*
X340236Y-194655D01*
X340140Y-194627D01*
X340046Y-194595D01*
X339953Y-194560D01*
X339862Y-194521D01*
X339772Y-194478D01*
X339683Y-194433D01*
X339597Y-194383D01*
X339512Y-194331D01*
X339430Y-194275D01*
X339350Y-194216D01*
X339272Y-194155D01*
X339196Y-194090D01*
X339123Y-194022D01*
X339053Y-193952D01*
X338985Y-193879D01*
X338920Y-193803D01*
X338859Y-193725D01*
X338800Y-193645D01*
X338744Y-193563D01*
X338692Y-193478D01*
X338643Y-193392D01*
X338597Y-193303D01*
X338554Y-193213D01*
X338515Y-193122D01*
X338480Y-193029D01*
X338448Y-192935D01*
X338420Y-192839D01*
X338395Y-192743D01*
X338375Y-192645D01*
X338357Y-192547D01*
X338344Y-192449D01*
X338335Y-192350D01*
X338329Y-192251D01*
X338327Y-192151D01*
X338328Y-192151D02*
X338330Y-192015D01*
X338336Y-191879D01*
X338345Y-191743D01*
X338358Y-191607D01*
X338376Y-191472D01*
X338396Y-191338D01*
X338421Y-191204D01*
X338449Y-191070D01*
X338482Y-190938D01*
X338517Y-190807D01*
X338557Y-190676D01*
X338600Y-190547D01*
X338646Y-190419D01*
X338697Y-190293D01*
X338750Y-190167D01*
X338808Y-190044D01*
X338868Y-189922D01*
X338932Y-189802D01*
X339000Y-189683D01*
X339070Y-189567D01*
X339144Y-189452D01*
X339221Y-189340D01*
X339302Y-189230D01*
X343196Y-193449D02*
X343143Y-193535D01*
X343086Y-193619D01*
X343027Y-193701D01*
X342964Y-193781D01*
X342898Y-193858D01*
X342830Y-193933D01*
X342758Y-194005D01*
X342684Y-194074D01*
X342607Y-194140D01*
X342528Y-194203D01*
X342446Y-194263D01*
X342362Y-194320D01*
X342276Y-194374D01*
X342188Y-194424D01*
X342098Y-194471D01*
X342007Y-194515D01*
X341913Y-194554D01*
X341819Y-194591D01*
X341723Y-194623D01*
X341625Y-194652D01*
X341527Y-194677D01*
X341428Y-194698D01*
X341328Y-194716D01*
X341228Y-194729D01*
X341127Y-194739D01*
X341025Y-194745D01*
X340924Y-194747D01*
X345144Y-189879D02*
X345197Y-189793D01*
X345254Y-189709D01*
X345313Y-189627D01*
X345376Y-189547D01*
X345442Y-189470D01*
X345510Y-189395D01*
X345582Y-189323D01*
X345656Y-189254D01*
X345733Y-189188D01*
X345812Y-189125D01*
X345894Y-189065D01*
X345978Y-189008D01*
X346064Y-188954D01*
X346152Y-188904D01*
X346242Y-188857D01*
X346333Y-188813D01*
X346427Y-188774D01*
X346521Y-188737D01*
X346617Y-188705D01*
X346715Y-188676D01*
X346813Y-188651D01*
X346912Y-188630D01*
X347012Y-188612D01*
X347112Y-188599D01*
X347213Y-188589D01*
X347315Y-188583D01*
X347416Y-188581D01*
X345144Y-189879D02*
X343196Y-193449D01*
X338328Y-183642D02*
X350012Y-183642D01*
X338328Y-183642D02*
X338328Y-180397D01*
X338330Y-180284D01*
X338336Y-180171D01*
X338346Y-180058D01*
X338360Y-179945D01*
X338377Y-179833D01*
X338399Y-179722D01*
X338424Y-179612D01*
X338454Y-179502D01*
X338487Y-179394D01*
X338524Y-179287D01*
X338564Y-179181D01*
X338609Y-179077D01*
X338657Y-178974D01*
X338708Y-178873D01*
X338763Y-178774D01*
X338821Y-178677D01*
X338883Y-178582D01*
X338948Y-178489D01*
X339016Y-178399D01*
X339087Y-178311D01*
X339162Y-178225D01*
X339239Y-178142D01*
X339319Y-178062D01*
X339402Y-177985D01*
X339488Y-177910D01*
X339576Y-177839D01*
X339666Y-177771D01*
X339759Y-177706D01*
X339854Y-177644D01*
X339951Y-177586D01*
X340050Y-177531D01*
X340151Y-177480D01*
X340254Y-177432D01*
X340358Y-177387D01*
X340464Y-177347D01*
X340571Y-177310D01*
X340679Y-177277D01*
X340789Y-177247D01*
X340899Y-177222D01*
X341010Y-177200D01*
X341122Y-177183D01*
X341235Y-177169D01*
X341348Y-177159D01*
X341461Y-177153D01*
X341574Y-177151D01*
X346766Y-177151D01*
X346766Y-177150D02*
X346879Y-177152D01*
X346992Y-177158D01*
X347105Y-177168D01*
X347218Y-177182D01*
X347330Y-177199D01*
X347441Y-177221D01*
X347551Y-177246D01*
X347661Y-177276D01*
X347769Y-177309D01*
X347876Y-177346D01*
X347982Y-177386D01*
X348086Y-177431D01*
X348189Y-177479D01*
X348290Y-177530D01*
X348389Y-177585D01*
X348486Y-177643D01*
X348581Y-177705D01*
X348674Y-177770D01*
X348764Y-177838D01*
X348852Y-177909D01*
X348938Y-177984D01*
X349021Y-178061D01*
X349101Y-178141D01*
X349178Y-178224D01*
X349253Y-178310D01*
X349324Y-178398D01*
X349392Y-178488D01*
X349457Y-178581D01*
X349519Y-178676D01*
X349577Y-178773D01*
X349632Y-178872D01*
X349683Y-178973D01*
X349731Y-179076D01*
X349776Y-179180D01*
X349816Y-179286D01*
X349853Y-179393D01*
X349886Y-179501D01*
X349916Y-179611D01*
X349941Y-179721D01*
X349963Y-179832D01*
X349980Y-179944D01*
X349994Y-180057D01*
X350004Y-180170D01*
X350010Y-180283D01*
X350012Y-180396D01*
X350012Y-180397D02*
X350012Y-183642D01*
X350012Y-172480D02*
X338328Y-168586D01*
X350012Y-164691D01*
X347091Y-165665D02*
X347091Y-171507D01*
X372816Y-188581D02*
X372915Y-188583D01*
X373015Y-188589D01*
X373114Y-188598D01*
X373212Y-188611D01*
X373310Y-188628D01*
X373408Y-188649D01*
X373504Y-188674D01*
X373599Y-188702D01*
X373693Y-188734D01*
X373786Y-188769D01*
X373878Y-188808D01*
X373968Y-188851D01*
X374056Y-188896D01*
X374143Y-188946D01*
X374227Y-188998D01*
X374310Y-189054D01*
X374390Y-189112D01*
X374468Y-189174D01*
X374543Y-189239D01*
X374616Y-189307D01*
X374686Y-189377D01*
X374754Y-189450D01*
X374819Y-189525D01*
X374881Y-189603D01*
X374939Y-189683D01*
X374995Y-189766D01*
X375047Y-189850D01*
X375097Y-189937D01*
X375142Y-190025D01*
X375185Y-190115D01*
X375224Y-190207D01*
X375259Y-190300D01*
X375291Y-190394D01*
X375319Y-190489D01*
X375344Y-190585D01*
X375365Y-190683D01*
X375382Y-190781D01*
X375395Y-190879D01*
X375404Y-190978D01*
X375410Y-191078D01*
X375412Y-191177D01*
X375410Y-191321D01*
X375404Y-191466D01*
X375395Y-191610D01*
X375382Y-191753D01*
X375365Y-191897D01*
X375344Y-192040D01*
X375319Y-192182D01*
X375291Y-192323D01*
X375259Y-192464D01*
X375223Y-192604D01*
X375184Y-192743D01*
X375141Y-192881D01*
X375094Y-193017D01*
X375044Y-193153D01*
X374990Y-193287D01*
X374933Y-193419D01*
X374872Y-193550D01*
X374808Y-193679D01*
X374740Y-193807D01*
X374669Y-193933D01*
X374595Y-194057D01*
X374518Y-194178D01*
X374437Y-194298D01*
X374354Y-194416D01*
X374267Y-194531D01*
X374177Y-194644D01*
X374084Y-194755D01*
X373989Y-194863D01*
X373890Y-194969D01*
X373789Y-195072D01*
X366324Y-194748D02*
X366225Y-194746D01*
X366125Y-194740D01*
X366026Y-194731D01*
X365928Y-194718D01*
X365830Y-194700D01*
X365732Y-194680D01*
X365636Y-194655D01*
X365540Y-194627D01*
X365446Y-194595D01*
X365353Y-194560D01*
X365262Y-194521D01*
X365172Y-194478D01*
X365083Y-194433D01*
X364997Y-194383D01*
X364912Y-194331D01*
X364830Y-194275D01*
X364750Y-194216D01*
X364672Y-194155D01*
X364596Y-194090D01*
X364523Y-194022D01*
X364453Y-193952D01*
X364385Y-193879D01*
X364320Y-193803D01*
X364259Y-193725D01*
X364200Y-193645D01*
X364144Y-193563D01*
X364092Y-193478D01*
X364043Y-193392D01*
X363997Y-193303D01*
X363954Y-193213D01*
X363915Y-193122D01*
X363880Y-193029D01*
X363848Y-192935D01*
X363820Y-192839D01*
X363795Y-192743D01*
X363775Y-192645D01*
X363757Y-192547D01*
X363744Y-192449D01*
X363735Y-192350D01*
X363729Y-192251D01*
X363727Y-192151D01*
X363728Y-192151D02*
X363730Y-192015D01*
X363736Y-191879D01*
X363745Y-191743D01*
X363758Y-191607D01*
X363776Y-191472D01*
X363796Y-191338D01*
X363821Y-191204D01*
X363849Y-191070D01*
X363882Y-190938D01*
X363917Y-190807D01*
X363957Y-190676D01*
X364000Y-190547D01*
X364046Y-190419D01*
X364097Y-190293D01*
X364150Y-190167D01*
X364208Y-190044D01*
X364268Y-189922D01*
X364332Y-189802D01*
X364400Y-189683D01*
X364470Y-189567D01*
X364544Y-189452D01*
X364621Y-189340D01*
X364702Y-189230D01*
X368596Y-193449D02*
X368543Y-193535D01*
X368486Y-193619D01*
X368427Y-193701D01*
X368364Y-193781D01*
X368298Y-193858D01*
X368230Y-193933D01*
X368158Y-194005D01*
X368084Y-194074D01*
X368007Y-194140D01*
X367928Y-194203D01*
X367846Y-194263D01*
X367762Y-194320D01*
X367676Y-194374D01*
X367588Y-194424D01*
X367498Y-194471D01*
X367407Y-194515D01*
X367313Y-194554D01*
X367219Y-194591D01*
X367123Y-194623D01*
X367025Y-194652D01*
X366927Y-194677D01*
X366828Y-194698D01*
X366728Y-194716D01*
X366628Y-194729D01*
X366527Y-194739D01*
X366425Y-194745D01*
X366324Y-194747D01*
X370544Y-189879D02*
X370597Y-189793D01*
X370654Y-189709D01*
X370713Y-189627D01*
X370776Y-189547D01*
X370842Y-189470D01*
X370910Y-189395D01*
X370982Y-189323D01*
X371056Y-189254D01*
X371133Y-189188D01*
X371212Y-189125D01*
X371294Y-189065D01*
X371378Y-189008D01*
X371464Y-188954D01*
X371552Y-188904D01*
X371642Y-188857D01*
X371733Y-188813D01*
X371827Y-188774D01*
X371921Y-188737D01*
X372017Y-188705D01*
X372115Y-188676D01*
X372213Y-188651D01*
X372312Y-188630D01*
X372412Y-188612D01*
X372512Y-188599D01*
X372613Y-188589D01*
X372715Y-188583D01*
X372816Y-188581D01*
X370544Y-189879D02*
X368596Y-193449D01*
X375412Y-181460D02*
X375412Y-178863D01*
X375412Y-181460D02*
X375410Y-181559D01*
X375404Y-181659D01*
X375395Y-181758D01*
X375382Y-181856D01*
X375365Y-181954D01*
X375344Y-182052D01*
X375319Y-182148D01*
X375291Y-182243D01*
X375259Y-182337D01*
X375224Y-182430D01*
X375185Y-182522D01*
X375142Y-182612D01*
X375097Y-182700D01*
X375047Y-182787D01*
X374995Y-182871D01*
X374939Y-182954D01*
X374881Y-183034D01*
X374819Y-183112D01*
X374754Y-183187D01*
X374686Y-183260D01*
X374616Y-183330D01*
X374543Y-183398D01*
X374468Y-183463D01*
X374390Y-183525D01*
X374310Y-183583D01*
X374227Y-183639D01*
X374143Y-183691D01*
X374056Y-183741D01*
X373968Y-183786D01*
X373878Y-183829D01*
X373786Y-183868D01*
X373693Y-183903D01*
X373599Y-183935D01*
X373504Y-183963D01*
X373408Y-183988D01*
X373310Y-184009D01*
X373212Y-184026D01*
X373114Y-184039D01*
X373015Y-184048D01*
X372915Y-184054D01*
X372816Y-184056D01*
X366324Y-184056D01*
X366324Y-184057D02*
X366225Y-184055D01*
X366125Y-184049D01*
X366026Y-184040D01*
X365928Y-184027D01*
X365830Y-184009D01*
X365732Y-183989D01*
X365636Y-183964D01*
X365540Y-183936D01*
X365446Y-183904D01*
X365353Y-183869D01*
X365262Y-183830D01*
X365172Y-183787D01*
X365083Y-183742D01*
X364997Y-183692D01*
X364912Y-183640D01*
X364830Y-183584D01*
X364750Y-183525D01*
X364672Y-183464D01*
X364596Y-183399D01*
X364523Y-183331D01*
X364453Y-183261D01*
X364385Y-183188D01*
X364320Y-183112D01*
X364259Y-183034D01*
X364200Y-182954D01*
X364144Y-182872D01*
X364092Y-182787D01*
X364043Y-182701D01*
X363997Y-182612D01*
X363954Y-182522D01*
X363915Y-182431D01*
X363880Y-182338D01*
X363848Y-182244D01*
X363820Y-182148D01*
X363795Y-182052D01*
X363775Y-181954D01*
X363757Y-181856D01*
X363744Y-181758D01*
X363735Y-181659D01*
X363729Y-181560D01*
X363727Y-181460D01*
X363728Y-181460D02*
X363728Y-178863D01*
X363728Y-174094D02*
X375412Y-174094D01*
X375412Y-168902D01*
X189174Y-356108D02*
X189174Y-367792D01*
X185928Y-356108D02*
X192419Y-356108D01*
X197051Y-356108D02*
X197051Y-367792D01*
X197051Y-356108D02*
X200296Y-356108D01*
X200409Y-356110D01*
X200522Y-356116D01*
X200635Y-356126D01*
X200748Y-356140D01*
X200860Y-356157D01*
X200971Y-356179D01*
X201081Y-356204D01*
X201191Y-356234D01*
X201299Y-356267D01*
X201406Y-356304D01*
X201512Y-356344D01*
X201616Y-356389D01*
X201719Y-356437D01*
X201820Y-356488D01*
X201919Y-356543D01*
X202016Y-356601D01*
X202111Y-356663D01*
X202204Y-356728D01*
X202294Y-356796D01*
X202382Y-356867D01*
X202468Y-356942D01*
X202551Y-357019D01*
X202631Y-357099D01*
X202708Y-357182D01*
X202783Y-357268D01*
X202854Y-357356D01*
X202922Y-357446D01*
X202987Y-357539D01*
X203049Y-357634D01*
X203107Y-357731D01*
X203162Y-357830D01*
X203213Y-357931D01*
X203261Y-358034D01*
X203306Y-358138D01*
X203346Y-358244D01*
X203383Y-358351D01*
X203416Y-358459D01*
X203446Y-358569D01*
X203471Y-358679D01*
X203493Y-358790D01*
X203510Y-358902D01*
X203524Y-359015D01*
X203534Y-359128D01*
X203540Y-359241D01*
X203542Y-359354D01*
X203540Y-359467D01*
X203534Y-359580D01*
X203524Y-359693D01*
X203510Y-359806D01*
X203493Y-359918D01*
X203471Y-360029D01*
X203446Y-360139D01*
X203416Y-360249D01*
X203383Y-360357D01*
X203346Y-360464D01*
X203306Y-360570D01*
X203261Y-360674D01*
X203213Y-360777D01*
X203162Y-360878D01*
X203107Y-360977D01*
X203049Y-361074D01*
X202987Y-361169D01*
X202922Y-361262D01*
X202854Y-361352D01*
X202783Y-361440D01*
X202708Y-361526D01*
X202631Y-361609D01*
X202551Y-361689D01*
X202468Y-361766D01*
X202382Y-361841D01*
X202294Y-361912D01*
X202204Y-361980D01*
X202111Y-362045D01*
X202016Y-362107D01*
X201919Y-362165D01*
X201820Y-362220D01*
X201719Y-362271D01*
X201616Y-362319D01*
X201512Y-362364D01*
X201406Y-362404D01*
X201299Y-362441D01*
X201191Y-362474D01*
X201081Y-362504D01*
X200971Y-362529D01*
X200860Y-362551D01*
X200748Y-362568D01*
X200635Y-362582D01*
X200522Y-362592D01*
X200409Y-362598D01*
X200296Y-362600D01*
X200296Y-362599D02*
X197051Y-362599D01*
X200945Y-362599D02*
X203542Y-367792D01*
X209367Y-367792D02*
X209367Y-356108D01*
X208068Y-367792D02*
X210665Y-367792D01*
X210665Y-356108D02*
X208068Y-356108D01*
X220190Y-361301D02*
X222137Y-361301D01*
X222137Y-367792D01*
X218242Y-367792D01*
X218143Y-367790D01*
X218043Y-367784D01*
X217944Y-367775D01*
X217846Y-367762D01*
X217748Y-367745D01*
X217650Y-367724D01*
X217554Y-367699D01*
X217459Y-367671D01*
X217365Y-367639D01*
X217272Y-367604D01*
X217180Y-367565D01*
X217090Y-367522D01*
X217002Y-367477D01*
X216915Y-367427D01*
X216831Y-367375D01*
X216748Y-367319D01*
X216668Y-367261D01*
X216590Y-367199D01*
X216515Y-367134D01*
X216442Y-367066D01*
X216372Y-366996D01*
X216304Y-366923D01*
X216239Y-366848D01*
X216177Y-366770D01*
X216119Y-366690D01*
X216063Y-366607D01*
X216011Y-366523D01*
X215961Y-366436D01*
X215916Y-366348D01*
X215873Y-366258D01*
X215834Y-366166D01*
X215799Y-366073D01*
X215767Y-365979D01*
X215739Y-365884D01*
X215714Y-365788D01*
X215693Y-365690D01*
X215676Y-365592D01*
X215663Y-365494D01*
X215654Y-365395D01*
X215648Y-365295D01*
X215646Y-365196D01*
X215646Y-358704D01*
X215645Y-358704D02*
X215647Y-358605D01*
X215653Y-358505D01*
X215662Y-358406D01*
X215675Y-358308D01*
X215693Y-358210D01*
X215713Y-358112D01*
X215738Y-358016D01*
X215766Y-357920D01*
X215798Y-357826D01*
X215833Y-357733D01*
X215872Y-357642D01*
X215915Y-357552D01*
X215960Y-357463D01*
X216010Y-357377D01*
X216062Y-357292D01*
X216118Y-357210D01*
X216177Y-357130D01*
X216238Y-357052D01*
X216303Y-356976D01*
X216371Y-356903D01*
X216441Y-356833D01*
X216514Y-356765D01*
X216590Y-356700D01*
X216668Y-356639D01*
X216748Y-356580D01*
X216830Y-356524D01*
X216915Y-356472D01*
X217001Y-356423D01*
X217090Y-356377D01*
X217180Y-356334D01*
X217271Y-356295D01*
X217364Y-356260D01*
X217458Y-356228D01*
X217554Y-356200D01*
X217650Y-356175D01*
X217748Y-356155D01*
X217846Y-356137D01*
X217944Y-356124D01*
X218043Y-356115D01*
X218142Y-356109D01*
X218242Y-356107D01*
X218242Y-356108D02*
X222137Y-356108D01*
X227457Y-358704D02*
X230702Y-356108D01*
X230702Y-367792D01*
X227457Y-367792D02*
X233948Y-367792D01*
X191121Y-342392D02*
X185928Y-342392D01*
X185928Y-330708D01*
X191121Y-330708D01*
X189823Y-335901D02*
X185928Y-335901D01*
X197994Y-342392D02*
X200590Y-342392D01*
X197994Y-342392D02*
X197895Y-342390D01*
X197795Y-342384D01*
X197696Y-342375D01*
X197598Y-342362D01*
X197500Y-342345D01*
X197402Y-342324D01*
X197306Y-342299D01*
X197211Y-342271D01*
X197117Y-342239D01*
X197024Y-342204D01*
X196932Y-342165D01*
X196842Y-342122D01*
X196754Y-342077D01*
X196667Y-342027D01*
X196583Y-341975D01*
X196500Y-341919D01*
X196420Y-341861D01*
X196342Y-341799D01*
X196267Y-341734D01*
X196194Y-341666D01*
X196124Y-341596D01*
X196056Y-341523D01*
X195991Y-341448D01*
X195929Y-341370D01*
X195871Y-341290D01*
X195815Y-341207D01*
X195763Y-341123D01*
X195713Y-341036D01*
X195668Y-340948D01*
X195625Y-340858D01*
X195586Y-340766D01*
X195551Y-340673D01*
X195519Y-340579D01*
X195491Y-340484D01*
X195466Y-340388D01*
X195445Y-340290D01*
X195428Y-340192D01*
X195415Y-340094D01*
X195406Y-339995D01*
X195400Y-339895D01*
X195398Y-339796D01*
X195397Y-339796D02*
X195397Y-333304D01*
X195399Y-333205D01*
X195405Y-333105D01*
X195414Y-333006D01*
X195427Y-332908D01*
X195445Y-332810D01*
X195465Y-332712D01*
X195490Y-332616D01*
X195518Y-332520D01*
X195550Y-332426D01*
X195585Y-332333D01*
X195624Y-332242D01*
X195667Y-332152D01*
X195712Y-332063D01*
X195762Y-331977D01*
X195814Y-331892D01*
X195870Y-331810D01*
X195929Y-331730D01*
X195990Y-331652D01*
X196055Y-331576D01*
X196123Y-331503D01*
X196193Y-331433D01*
X196266Y-331365D01*
X196342Y-331300D01*
X196420Y-331239D01*
X196500Y-331180D01*
X196582Y-331124D01*
X196667Y-331072D01*
X196753Y-331023D01*
X196842Y-330977D01*
X196932Y-330934D01*
X197023Y-330895D01*
X197116Y-330860D01*
X197210Y-330828D01*
X197306Y-330800D01*
X197402Y-330775D01*
X197500Y-330755D01*
X197598Y-330737D01*
X197696Y-330724D01*
X197795Y-330715D01*
X197894Y-330709D01*
X197994Y-330707D01*
X197994Y-330708D02*
X200590Y-330708D01*
X205336Y-330708D02*
X205336Y-342392D01*
X205336Y-335901D02*
X211828Y-335901D01*
X211828Y-330708D02*
X211828Y-342392D01*
X217147Y-339146D02*
X217147Y-333954D01*
X217149Y-333841D01*
X217155Y-333728D01*
X217165Y-333615D01*
X217179Y-333502D01*
X217196Y-333390D01*
X217218Y-333279D01*
X217243Y-333169D01*
X217273Y-333059D01*
X217306Y-332951D01*
X217343Y-332844D01*
X217383Y-332738D01*
X217428Y-332634D01*
X217476Y-332531D01*
X217527Y-332430D01*
X217582Y-332331D01*
X217640Y-332234D01*
X217702Y-332139D01*
X217767Y-332046D01*
X217835Y-331956D01*
X217906Y-331868D01*
X217981Y-331782D01*
X218058Y-331699D01*
X218138Y-331619D01*
X218221Y-331542D01*
X218307Y-331467D01*
X218395Y-331396D01*
X218485Y-331328D01*
X218578Y-331263D01*
X218673Y-331201D01*
X218770Y-331143D01*
X218869Y-331088D01*
X218970Y-331037D01*
X219073Y-330989D01*
X219177Y-330944D01*
X219283Y-330904D01*
X219390Y-330867D01*
X219498Y-330834D01*
X219608Y-330804D01*
X219718Y-330779D01*
X219829Y-330757D01*
X219941Y-330740D01*
X220054Y-330726D01*
X220167Y-330716D01*
X220280Y-330710D01*
X220393Y-330708D01*
X220506Y-330710D01*
X220619Y-330716D01*
X220732Y-330726D01*
X220845Y-330740D01*
X220957Y-330757D01*
X221068Y-330779D01*
X221178Y-330804D01*
X221288Y-330834D01*
X221396Y-330867D01*
X221503Y-330904D01*
X221609Y-330944D01*
X221713Y-330989D01*
X221816Y-331037D01*
X221917Y-331088D01*
X222016Y-331143D01*
X222113Y-331201D01*
X222208Y-331263D01*
X222301Y-331328D01*
X222391Y-331396D01*
X222479Y-331467D01*
X222565Y-331542D01*
X222648Y-331619D01*
X222728Y-331699D01*
X222805Y-331782D01*
X222880Y-331868D01*
X222951Y-331956D01*
X223019Y-332046D01*
X223084Y-332139D01*
X223146Y-332234D01*
X223204Y-332331D01*
X223259Y-332430D01*
X223310Y-332531D01*
X223358Y-332634D01*
X223403Y-332738D01*
X223443Y-332844D01*
X223480Y-332951D01*
X223513Y-333059D01*
X223543Y-333169D01*
X223568Y-333279D01*
X223590Y-333390D01*
X223607Y-333502D01*
X223621Y-333615D01*
X223631Y-333728D01*
X223637Y-333841D01*
X223639Y-333954D01*
X223638Y-333954D02*
X223638Y-339146D01*
X223639Y-339146D02*
X223637Y-339259D01*
X223631Y-339372D01*
X223621Y-339485D01*
X223607Y-339598D01*
X223590Y-339710D01*
X223568Y-339821D01*
X223543Y-339931D01*
X223513Y-340041D01*
X223480Y-340149D01*
X223443Y-340256D01*
X223403Y-340362D01*
X223358Y-340466D01*
X223310Y-340569D01*
X223259Y-340670D01*
X223204Y-340769D01*
X223146Y-340866D01*
X223084Y-340961D01*
X223019Y-341054D01*
X222951Y-341144D01*
X222880Y-341232D01*
X222805Y-341318D01*
X222728Y-341401D01*
X222648Y-341481D01*
X222565Y-341558D01*
X222479Y-341633D01*
X222391Y-341704D01*
X222301Y-341772D01*
X222208Y-341837D01*
X222113Y-341899D01*
X222016Y-341957D01*
X221917Y-342012D01*
X221816Y-342063D01*
X221713Y-342111D01*
X221609Y-342156D01*
X221503Y-342196D01*
X221396Y-342233D01*
X221288Y-342266D01*
X221178Y-342296D01*
X221068Y-342321D01*
X220957Y-342343D01*
X220845Y-342360D01*
X220732Y-342374D01*
X220619Y-342384D01*
X220506Y-342390D01*
X220393Y-342392D01*
X220280Y-342390D01*
X220167Y-342384D01*
X220054Y-342374D01*
X219941Y-342360D01*
X219829Y-342343D01*
X219718Y-342321D01*
X219608Y-342296D01*
X219498Y-342266D01*
X219390Y-342233D01*
X219283Y-342196D01*
X219177Y-342156D01*
X219073Y-342111D01*
X218970Y-342063D01*
X218869Y-342012D01*
X218770Y-341957D01*
X218673Y-341899D01*
X218578Y-341837D01*
X218485Y-341772D01*
X218395Y-341704D01*
X218307Y-341633D01*
X218221Y-341558D01*
X218138Y-341481D01*
X218058Y-341401D01*
X217981Y-341318D01*
X217906Y-341232D01*
X217835Y-341144D01*
X217767Y-341054D01*
X217702Y-340961D01*
X217640Y-340866D01*
X217582Y-340769D01*
X217527Y-340670D01*
X217476Y-340569D01*
X217428Y-340466D01*
X217383Y-340362D01*
X217343Y-340256D01*
X217306Y-340149D01*
X217273Y-340041D01*
X217243Y-339931D01*
X217218Y-339821D01*
X217196Y-339710D01*
X217179Y-339598D01*
X217165Y-339485D01*
X217155Y-339372D01*
X217149Y-339259D01*
X217147Y-339146D01*
X228577Y-333304D02*
X231823Y-330708D01*
X231823Y-342392D01*
X235068Y-342392D02*
X228577Y-342392D01*
X193661Y-482092D02*
X188468Y-482092D01*
X188468Y-470408D01*
X193661Y-470408D01*
X192363Y-475601D02*
X188468Y-475601D01*
X200534Y-482092D02*
X203130Y-482092D01*
X200534Y-482092D02*
X200435Y-482090D01*
X200335Y-482084D01*
X200236Y-482075D01*
X200138Y-482062D01*
X200040Y-482045D01*
X199942Y-482024D01*
X199846Y-481999D01*
X199751Y-481971D01*
X199657Y-481939D01*
X199564Y-481904D01*
X199472Y-481865D01*
X199382Y-481822D01*
X199294Y-481777D01*
X199207Y-481727D01*
X199123Y-481675D01*
X199040Y-481619D01*
X198960Y-481561D01*
X198882Y-481499D01*
X198807Y-481434D01*
X198734Y-481366D01*
X198664Y-481296D01*
X198596Y-481223D01*
X198531Y-481148D01*
X198469Y-481070D01*
X198411Y-480990D01*
X198355Y-480907D01*
X198303Y-480823D01*
X198253Y-480736D01*
X198208Y-480648D01*
X198165Y-480558D01*
X198126Y-480466D01*
X198091Y-480373D01*
X198059Y-480279D01*
X198031Y-480184D01*
X198006Y-480088D01*
X197985Y-479990D01*
X197968Y-479892D01*
X197955Y-479794D01*
X197946Y-479695D01*
X197940Y-479595D01*
X197938Y-479496D01*
X197937Y-479496D02*
X197937Y-473004D01*
X197939Y-472905D01*
X197945Y-472805D01*
X197954Y-472706D01*
X197967Y-472608D01*
X197985Y-472510D01*
X198005Y-472412D01*
X198030Y-472316D01*
X198058Y-472220D01*
X198090Y-472126D01*
X198125Y-472033D01*
X198164Y-471942D01*
X198207Y-471852D01*
X198252Y-471763D01*
X198302Y-471677D01*
X198354Y-471592D01*
X198410Y-471510D01*
X198469Y-471430D01*
X198530Y-471352D01*
X198595Y-471276D01*
X198663Y-471203D01*
X198733Y-471133D01*
X198806Y-471065D01*
X198882Y-471000D01*
X198960Y-470939D01*
X199040Y-470880D01*
X199122Y-470824D01*
X199207Y-470772D01*
X199293Y-470723D01*
X199382Y-470677D01*
X199472Y-470634D01*
X199563Y-470595D01*
X199656Y-470560D01*
X199750Y-470528D01*
X199846Y-470500D01*
X199942Y-470475D01*
X200040Y-470455D01*
X200138Y-470437D01*
X200236Y-470424D01*
X200335Y-470415D01*
X200434Y-470409D01*
X200534Y-470407D01*
X200534Y-470408D02*
X203130Y-470408D01*
X207876Y-470408D02*
X207876Y-482092D01*
X207876Y-475601D02*
X214368Y-475601D01*
X214368Y-470408D02*
X214368Y-482092D01*
X219687Y-478846D02*
X219687Y-473654D01*
X219689Y-473541D01*
X219695Y-473428D01*
X219705Y-473315D01*
X219719Y-473202D01*
X219736Y-473090D01*
X219758Y-472979D01*
X219783Y-472869D01*
X219813Y-472759D01*
X219846Y-472651D01*
X219883Y-472544D01*
X219923Y-472438D01*
X219968Y-472334D01*
X220016Y-472231D01*
X220067Y-472130D01*
X220122Y-472031D01*
X220180Y-471934D01*
X220242Y-471839D01*
X220307Y-471746D01*
X220375Y-471656D01*
X220446Y-471568D01*
X220521Y-471482D01*
X220598Y-471399D01*
X220678Y-471319D01*
X220761Y-471242D01*
X220847Y-471167D01*
X220935Y-471096D01*
X221025Y-471028D01*
X221118Y-470963D01*
X221213Y-470901D01*
X221310Y-470843D01*
X221409Y-470788D01*
X221510Y-470737D01*
X221613Y-470689D01*
X221717Y-470644D01*
X221823Y-470604D01*
X221930Y-470567D01*
X222038Y-470534D01*
X222148Y-470504D01*
X222258Y-470479D01*
X222369Y-470457D01*
X222481Y-470440D01*
X222594Y-470426D01*
X222707Y-470416D01*
X222820Y-470410D01*
X222933Y-470408D01*
X223046Y-470410D01*
X223159Y-470416D01*
X223272Y-470426D01*
X223385Y-470440D01*
X223497Y-470457D01*
X223608Y-470479D01*
X223718Y-470504D01*
X223828Y-470534D01*
X223936Y-470567D01*
X224043Y-470604D01*
X224149Y-470644D01*
X224253Y-470689D01*
X224356Y-470737D01*
X224457Y-470788D01*
X224556Y-470843D01*
X224653Y-470901D01*
X224748Y-470963D01*
X224841Y-471028D01*
X224931Y-471096D01*
X225019Y-471167D01*
X225105Y-471242D01*
X225188Y-471319D01*
X225268Y-471399D01*
X225345Y-471482D01*
X225420Y-471568D01*
X225491Y-471656D01*
X225559Y-471746D01*
X225624Y-471839D01*
X225686Y-471934D01*
X225744Y-472031D01*
X225799Y-472130D01*
X225850Y-472231D01*
X225898Y-472334D01*
X225943Y-472438D01*
X225983Y-472544D01*
X226020Y-472651D01*
X226053Y-472759D01*
X226083Y-472869D01*
X226108Y-472979D01*
X226130Y-473090D01*
X226147Y-473202D01*
X226161Y-473315D01*
X226171Y-473428D01*
X226177Y-473541D01*
X226179Y-473654D01*
X226178Y-473654D02*
X226178Y-478846D01*
X226179Y-478846D02*
X226177Y-478959D01*
X226171Y-479072D01*
X226161Y-479185D01*
X226147Y-479298D01*
X226130Y-479410D01*
X226108Y-479521D01*
X226083Y-479631D01*
X226053Y-479741D01*
X226020Y-479849D01*
X225983Y-479956D01*
X225943Y-480062D01*
X225898Y-480166D01*
X225850Y-480269D01*
X225799Y-480370D01*
X225744Y-480469D01*
X225686Y-480566D01*
X225624Y-480661D01*
X225559Y-480754D01*
X225491Y-480844D01*
X225420Y-480932D01*
X225345Y-481018D01*
X225268Y-481101D01*
X225188Y-481181D01*
X225105Y-481258D01*
X225019Y-481333D01*
X224931Y-481404D01*
X224841Y-481472D01*
X224748Y-481537D01*
X224653Y-481599D01*
X224556Y-481657D01*
X224457Y-481712D01*
X224356Y-481763D01*
X224253Y-481811D01*
X224149Y-481856D01*
X224043Y-481896D01*
X223936Y-481933D01*
X223828Y-481966D01*
X223718Y-481996D01*
X223608Y-482021D01*
X223497Y-482043D01*
X223385Y-482060D01*
X223272Y-482074D01*
X223159Y-482084D01*
X223046Y-482090D01*
X222933Y-482092D01*
X222820Y-482090D01*
X222707Y-482084D01*
X222594Y-482074D01*
X222481Y-482060D01*
X222369Y-482043D01*
X222258Y-482021D01*
X222148Y-481996D01*
X222038Y-481966D01*
X221930Y-481933D01*
X221823Y-481896D01*
X221717Y-481856D01*
X221613Y-481811D01*
X221510Y-481763D01*
X221409Y-481712D01*
X221310Y-481657D01*
X221213Y-481599D01*
X221118Y-481537D01*
X221025Y-481472D01*
X220935Y-481404D01*
X220847Y-481333D01*
X220761Y-481258D01*
X220678Y-481181D01*
X220598Y-481101D01*
X220521Y-481018D01*
X220446Y-480932D01*
X220375Y-480844D01*
X220307Y-480754D01*
X220242Y-480661D01*
X220180Y-480566D01*
X220122Y-480469D01*
X220067Y-480370D01*
X220016Y-480269D01*
X219968Y-480166D01*
X219923Y-480062D01*
X219883Y-479956D01*
X219846Y-479849D01*
X219813Y-479741D01*
X219783Y-479631D01*
X219758Y-479521D01*
X219736Y-479410D01*
X219719Y-479298D01*
X219705Y-479185D01*
X219695Y-479072D01*
X219689Y-478959D01*
X219687Y-478846D01*
X234687Y-470408D02*
X234794Y-470410D01*
X234900Y-470416D01*
X235006Y-470426D01*
X235112Y-470439D01*
X235218Y-470457D01*
X235322Y-470478D01*
X235426Y-470503D01*
X235529Y-470532D01*
X235630Y-470564D01*
X235730Y-470601D01*
X235829Y-470641D01*
X235927Y-470684D01*
X236023Y-470731D01*
X236117Y-470782D01*
X236209Y-470836D01*
X236299Y-470893D01*
X236387Y-470953D01*
X236472Y-471017D01*
X236555Y-471084D01*
X236636Y-471154D01*
X236714Y-471226D01*
X236790Y-471302D01*
X236862Y-471380D01*
X236932Y-471461D01*
X236999Y-471544D01*
X237063Y-471629D01*
X237123Y-471717D01*
X237180Y-471807D01*
X237234Y-471899D01*
X237285Y-471993D01*
X237332Y-472089D01*
X237375Y-472187D01*
X237415Y-472286D01*
X237452Y-472386D01*
X237484Y-472487D01*
X237513Y-472590D01*
X237538Y-472694D01*
X237559Y-472798D01*
X237577Y-472904D01*
X237590Y-473010D01*
X237600Y-473116D01*
X237606Y-473222D01*
X237608Y-473329D01*
X234687Y-470408D02*
X234566Y-470410D01*
X234445Y-470416D01*
X234325Y-470426D01*
X234204Y-470439D01*
X234085Y-470457D01*
X233965Y-470478D01*
X233847Y-470503D01*
X233730Y-470532D01*
X233613Y-470565D01*
X233498Y-470601D01*
X233384Y-470642D01*
X233271Y-470685D01*
X233159Y-470733D01*
X233050Y-470784D01*
X232942Y-470839D01*
X232835Y-470897D01*
X232731Y-470958D01*
X232629Y-471023D01*
X232529Y-471091D01*
X232431Y-471162D01*
X232335Y-471236D01*
X232242Y-471313D01*
X232152Y-471394D01*
X232064Y-471477D01*
X231979Y-471563D01*
X231896Y-471652D01*
X231817Y-471743D01*
X231740Y-471837D01*
X231667Y-471933D01*
X231597Y-472031D01*
X231530Y-472132D01*
X231466Y-472235D01*
X231406Y-472340D01*
X231348Y-472447D01*
X231295Y-472555D01*
X231245Y-472665D01*
X231199Y-472777D01*
X231156Y-472890D01*
X231117Y-473005D01*
X236634Y-475601D02*
X236713Y-475523D01*
X236789Y-475443D01*
X236862Y-475360D01*
X236932Y-475274D01*
X236999Y-475187D01*
X237063Y-475096D01*
X237123Y-475004D01*
X237181Y-474910D01*
X237235Y-474813D01*
X237285Y-474715D01*
X237332Y-474615D01*
X237376Y-474514D01*
X237416Y-474411D01*
X237452Y-474306D01*
X237484Y-474201D01*
X237513Y-474094D01*
X237538Y-473987D01*
X237560Y-473878D01*
X237577Y-473769D01*
X237591Y-473660D01*
X237600Y-473550D01*
X237606Y-473439D01*
X237608Y-473329D01*
X236635Y-475601D02*
X231117Y-482092D01*
X237608Y-482092D01*
X191714Y-495808D02*
X191714Y-507492D01*
X188468Y-495808D02*
X194959Y-495808D01*
X199591Y-495808D02*
X199591Y-507492D01*
X199591Y-495808D02*
X202836Y-495808D01*
X202949Y-495810D01*
X203062Y-495816D01*
X203175Y-495826D01*
X203288Y-495840D01*
X203400Y-495857D01*
X203511Y-495879D01*
X203621Y-495904D01*
X203731Y-495934D01*
X203839Y-495967D01*
X203946Y-496004D01*
X204052Y-496044D01*
X204156Y-496089D01*
X204259Y-496137D01*
X204360Y-496188D01*
X204459Y-496243D01*
X204556Y-496301D01*
X204651Y-496363D01*
X204744Y-496428D01*
X204834Y-496496D01*
X204922Y-496567D01*
X205008Y-496642D01*
X205091Y-496719D01*
X205171Y-496799D01*
X205248Y-496882D01*
X205323Y-496968D01*
X205394Y-497056D01*
X205462Y-497146D01*
X205527Y-497239D01*
X205589Y-497334D01*
X205647Y-497431D01*
X205702Y-497530D01*
X205753Y-497631D01*
X205801Y-497734D01*
X205846Y-497838D01*
X205886Y-497944D01*
X205923Y-498051D01*
X205956Y-498159D01*
X205986Y-498269D01*
X206011Y-498379D01*
X206033Y-498490D01*
X206050Y-498602D01*
X206064Y-498715D01*
X206074Y-498828D01*
X206080Y-498941D01*
X206082Y-499054D01*
X206080Y-499167D01*
X206074Y-499280D01*
X206064Y-499393D01*
X206050Y-499506D01*
X206033Y-499618D01*
X206011Y-499729D01*
X205986Y-499839D01*
X205956Y-499949D01*
X205923Y-500057D01*
X205886Y-500164D01*
X205846Y-500270D01*
X205801Y-500374D01*
X205753Y-500477D01*
X205702Y-500578D01*
X205647Y-500677D01*
X205589Y-500774D01*
X205527Y-500869D01*
X205462Y-500962D01*
X205394Y-501052D01*
X205323Y-501140D01*
X205248Y-501226D01*
X205171Y-501309D01*
X205091Y-501389D01*
X205008Y-501466D01*
X204922Y-501541D01*
X204834Y-501612D01*
X204744Y-501680D01*
X204651Y-501745D01*
X204556Y-501807D01*
X204459Y-501865D01*
X204360Y-501920D01*
X204259Y-501971D01*
X204156Y-502019D01*
X204052Y-502064D01*
X203946Y-502104D01*
X203839Y-502141D01*
X203731Y-502174D01*
X203621Y-502204D01*
X203511Y-502229D01*
X203400Y-502251D01*
X203288Y-502268D01*
X203175Y-502282D01*
X203062Y-502292D01*
X202949Y-502298D01*
X202836Y-502300D01*
X202836Y-502299D02*
X199591Y-502299D01*
X203485Y-502299D02*
X206082Y-507492D01*
X211907Y-507492D02*
X211907Y-495808D01*
X210608Y-507492D02*
X213205Y-507492D01*
X213205Y-495808D02*
X210608Y-495808D01*
X222730Y-501001D02*
X224677Y-501001D01*
X224677Y-507492D01*
X220782Y-507492D01*
X220683Y-507490D01*
X220583Y-507484D01*
X220484Y-507475D01*
X220386Y-507462D01*
X220288Y-507445D01*
X220190Y-507424D01*
X220094Y-507399D01*
X219999Y-507371D01*
X219905Y-507339D01*
X219812Y-507304D01*
X219720Y-507265D01*
X219630Y-507222D01*
X219542Y-507177D01*
X219455Y-507127D01*
X219371Y-507075D01*
X219288Y-507019D01*
X219208Y-506961D01*
X219130Y-506899D01*
X219055Y-506834D01*
X218982Y-506766D01*
X218912Y-506696D01*
X218844Y-506623D01*
X218779Y-506548D01*
X218717Y-506470D01*
X218659Y-506390D01*
X218603Y-506307D01*
X218551Y-506223D01*
X218501Y-506136D01*
X218456Y-506048D01*
X218413Y-505958D01*
X218374Y-505866D01*
X218339Y-505773D01*
X218307Y-505679D01*
X218279Y-505584D01*
X218254Y-505488D01*
X218233Y-505390D01*
X218216Y-505292D01*
X218203Y-505194D01*
X218194Y-505095D01*
X218188Y-504995D01*
X218186Y-504896D01*
X218186Y-498404D01*
X218185Y-498404D02*
X218187Y-498305D01*
X218193Y-498205D01*
X218202Y-498106D01*
X218215Y-498008D01*
X218233Y-497910D01*
X218253Y-497812D01*
X218278Y-497716D01*
X218306Y-497620D01*
X218338Y-497526D01*
X218373Y-497433D01*
X218412Y-497342D01*
X218455Y-497252D01*
X218500Y-497163D01*
X218550Y-497077D01*
X218602Y-496992D01*
X218658Y-496910D01*
X218717Y-496830D01*
X218778Y-496752D01*
X218843Y-496676D01*
X218911Y-496603D01*
X218981Y-496533D01*
X219054Y-496465D01*
X219130Y-496400D01*
X219208Y-496339D01*
X219288Y-496280D01*
X219370Y-496224D01*
X219455Y-496172D01*
X219541Y-496123D01*
X219630Y-496077D01*
X219720Y-496034D01*
X219811Y-495995D01*
X219904Y-495960D01*
X219998Y-495928D01*
X220094Y-495900D01*
X220190Y-495875D01*
X220288Y-495855D01*
X220386Y-495837D01*
X220484Y-495824D01*
X220583Y-495815D01*
X220682Y-495809D01*
X220782Y-495807D01*
X220782Y-495808D02*
X224677Y-495808D01*
X233567Y-495808D02*
X233674Y-495810D01*
X233780Y-495816D01*
X233886Y-495826D01*
X233992Y-495839D01*
X234098Y-495857D01*
X234202Y-495878D01*
X234306Y-495903D01*
X234409Y-495932D01*
X234510Y-495964D01*
X234610Y-496001D01*
X234709Y-496041D01*
X234807Y-496084D01*
X234903Y-496131D01*
X234997Y-496182D01*
X235089Y-496236D01*
X235179Y-496293D01*
X235267Y-496353D01*
X235352Y-496417D01*
X235435Y-496484D01*
X235516Y-496554D01*
X235594Y-496626D01*
X235670Y-496702D01*
X235742Y-496780D01*
X235812Y-496861D01*
X235879Y-496944D01*
X235943Y-497029D01*
X236003Y-497117D01*
X236060Y-497207D01*
X236114Y-497299D01*
X236165Y-497393D01*
X236212Y-497489D01*
X236255Y-497587D01*
X236295Y-497686D01*
X236332Y-497786D01*
X236364Y-497887D01*
X236393Y-497990D01*
X236418Y-498094D01*
X236439Y-498198D01*
X236457Y-498304D01*
X236470Y-498410D01*
X236480Y-498516D01*
X236486Y-498622D01*
X236488Y-498729D01*
X233567Y-495808D02*
X233446Y-495810D01*
X233325Y-495816D01*
X233205Y-495826D01*
X233084Y-495839D01*
X232965Y-495857D01*
X232845Y-495878D01*
X232727Y-495903D01*
X232610Y-495932D01*
X232493Y-495965D01*
X232378Y-496001D01*
X232264Y-496042D01*
X232151Y-496085D01*
X232039Y-496133D01*
X231930Y-496184D01*
X231822Y-496239D01*
X231715Y-496297D01*
X231611Y-496358D01*
X231509Y-496423D01*
X231409Y-496491D01*
X231311Y-496562D01*
X231215Y-496636D01*
X231122Y-496713D01*
X231032Y-496794D01*
X230944Y-496877D01*
X230859Y-496963D01*
X230776Y-497052D01*
X230697Y-497143D01*
X230620Y-497237D01*
X230547Y-497333D01*
X230477Y-497431D01*
X230410Y-497532D01*
X230346Y-497635D01*
X230286Y-497740D01*
X230228Y-497847D01*
X230175Y-497955D01*
X230125Y-498065D01*
X230079Y-498177D01*
X230036Y-498290D01*
X229997Y-498405D01*
X235514Y-501001D02*
X235593Y-500923D01*
X235669Y-500843D01*
X235742Y-500760D01*
X235812Y-500674D01*
X235879Y-500587D01*
X235943Y-500496D01*
X236003Y-500404D01*
X236061Y-500310D01*
X236115Y-500213D01*
X236165Y-500115D01*
X236212Y-500015D01*
X236256Y-499914D01*
X236296Y-499811D01*
X236332Y-499706D01*
X236364Y-499601D01*
X236393Y-499494D01*
X236418Y-499387D01*
X236440Y-499278D01*
X236457Y-499169D01*
X236471Y-499060D01*
X236480Y-498950D01*
X236486Y-498839D01*
X236488Y-498729D01*
X235514Y-501001D02*
X229997Y-507492D01*
X236488Y-507492D01*
X194959Y-678801D02*
X193012Y-678801D01*
X194959Y-678801D02*
X194959Y-685292D01*
X191064Y-685292D01*
X190965Y-685290D01*
X190865Y-685284D01*
X190766Y-685275D01*
X190668Y-685262D01*
X190570Y-685245D01*
X190472Y-685224D01*
X190376Y-685199D01*
X190281Y-685171D01*
X190187Y-685139D01*
X190094Y-685104D01*
X190002Y-685065D01*
X189912Y-685022D01*
X189824Y-684977D01*
X189737Y-684927D01*
X189653Y-684875D01*
X189570Y-684819D01*
X189490Y-684761D01*
X189412Y-684699D01*
X189337Y-684634D01*
X189264Y-684566D01*
X189194Y-684496D01*
X189126Y-684423D01*
X189061Y-684348D01*
X188999Y-684270D01*
X188941Y-684190D01*
X188885Y-684107D01*
X188833Y-684023D01*
X188783Y-683936D01*
X188738Y-683848D01*
X188695Y-683758D01*
X188656Y-683666D01*
X188621Y-683573D01*
X188589Y-683479D01*
X188561Y-683384D01*
X188536Y-683288D01*
X188515Y-683190D01*
X188498Y-683092D01*
X188485Y-682994D01*
X188476Y-682895D01*
X188470Y-682795D01*
X188468Y-682696D01*
X188468Y-676204D01*
X188470Y-676105D01*
X188476Y-676005D01*
X188485Y-675906D01*
X188498Y-675808D01*
X188516Y-675710D01*
X188536Y-675612D01*
X188561Y-675516D01*
X188589Y-675420D01*
X188621Y-675326D01*
X188656Y-675233D01*
X188695Y-675142D01*
X188738Y-675052D01*
X188783Y-674963D01*
X188833Y-674877D01*
X188885Y-674792D01*
X188941Y-674710D01*
X189000Y-674630D01*
X189061Y-674552D01*
X189126Y-674476D01*
X189194Y-674403D01*
X189264Y-674333D01*
X189337Y-674265D01*
X189413Y-674200D01*
X189491Y-674139D01*
X189571Y-674080D01*
X189653Y-674024D01*
X189738Y-673972D01*
X189824Y-673923D01*
X189913Y-673877D01*
X190003Y-673834D01*
X190094Y-673795D01*
X190187Y-673760D01*
X190281Y-673728D01*
X190377Y-673700D01*
X190473Y-673675D01*
X190571Y-673655D01*
X190669Y-673637D01*
X190767Y-673624D01*
X190866Y-673615D01*
X190965Y-673609D01*
X191065Y-673607D01*
X191064Y-673608D02*
X194959Y-673608D01*
X200660Y-673608D02*
X200660Y-685292D01*
X207151Y-685292D02*
X200660Y-673608D01*
X207151Y-673608D02*
X207151Y-685292D01*
X212852Y-685292D02*
X212852Y-673608D01*
X216097Y-673608D01*
X216210Y-673610D01*
X216323Y-673616D01*
X216436Y-673626D01*
X216549Y-673640D01*
X216661Y-673657D01*
X216772Y-673679D01*
X216882Y-673704D01*
X216992Y-673734D01*
X217100Y-673767D01*
X217207Y-673804D01*
X217313Y-673844D01*
X217417Y-673889D01*
X217520Y-673937D01*
X217621Y-673988D01*
X217720Y-674043D01*
X217817Y-674101D01*
X217912Y-674163D01*
X218005Y-674228D01*
X218095Y-674296D01*
X218183Y-674367D01*
X218269Y-674442D01*
X218352Y-674519D01*
X218432Y-674599D01*
X218509Y-674682D01*
X218584Y-674768D01*
X218655Y-674856D01*
X218723Y-674946D01*
X218788Y-675039D01*
X218850Y-675134D01*
X218908Y-675231D01*
X218963Y-675330D01*
X219014Y-675431D01*
X219062Y-675534D01*
X219107Y-675638D01*
X219147Y-675744D01*
X219184Y-675851D01*
X219217Y-675959D01*
X219247Y-676069D01*
X219272Y-676179D01*
X219294Y-676290D01*
X219311Y-676402D01*
X219325Y-676515D01*
X219335Y-676628D01*
X219341Y-676741D01*
X219343Y-676854D01*
X219343Y-682046D01*
X219344Y-682046D02*
X219342Y-682159D01*
X219336Y-682272D01*
X219326Y-682385D01*
X219312Y-682498D01*
X219295Y-682610D01*
X219273Y-682721D01*
X219248Y-682831D01*
X219218Y-682941D01*
X219185Y-683049D01*
X219148Y-683156D01*
X219108Y-683262D01*
X219063Y-683366D01*
X219015Y-683469D01*
X218964Y-683570D01*
X218909Y-683669D01*
X218851Y-683766D01*
X218789Y-683861D01*
X218724Y-683954D01*
X218656Y-684044D01*
X218585Y-684132D01*
X218510Y-684218D01*
X218433Y-684301D01*
X218353Y-684381D01*
X218270Y-684458D01*
X218184Y-684533D01*
X218096Y-684604D01*
X218006Y-684672D01*
X217913Y-684737D01*
X217818Y-684799D01*
X217721Y-684857D01*
X217622Y-684912D01*
X217521Y-684963D01*
X217418Y-685011D01*
X217314Y-685056D01*
X217208Y-685096D01*
X217101Y-685133D01*
X216993Y-685166D01*
X216883Y-685196D01*
X216773Y-685221D01*
X216662Y-685243D01*
X216550Y-685260D01*
X216437Y-685274D01*
X216324Y-685284D01*
X216211Y-685290D01*
X216098Y-685292D01*
X216097Y-685292D02*
X212852Y-685292D01*
D12*
X124460Y-604520D02*
X120650Y-604520D01*
D13*
X120650Y-617220D02*
X149860Y-617220D01*
X120650Y-617220D02*
X120650Y-604520D01*
D12*
X120650Y-601980D01*
D13*
X120650Y-604520D02*
X120650Y-591820D01*
X120650Y-566420D02*
X149860Y-566420D01*
D12*
X120650Y-566420D02*
X120650Y-591820D01*
D13*
X149860Y-617220D02*
X179070Y-617220D01*
X179070Y-591820D01*
X179070Y-566420D02*
X149860Y-566420D01*
D12*
X179070Y-566420D02*
X179070Y-572770D01*
D13*
X179070Y-585470D01*
D12*
X179070Y-591820D01*
X179070Y-610870D02*
X179070Y-614680D01*
D13*
X179070Y-617220D02*
X179070Y-610870D01*
X172720Y-610870D01*
X172720Y-598170D01*
X179070Y-598170D01*
X179070Y-585470D01*
X172720Y-585470D01*
X172720Y-572770D01*
X179070Y-572770D01*
X179070Y-566420D01*
X130810Y-604520D02*
X120650Y-604520D01*
X130810Y-604520D02*
X130810Y-601980D01*
X130810Y-581660D01*
X130810Y-579120D01*
X120650Y-579120D01*
X130810Y-604520D02*
X135890Y-601980D01*
X130810Y-601980D02*
X120650Y-601980D01*
X135890Y-601980D02*
X135890Y-581660D01*
X130810Y-579120D01*
X130810Y-581660D02*
X120650Y-581660D01*
D14*
X146587Y-558180D02*
X144160Y-555146D01*
X155082Y-555146D01*
X155082Y-558180D02*
X155082Y-552112D01*
X147653Y-621962D02*
X147551Y-621964D01*
X147449Y-621970D01*
X147347Y-621979D01*
X147246Y-621993D01*
X147145Y-622010D01*
X147045Y-622030D01*
X146946Y-622055D01*
X146848Y-622083D01*
X146751Y-622115D01*
X146655Y-622151D01*
X146561Y-622190D01*
X146468Y-622232D01*
X146377Y-622278D01*
X146288Y-622328D01*
X146200Y-622381D01*
X146115Y-622437D01*
X146031Y-622496D01*
X145950Y-622558D01*
X145872Y-622623D01*
X145795Y-622691D01*
X145722Y-622762D01*
X145651Y-622835D01*
X145583Y-622912D01*
X145518Y-622990D01*
X145456Y-623071D01*
X145397Y-623155D01*
X145341Y-623240D01*
X145288Y-623328D01*
X145238Y-623417D01*
X145192Y-623508D01*
X145150Y-623601D01*
X145111Y-623695D01*
X145075Y-623791D01*
X145043Y-623888D01*
X145015Y-623986D01*
X144990Y-624085D01*
X144970Y-624185D01*
X144953Y-624286D01*
X144939Y-624387D01*
X144930Y-624489D01*
X144924Y-624591D01*
X144922Y-624693D01*
X144924Y-624809D01*
X144930Y-624925D01*
X144939Y-625041D01*
X144953Y-625156D01*
X144970Y-625271D01*
X144991Y-625385D01*
X145016Y-625498D01*
X145044Y-625611D01*
X145076Y-625722D01*
X145112Y-625833D01*
X145152Y-625942D01*
X145195Y-626050D01*
X145242Y-626156D01*
X145292Y-626261D01*
X145345Y-626364D01*
X145402Y-626465D01*
X145463Y-626564D01*
X145526Y-626661D01*
X145593Y-626756D01*
X145663Y-626849D01*
X145736Y-626939D01*
X145811Y-627027D01*
X145890Y-627113D01*
X145972Y-627195D01*
X146056Y-627275D01*
X146142Y-627353D01*
X146232Y-627427D01*
X146323Y-627498D01*
X146417Y-627566D01*
X146514Y-627631D01*
X146612Y-627693D01*
X146712Y-627752D01*
X146814Y-627807D01*
X146918Y-627859D01*
X147024Y-627907D01*
X147131Y-627952D01*
X147239Y-627993D01*
X147349Y-628030D01*
X149777Y-622872D02*
X149704Y-622799D01*
X149629Y-622728D01*
X149552Y-622660D01*
X149472Y-622594D01*
X149390Y-622532D01*
X149306Y-622472D01*
X149219Y-622415D01*
X149131Y-622362D01*
X149041Y-622311D01*
X148949Y-622264D01*
X148856Y-622220D01*
X148761Y-622179D01*
X148664Y-622142D01*
X148567Y-622108D01*
X148468Y-622078D01*
X148369Y-622051D01*
X148268Y-622027D01*
X148167Y-622007D01*
X148065Y-621991D01*
X147962Y-621978D01*
X147859Y-621969D01*
X147756Y-621964D01*
X147653Y-621962D01*
X149776Y-622872D02*
X155844Y-628030D01*
X155844Y-621962D01*
D12*
X98694Y-613776D02*
X87264Y-613776D01*
X98694Y-613776D02*
X98694Y-608696D01*
X98694Y-603870D02*
X98694Y-598790D01*
X98694Y-603870D02*
X87264Y-603870D01*
X87264Y-598790D01*
X92344Y-600060D02*
X92344Y-603870D01*
X87264Y-593989D02*
X98694Y-593989D01*
X87264Y-593989D02*
X87264Y-590814D01*
X87266Y-590703D01*
X87272Y-590593D01*
X87281Y-590482D01*
X87295Y-590372D01*
X87312Y-590263D01*
X87333Y-590154D01*
X87358Y-590046D01*
X87387Y-589939D01*
X87419Y-589833D01*
X87455Y-589728D01*
X87495Y-589625D01*
X87538Y-589523D01*
X87585Y-589422D01*
X87636Y-589323D01*
X87689Y-589227D01*
X87746Y-589132D01*
X87807Y-589039D01*
X87870Y-588948D01*
X87937Y-588859D01*
X88007Y-588773D01*
X88080Y-588690D01*
X88155Y-588608D01*
X88233Y-588530D01*
X88315Y-588455D01*
X88398Y-588382D01*
X88484Y-588312D01*
X88573Y-588245D01*
X88664Y-588182D01*
X88757Y-588121D01*
X88852Y-588064D01*
X88948Y-588011D01*
X89047Y-587960D01*
X89148Y-587913D01*
X89250Y-587870D01*
X89353Y-587830D01*
X89458Y-587794D01*
X89564Y-587762D01*
X89671Y-587733D01*
X89779Y-587708D01*
X89888Y-587687D01*
X89997Y-587670D01*
X90107Y-587656D01*
X90218Y-587647D01*
X90328Y-587641D01*
X90439Y-587639D01*
X95519Y-587639D01*
X95630Y-587641D01*
X95740Y-587647D01*
X95851Y-587656D01*
X95961Y-587670D01*
X96070Y-587687D01*
X96179Y-587708D01*
X96287Y-587733D01*
X96394Y-587762D01*
X96500Y-587794D01*
X96605Y-587830D01*
X96708Y-587870D01*
X96810Y-587913D01*
X96911Y-587960D01*
X97010Y-588011D01*
X97107Y-588064D01*
X97201Y-588121D01*
X97294Y-588182D01*
X97385Y-588245D01*
X97474Y-588312D01*
X97560Y-588382D01*
X97643Y-588455D01*
X97725Y-588530D01*
X97803Y-588608D01*
X97878Y-588690D01*
X97951Y-588773D01*
X98021Y-588859D01*
X98088Y-588948D01*
X98151Y-589039D01*
X98212Y-589132D01*
X98269Y-589227D01*
X98322Y-589323D01*
X98373Y-589422D01*
X98420Y-589523D01*
X98463Y-589625D01*
X98503Y-589728D01*
X98539Y-589833D01*
X98571Y-589939D01*
X98600Y-590046D01*
X98625Y-590154D01*
X98646Y-590263D01*
X98663Y-590372D01*
X98677Y-590482D01*
X98686Y-590593D01*
X98692Y-590703D01*
X98694Y-590814D01*
X98694Y-593989D01*
X98694Y-581715D02*
X87264Y-581715D01*
X87264Y-578540D01*
X87266Y-578429D01*
X87272Y-578319D01*
X87281Y-578208D01*
X87295Y-578098D01*
X87312Y-577989D01*
X87333Y-577880D01*
X87358Y-577772D01*
X87387Y-577665D01*
X87419Y-577559D01*
X87455Y-577454D01*
X87495Y-577351D01*
X87538Y-577249D01*
X87585Y-577148D01*
X87636Y-577049D01*
X87689Y-576953D01*
X87746Y-576858D01*
X87807Y-576765D01*
X87870Y-576674D01*
X87937Y-576585D01*
X88007Y-576499D01*
X88080Y-576416D01*
X88155Y-576334D01*
X88233Y-576256D01*
X88315Y-576181D01*
X88398Y-576108D01*
X88484Y-576038D01*
X88573Y-575971D01*
X88664Y-575908D01*
X88757Y-575847D01*
X88852Y-575790D01*
X88948Y-575737D01*
X89047Y-575686D01*
X89148Y-575639D01*
X89250Y-575596D01*
X89353Y-575556D01*
X89458Y-575520D01*
X89564Y-575488D01*
X89671Y-575459D01*
X89779Y-575434D01*
X89888Y-575413D01*
X89997Y-575396D01*
X90107Y-575382D01*
X90218Y-575373D01*
X90328Y-575367D01*
X90439Y-575365D01*
X90550Y-575367D01*
X90660Y-575373D01*
X90771Y-575382D01*
X90881Y-575396D01*
X90990Y-575413D01*
X91099Y-575434D01*
X91207Y-575459D01*
X91314Y-575488D01*
X91420Y-575520D01*
X91525Y-575556D01*
X91628Y-575596D01*
X91730Y-575639D01*
X91831Y-575686D01*
X91930Y-575737D01*
X92027Y-575790D01*
X92121Y-575847D01*
X92214Y-575908D01*
X92305Y-575971D01*
X92394Y-576038D01*
X92480Y-576108D01*
X92563Y-576181D01*
X92645Y-576256D01*
X92723Y-576334D01*
X92798Y-576416D01*
X92871Y-576499D01*
X92941Y-576585D01*
X93008Y-576674D01*
X93071Y-576765D01*
X93132Y-576858D01*
X93189Y-576953D01*
X93242Y-577049D01*
X93293Y-577148D01*
X93340Y-577249D01*
X93383Y-577351D01*
X93423Y-577454D01*
X93459Y-577559D01*
X93491Y-577665D01*
X93520Y-577772D01*
X93545Y-577880D01*
X93566Y-577989D01*
X93583Y-578098D01*
X93597Y-578208D01*
X93606Y-578319D01*
X93612Y-578429D01*
X93614Y-578540D01*
X93614Y-581715D01*
X93614Y-577905D02*
X98694Y-575365D01*
X120650Y-680720D02*
X124460Y-680720D01*
D13*
X120650Y-693420D02*
X149860Y-693420D01*
X120650Y-693420D02*
X120650Y-680720D01*
D12*
X120650Y-678180D01*
D13*
X120650Y-680720D02*
X120650Y-668020D01*
X120650Y-642620D02*
X149860Y-642620D01*
D12*
X120650Y-642620D02*
X120650Y-668020D01*
D13*
X149860Y-693420D02*
X179070Y-693420D01*
X179070Y-668020D01*
X179070Y-642620D02*
X149860Y-642620D01*
D12*
X179070Y-642620D02*
X179070Y-648970D01*
D13*
X179070Y-661670D01*
D12*
X179070Y-668020D01*
X179070Y-687070D02*
X179070Y-690880D01*
D13*
X179070Y-693420D02*
X179070Y-687070D01*
X172720Y-687070D01*
X172720Y-674370D01*
X179070Y-674370D01*
X179070Y-661670D01*
X172720Y-661670D01*
X172720Y-648970D01*
X179070Y-648970D01*
X179070Y-642620D01*
X130810Y-680720D02*
X120650Y-680720D01*
X130810Y-680720D02*
X130810Y-678180D01*
X130810Y-657860D01*
X130810Y-655320D01*
X120650Y-655320D01*
X130810Y-680720D02*
X135890Y-678180D01*
X130810Y-678180D02*
X120650Y-678180D01*
X135890Y-678180D02*
X135890Y-657860D01*
X130810Y-655320D01*
X130810Y-657860D02*
X120650Y-657860D01*
D14*
X146587Y-634380D02*
X144160Y-631346D01*
X155082Y-631346D01*
X155082Y-634380D02*
X155082Y-628312D01*
X147653Y-698162D02*
X147551Y-698164D01*
X147449Y-698170D01*
X147347Y-698179D01*
X147246Y-698193D01*
X147145Y-698210D01*
X147045Y-698230D01*
X146946Y-698255D01*
X146848Y-698283D01*
X146751Y-698315D01*
X146655Y-698351D01*
X146561Y-698390D01*
X146468Y-698432D01*
X146377Y-698478D01*
X146288Y-698528D01*
X146200Y-698581D01*
X146115Y-698637D01*
X146031Y-698696D01*
X145950Y-698758D01*
X145872Y-698823D01*
X145795Y-698891D01*
X145722Y-698962D01*
X145651Y-699035D01*
X145583Y-699112D01*
X145518Y-699190D01*
X145456Y-699271D01*
X145397Y-699355D01*
X145341Y-699440D01*
X145288Y-699528D01*
X145238Y-699617D01*
X145192Y-699708D01*
X145150Y-699801D01*
X145111Y-699895D01*
X145075Y-699991D01*
X145043Y-700088D01*
X145015Y-700186D01*
X144990Y-700285D01*
X144970Y-700385D01*
X144953Y-700486D01*
X144939Y-700587D01*
X144930Y-700689D01*
X144924Y-700791D01*
X144922Y-700893D01*
X144924Y-701009D01*
X144930Y-701125D01*
X144939Y-701241D01*
X144953Y-701356D01*
X144970Y-701471D01*
X144991Y-701585D01*
X145016Y-701698D01*
X145044Y-701811D01*
X145076Y-701922D01*
X145112Y-702033D01*
X145152Y-702142D01*
X145195Y-702250D01*
X145242Y-702356D01*
X145292Y-702461D01*
X145345Y-702564D01*
X145402Y-702665D01*
X145463Y-702764D01*
X145526Y-702861D01*
X145593Y-702956D01*
X145663Y-703049D01*
X145736Y-703139D01*
X145811Y-703227D01*
X145890Y-703313D01*
X145972Y-703395D01*
X146056Y-703475D01*
X146142Y-703553D01*
X146232Y-703627D01*
X146323Y-703698D01*
X146417Y-703766D01*
X146514Y-703831D01*
X146612Y-703893D01*
X146712Y-703952D01*
X146814Y-704007D01*
X146918Y-704059D01*
X147024Y-704107D01*
X147131Y-704152D01*
X147239Y-704193D01*
X147349Y-704230D01*
X149777Y-699072D02*
X149704Y-698999D01*
X149629Y-698928D01*
X149552Y-698860D01*
X149472Y-698794D01*
X149390Y-698732D01*
X149306Y-698672D01*
X149219Y-698615D01*
X149131Y-698562D01*
X149041Y-698511D01*
X148949Y-698464D01*
X148856Y-698420D01*
X148761Y-698379D01*
X148664Y-698342D01*
X148567Y-698308D01*
X148468Y-698278D01*
X148369Y-698251D01*
X148268Y-698227D01*
X148167Y-698207D01*
X148065Y-698191D01*
X147962Y-698178D01*
X147859Y-698169D01*
X147756Y-698164D01*
X147653Y-698162D01*
X149776Y-699072D02*
X155844Y-704230D01*
X155844Y-698162D01*
D12*
X98694Y-692516D02*
X87264Y-692516D01*
X98694Y-692516D02*
X98694Y-687436D01*
X98694Y-682610D02*
X98694Y-677530D01*
X98694Y-682610D02*
X87264Y-682610D01*
X87264Y-677530D01*
X92344Y-678800D02*
X92344Y-682610D01*
X87264Y-672729D02*
X98694Y-672729D01*
X87264Y-672729D02*
X87264Y-669554D01*
X87266Y-669443D01*
X87272Y-669333D01*
X87281Y-669222D01*
X87295Y-669112D01*
X87312Y-669003D01*
X87333Y-668894D01*
X87358Y-668786D01*
X87387Y-668679D01*
X87419Y-668573D01*
X87455Y-668468D01*
X87495Y-668365D01*
X87538Y-668263D01*
X87585Y-668162D01*
X87636Y-668063D01*
X87689Y-667967D01*
X87746Y-667872D01*
X87807Y-667779D01*
X87870Y-667688D01*
X87937Y-667599D01*
X88007Y-667513D01*
X88080Y-667430D01*
X88155Y-667348D01*
X88233Y-667270D01*
X88315Y-667195D01*
X88398Y-667122D01*
X88484Y-667052D01*
X88573Y-666985D01*
X88664Y-666922D01*
X88757Y-666861D01*
X88852Y-666804D01*
X88948Y-666751D01*
X89047Y-666700D01*
X89148Y-666653D01*
X89250Y-666610D01*
X89353Y-666570D01*
X89458Y-666534D01*
X89564Y-666502D01*
X89671Y-666473D01*
X89779Y-666448D01*
X89888Y-666427D01*
X89997Y-666410D01*
X90107Y-666396D01*
X90218Y-666387D01*
X90328Y-666381D01*
X90439Y-666379D01*
X95519Y-666379D01*
X95630Y-666381D01*
X95740Y-666387D01*
X95851Y-666396D01*
X95961Y-666410D01*
X96070Y-666427D01*
X96179Y-666448D01*
X96287Y-666473D01*
X96394Y-666502D01*
X96500Y-666534D01*
X96605Y-666570D01*
X96708Y-666610D01*
X96810Y-666653D01*
X96911Y-666700D01*
X97010Y-666751D01*
X97107Y-666804D01*
X97201Y-666861D01*
X97294Y-666922D01*
X97385Y-666985D01*
X97474Y-667052D01*
X97560Y-667122D01*
X97643Y-667195D01*
X97725Y-667270D01*
X97803Y-667348D01*
X97878Y-667430D01*
X97951Y-667513D01*
X98021Y-667599D01*
X98088Y-667688D01*
X98151Y-667779D01*
X98212Y-667872D01*
X98269Y-667967D01*
X98322Y-668063D01*
X98373Y-668162D01*
X98420Y-668263D01*
X98463Y-668365D01*
X98503Y-668468D01*
X98539Y-668573D01*
X98571Y-668679D01*
X98600Y-668786D01*
X98625Y-668894D01*
X98646Y-669003D01*
X98663Y-669112D01*
X98677Y-669222D01*
X98686Y-669333D01*
X98692Y-669443D01*
X98694Y-669554D01*
X98694Y-672729D01*
X92344Y-656092D02*
X92344Y-654187D01*
X98694Y-654187D01*
X98694Y-657997D01*
X98692Y-658097D01*
X98686Y-658196D01*
X98676Y-658296D01*
X98663Y-658394D01*
X98645Y-658493D01*
X98624Y-658590D01*
X98599Y-658686D01*
X98570Y-658782D01*
X98537Y-658876D01*
X98501Y-658969D01*
X98461Y-659060D01*
X98417Y-659150D01*
X98370Y-659238D01*
X98320Y-659324D01*
X98266Y-659408D01*
X98209Y-659490D01*
X98149Y-659569D01*
X98085Y-659647D01*
X98019Y-659721D01*
X97950Y-659793D01*
X97878Y-659862D01*
X97804Y-659928D01*
X97726Y-659992D01*
X97647Y-660052D01*
X97565Y-660109D01*
X97481Y-660163D01*
X97395Y-660213D01*
X97307Y-660260D01*
X97217Y-660304D01*
X97126Y-660344D01*
X97033Y-660380D01*
X96939Y-660413D01*
X96843Y-660442D01*
X96747Y-660467D01*
X96650Y-660488D01*
X96551Y-660506D01*
X96453Y-660519D01*
X96353Y-660529D01*
X96254Y-660535D01*
X96154Y-660537D01*
X89804Y-660537D01*
X89704Y-660535D01*
X89605Y-660529D01*
X89505Y-660519D01*
X89407Y-660506D01*
X89308Y-660488D01*
X89211Y-660467D01*
X89115Y-660442D01*
X89019Y-660413D01*
X88925Y-660380D01*
X88832Y-660344D01*
X88741Y-660304D01*
X88651Y-660260D01*
X88563Y-660213D01*
X88477Y-660163D01*
X88393Y-660109D01*
X88311Y-660052D01*
X88232Y-659992D01*
X88154Y-659928D01*
X88080Y-659862D01*
X88008Y-659793D01*
X87939Y-659721D01*
X87873Y-659647D01*
X87809Y-659569D01*
X87749Y-659490D01*
X87692Y-659408D01*
X87638Y-659324D01*
X87588Y-659238D01*
X87541Y-659150D01*
X87497Y-659060D01*
X87457Y-658969D01*
X87421Y-658876D01*
X87388Y-658782D01*
X87359Y-658686D01*
X87334Y-658590D01*
X87313Y-658493D01*
X87295Y-658394D01*
X87282Y-658296D01*
X87272Y-658196D01*
X87266Y-658097D01*
X87264Y-657997D01*
X87264Y-654187D01*
X120650Y-769620D02*
X124460Y-769620D01*
D13*
X120650Y-782320D02*
X149860Y-782320D01*
X120650Y-782320D02*
X120650Y-769620D01*
D12*
X120650Y-767080D01*
D13*
X120650Y-769620D02*
X120650Y-756920D01*
X120650Y-731520D02*
X149860Y-731520D01*
D12*
X120650Y-731520D02*
X120650Y-756920D01*
D13*
X149860Y-782320D02*
X179070Y-782320D01*
X179070Y-756920D01*
X179070Y-731520D02*
X149860Y-731520D01*
D12*
X179070Y-731520D02*
X179070Y-737870D01*
D13*
X179070Y-750570D01*
D12*
X179070Y-756920D01*
X179070Y-775970D02*
X179070Y-779780D01*
D13*
X179070Y-782320D02*
X179070Y-775970D01*
X172720Y-775970D01*
X172720Y-763270D01*
X179070Y-763270D01*
X179070Y-750570D01*
X172720Y-750570D01*
X172720Y-737870D01*
X179070Y-737870D01*
X179070Y-731520D01*
X130810Y-769620D02*
X120650Y-769620D01*
X130810Y-769620D02*
X130810Y-767080D01*
X130810Y-746760D01*
X130810Y-744220D01*
X120650Y-744220D01*
X130810Y-769620D02*
X135890Y-767080D01*
X130810Y-767080D02*
X120650Y-767080D01*
X135890Y-767080D02*
X135890Y-746760D01*
X130810Y-744220D01*
X130810Y-746760D02*
X120650Y-746760D01*
D14*
X146587Y-723280D02*
X144160Y-720246D01*
X155082Y-720246D01*
X155082Y-723280D02*
X155082Y-717212D01*
X147653Y-787062D02*
X147551Y-787064D01*
X147449Y-787070D01*
X147347Y-787079D01*
X147246Y-787093D01*
X147145Y-787110D01*
X147045Y-787130D01*
X146946Y-787155D01*
X146848Y-787183D01*
X146751Y-787215D01*
X146655Y-787251D01*
X146561Y-787290D01*
X146468Y-787332D01*
X146377Y-787378D01*
X146288Y-787428D01*
X146200Y-787481D01*
X146115Y-787537D01*
X146031Y-787596D01*
X145950Y-787658D01*
X145872Y-787723D01*
X145795Y-787791D01*
X145722Y-787862D01*
X145651Y-787935D01*
X145583Y-788012D01*
X145518Y-788090D01*
X145456Y-788171D01*
X145397Y-788255D01*
X145341Y-788340D01*
X145288Y-788428D01*
X145238Y-788517D01*
X145192Y-788608D01*
X145150Y-788701D01*
X145111Y-788795D01*
X145075Y-788891D01*
X145043Y-788988D01*
X145015Y-789086D01*
X144990Y-789185D01*
X144970Y-789285D01*
X144953Y-789386D01*
X144939Y-789487D01*
X144930Y-789589D01*
X144924Y-789691D01*
X144922Y-789793D01*
X144924Y-789909D01*
X144930Y-790025D01*
X144939Y-790141D01*
X144953Y-790256D01*
X144970Y-790371D01*
X144991Y-790485D01*
X145016Y-790598D01*
X145044Y-790711D01*
X145076Y-790822D01*
X145112Y-790933D01*
X145152Y-791042D01*
X145195Y-791150D01*
X145242Y-791256D01*
X145292Y-791361D01*
X145345Y-791464D01*
X145402Y-791565D01*
X145463Y-791664D01*
X145526Y-791761D01*
X145593Y-791856D01*
X145663Y-791949D01*
X145736Y-792039D01*
X145811Y-792127D01*
X145890Y-792213D01*
X145972Y-792295D01*
X146056Y-792375D01*
X146142Y-792453D01*
X146232Y-792527D01*
X146323Y-792598D01*
X146417Y-792666D01*
X146514Y-792731D01*
X146612Y-792793D01*
X146712Y-792852D01*
X146814Y-792907D01*
X146918Y-792959D01*
X147024Y-793007D01*
X147131Y-793052D01*
X147239Y-793093D01*
X147349Y-793130D01*
X149777Y-787972D02*
X149704Y-787899D01*
X149629Y-787828D01*
X149552Y-787760D01*
X149472Y-787694D01*
X149390Y-787632D01*
X149306Y-787572D01*
X149219Y-787515D01*
X149131Y-787462D01*
X149041Y-787411D01*
X148949Y-787364D01*
X148856Y-787320D01*
X148761Y-787279D01*
X148664Y-787242D01*
X148567Y-787208D01*
X148468Y-787178D01*
X148369Y-787151D01*
X148268Y-787127D01*
X148167Y-787107D01*
X148065Y-787091D01*
X147962Y-787078D01*
X147859Y-787069D01*
X147756Y-787064D01*
X147653Y-787062D01*
X149776Y-787972D02*
X155844Y-793130D01*
X155844Y-787062D01*
D12*
X98694Y-778876D02*
X87264Y-778876D01*
X98694Y-778876D02*
X98694Y-773796D01*
X98694Y-768970D02*
X98694Y-763890D01*
X98694Y-768970D02*
X87264Y-768970D01*
X87264Y-763890D01*
X92344Y-765160D02*
X92344Y-768970D01*
X87264Y-759089D02*
X98694Y-759089D01*
X87264Y-759089D02*
X87264Y-755914D01*
X87266Y-755803D01*
X87272Y-755693D01*
X87281Y-755582D01*
X87295Y-755472D01*
X87312Y-755363D01*
X87333Y-755254D01*
X87358Y-755146D01*
X87387Y-755039D01*
X87419Y-754933D01*
X87455Y-754828D01*
X87495Y-754725D01*
X87538Y-754623D01*
X87585Y-754522D01*
X87636Y-754423D01*
X87689Y-754327D01*
X87746Y-754232D01*
X87807Y-754139D01*
X87870Y-754048D01*
X87937Y-753959D01*
X88007Y-753873D01*
X88080Y-753790D01*
X88155Y-753708D01*
X88233Y-753630D01*
X88315Y-753555D01*
X88398Y-753482D01*
X88484Y-753412D01*
X88573Y-753345D01*
X88664Y-753282D01*
X88757Y-753221D01*
X88852Y-753164D01*
X88948Y-753111D01*
X89047Y-753060D01*
X89148Y-753013D01*
X89250Y-752970D01*
X89353Y-752930D01*
X89458Y-752894D01*
X89564Y-752862D01*
X89671Y-752833D01*
X89779Y-752808D01*
X89888Y-752787D01*
X89997Y-752770D01*
X90107Y-752756D01*
X90218Y-752747D01*
X90328Y-752741D01*
X90439Y-752739D01*
X95519Y-752739D01*
X95630Y-752741D01*
X95740Y-752747D01*
X95851Y-752756D01*
X95961Y-752770D01*
X96070Y-752787D01*
X96179Y-752808D01*
X96287Y-752833D01*
X96394Y-752862D01*
X96500Y-752894D01*
X96605Y-752930D01*
X96708Y-752970D01*
X96810Y-753013D01*
X96911Y-753060D01*
X97010Y-753111D01*
X97107Y-753164D01*
X97201Y-753221D01*
X97294Y-753282D01*
X97385Y-753345D01*
X97474Y-753412D01*
X97560Y-753482D01*
X97643Y-753555D01*
X97725Y-753630D01*
X97803Y-753708D01*
X97878Y-753790D01*
X97951Y-753873D01*
X98021Y-753959D01*
X98088Y-754048D01*
X98151Y-754139D01*
X98212Y-754232D01*
X98269Y-754327D01*
X98322Y-754423D01*
X98373Y-754522D01*
X98420Y-754623D01*
X98463Y-754725D01*
X98503Y-754828D01*
X98539Y-754933D01*
X98571Y-755039D01*
X98600Y-755146D01*
X98625Y-755254D01*
X98646Y-755363D01*
X98663Y-755472D01*
X98677Y-755582D01*
X98686Y-755693D01*
X98692Y-755803D01*
X98694Y-755914D01*
X98694Y-759089D01*
X92344Y-746707D02*
X92344Y-743532D01*
X92346Y-743421D01*
X92352Y-743311D01*
X92361Y-743200D01*
X92375Y-743090D01*
X92392Y-742981D01*
X92413Y-742872D01*
X92438Y-742764D01*
X92467Y-742657D01*
X92499Y-742551D01*
X92535Y-742446D01*
X92575Y-742343D01*
X92618Y-742241D01*
X92665Y-742140D01*
X92716Y-742041D01*
X92769Y-741945D01*
X92826Y-741850D01*
X92887Y-741757D01*
X92950Y-741666D01*
X93017Y-741577D01*
X93087Y-741491D01*
X93160Y-741408D01*
X93235Y-741326D01*
X93313Y-741248D01*
X93395Y-741173D01*
X93478Y-741100D01*
X93564Y-741030D01*
X93653Y-740963D01*
X93744Y-740900D01*
X93837Y-740839D01*
X93932Y-740782D01*
X94028Y-740729D01*
X94127Y-740678D01*
X94228Y-740631D01*
X94330Y-740588D01*
X94433Y-740548D01*
X94538Y-740512D01*
X94644Y-740480D01*
X94751Y-740451D01*
X94859Y-740426D01*
X94968Y-740405D01*
X95077Y-740388D01*
X95187Y-740374D01*
X95298Y-740365D01*
X95408Y-740359D01*
X95519Y-740357D01*
X95630Y-740359D01*
X95740Y-740365D01*
X95851Y-740374D01*
X95961Y-740388D01*
X96070Y-740405D01*
X96179Y-740426D01*
X96287Y-740451D01*
X96394Y-740480D01*
X96500Y-740512D01*
X96605Y-740548D01*
X96708Y-740588D01*
X96810Y-740631D01*
X96911Y-740678D01*
X97010Y-740729D01*
X97107Y-740782D01*
X97201Y-740839D01*
X97294Y-740900D01*
X97385Y-740963D01*
X97474Y-741030D01*
X97560Y-741100D01*
X97643Y-741173D01*
X97725Y-741248D01*
X97803Y-741326D01*
X97878Y-741408D01*
X97951Y-741491D01*
X98021Y-741577D01*
X98088Y-741666D01*
X98151Y-741757D01*
X98212Y-741850D01*
X98269Y-741945D01*
X98322Y-742041D01*
X98373Y-742140D01*
X98420Y-742241D01*
X98463Y-742343D01*
X98503Y-742446D01*
X98539Y-742551D01*
X98571Y-742657D01*
X98600Y-742764D01*
X98625Y-742872D01*
X98646Y-742981D01*
X98663Y-743090D01*
X98677Y-743200D01*
X98686Y-743311D01*
X98692Y-743421D01*
X98694Y-743532D01*
X98694Y-746707D01*
X87264Y-746707D01*
X87264Y-743532D01*
X87266Y-743432D01*
X87272Y-743333D01*
X87282Y-743233D01*
X87295Y-743135D01*
X87313Y-743036D01*
X87334Y-742939D01*
X87359Y-742843D01*
X87388Y-742747D01*
X87421Y-742653D01*
X87457Y-742560D01*
X87497Y-742469D01*
X87541Y-742379D01*
X87588Y-742291D01*
X87638Y-742205D01*
X87692Y-742121D01*
X87749Y-742039D01*
X87809Y-741960D01*
X87873Y-741882D01*
X87939Y-741808D01*
X88008Y-741736D01*
X88080Y-741667D01*
X88154Y-741601D01*
X88232Y-741537D01*
X88311Y-741477D01*
X88393Y-741420D01*
X88477Y-741366D01*
X88563Y-741316D01*
X88651Y-741269D01*
X88741Y-741225D01*
X88832Y-741185D01*
X88925Y-741149D01*
X89019Y-741116D01*
X89115Y-741087D01*
X89211Y-741062D01*
X89308Y-741041D01*
X89407Y-741023D01*
X89505Y-741010D01*
X89605Y-741000D01*
X89704Y-740994D01*
X89804Y-740992D01*
X89904Y-740994D01*
X90003Y-741000D01*
X90103Y-741010D01*
X90201Y-741023D01*
X90300Y-741041D01*
X90397Y-741062D01*
X90493Y-741087D01*
X90589Y-741116D01*
X90683Y-741149D01*
X90776Y-741185D01*
X90867Y-741225D01*
X90957Y-741269D01*
X91045Y-741316D01*
X91131Y-741366D01*
X91215Y-741420D01*
X91297Y-741477D01*
X91376Y-741537D01*
X91454Y-741601D01*
X91528Y-741667D01*
X91600Y-741736D01*
X91669Y-741808D01*
X91735Y-741882D01*
X91799Y-741960D01*
X91859Y-742039D01*
X91916Y-742121D01*
X91970Y-742205D01*
X92020Y-742291D01*
X92067Y-742379D01*
X92111Y-742469D01*
X92151Y-742560D01*
X92187Y-742653D01*
X92220Y-742747D01*
X92249Y-742843D01*
X92274Y-742939D01*
X92295Y-743036D01*
X92313Y-743135D01*
X92326Y-743233D01*
X92336Y-743333D01*
X92342Y-743432D01*
X92344Y-743532D01*
X120650Y-388620D02*
X124460Y-388620D01*
D13*
X120650Y-401320D02*
X149860Y-401320D01*
X120650Y-401320D02*
X120650Y-388620D01*
D12*
X120650Y-386080D01*
D13*
X120650Y-388620D02*
X120650Y-375920D01*
X120650Y-299720D02*
X149860Y-299720D01*
X120650Y-299720D02*
X120650Y-375920D01*
X149860Y-401320D02*
X179070Y-401320D01*
D12*
X179070Y-377190D01*
D13*
X179070Y-299720D02*
X149860Y-299720D01*
X179070Y-299720D02*
X179070Y-377190D01*
X179070Y-394970D02*
X179070Y-398780D01*
X179070Y-394970D02*
X172720Y-394970D01*
X172720Y-382270D01*
X179070Y-382270D01*
X179070Y-369570D02*
X172720Y-369570D01*
X172720Y-356870D01*
X179070Y-356870D01*
X179070Y-394970D01*
X179070Y-382270D02*
X179070Y-369570D01*
X179070Y-356870D02*
X179070Y-344170D01*
X172720Y-344170D01*
X172720Y-331470D01*
X179070Y-331470D01*
X179070Y-318770D01*
X172720Y-318770D01*
X172720Y-306070D01*
X179070Y-306070D01*
X179070Y-299720D01*
X130810Y-388620D02*
X120650Y-388620D01*
X130810Y-388620D02*
X130810Y-386080D01*
X130810Y-314960D01*
X130810Y-312420D01*
X120650Y-312420D01*
X135890Y-386080D02*
X130810Y-388620D01*
X130810Y-386080D02*
X120650Y-386080D01*
X135890Y-386080D02*
X135890Y-314960D01*
X130810Y-312420D01*
X130810Y-314960D02*
X120650Y-314960D01*
D14*
X147857Y-292750D02*
X145430Y-289716D01*
X156352Y-289716D01*
X156352Y-292750D02*
X156352Y-286682D01*
X144922Y-409703D02*
X153417Y-412130D01*
X153417Y-406062D01*
X150990Y-407883D02*
X155844Y-407883D01*
D12*
X96154Y-395336D02*
X84724Y-395336D01*
X89804Y-395336D02*
X89804Y-388986D01*
X84724Y-388986D02*
X96154Y-388986D01*
X96154Y-381022D02*
X96154Y-378482D01*
X96154Y-381022D02*
X96152Y-381122D01*
X96146Y-381221D01*
X96136Y-381321D01*
X96123Y-381419D01*
X96105Y-381518D01*
X96084Y-381615D01*
X96059Y-381711D01*
X96030Y-381807D01*
X95997Y-381901D01*
X95961Y-381994D01*
X95921Y-382085D01*
X95877Y-382175D01*
X95830Y-382263D01*
X95780Y-382349D01*
X95726Y-382433D01*
X95669Y-382515D01*
X95609Y-382594D01*
X95545Y-382672D01*
X95479Y-382746D01*
X95410Y-382818D01*
X95338Y-382887D01*
X95264Y-382953D01*
X95186Y-383017D01*
X95107Y-383077D01*
X95025Y-383134D01*
X94941Y-383188D01*
X94855Y-383238D01*
X94767Y-383285D01*
X94677Y-383329D01*
X94586Y-383369D01*
X94493Y-383405D01*
X94399Y-383438D01*
X94303Y-383467D01*
X94207Y-383492D01*
X94110Y-383513D01*
X94011Y-383531D01*
X93913Y-383544D01*
X93813Y-383554D01*
X93714Y-383560D01*
X93614Y-383562D01*
X87264Y-383562D01*
X87164Y-383560D01*
X87065Y-383554D01*
X86965Y-383544D01*
X86867Y-383531D01*
X86768Y-383513D01*
X86671Y-383492D01*
X86575Y-383467D01*
X86479Y-383438D01*
X86385Y-383405D01*
X86292Y-383369D01*
X86201Y-383329D01*
X86111Y-383285D01*
X86023Y-383238D01*
X85937Y-383188D01*
X85853Y-383134D01*
X85771Y-383077D01*
X85692Y-383017D01*
X85614Y-382953D01*
X85540Y-382887D01*
X85468Y-382818D01*
X85399Y-382746D01*
X85333Y-382672D01*
X85269Y-382594D01*
X85209Y-382515D01*
X85152Y-382433D01*
X85098Y-382349D01*
X85048Y-382263D01*
X85001Y-382175D01*
X84957Y-382085D01*
X84917Y-381994D01*
X84881Y-381901D01*
X84848Y-381807D01*
X84819Y-381711D01*
X84794Y-381615D01*
X84773Y-381518D01*
X84755Y-381419D01*
X84742Y-381321D01*
X84732Y-381221D01*
X84726Y-381122D01*
X84724Y-381022D01*
X84724Y-378482D01*
X91709Y-373873D02*
X91709Y-366253D01*
X96154Y-357617D02*
X96152Y-357517D01*
X96146Y-357418D01*
X96136Y-357318D01*
X96123Y-357220D01*
X96105Y-357121D01*
X96084Y-357024D01*
X96059Y-356928D01*
X96030Y-356832D01*
X95997Y-356738D01*
X95961Y-356645D01*
X95921Y-356554D01*
X95877Y-356464D01*
X95830Y-356376D01*
X95780Y-356290D01*
X95726Y-356206D01*
X95669Y-356124D01*
X95609Y-356045D01*
X95545Y-355967D01*
X95479Y-355893D01*
X95410Y-355821D01*
X95338Y-355752D01*
X95264Y-355686D01*
X95186Y-355622D01*
X95107Y-355562D01*
X95025Y-355505D01*
X94941Y-355451D01*
X94855Y-355401D01*
X94767Y-355354D01*
X94677Y-355310D01*
X94586Y-355270D01*
X94493Y-355234D01*
X94399Y-355201D01*
X94303Y-355172D01*
X94207Y-355147D01*
X94110Y-355126D01*
X94011Y-355108D01*
X93913Y-355095D01*
X93813Y-355085D01*
X93714Y-355079D01*
X93614Y-355077D01*
X96154Y-357617D02*
X96152Y-357758D01*
X96147Y-357899D01*
X96137Y-358040D01*
X96124Y-358181D01*
X96108Y-358321D01*
X96087Y-358461D01*
X96063Y-358600D01*
X96035Y-358739D01*
X96004Y-358876D01*
X95969Y-359013D01*
X95931Y-359149D01*
X95889Y-359284D01*
X95843Y-359417D01*
X95794Y-359550D01*
X95741Y-359681D01*
X95685Y-359810D01*
X95626Y-359939D01*
X95563Y-360065D01*
X95497Y-360190D01*
X95428Y-360313D01*
X95355Y-360434D01*
X95279Y-360553D01*
X95200Y-360671D01*
X95119Y-360786D01*
X95034Y-360898D01*
X94946Y-361009D01*
X94855Y-361117D01*
X94762Y-361223D01*
X94665Y-361326D01*
X94566Y-361427D01*
X87264Y-361110D02*
X87164Y-361108D01*
X87065Y-361102D01*
X86965Y-361092D01*
X86867Y-361079D01*
X86768Y-361061D01*
X86671Y-361040D01*
X86575Y-361015D01*
X86479Y-360986D01*
X86385Y-360953D01*
X86292Y-360917D01*
X86201Y-360877D01*
X86111Y-360833D01*
X86023Y-360786D01*
X85937Y-360736D01*
X85853Y-360682D01*
X85771Y-360625D01*
X85692Y-360565D01*
X85614Y-360501D01*
X85540Y-360435D01*
X85468Y-360366D01*
X85399Y-360294D01*
X85333Y-360220D01*
X85269Y-360142D01*
X85209Y-360063D01*
X85152Y-359981D01*
X85098Y-359897D01*
X85048Y-359811D01*
X85001Y-359723D01*
X84957Y-359633D01*
X84917Y-359542D01*
X84881Y-359449D01*
X84848Y-359355D01*
X84819Y-359259D01*
X84794Y-359163D01*
X84773Y-359066D01*
X84755Y-358967D01*
X84742Y-358869D01*
X84732Y-358769D01*
X84726Y-358670D01*
X84724Y-358570D01*
X84726Y-358437D01*
X84731Y-358304D01*
X84741Y-358171D01*
X84754Y-358038D01*
X84771Y-357906D01*
X84791Y-357774D01*
X84815Y-357643D01*
X84843Y-357513D01*
X84874Y-357383D01*
X84909Y-357255D01*
X84948Y-357127D01*
X84990Y-357001D01*
X85036Y-356876D01*
X85085Y-356752D01*
X85137Y-356629D01*
X85193Y-356508D01*
X85253Y-356389D01*
X85315Y-356271D01*
X85381Y-356156D01*
X85450Y-356042D01*
X85523Y-355930D01*
X85598Y-355820D01*
X85677Y-355712D01*
X89487Y-359840D02*
X89435Y-359924D01*
X89380Y-360007D01*
X89321Y-360087D01*
X89260Y-360165D01*
X89196Y-360240D01*
X89128Y-360313D01*
X89058Y-360384D01*
X88986Y-360451D01*
X88911Y-360516D01*
X88833Y-360578D01*
X88753Y-360637D01*
X88671Y-360693D01*
X88587Y-360745D01*
X88501Y-360794D01*
X88413Y-360840D01*
X88323Y-360883D01*
X88232Y-360922D01*
X88139Y-360957D01*
X88045Y-360989D01*
X87950Y-361017D01*
X87854Y-361042D01*
X87757Y-361062D01*
X87659Y-361080D01*
X87561Y-361093D01*
X87462Y-361102D01*
X87363Y-361108D01*
X87264Y-361110D01*
X91391Y-356347D02*
X91443Y-356263D01*
X91498Y-356180D01*
X91557Y-356100D01*
X91618Y-356022D01*
X91682Y-355947D01*
X91750Y-355874D01*
X91820Y-355803D01*
X91892Y-355736D01*
X91967Y-355671D01*
X92045Y-355609D01*
X92125Y-355550D01*
X92207Y-355494D01*
X92291Y-355442D01*
X92377Y-355393D01*
X92465Y-355347D01*
X92555Y-355304D01*
X92646Y-355265D01*
X92739Y-355230D01*
X92833Y-355198D01*
X92928Y-355170D01*
X93024Y-355145D01*
X93121Y-355125D01*
X93219Y-355107D01*
X93317Y-355094D01*
X93416Y-355085D01*
X93515Y-355079D01*
X93614Y-355077D01*
X91392Y-356347D02*
X89487Y-359840D01*
X84724Y-349914D02*
X96154Y-349914D01*
X84724Y-349914D02*
X84724Y-346739D01*
X84726Y-346628D01*
X84732Y-346518D01*
X84741Y-346407D01*
X84755Y-346297D01*
X84772Y-346188D01*
X84793Y-346079D01*
X84818Y-345971D01*
X84847Y-345864D01*
X84879Y-345758D01*
X84915Y-345653D01*
X84955Y-345550D01*
X84998Y-345448D01*
X85045Y-345347D01*
X85096Y-345248D01*
X85149Y-345152D01*
X85206Y-345057D01*
X85267Y-344964D01*
X85330Y-344873D01*
X85397Y-344784D01*
X85467Y-344698D01*
X85540Y-344615D01*
X85615Y-344533D01*
X85693Y-344455D01*
X85775Y-344380D01*
X85858Y-344307D01*
X85944Y-344237D01*
X86033Y-344170D01*
X86124Y-344107D01*
X86217Y-344046D01*
X86312Y-343989D01*
X86408Y-343936D01*
X86507Y-343885D01*
X86608Y-343838D01*
X86710Y-343795D01*
X86813Y-343755D01*
X86918Y-343719D01*
X87024Y-343687D01*
X87131Y-343658D01*
X87239Y-343633D01*
X87348Y-343612D01*
X87457Y-343595D01*
X87567Y-343581D01*
X87678Y-343572D01*
X87788Y-343566D01*
X87899Y-343564D01*
X88010Y-343566D01*
X88120Y-343572D01*
X88231Y-343581D01*
X88341Y-343595D01*
X88450Y-343612D01*
X88559Y-343633D01*
X88667Y-343658D01*
X88774Y-343687D01*
X88880Y-343719D01*
X88985Y-343755D01*
X89088Y-343795D01*
X89190Y-343838D01*
X89291Y-343885D01*
X89390Y-343936D01*
X89487Y-343989D01*
X89581Y-344046D01*
X89674Y-344107D01*
X89765Y-344170D01*
X89854Y-344237D01*
X89940Y-344307D01*
X90023Y-344380D01*
X90105Y-344455D01*
X90183Y-344533D01*
X90258Y-344615D01*
X90331Y-344698D01*
X90401Y-344784D01*
X90468Y-344873D01*
X90531Y-344964D01*
X90592Y-345057D01*
X90649Y-345152D01*
X90702Y-345248D01*
X90753Y-345347D01*
X90800Y-345448D01*
X90843Y-345550D01*
X90883Y-345653D01*
X90919Y-345758D01*
X90951Y-345864D01*
X90980Y-345971D01*
X91005Y-346079D01*
X91026Y-346188D01*
X91043Y-346297D01*
X91057Y-346407D01*
X91066Y-346518D01*
X91072Y-346628D01*
X91074Y-346739D01*
X91074Y-349914D01*
X91074Y-346104D02*
X96154Y-343564D01*
X90439Y-338567D02*
X90214Y-338564D01*
X89989Y-338556D01*
X89765Y-338543D01*
X89541Y-338524D01*
X89317Y-338500D01*
X89094Y-338471D01*
X88872Y-338436D01*
X88651Y-338396D01*
X88431Y-338350D01*
X88212Y-338300D01*
X87994Y-338244D01*
X87777Y-338183D01*
X87562Y-338117D01*
X87349Y-338046D01*
X87138Y-337969D01*
X86928Y-337888D01*
X86720Y-337802D01*
X86515Y-337711D01*
X86312Y-337615D01*
X86224Y-337583D01*
X86137Y-337547D01*
X86051Y-337508D01*
X85967Y-337465D01*
X85885Y-337419D01*
X85805Y-337370D01*
X85727Y-337318D01*
X85651Y-337262D01*
X85577Y-337204D01*
X85506Y-337142D01*
X85437Y-337078D01*
X85371Y-337011D01*
X85308Y-336942D01*
X85247Y-336870D01*
X85189Y-336796D01*
X85135Y-336719D01*
X85083Y-336641D01*
X85035Y-336560D01*
X84990Y-336478D01*
X84948Y-336393D01*
X84910Y-336307D01*
X84875Y-336220D01*
X84843Y-336132D01*
X84816Y-336042D01*
X84791Y-335951D01*
X84771Y-335859D01*
X84754Y-335767D01*
X84741Y-335673D01*
X84732Y-335580D01*
X84726Y-335486D01*
X84724Y-335392D01*
X84726Y-335298D01*
X84732Y-335204D01*
X84741Y-335111D01*
X84754Y-335017D01*
X84771Y-334925D01*
X84791Y-334833D01*
X84816Y-334742D01*
X84843Y-334652D01*
X84875Y-334564D01*
X84910Y-334477D01*
X84948Y-334391D01*
X84990Y-334306D01*
X85035Y-334224D01*
X85083Y-334143D01*
X85135Y-334065D01*
X85189Y-333988D01*
X85247Y-333914D01*
X85308Y-333842D01*
X85371Y-333773D01*
X85437Y-333706D01*
X85506Y-333642D01*
X85577Y-333580D01*
X85651Y-333522D01*
X85727Y-333466D01*
X85805Y-333414D01*
X85885Y-333365D01*
X85967Y-333319D01*
X86051Y-333276D01*
X86137Y-333237D01*
X86224Y-333201D01*
X86312Y-333169D01*
X86515Y-333073D01*
X86720Y-332982D01*
X86928Y-332896D01*
X87138Y-332815D01*
X87349Y-332738D01*
X87562Y-332667D01*
X87777Y-332601D01*
X87994Y-332540D01*
X88212Y-332484D01*
X88431Y-332434D01*
X88651Y-332388D01*
X88872Y-332348D01*
X89094Y-332313D01*
X89317Y-332284D01*
X89541Y-332260D01*
X89765Y-332241D01*
X89989Y-332228D01*
X90214Y-332220D01*
X90439Y-332217D01*
X90439Y-338567D02*
X90664Y-338564D01*
X90889Y-338556D01*
X91113Y-338543D01*
X91337Y-338524D01*
X91561Y-338500D01*
X91784Y-338471D01*
X92006Y-338436D01*
X92227Y-338396D01*
X92447Y-338350D01*
X92666Y-338300D01*
X92884Y-338244D01*
X93101Y-338183D01*
X93316Y-338117D01*
X93529Y-338046D01*
X93740Y-337969D01*
X93950Y-337888D01*
X94158Y-337802D01*
X94363Y-337711D01*
X94566Y-337615D01*
X94567Y-337615D02*
X94655Y-337583D01*
X94742Y-337547D01*
X94828Y-337508D01*
X94912Y-337465D01*
X94994Y-337419D01*
X95074Y-337370D01*
X95152Y-337318D01*
X95228Y-337262D01*
X95302Y-337204D01*
X95373Y-337142D01*
X95442Y-337078D01*
X95508Y-337011D01*
X95571Y-336942D01*
X95632Y-336870D01*
X95690Y-336796D01*
X95744Y-336719D01*
X95796Y-336641D01*
X95844Y-336560D01*
X95889Y-336478D01*
X95931Y-336393D01*
X95969Y-336307D01*
X96004Y-336220D01*
X96036Y-336132D01*
X96063Y-336042D01*
X96088Y-335951D01*
X96108Y-335859D01*
X96125Y-335767D01*
X96138Y-335673D01*
X96147Y-335580D01*
X96153Y-335486D01*
X96155Y-335392D01*
X94566Y-333169D02*
X94363Y-333073D01*
X94158Y-332982D01*
X93950Y-332896D01*
X93740Y-332815D01*
X93529Y-332738D01*
X93316Y-332667D01*
X93101Y-332601D01*
X92884Y-332540D01*
X92666Y-332484D01*
X92447Y-332434D01*
X92227Y-332388D01*
X92006Y-332348D01*
X91784Y-332313D01*
X91561Y-332284D01*
X91337Y-332260D01*
X91113Y-332241D01*
X90889Y-332228D01*
X90664Y-332220D01*
X90439Y-332217D01*
X94567Y-333169D02*
X94655Y-333201D01*
X94742Y-333237D01*
X94828Y-333276D01*
X94912Y-333319D01*
X94994Y-333365D01*
X95074Y-333414D01*
X95152Y-333466D01*
X95228Y-333522D01*
X95302Y-333580D01*
X95373Y-333642D01*
X95442Y-333706D01*
X95508Y-333773D01*
X95571Y-333842D01*
X95632Y-333914D01*
X95690Y-333988D01*
X95744Y-334065D01*
X95796Y-334143D01*
X95844Y-334224D01*
X95889Y-334306D01*
X95931Y-334391D01*
X95969Y-334477D01*
X96004Y-334564D01*
X96036Y-334652D01*
X96063Y-334742D01*
X96088Y-334833D01*
X96108Y-334925D01*
X96125Y-335017D01*
X96138Y-335111D01*
X96147Y-335204D01*
X96153Y-335298D01*
X96155Y-335392D01*
X93614Y-337932D02*
X87264Y-332852D01*
X93614Y-327137D02*
X84724Y-324597D01*
X93614Y-327137D02*
X93614Y-320787D01*
X91074Y-322692D02*
X96154Y-322692D01*
X97424Y-316215D02*
X97424Y-311135D01*
X87582Y-300213D02*
X87478Y-300215D01*
X87373Y-300221D01*
X87269Y-300230D01*
X87166Y-300243D01*
X87063Y-300261D01*
X86961Y-300281D01*
X86859Y-300306D01*
X86759Y-300334D01*
X86659Y-300366D01*
X86561Y-300402D01*
X86464Y-300441D01*
X86369Y-300483D01*
X86275Y-300529D01*
X86183Y-300579D01*
X86093Y-300631D01*
X86005Y-300687D01*
X85919Y-300747D01*
X85835Y-300809D01*
X85754Y-300874D01*
X85675Y-300942D01*
X85598Y-301014D01*
X85525Y-301087D01*
X85453Y-301164D01*
X85385Y-301243D01*
X85320Y-301324D01*
X85258Y-301408D01*
X85198Y-301494D01*
X85142Y-301582D01*
X85090Y-301672D01*
X85040Y-301764D01*
X84994Y-301858D01*
X84952Y-301953D01*
X84913Y-302050D01*
X84877Y-302148D01*
X84845Y-302248D01*
X84817Y-302348D01*
X84792Y-302450D01*
X84772Y-302552D01*
X84754Y-302655D01*
X84741Y-302758D01*
X84732Y-302862D01*
X84726Y-302967D01*
X84724Y-303071D01*
X84726Y-303189D01*
X84732Y-303308D01*
X84741Y-303426D01*
X84754Y-303543D01*
X84772Y-303660D01*
X84792Y-303777D01*
X84817Y-303893D01*
X84845Y-304008D01*
X84878Y-304121D01*
X84913Y-304234D01*
X84953Y-304346D01*
X84995Y-304456D01*
X85042Y-304565D01*
X85092Y-304673D01*
X85145Y-304778D01*
X85202Y-304882D01*
X85262Y-304984D01*
X85325Y-305084D01*
X85392Y-305182D01*
X85461Y-305278D01*
X85534Y-305371D01*
X85610Y-305462D01*
X85688Y-305551D01*
X85770Y-305637D01*
X85854Y-305720D01*
X85940Y-305801D01*
X86030Y-305878D01*
X86121Y-305953D01*
X86215Y-306025D01*
X86312Y-306094D01*
X86410Y-306159D01*
X86511Y-306222D01*
X86614Y-306281D01*
X86718Y-306337D01*
X86824Y-306389D01*
X86932Y-306438D01*
X87041Y-306483D01*
X87152Y-306525D01*
X87264Y-306563D01*
X89804Y-301165D02*
X89729Y-301089D01*
X89650Y-301014D01*
X89569Y-300943D01*
X89485Y-300874D01*
X89399Y-300809D01*
X89311Y-300747D01*
X89221Y-300687D01*
X89129Y-300631D01*
X89034Y-300578D01*
X88938Y-300529D01*
X88840Y-300483D01*
X88741Y-300440D01*
X88640Y-300401D01*
X88538Y-300366D01*
X88435Y-300334D01*
X88331Y-300306D01*
X88226Y-300281D01*
X88119Y-300260D01*
X88013Y-300243D01*
X87906Y-300230D01*
X87798Y-300221D01*
X87690Y-300215D01*
X87582Y-300213D01*
X89804Y-301166D02*
X96154Y-306563D01*
X96154Y-300213D01*
X120650Y-528320D02*
X124460Y-528320D01*
D13*
X120650Y-541020D02*
X149860Y-541020D01*
X120650Y-541020D02*
X120650Y-528320D01*
D12*
X120650Y-525780D01*
D13*
X120650Y-528320D02*
X120650Y-515620D01*
X120650Y-439420D02*
X149860Y-439420D01*
X120650Y-439420D02*
X120650Y-515620D01*
X149860Y-541020D02*
X179070Y-541020D01*
D12*
X179070Y-516890D01*
D13*
X179070Y-439420D02*
X149860Y-439420D01*
X179070Y-439420D02*
X179070Y-516890D01*
X179070Y-534670D02*
X179070Y-538480D01*
X179070Y-534670D02*
X172720Y-534670D01*
X172720Y-521970D01*
X179070Y-521970D01*
X179070Y-509270D02*
X172720Y-509270D01*
X172720Y-496570D01*
X179070Y-496570D01*
X179070Y-534670D01*
X179070Y-521970D02*
X179070Y-509270D01*
X179070Y-496570D02*
X179070Y-483870D01*
X172720Y-483870D01*
X172720Y-471170D01*
X179070Y-471170D01*
X179070Y-458470D01*
X172720Y-458470D01*
X172720Y-445770D01*
X179070Y-445770D01*
X179070Y-439420D01*
X130810Y-528320D02*
X120650Y-528320D01*
X130810Y-528320D02*
X130810Y-525780D01*
X130810Y-454660D01*
X130810Y-452120D01*
X120650Y-452120D01*
X135890Y-525780D02*
X130810Y-528320D01*
X130810Y-525780D02*
X120650Y-525780D01*
X135890Y-525780D02*
X135890Y-454660D01*
X130810Y-452120D01*
X130810Y-454660D02*
X120650Y-454660D01*
D14*
X147857Y-432450D02*
X145430Y-429416D01*
X156352Y-429416D01*
X156352Y-432450D02*
X156352Y-426382D01*
X144922Y-549403D02*
X153417Y-551830D01*
X153417Y-545762D01*
X150990Y-547583D02*
X155844Y-547583D01*
D12*
X96154Y-537576D02*
X84724Y-537576D01*
X89804Y-537576D02*
X89804Y-531226D01*
X84724Y-531226D02*
X96154Y-531226D01*
X96154Y-523262D02*
X96154Y-520722D01*
X96154Y-523262D02*
X96152Y-523362D01*
X96146Y-523461D01*
X96136Y-523561D01*
X96123Y-523659D01*
X96105Y-523758D01*
X96084Y-523855D01*
X96059Y-523951D01*
X96030Y-524047D01*
X95997Y-524141D01*
X95961Y-524234D01*
X95921Y-524325D01*
X95877Y-524415D01*
X95830Y-524503D01*
X95780Y-524589D01*
X95726Y-524673D01*
X95669Y-524755D01*
X95609Y-524834D01*
X95545Y-524912D01*
X95479Y-524986D01*
X95410Y-525058D01*
X95338Y-525127D01*
X95264Y-525193D01*
X95186Y-525257D01*
X95107Y-525317D01*
X95025Y-525374D01*
X94941Y-525428D01*
X94855Y-525478D01*
X94767Y-525525D01*
X94677Y-525569D01*
X94586Y-525609D01*
X94493Y-525645D01*
X94399Y-525678D01*
X94303Y-525707D01*
X94207Y-525732D01*
X94110Y-525753D01*
X94011Y-525771D01*
X93913Y-525784D01*
X93813Y-525794D01*
X93714Y-525800D01*
X93614Y-525802D01*
X87264Y-525802D01*
X87164Y-525800D01*
X87065Y-525794D01*
X86965Y-525784D01*
X86867Y-525771D01*
X86768Y-525753D01*
X86671Y-525732D01*
X86575Y-525707D01*
X86479Y-525678D01*
X86385Y-525645D01*
X86292Y-525609D01*
X86201Y-525569D01*
X86111Y-525525D01*
X86023Y-525478D01*
X85937Y-525428D01*
X85853Y-525374D01*
X85771Y-525317D01*
X85692Y-525257D01*
X85614Y-525193D01*
X85540Y-525127D01*
X85468Y-525058D01*
X85399Y-524986D01*
X85333Y-524912D01*
X85269Y-524834D01*
X85209Y-524755D01*
X85152Y-524673D01*
X85098Y-524589D01*
X85048Y-524503D01*
X85001Y-524415D01*
X84957Y-524325D01*
X84917Y-524234D01*
X84881Y-524141D01*
X84848Y-524047D01*
X84819Y-523951D01*
X84794Y-523855D01*
X84773Y-523758D01*
X84755Y-523659D01*
X84742Y-523561D01*
X84732Y-523461D01*
X84726Y-523362D01*
X84724Y-523262D01*
X84724Y-520722D01*
X91709Y-516113D02*
X91709Y-508493D01*
X96154Y-499857D02*
X96152Y-499757D01*
X96146Y-499658D01*
X96136Y-499558D01*
X96123Y-499460D01*
X96105Y-499361D01*
X96084Y-499264D01*
X96059Y-499168D01*
X96030Y-499072D01*
X95997Y-498978D01*
X95961Y-498885D01*
X95921Y-498794D01*
X95877Y-498704D01*
X95830Y-498616D01*
X95780Y-498530D01*
X95726Y-498446D01*
X95669Y-498364D01*
X95609Y-498285D01*
X95545Y-498207D01*
X95479Y-498133D01*
X95410Y-498061D01*
X95338Y-497992D01*
X95264Y-497926D01*
X95186Y-497862D01*
X95107Y-497802D01*
X95025Y-497745D01*
X94941Y-497691D01*
X94855Y-497641D01*
X94767Y-497594D01*
X94677Y-497550D01*
X94586Y-497510D01*
X94493Y-497474D01*
X94399Y-497441D01*
X94303Y-497412D01*
X94207Y-497387D01*
X94110Y-497366D01*
X94011Y-497348D01*
X93913Y-497335D01*
X93813Y-497325D01*
X93714Y-497319D01*
X93614Y-497317D01*
X96154Y-499857D02*
X96152Y-499998D01*
X96147Y-500139D01*
X96137Y-500280D01*
X96124Y-500421D01*
X96108Y-500561D01*
X96087Y-500701D01*
X96063Y-500840D01*
X96035Y-500979D01*
X96004Y-501116D01*
X95969Y-501253D01*
X95931Y-501389D01*
X95889Y-501524D01*
X95843Y-501657D01*
X95794Y-501790D01*
X95741Y-501921D01*
X95685Y-502050D01*
X95626Y-502179D01*
X95563Y-502305D01*
X95497Y-502430D01*
X95428Y-502553D01*
X95355Y-502674D01*
X95279Y-502793D01*
X95200Y-502911D01*
X95119Y-503026D01*
X95034Y-503138D01*
X94946Y-503249D01*
X94855Y-503357D01*
X94762Y-503463D01*
X94665Y-503566D01*
X94566Y-503667D01*
X87264Y-503350D02*
X87164Y-503348D01*
X87065Y-503342D01*
X86965Y-503332D01*
X86867Y-503319D01*
X86768Y-503301D01*
X86671Y-503280D01*
X86575Y-503255D01*
X86479Y-503226D01*
X86385Y-503193D01*
X86292Y-503157D01*
X86201Y-503117D01*
X86111Y-503073D01*
X86023Y-503026D01*
X85937Y-502976D01*
X85853Y-502922D01*
X85771Y-502865D01*
X85692Y-502805D01*
X85614Y-502741D01*
X85540Y-502675D01*
X85468Y-502606D01*
X85399Y-502534D01*
X85333Y-502460D01*
X85269Y-502382D01*
X85209Y-502303D01*
X85152Y-502221D01*
X85098Y-502137D01*
X85048Y-502051D01*
X85001Y-501963D01*
X84957Y-501873D01*
X84917Y-501782D01*
X84881Y-501689D01*
X84848Y-501595D01*
X84819Y-501499D01*
X84794Y-501403D01*
X84773Y-501306D01*
X84755Y-501207D01*
X84742Y-501109D01*
X84732Y-501009D01*
X84726Y-500910D01*
X84724Y-500810D01*
X84726Y-500677D01*
X84731Y-500544D01*
X84741Y-500411D01*
X84754Y-500278D01*
X84771Y-500146D01*
X84791Y-500014D01*
X84815Y-499883D01*
X84843Y-499753D01*
X84874Y-499623D01*
X84909Y-499495D01*
X84948Y-499367D01*
X84990Y-499241D01*
X85036Y-499116D01*
X85085Y-498992D01*
X85137Y-498869D01*
X85193Y-498748D01*
X85253Y-498629D01*
X85315Y-498511D01*
X85381Y-498396D01*
X85450Y-498282D01*
X85523Y-498170D01*
X85598Y-498060D01*
X85677Y-497952D01*
X89487Y-502080D02*
X89435Y-502164D01*
X89380Y-502247D01*
X89321Y-502327D01*
X89260Y-502405D01*
X89196Y-502480D01*
X89128Y-502553D01*
X89058Y-502624D01*
X88986Y-502691D01*
X88911Y-502756D01*
X88833Y-502818D01*
X88753Y-502877D01*
X88671Y-502933D01*
X88587Y-502985D01*
X88501Y-503034D01*
X88413Y-503080D01*
X88323Y-503123D01*
X88232Y-503162D01*
X88139Y-503197D01*
X88045Y-503229D01*
X87950Y-503257D01*
X87854Y-503282D01*
X87757Y-503302D01*
X87659Y-503320D01*
X87561Y-503333D01*
X87462Y-503342D01*
X87363Y-503348D01*
X87264Y-503350D01*
X91391Y-498587D02*
X91443Y-498503D01*
X91498Y-498420D01*
X91557Y-498340D01*
X91618Y-498262D01*
X91682Y-498187D01*
X91750Y-498114D01*
X91820Y-498043D01*
X91892Y-497976D01*
X91967Y-497911D01*
X92045Y-497849D01*
X92125Y-497790D01*
X92207Y-497734D01*
X92291Y-497682D01*
X92377Y-497633D01*
X92465Y-497587D01*
X92555Y-497544D01*
X92646Y-497505D01*
X92739Y-497470D01*
X92833Y-497438D01*
X92928Y-497410D01*
X93024Y-497385D01*
X93121Y-497365D01*
X93219Y-497347D01*
X93317Y-497334D01*
X93416Y-497325D01*
X93515Y-497319D01*
X93614Y-497317D01*
X91392Y-498587D02*
X89487Y-502080D01*
X84724Y-492154D02*
X96154Y-492154D01*
X84724Y-492154D02*
X84724Y-488979D01*
X84726Y-488868D01*
X84732Y-488758D01*
X84741Y-488647D01*
X84755Y-488537D01*
X84772Y-488428D01*
X84793Y-488319D01*
X84818Y-488211D01*
X84847Y-488104D01*
X84879Y-487998D01*
X84915Y-487893D01*
X84955Y-487790D01*
X84998Y-487688D01*
X85045Y-487587D01*
X85096Y-487488D01*
X85149Y-487392D01*
X85206Y-487297D01*
X85267Y-487204D01*
X85330Y-487113D01*
X85397Y-487024D01*
X85467Y-486938D01*
X85540Y-486855D01*
X85615Y-486773D01*
X85693Y-486695D01*
X85775Y-486620D01*
X85858Y-486547D01*
X85944Y-486477D01*
X86033Y-486410D01*
X86124Y-486347D01*
X86217Y-486286D01*
X86312Y-486229D01*
X86408Y-486176D01*
X86507Y-486125D01*
X86608Y-486078D01*
X86710Y-486035D01*
X86813Y-485995D01*
X86918Y-485959D01*
X87024Y-485927D01*
X87131Y-485898D01*
X87239Y-485873D01*
X87348Y-485852D01*
X87457Y-485835D01*
X87567Y-485821D01*
X87678Y-485812D01*
X87788Y-485806D01*
X87899Y-485804D01*
X88010Y-485806D01*
X88120Y-485812D01*
X88231Y-485821D01*
X88341Y-485835D01*
X88450Y-485852D01*
X88559Y-485873D01*
X88667Y-485898D01*
X88774Y-485927D01*
X88880Y-485959D01*
X88985Y-485995D01*
X89088Y-486035D01*
X89190Y-486078D01*
X89291Y-486125D01*
X89390Y-486176D01*
X89487Y-486229D01*
X89581Y-486286D01*
X89674Y-486347D01*
X89765Y-486410D01*
X89854Y-486477D01*
X89940Y-486547D01*
X90023Y-486620D01*
X90105Y-486695D01*
X90183Y-486773D01*
X90258Y-486855D01*
X90331Y-486938D01*
X90401Y-487024D01*
X90468Y-487113D01*
X90531Y-487204D01*
X90592Y-487297D01*
X90649Y-487392D01*
X90702Y-487488D01*
X90753Y-487587D01*
X90800Y-487688D01*
X90843Y-487790D01*
X90883Y-487893D01*
X90919Y-487998D01*
X90951Y-488104D01*
X90980Y-488211D01*
X91005Y-488319D01*
X91026Y-488428D01*
X91043Y-488537D01*
X91057Y-488647D01*
X91066Y-488758D01*
X91072Y-488868D01*
X91074Y-488979D01*
X91074Y-492154D01*
X91074Y-488344D02*
X96154Y-485804D01*
X90439Y-480807D02*
X90214Y-480804D01*
X89989Y-480796D01*
X89765Y-480783D01*
X89541Y-480764D01*
X89317Y-480740D01*
X89094Y-480711D01*
X88872Y-480676D01*
X88651Y-480636D01*
X88431Y-480590D01*
X88212Y-480540D01*
X87994Y-480484D01*
X87777Y-480423D01*
X87562Y-480357D01*
X87349Y-480286D01*
X87138Y-480209D01*
X86928Y-480128D01*
X86720Y-480042D01*
X86515Y-479951D01*
X86312Y-479855D01*
X86224Y-479823D01*
X86137Y-479787D01*
X86051Y-479748D01*
X85967Y-479705D01*
X85885Y-479659D01*
X85805Y-479610D01*
X85727Y-479558D01*
X85651Y-479502D01*
X85577Y-479444D01*
X85506Y-479382D01*
X85437Y-479318D01*
X85371Y-479251D01*
X85308Y-479182D01*
X85247Y-479110D01*
X85189Y-479036D01*
X85135Y-478959D01*
X85083Y-478881D01*
X85035Y-478800D01*
X84990Y-478718D01*
X84948Y-478633D01*
X84910Y-478547D01*
X84875Y-478460D01*
X84843Y-478372D01*
X84816Y-478282D01*
X84791Y-478191D01*
X84771Y-478099D01*
X84754Y-478007D01*
X84741Y-477913D01*
X84732Y-477820D01*
X84726Y-477726D01*
X84724Y-477632D01*
X84726Y-477538D01*
X84732Y-477444D01*
X84741Y-477351D01*
X84754Y-477257D01*
X84771Y-477165D01*
X84791Y-477073D01*
X84816Y-476982D01*
X84843Y-476892D01*
X84875Y-476804D01*
X84910Y-476717D01*
X84948Y-476631D01*
X84990Y-476546D01*
X85035Y-476464D01*
X85083Y-476383D01*
X85135Y-476305D01*
X85189Y-476228D01*
X85247Y-476154D01*
X85308Y-476082D01*
X85371Y-476013D01*
X85437Y-475946D01*
X85506Y-475882D01*
X85577Y-475820D01*
X85651Y-475762D01*
X85727Y-475706D01*
X85805Y-475654D01*
X85885Y-475605D01*
X85967Y-475559D01*
X86051Y-475516D01*
X86137Y-475477D01*
X86224Y-475441D01*
X86312Y-475409D01*
X86515Y-475313D01*
X86720Y-475222D01*
X86928Y-475136D01*
X87138Y-475055D01*
X87349Y-474978D01*
X87562Y-474907D01*
X87777Y-474841D01*
X87994Y-474780D01*
X88212Y-474724D01*
X88431Y-474674D01*
X88651Y-474628D01*
X88872Y-474588D01*
X89094Y-474553D01*
X89317Y-474524D01*
X89541Y-474500D01*
X89765Y-474481D01*
X89989Y-474468D01*
X90214Y-474460D01*
X90439Y-474457D01*
X90439Y-480807D02*
X90664Y-480804D01*
X90889Y-480796D01*
X91113Y-480783D01*
X91337Y-480764D01*
X91561Y-480740D01*
X91784Y-480711D01*
X92006Y-480676D01*
X92227Y-480636D01*
X92447Y-480590D01*
X92666Y-480540D01*
X92884Y-480484D01*
X93101Y-480423D01*
X93316Y-480357D01*
X93529Y-480286D01*
X93740Y-480209D01*
X93950Y-480128D01*
X94158Y-480042D01*
X94363Y-479951D01*
X94566Y-479855D01*
X94567Y-479855D02*
X94655Y-479823D01*
X94742Y-479787D01*
X94828Y-479748D01*
X94912Y-479705D01*
X94994Y-479659D01*
X95074Y-479610D01*
X95152Y-479558D01*
X95228Y-479502D01*
X95302Y-479444D01*
X95373Y-479382D01*
X95442Y-479318D01*
X95508Y-479251D01*
X95571Y-479182D01*
X95632Y-479110D01*
X95690Y-479036D01*
X95744Y-478959D01*
X95796Y-478881D01*
X95844Y-478800D01*
X95889Y-478718D01*
X95931Y-478633D01*
X95969Y-478547D01*
X96004Y-478460D01*
X96036Y-478372D01*
X96063Y-478282D01*
X96088Y-478191D01*
X96108Y-478099D01*
X96125Y-478007D01*
X96138Y-477913D01*
X96147Y-477820D01*
X96153Y-477726D01*
X96155Y-477632D01*
X94566Y-475409D02*
X94363Y-475313D01*
X94158Y-475222D01*
X93950Y-475136D01*
X93740Y-475055D01*
X93529Y-474978D01*
X93316Y-474907D01*
X93101Y-474841D01*
X92884Y-474780D01*
X92666Y-474724D01*
X92447Y-474674D01*
X92227Y-474628D01*
X92006Y-474588D01*
X91784Y-474553D01*
X91561Y-474524D01*
X91337Y-474500D01*
X91113Y-474481D01*
X90889Y-474468D01*
X90664Y-474460D01*
X90439Y-474457D01*
X94567Y-475409D02*
X94655Y-475441D01*
X94742Y-475477D01*
X94828Y-475516D01*
X94912Y-475559D01*
X94994Y-475605D01*
X95074Y-475654D01*
X95152Y-475706D01*
X95228Y-475762D01*
X95302Y-475820D01*
X95373Y-475882D01*
X95442Y-475946D01*
X95508Y-476013D01*
X95571Y-476082D01*
X95632Y-476154D01*
X95690Y-476228D01*
X95744Y-476305D01*
X95796Y-476383D01*
X95844Y-476464D01*
X95889Y-476546D01*
X95931Y-476631D01*
X95969Y-476717D01*
X96004Y-476804D01*
X96036Y-476892D01*
X96063Y-476982D01*
X96088Y-477073D01*
X96108Y-477165D01*
X96125Y-477257D01*
X96138Y-477351D01*
X96147Y-477444D01*
X96153Y-477538D01*
X96155Y-477632D01*
X93614Y-480172D02*
X87264Y-475092D01*
X93614Y-469377D02*
X84724Y-466837D01*
X93614Y-469377D02*
X93614Y-463027D01*
X91074Y-464932D02*
X96154Y-464932D01*
X97424Y-458455D02*
X97424Y-453375D01*
X87264Y-448803D02*
X84724Y-445628D01*
X96154Y-445628D01*
X96154Y-448803D02*
X96154Y-442453D01*
X200660Y-45720D02*
X467360Y-45720D01*
X467360Y-223520D01*
X200660Y-223520D01*
X200660Y-45720D01*
M02*
