M48
;GenerationSoftware,Autodesk,EAGLE,9.6.2*%
;CreationDate,2026-07-03T13:12:54Z*%
FMAT,2
ICI,OFF
METRIC,TZ,000.000
T7C0.700
T6C0.813
T5C1.000
T4C1.016
T3C1.110
T2C2.540
T1C5.000
%
G90
M71
T1
X4000Y4000
X56000Y4000
X56000Y106000
X4000Y106000
T2
X17300Y82730
X42700Y82730
T3
X38890Y73840
X23650Y91620
X43970Y73840
X36350Y91620
X33810Y91620
X31270Y91620
X28730Y91620
X26190Y91620
X41430Y73840
X21110Y91620
X18570Y91620
X16030Y91620
X16030Y73840
X18570Y73840
X21110Y73840
X23650Y73840
X26190Y73840
X28730Y73840
X31270Y73840
X33810Y73840
X36350Y73840
X43970Y91620
X41430Y91620
X38890Y91620
T4
X53000Y88540
X53000Y86000
X53000Y83460
T5
X42500Y59180
X17500Y26160
X17500Y31240
X17500Y33780
X17500Y36320
X17500Y38860
X17500Y41400
X17500Y43940
X17500Y46480
X17500Y49020
X17500Y51560
X17500Y54100
X17500Y56640
X17500Y59180
X42500Y61720
X17500Y61720
X17500Y28700
X42500Y56640
X42500Y54100
X42500Y51560
X42500Y49020
X42500Y46480
X42500Y43940
X42500Y41400
X42500Y38860
X42500Y36320
X42500Y33780
X42500Y31240
X42500Y28700
X42500Y26160
T6
X28420Y46500
X38580Y41400
X28420Y41400
X8270Y88000
X5730Y96000
X8270Y96000
X5730Y88000
X5730Y80000
X8270Y80000
X37500Y31180
X37500Y21020
X22500Y31180
X22500Y21020
X38580Y36300
X28420Y36300
X38580Y46500
T7
X43000Y8000
X41000Y8000
X52000Y64000
X52000Y66000
X52000Y68000
X8000Y67000
X8000Y65000
X8000Y63000
X52000Y21000
X52000Y19000
X8000Y21000
X15000Y8000
X13000Y8000
X13000Y102000
X15000Y102000
X52000Y13000
X52000Y11000
X8000Y11000
X8000Y13000
X8000Y19000
X46000Y105000
X48000Y105000
X21100Y102000
X23100Y102000
X25100Y102000
X27100Y102000
X27000Y8000
X25000Y8000
X23000Y8000
X21000Y8000
X8000Y51000
X8000Y53000
X8000Y55000
X8000Y57000
X52000Y57000
X52000Y55000
X52000Y53000
X52000Y51000
X8000Y39000
X8000Y41000
X8000Y43000
X8000Y45000
X52000Y45000
X52000Y43000
X52000Y41000
X52000Y39000
X8000Y27000
X8000Y29000
X8000Y31000
X8000Y33000
X52000Y33000
X52000Y31000
X52000Y29000
X52000Y27000
M30