M48
;GenerationSoftware,Autodesk,EAGLE,9.6.2*%
;CreationDate,2026-05-28T10:25:20Z*%
FMAT,2
ICI,OFF
METRIC,TZ,000.000
T3C0.700
T2C1.000
T1C4.000
%
G90
M71
T1
X2540Y27940
X2540Y2540
X41910Y27940
X41910Y2540
T2
X16010Y12300
X18550Y12300
X21090Y12300
X23630Y12300
X26170Y12300
X28710Y12300
X18550Y27540
X21090Y27540
X23630Y27540
X26170Y27540
T3
X14470Y7220
X12470Y7220
X7120Y17650
X7120Y19650
X32250Y7220
X30250Y7220
X37600Y19650
X37600Y17650
X25360Y7220
X23360Y7220
X21360Y7220
X19360Y7220
M30